M48
; DRILL file {KiCad (5.1.5)-3} date 06.03.2020 23:44:21
; FORMAT={-:-/ absolute / metric / decimal}
; #@! TF.CreationDate,2020-03-06T23:44:21+01:00
; #@! TF.GenerationSoftware,Kicad,Pcbnew,(5.1.5)-3
FMAT,2
METRIC
T1C0.300
T2C0.400
T3C0.500
T4C0.600
T5C0.650
T6C0.700
T7C0.800
T8C0.850
T9C0.900
T10C0.950
T11C1.000
T12C1.520
T13C2.300
%
G90
G05
T1
X20.32Y-108.585
X20.32Y-109.855
X20.32Y-111.125
X20.32Y-112.395
X20.32Y-113.665
X20.32Y-114.935
X20.32Y-116.205
X20.32Y-117.475
X21.59Y-24.765
X21.59Y-26.035
X21.59Y-27.305
X21.59Y-28.575
X21.59Y-29.845
X21.59Y-31.115
X22.225Y-34.925
X22.225Y-36.195
X22.225Y-48.895
X22.225Y-50.165
X22.225Y-51.435
X22.225Y-52.705
X22.225Y-53.975
X22.225Y-55.245
X22.225Y-88.9
X23.495Y-34.925
X23.495Y-36.195
X23.495Y-48.895
X23.495Y-50.165
X23.495Y-51.435
X23.495Y-52.705
X23.495Y-53.975
X23.495Y-55.245
X23.495Y-56.515
X23.495Y-57.785
X23.495Y-59.055
X23.495Y-60.325
X26.035Y-21.59
X26.035Y-22.86
X26.67Y-26.035
X26.67Y-27.305
X26.67Y-28.575
X26.67Y-31.115
X26.67Y-33.655
X26.67Y-34.925
X26.67Y-36.83
X26.67Y-41.91
X26.67Y-43.815
X26.67Y-45.085
X26.67Y-47.625
X26.67Y-51.435
X26.67Y-52.705
X26.67Y-53.975
X26.67Y-74.93
X26.67Y-83.215
X27.305Y-21.59
X27.305Y-55.245
X27.305Y-56.515
X27.305Y-59.055
X27.305Y-60.325
X27.305Y-61.595
X27.305Y-62.865
X27.305Y-87.63
X27.305Y-88.9
X27.305Y-90.17
X27.94Y-24.765
X27.94Y-26.035
X27.94Y-27.305
X27.94Y-32.385
X27.94Y-33.655
X27.94Y-34.925
X27.94Y-36.83
X27.94Y-41.91
X27.94Y-43.815
X27.94Y-45.085
X27.94Y-46.355
X27.94Y-52.705
X27.94Y-53.975
X27.94Y-83.215
X28.575Y-55.245
X28.575Y-56.515
X28.575Y-59.055
X28.575Y-60.325
X28.575Y-61.595
X28.575Y-62.865
X28.575Y-64.135
X29.21Y-26.035
X29.21Y-28.575
X29.21Y-31.115
X29.21Y-32.385
X29.21Y-33.655
X29.21Y-34.925
X29.21Y-36.83
X29.21Y-38.1
X29.21Y-40.64
X29.21Y-41.91
X29.21Y-43.815
X29.21Y-45.085
X29.21Y-46.355
X29.21Y-47.625
X29.845Y-27.94
X29.845Y-49.53
X29.845Y-51.435
X29.845Y-55.245
X29.845Y-56.515
X29.845Y-59.055
X29.845Y-60.325
X29.845Y-61.595
X29.845Y-62.865
X29.845Y-64.135
X29.845Y-65.405
X30.48Y-27.305
X30.48Y-33.655
X30.48Y-34.925
X30.48Y-36.83
X30.48Y-38.1
X30.48Y-75.565
X30.48Y-89.535
X30.48Y-90.805
X30.48Y-92.075
X30.48Y-93.98
X31.115Y-64.135
X31.115Y-65.405
X31.115Y-66.675
X31.75Y-28.575
X31.75Y-33.655
X31.75Y-34.925
X31.75Y-36.83
X31.75Y-38.1
X33.02Y-28.575
X33.02Y-33.655
X33.02Y-34.925
X33.02Y-36.83
X33.02Y-40.64
X33.02Y-41.91
X33.02Y-49.53
X33.02Y-52.07
X33.02Y-76.2
X34.29Y-28.575
X34.29Y-33.655
X34.29Y-34.925
X34.29Y-36.83
X34.29Y-38.1
X34.29Y-40.64
X34.29Y-74.93
X34.29Y-76.2
X34.29Y-90.17
X34.29Y-91.44
X34.29Y-92.71
X34.29Y-93.98
X35.56Y-22.225
X35.56Y-23.495
X35.56Y-24.765
X35.56Y-26.035
X35.56Y-27.305
X35.56Y-28.575
X35.56Y-33.655
X35.56Y-34.925
X35.56Y-36.83
X35.56Y-38.1
X35.56Y-40.64
X35.56Y-41.91
X35.56Y-49.53
X35.56Y-66.675
X35.56Y-77.47
X36.195Y-57.785
X36.195Y-59.055
X36.83Y-22.225
X36.83Y-33.655
X36.83Y-34.925
X36.83Y-36.83
X36.83Y-38.1
X36.83Y-40.64
X36.83Y-41.91
X36.83Y-47.625
X36.83Y-67.945
X36.83Y-77.47
X36.83Y-78.74
X37.465Y-56.515
X37.465Y-81.915
X37.465Y-83.185
X37.465Y-84.455
X37.465Y-85.725
X37.465Y-112.395
X37.465Y-113.665
X37.465Y-116.205
X37.465Y-117.475
X38.1Y-22.225
X38.1Y-33.655
X38.1Y-34.925
X38.1Y-36.83
X38.1Y-40.64
X38.1Y-45.085
X38.1Y-46.355
X38.1Y-47.625
X38.1Y-49.53
X38.1Y-52.07
X38.1Y-69.215
X38.1Y-97.155
X38.1Y-102.87
X38.735Y-56.515
X38.735Y-77.47
X38.735Y-81.915
X38.735Y-83.185
X38.735Y-84.455
X38.735Y-86.995
X38.735Y-109.855
X38.735Y-112.395
X38.735Y-113.665
X38.735Y-116.205
X38.735Y-117.475
X39.37Y-22.225
X39.37Y-33.655
X39.37Y-34.925
X40.005Y-55.245
X40.005Y-56.515
X40.005Y-77.47
X40.005Y-81.915
X40.005Y-84.455
X40.005Y-85.725
X40.005Y-86.995
X40.005Y-97.79
X40.005Y-109.855
X40.005Y-112.395
X40.005Y-113.665
X40.005Y-117.475
X40.64Y-22.225
X40.64Y-33.655
X40.64Y-34.925
X40.64Y-49.53
X40.64Y-52.07
X41.275Y-53.975
X41.275Y-55.245
X41.275Y-56.515
X41.275Y-66.675
X41.275Y-77.47
X41.275Y-84.455
X41.275Y-85.725
X41.275Y-86.995
X41.275Y-96.52
X41.275Y-97.79
X41.275Y-109.855
X41.275Y-112.395
X41.275Y-113.665
X41.275Y-117.475
X41.91Y-23.495
X41.91Y-24.765
X41.91Y-26.035
X41.91Y-27.305
X41.91Y-28.575
X41.91Y-29.845
X41.91Y-31.115
X41.91Y-32.385
X41.91Y-33.655
X41.91Y-34.925
X41.91Y-36.195
X41.91Y-37.465
X41.91Y-38.735
X41.91Y-40.005
X41.91Y-41.275
X41.91Y-42.545
X41.91Y-43.815
X41.91Y-45.085
X41.91Y-46.355
X42.545Y-53.975
X42.545Y-55.245
X42.545Y-56.515
X42.545Y-67.945
X42.545Y-69.215
X42.545Y-70.485
X42.545Y-71.755
X42.545Y-73.025
X42.545Y-74.93
X42.545Y-77.47
X42.545Y-84.455
X42.545Y-85.725
X42.545Y-86.995
X42.545Y-88.265
X42.545Y-89.535
X42.545Y-95.25
X42.545Y-96.52
X42.545Y-97.79
X43.18Y-37.465
X43.18Y-38.735
X43.18Y-40.005
X43.18Y-41.275
X43.18Y-42.545
X43.18Y-43.815
X43.18Y-45.085
X43.18Y-46.355
X43.18Y-47.625
X43.18Y-49.53
X43.815Y-53.975
X43.815Y-55.245
X43.815Y-56.515
X43.815Y-67.945
X43.815Y-69.215
X43.815Y-70.485
X43.815Y-73.025
X43.815Y-74.295
X43.815Y-80.01
X43.815Y-93.98
X43.815Y-97.79
X44.45Y-24.765
X44.45Y-26.035
X44.45Y-33.655
X44.45Y-34.925
X44.45Y-36.195
X44.45Y-38.735
X44.45Y-40.005
X44.45Y-41.275
X44.45Y-42.545
X44.45Y-43.815
X44.45Y-45.085
X44.45Y-46.355
X44.45Y-47.625
X44.45Y-117.475
X45.085Y-52.705
X45.085Y-55.245
X45.085Y-56.515
X45.085Y-57.785
X45.085Y-66.675
X45.085Y-67.945
X45.085Y-69.215
X45.085Y-70.485
X45.085Y-71.755
X45.085Y-73.025
X45.085Y-74.295
X45.085Y-92.71
X45.085Y-93.98
X45.085Y-97.79
X45.085Y-102.87
X45.085Y-104.14
X45.085Y-105.41
X45.085Y-106.68
X45.085Y-109.22
X45.085Y-111.76
X45.72Y-33.655
X45.72Y-34.925
X45.72Y-36.195
X45.72Y-37.465
X45.72Y-40.005
X45.72Y-41.275
X45.72Y-42.545
X45.72Y-43.815
X45.72Y-45.085
X45.72Y-46.355
X45.72Y-47.625
X45.72Y-49.53
X45.72Y-116.205
X45.72Y-117.475
X46.355Y-53.975
X46.355Y-59.055
X46.355Y-66.675
X46.355Y-67.945
X46.355Y-69.215
X46.355Y-70.485
X46.355Y-71.755
X46.355Y-73.025
X46.355Y-74.295
X46.355Y-75.565
X46.355Y-76.835
X46.355Y-78.105
X46.355Y-92.71
X46.355Y-97.79
X46.355Y-102.87
X46.355Y-104.14
X46.355Y-105.41
X46.355Y-110.49
X46.99Y-34.925
X46.99Y-36.195
X46.99Y-37.465
X46.99Y-38.735
X46.99Y-42.545
X46.99Y-43.815
X46.99Y-45.085
X46.99Y-46.355
X46.99Y-47.625
X46.99Y-116.205
X46.99Y-117.475
X47.625Y-48.895
X47.625Y-55.245
X47.625Y-60.325
X47.625Y-67.945
X47.625Y-69.215
X47.625Y-70.485
X47.625Y-71.755
X47.625Y-73.025
X47.625Y-74.295
X47.625Y-78.105
X47.625Y-86.995
X47.625Y-89.535
X47.625Y-92.71
X47.625Y-97.79
X47.625Y-102.87
X47.625Y-104.14
X47.625Y-109.22
X48.26Y-23.495
X48.26Y-24.765
X48.26Y-36.195
X48.26Y-37.465
X48.26Y-38.735
X48.26Y-43.815
X48.26Y-45.085
X48.26Y-46.355
X48.26Y-47.625
X48.26Y-116.205
X48.26Y-117.475
X48.895Y-48.895
X48.895Y-50.165
X48.895Y-51.435
X48.895Y-52.705
X48.895Y-55.245
X48.895Y-56.515
X48.895Y-61.595
X48.895Y-63.5
X48.895Y-67.945
X48.895Y-69.215
X48.895Y-70.485
X48.895Y-71.755
X48.895Y-73.025
X48.895Y-74.295
X48.895Y-78.105
X48.895Y-86.995
X48.895Y-89.535
X48.895Y-92.71
X48.895Y-97.79
X48.895Y-102.87
X48.895Y-107.95
X49.53Y-23.495
X49.53Y-36.83
X49.53Y-116.205
X49.53Y-117.475
X50.165Y-55.245
X50.165Y-56.515
X50.165Y-57.785
X50.165Y-59.055
X50.165Y-61.595
X50.165Y-64.135
X50.165Y-69.215
X50.165Y-70.485
X50.165Y-71.755
X50.165Y-73.025
X50.165Y-74.295
X50.165Y-75.565
X50.165Y-76.835
X50.165Y-78.105
X50.165Y-86.995
X50.165Y-89.535
X50.165Y-92.71
X50.165Y-97.79
X50.165Y-106.68
X50.8Y-23.495
X50.8Y-24.765
X50.8Y-36.83
X50.8Y-116.205
X50.8Y-117.475
X51.435Y-53.975
X51.435Y-55.245
X51.435Y-56.515
X51.435Y-57.785
X51.435Y-59.055
X51.435Y-61.595
X51.435Y-64.77
X51.435Y-71.755
X51.435Y-73.025
X51.435Y-74.295
X51.435Y-78.105
X51.435Y-86.995
X51.435Y-89.535
X51.435Y-92.71
X51.435Y-97.79
X51.435Y-105.41
X52.07Y-24.765
X52.07Y-30.48
X52.07Y-36.83
X52.07Y-43.815
X52.07Y-116.205
X52.07Y-117.475
X52.705Y-53.975
X52.705Y-55.245
X52.705Y-56.515
X52.705Y-57.785
X52.705Y-59.055
X52.705Y-61.595
X52.705Y-65.405
X52.705Y-71.755
X52.705Y-73.025
X52.705Y-78.105
X52.705Y-79.375
X52.705Y-80.645
X52.705Y-81.915
X52.705Y-92.71
X52.705Y-97.79
X52.705Y-105.41
X53.34Y-24.765
X53.34Y-30.48
X53.34Y-36.83
X53.34Y-43.815
X53.34Y-116.205
X53.34Y-117.475
X53.975Y-57.785
X53.975Y-59.055
X53.975Y-61.595
X53.975Y-65.405
X53.975Y-70.485
X53.975Y-71.755
X53.975Y-73.025
X53.975Y-76.835
X53.975Y-78.105
X53.975Y-79.375
X53.975Y-80.645
X53.975Y-83.185
X53.975Y-92.71
X53.975Y-93.98
X53.975Y-97.79
X53.975Y-102.235
X53.975Y-106.68
X54.61Y-23.495
X54.61Y-24.765
X54.61Y-26.035
X54.61Y-30.48
X54.61Y-36.83
X54.61Y-116.205
X54.61Y-117.475
X55.245Y-59.055
X55.245Y-60.325
X55.245Y-61.595
X55.245Y-64.77
X55.245Y-69.215
X55.245Y-70.485
X55.245Y-71.755
X55.245Y-73.025
X55.245Y-74.295
X55.245Y-75.565
X55.245Y-76.835
X55.245Y-78.105
X55.245Y-79.375
X55.245Y-81.915
X55.245Y-83.185
X55.245Y-92.71
X55.245Y-93.98
X55.245Y-102.235
X55.88Y-23.495
X55.88Y-24.765
X55.88Y-26.035
X55.88Y-30.48
X55.88Y-36.83
X55.88Y-38.1
X55.88Y-39.37
X55.88Y-42.545
X55.88Y-43.815
X55.88Y-97.155
X55.88Y-116.205
X55.88Y-117.475
X56.515Y-56.515
X56.515Y-67.31
X56.515Y-70.485
X56.515Y-71.755
X56.515Y-73.025
X56.515Y-74.295
X56.515Y-75.565
X56.515Y-76.835
X56.515Y-78.105
X56.515Y-80.645
X56.515Y-81.915
X56.515Y-93.98
X56.515Y-102.235
X56.515Y-104.14
X56.515Y-109.22
X57.15Y-23.495
X57.15Y-24.765
X57.15Y-26.035
X57.15Y-30.48
X57.15Y-42.545
X57.15Y-43.815
X57.15Y-116.205
X57.15Y-117.475
X57.785Y-54.61
X57.785Y-56.515
X57.785Y-67.31
X57.785Y-70.485
X57.785Y-71.755
X57.785Y-75.565
X57.785Y-76.835
X57.785Y-79.375
X57.785Y-80.645
X57.785Y-86.995
X57.785Y-89.535
X57.785Y-93.98
X57.785Y-96.52
X57.785Y-102.235
X57.785Y-105.41
X57.785Y-110.49
X58.42Y-23.495
X58.42Y-24.765
X58.42Y-38.735
X58.42Y-40.005
X58.42Y-48.26
X58.42Y-116.205
X58.42Y-117.475
X59.055Y-56.515
X59.055Y-57.785
X59.055Y-75.565
X59.055Y-76.835
X59.055Y-78.105
X59.055Y-79.375
X59.055Y-86.995
X59.055Y-89.535
X59.055Y-96.52
X59.69Y-24.765
X59.69Y-28.575
X60.325Y-54.61
X60.325Y-59.055
X60.325Y-60.325
X60.325Y-86.995
X60.325Y-89.535
X60.325Y-93.98
X60.325Y-97.155
X61.595Y-56.515
X61.595Y-59.055
X61.595Y-60.325
X61.595Y-61.595
X61.595Y-86.995
X61.595Y-89.535
X61.595Y-92.71
X61.595Y-93.98
X61.595Y-98.425
X61.595Y-100.33
X61.595Y-101.6
X61.595Y-102.87
X61.595Y-104.14
X62.23Y-29.21
X62.23Y-30.48
X62.865Y-56.515
X62.865Y-57.785
X62.865Y-59.055
X62.865Y-60.325
X62.865Y-86.995
X62.865Y-89.535
X62.865Y-98.425
X62.865Y-100.33
X62.865Y-101.6
X62.865Y-102.87
X63.5Y-62.23
X63.5Y-63.5
X63.5Y-64.77
X63.5Y-66.04
X63.5Y-67.31
X63.5Y-68.58
X64.135Y-45.085
X64.135Y-46.355
X64.135Y-47.625
X64.135Y-48.895
X64.135Y-50.165
X64.135Y-51.435
X64.135Y-52.705
X64.135Y-56.515
X64.135Y-57.785
X64.135Y-59.055
X64.135Y-98.425
X64.135Y-100.33
X64.135Y-104.14
X64.77Y-60.96
X64.77Y-62.23
X64.77Y-63.5
X64.77Y-64.77
X64.77Y-67.31
X64.77Y-68.58
X64.77Y-69.85
X64.77Y-72.39
X64.77Y-73.66
X64.77Y-74.93
X64.77Y-76.2
X64.77Y-77.47
X64.77Y-78.74
X64.77Y-80.01
X64.77Y-81.28
X64.77Y-82.55
X64.77Y-86.995
X64.77Y-88.265
X65.405Y-33.02
X65.405Y-34.29
X65.405Y-35.56
X65.405Y-36.83
X65.405Y-38.1
X65.405Y-39.37
X65.405Y-54.61
X65.405Y-57.785
X65.405Y-59.055
X65.405Y-97.155
X65.405Y-105.41
X65.405Y-117.475
X66.04Y-60.96
X66.04Y-62.23
X66.04Y-63.5
X66.04Y-64.77
X66.04Y-66.04
X66.04Y-68.58
X66.04Y-69.85
X66.04Y-72.39
X66.04Y-77.47
X66.04Y-82.55
X66.04Y-88.265
X66.04Y-116.84
X66.675Y-54.61
X66.675Y-97.155
X66.675Y-104.14
X67.31Y-62.23
X67.31Y-63.5
X67.31Y-64.77
X67.31Y-66.04
X67.31Y-67.31
X67.31Y-69.85
X67.31Y-72.39
X67.31Y-77.47
X67.31Y-82.55
X67.31Y-83.82
X67.31Y-95.25
X67.31Y-113.665
X67.945Y-101.6
X67.945Y-102.87
X67.945Y-104.14
X68.58Y-62.23
X68.58Y-66.04
X68.58Y-67.31
X68.58Y-69.85
X68.58Y-72.39
X68.58Y-77.47
X68.58Y-82.55
X68.58Y-83.82
X68.58Y-91.44
X68.58Y-92.71
X68.58Y-93.98
X68.58Y-95.25
X68.58Y-113.665
X69.215Y-54.61
X69.215Y-101.6
X69.215Y-102.87
X69.215Y-104.14
X69.85Y-43.18
X69.85Y-45.72
X69.85Y-66.04
X69.85Y-67.31
X69.85Y-69.85
X69.85Y-72.39
X69.85Y-77.47
X69.85Y-82.55
X69.85Y-83.82
X69.85Y-91.44
X69.85Y-92.71
X69.85Y-93.98
X69.85Y-95.25
X69.85Y-112.395
X71.12Y-33.02
X71.12Y-34.29
X71.12Y-43.18
X71.12Y-45.72
X71.12Y-48.895
X71.12Y-50.165
X71.12Y-51.435
X71.12Y-52.705
X71.12Y-53.975
X71.12Y-55.245
X71.12Y-66.04
X71.12Y-67.31
X71.12Y-69.85
X71.12Y-72.39
X71.12Y-73.66
X71.12Y-74.93
X71.12Y-76.2
X71.12Y-77.47
X71.12Y-78.74
X71.12Y-80.01
X71.12Y-81.28
X71.12Y-82.55
X71.12Y-83.82
X71.12Y-85.09
X71.12Y-86.36
X71.12Y-87.63
X71.12Y-88.9
X71.12Y-91.44
X71.12Y-92.71
X71.12Y-93.98
X71.12Y-95.25
X71.12Y-103.505
X71.12Y-112.395
X72.39Y-24.13
X72.39Y-29.21
X72.39Y-31.75
X72.39Y-62.23
X72.39Y-66.04
X72.39Y-67.31
X72.39Y-69.85
X72.39Y-72.39
X72.39Y-77.47
X72.39Y-82.55
X72.39Y-83.82
X72.39Y-85.09
X72.39Y-86.36
X72.39Y-87.63
X72.39Y-88.9
X72.39Y-91.44
X72.39Y-92.71
X72.39Y-93.98
X72.39Y-95.25
X72.39Y-96.52
X72.39Y-112.395
X72.39Y-113.665
X73.025Y-38.1
X73.025Y-40.64
X73.66Y-24.13
X73.66Y-25.4
X73.66Y-29.21
X73.66Y-31.75
X73.66Y-58.42
X73.66Y-59.69
X73.66Y-60.96
X73.66Y-62.23
X73.66Y-63.5
X73.66Y-64.77
X73.66Y-66.04
X73.66Y-67.31
X73.66Y-69.85
X73.66Y-72.39
X73.66Y-77.47
X73.66Y-82.55
X73.66Y-83.82
X73.66Y-85.09
X73.66Y-86.36
X73.66Y-87.63
X73.66Y-88.9
X73.66Y-91.44
X73.66Y-92.71
X73.66Y-93.98
X73.66Y-95.25
X73.66Y-96.52
X73.66Y-105.41
X73.66Y-106.68
X73.66Y-107.95
X73.66Y-112.395
X73.66Y-113.665
X74.295Y-38.1
X74.295Y-40.64
X74.93Y-24.13
X74.93Y-25.4
X74.93Y-26.67
X74.93Y-27.94
X74.93Y-29.21
X74.93Y-30.48
X74.93Y-31.75
X74.93Y-33.02
X74.93Y-34.29
X74.93Y-59.69
X74.93Y-60.96
X74.93Y-62.23
X74.93Y-63.5
X74.93Y-64.77
X74.93Y-66.04
X74.93Y-67.31
X74.93Y-69.85
X74.93Y-72.39
X74.93Y-77.47
X74.93Y-82.55
X74.93Y-83.82
X74.93Y-85.09
X74.93Y-86.36
X74.93Y-87.63
X74.93Y-88.9
X74.93Y-90.17
X74.93Y-91.44
X74.93Y-92.71
X74.93Y-93.98
X74.93Y-95.25
X74.93Y-104.14
X74.93Y-105.41
X74.93Y-106.68
X74.93Y-107.95
X74.93Y-111.125
X74.93Y-112.395
X74.93Y-113.665
X76.2Y-25.4
X76.2Y-26.67
X76.2Y-27.94
X76.2Y-29.21
X76.2Y-30.48
X76.2Y-48.26
X76.2Y-49.53
X76.2Y-50.8
X76.2Y-52.07
X76.2Y-60.96
X76.2Y-62.23
X76.2Y-63.5
X76.2Y-64.77
X76.2Y-66.04
X76.2Y-69.85
X76.2Y-72.39
X76.2Y-73.66
X76.2Y-74.93
X76.2Y-76.2
X76.2Y-77.47
X76.2Y-78.74
X76.2Y-80.01
X76.2Y-81.28
X76.2Y-82.55
X76.2Y-83.82
X76.2Y-85.09
X76.2Y-86.36
X76.2Y-87.63
X76.2Y-88.9
X76.2Y-90.17
X76.2Y-91.44
X76.2Y-92.71
X76.2Y-93.98
X76.2Y-95.25
X76.2Y-96.52
X76.2Y-104.14
X76.2Y-105.41
X76.2Y-106.68
X76.2Y-107.95
X76.2Y-111.125
X76.2Y-112.395
X76.2Y-113.665
X76.2Y-114.935
X77.47Y-25.4
X77.47Y-26.67
X77.47Y-27.94
X77.47Y-29.21
X77.47Y-30.48
X77.47Y-53.34
X77.47Y-62.23
X77.47Y-63.5
X77.47Y-64.77
X77.47Y-66.04
X77.47Y-78.74
X77.47Y-80.01
X77.47Y-82.55
X77.47Y-83.82
X77.47Y-85.09
X77.47Y-91.44
X77.47Y-96.52
X77.47Y-104.14
X77.47Y-105.41
X77.47Y-106.68
X77.47Y-111.125
X77.47Y-112.395
X77.47Y-113.665
X78.74Y-24.13
X78.74Y-25.4
X78.74Y-26.67
X78.74Y-27.94
X78.74Y-30.48
X78.74Y-44.45
X78.74Y-53.34
X78.74Y-54.61
X78.74Y-63.5
X78.74Y-64.77
X78.74Y-66.04
X78.74Y-78.74
X78.74Y-80.01
X78.74Y-82.55
X78.74Y-93.98
X78.74Y-104.14
X78.74Y-105.41
X78.74Y-106.68
X78.74Y-107.95
X78.74Y-111.125
X78.74Y-112.395
X78.74Y-113.665
X78.74Y-114.935
X79.375Y-96.52
X79.375Y-97.79
X79.375Y-99.06
X79.375Y-100.33
X79.375Y-101.6
X80.01Y-36.83
X80.01Y-38.1
X80.01Y-43.18
X80.01Y-54.61
X80.01Y-55.88
X80.01Y-111.125
X80.01Y-112.395
X80.01Y-113.665
X80.01Y-114.935
X81.28Y-35.56
X81.28Y-36.83
X81.28Y-41.91
X81.28Y-43.18
X81.28Y-54.61
X81.28Y-55.88
X81.28Y-57.15
X81.28Y-111.125
X81.28Y-112.395
X81.28Y-113.665
X81.28Y-114.935
X82.55Y-58.42
T2
X20.32Y-59.69
X20.32Y-78.105
X20.32Y-83.82
X20.32Y-106.68
X22.225Y-83.889
X22.225Y-102.87
X24.13Y-76.835
X24.13Y-110.49
X24.13Y-116.84
X25.4Y-25.4
X25.4Y-57.785
X25.4Y-80.328
X25.4Y-99.06
X29.21Y-95.25
X31.75Y-76.835
X31.75Y-79.375
X31.75Y-86.995
X33.655Y-113.665
X34.925Y-52.705
X36.83Y-76.2
X36.83Y-86.995
X37.465Y-66.04
X37.465Y-99.06
X37.465Y-108.585
X38.1Y-95.25
X39.37Y-107.95
X40.005Y-96.52
X40.64Y-106.68
X40.64Y-76.2
X43.18Y-66.04
X43.18Y-72.39
X43.18Y-52.705
X44.45Y-116.205
X45.72Y-113.665
X46.99Y-57.15
X46.99Y-112.395
X47.625Y-40.64
X48.26Y-42.545
X48.26Y-58.42
X48.26Y-106.045
X49.53Y-104.775
X50.8Y-88.265
X50.8Y-103.505
X51.435Y-45.085
X52.07Y-46.355
X52.07Y-69.85
X52.07Y-76.2
X52.07Y-102.235
X53.34Y-45.085
X53.34Y-68.58
X53.34Y-74.93
X53.34Y-103.505
X53.975Y-33.02
X53.975Y-34.29
X53.975Y-40.64
X54.61Y-55.88
X54.61Y-67.31
X54.61Y-104.775
X55.88Y-54.61
X55.88Y-106.045
X57.15Y-107.315
X58.42Y-53.34
X58.42Y-65.405
X58.42Y-73.66
X58.42Y-114.935
X58.42Y-108.585
X59.69Y-62.23
X59.69Y-71.12
X60.96Y-88.265
X61.595Y-34.925
X61.595Y-109.855
X62.23Y-63.5
X62.23Y-95.25
X62.865Y-34.925
X62.865Y-111.125
X64.135Y-43.815
X65.405Y-112.395
X65.405Y-115.57
X66.675Y-36.83
X67.31Y-40.215
X69.215Y-35.56
X71.12Y-99.06
X80.645Y-109.855
X82.55Y-73.66
X82.55Y-116.84
T3
X22.86Y-38.1
X22.86Y-39.35
X22.86Y-40.6
X22.86Y-41.85
X22.86Y-43.1
X22.86Y-44.35
X22.86Y-45.6
X22.86Y-46.85
T4
X20.32Y-97.155
X22.225Y-71.12
X24.13Y-92.71
X25.4Y-70.485
X76.2Y-46.99
X82.55Y-102.87
T5
X77.47Y-89.535
X78.74Y-89.535
T6
X76.835Y-24.13
X76.835Y-31.75
X78.74Y-31.75
X78.74Y-39.37
X32.385Y-22.225
X32.385Y-23.495
X32.385Y-24.765
X32.385Y-26.035
X32.385Y-27.305
X33.655Y-22.225
X33.655Y-23.495
X33.655Y-24.765
X33.655Y-26.035
X33.655Y-27.305
T7
X22.225Y-58.42
X42.545Y-22.225
X43.815Y-20.32
X59.69Y-22.225
X67.945Y-60.96
X71.755Y-39.37
T8
X78.42Y-46.395
X78.42Y-51.395
T9
X35.32Y-60.065
X35.32Y-62.105
X35.32Y-64.145
X37.86Y-59.045
X37.86Y-61.085
X37.86Y-63.125
X63.74Y-91.18
X63.74Y-93.22
X63.74Y-95.26
X66.28Y-90.16
X66.28Y-92.2
X66.28Y-94.24
T10
X31.75Y-50.8
X34.25Y-50.8
X36.75Y-50.8
X39.25Y-50.8
X41.75Y-50.8
X44.25Y-50.8
X46.75Y-50.8
X23.495Y-22.94
X23.495Y-25.44
X23.495Y-27.94
X23.495Y-30.44
X23.495Y-32.94
T11
X41.91Y-62.865
X44.45Y-62.865
X27.94Y-99.06
X30.48Y-99.06
X33.02Y-99.06
X35.56Y-99.06
X27.94Y-116.84
X30.48Y-116.84
X33.02Y-116.84
X35.56Y-116.84
X41.91Y-59.055
X44.45Y-59.055
X27.94Y-81.28
X30.48Y-81.28
X33.02Y-81.28
X35.56Y-81.28
X62.23Y-84.455
X64.77Y-84.455
X57.785Y-60.96
X57.785Y-63.5
X27.94Y-102.87
X30.48Y-102.87
X33.02Y-102.87
X35.56Y-102.87
X67.945Y-109.855
X70.485Y-109.855
X73.025Y-109.855
X27.94Y-85.09
X30.48Y-85.09
X33.02Y-85.09
X35.56Y-85.09
X27.94Y-71.12
X27.94Y-73.66
X30.48Y-71.12
X30.48Y-73.66
X33.02Y-71.12
X33.02Y-73.66
X35.56Y-71.12
X35.56Y-73.66
X38.1Y-71.12
X38.1Y-73.66
X40.64Y-71.12
X40.64Y-73.66
X67.945Y-116.84
X70.485Y-116.84
X73.025Y-116.84
X27.94Y-106.68
X30.48Y-106.68
X33.02Y-106.68
X35.56Y-106.68
X27.94Y-110.49
X30.48Y-110.49
X33.02Y-110.49
X35.56Y-110.49
T12
X70.485Y-58.42
X70.485Y-63.5
T13
X33.02Y-55.595
X33.02Y-67.595
X68.58Y-86.71
X68.58Y-98.71
T4
G00X80.77Y-45.395
M15
G01X81.471Y-45.395
M16
G05
G00X81.471Y-52.395
M15
G01X80.77Y-52.395
M16
G05
T0
M30
