G04 #@! TF.GenerationSoftware,KiCad,Pcbnew,(5.1.5)-3*
G04 #@! TF.CreationDate,2020-03-06T23:44:18+01:00*
G04 #@! TF.ProjectId,airMon,6169724d-6f6e-42e6-9b69-6361645f7063,0.3*
G04 #@! TF.SameCoordinates,Original*
G04 #@! TF.FileFunction,Legend,Bot*
G04 #@! TF.FilePolarity,Positive*
%FSLAX46Y46*%
G04 Gerber Fmt 4.6, Leading zero omitted, Abs format (unit mm)*
G04 Created by KiCad (PCBNEW (5.1.5)-3) date 2020-03-06 23:44:18*
%MOMM*%
%LPD*%
G04 APERTURE LIST*
%ADD10C,0.300000*%
%ADD11C,0.200000*%
%ADD12C,0.175000*%
%ADD13C,0.120000*%
%ADD14C,0.150000*%
%ADD15C,1.500000*%
%ADD16C,2.800000*%
%ADD17C,0.100000*%
%ADD18O,1.700000X1.950000*%
%ADD19O,1.700000X1.700000*%
%ADD20R,1.700000X1.700000*%
%ADD21C,3.000000*%
%ADD22R,3.000000X3.000000*%
%ADD23O,1.000000X1.000000*%
%ADD24R,1.000000X1.000000*%
%ADD25O,1.300000X0.800000*%
%ADD26O,1.400000X1.400000*%
%ADD27C,1.400000*%
%ADD28O,1.950000X1.700000*%
%ADD29R,1.900000X1.200000*%
%ADD30O,1.900000X1.200000*%
%ADD31R,1.900000X1.500000*%
%ADD32C,1.450000*%
%ADD33R,1.350000X0.381000*%
G04 APERTURE END LIST*
D10*
X67185000Y-107397857D02*
X67113571Y-107255000D01*
X67113571Y-107040714D01*
X67185000Y-106826428D01*
X67327857Y-106683571D01*
X67470714Y-106612142D01*
X67756428Y-106540714D01*
X67970714Y-106540714D01*
X68256428Y-106612142D01*
X68399285Y-106683571D01*
X68542142Y-106826428D01*
X68613571Y-107040714D01*
X68613571Y-107183571D01*
X68542142Y-107397857D01*
X68470714Y-107469285D01*
X67970714Y-107469285D01*
X67970714Y-107183571D01*
X71092142Y-106612142D02*
X71163571Y-106826428D01*
X71163571Y-107183571D01*
X71092142Y-107326428D01*
X71020714Y-107397857D01*
X70877857Y-107469285D01*
X70735000Y-107469285D01*
X70592142Y-107397857D01*
X70520714Y-107326428D01*
X70449285Y-107183571D01*
X70377857Y-106897857D01*
X70306428Y-106755000D01*
X70235000Y-106683571D01*
X70092142Y-106612142D01*
X69949285Y-106612142D01*
X69806428Y-106683571D01*
X69735000Y-106755000D01*
X69663571Y-106897857D01*
X69663571Y-107255000D01*
X69735000Y-107469285D01*
X72213571Y-106112142D02*
X72213571Y-105397857D01*
X72927857Y-105326428D01*
X72856428Y-105397857D01*
X72785000Y-105540714D01*
X72785000Y-105897857D01*
X72856428Y-106040714D01*
X72927857Y-106112142D01*
X73070714Y-106183571D01*
X73427857Y-106183571D01*
X73570714Y-106112142D01*
X73642142Y-106040714D01*
X73713571Y-105897857D01*
X73713571Y-105540714D01*
X73642142Y-105397857D01*
X73570714Y-105326428D01*
X72213571Y-106612142D02*
X73713571Y-107112142D01*
X72213571Y-107612142D01*
X27940000Y-35560000D02*
X27940000Y-36830000D01*
X27940000Y-35560000D02*
X29210000Y-35560000D01*
X28575000Y-36195000D02*
X27940000Y-35560000D01*
X38735000Y-36195000D02*
X28575000Y-36195000D01*
X25002857Y-115248571D02*
X24645714Y-116248571D01*
X24288571Y-115248571D01*
X23431428Y-114748571D02*
X23288571Y-114748571D01*
X23145714Y-114820000D01*
X23074285Y-114891428D01*
X23002857Y-115034285D01*
X22931428Y-115320000D01*
X22931428Y-115677142D01*
X23002857Y-115962857D01*
X23074285Y-116105714D01*
X23145714Y-116177142D01*
X23288571Y-116248571D01*
X23431428Y-116248571D01*
X23574285Y-116177142D01*
X23645714Y-116105714D01*
X23717142Y-115962857D01*
X23788571Y-115677142D01*
X23788571Y-115320000D01*
X23717142Y-115034285D01*
X23645714Y-114891428D01*
X23574285Y-114820000D01*
X23431428Y-114748571D01*
X22288571Y-116105714D02*
X22217142Y-116177142D01*
X22288571Y-116248571D01*
X22360000Y-116177142D01*
X22288571Y-116105714D01*
X22288571Y-116248571D01*
X21717142Y-114748571D02*
X20788571Y-114748571D01*
X21288571Y-115320000D01*
X21074285Y-115320000D01*
X20931428Y-115391428D01*
X20860000Y-115462857D01*
X20788571Y-115605714D01*
X20788571Y-115962857D01*
X20860000Y-116105714D01*
X20931428Y-116177142D01*
X21074285Y-116248571D01*
X21502857Y-116248571D01*
X21645714Y-116177142D01*
X21717142Y-116105714D01*
X42501428Y-32761428D02*
X44001428Y-32761428D01*
X44001428Y-32190000D01*
X43930000Y-32047142D01*
X43858571Y-31975714D01*
X43715714Y-31904285D01*
X43501428Y-31904285D01*
X43358571Y-31975714D01*
X43287142Y-32047142D01*
X43215714Y-32190000D01*
X43215714Y-32761428D01*
X42501428Y-31261428D02*
X44001428Y-31261428D01*
X42930000Y-30761428D01*
X44001428Y-30261428D01*
X42501428Y-30261428D01*
X42572857Y-29618571D02*
X42501428Y-29404285D01*
X42501428Y-29047142D01*
X42572857Y-28904285D01*
X42644285Y-28832857D01*
X42787142Y-28761428D01*
X42930000Y-28761428D01*
X43072857Y-28832857D01*
X43144285Y-28904285D01*
X43215714Y-29047142D01*
X43287142Y-29332857D01*
X43358571Y-29475714D01*
X43430000Y-29547142D01*
X43572857Y-29618571D01*
X43715714Y-29618571D01*
X43858571Y-29547142D01*
X43930000Y-29475714D01*
X44001428Y-29332857D01*
X44001428Y-28975714D01*
X43930000Y-28761428D01*
X44001428Y-28261428D02*
X44001428Y-27261428D01*
X42501428Y-27904285D01*
X44001428Y-26404285D02*
X44001428Y-26261428D01*
X43930000Y-26118571D01*
X43858571Y-26047142D01*
X43715714Y-25975714D01*
X43430000Y-25904285D01*
X43072857Y-25904285D01*
X42787142Y-25975714D01*
X42644285Y-26047142D01*
X42572857Y-26118571D01*
X42501428Y-26261428D01*
X42501428Y-26404285D01*
X42572857Y-26547142D01*
X42644285Y-26618571D01*
X42787142Y-26690000D01*
X43072857Y-26761428D01*
X43430000Y-26761428D01*
X43715714Y-26690000D01*
X43858571Y-26618571D01*
X43930000Y-26547142D01*
X44001428Y-26404285D01*
X44001428Y-24975714D02*
X44001428Y-24832857D01*
X43930000Y-24690000D01*
X43858571Y-24618571D01*
X43715714Y-24547142D01*
X43430000Y-24475714D01*
X43072857Y-24475714D01*
X42787142Y-24547142D01*
X42644285Y-24618571D01*
X42572857Y-24690000D01*
X42501428Y-24832857D01*
X42501428Y-24975714D01*
X42572857Y-25118571D01*
X42644285Y-25190000D01*
X42787142Y-25261428D01*
X43072857Y-25332857D01*
X43430000Y-25332857D01*
X43715714Y-25261428D01*
X43858571Y-25190000D01*
X43930000Y-25118571D01*
X44001428Y-24975714D01*
X44001428Y-23975714D02*
X44001428Y-23047142D01*
X43430000Y-23547142D01*
X43430000Y-23332857D01*
X43358571Y-23190000D01*
X43287142Y-23118571D01*
X43144285Y-23047142D01*
X42787142Y-23047142D01*
X42644285Y-23118571D01*
X42572857Y-23190000D01*
X42501428Y-23332857D01*
X42501428Y-23761428D01*
X42572857Y-23904285D01*
X42644285Y-23975714D01*
X74102857Y-21633571D02*
X74102857Y-20133571D01*
X73745714Y-20133571D01*
X73531428Y-20205000D01*
X73388571Y-20347857D01*
X73317142Y-20490714D01*
X73245714Y-20776428D01*
X73245714Y-20990714D01*
X73317142Y-21276428D01*
X73388571Y-21419285D01*
X73531428Y-21562142D01*
X73745714Y-21633571D01*
X74102857Y-21633571D01*
X72031428Y-21562142D02*
X72174285Y-21633571D01*
X72460000Y-21633571D01*
X72602857Y-21562142D01*
X72674285Y-21419285D01*
X72674285Y-20847857D01*
X72602857Y-20705000D01*
X72460000Y-20633571D01*
X72174285Y-20633571D01*
X72031428Y-20705000D01*
X71960000Y-20847857D01*
X71960000Y-20990714D01*
X72674285Y-21133571D01*
X71388571Y-21562142D02*
X71245714Y-21633571D01*
X70960000Y-21633571D01*
X70817142Y-21562142D01*
X70745714Y-21419285D01*
X70745714Y-21347857D01*
X70817142Y-21205000D01*
X70960000Y-21133571D01*
X71174285Y-21133571D01*
X71317142Y-21062142D01*
X71388571Y-20919285D01*
X71388571Y-20847857D01*
X71317142Y-20705000D01*
X71174285Y-20633571D01*
X70960000Y-20633571D01*
X70817142Y-20705000D01*
X70102857Y-21633571D02*
X70102857Y-20633571D01*
X70102857Y-20133571D02*
X70174285Y-20205000D01*
X70102857Y-20276428D01*
X70031428Y-20205000D01*
X70102857Y-20133571D01*
X70102857Y-20276428D01*
X68745714Y-20633571D02*
X68745714Y-21847857D01*
X68817142Y-21990714D01*
X68888571Y-22062142D01*
X69031428Y-22133571D01*
X69245714Y-22133571D01*
X69388571Y-22062142D01*
X68745714Y-21562142D02*
X68888571Y-21633571D01*
X69174285Y-21633571D01*
X69317142Y-21562142D01*
X69388571Y-21490714D01*
X69460000Y-21347857D01*
X69460000Y-20919285D01*
X69388571Y-20776428D01*
X69317142Y-20705000D01*
X69174285Y-20633571D01*
X68888571Y-20633571D01*
X68745714Y-20705000D01*
X68031428Y-20633571D02*
X68031428Y-21633571D01*
X68031428Y-20776428D02*
X67960000Y-20705000D01*
X67817142Y-20633571D01*
X67602857Y-20633571D01*
X67460000Y-20705000D01*
X67388571Y-20847857D01*
X67388571Y-21633571D01*
X66102857Y-21562142D02*
X66245714Y-21633571D01*
X66531428Y-21633571D01*
X66674285Y-21562142D01*
X66745714Y-21419285D01*
X66745714Y-20847857D01*
X66674285Y-20705000D01*
X66531428Y-20633571D01*
X66245714Y-20633571D01*
X66102857Y-20705000D01*
X66031428Y-20847857D01*
X66031428Y-20990714D01*
X66745714Y-21133571D01*
X64745714Y-21633571D02*
X64745714Y-20133571D01*
X64745714Y-21562142D02*
X64888571Y-21633571D01*
X65174285Y-21633571D01*
X65317142Y-21562142D01*
X65388571Y-21490714D01*
X65460000Y-21347857D01*
X65460000Y-20919285D01*
X65388571Y-20776428D01*
X65317142Y-20705000D01*
X65174285Y-20633571D01*
X64888571Y-20633571D01*
X64745714Y-20705000D01*
X62888571Y-21633571D02*
X62888571Y-20133571D01*
X62888571Y-20705000D02*
X62745714Y-20633571D01*
X62460000Y-20633571D01*
X62317142Y-20705000D01*
X62245714Y-20776428D01*
X62174285Y-20919285D01*
X62174285Y-21347857D01*
X62245714Y-21490714D01*
X62317142Y-21562142D01*
X62460000Y-21633571D01*
X62745714Y-21633571D01*
X62888571Y-21562142D01*
X61674285Y-20633571D02*
X61317142Y-21633571D01*
X60960000Y-20633571D02*
X61317142Y-21633571D01*
X61460000Y-21990714D01*
X61531428Y-22062142D01*
X61674285Y-22133571D01*
X58817142Y-20133571D02*
X58817142Y-21205000D01*
X58888571Y-21419285D01*
X59031428Y-21562142D01*
X59245714Y-21633571D01*
X59388571Y-21633571D01*
X57888571Y-21633571D02*
X58031428Y-21562142D01*
X58102857Y-21490714D01*
X58174285Y-21347857D01*
X58174285Y-20919285D01*
X58102857Y-20776428D01*
X58031428Y-20705000D01*
X57888571Y-20633571D01*
X57674285Y-20633571D01*
X57531428Y-20705000D01*
X57460000Y-20776428D01*
X57388571Y-20919285D01*
X57388571Y-21347857D01*
X57460000Y-21490714D01*
X57531428Y-21562142D01*
X57674285Y-21633571D01*
X57888571Y-21633571D01*
X58031428Y-20133571D02*
X57960000Y-20205000D01*
X58031428Y-20276428D01*
X58102857Y-20205000D01*
X58031428Y-20133571D01*
X58031428Y-20276428D01*
X57460000Y-20133571D02*
X57388571Y-20205000D01*
X57460000Y-20276428D01*
X57531428Y-20205000D01*
X57460000Y-20133571D01*
X57460000Y-20276428D01*
X56745714Y-21633571D02*
X56745714Y-20633571D01*
X56745714Y-20919285D02*
X56674285Y-20776428D01*
X56602857Y-20705000D01*
X56460000Y-20633571D01*
X56317142Y-20633571D01*
X55174285Y-20633571D02*
X55174285Y-21847857D01*
X55245714Y-21990714D01*
X55317142Y-22062142D01*
X55460000Y-22133571D01*
X55674285Y-22133571D01*
X55817142Y-22062142D01*
X55174285Y-21562142D02*
X55317142Y-21633571D01*
X55602857Y-21633571D01*
X55745714Y-21562142D01*
X55817142Y-21490714D01*
X55888571Y-21347857D01*
X55888571Y-20919285D01*
X55817142Y-20776428D01*
X55745714Y-20705000D01*
X55602857Y-20633571D01*
X55317142Y-20633571D01*
X55174285Y-20705000D01*
X52817142Y-20847857D02*
X52602857Y-20919285D01*
X52531428Y-20990714D01*
X52460000Y-21133571D01*
X52460000Y-21347857D01*
X52531428Y-21490714D01*
X52602857Y-21562142D01*
X52745714Y-21633571D01*
X53317142Y-21633571D01*
X53317142Y-20133571D01*
X52817142Y-20133571D01*
X52674285Y-20205000D01*
X52602857Y-20276428D01*
X52531428Y-20419285D01*
X52531428Y-20562142D01*
X52602857Y-20705000D01*
X52674285Y-20776428D01*
X52817142Y-20847857D01*
X53317142Y-20847857D01*
X51174285Y-21633571D02*
X51174285Y-20847857D01*
X51245714Y-20705000D01*
X51388571Y-20633571D01*
X51674285Y-20633571D01*
X51817142Y-20705000D01*
X51174285Y-21562142D02*
X51317142Y-21633571D01*
X51674285Y-21633571D01*
X51817142Y-21562142D01*
X51888571Y-21419285D01*
X51888571Y-21276428D01*
X51817142Y-21133571D01*
X51674285Y-21062142D01*
X51317142Y-21062142D01*
X51174285Y-20990714D01*
X50602857Y-20633571D02*
X50245714Y-21633571D01*
X49888571Y-20633571D02*
X50245714Y-21633571D01*
X50388571Y-21990714D01*
X50460000Y-22062142D01*
X50602857Y-22133571D01*
X48745714Y-21562142D02*
X48888571Y-21633571D01*
X49174285Y-21633571D01*
X49317142Y-21562142D01*
X49388571Y-21419285D01*
X49388571Y-20847857D01*
X49317142Y-20705000D01*
X49174285Y-20633571D01*
X48888571Y-20633571D01*
X48745714Y-20705000D01*
X48674285Y-20847857D01*
X48674285Y-20990714D01*
X49388571Y-21133571D01*
X48031428Y-21633571D02*
X48031428Y-20633571D01*
X48031428Y-20919285D02*
X47960000Y-20776428D01*
X47888571Y-20705000D01*
X47745714Y-20633571D01*
X47602857Y-20633571D01*
X58463571Y-58463571D02*
X58463571Y-56963571D01*
X57749285Y-57463571D02*
X57749285Y-58463571D01*
X57749285Y-57606428D02*
X57677857Y-57535000D01*
X57535000Y-57463571D01*
X57320714Y-57463571D01*
X57177857Y-57535000D01*
X57106428Y-57677857D01*
X57106428Y-58463571D01*
X47490000Y-58233571D02*
X46990000Y-59733571D01*
X46490000Y-58233571D01*
X47347142Y-63115000D02*
X46632857Y-63115000D01*
X47490000Y-63543571D02*
X46990000Y-62043571D01*
X46490000Y-63543571D01*
X59225714Y-85133571D02*
X59725714Y-84419285D01*
X60082857Y-85133571D02*
X60082857Y-83633571D01*
X59511428Y-83633571D01*
X59368571Y-83705000D01*
X59297142Y-83776428D01*
X59225714Y-83919285D01*
X59225714Y-84133571D01*
X59297142Y-84276428D01*
X59368571Y-84347857D01*
X59511428Y-84419285D01*
X60082857Y-84419285D01*
D11*
X37465000Y-112395000D02*
X37465000Y-118110000D01*
X26035000Y-112395000D02*
X26035000Y-118110000D01*
D10*
X72838571Y-47002142D02*
X74052857Y-47002142D01*
X74195714Y-47073571D01*
X74267142Y-47145000D01*
X74338571Y-47287857D01*
X74338571Y-47573571D01*
X74267142Y-47716428D01*
X74195714Y-47787857D01*
X74052857Y-47859285D01*
X72838571Y-47859285D01*
X74267142Y-48502142D02*
X74338571Y-48716428D01*
X74338571Y-49073571D01*
X74267142Y-49216428D01*
X74195714Y-49287857D01*
X74052857Y-49359285D01*
X73910000Y-49359285D01*
X73767142Y-49287857D01*
X73695714Y-49216428D01*
X73624285Y-49073571D01*
X73552857Y-48787857D01*
X73481428Y-48645000D01*
X73410000Y-48573571D01*
X73267142Y-48502142D01*
X73124285Y-48502142D01*
X72981428Y-48573571D01*
X72910000Y-48645000D01*
X72838571Y-48787857D01*
X72838571Y-49145000D01*
X72910000Y-49359285D01*
X73552857Y-50502142D02*
X73624285Y-50716428D01*
X73695714Y-50787857D01*
X73838571Y-50859285D01*
X74052857Y-50859285D01*
X74195714Y-50787857D01*
X74267142Y-50716428D01*
X74338571Y-50573571D01*
X74338571Y-50002142D01*
X72838571Y-50002142D01*
X72838571Y-50502142D01*
X72910000Y-50645000D01*
X72981428Y-50716428D01*
X73124285Y-50787857D01*
X73267142Y-50787857D01*
X73410000Y-50716428D01*
X73481428Y-50645000D01*
X73552857Y-50502142D01*
X73552857Y-50002142D01*
X78207142Y-58380714D02*
X78207142Y-59523571D01*
X78778571Y-58952142D02*
X77635714Y-58952142D01*
X78207142Y-63666428D02*
X78207142Y-64809285D01*
X79828571Y-57737857D02*
X79828571Y-57452142D01*
X79900000Y-57309285D01*
X79971428Y-57237857D01*
X80185714Y-57095000D01*
X80471428Y-57023571D01*
X81042857Y-57023571D01*
X81185714Y-57095000D01*
X81257142Y-57166428D01*
X81328571Y-57309285D01*
X81328571Y-57595000D01*
X81257142Y-57737857D01*
X81185714Y-57809285D01*
X81042857Y-57880714D01*
X80685714Y-57880714D01*
X80542857Y-57809285D01*
X80471428Y-57737857D01*
X80400000Y-57595000D01*
X80400000Y-57309285D01*
X80471428Y-57166428D01*
X80542857Y-57095000D01*
X80685714Y-57023571D01*
X80757142Y-59666428D02*
X80757142Y-60809285D01*
X79828571Y-62523571D02*
X79828571Y-63452142D01*
X80400000Y-62952142D01*
X80400000Y-63166428D01*
X80471428Y-63309285D01*
X80542857Y-63380714D01*
X80685714Y-63452142D01*
X81042857Y-63452142D01*
X81185714Y-63380714D01*
X81257142Y-63309285D01*
X81328571Y-63166428D01*
X81328571Y-62737857D01*
X81257142Y-62595000D01*
X81185714Y-62523571D01*
X79828571Y-64809285D02*
X79828571Y-64095000D01*
X80542857Y-64023571D01*
X80471428Y-64095000D01*
X80400000Y-64237857D01*
X80400000Y-64594999D01*
X80471428Y-64737857D01*
X80542857Y-64809285D01*
X80685714Y-64880714D01*
X81042857Y-64880714D01*
X81185714Y-64809285D01*
X81257142Y-64737857D01*
X81328571Y-64594999D01*
X81328571Y-64237857D01*
X81257142Y-64095000D01*
X81185714Y-64023571D01*
X79828571Y-65309285D02*
X81328571Y-65809285D01*
X79828571Y-66309285D01*
X24520000Y-68130714D02*
X24520000Y-67416428D01*
X24091428Y-68273571D02*
X25591428Y-67773571D01*
X24091428Y-67273571D01*
X25091428Y-66773571D02*
X24091428Y-66773571D01*
X24948571Y-66773571D02*
X25020000Y-66702142D01*
X25091428Y-66559285D01*
X25091428Y-66345000D01*
X25020000Y-66202142D01*
X24877142Y-66130714D01*
X24091428Y-66130714D01*
X24162857Y-64845000D02*
X24091428Y-64987857D01*
X24091428Y-65273571D01*
X24162857Y-65416428D01*
X24305714Y-65487857D01*
X24877142Y-65487857D01*
X25020000Y-65416428D01*
X25091428Y-65273571D01*
X25091428Y-64987857D01*
X25020000Y-64845000D01*
X24877142Y-64773571D01*
X24734285Y-64773571D01*
X24591428Y-65487857D01*
X24091428Y-64130714D02*
X25091428Y-64130714D01*
X24948571Y-64130714D02*
X25020000Y-64059285D01*
X25091428Y-63916428D01*
X25091428Y-63702142D01*
X25020000Y-63559285D01*
X24877142Y-63487857D01*
X24091428Y-63487857D01*
X24877142Y-63487857D02*
X25020000Y-63416428D01*
X25091428Y-63273571D01*
X25091428Y-63059285D01*
X25020000Y-62916428D01*
X24877142Y-62845000D01*
X24091428Y-62845000D01*
X24091428Y-61916428D02*
X24162857Y-62059285D01*
X24234285Y-62130714D01*
X24377142Y-62202142D01*
X24805714Y-62202142D01*
X24948571Y-62130714D01*
X25020000Y-62059285D01*
X25091428Y-61916428D01*
X25091428Y-61702142D01*
X25020000Y-61559285D01*
X24948571Y-61487857D01*
X24805714Y-61416428D01*
X24377142Y-61416428D01*
X24234285Y-61487857D01*
X24162857Y-61559285D01*
X24091428Y-61702142D01*
X24091428Y-61916428D01*
X24091428Y-60773571D02*
X25091428Y-60773571D01*
X24948571Y-60773571D02*
X25020000Y-60702142D01*
X25091428Y-60559285D01*
X25091428Y-60345000D01*
X25020000Y-60202142D01*
X24877142Y-60130714D01*
X24091428Y-60130714D01*
X24877142Y-60130714D02*
X25020000Y-60059285D01*
X25091428Y-59916428D01*
X25091428Y-59702142D01*
X25020000Y-59559285D01*
X24877142Y-59487857D01*
X24091428Y-59487857D01*
X24162857Y-58202142D02*
X24091428Y-58345000D01*
X24091428Y-58630714D01*
X24162857Y-58773571D01*
X24305714Y-58845000D01*
X24877142Y-58845000D01*
X25020000Y-58773571D01*
X25091428Y-58630714D01*
X25091428Y-58345000D01*
X25020000Y-58202142D01*
X24877142Y-58130714D01*
X24734285Y-58130714D01*
X24591428Y-58845000D01*
X25091428Y-57702142D02*
X25091428Y-57130714D01*
X25591428Y-57487857D02*
X24305714Y-57487857D01*
X24162857Y-57416428D01*
X24091428Y-57273571D01*
X24091428Y-57130714D01*
X24162857Y-56059285D02*
X24091428Y-56202142D01*
X24091428Y-56487857D01*
X24162857Y-56630714D01*
X24305714Y-56702142D01*
X24877142Y-56702142D01*
X25020000Y-56630714D01*
X25091428Y-56487857D01*
X25091428Y-56202142D01*
X25020000Y-56059285D01*
X24877142Y-55987857D01*
X24734285Y-55987857D01*
X24591428Y-56702142D01*
X24091428Y-55345000D02*
X25091428Y-55345000D01*
X24805714Y-55345000D02*
X24948571Y-55273571D01*
X25020000Y-55202142D01*
X25091428Y-55059285D01*
X25091428Y-54916428D01*
X23041428Y-64095000D02*
X21541428Y-63595000D01*
X23041428Y-63095000D01*
X21541428Y-61952142D02*
X22327142Y-61952142D01*
X22470000Y-62023571D01*
X22541428Y-62166428D01*
X22541428Y-62452142D01*
X22470000Y-62595000D01*
X21612857Y-61952142D02*
X21541428Y-62095000D01*
X21541428Y-62452142D01*
X21612857Y-62595000D01*
X21755714Y-62666428D01*
X21898571Y-62666428D01*
X22041428Y-62595000D01*
X22112857Y-62452142D01*
X22112857Y-62095000D01*
X22184285Y-61952142D01*
X22541428Y-61237857D02*
X21541428Y-61237857D01*
X22398571Y-61237857D02*
X22470000Y-61166428D01*
X22541428Y-61023571D01*
X22541428Y-60809285D01*
X22470000Y-60666428D01*
X22327142Y-60595000D01*
X21541428Y-60595000D01*
X21612857Y-59309285D02*
X21541428Y-59452142D01*
X21541428Y-59737857D01*
X21612857Y-59880714D01*
X21755714Y-59952142D01*
X22327142Y-59952142D01*
X22470000Y-59880714D01*
X22541428Y-59737857D01*
X22541428Y-59452142D01*
X22470000Y-59309285D01*
X22327142Y-59237857D01*
X22184285Y-59237857D01*
X22041428Y-59952142D01*
X78143571Y-92095000D02*
X77429285Y-91595000D01*
X78143571Y-91237857D02*
X76643571Y-91237857D01*
X76643571Y-91809285D01*
X76715000Y-91952142D01*
X76786428Y-92023571D01*
X76929285Y-92095000D01*
X77143571Y-92095000D01*
X77286428Y-92023571D01*
X77357857Y-91952142D01*
X77429285Y-91809285D01*
X77429285Y-91237857D01*
X78143571Y-93380714D02*
X77357857Y-93380714D01*
X77215000Y-93309285D01*
X77143571Y-93166428D01*
X77143571Y-92880714D01*
X77215000Y-92737857D01*
X78072142Y-93380714D02*
X78143571Y-93237857D01*
X78143571Y-92880714D01*
X78072142Y-92737857D01*
X77929285Y-92666428D01*
X77786428Y-92666428D01*
X77643571Y-92737857D01*
X77572142Y-92880714D01*
X77572142Y-93237857D01*
X77500714Y-93380714D01*
X78143571Y-94095000D02*
X77143571Y-94095000D01*
X76643571Y-94095000D02*
X76715000Y-94023571D01*
X76786428Y-94095000D01*
X76715000Y-94166428D01*
X76643571Y-94095000D01*
X76786428Y-94095000D01*
X77143571Y-94809285D02*
X78143571Y-94809285D01*
X77286428Y-94809285D02*
X77215000Y-94880714D01*
X77143571Y-95023571D01*
X77143571Y-95237857D01*
X77215000Y-95380714D01*
X77357857Y-95452142D01*
X78143571Y-95452142D01*
X79265000Y-91059285D02*
X79193571Y-90916428D01*
X79193571Y-90702142D01*
X79265000Y-90487857D01*
X79407857Y-90345000D01*
X79550714Y-90273571D01*
X79836428Y-90202142D01*
X80050714Y-90202142D01*
X80336428Y-90273571D01*
X80479285Y-90345000D01*
X80622142Y-90487857D01*
X80693571Y-90702142D01*
X80693571Y-90845000D01*
X80622142Y-91059285D01*
X80550714Y-91130714D01*
X80050714Y-91130714D01*
X80050714Y-90845000D01*
X80693571Y-92416428D02*
X79907857Y-92416428D01*
X79765000Y-92345000D01*
X79693571Y-92202142D01*
X79693571Y-91916428D01*
X79765000Y-91773571D01*
X80622142Y-92416428D02*
X80693571Y-92273571D01*
X80693571Y-91916428D01*
X80622142Y-91773571D01*
X80479285Y-91702142D01*
X80336428Y-91702142D01*
X80193571Y-91773571D01*
X80122142Y-91916428D01*
X80122142Y-92273571D01*
X80050714Y-92416428D01*
X79693571Y-93773571D02*
X80693571Y-93773571D01*
X79693571Y-93130714D02*
X80479285Y-93130714D01*
X80622142Y-93202142D01*
X80693571Y-93345000D01*
X80693571Y-93559285D01*
X80622142Y-93702142D01*
X80550714Y-93773571D01*
X79693571Y-95130714D02*
X80907857Y-95130714D01*
X81050714Y-95059285D01*
X81122142Y-94987857D01*
X81193571Y-94845000D01*
X81193571Y-94630714D01*
X81122142Y-94487857D01*
X80622142Y-95130714D02*
X80693571Y-94987857D01*
X80693571Y-94702142D01*
X80622142Y-94559285D01*
X80550714Y-94487857D01*
X80407857Y-94416428D01*
X79979285Y-94416428D01*
X79836428Y-94487857D01*
X79765000Y-94559285D01*
X79693571Y-94702142D01*
X79693571Y-94987857D01*
X79765000Y-95130714D01*
X80622142Y-96416428D02*
X80693571Y-96273571D01*
X80693571Y-95987857D01*
X80622142Y-95845000D01*
X80479285Y-95773571D01*
X79907857Y-95773571D01*
X79765000Y-95845000D01*
X79693571Y-95987857D01*
X79693571Y-96273571D01*
X79765000Y-96416428D01*
X79907857Y-96487857D01*
X80050714Y-96487857D01*
X80193571Y-95773571D01*
D11*
X66040000Y-107950000D02*
X66040000Y-118110000D01*
X74930000Y-107950000D02*
X66040000Y-107950000D01*
X74930000Y-118110000D02*
X74930000Y-107950000D01*
D10*
X67185000Y-115017857D02*
X67113571Y-114875000D01*
X67113571Y-114660714D01*
X67185000Y-114446428D01*
X67327857Y-114303571D01*
X67470714Y-114232142D01*
X67756428Y-114160714D01*
X67970714Y-114160714D01*
X68256428Y-114232142D01*
X68399285Y-114303571D01*
X68542142Y-114446428D01*
X68613571Y-114660714D01*
X68613571Y-114803571D01*
X68542142Y-115017857D01*
X68470714Y-115089285D01*
X67970714Y-115089285D01*
X67970714Y-114803571D01*
X71092142Y-114232142D02*
X71163571Y-114446428D01*
X71163571Y-114803571D01*
X71092142Y-114946428D01*
X71020714Y-115017857D01*
X70877857Y-115089285D01*
X70735000Y-115089285D01*
X70592142Y-115017857D01*
X70520714Y-114946428D01*
X70449285Y-114803571D01*
X70377857Y-114517857D01*
X70306428Y-114375000D01*
X70235000Y-114303571D01*
X70092142Y-114232142D01*
X69949285Y-114232142D01*
X69806428Y-114303571D01*
X69735000Y-114375000D01*
X69663571Y-114517857D01*
X69663571Y-114875000D01*
X69735000Y-115089285D01*
X72213571Y-112875000D02*
X72213571Y-113803571D01*
X72785000Y-113303571D01*
X72785000Y-113517857D01*
X72856428Y-113660714D01*
X72927857Y-113732142D01*
X73070714Y-113803571D01*
X73427857Y-113803571D01*
X73570714Y-113732142D01*
X73642142Y-113660714D01*
X73713571Y-113517857D01*
X73713571Y-113089285D01*
X73642142Y-112946428D01*
X73570714Y-112875000D01*
X72213571Y-114232142D02*
X73713571Y-114732142D01*
X72213571Y-115232142D01*
X77553571Y-110105000D02*
X76839285Y-110105000D01*
X77696428Y-110533571D02*
X77196428Y-109033571D01*
X76696428Y-110533571D01*
X75553571Y-109533571D02*
X75553571Y-110533571D01*
X75910714Y-108962142D02*
X76267857Y-110033571D01*
X75339285Y-110033571D01*
X77553571Y-117090000D02*
X76839285Y-117090000D01*
X77696428Y-117518571D02*
X77196428Y-116018571D01*
X76696428Y-117518571D01*
X76339285Y-116018571D02*
X75410714Y-116018571D01*
X75910714Y-116590000D01*
X75696428Y-116590000D01*
X75553571Y-116661428D01*
X75482142Y-116732857D01*
X75410714Y-116875714D01*
X75410714Y-117232857D01*
X75482142Y-117375714D01*
X75553571Y-117447142D01*
X75696428Y-117518571D01*
X76125000Y-117518571D01*
X76267857Y-117447142D01*
X76339285Y-117375714D01*
X28032142Y-113875000D02*
X28032142Y-115017857D01*
X28603571Y-114446428D02*
X27460714Y-114446428D01*
X31082142Y-112517857D02*
X31153571Y-112732142D01*
X31153571Y-113089285D01*
X31082142Y-113232142D01*
X31010714Y-113303571D01*
X30867857Y-113375000D01*
X30725000Y-113375000D01*
X30582142Y-113303571D01*
X30510714Y-113232142D01*
X30439285Y-113089285D01*
X30367857Y-112803571D01*
X30296428Y-112660714D01*
X30225000Y-112589285D01*
X30082142Y-112517857D01*
X29939285Y-112517857D01*
X29796428Y-112589285D01*
X29725000Y-112660714D01*
X29653571Y-112803571D01*
X29653571Y-113160714D01*
X29725000Y-113375000D01*
X29653571Y-113875000D02*
X31153571Y-114232142D01*
X30082142Y-114517857D01*
X31153571Y-114803571D01*
X29653571Y-115160714D01*
X32275000Y-115017857D02*
X32203571Y-114875000D01*
X32203571Y-114660714D01*
X32275000Y-114446428D01*
X32417857Y-114303571D01*
X32560714Y-114232142D01*
X32846428Y-114160714D01*
X33060714Y-114160714D01*
X33346428Y-114232142D01*
X33489285Y-114303571D01*
X33632142Y-114446428D01*
X33703571Y-114660714D01*
X33703571Y-114803571D01*
X33632142Y-115017857D01*
X33560714Y-115089285D01*
X33060714Y-115089285D01*
X33060714Y-114803571D01*
X34825000Y-115017857D02*
X34753571Y-114875000D01*
X34753571Y-114660714D01*
X34825000Y-114446428D01*
X34967857Y-114303571D01*
X35110714Y-114232142D01*
X35396428Y-114160714D01*
X35610714Y-114160714D01*
X35896428Y-114232142D01*
X36039285Y-114303571D01*
X36182142Y-114446428D01*
X36253571Y-114660714D01*
X36253571Y-114803571D01*
X36182142Y-115017857D01*
X36110714Y-115089285D01*
X35610714Y-115089285D01*
X35610714Y-114803571D01*
X28032142Y-96095000D02*
X28032142Y-97237857D01*
X28603571Y-96666428D02*
X27460714Y-96666428D01*
X29725000Y-97237857D02*
X29653571Y-97095000D01*
X29653571Y-96880714D01*
X29725000Y-96666428D01*
X29867857Y-96523571D01*
X30010714Y-96452142D01*
X30296428Y-96380714D01*
X30510714Y-96380714D01*
X30796428Y-96452142D01*
X30939285Y-96523571D01*
X31082142Y-96666428D01*
X31153571Y-96880714D01*
X31153571Y-97023571D01*
X31082142Y-97237857D01*
X31010714Y-97309285D01*
X30510714Y-97309285D01*
X30510714Y-97023571D01*
X33632142Y-93737857D02*
X33703571Y-93952142D01*
X33703571Y-94309285D01*
X33632142Y-94452142D01*
X33560714Y-94523571D01*
X33417857Y-94595000D01*
X33275000Y-94595000D01*
X33132142Y-94523571D01*
X33060714Y-94452142D01*
X32989285Y-94309285D01*
X32917857Y-94023571D01*
X32846428Y-93880714D01*
X32775000Y-93809285D01*
X32632142Y-93737857D01*
X32489285Y-93737857D01*
X32346428Y-93809285D01*
X32275000Y-93880714D01*
X32203571Y-94023571D01*
X32203571Y-94380714D01*
X32275000Y-94595000D01*
X33560714Y-96095000D02*
X33632142Y-96023571D01*
X33703571Y-95809285D01*
X33703571Y-95666428D01*
X33632142Y-95452142D01*
X33489285Y-95309285D01*
X33346428Y-95237857D01*
X33060714Y-95166428D01*
X32846428Y-95166428D01*
X32560714Y-95237857D01*
X32417857Y-95309285D01*
X32275000Y-95452142D01*
X32203571Y-95666428D01*
X32203571Y-95809285D01*
X32275000Y-96023571D01*
X32346428Y-96095000D01*
X33703571Y-97452142D02*
X33703571Y-96737857D01*
X32203571Y-96737857D01*
X36182142Y-93666428D02*
X36253571Y-93880714D01*
X36253571Y-94237857D01*
X36182142Y-94380714D01*
X36110714Y-94452142D01*
X35967857Y-94523571D01*
X35825000Y-94523571D01*
X35682142Y-94452142D01*
X35610714Y-94380714D01*
X35539285Y-94237857D01*
X35467857Y-93952142D01*
X35396428Y-93809285D01*
X35325000Y-93737857D01*
X35182142Y-93666428D01*
X35039285Y-93666428D01*
X34896428Y-93737857D01*
X34825000Y-93809285D01*
X34753571Y-93952142D01*
X34753571Y-94309285D01*
X34825000Y-94523571D01*
X36253571Y-95166428D02*
X34753571Y-95166428D01*
X34753571Y-95523571D01*
X34825000Y-95737857D01*
X34967857Y-95880714D01*
X35110714Y-95952142D01*
X35396428Y-96023571D01*
X35610714Y-96023571D01*
X35896428Y-95952142D01*
X36039285Y-95880714D01*
X36182142Y-95737857D01*
X36253571Y-95523571D01*
X36253571Y-95166428D01*
X35825000Y-96595000D02*
X35825000Y-97309285D01*
X36253571Y-96452142D02*
X34753571Y-96952142D01*
X36253571Y-97452142D01*
X28032142Y-86912142D02*
X28032142Y-88055000D01*
X28603571Y-87483571D02*
X27460714Y-87483571D01*
X29725000Y-87697857D02*
X29653571Y-87555000D01*
X29653571Y-87340714D01*
X29725000Y-87126428D01*
X29867857Y-86983571D01*
X30010714Y-86912142D01*
X30296428Y-86840714D01*
X30510714Y-86840714D01*
X30796428Y-86912142D01*
X30939285Y-86983571D01*
X31082142Y-87126428D01*
X31153571Y-87340714D01*
X31153571Y-87483571D01*
X31082142Y-87697857D01*
X31010714Y-87769285D01*
X30510714Y-87769285D01*
X30510714Y-87483571D01*
X33632142Y-86840714D02*
X33703571Y-87055000D01*
X33703571Y-87412142D01*
X33632142Y-87555000D01*
X33560714Y-87626428D01*
X33417857Y-87697857D01*
X33275000Y-87697857D01*
X33132142Y-87626428D01*
X33060714Y-87555000D01*
X32989285Y-87412142D01*
X32917857Y-87126428D01*
X32846428Y-86983571D01*
X32775000Y-86912142D01*
X32632142Y-86840714D01*
X32489285Y-86840714D01*
X32346428Y-86912142D01*
X32275000Y-86983571D01*
X32203571Y-87126428D01*
X32203571Y-87483571D01*
X32275000Y-87697857D01*
X33560714Y-89197857D02*
X33632142Y-89126428D01*
X33703571Y-88912142D01*
X33703571Y-88769285D01*
X33632142Y-88555000D01*
X33489285Y-88412142D01*
X33346428Y-88340714D01*
X33060714Y-88269285D01*
X32846428Y-88269285D01*
X32560714Y-88340714D01*
X32417857Y-88412142D01*
X32275000Y-88555000D01*
X32203571Y-88769285D01*
X32203571Y-88912142D01*
X32275000Y-89126428D01*
X32346428Y-89197857D01*
X33703571Y-90555000D02*
X33703571Y-89840714D01*
X32203571Y-89840714D01*
X36182142Y-86840714D02*
X36253571Y-87055000D01*
X36253571Y-87412142D01*
X36182142Y-87555000D01*
X36110714Y-87626428D01*
X35967857Y-87697857D01*
X35825000Y-87697857D01*
X35682142Y-87626428D01*
X35610714Y-87555000D01*
X35539285Y-87412142D01*
X35467857Y-87126428D01*
X35396428Y-86983571D01*
X35325000Y-86912142D01*
X35182142Y-86840714D01*
X35039285Y-86840714D01*
X34896428Y-86912142D01*
X34825000Y-86983571D01*
X34753571Y-87126428D01*
X34753571Y-87483571D01*
X34825000Y-87697857D01*
X36253571Y-88340714D02*
X34753571Y-88340714D01*
X34753571Y-88697857D01*
X34825000Y-88912142D01*
X34967857Y-89055000D01*
X35110714Y-89126428D01*
X35396428Y-89197857D01*
X35610714Y-89197857D01*
X35896428Y-89126428D01*
X36039285Y-89055000D01*
X36182142Y-88912142D01*
X36253571Y-88697857D01*
X36253571Y-88340714D01*
X35825000Y-89769285D02*
X35825000Y-90483571D01*
X36253571Y-89626428D02*
X34753571Y-90126428D01*
X36253571Y-90626428D01*
D11*
X26035000Y-79375000D02*
X26035000Y-112395000D01*
X37465000Y-79375000D02*
X26035000Y-79375000D01*
X37465000Y-112395000D02*
X37465000Y-79375000D01*
X26035000Y-112395000D02*
X37465000Y-112395000D01*
D10*
X56160000Y-81172857D02*
X55660000Y-81172857D01*
X55445714Y-81958571D02*
X56160000Y-81958571D01*
X56160000Y-80458571D01*
X55445714Y-80458571D01*
X54945714Y-80458571D02*
X53945714Y-81958571D01*
X53945714Y-80458571D02*
X54945714Y-81958571D01*
X52231428Y-81958571D02*
X52231428Y-80458571D01*
X51588571Y-80601428D02*
X51517142Y-80530000D01*
X51374285Y-80458571D01*
X51017142Y-80458571D01*
X50874285Y-80530000D01*
X50802857Y-80601428D01*
X50731428Y-80744285D01*
X50731428Y-80887142D01*
X50802857Y-81101428D01*
X51660000Y-81958571D01*
X50731428Y-81958571D01*
X49231428Y-81815714D02*
X49302857Y-81887142D01*
X49517142Y-81958571D01*
X49660000Y-81958571D01*
X49874285Y-81887142D01*
X50017142Y-81744285D01*
X50088571Y-81601428D01*
X50160000Y-81315714D01*
X50160000Y-81101428D01*
X50088571Y-80815714D01*
X50017142Y-80672857D01*
X49874285Y-80530000D01*
X49660000Y-80458571D01*
X49517142Y-80458571D01*
X49302857Y-80530000D01*
X49231428Y-80601428D01*
X48588571Y-81387142D02*
X47445714Y-81387142D01*
X46802857Y-80601428D02*
X46731428Y-80530000D01*
X46588571Y-80458571D01*
X46231428Y-80458571D01*
X46088571Y-80530000D01*
X46017142Y-80601428D01*
X45945714Y-80744285D01*
X45945714Y-80887142D01*
X46017142Y-81101428D01*
X46874285Y-81958571D01*
X45945714Y-81958571D01*
X43445714Y-80458571D02*
X44160000Y-80458571D01*
X44231428Y-81172857D01*
X44160000Y-81101428D01*
X44017142Y-81030000D01*
X43660000Y-81030000D01*
X43517142Y-81101428D01*
X43445714Y-81172857D01*
X43374285Y-81315714D01*
X43374285Y-81672857D01*
X43445714Y-81815714D01*
X43517142Y-81887142D01*
X43660000Y-81958571D01*
X44017142Y-81958571D01*
X44160000Y-81887142D01*
X44231428Y-81815714D01*
X42945714Y-80458571D02*
X42445714Y-81958571D01*
X41945714Y-80458571D01*
X40374285Y-81887142D02*
X40160000Y-81958571D01*
X39802857Y-81958571D01*
X39660000Y-81887142D01*
X39588571Y-81815714D01*
X39517142Y-81672857D01*
X39517142Y-81530000D01*
X39588571Y-81387142D01*
X39660000Y-81315714D01*
X39802857Y-81244285D01*
X40088571Y-81172857D01*
X40231428Y-81101428D01*
X40302857Y-81030000D01*
X40374285Y-80887142D01*
X40374285Y-80744285D01*
X40302857Y-80601428D01*
X40231428Y-80530000D01*
X40088571Y-80458571D01*
X39731428Y-80458571D01*
X39517142Y-80530000D01*
X39017142Y-80958571D02*
X38731428Y-81958571D01*
X38445714Y-81244285D01*
X38160000Y-81958571D01*
X37874285Y-80958571D01*
X52017142Y-84982857D02*
X51517142Y-84982857D01*
X51302857Y-85768571D02*
X52017142Y-85768571D01*
X52017142Y-84268571D01*
X51302857Y-84268571D01*
X50802857Y-84268571D02*
X49802857Y-85768571D01*
X49802857Y-84268571D02*
X50802857Y-85768571D01*
X48088571Y-85768571D02*
X48088571Y-84268571D01*
X47445714Y-84411428D02*
X47374285Y-84340000D01*
X47231428Y-84268571D01*
X46874285Y-84268571D01*
X46731428Y-84340000D01*
X46660000Y-84411428D01*
X46588571Y-84554285D01*
X46588571Y-84697142D01*
X46660000Y-84911428D01*
X47517142Y-85768571D01*
X46588571Y-85768571D01*
X45088571Y-85625714D02*
X45160000Y-85697142D01*
X45374285Y-85768571D01*
X45517142Y-85768571D01*
X45731428Y-85697142D01*
X45874285Y-85554285D01*
X45945714Y-85411428D01*
X46017142Y-85125714D01*
X46017142Y-84911428D01*
X45945714Y-84625714D01*
X45874285Y-84482857D01*
X45731428Y-84340000D01*
X45517142Y-84268571D01*
X45374285Y-84268571D01*
X45160000Y-84340000D01*
X45088571Y-84411428D01*
X44445714Y-85197142D02*
X43302857Y-85197142D01*
X42660000Y-84411428D02*
X42588571Y-84340000D01*
X42445714Y-84268571D01*
X42088571Y-84268571D01*
X41945714Y-84340000D01*
X41874285Y-84411428D01*
X41802857Y-84554285D01*
X41802857Y-84697142D01*
X41874285Y-84911428D01*
X42731428Y-85768571D01*
X41802857Y-85768571D01*
X39302857Y-84268571D02*
X40017142Y-84268571D01*
X40088571Y-84982857D01*
X40017142Y-84911428D01*
X39874285Y-84840000D01*
X39517142Y-84840000D01*
X39374285Y-84911428D01*
X39302857Y-84982857D01*
X39231428Y-85125714D01*
X39231428Y-85482857D01*
X39302857Y-85625714D01*
X39374285Y-85697142D01*
X39517142Y-85768571D01*
X39874285Y-85768571D01*
X40017142Y-85697142D01*
X40088571Y-85625714D01*
X38802857Y-84268571D02*
X38302857Y-85768571D01*
X37802857Y-84268571D01*
X59088571Y-99738571D02*
X59088571Y-98238571D01*
X58445714Y-98381428D02*
X58374285Y-98310000D01*
X58231428Y-98238571D01*
X57874285Y-98238571D01*
X57731428Y-98310000D01*
X57660000Y-98381428D01*
X57588571Y-98524285D01*
X57588571Y-98667142D01*
X57660000Y-98881428D01*
X58517142Y-99738571D01*
X57588571Y-99738571D01*
X56088571Y-99595714D02*
X56160000Y-99667142D01*
X56374285Y-99738571D01*
X56517142Y-99738571D01*
X56731428Y-99667142D01*
X56874285Y-99524285D01*
X56945714Y-99381428D01*
X57017142Y-99095714D01*
X57017142Y-98881428D01*
X56945714Y-98595714D01*
X56874285Y-98452857D01*
X56731428Y-98310000D01*
X56517142Y-98238571D01*
X56374285Y-98238571D01*
X56160000Y-98310000D01*
X56088571Y-98381428D01*
X55445714Y-99167142D02*
X54302857Y-99167142D01*
X53660000Y-98381428D02*
X53588571Y-98310000D01*
X53445714Y-98238571D01*
X53088571Y-98238571D01*
X52945714Y-98310000D01*
X52874285Y-98381428D01*
X52802857Y-98524285D01*
X52802857Y-98667142D01*
X52874285Y-98881428D01*
X53731428Y-99738571D01*
X52802857Y-99738571D01*
X50302857Y-98238571D02*
X51017142Y-98238571D01*
X51088571Y-98952857D01*
X51017142Y-98881428D01*
X50874285Y-98810000D01*
X50517142Y-98810000D01*
X50374285Y-98881428D01*
X50302857Y-98952857D01*
X50231428Y-99095714D01*
X50231428Y-99452857D01*
X50302857Y-99595714D01*
X50374285Y-99667142D01*
X50517142Y-99738571D01*
X50874285Y-99738571D01*
X51017142Y-99667142D01*
X51088571Y-99595714D01*
X49802857Y-98238571D02*
X49302857Y-99738571D01*
X48802857Y-98238571D01*
X47231428Y-99667142D02*
X47017142Y-99738571D01*
X46660000Y-99738571D01*
X46517142Y-99667142D01*
X46445714Y-99595714D01*
X46374285Y-99452857D01*
X46374285Y-99310000D01*
X46445714Y-99167142D01*
X46517142Y-99095714D01*
X46660000Y-99024285D01*
X46945714Y-98952857D01*
X47088571Y-98881428D01*
X47160000Y-98810000D01*
X47231428Y-98667142D01*
X47231428Y-98524285D01*
X47160000Y-98381428D01*
X47088571Y-98310000D01*
X46945714Y-98238571D01*
X46588571Y-98238571D01*
X46374285Y-98310000D01*
X45874285Y-98738571D02*
X45588571Y-99738571D01*
X45302857Y-99024285D01*
X45017142Y-99738571D01*
X44731428Y-98738571D01*
X44160000Y-99738571D02*
X44160000Y-98738571D01*
X44160000Y-98238571D02*
X44231428Y-98310000D01*
X44160000Y-98381428D01*
X44088571Y-98310000D01*
X44160000Y-98238571D01*
X44160000Y-98381428D01*
X43660000Y-98738571D02*
X43088571Y-98738571D01*
X43445714Y-98238571D02*
X43445714Y-99524285D01*
X43374285Y-99667142D01*
X43231428Y-99738571D01*
X43088571Y-99738571D01*
X41945714Y-99667142D02*
X42088571Y-99738571D01*
X42374285Y-99738571D01*
X42517142Y-99667142D01*
X42588571Y-99595714D01*
X42660000Y-99452857D01*
X42660000Y-99024285D01*
X42588571Y-98881428D01*
X42517142Y-98810000D01*
X42374285Y-98738571D01*
X42088571Y-98738571D01*
X41945714Y-98810000D01*
X41302857Y-99738571D02*
X41302857Y-98238571D01*
X40660000Y-99738571D02*
X40660000Y-98952857D01*
X40731428Y-98810000D01*
X40874285Y-98738571D01*
X41088571Y-98738571D01*
X41231428Y-98810000D01*
X41302857Y-98881428D01*
X39374285Y-99667142D02*
X39517142Y-99738571D01*
X39802857Y-99738571D01*
X39945714Y-99667142D01*
X40017142Y-99524285D01*
X40017142Y-98952857D01*
X39945714Y-98810000D01*
X39802857Y-98738571D01*
X39517142Y-98738571D01*
X39374285Y-98810000D01*
X39302857Y-98952857D01*
X39302857Y-99095714D01*
X40017142Y-99238571D01*
X38017142Y-99738571D02*
X38017142Y-98238571D01*
X38017142Y-99667142D02*
X38160000Y-99738571D01*
X38445714Y-99738571D01*
X38588571Y-99667142D01*
X38660000Y-99595714D01*
X38731428Y-99452857D01*
X38731428Y-99024285D01*
X38660000Y-98881428D01*
X38588571Y-98810000D01*
X38445714Y-98738571D01*
X38160000Y-98738571D01*
X38017142Y-98810000D01*
X48088571Y-103548571D02*
X48088571Y-102048571D01*
X47445714Y-102191428D02*
X47374285Y-102120000D01*
X47231428Y-102048571D01*
X46874285Y-102048571D01*
X46731428Y-102120000D01*
X46660000Y-102191428D01*
X46588571Y-102334285D01*
X46588571Y-102477142D01*
X46660000Y-102691428D01*
X47517142Y-103548571D01*
X46588571Y-103548571D01*
X45088571Y-103405714D02*
X45160000Y-103477142D01*
X45374285Y-103548571D01*
X45517142Y-103548571D01*
X45731428Y-103477142D01*
X45874285Y-103334285D01*
X45945714Y-103191428D01*
X46017142Y-102905714D01*
X46017142Y-102691428D01*
X45945714Y-102405714D01*
X45874285Y-102262857D01*
X45731428Y-102120000D01*
X45517142Y-102048571D01*
X45374285Y-102048571D01*
X45160000Y-102120000D01*
X45088571Y-102191428D01*
X44445714Y-102977142D02*
X43302857Y-102977142D01*
X42660000Y-102191428D02*
X42588571Y-102120000D01*
X42445714Y-102048571D01*
X42088571Y-102048571D01*
X41945714Y-102120000D01*
X41874285Y-102191428D01*
X41802857Y-102334285D01*
X41802857Y-102477142D01*
X41874285Y-102691428D01*
X42731428Y-103548571D01*
X41802857Y-103548571D01*
X39302857Y-102048571D02*
X40017142Y-102048571D01*
X40088571Y-102762857D01*
X40017142Y-102691428D01*
X39874285Y-102620000D01*
X39517142Y-102620000D01*
X39374285Y-102691428D01*
X39302857Y-102762857D01*
X39231428Y-102905714D01*
X39231428Y-103262857D01*
X39302857Y-103405714D01*
X39374285Y-103477142D01*
X39517142Y-103548571D01*
X39874285Y-103548571D01*
X40017142Y-103477142D01*
X40088571Y-103405714D01*
X38802857Y-102048571D02*
X38302857Y-103548571D01*
X37802857Y-102048571D01*
X50231428Y-107358571D02*
X50231428Y-105858571D01*
X49588571Y-106001428D02*
X49517142Y-105930000D01*
X49374285Y-105858571D01*
X49017142Y-105858571D01*
X48874285Y-105930000D01*
X48802857Y-106001428D01*
X48731428Y-106144285D01*
X48731428Y-106287142D01*
X48802857Y-106501428D01*
X49660000Y-107358571D01*
X48731428Y-107358571D01*
X47231428Y-107215714D02*
X47302857Y-107287142D01*
X47517142Y-107358571D01*
X47660000Y-107358571D01*
X47874285Y-107287142D01*
X48017142Y-107144285D01*
X48088571Y-107001428D01*
X48160000Y-106715714D01*
X48160000Y-106501428D01*
X48088571Y-106215714D01*
X48017142Y-106072857D01*
X47874285Y-105930000D01*
X47660000Y-105858571D01*
X47517142Y-105858571D01*
X47302857Y-105930000D01*
X47231428Y-106001428D01*
X46588571Y-106787142D02*
X45445714Y-106787142D01*
X43945714Y-107358571D02*
X44802857Y-107358571D01*
X44374285Y-107358571D02*
X44374285Y-105858571D01*
X44517142Y-106072857D01*
X44660000Y-106215714D01*
X44802857Y-106287142D01*
X42302857Y-105858571D02*
X41374285Y-105858571D01*
X41874285Y-106430000D01*
X41660000Y-106430000D01*
X41517142Y-106501428D01*
X41445714Y-106572857D01*
X41374285Y-106715714D01*
X41374285Y-107072857D01*
X41445714Y-107215714D01*
X41517142Y-107287142D01*
X41660000Y-107358571D01*
X42088571Y-107358571D01*
X42231428Y-107287142D01*
X42302857Y-107215714D01*
X40731428Y-107215714D02*
X40660000Y-107287142D01*
X40731428Y-107358571D01*
X40802857Y-107287142D01*
X40731428Y-107215714D01*
X40731428Y-107358571D01*
X40160000Y-105858571D02*
X39231428Y-105858571D01*
X39731428Y-106430000D01*
X39517142Y-106430000D01*
X39374285Y-106501428D01*
X39302857Y-106572857D01*
X39231428Y-106715714D01*
X39231428Y-107072857D01*
X39302857Y-107215714D01*
X39374285Y-107287142D01*
X39517142Y-107358571D01*
X39945714Y-107358571D01*
X40088571Y-107287142D01*
X40160000Y-107215714D01*
X38802857Y-105858571D02*
X38302857Y-107358571D01*
X37802857Y-105858571D01*
X61231428Y-111168571D02*
X61231428Y-109668571D01*
X60588571Y-109811428D02*
X60517142Y-109740000D01*
X60374285Y-109668571D01*
X60017142Y-109668571D01*
X59874285Y-109740000D01*
X59802857Y-109811428D01*
X59731428Y-109954285D01*
X59731428Y-110097142D01*
X59802857Y-110311428D01*
X60660000Y-111168571D01*
X59731428Y-111168571D01*
X58231428Y-111025714D02*
X58302857Y-111097142D01*
X58517142Y-111168571D01*
X58660000Y-111168571D01*
X58874285Y-111097142D01*
X59017142Y-110954285D01*
X59088571Y-110811428D01*
X59160000Y-110525714D01*
X59160000Y-110311428D01*
X59088571Y-110025714D01*
X59017142Y-109882857D01*
X58874285Y-109740000D01*
X58660000Y-109668571D01*
X58517142Y-109668571D01*
X58302857Y-109740000D01*
X58231428Y-109811428D01*
X57588571Y-110597142D02*
X56445714Y-110597142D01*
X54945714Y-111168571D02*
X55802857Y-111168571D01*
X55374285Y-111168571D02*
X55374285Y-109668571D01*
X55517142Y-109882857D01*
X55660000Y-110025714D01*
X55802857Y-110097142D01*
X53302857Y-109668571D02*
X52374285Y-109668571D01*
X52874285Y-110240000D01*
X52660000Y-110240000D01*
X52517142Y-110311428D01*
X52445714Y-110382857D01*
X52374285Y-110525714D01*
X52374285Y-110882857D01*
X52445714Y-111025714D01*
X52517142Y-111097142D01*
X52660000Y-111168571D01*
X53088571Y-111168571D01*
X53231428Y-111097142D01*
X53302857Y-111025714D01*
X51731428Y-111025714D02*
X51660000Y-111097142D01*
X51731428Y-111168571D01*
X51802857Y-111097142D01*
X51731428Y-111025714D01*
X51731428Y-111168571D01*
X51160000Y-109668571D02*
X50231428Y-109668571D01*
X50731428Y-110240000D01*
X50517142Y-110240000D01*
X50374285Y-110311428D01*
X50302857Y-110382857D01*
X50231428Y-110525714D01*
X50231428Y-110882857D01*
X50302857Y-111025714D01*
X50374285Y-111097142D01*
X50517142Y-111168571D01*
X50945714Y-111168571D01*
X51088571Y-111097142D01*
X51160000Y-111025714D01*
X49802857Y-109668571D02*
X49302857Y-111168571D01*
X48802857Y-109668571D01*
X47231428Y-111097142D02*
X47017142Y-111168571D01*
X46660000Y-111168571D01*
X46517142Y-111097142D01*
X46445714Y-111025714D01*
X46374285Y-110882857D01*
X46374285Y-110740000D01*
X46445714Y-110597142D01*
X46517142Y-110525714D01*
X46660000Y-110454285D01*
X46945714Y-110382857D01*
X47088571Y-110311428D01*
X47160000Y-110240000D01*
X47231428Y-110097142D01*
X47231428Y-109954285D01*
X47160000Y-109811428D01*
X47088571Y-109740000D01*
X46945714Y-109668571D01*
X46588571Y-109668571D01*
X46374285Y-109740000D01*
X45874285Y-110168571D02*
X45588571Y-111168571D01*
X45302857Y-110454285D01*
X45017142Y-111168571D01*
X44731428Y-110168571D01*
X44160000Y-111168571D02*
X44160000Y-110168571D01*
X44160000Y-109668571D02*
X44231428Y-109740000D01*
X44160000Y-109811428D01*
X44088571Y-109740000D01*
X44160000Y-109668571D01*
X44160000Y-109811428D01*
X43660000Y-110168571D02*
X43088571Y-110168571D01*
X43445714Y-109668571D02*
X43445714Y-110954285D01*
X43374285Y-111097142D01*
X43231428Y-111168571D01*
X43088571Y-111168571D01*
X41945714Y-111097142D02*
X42088571Y-111168571D01*
X42374285Y-111168571D01*
X42517142Y-111097142D01*
X42588571Y-111025714D01*
X42660000Y-110882857D01*
X42660000Y-110454285D01*
X42588571Y-110311428D01*
X42517142Y-110240000D01*
X42374285Y-110168571D01*
X42088571Y-110168571D01*
X41945714Y-110240000D01*
X41302857Y-111168571D02*
X41302857Y-109668571D01*
X40660000Y-111168571D02*
X40660000Y-110382857D01*
X40731428Y-110240000D01*
X40874285Y-110168571D01*
X41088571Y-110168571D01*
X41231428Y-110240000D01*
X41302857Y-110311428D01*
X39374285Y-111097142D02*
X39517142Y-111168571D01*
X39802857Y-111168571D01*
X39945714Y-111097142D01*
X40017142Y-110954285D01*
X40017142Y-110382857D01*
X39945714Y-110240000D01*
X39802857Y-110168571D01*
X39517142Y-110168571D01*
X39374285Y-110240000D01*
X39302857Y-110382857D01*
X39302857Y-110525714D01*
X40017142Y-110668571D01*
X38017142Y-111168571D02*
X38017142Y-109668571D01*
X38017142Y-111097142D02*
X38160000Y-111168571D01*
X38445714Y-111168571D01*
X38588571Y-111097142D01*
X38660000Y-111025714D01*
X38731428Y-110882857D01*
X38731428Y-110454285D01*
X38660000Y-110311428D01*
X38588571Y-110240000D01*
X38445714Y-110168571D01*
X38160000Y-110168571D01*
X38017142Y-110240000D01*
X57874285Y-117447142D02*
X57660000Y-117518571D01*
X57302857Y-117518571D01*
X57160000Y-117447142D01*
X57088571Y-117375714D01*
X57017142Y-117232857D01*
X57017142Y-117090000D01*
X57088571Y-116947142D01*
X57160000Y-116875714D01*
X57302857Y-116804285D01*
X57588571Y-116732857D01*
X57731428Y-116661428D01*
X57802857Y-116590000D01*
X57874285Y-116447142D01*
X57874285Y-116304285D01*
X57802857Y-116161428D01*
X57731428Y-116090000D01*
X57588571Y-116018571D01*
X57231428Y-116018571D01*
X57017142Y-116090000D01*
X56517142Y-116018571D02*
X56160000Y-117518571D01*
X55874285Y-116447142D01*
X55588571Y-117518571D01*
X55231428Y-116018571D01*
X54660000Y-116947142D02*
X53517142Y-116947142D01*
X52302857Y-116732857D02*
X52088571Y-116804285D01*
X52017142Y-116875714D01*
X51945714Y-117018571D01*
X51945714Y-117232857D01*
X52017142Y-117375714D01*
X52088571Y-117447142D01*
X52231428Y-117518571D01*
X52802857Y-117518571D01*
X52802857Y-116018571D01*
X52302857Y-116018571D01*
X52160000Y-116090000D01*
X52088571Y-116161428D01*
X52017142Y-116304285D01*
X52017142Y-116447142D01*
X52088571Y-116590000D01*
X52160000Y-116661428D01*
X52302857Y-116732857D01*
X52802857Y-116732857D01*
X51302857Y-116018571D02*
X51302857Y-117232857D01*
X51231428Y-117375714D01*
X51160000Y-117447142D01*
X51017142Y-117518571D01*
X50731428Y-117518571D01*
X50588571Y-117447142D01*
X50517142Y-117375714D01*
X50445714Y-117232857D01*
X50445714Y-116018571D01*
X49802857Y-117447142D02*
X49588571Y-117518571D01*
X49231428Y-117518571D01*
X49088571Y-117447142D01*
X49017142Y-117375714D01*
X48945714Y-117232857D01*
X48945714Y-117090000D01*
X49017142Y-116947142D01*
X49088571Y-116875714D01*
X49231428Y-116804285D01*
X49517142Y-116732857D01*
X49660000Y-116661428D01*
X49731428Y-116590000D01*
X49802857Y-116447142D01*
X49802857Y-116304285D01*
X49731428Y-116161428D01*
X49660000Y-116090000D01*
X49517142Y-116018571D01*
X49160000Y-116018571D01*
X48945714Y-116090000D01*
X47231428Y-117447142D02*
X47017142Y-117518571D01*
X46660000Y-117518571D01*
X46517142Y-117447142D01*
X46445714Y-117375714D01*
X46374285Y-117232857D01*
X46374285Y-117090000D01*
X46445714Y-116947142D01*
X46517142Y-116875714D01*
X46660000Y-116804285D01*
X46945714Y-116732857D01*
X47088571Y-116661428D01*
X47160000Y-116590000D01*
X47231428Y-116447142D01*
X47231428Y-116304285D01*
X47160000Y-116161428D01*
X47088571Y-116090000D01*
X46945714Y-116018571D01*
X46588571Y-116018571D01*
X46374285Y-116090000D01*
X45874285Y-116518571D02*
X45588571Y-117518571D01*
X45302857Y-116804285D01*
X45017142Y-117518571D01*
X44731428Y-116518571D01*
X44160000Y-117518571D02*
X44160000Y-116518571D01*
X44160000Y-116018571D02*
X44231428Y-116090000D01*
X44160000Y-116161428D01*
X44088571Y-116090000D01*
X44160000Y-116018571D01*
X44160000Y-116161428D01*
X43660000Y-116518571D02*
X43088571Y-116518571D01*
X43445714Y-116018571D02*
X43445714Y-117304285D01*
X43374285Y-117447142D01*
X43231428Y-117518571D01*
X43088571Y-117518571D01*
X41945714Y-117447142D02*
X42088571Y-117518571D01*
X42374285Y-117518571D01*
X42517142Y-117447142D01*
X42588571Y-117375714D01*
X42660000Y-117232857D01*
X42660000Y-116804285D01*
X42588571Y-116661428D01*
X42517142Y-116590000D01*
X42374285Y-116518571D01*
X42088571Y-116518571D01*
X41945714Y-116590000D01*
X41302857Y-117518571D02*
X41302857Y-116018571D01*
X40660000Y-117518571D02*
X40660000Y-116732857D01*
X40731428Y-116590000D01*
X40874285Y-116518571D01*
X41088571Y-116518571D01*
X41231428Y-116590000D01*
X41302857Y-116661428D01*
X39374285Y-117447142D02*
X39517142Y-117518571D01*
X39802857Y-117518571D01*
X39945714Y-117447142D01*
X40017142Y-117304285D01*
X40017142Y-116732857D01*
X39945714Y-116590000D01*
X39802857Y-116518571D01*
X39517142Y-116518571D01*
X39374285Y-116590000D01*
X39302857Y-116732857D01*
X39302857Y-116875714D01*
X40017142Y-117018571D01*
X38017142Y-117518571D02*
X38017142Y-116018571D01*
X38017142Y-117447142D02*
X38160000Y-117518571D01*
X38445714Y-117518571D01*
X38588571Y-117447142D01*
X38660000Y-117375714D01*
X38731428Y-117232857D01*
X38731428Y-116804285D01*
X38660000Y-116661428D01*
X38588571Y-116590000D01*
X38445714Y-116518571D01*
X38160000Y-116518571D01*
X38017142Y-116590000D01*
X46585000Y-71640000D02*
X46727857Y-71568571D01*
X46942142Y-71568571D01*
X47156428Y-71640000D01*
X47299285Y-71782857D01*
X47370714Y-71925714D01*
X47442142Y-72211428D01*
X47442142Y-72425714D01*
X47370714Y-72711428D01*
X47299285Y-72854285D01*
X47156428Y-72997142D01*
X46942142Y-73068571D01*
X46799285Y-73068571D01*
X46585000Y-72997142D01*
X46513571Y-72925714D01*
X46513571Y-72425714D01*
X46799285Y-72425714D01*
X45870714Y-73068571D02*
X45870714Y-71568571D01*
X45299285Y-71568571D01*
X45156428Y-71640000D01*
X45085000Y-71711428D01*
X45013571Y-71854285D01*
X45013571Y-72068571D01*
X45085000Y-72211428D01*
X45156428Y-72282857D01*
X45299285Y-72354285D01*
X45870714Y-72354285D01*
X44370714Y-73068571D02*
X44370714Y-71568571D01*
X43370714Y-71568571D02*
X43085000Y-71568571D01*
X42942142Y-71640000D01*
X42799285Y-71782857D01*
X42727857Y-72068571D01*
X42727857Y-72568571D01*
X42799285Y-72854285D01*
X42942142Y-72997142D01*
X43085000Y-73068571D01*
X43370714Y-73068571D01*
X43513571Y-72997142D01*
X43656428Y-72854285D01*
X43727857Y-72568571D01*
X43727857Y-72068571D01*
X43656428Y-71782857D01*
X43513571Y-71640000D01*
X43370714Y-71568571D01*
D12*
X25645416Y-37806666D02*
X25978750Y-37806666D01*
X26012083Y-38140000D01*
X25978750Y-38106666D01*
X25912083Y-38073333D01*
X25745416Y-38073333D01*
X25678750Y-38106666D01*
X25645416Y-38140000D01*
X25612083Y-38206666D01*
X25612083Y-38373333D01*
X25645416Y-38440000D01*
X25678750Y-38473333D01*
X25745416Y-38506666D01*
X25912083Y-38506666D01*
X25978750Y-38473333D01*
X26012083Y-38440000D01*
X25412083Y-37806666D02*
X25178750Y-38506666D01*
X24945416Y-37806666D01*
X25045416Y-39065000D02*
X25112083Y-39031666D01*
X25212083Y-39031666D01*
X25312083Y-39065000D01*
X25378750Y-39131666D01*
X25412083Y-39198333D01*
X25445416Y-39331666D01*
X25445416Y-39431666D01*
X25412083Y-39565000D01*
X25378750Y-39631666D01*
X25312083Y-39698333D01*
X25212083Y-39731666D01*
X25145416Y-39731666D01*
X25045416Y-39698333D01*
X25012083Y-39665000D01*
X25012083Y-39431666D01*
X25145416Y-39431666D01*
X25678750Y-42181666D02*
X25912083Y-41848333D01*
X26078750Y-42181666D02*
X26078750Y-41481666D01*
X25812083Y-41481666D01*
X25745416Y-41515000D01*
X25712083Y-41548333D01*
X25678750Y-41615000D01*
X25678750Y-41715000D01*
X25712083Y-41781666D01*
X25745416Y-41815000D01*
X25812083Y-41848333D01*
X26078750Y-41848333D01*
X25445416Y-41481666D02*
X24978750Y-42181666D01*
X24978750Y-41481666D02*
X25445416Y-42181666D01*
X26012083Y-42706666D02*
X25612083Y-42706666D01*
X25812083Y-43406666D02*
X25812083Y-42706666D01*
X25445416Y-42706666D02*
X24978750Y-43406666D01*
X24978750Y-42706666D02*
X25445416Y-43406666D01*
D10*
X24721428Y-53609285D02*
X26221428Y-53609285D01*
X26221428Y-53037857D01*
X26150000Y-52895000D01*
X26078571Y-52823571D01*
X25935714Y-52752142D01*
X25721428Y-52752142D01*
X25578571Y-52823571D01*
X25507142Y-52895000D01*
X25435714Y-53037857D01*
X25435714Y-53609285D01*
X24721428Y-52109285D02*
X26221428Y-52109285D01*
X25150000Y-51609285D01*
X26221428Y-51109285D01*
X24721428Y-51109285D01*
X24792857Y-50466428D02*
X24721428Y-50252142D01*
X24721428Y-49895000D01*
X24792857Y-49752142D01*
X24864285Y-49680714D01*
X25007142Y-49609285D01*
X25150000Y-49609285D01*
X25292857Y-49680714D01*
X25364285Y-49752142D01*
X25435714Y-49895000D01*
X25507142Y-50180714D01*
X25578571Y-50323571D01*
X25650000Y-50395000D01*
X25792857Y-50466428D01*
X25935714Y-50466428D01*
X26078571Y-50395000D01*
X26150000Y-50323571D01*
X26221428Y-50180714D01*
X26221428Y-49823571D01*
X26150000Y-49609285D01*
X24721428Y-49109285D02*
X25721428Y-48323571D01*
X25721428Y-49109285D02*
X24721428Y-48323571D01*
X26221428Y-47466428D02*
X26221428Y-47323571D01*
X26150000Y-47180714D01*
X26078571Y-47109285D01*
X25935714Y-47037857D01*
X25650000Y-46966428D01*
X25292857Y-46966428D01*
X25007142Y-47037857D01*
X24864285Y-47109285D01*
X24792857Y-47180714D01*
X24721428Y-47323571D01*
X24721428Y-47466428D01*
X24792857Y-47609285D01*
X24864285Y-47680714D01*
X25007142Y-47752142D01*
X25292857Y-47823571D01*
X25650000Y-47823571D01*
X25935714Y-47752142D01*
X26078571Y-47680714D01*
X26150000Y-47609285D01*
X26221428Y-47466428D01*
X26221428Y-46037857D02*
X26221428Y-45895000D01*
X26150000Y-45752142D01*
X26078571Y-45680714D01*
X25935714Y-45609285D01*
X25650000Y-45537857D01*
X25292857Y-45537857D01*
X25007142Y-45609285D01*
X24864285Y-45680714D01*
X24792857Y-45752142D01*
X24721428Y-45895000D01*
X24721428Y-46037857D01*
X24792857Y-46180714D01*
X24864285Y-46252142D01*
X25007142Y-46323571D01*
X25292857Y-46395000D01*
X25650000Y-46395000D01*
X25935714Y-46323571D01*
X26078571Y-46252142D01*
X26150000Y-46180714D01*
X26221428Y-46037857D01*
X26221428Y-45037857D02*
X26221428Y-44109285D01*
X25650000Y-44609285D01*
X25650000Y-44395000D01*
X25578571Y-44252142D01*
X25507142Y-44180714D01*
X25364285Y-44109285D01*
X25007142Y-44109285D01*
X24864285Y-44180714D01*
X24792857Y-44252142D01*
X24721428Y-44395000D01*
X24721428Y-44823571D01*
X24792857Y-44966428D01*
X24864285Y-45037857D01*
D11*
X38735000Y-22860000D02*
X38735000Y-32385000D01*
X36195000Y-30480000D02*
X41275000Y-30480000D01*
X36195000Y-28575000D02*
X41275000Y-28575000D01*
X36195000Y-26670000D02*
X41275000Y-26670000D01*
X36195000Y-24765000D02*
X41275000Y-24765000D01*
X41275000Y-32385000D02*
X36195000Y-32385000D01*
X41275000Y-22860000D02*
X41275000Y-32385000D01*
X36195000Y-22860000D02*
X41275000Y-22860000D01*
X36195000Y-32385000D02*
X36195000Y-22860000D01*
X40218666Y-23338666D02*
X40752000Y-23338666D01*
X40805333Y-23872000D01*
X40752000Y-23818666D01*
X40645333Y-23765333D01*
X40378666Y-23765333D01*
X40272000Y-23818666D01*
X40218666Y-23872000D01*
X40165333Y-23978666D01*
X40165333Y-24245333D01*
X40218666Y-24352000D01*
X40272000Y-24405333D01*
X40378666Y-24458666D01*
X40645333Y-24458666D01*
X40752000Y-24405333D01*
X40805333Y-24352000D01*
X39845333Y-23338666D02*
X39472000Y-24458666D01*
X39098666Y-23338666D01*
X39258666Y-25272000D02*
X39365333Y-25218666D01*
X39525333Y-25218666D01*
X39685333Y-25272000D01*
X39792000Y-25378666D01*
X39845333Y-25485333D01*
X39898666Y-25698666D01*
X39898666Y-25858666D01*
X39845333Y-26072000D01*
X39792000Y-26178666D01*
X39685333Y-26285333D01*
X39525333Y-26338666D01*
X39418666Y-26338666D01*
X39258666Y-26285333D01*
X39205333Y-26232000D01*
X39205333Y-25858666D01*
X39418666Y-25858666D01*
X37805000Y-23312666D02*
X38338333Y-23312666D01*
X38391666Y-23846000D01*
X38338333Y-23792666D01*
X38231666Y-23739333D01*
X37965000Y-23739333D01*
X37858333Y-23792666D01*
X37805000Y-23846000D01*
X37751666Y-23952666D01*
X37751666Y-24219333D01*
X37805000Y-24326000D01*
X37858333Y-24379333D01*
X37965000Y-24432666D01*
X38231666Y-24432666D01*
X38338333Y-24379333D01*
X38391666Y-24326000D01*
X37431666Y-23312666D02*
X37058333Y-24432666D01*
X36685000Y-23312666D01*
X37751666Y-25246000D02*
X37858333Y-25192666D01*
X38018333Y-25192666D01*
X38178333Y-25246000D01*
X38285000Y-25352666D01*
X38338333Y-25459333D01*
X38391666Y-25672666D01*
X38391666Y-25832666D01*
X38338333Y-26046000D01*
X38285000Y-26152666D01*
X38178333Y-26259333D01*
X38018333Y-26312666D01*
X37911666Y-26312666D01*
X37751666Y-26259333D01*
X37698333Y-26206000D01*
X37698333Y-25832666D01*
X37911666Y-25832666D01*
X37698333Y-30072666D02*
X38071666Y-29539333D01*
X38338333Y-30072666D02*
X38338333Y-28952666D01*
X37911666Y-28952666D01*
X37805000Y-29006000D01*
X37751666Y-29059333D01*
X37698333Y-29166000D01*
X37698333Y-29326000D01*
X37751666Y-29432666D01*
X37805000Y-29486000D01*
X37911666Y-29539333D01*
X38338333Y-29539333D01*
X37325000Y-28952666D02*
X36578333Y-30072666D01*
X36578333Y-28952666D02*
X37325000Y-30072666D01*
X38498333Y-30832666D02*
X37858333Y-30832666D01*
X38178333Y-31952666D02*
X38178333Y-30832666D01*
X37591666Y-30832666D02*
X36845000Y-31952666D01*
X36845000Y-30832666D02*
X37591666Y-31952666D01*
D10*
X38325714Y-35532142D02*
X38111428Y-35603571D01*
X37754285Y-35603571D01*
X37611428Y-35532142D01*
X37540000Y-35460714D01*
X37468571Y-35317857D01*
X37468571Y-35175000D01*
X37540000Y-35032142D01*
X37611428Y-34960714D01*
X37754285Y-34889285D01*
X38040000Y-34817857D01*
X38182857Y-34746428D01*
X38254285Y-34675000D01*
X38325714Y-34532142D01*
X38325714Y-34389285D01*
X38254285Y-34246428D01*
X38182857Y-34175000D01*
X38040000Y-34103571D01*
X37682857Y-34103571D01*
X37468571Y-34175000D01*
X36825714Y-35603571D02*
X36825714Y-34103571D01*
X36468571Y-34103571D01*
X36254285Y-34175000D01*
X36111428Y-34317857D01*
X36040000Y-34460714D01*
X35968571Y-34746428D01*
X35968571Y-34960714D01*
X36040000Y-35246428D01*
X36111428Y-35389285D01*
X36254285Y-35532142D01*
X36468571Y-35603571D01*
X36825714Y-35603571D01*
X35397142Y-35532142D02*
X35182857Y-35603571D01*
X34825714Y-35603571D01*
X34682857Y-35532142D01*
X34611428Y-35460714D01*
X34540000Y-35317857D01*
X34540000Y-35175000D01*
X34611428Y-35032142D01*
X34682857Y-34960714D01*
X34825714Y-34889285D01*
X35111428Y-34817857D01*
X35254285Y-34746428D01*
X35325714Y-34675000D01*
X35397142Y-34532142D01*
X35397142Y-34389285D01*
X35325714Y-34246428D01*
X35254285Y-34175000D01*
X35111428Y-34103571D01*
X34754285Y-34103571D01*
X34540000Y-34175000D01*
X33611428Y-34103571D02*
X33468571Y-34103571D01*
X33325714Y-34175000D01*
X33254285Y-34246428D01*
X33182857Y-34389285D01*
X33111428Y-34675000D01*
X33111428Y-35032142D01*
X33182857Y-35317857D01*
X33254285Y-35460714D01*
X33325714Y-35532142D01*
X33468571Y-35603571D01*
X33611428Y-35603571D01*
X33754285Y-35532142D01*
X33825714Y-35460714D01*
X33897142Y-35317857D01*
X33968571Y-35032142D01*
X33968571Y-34675000D01*
X33897142Y-34389285D01*
X33825714Y-34246428D01*
X33754285Y-34175000D01*
X33611428Y-34103571D01*
X31682857Y-35603571D02*
X32540000Y-35603571D01*
X32111428Y-35603571D02*
X32111428Y-34103571D01*
X32254285Y-34317857D01*
X32397142Y-34460714D01*
X32540000Y-34532142D01*
X30254285Y-35603571D02*
X31111428Y-35603571D01*
X30682857Y-35603571D02*
X30682857Y-34103571D01*
X30825714Y-34317857D01*
X30968571Y-34460714D01*
X31111428Y-34532142D01*
X29746000Y-22018571D02*
X28817428Y-22018571D01*
X29317428Y-22590000D01*
X29103142Y-22590000D01*
X28960285Y-22661428D01*
X28888857Y-22732857D01*
X28817428Y-22875714D01*
X28817428Y-23232857D01*
X28888857Y-23375714D01*
X28960285Y-23447142D01*
X29103142Y-23518571D01*
X29531714Y-23518571D01*
X29674571Y-23447142D01*
X29746000Y-23375714D01*
X28388857Y-22018571D02*
X27888857Y-23518571D01*
X27388857Y-22018571D01*
X28888857Y-24568571D02*
X29603142Y-24568571D01*
X29674571Y-25282857D01*
X29603142Y-25211428D01*
X29460285Y-25140000D01*
X29103142Y-25140000D01*
X28960285Y-25211428D01*
X28888857Y-25282857D01*
X28817428Y-25425714D01*
X28817428Y-25782857D01*
X28888857Y-25925714D01*
X28960285Y-25997142D01*
X29103142Y-26068571D01*
X29460285Y-26068571D01*
X29603142Y-25997142D01*
X29674571Y-25925714D01*
X28388857Y-24568571D02*
X27888857Y-26068571D01*
X27388857Y-24568571D01*
X27603142Y-27190000D02*
X27746000Y-27118571D01*
X27960285Y-27118571D01*
X28174571Y-27190000D01*
X28317428Y-27332857D01*
X28388857Y-27475714D01*
X28460285Y-27761428D01*
X28460285Y-27975714D01*
X28388857Y-28261428D01*
X28317428Y-28404285D01*
X28174571Y-28547142D01*
X27960285Y-28618571D01*
X27817428Y-28618571D01*
X27603142Y-28547142D01*
X27531714Y-28475714D01*
X27531714Y-27975714D01*
X27817428Y-27975714D01*
X28960285Y-31168571D02*
X29460285Y-30454285D01*
X29817428Y-31168571D02*
X29817428Y-29668571D01*
X29246000Y-29668571D01*
X29103142Y-29740000D01*
X29031714Y-29811428D01*
X28960285Y-29954285D01*
X28960285Y-30168571D01*
X29031714Y-30311428D01*
X29103142Y-30382857D01*
X29246000Y-30454285D01*
X29817428Y-30454285D01*
X28460285Y-29668571D02*
X27460285Y-31168571D01*
X27460285Y-29668571D02*
X28460285Y-31168571D01*
X29674571Y-32218571D02*
X28817428Y-32218571D01*
X29246000Y-33718571D02*
X29246000Y-32218571D01*
X28460285Y-32218571D02*
X27460285Y-33718571D01*
X27460285Y-32218571D02*
X28460285Y-33718571D01*
X47831428Y-46652142D02*
X47831428Y-45795000D01*
X46331428Y-46223571D02*
X47831428Y-46223571D01*
X47831428Y-45437857D02*
X46331428Y-44437857D01*
X47831428Y-44437857D02*
X46331428Y-45437857D01*
X43781428Y-45580714D02*
X44495714Y-46080714D01*
X43781428Y-46437857D02*
X45281428Y-46437857D01*
X45281428Y-45866428D01*
X45210000Y-45723571D01*
X45138571Y-45652142D01*
X44995714Y-45580714D01*
X44781428Y-45580714D01*
X44638571Y-45652142D01*
X44567142Y-45723571D01*
X44495714Y-45866428D01*
X44495714Y-46437857D01*
X45281428Y-45080714D02*
X43781428Y-44080714D01*
X45281428Y-44080714D02*
X43781428Y-45080714D01*
X42660000Y-45652142D02*
X42731428Y-45795000D01*
X42731428Y-46009285D01*
X42660000Y-46223571D01*
X42517142Y-46366428D01*
X42374285Y-46437857D01*
X42088571Y-46509285D01*
X41874285Y-46509285D01*
X41588571Y-46437857D01*
X41445714Y-46366428D01*
X41302857Y-46223571D01*
X41231428Y-46009285D01*
X41231428Y-45866428D01*
X41302857Y-45652142D01*
X41374285Y-45580714D01*
X41874285Y-45580714D01*
X41874285Y-45866428D01*
X37631428Y-45723571D02*
X37631428Y-46437857D01*
X36917142Y-46509285D01*
X36988571Y-46437857D01*
X37060000Y-46295000D01*
X37060000Y-45937857D01*
X36988571Y-45795000D01*
X36917142Y-45723571D01*
X36774285Y-45652142D01*
X36417142Y-45652142D01*
X36274285Y-45723571D01*
X36202857Y-45795000D01*
X36131428Y-45937857D01*
X36131428Y-46295000D01*
X36202857Y-46437857D01*
X36274285Y-46509285D01*
X37631428Y-45223571D02*
X36131428Y-44723571D01*
X37631428Y-44223571D01*
X58010714Y-51407142D02*
X57796428Y-51478571D01*
X57439285Y-51478571D01*
X57296428Y-51407142D01*
X57225000Y-51335714D01*
X57153571Y-51192857D01*
X57153571Y-51050000D01*
X57225000Y-50907142D01*
X57296428Y-50835714D01*
X57439285Y-50764285D01*
X57725000Y-50692857D01*
X57867857Y-50621428D01*
X57939285Y-50550000D01*
X58010714Y-50407142D01*
X58010714Y-50264285D01*
X57939285Y-50121428D01*
X57867857Y-50050000D01*
X57725000Y-49978571D01*
X57367857Y-49978571D01*
X57153571Y-50050000D01*
X56510714Y-51478571D02*
X56510714Y-49978571D01*
X56153571Y-49978571D01*
X55939285Y-50050000D01*
X55796428Y-50192857D01*
X55725000Y-50335714D01*
X55653571Y-50621428D01*
X55653571Y-50835714D01*
X55725000Y-51121428D01*
X55796428Y-51264285D01*
X55939285Y-51407142D01*
X56153571Y-51478571D01*
X56510714Y-51478571D01*
X55082142Y-51407142D02*
X54867857Y-51478571D01*
X54510714Y-51478571D01*
X54367857Y-51407142D01*
X54296428Y-51335714D01*
X54225000Y-51192857D01*
X54225000Y-51050000D01*
X54296428Y-50907142D01*
X54367857Y-50835714D01*
X54510714Y-50764285D01*
X54796428Y-50692857D01*
X54939285Y-50621428D01*
X55010714Y-50550000D01*
X55082142Y-50407142D01*
X55082142Y-50264285D01*
X55010714Y-50121428D01*
X54939285Y-50050000D01*
X54796428Y-49978571D01*
X54439285Y-49978571D01*
X54225000Y-50050000D01*
X53296428Y-49978571D02*
X53153571Y-49978571D01*
X53010714Y-50050000D01*
X52939285Y-50121428D01*
X52867857Y-50264285D01*
X52796428Y-50550000D01*
X52796428Y-50907142D01*
X52867857Y-51192857D01*
X52939285Y-51335714D01*
X53010714Y-51407142D01*
X53153571Y-51478571D01*
X53296428Y-51478571D01*
X53439285Y-51407142D01*
X53510714Y-51335714D01*
X53582142Y-51192857D01*
X53653571Y-50907142D01*
X53653571Y-50550000D01*
X53582142Y-50264285D01*
X53510714Y-50121428D01*
X53439285Y-50050000D01*
X53296428Y-49978571D01*
X51367857Y-51478571D02*
X52225000Y-51478571D01*
X51796428Y-51478571D02*
X51796428Y-49978571D01*
X51939285Y-50192857D01*
X52082142Y-50335714D01*
X52225000Y-50407142D01*
X49939285Y-51478571D02*
X50796428Y-51478571D01*
X50367857Y-51478571D02*
X50367857Y-49978571D01*
X50510714Y-50192857D01*
X50653571Y-50335714D01*
X50796428Y-50407142D01*
D13*
X61580000Y-98810000D02*
X61580000Y-86610000D01*
X74580000Y-98810000D02*
X70080000Y-98810000D01*
X74580000Y-86610000D02*
X74580000Y-98810000D01*
X70080000Y-86610000D02*
X74580000Y-86610000D01*
X67080000Y-98810000D02*
X61580000Y-98810000D01*
X67080000Y-86610000D02*
X61580000Y-86610000D01*
X29190000Y-53260000D02*
X29190000Y-47290000D01*
X29190000Y-47290000D02*
X49310000Y-47290000D01*
X49310000Y-47290000D02*
X49310000Y-53260000D01*
X49310000Y-53260000D02*
X29190000Y-53260000D01*
X32500000Y-53250000D02*
X32500000Y-52500000D01*
X32500000Y-52500000D02*
X46000000Y-52500000D01*
X46000000Y-52500000D02*
X46000000Y-53250000D01*
X46000000Y-53250000D02*
X32500000Y-53250000D01*
X29200000Y-53250000D02*
X29200000Y-52500000D01*
X29200000Y-52500000D02*
X31000000Y-52500000D01*
X31000000Y-52500000D02*
X31000000Y-53250000D01*
X31000000Y-53250000D02*
X29200000Y-53250000D01*
X47500000Y-53250000D02*
X47500000Y-52500000D01*
X47500000Y-52500000D02*
X49300000Y-52500000D01*
X49300000Y-52500000D02*
X49300000Y-53250000D01*
X49300000Y-53250000D02*
X47500000Y-53250000D01*
X29200000Y-51000000D02*
X29950000Y-51000000D01*
X29950000Y-51000000D02*
X29950000Y-48050000D01*
X29950000Y-48050000D02*
X39250000Y-48050000D01*
X49300000Y-51000000D02*
X48550000Y-51000000D01*
X48550000Y-51000000D02*
X48550000Y-48050000D01*
X48550000Y-48050000D02*
X39250000Y-48050000D01*
X30150000Y-53550000D02*
X28900000Y-53550000D01*
X28900000Y-53550000D02*
X28900000Y-52300000D01*
X66100000Y-85785000D02*
X66100000Y-84455000D01*
X64770000Y-85785000D02*
X66100000Y-85785000D01*
X63500000Y-85785000D02*
X63500000Y-83125000D01*
X63500000Y-83125000D02*
X60900000Y-83125000D01*
X63500000Y-85785000D02*
X60900000Y-85785000D01*
X60900000Y-85785000D02*
X60900000Y-83125000D01*
X74295000Y-55880000D02*
X74295000Y-66040000D01*
X66675000Y-55880000D02*
X74295000Y-55880000D01*
X66675000Y-66040000D02*
X66675000Y-55880000D01*
X74295000Y-66040000D02*
X66675000Y-66040000D01*
X73025000Y-66040000D02*
X73025000Y-55880000D01*
X34520000Y-67695000D02*
X40020000Y-67695000D01*
X34520000Y-55495000D02*
X40020000Y-55495000D01*
X31520000Y-67695000D02*
X27020000Y-67695000D01*
X27020000Y-67695000D02*
X27020000Y-55495000D01*
X27020000Y-55495000D02*
X31520000Y-55495000D01*
X40020000Y-55495000D02*
X40020000Y-67695000D01*
X32385000Y-21465000D02*
X31435000Y-21465000D01*
X31435000Y-21465000D02*
X31435000Y-22225000D01*
X31625000Y-22860000D02*
X31435000Y-22860000D01*
X31435000Y-22860000D02*
X31435000Y-28000000D01*
X33347470Y-28000000D02*
X32692530Y-28000000D01*
X34605000Y-28000000D02*
X33962530Y-28000000D01*
X32077470Y-28000000D02*
X31435000Y-28000000D01*
X34605000Y-21530000D02*
X34605000Y-28000000D01*
X33347470Y-21530000D02*
X33145000Y-21530000D01*
X34605000Y-21530000D02*
X33962530Y-21530000D01*
X20700000Y-36490000D02*
X24120000Y-36490000D01*
X24120000Y-36490000D02*
X24120000Y-48460000D01*
X24120000Y-48460000D02*
X20700000Y-48460000D01*
X20700000Y-48460000D02*
X20700000Y-36490000D01*
X23610000Y-42475000D02*
X23610000Y-37000000D01*
X23610000Y-37000000D02*
X22860000Y-37000000D01*
X22860000Y-37000000D02*
X22860000Y-36800000D01*
X22860000Y-36800000D02*
X22060000Y-36800000D01*
X22060000Y-36800000D02*
X22060000Y-37000000D01*
X22060000Y-37000000D02*
X21210000Y-37000000D01*
X21210000Y-37000000D02*
X21210000Y-42475000D01*
X23610000Y-42475000D02*
X23610000Y-47950000D01*
X23610000Y-47950000D02*
X22860000Y-47950000D01*
X22860000Y-47950000D02*
X22860000Y-48150000D01*
X22860000Y-48150000D02*
X22060000Y-48150000D01*
X22060000Y-48150000D02*
X22060000Y-47950000D01*
X22060000Y-47950000D02*
X21210000Y-47950000D01*
X21210000Y-47950000D02*
X21210000Y-42475000D01*
X24410000Y-36200000D02*
X23410000Y-36200000D01*
X24410000Y-36200000D02*
X24410000Y-37200000D01*
X26610000Y-116840000D02*
X26610000Y-118170000D01*
X26610000Y-118170000D02*
X27940000Y-118170000D01*
X29210000Y-118170000D02*
X36890000Y-118170000D01*
X36890000Y-115510000D02*
X36890000Y-118170000D01*
X29210000Y-115510000D02*
X36890000Y-115510000D01*
X29210000Y-115510000D02*
X29210000Y-118170000D01*
X26610000Y-106680000D02*
X26610000Y-108010000D01*
X26610000Y-108010000D02*
X27940000Y-108010000D01*
X29210000Y-108010000D02*
X36890000Y-108010000D01*
X36890000Y-105350000D02*
X36890000Y-108010000D01*
X29210000Y-105350000D02*
X36890000Y-105350000D01*
X29210000Y-105350000D02*
X29210000Y-108010000D01*
X26610000Y-110490000D02*
X26610000Y-111820000D01*
X26610000Y-111820000D02*
X27940000Y-111820000D01*
X29210000Y-111820000D02*
X36890000Y-111820000D01*
X36890000Y-109160000D02*
X36890000Y-111820000D01*
X29210000Y-109160000D02*
X36890000Y-109160000D01*
X29210000Y-109160000D02*
X29210000Y-111820000D01*
X26610000Y-102870000D02*
X26610000Y-104200000D01*
X26610000Y-104200000D02*
X27940000Y-104200000D01*
X29210000Y-104200000D02*
X36890000Y-104200000D01*
X36890000Y-101540000D02*
X36890000Y-104200000D01*
X29210000Y-101540000D02*
X36890000Y-101540000D01*
X29210000Y-101540000D02*
X29210000Y-104200000D01*
X26610000Y-99060000D02*
X26610000Y-100390000D01*
X26610000Y-100390000D02*
X27940000Y-100390000D01*
X29210000Y-100390000D02*
X36890000Y-100390000D01*
X36890000Y-97730000D02*
X36890000Y-100390000D01*
X29210000Y-97730000D02*
X36890000Y-97730000D01*
X29210000Y-97730000D02*
X29210000Y-100390000D01*
X26610000Y-85090000D02*
X26610000Y-86420000D01*
X26610000Y-86420000D02*
X27940000Y-86420000D01*
X29210000Y-86420000D02*
X36890000Y-86420000D01*
X36890000Y-83760000D02*
X36890000Y-86420000D01*
X29210000Y-83760000D02*
X36890000Y-83760000D01*
X29210000Y-83760000D02*
X29210000Y-86420000D01*
X26610000Y-81280000D02*
X26610000Y-82610000D01*
X26610000Y-82610000D02*
X27940000Y-82610000D01*
X29210000Y-82610000D02*
X36890000Y-82610000D01*
X36890000Y-79950000D02*
X36890000Y-82610000D01*
X29210000Y-79950000D02*
X36890000Y-79950000D01*
X29210000Y-79950000D02*
X29210000Y-82610000D01*
X74355000Y-116840000D02*
X74355000Y-115510000D01*
X74355000Y-115510000D02*
X73025000Y-115510000D01*
X71755000Y-115510000D02*
X66615000Y-115510000D01*
X66615000Y-118170000D02*
X66615000Y-115510000D01*
X71755000Y-118170000D02*
X66615000Y-118170000D01*
X71755000Y-118170000D02*
X71755000Y-115510000D01*
X74355000Y-109855000D02*
X74355000Y-108525000D01*
X74355000Y-108525000D02*
X73025000Y-108525000D01*
X71755000Y-108525000D02*
X66615000Y-108525000D01*
X66615000Y-111185000D02*
X66615000Y-108525000D01*
X71755000Y-111185000D02*
X66615000Y-111185000D01*
X71755000Y-111185000D02*
X71755000Y-108525000D01*
X40580000Y-57725000D02*
X40580000Y-59055000D01*
X41910000Y-57725000D02*
X40580000Y-57725000D01*
X43180000Y-57725000D02*
X43180000Y-60385000D01*
X43180000Y-60385000D02*
X45780000Y-60385000D01*
X43180000Y-57725000D02*
X45780000Y-57725000D01*
X45780000Y-57725000D02*
X45780000Y-60385000D01*
X40580000Y-61535000D02*
X40580000Y-62865000D01*
X41910000Y-61535000D02*
X40580000Y-61535000D01*
X43180000Y-61535000D02*
X43180000Y-64195000D01*
X43180000Y-64195000D02*
X45780000Y-64195000D01*
X43180000Y-61535000D02*
X45780000Y-61535000D01*
X45780000Y-61535000D02*
X45780000Y-64195000D01*
X78740000Y-32690000D02*
X78740000Y-33640000D01*
X78740000Y-38430000D02*
X78740000Y-37480000D01*
X79660000Y-33640000D02*
X79660000Y-37480000D01*
X77820000Y-33640000D02*
X79660000Y-33640000D01*
X77820000Y-37480000D02*
X77820000Y-33640000D01*
X79660000Y-37480000D02*
X77820000Y-37480000D01*
X76835000Y-25070000D02*
X76835000Y-26020000D01*
X76835000Y-30810000D02*
X76835000Y-29860000D01*
X77755000Y-26020000D02*
X77755000Y-29860000D01*
X75915000Y-26020000D02*
X77755000Y-26020000D01*
X75915000Y-29860000D02*
X75915000Y-26020000D01*
X77755000Y-29860000D02*
X75915000Y-29860000D01*
X26610000Y-69790000D02*
X26610000Y-71120000D01*
X27940000Y-69790000D02*
X26610000Y-69790000D01*
X26610000Y-72390000D02*
X26610000Y-74990000D01*
X29210000Y-72390000D02*
X26610000Y-72390000D01*
X29210000Y-69790000D02*
X29210000Y-72390000D01*
X26610000Y-74990000D02*
X41970000Y-74990000D01*
X29210000Y-69790000D02*
X41970000Y-69790000D01*
X41970000Y-69790000D02*
X41970000Y-74990000D01*
X56455000Y-64830000D02*
X57785000Y-64830000D01*
X56455000Y-63500000D02*
X56455000Y-64830000D01*
X56455000Y-62230000D02*
X59115000Y-62230000D01*
X59115000Y-62230000D02*
X59115000Y-59630000D01*
X56455000Y-62230000D02*
X56455000Y-59630000D01*
X56455000Y-59630000D02*
X59115000Y-59630000D01*
X26245000Y-35790000D02*
X24995000Y-35790000D01*
X26245000Y-34540000D02*
X26245000Y-35790000D01*
X20745000Y-21140000D02*
X20745000Y-27940000D01*
X23695000Y-21140000D02*
X20745000Y-21140000D01*
X23695000Y-20390000D02*
X23695000Y-21140000D01*
X20745000Y-34740000D02*
X20745000Y-27940000D01*
X23695000Y-34740000D02*
X20745000Y-34740000D01*
X23695000Y-35490000D02*
X23695000Y-34740000D01*
X25945000Y-20390000D02*
X25945000Y-22190000D01*
X25195000Y-20390000D02*
X25945000Y-20390000D01*
X25195000Y-22190000D02*
X25195000Y-20390000D01*
X25945000Y-22190000D02*
X25195000Y-22190000D01*
X25945000Y-33690000D02*
X25945000Y-35490000D01*
X25195000Y-33690000D02*
X25945000Y-33690000D01*
X25195000Y-35490000D02*
X25195000Y-33690000D01*
X25945000Y-35490000D02*
X25195000Y-35490000D01*
X25945000Y-23690000D02*
X25945000Y-32190000D01*
X25195000Y-23690000D02*
X25945000Y-23690000D01*
X25195000Y-32190000D02*
X25195000Y-23690000D01*
X25945000Y-32190000D02*
X25195000Y-32190000D01*
X25955000Y-20380000D02*
X25955000Y-35500000D01*
X19985000Y-20380000D02*
X25955000Y-20380000D01*
X19985000Y-35500000D02*
X19985000Y-20380000D01*
X25955000Y-35500000D02*
X19985000Y-35500000D01*
X77520500Y-47095000D02*
X77520500Y-46795000D01*
X77220500Y-47095000D02*
X77520500Y-47095000D01*
X77220500Y-46795000D02*
X77220500Y-47095000D01*
X77520500Y-46795000D02*
X77220500Y-46795000D01*
X78120500Y-52795000D02*
X78120500Y-52345000D01*
X79970500Y-52795000D02*
X78120500Y-52795000D01*
X82520500Y-44995000D02*
X82270500Y-44995000D01*
X82520500Y-52795000D02*
X82270500Y-52795000D01*
X79970500Y-44995000D02*
X78120500Y-44995000D01*
X78120500Y-44995000D02*
X78120500Y-45445000D01*
D14*
X81922857Y-32202380D02*
X82256190Y-31726190D01*
X82494285Y-32202380D02*
X82494285Y-31202380D01*
X82113333Y-31202380D01*
X82018095Y-31250000D01*
X81970476Y-31297619D01*
X81922857Y-31392857D01*
X81922857Y-31535714D01*
X81970476Y-31630952D01*
X82018095Y-31678571D01*
X82113333Y-31726190D01*
X82494285Y-31726190D01*
X81541904Y-31297619D02*
X81494285Y-31250000D01*
X81399047Y-31202380D01*
X81160952Y-31202380D01*
X81065714Y-31250000D01*
X81018095Y-31297619D01*
X80970476Y-31392857D01*
X80970476Y-31488095D01*
X81018095Y-31630952D01*
X81589523Y-32202380D01*
X80970476Y-32202380D01*
X80637142Y-31202380D02*
X79970476Y-31202380D01*
X80399047Y-32202380D01*
X81922857Y-24582380D02*
X82256190Y-24106190D01*
X82494285Y-24582380D02*
X82494285Y-23582380D01*
X82113333Y-23582380D01*
X82018095Y-23630000D01*
X81970476Y-23677619D01*
X81922857Y-23772857D01*
X81922857Y-23915714D01*
X81970476Y-24010952D01*
X82018095Y-24058571D01*
X82113333Y-24106190D01*
X82494285Y-24106190D01*
X81541904Y-23677619D02*
X81494285Y-23630000D01*
X81399047Y-23582380D01*
X81160952Y-23582380D01*
X81065714Y-23630000D01*
X81018095Y-23677619D01*
X80970476Y-23772857D01*
X80970476Y-23868095D01*
X81018095Y-24010952D01*
X81589523Y-24582380D01*
X80970476Y-24582380D01*
X80399047Y-24010952D02*
X80494285Y-23963333D01*
X80541904Y-23915714D01*
X80589523Y-23820476D01*
X80589523Y-23772857D01*
X80541904Y-23677619D01*
X80494285Y-23630000D01*
X80399047Y-23582380D01*
X80208571Y-23582380D01*
X80113333Y-23630000D01*
X80065714Y-23677619D01*
X80018095Y-23772857D01*
X80018095Y-23820476D01*
X80065714Y-23915714D01*
X80113333Y-23963333D01*
X80208571Y-24010952D01*
X80399047Y-24010952D01*
X80494285Y-24058571D01*
X80541904Y-24106190D01*
X80589523Y-24201428D01*
X80589523Y-24391904D01*
X80541904Y-24487142D01*
X80494285Y-24534761D01*
X80399047Y-24582380D01*
X80208571Y-24582380D01*
X80113333Y-24534761D01*
X80065714Y-24487142D01*
X80018095Y-24391904D01*
X80018095Y-24201428D01*
X80065714Y-24106190D01*
X80113333Y-24058571D01*
X80208571Y-24010952D01*
%LPC*%
D15*
X66280000Y-90160000D03*
X63740000Y-91180000D03*
X66280000Y-92200000D03*
X63740000Y-93220000D03*
X66280000Y-94240000D03*
D16*
X68580000Y-86710000D03*
X68580000Y-98710000D03*
D15*
X63740000Y-95260000D03*
D17*
G36*
X32374504Y-49826204D02*
G01*
X32398773Y-49829804D01*
X32422571Y-49835765D01*
X32445671Y-49844030D01*
X32467849Y-49854520D01*
X32488893Y-49867133D01*
X32508598Y-49881747D01*
X32526777Y-49898223D01*
X32543253Y-49916402D01*
X32557867Y-49936107D01*
X32570480Y-49957151D01*
X32580970Y-49979329D01*
X32589235Y-50002429D01*
X32595196Y-50026227D01*
X32598796Y-50050496D01*
X32600000Y-50075000D01*
X32600000Y-51525000D01*
X32598796Y-51549504D01*
X32595196Y-51573773D01*
X32589235Y-51597571D01*
X32580970Y-51620671D01*
X32570480Y-51642849D01*
X32557867Y-51663893D01*
X32543253Y-51683598D01*
X32526777Y-51701777D01*
X32508598Y-51718253D01*
X32488893Y-51732867D01*
X32467849Y-51745480D01*
X32445671Y-51755970D01*
X32422571Y-51764235D01*
X32398773Y-51770196D01*
X32374504Y-51773796D01*
X32350000Y-51775000D01*
X31150000Y-51775000D01*
X31125496Y-51773796D01*
X31101227Y-51770196D01*
X31077429Y-51764235D01*
X31054329Y-51755970D01*
X31032151Y-51745480D01*
X31011107Y-51732867D01*
X30991402Y-51718253D01*
X30973223Y-51701777D01*
X30956747Y-51683598D01*
X30942133Y-51663893D01*
X30929520Y-51642849D01*
X30919030Y-51620671D01*
X30910765Y-51597571D01*
X30904804Y-51573773D01*
X30901204Y-51549504D01*
X30900000Y-51525000D01*
X30900000Y-50075000D01*
X30901204Y-50050496D01*
X30904804Y-50026227D01*
X30910765Y-50002429D01*
X30919030Y-49979329D01*
X30929520Y-49957151D01*
X30942133Y-49936107D01*
X30956747Y-49916402D01*
X30973223Y-49898223D01*
X30991402Y-49881747D01*
X31011107Y-49867133D01*
X31032151Y-49854520D01*
X31054329Y-49844030D01*
X31077429Y-49835765D01*
X31101227Y-49829804D01*
X31125496Y-49826204D01*
X31150000Y-49825000D01*
X32350000Y-49825000D01*
X32374504Y-49826204D01*
G37*
D18*
X34250000Y-50800000D03*
X36750000Y-50800000D03*
X39250000Y-50800000D03*
X41750000Y-50800000D03*
X44250000Y-50800000D03*
X46750000Y-50800000D03*
D19*
X62230000Y-84455000D03*
D20*
X64770000Y-84455000D03*
D21*
X70485000Y-63500000D03*
D22*
X70485000Y-58420000D03*
D15*
X37860000Y-59045000D03*
D16*
X33020000Y-55595000D03*
X33020000Y-67595000D03*
D15*
X35320000Y-60065000D03*
X37860000Y-61085000D03*
X35320000Y-62105000D03*
X37860000Y-63125000D03*
X35320000Y-64145000D03*
D23*
X33655000Y-27305000D03*
X32385000Y-27305000D03*
X33655000Y-26035000D03*
X32385000Y-26035000D03*
X33655000Y-24765000D03*
X32385000Y-24765000D03*
X33655000Y-23495000D03*
X32385000Y-23495000D03*
X33655000Y-22225000D03*
D24*
X32385000Y-22225000D03*
D17*
G36*
X23329603Y-37700963D02*
G01*
X23349018Y-37703843D01*
X23368057Y-37708612D01*
X23386537Y-37715224D01*
X23404279Y-37723616D01*
X23421114Y-37733706D01*
X23436879Y-37745398D01*
X23451421Y-37758579D01*
X23464602Y-37773121D01*
X23476294Y-37788886D01*
X23486384Y-37805721D01*
X23494776Y-37823463D01*
X23501388Y-37841943D01*
X23506157Y-37860982D01*
X23509037Y-37880397D01*
X23510000Y-37900000D01*
X23510000Y-38300000D01*
X23509037Y-38319603D01*
X23506157Y-38339018D01*
X23501388Y-38358057D01*
X23494776Y-38376537D01*
X23486384Y-38394279D01*
X23476294Y-38411114D01*
X23464602Y-38426879D01*
X23451421Y-38441421D01*
X23436879Y-38454602D01*
X23421114Y-38466294D01*
X23404279Y-38476384D01*
X23386537Y-38484776D01*
X23368057Y-38491388D01*
X23349018Y-38496157D01*
X23329603Y-38499037D01*
X23310000Y-38500000D01*
X22410000Y-38500000D01*
X22390397Y-38499037D01*
X22370982Y-38496157D01*
X22351943Y-38491388D01*
X22333463Y-38484776D01*
X22315721Y-38476384D01*
X22298886Y-38466294D01*
X22283121Y-38454602D01*
X22268579Y-38441421D01*
X22255398Y-38426879D01*
X22243706Y-38411114D01*
X22233616Y-38394279D01*
X22225224Y-38376537D01*
X22218612Y-38358057D01*
X22213843Y-38339018D01*
X22210963Y-38319603D01*
X22210000Y-38300000D01*
X22210000Y-37900000D01*
X22210963Y-37880397D01*
X22213843Y-37860982D01*
X22218612Y-37841943D01*
X22225224Y-37823463D01*
X22233616Y-37805721D01*
X22243706Y-37788886D01*
X22255398Y-37773121D01*
X22268579Y-37758579D01*
X22283121Y-37745398D01*
X22298886Y-37733706D01*
X22315721Y-37723616D01*
X22333463Y-37715224D01*
X22351943Y-37708612D01*
X22370982Y-37703843D01*
X22390397Y-37700963D01*
X22410000Y-37700000D01*
X23310000Y-37700000D01*
X23329603Y-37700963D01*
G37*
D25*
X22860000Y-39350000D03*
X22860000Y-40600000D03*
X22860000Y-41850000D03*
X22860000Y-43100000D03*
X22860000Y-44350000D03*
X22860000Y-45600000D03*
X22860000Y-46850000D03*
D19*
X35560000Y-116840000D03*
X33020000Y-116840000D03*
X30480000Y-116840000D03*
D20*
X27940000Y-116840000D03*
D19*
X35560000Y-106680000D03*
X33020000Y-106680000D03*
X30480000Y-106680000D03*
D20*
X27940000Y-106680000D03*
D19*
X35560000Y-110490000D03*
X33020000Y-110490000D03*
X30480000Y-110490000D03*
D20*
X27940000Y-110490000D03*
D19*
X35560000Y-102870000D03*
X33020000Y-102870000D03*
X30480000Y-102870000D03*
D20*
X27940000Y-102870000D03*
D19*
X35560000Y-99060000D03*
X33020000Y-99060000D03*
X30480000Y-99060000D03*
D20*
X27940000Y-99060000D03*
D19*
X35560000Y-85090000D03*
X33020000Y-85090000D03*
X30480000Y-85090000D03*
D20*
X27940000Y-85090000D03*
D19*
X35560000Y-81280000D03*
X33020000Y-81280000D03*
X30480000Y-81280000D03*
D20*
X27940000Y-81280000D03*
D19*
X67945000Y-116840000D03*
X70485000Y-116840000D03*
D20*
X73025000Y-116840000D03*
D19*
X67945000Y-109855000D03*
X70485000Y-109855000D03*
D20*
X73025000Y-109855000D03*
D19*
X44450000Y-59055000D03*
D20*
X41910000Y-59055000D03*
D19*
X44450000Y-62865000D03*
D20*
X41910000Y-62865000D03*
D26*
X78740000Y-31750000D03*
D27*
X78740000Y-39370000D03*
D26*
X76835000Y-24130000D03*
D27*
X76835000Y-31750000D03*
D19*
X40640000Y-73660000D03*
X40640000Y-71120000D03*
X38100000Y-73660000D03*
X38100000Y-71120000D03*
X35560000Y-73660000D03*
X35560000Y-71120000D03*
X33020000Y-73660000D03*
X33020000Y-71120000D03*
X30480000Y-73660000D03*
X30480000Y-71120000D03*
X27940000Y-73660000D03*
D20*
X27940000Y-71120000D03*
D19*
X57785000Y-60960000D03*
D20*
X57785000Y-63500000D03*
D28*
X23495000Y-22940000D03*
X23495000Y-25440000D03*
X23495000Y-27940000D03*
X23495000Y-30440000D03*
D17*
G36*
X24244504Y-32091204D02*
G01*
X24268773Y-32094804D01*
X24292571Y-32100765D01*
X24315671Y-32109030D01*
X24337849Y-32119520D01*
X24358893Y-32132133D01*
X24378598Y-32146747D01*
X24396777Y-32163223D01*
X24413253Y-32181402D01*
X24427867Y-32201107D01*
X24440480Y-32222151D01*
X24450970Y-32244329D01*
X24459235Y-32267429D01*
X24465196Y-32291227D01*
X24468796Y-32315496D01*
X24470000Y-32340000D01*
X24470000Y-33540000D01*
X24468796Y-33564504D01*
X24465196Y-33588773D01*
X24459235Y-33612571D01*
X24450970Y-33635671D01*
X24440480Y-33657849D01*
X24427867Y-33678893D01*
X24413253Y-33698598D01*
X24396777Y-33716777D01*
X24378598Y-33733253D01*
X24358893Y-33747867D01*
X24337849Y-33760480D01*
X24315671Y-33770970D01*
X24292571Y-33779235D01*
X24268773Y-33785196D01*
X24244504Y-33788796D01*
X24220000Y-33790000D01*
X22770000Y-33790000D01*
X22745496Y-33788796D01*
X22721227Y-33785196D01*
X22697429Y-33779235D01*
X22674329Y-33770970D01*
X22652151Y-33760480D01*
X22631107Y-33747867D01*
X22611402Y-33733253D01*
X22593223Y-33716777D01*
X22576747Y-33698598D01*
X22562133Y-33678893D01*
X22549520Y-33657849D01*
X22539030Y-33635671D01*
X22530765Y-33612571D01*
X22524804Y-33588773D01*
X22521204Y-33564504D01*
X22520000Y-33540000D01*
X22520000Y-32340000D01*
X22521204Y-32315496D01*
X22524804Y-32291227D01*
X22530765Y-32267429D01*
X22539030Y-32244329D01*
X22549520Y-32222151D01*
X22562133Y-32201107D01*
X22576747Y-32181402D01*
X22593223Y-32163223D01*
X22611402Y-32146747D01*
X22631107Y-32132133D01*
X22652151Y-32119520D01*
X22674329Y-32109030D01*
X22697429Y-32100765D01*
X22721227Y-32094804D01*
X22745496Y-32091204D01*
X22770000Y-32090000D01*
X24220000Y-32090000D01*
X24244504Y-32091204D01*
G37*
D29*
X81120500Y-45995000D03*
X81120500Y-51795000D03*
D30*
X81120500Y-52395000D03*
X81120500Y-45395000D03*
D31*
X81120500Y-47895000D03*
D32*
X78420500Y-51395000D03*
D33*
X78420500Y-48895000D03*
X78420500Y-49545000D03*
X78420500Y-50195000D03*
X78420500Y-47595000D03*
X78420500Y-48245000D03*
D32*
X78420500Y-46395000D03*
D31*
X81120500Y-49895000D03*
D24*
X78740000Y-89535000D03*
D23*
X77470000Y-89535000D03*
M02*
