G04 #@! TF.GenerationSoftware,KiCad,Pcbnew,(5.1.5)-3*
G04 #@! TF.CreationDate,2020-01-19T11:37:00+01:00*
G04 #@! TF.ProjectId,airMon,6169724d-6f6e-42e6-9b69-6361645f7063,0.2*
G04 #@! TF.SameCoordinates,Original*
G04 #@! TF.FileFunction,Legend,Bot*
G04 #@! TF.FilePolarity,Positive*
%FSLAX46Y46*%
G04 Gerber Fmt 4.6, Leading zero omitted, Abs format (unit mm)*
G04 Created by KiCad (PCBNEW (5.1.5)-3) date 2020-01-19 11:37:00*
%MOMM*%
%LPD*%
G04 APERTURE LIST*
%ADD10C,0.300000*%
%ADD11C,0.200000*%
%ADD12C,0.175000*%
%ADD13C,0.120000*%
%ADD14C,0.010000*%
%ADD15C,0.150000*%
%ADD16C,1.500000*%
%ADD17C,2.800000*%
%ADD18C,0.100000*%
%ADD19O,1.700000X1.950000*%
%ADD20O,1.700000X1.700000*%
%ADD21R,1.700000X1.700000*%
%ADD22C,3.000000*%
%ADD23R,3.000000X3.000000*%
%ADD24O,1.000000X1.000000*%
%ADD25R,1.000000X1.000000*%
%ADD26O,1.300000X0.800000*%
%ADD27O,1.400000X1.400000*%
%ADD28C,1.400000*%
%ADD29O,1.950000X1.700000*%
%ADD30R,1.900000X1.200000*%
%ADD31O,1.900000X1.200000*%
%ADD32R,1.900000X1.500000*%
%ADD33C,1.450000*%
%ADD34R,1.350000X0.381000*%
G04 APERTURE END LIST*
D10*
X67185000Y-107397857D02*
X67113571Y-107255000D01*
X67113571Y-107040714D01*
X67185000Y-106826428D01*
X67327857Y-106683571D01*
X67470714Y-106612142D01*
X67756428Y-106540714D01*
X67970714Y-106540714D01*
X68256428Y-106612142D01*
X68399285Y-106683571D01*
X68542142Y-106826428D01*
X68613571Y-107040714D01*
X68613571Y-107183571D01*
X68542142Y-107397857D01*
X68470714Y-107469285D01*
X67970714Y-107469285D01*
X67970714Y-107183571D01*
X71092142Y-106612142D02*
X71163571Y-106826428D01*
X71163571Y-107183571D01*
X71092142Y-107326428D01*
X71020714Y-107397857D01*
X70877857Y-107469285D01*
X70735000Y-107469285D01*
X70592142Y-107397857D01*
X70520714Y-107326428D01*
X70449285Y-107183571D01*
X70377857Y-106897857D01*
X70306428Y-106755000D01*
X70235000Y-106683571D01*
X70092142Y-106612142D01*
X69949285Y-106612142D01*
X69806428Y-106683571D01*
X69735000Y-106755000D01*
X69663571Y-106897857D01*
X69663571Y-107255000D01*
X69735000Y-107469285D01*
X72213571Y-106112142D02*
X72213571Y-105397857D01*
X72927857Y-105326428D01*
X72856428Y-105397857D01*
X72785000Y-105540714D01*
X72785000Y-105897857D01*
X72856428Y-106040714D01*
X72927857Y-106112142D01*
X73070714Y-106183571D01*
X73427857Y-106183571D01*
X73570714Y-106112142D01*
X73642142Y-106040714D01*
X73713571Y-105897857D01*
X73713571Y-105540714D01*
X73642142Y-105397857D01*
X73570714Y-105326428D01*
X72213571Y-106612142D02*
X73713571Y-107112142D01*
X72213571Y-107612142D01*
X27940000Y-35560000D02*
X27940000Y-36830000D01*
X27940000Y-35560000D02*
X29210000Y-35560000D01*
X28575000Y-36195000D02*
X27940000Y-35560000D01*
X38735000Y-36195000D02*
X28575000Y-36195000D01*
X25002857Y-115248571D02*
X24645714Y-116248571D01*
X24288571Y-115248571D01*
X23431428Y-114748571D02*
X23288571Y-114748571D01*
X23145714Y-114820000D01*
X23074285Y-114891428D01*
X23002857Y-115034285D01*
X22931428Y-115320000D01*
X22931428Y-115677142D01*
X23002857Y-115962857D01*
X23074285Y-116105714D01*
X23145714Y-116177142D01*
X23288571Y-116248571D01*
X23431428Y-116248571D01*
X23574285Y-116177142D01*
X23645714Y-116105714D01*
X23717142Y-115962857D01*
X23788571Y-115677142D01*
X23788571Y-115320000D01*
X23717142Y-115034285D01*
X23645714Y-114891428D01*
X23574285Y-114820000D01*
X23431428Y-114748571D01*
X22288571Y-116105714D02*
X22217142Y-116177142D01*
X22288571Y-116248571D01*
X22360000Y-116177142D01*
X22288571Y-116105714D01*
X22288571Y-116248571D01*
X21645714Y-114891428D02*
X21574285Y-114820000D01*
X21431428Y-114748571D01*
X21074285Y-114748571D01*
X20931428Y-114820000D01*
X20860000Y-114891428D01*
X20788571Y-115034285D01*
X20788571Y-115177142D01*
X20860000Y-115391428D01*
X21717142Y-116248571D01*
X20788571Y-116248571D01*
X42501428Y-32761428D02*
X44001428Y-32761428D01*
X44001428Y-32190000D01*
X43930000Y-32047142D01*
X43858571Y-31975714D01*
X43715714Y-31904285D01*
X43501428Y-31904285D01*
X43358571Y-31975714D01*
X43287142Y-32047142D01*
X43215714Y-32190000D01*
X43215714Y-32761428D01*
X42501428Y-31261428D02*
X44001428Y-31261428D01*
X42930000Y-30761428D01*
X44001428Y-30261428D01*
X42501428Y-30261428D01*
X42572857Y-29618571D02*
X42501428Y-29404285D01*
X42501428Y-29047142D01*
X42572857Y-28904285D01*
X42644285Y-28832857D01*
X42787142Y-28761428D01*
X42930000Y-28761428D01*
X43072857Y-28832857D01*
X43144285Y-28904285D01*
X43215714Y-29047142D01*
X43287142Y-29332857D01*
X43358571Y-29475714D01*
X43430000Y-29547142D01*
X43572857Y-29618571D01*
X43715714Y-29618571D01*
X43858571Y-29547142D01*
X43930000Y-29475714D01*
X44001428Y-29332857D01*
X44001428Y-28975714D01*
X43930000Y-28761428D01*
X44001428Y-28261428D02*
X44001428Y-27261428D01*
X42501428Y-27904285D01*
X44001428Y-26404285D02*
X44001428Y-26261428D01*
X43930000Y-26118571D01*
X43858571Y-26047142D01*
X43715714Y-25975714D01*
X43430000Y-25904285D01*
X43072857Y-25904285D01*
X42787142Y-25975714D01*
X42644285Y-26047142D01*
X42572857Y-26118571D01*
X42501428Y-26261428D01*
X42501428Y-26404285D01*
X42572857Y-26547142D01*
X42644285Y-26618571D01*
X42787142Y-26690000D01*
X43072857Y-26761428D01*
X43430000Y-26761428D01*
X43715714Y-26690000D01*
X43858571Y-26618571D01*
X43930000Y-26547142D01*
X44001428Y-26404285D01*
X44001428Y-24975714D02*
X44001428Y-24832857D01*
X43930000Y-24690000D01*
X43858571Y-24618571D01*
X43715714Y-24547142D01*
X43430000Y-24475714D01*
X43072857Y-24475714D01*
X42787142Y-24547142D01*
X42644285Y-24618571D01*
X42572857Y-24690000D01*
X42501428Y-24832857D01*
X42501428Y-24975714D01*
X42572857Y-25118571D01*
X42644285Y-25190000D01*
X42787142Y-25261428D01*
X43072857Y-25332857D01*
X43430000Y-25332857D01*
X43715714Y-25261428D01*
X43858571Y-25190000D01*
X43930000Y-25118571D01*
X44001428Y-24975714D01*
X44001428Y-23975714D02*
X44001428Y-23047142D01*
X43430000Y-23547142D01*
X43430000Y-23332857D01*
X43358571Y-23190000D01*
X43287142Y-23118571D01*
X43144285Y-23047142D01*
X42787142Y-23047142D01*
X42644285Y-23118571D01*
X42572857Y-23190000D01*
X42501428Y-23332857D01*
X42501428Y-23761428D01*
X42572857Y-23904285D01*
X42644285Y-23975714D01*
X74102857Y-21633571D02*
X74102857Y-20133571D01*
X73745714Y-20133571D01*
X73531428Y-20205000D01*
X73388571Y-20347857D01*
X73317142Y-20490714D01*
X73245714Y-20776428D01*
X73245714Y-20990714D01*
X73317142Y-21276428D01*
X73388571Y-21419285D01*
X73531428Y-21562142D01*
X73745714Y-21633571D01*
X74102857Y-21633571D01*
X72031428Y-21562142D02*
X72174285Y-21633571D01*
X72460000Y-21633571D01*
X72602857Y-21562142D01*
X72674285Y-21419285D01*
X72674285Y-20847857D01*
X72602857Y-20705000D01*
X72460000Y-20633571D01*
X72174285Y-20633571D01*
X72031428Y-20705000D01*
X71960000Y-20847857D01*
X71960000Y-20990714D01*
X72674285Y-21133571D01*
X71388571Y-21562142D02*
X71245714Y-21633571D01*
X70960000Y-21633571D01*
X70817142Y-21562142D01*
X70745714Y-21419285D01*
X70745714Y-21347857D01*
X70817142Y-21205000D01*
X70960000Y-21133571D01*
X71174285Y-21133571D01*
X71317142Y-21062142D01*
X71388571Y-20919285D01*
X71388571Y-20847857D01*
X71317142Y-20705000D01*
X71174285Y-20633571D01*
X70960000Y-20633571D01*
X70817142Y-20705000D01*
X70102857Y-21633571D02*
X70102857Y-20633571D01*
X70102857Y-20133571D02*
X70174285Y-20205000D01*
X70102857Y-20276428D01*
X70031428Y-20205000D01*
X70102857Y-20133571D01*
X70102857Y-20276428D01*
X68745714Y-20633571D02*
X68745714Y-21847857D01*
X68817142Y-21990714D01*
X68888571Y-22062142D01*
X69031428Y-22133571D01*
X69245714Y-22133571D01*
X69388571Y-22062142D01*
X68745714Y-21562142D02*
X68888571Y-21633571D01*
X69174285Y-21633571D01*
X69317142Y-21562142D01*
X69388571Y-21490714D01*
X69460000Y-21347857D01*
X69460000Y-20919285D01*
X69388571Y-20776428D01*
X69317142Y-20705000D01*
X69174285Y-20633571D01*
X68888571Y-20633571D01*
X68745714Y-20705000D01*
X68031428Y-20633571D02*
X68031428Y-21633571D01*
X68031428Y-20776428D02*
X67960000Y-20705000D01*
X67817142Y-20633571D01*
X67602857Y-20633571D01*
X67460000Y-20705000D01*
X67388571Y-20847857D01*
X67388571Y-21633571D01*
X66102857Y-21562142D02*
X66245714Y-21633571D01*
X66531428Y-21633571D01*
X66674285Y-21562142D01*
X66745714Y-21419285D01*
X66745714Y-20847857D01*
X66674285Y-20705000D01*
X66531428Y-20633571D01*
X66245714Y-20633571D01*
X66102857Y-20705000D01*
X66031428Y-20847857D01*
X66031428Y-20990714D01*
X66745714Y-21133571D01*
X64745714Y-21633571D02*
X64745714Y-20133571D01*
X64745714Y-21562142D02*
X64888571Y-21633571D01*
X65174285Y-21633571D01*
X65317142Y-21562142D01*
X65388571Y-21490714D01*
X65460000Y-21347857D01*
X65460000Y-20919285D01*
X65388571Y-20776428D01*
X65317142Y-20705000D01*
X65174285Y-20633571D01*
X64888571Y-20633571D01*
X64745714Y-20705000D01*
X62888571Y-21633571D02*
X62888571Y-20133571D01*
X62888571Y-20705000D02*
X62745714Y-20633571D01*
X62460000Y-20633571D01*
X62317142Y-20705000D01*
X62245714Y-20776428D01*
X62174285Y-20919285D01*
X62174285Y-21347857D01*
X62245714Y-21490714D01*
X62317142Y-21562142D01*
X62460000Y-21633571D01*
X62745714Y-21633571D01*
X62888571Y-21562142D01*
X61674285Y-20633571D02*
X61317142Y-21633571D01*
X60960000Y-20633571D02*
X61317142Y-21633571D01*
X61460000Y-21990714D01*
X61531428Y-22062142D01*
X61674285Y-22133571D01*
X58817142Y-20133571D02*
X58817142Y-21205000D01*
X58888571Y-21419285D01*
X59031428Y-21562142D01*
X59245714Y-21633571D01*
X59388571Y-21633571D01*
X57888571Y-21633571D02*
X58031428Y-21562142D01*
X58102857Y-21490714D01*
X58174285Y-21347857D01*
X58174285Y-20919285D01*
X58102857Y-20776428D01*
X58031428Y-20705000D01*
X57888571Y-20633571D01*
X57674285Y-20633571D01*
X57531428Y-20705000D01*
X57460000Y-20776428D01*
X57388571Y-20919285D01*
X57388571Y-21347857D01*
X57460000Y-21490714D01*
X57531428Y-21562142D01*
X57674285Y-21633571D01*
X57888571Y-21633571D01*
X58031428Y-20133571D02*
X57960000Y-20205000D01*
X58031428Y-20276428D01*
X58102857Y-20205000D01*
X58031428Y-20133571D01*
X58031428Y-20276428D01*
X57460000Y-20133571D02*
X57388571Y-20205000D01*
X57460000Y-20276428D01*
X57531428Y-20205000D01*
X57460000Y-20133571D01*
X57460000Y-20276428D01*
X56745714Y-21633571D02*
X56745714Y-20633571D01*
X56745714Y-20919285D02*
X56674285Y-20776428D01*
X56602857Y-20705000D01*
X56460000Y-20633571D01*
X56317142Y-20633571D01*
X55174285Y-20633571D02*
X55174285Y-21847857D01*
X55245714Y-21990714D01*
X55317142Y-22062142D01*
X55460000Y-22133571D01*
X55674285Y-22133571D01*
X55817142Y-22062142D01*
X55174285Y-21562142D02*
X55317142Y-21633571D01*
X55602857Y-21633571D01*
X55745714Y-21562142D01*
X55817142Y-21490714D01*
X55888571Y-21347857D01*
X55888571Y-20919285D01*
X55817142Y-20776428D01*
X55745714Y-20705000D01*
X55602857Y-20633571D01*
X55317142Y-20633571D01*
X55174285Y-20705000D01*
X52817142Y-20847857D02*
X52602857Y-20919285D01*
X52531428Y-20990714D01*
X52460000Y-21133571D01*
X52460000Y-21347857D01*
X52531428Y-21490714D01*
X52602857Y-21562142D01*
X52745714Y-21633571D01*
X53317142Y-21633571D01*
X53317142Y-20133571D01*
X52817142Y-20133571D01*
X52674285Y-20205000D01*
X52602857Y-20276428D01*
X52531428Y-20419285D01*
X52531428Y-20562142D01*
X52602857Y-20705000D01*
X52674285Y-20776428D01*
X52817142Y-20847857D01*
X53317142Y-20847857D01*
X51174285Y-21633571D02*
X51174285Y-20847857D01*
X51245714Y-20705000D01*
X51388571Y-20633571D01*
X51674285Y-20633571D01*
X51817142Y-20705000D01*
X51174285Y-21562142D02*
X51317142Y-21633571D01*
X51674285Y-21633571D01*
X51817142Y-21562142D01*
X51888571Y-21419285D01*
X51888571Y-21276428D01*
X51817142Y-21133571D01*
X51674285Y-21062142D01*
X51317142Y-21062142D01*
X51174285Y-20990714D01*
X50602857Y-20633571D02*
X50245714Y-21633571D01*
X49888571Y-20633571D02*
X50245714Y-21633571D01*
X50388571Y-21990714D01*
X50460000Y-22062142D01*
X50602857Y-22133571D01*
X48745714Y-21562142D02*
X48888571Y-21633571D01*
X49174285Y-21633571D01*
X49317142Y-21562142D01*
X49388571Y-21419285D01*
X49388571Y-20847857D01*
X49317142Y-20705000D01*
X49174285Y-20633571D01*
X48888571Y-20633571D01*
X48745714Y-20705000D01*
X48674285Y-20847857D01*
X48674285Y-20990714D01*
X49388571Y-21133571D01*
X48031428Y-21633571D02*
X48031428Y-20633571D01*
X48031428Y-20919285D02*
X47960000Y-20776428D01*
X47888571Y-20705000D01*
X47745714Y-20633571D01*
X47602857Y-20633571D01*
X58463571Y-58463571D02*
X58463571Y-56963571D01*
X57749285Y-57463571D02*
X57749285Y-58463571D01*
X57749285Y-57606428D02*
X57677857Y-57535000D01*
X57535000Y-57463571D01*
X57320714Y-57463571D01*
X57177857Y-57535000D01*
X57106428Y-57677857D01*
X57106428Y-58463571D01*
X47490000Y-58233571D02*
X46990000Y-59733571D01*
X46490000Y-58233571D01*
X47347142Y-63115000D02*
X46632857Y-63115000D01*
X47490000Y-63543571D02*
X46990000Y-62043571D01*
X46490000Y-63543571D01*
X59225714Y-85133571D02*
X59725714Y-84419285D01*
X60082857Y-85133571D02*
X60082857Y-83633571D01*
X59511428Y-83633571D01*
X59368571Y-83705000D01*
X59297142Y-83776428D01*
X59225714Y-83919285D01*
X59225714Y-84133571D01*
X59297142Y-84276428D01*
X59368571Y-84347857D01*
X59511428Y-84419285D01*
X60082857Y-84419285D01*
D11*
X37465000Y-112395000D02*
X37465000Y-118110000D01*
X26035000Y-112395000D02*
X26035000Y-118110000D01*
D10*
X72838571Y-47002142D02*
X74052857Y-47002142D01*
X74195714Y-47073571D01*
X74267142Y-47145000D01*
X74338571Y-47287857D01*
X74338571Y-47573571D01*
X74267142Y-47716428D01*
X74195714Y-47787857D01*
X74052857Y-47859285D01*
X72838571Y-47859285D01*
X74267142Y-48502142D02*
X74338571Y-48716428D01*
X74338571Y-49073571D01*
X74267142Y-49216428D01*
X74195714Y-49287857D01*
X74052857Y-49359285D01*
X73910000Y-49359285D01*
X73767142Y-49287857D01*
X73695714Y-49216428D01*
X73624285Y-49073571D01*
X73552857Y-48787857D01*
X73481428Y-48645000D01*
X73410000Y-48573571D01*
X73267142Y-48502142D01*
X73124285Y-48502142D01*
X72981428Y-48573571D01*
X72910000Y-48645000D01*
X72838571Y-48787857D01*
X72838571Y-49145000D01*
X72910000Y-49359285D01*
X73552857Y-50502142D02*
X73624285Y-50716428D01*
X73695714Y-50787857D01*
X73838571Y-50859285D01*
X74052857Y-50859285D01*
X74195714Y-50787857D01*
X74267142Y-50716428D01*
X74338571Y-50573571D01*
X74338571Y-50002142D01*
X72838571Y-50002142D01*
X72838571Y-50502142D01*
X72910000Y-50645000D01*
X72981428Y-50716428D01*
X73124285Y-50787857D01*
X73267142Y-50787857D01*
X73410000Y-50716428D01*
X73481428Y-50645000D01*
X73552857Y-50502142D01*
X73552857Y-50002142D01*
X78207142Y-58380714D02*
X78207142Y-59523571D01*
X78778571Y-58952142D02*
X77635714Y-58952142D01*
X78207142Y-63666428D02*
X78207142Y-64809285D01*
X79828571Y-57737857D02*
X79828571Y-57452142D01*
X79900000Y-57309285D01*
X79971428Y-57237857D01*
X80185714Y-57095000D01*
X80471428Y-57023571D01*
X81042857Y-57023571D01*
X81185714Y-57095000D01*
X81257142Y-57166428D01*
X81328571Y-57309285D01*
X81328571Y-57595000D01*
X81257142Y-57737857D01*
X81185714Y-57809285D01*
X81042857Y-57880714D01*
X80685714Y-57880714D01*
X80542857Y-57809285D01*
X80471428Y-57737857D01*
X80400000Y-57595000D01*
X80400000Y-57309285D01*
X80471428Y-57166428D01*
X80542857Y-57095000D01*
X80685714Y-57023571D01*
X80757142Y-59666428D02*
X80757142Y-60809285D01*
X79828571Y-62523571D02*
X79828571Y-63452142D01*
X80400000Y-62952142D01*
X80400000Y-63166428D01*
X80471428Y-63309285D01*
X80542857Y-63380714D01*
X80685714Y-63452142D01*
X81042857Y-63452142D01*
X81185714Y-63380714D01*
X81257142Y-63309285D01*
X81328571Y-63166428D01*
X81328571Y-62737857D01*
X81257142Y-62595000D01*
X81185714Y-62523571D01*
X79828571Y-64809285D02*
X79828571Y-64095000D01*
X80542857Y-64023571D01*
X80471428Y-64095000D01*
X80400000Y-64237857D01*
X80400000Y-64594999D01*
X80471428Y-64737857D01*
X80542857Y-64809285D01*
X80685714Y-64880714D01*
X81042857Y-64880714D01*
X81185714Y-64809285D01*
X81257142Y-64737857D01*
X81328571Y-64594999D01*
X81328571Y-64237857D01*
X81257142Y-64095000D01*
X81185714Y-64023571D01*
X79828571Y-65309285D02*
X81328571Y-65809285D01*
X79828571Y-66309285D01*
X24520000Y-68130714D02*
X24520000Y-67416428D01*
X24091428Y-68273571D02*
X25591428Y-67773571D01*
X24091428Y-67273571D01*
X25091428Y-66773571D02*
X24091428Y-66773571D01*
X24948571Y-66773571D02*
X25020000Y-66702142D01*
X25091428Y-66559285D01*
X25091428Y-66345000D01*
X25020000Y-66202142D01*
X24877142Y-66130714D01*
X24091428Y-66130714D01*
X24162857Y-64845000D02*
X24091428Y-64987857D01*
X24091428Y-65273571D01*
X24162857Y-65416428D01*
X24305714Y-65487857D01*
X24877142Y-65487857D01*
X25020000Y-65416428D01*
X25091428Y-65273571D01*
X25091428Y-64987857D01*
X25020000Y-64845000D01*
X24877142Y-64773571D01*
X24734285Y-64773571D01*
X24591428Y-65487857D01*
X24091428Y-64130714D02*
X25091428Y-64130714D01*
X24948571Y-64130714D02*
X25020000Y-64059285D01*
X25091428Y-63916428D01*
X25091428Y-63702142D01*
X25020000Y-63559285D01*
X24877142Y-63487857D01*
X24091428Y-63487857D01*
X24877142Y-63487857D02*
X25020000Y-63416428D01*
X25091428Y-63273571D01*
X25091428Y-63059285D01*
X25020000Y-62916428D01*
X24877142Y-62845000D01*
X24091428Y-62845000D01*
X24091428Y-61916428D02*
X24162857Y-62059285D01*
X24234285Y-62130714D01*
X24377142Y-62202142D01*
X24805714Y-62202142D01*
X24948571Y-62130714D01*
X25020000Y-62059285D01*
X25091428Y-61916428D01*
X25091428Y-61702142D01*
X25020000Y-61559285D01*
X24948571Y-61487857D01*
X24805714Y-61416428D01*
X24377142Y-61416428D01*
X24234285Y-61487857D01*
X24162857Y-61559285D01*
X24091428Y-61702142D01*
X24091428Y-61916428D01*
X24091428Y-60773571D02*
X25091428Y-60773571D01*
X24948571Y-60773571D02*
X25020000Y-60702142D01*
X25091428Y-60559285D01*
X25091428Y-60345000D01*
X25020000Y-60202142D01*
X24877142Y-60130714D01*
X24091428Y-60130714D01*
X24877142Y-60130714D02*
X25020000Y-60059285D01*
X25091428Y-59916428D01*
X25091428Y-59702142D01*
X25020000Y-59559285D01*
X24877142Y-59487857D01*
X24091428Y-59487857D01*
X24162857Y-58202142D02*
X24091428Y-58345000D01*
X24091428Y-58630714D01*
X24162857Y-58773571D01*
X24305714Y-58845000D01*
X24877142Y-58845000D01*
X25020000Y-58773571D01*
X25091428Y-58630714D01*
X25091428Y-58345000D01*
X25020000Y-58202142D01*
X24877142Y-58130714D01*
X24734285Y-58130714D01*
X24591428Y-58845000D01*
X25091428Y-57702142D02*
X25091428Y-57130714D01*
X25591428Y-57487857D02*
X24305714Y-57487857D01*
X24162857Y-57416428D01*
X24091428Y-57273571D01*
X24091428Y-57130714D01*
X24162857Y-56059285D02*
X24091428Y-56202142D01*
X24091428Y-56487857D01*
X24162857Y-56630714D01*
X24305714Y-56702142D01*
X24877142Y-56702142D01*
X25020000Y-56630714D01*
X25091428Y-56487857D01*
X25091428Y-56202142D01*
X25020000Y-56059285D01*
X24877142Y-55987857D01*
X24734285Y-55987857D01*
X24591428Y-56702142D01*
X24091428Y-55345000D02*
X25091428Y-55345000D01*
X24805714Y-55345000D02*
X24948571Y-55273571D01*
X25020000Y-55202142D01*
X25091428Y-55059285D01*
X25091428Y-54916428D01*
X23041428Y-64095000D02*
X21541428Y-63595000D01*
X23041428Y-63095000D01*
X21541428Y-61952142D02*
X22327142Y-61952142D01*
X22470000Y-62023571D01*
X22541428Y-62166428D01*
X22541428Y-62452142D01*
X22470000Y-62595000D01*
X21612857Y-61952142D02*
X21541428Y-62095000D01*
X21541428Y-62452142D01*
X21612857Y-62595000D01*
X21755714Y-62666428D01*
X21898571Y-62666428D01*
X22041428Y-62595000D01*
X22112857Y-62452142D01*
X22112857Y-62095000D01*
X22184285Y-61952142D01*
X22541428Y-61237857D02*
X21541428Y-61237857D01*
X22398571Y-61237857D02*
X22470000Y-61166428D01*
X22541428Y-61023571D01*
X22541428Y-60809285D01*
X22470000Y-60666428D01*
X22327142Y-60595000D01*
X21541428Y-60595000D01*
X21612857Y-59309285D02*
X21541428Y-59452142D01*
X21541428Y-59737857D01*
X21612857Y-59880714D01*
X21755714Y-59952142D01*
X22327142Y-59952142D01*
X22470000Y-59880714D01*
X22541428Y-59737857D01*
X22541428Y-59452142D01*
X22470000Y-59309285D01*
X22327142Y-59237857D01*
X22184285Y-59237857D01*
X22041428Y-59952142D01*
X78143571Y-92095000D02*
X77429285Y-91595000D01*
X78143571Y-91237857D02*
X76643571Y-91237857D01*
X76643571Y-91809285D01*
X76715000Y-91952142D01*
X76786428Y-92023571D01*
X76929285Y-92095000D01*
X77143571Y-92095000D01*
X77286428Y-92023571D01*
X77357857Y-91952142D01*
X77429285Y-91809285D01*
X77429285Y-91237857D01*
X78143571Y-93380714D02*
X77357857Y-93380714D01*
X77215000Y-93309285D01*
X77143571Y-93166428D01*
X77143571Y-92880714D01*
X77215000Y-92737857D01*
X78072142Y-93380714D02*
X78143571Y-93237857D01*
X78143571Y-92880714D01*
X78072142Y-92737857D01*
X77929285Y-92666428D01*
X77786428Y-92666428D01*
X77643571Y-92737857D01*
X77572142Y-92880714D01*
X77572142Y-93237857D01*
X77500714Y-93380714D01*
X78143571Y-94095000D02*
X77143571Y-94095000D01*
X76643571Y-94095000D02*
X76715000Y-94023571D01*
X76786428Y-94095000D01*
X76715000Y-94166428D01*
X76643571Y-94095000D01*
X76786428Y-94095000D01*
X77143571Y-94809285D02*
X78143571Y-94809285D01*
X77286428Y-94809285D02*
X77215000Y-94880714D01*
X77143571Y-95023571D01*
X77143571Y-95237857D01*
X77215000Y-95380714D01*
X77357857Y-95452142D01*
X78143571Y-95452142D01*
X79265000Y-91059285D02*
X79193571Y-90916428D01*
X79193571Y-90702142D01*
X79265000Y-90487857D01*
X79407857Y-90345000D01*
X79550714Y-90273571D01*
X79836428Y-90202142D01*
X80050714Y-90202142D01*
X80336428Y-90273571D01*
X80479285Y-90345000D01*
X80622142Y-90487857D01*
X80693571Y-90702142D01*
X80693571Y-90845000D01*
X80622142Y-91059285D01*
X80550714Y-91130714D01*
X80050714Y-91130714D01*
X80050714Y-90845000D01*
X80693571Y-92416428D02*
X79907857Y-92416428D01*
X79765000Y-92345000D01*
X79693571Y-92202142D01*
X79693571Y-91916428D01*
X79765000Y-91773571D01*
X80622142Y-92416428D02*
X80693571Y-92273571D01*
X80693571Y-91916428D01*
X80622142Y-91773571D01*
X80479285Y-91702142D01*
X80336428Y-91702142D01*
X80193571Y-91773571D01*
X80122142Y-91916428D01*
X80122142Y-92273571D01*
X80050714Y-92416428D01*
X79693571Y-93773571D02*
X80693571Y-93773571D01*
X79693571Y-93130714D02*
X80479285Y-93130714D01*
X80622142Y-93202142D01*
X80693571Y-93345000D01*
X80693571Y-93559285D01*
X80622142Y-93702142D01*
X80550714Y-93773571D01*
X79693571Y-95130714D02*
X80907857Y-95130714D01*
X81050714Y-95059285D01*
X81122142Y-94987857D01*
X81193571Y-94845000D01*
X81193571Y-94630714D01*
X81122142Y-94487857D01*
X80622142Y-95130714D02*
X80693571Y-94987857D01*
X80693571Y-94702142D01*
X80622142Y-94559285D01*
X80550714Y-94487857D01*
X80407857Y-94416428D01*
X79979285Y-94416428D01*
X79836428Y-94487857D01*
X79765000Y-94559285D01*
X79693571Y-94702142D01*
X79693571Y-94987857D01*
X79765000Y-95130714D01*
X80622142Y-96416428D02*
X80693571Y-96273571D01*
X80693571Y-95987857D01*
X80622142Y-95845000D01*
X80479285Y-95773571D01*
X79907857Y-95773571D01*
X79765000Y-95845000D01*
X79693571Y-95987857D01*
X79693571Y-96273571D01*
X79765000Y-96416428D01*
X79907857Y-96487857D01*
X80050714Y-96487857D01*
X80193571Y-95773571D01*
D11*
X66040000Y-107950000D02*
X66040000Y-118110000D01*
X74930000Y-107950000D02*
X66040000Y-107950000D01*
X74930000Y-118110000D02*
X74930000Y-107950000D01*
D10*
X67185000Y-115017857D02*
X67113571Y-114875000D01*
X67113571Y-114660714D01*
X67185000Y-114446428D01*
X67327857Y-114303571D01*
X67470714Y-114232142D01*
X67756428Y-114160714D01*
X67970714Y-114160714D01*
X68256428Y-114232142D01*
X68399285Y-114303571D01*
X68542142Y-114446428D01*
X68613571Y-114660714D01*
X68613571Y-114803571D01*
X68542142Y-115017857D01*
X68470714Y-115089285D01*
X67970714Y-115089285D01*
X67970714Y-114803571D01*
X71092142Y-114232142D02*
X71163571Y-114446428D01*
X71163571Y-114803571D01*
X71092142Y-114946428D01*
X71020714Y-115017857D01*
X70877857Y-115089285D01*
X70735000Y-115089285D01*
X70592142Y-115017857D01*
X70520714Y-114946428D01*
X70449285Y-114803571D01*
X70377857Y-114517857D01*
X70306428Y-114375000D01*
X70235000Y-114303571D01*
X70092142Y-114232142D01*
X69949285Y-114232142D01*
X69806428Y-114303571D01*
X69735000Y-114375000D01*
X69663571Y-114517857D01*
X69663571Y-114875000D01*
X69735000Y-115089285D01*
X72213571Y-112875000D02*
X72213571Y-113803571D01*
X72785000Y-113303571D01*
X72785000Y-113517857D01*
X72856428Y-113660714D01*
X72927857Y-113732142D01*
X73070714Y-113803571D01*
X73427857Y-113803571D01*
X73570714Y-113732142D01*
X73642142Y-113660714D01*
X73713571Y-113517857D01*
X73713571Y-113089285D01*
X73642142Y-112946428D01*
X73570714Y-112875000D01*
X72213571Y-114232142D02*
X73713571Y-114732142D01*
X72213571Y-115232142D01*
X77553571Y-110105000D02*
X76839285Y-110105000D01*
X77696428Y-110533571D02*
X77196428Y-109033571D01*
X76696428Y-110533571D01*
X75553571Y-109533571D02*
X75553571Y-110533571D01*
X75910714Y-108962142D02*
X76267857Y-110033571D01*
X75339285Y-110033571D01*
X77553571Y-117090000D02*
X76839285Y-117090000D01*
X77696428Y-117518571D02*
X77196428Y-116018571D01*
X76696428Y-117518571D01*
X76339285Y-116018571D02*
X75410714Y-116018571D01*
X75910714Y-116590000D01*
X75696428Y-116590000D01*
X75553571Y-116661428D01*
X75482142Y-116732857D01*
X75410714Y-116875714D01*
X75410714Y-117232857D01*
X75482142Y-117375714D01*
X75553571Y-117447142D01*
X75696428Y-117518571D01*
X76125000Y-117518571D01*
X76267857Y-117447142D01*
X76339285Y-117375714D01*
X28032142Y-113875000D02*
X28032142Y-115017857D01*
X28603571Y-114446428D02*
X27460714Y-114446428D01*
X31082142Y-112517857D02*
X31153571Y-112732142D01*
X31153571Y-113089285D01*
X31082142Y-113232142D01*
X31010714Y-113303571D01*
X30867857Y-113375000D01*
X30725000Y-113375000D01*
X30582142Y-113303571D01*
X30510714Y-113232142D01*
X30439285Y-113089285D01*
X30367857Y-112803571D01*
X30296428Y-112660714D01*
X30225000Y-112589285D01*
X30082142Y-112517857D01*
X29939285Y-112517857D01*
X29796428Y-112589285D01*
X29725000Y-112660714D01*
X29653571Y-112803571D01*
X29653571Y-113160714D01*
X29725000Y-113375000D01*
X29653571Y-113875000D02*
X31153571Y-114232142D01*
X30082142Y-114517857D01*
X31153571Y-114803571D01*
X29653571Y-115160714D01*
X32275000Y-115017857D02*
X32203571Y-114875000D01*
X32203571Y-114660714D01*
X32275000Y-114446428D01*
X32417857Y-114303571D01*
X32560714Y-114232142D01*
X32846428Y-114160714D01*
X33060714Y-114160714D01*
X33346428Y-114232142D01*
X33489285Y-114303571D01*
X33632142Y-114446428D01*
X33703571Y-114660714D01*
X33703571Y-114803571D01*
X33632142Y-115017857D01*
X33560714Y-115089285D01*
X33060714Y-115089285D01*
X33060714Y-114803571D01*
X34825000Y-115017857D02*
X34753571Y-114875000D01*
X34753571Y-114660714D01*
X34825000Y-114446428D01*
X34967857Y-114303571D01*
X35110714Y-114232142D01*
X35396428Y-114160714D01*
X35610714Y-114160714D01*
X35896428Y-114232142D01*
X36039285Y-114303571D01*
X36182142Y-114446428D01*
X36253571Y-114660714D01*
X36253571Y-114803571D01*
X36182142Y-115017857D01*
X36110714Y-115089285D01*
X35610714Y-115089285D01*
X35610714Y-114803571D01*
X28032142Y-96095000D02*
X28032142Y-97237857D01*
X28603571Y-96666428D02*
X27460714Y-96666428D01*
X29725000Y-97237857D02*
X29653571Y-97095000D01*
X29653571Y-96880714D01*
X29725000Y-96666428D01*
X29867857Y-96523571D01*
X30010714Y-96452142D01*
X30296428Y-96380714D01*
X30510714Y-96380714D01*
X30796428Y-96452142D01*
X30939285Y-96523571D01*
X31082142Y-96666428D01*
X31153571Y-96880714D01*
X31153571Y-97023571D01*
X31082142Y-97237857D01*
X31010714Y-97309285D01*
X30510714Y-97309285D01*
X30510714Y-97023571D01*
X33632142Y-93737857D02*
X33703571Y-93952142D01*
X33703571Y-94309285D01*
X33632142Y-94452142D01*
X33560714Y-94523571D01*
X33417857Y-94595000D01*
X33275000Y-94595000D01*
X33132142Y-94523571D01*
X33060714Y-94452142D01*
X32989285Y-94309285D01*
X32917857Y-94023571D01*
X32846428Y-93880714D01*
X32775000Y-93809285D01*
X32632142Y-93737857D01*
X32489285Y-93737857D01*
X32346428Y-93809285D01*
X32275000Y-93880714D01*
X32203571Y-94023571D01*
X32203571Y-94380714D01*
X32275000Y-94595000D01*
X33560714Y-96095000D02*
X33632142Y-96023571D01*
X33703571Y-95809285D01*
X33703571Y-95666428D01*
X33632142Y-95452142D01*
X33489285Y-95309285D01*
X33346428Y-95237857D01*
X33060714Y-95166428D01*
X32846428Y-95166428D01*
X32560714Y-95237857D01*
X32417857Y-95309285D01*
X32275000Y-95452142D01*
X32203571Y-95666428D01*
X32203571Y-95809285D01*
X32275000Y-96023571D01*
X32346428Y-96095000D01*
X33703571Y-97452142D02*
X33703571Y-96737857D01*
X32203571Y-96737857D01*
X36182142Y-93666428D02*
X36253571Y-93880714D01*
X36253571Y-94237857D01*
X36182142Y-94380714D01*
X36110714Y-94452142D01*
X35967857Y-94523571D01*
X35825000Y-94523571D01*
X35682142Y-94452142D01*
X35610714Y-94380714D01*
X35539285Y-94237857D01*
X35467857Y-93952142D01*
X35396428Y-93809285D01*
X35325000Y-93737857D01*
X35182142Y-93666428D01*
X35039285Y-93666428D01*
X34896428Y-93737857D01*
X34825000Y-93809285D01*
X34753571Y-93952142D01*
X34753571Y-94309285D01*
X34825000Y-94523571D01*
X36253571Y-95166428D02*
X34753571Y-95166428D01*
X34753571Y-95523571D01*
X34825000Y-95737857D01*
X34967857Y-95880714D01*
X35110714Y-95952142D01*
X35396428Y-96023571D01*
X35610714Y-96023571D01*
X35896428Y-95952142D01*
X36039285Y-95880714D01*
X36182142Y-95737857D01*
X36253571Y-95523571D01*
X36253571Y-95166428D01*
X35825000Y-96595000D02*
X35825000Y-97309285D01*
X36253571Y-96452142D02*
X34753571Y-96952142D01*
X36253571Y-97452142D01*
X28032142Y-86912142D02*
X28032142Y-88055000D01*
X28603571Y-87483571D02*
X27460714Y-87483571D01*
X29725000Y-87697857D02*
X29653571Y-87555000D01*
X29653571Y-87340714D01*
X29725000Y-87126428D01*
X29867857Y-86983571D01*
X30010714Y-86912142D01*
X30296428Y-86840714D01*
X30510714Y-86840714D01*
X30796428Y-86912142D01*
X30939285Y-86983571D01*
X31082142Y-87126428D01*
X31153571Y-87340714D01*
X31153571Y-87483571D01*
X31082142Y-87697857D01*
X31010714Y-87769285D01*
X30510714Y-87769285D01*
X30510714Y-87483571D01*
X33632142Y-86840714D02*
X33703571Y-87055000D01*
X33703571Y-87412142D01*
X33632142Y-87555000D01*
X33560714Y-87626428D01*
X33417857Y-87697857D01*
X33275000Y-87697857D01*
X33132142Y-87626428D01*
X33060714Y-87555000D01*
X32989285Y-87412142D01*
X32917857Y-87126428D01*
X32846428Y-86983571D01*
X32775000Y-86912142D01*
X32632142Y-86840714D01*
X32489285Y-86840714D01*
X32346428Y-86912142D01*
X32275000Y-86983571D01*
X32203571Y-87126428D01*
X32203571Y-87483571D01*
X32275000Y-87697857D01*
X33560714Y-89197857D02*
X33632142Y-89126428D01*
X33703571Y-88912142D01*
X33703571Y-88769285D01*
X33632142Y-88555000D01*
X33489285Y-88412142D01*
X33346428Y-88340714D01*
X33060714Y-88269285D01*
X32846428Y-88269285D01*
X32560714Y-88340714D01*
X32417857Y-88412142D01*
X32275000Y-88555000D01*
X32203571Y-88769285D01*
X32203571Y-88912142D01*
X32275000Y-89126428D01*
X32346428Y-89197857D01*
X33703571Y-90555000D02*
X33703571Y-89840714D01*
X32203571Y-89840714D01*
X36182142Y-86840714D02*
X36253571Y-87055000D01*
X36253571Y-87412142D01*
X36182142Y-87555000D01*
X36110714Y-87626428D01*
X35967857Y-87697857D01*
X35825000Y-87697857D01*
X35682142Y-87626428D01*
X35610714Y-87555000D01*
X35539285Y-87412142D01*
X35467857Y-87126428D01*
X35396428Y-86983571D01*
X35325000Y-86912142D01*
X35182142Y-86840714D01*
X35039285Y-86840714D01*
X34896428Y-86912142D01*
X34825000Y-86983571D01*
X34753571Y-87126428D01*
X34753571Y-87483571D01*
X34825000Y-87697857D01*
X36253571Y-88340714D02*
X34753571Y-88340714D01*
X34753571Y-88697857D01*
X34825000Y-88912142D01*
X34967857Y-89055000D01*
X35110714Y-89126428D01*
X35396428Y-89197857D01*
X35610714Y-89197857D01*
X35896428Y-89126428D01*
X36039285Y-89055000D01*
X36182142Y-88912142D01*
X36253571Y-88697857D01*
X36253571Y-88340714D01*
X35825000Y-89769285D02*
X35825000Y-90483571D01*
X36253571Y-89626428D02*
X34753571Y-90126428D01*
X36253571Y-90626428D01*
D11*
X26035000Y-79375000D02*
X26035000Y-112395000D01*
X37465000Y-79375000D02*
X26035000Y-79375000D01*
X37465000Y-112395000D02*
X37465000Y-79375000D01*
X26035000Y-112395000D02*
X37465000Y-112395000D01*
D10*
X56160000Y-81172857D02*
X55660000Y-81172857D01*
X55445714Y-81958571D02*
X56160000Y-81958571D01*
X56160000Y-80458571D01*
X55445714Y-80458571D01*
X54945714Y-80458571D02*
X53945714Y-81958571D01*
X53945714Y-80458571D02*
X54945714Y-81958571D01*
X52231428Y-81958571D02*
X52231428Y-80458571D01*
X51588571Y-80601428D02*
X51517142Y-80530000D01*
X51374285Y-80458571D01*
X51017142Y-80458571D01*
X50874285Y-80530000D01*
X50802857Y-80601428D01*
X50731428Y-80744285D01*
X50731428Y-80887142D01*
X50802857Y-81101428D01*
X51660000Y-81958571D01*
X50731428Y-81958571D01*
X49231428Y-81815714D02*
X49302857Y-81887142D01*
X49517142Y-81958571D01*
X49660000Y-81958571D01*
X49874285Y-81887142D01*
X50017142Y-81744285D01*
X50088571Y-81601428D01*
X50160000Y-81315714D01*
X50160000Y-81101428D01*
X50088571Y-80815714D01*
X50017142Y-80672857D01*
X49874285Y-80530000D01*
X49660000Y-80458571D01*
X49517142Y-80458571D01*
X49302857Y-80530000D01*
X49231428Y-80601428D01*
X48588571Y-81387142D02*
X47445714Y-81387142D01*
X46802857Y-80601428D02*
X46731428Y-80530000D01*
X46588571Y-80458571D01*
X46231428Y-80458571D01*
X46088571Y-80530000D01*
X46017142Y-80601428D01*
X45945714Y-80744285D01*
X45945714Y-80887142D01*
X46017142Y-81101428D01*
X46874285Y-81958571D01*
X45945714Y-81958571D01*
X43445714Y-80458571D02*
X44160000Y-80458571D01*
X44231428Y-81172857D01*
X44160000Y-81101428D01*
X44017142Y-81030000D01*
X43660000Y-81030000D01*
X43517142Y-81101428D01*
X43445714Y-81172857D01*
X43374285Y-81315714D01*
X43374285Y-81672857D01*
X43445714Y-81815714D01*
X43517142Y-81887142D01*
X43660000Y-81958571D01*
X44017142Y-81958571D01*
X44160000Y-81887142D01*
X44231428Y-81815714D01*
X42945714Y-80458571D02*
X42445714Y-81958571D01*
X41945714Y-80458571D01*
X40374285Y-81887142D02*
X40160000Y-81958571D01*
X39802857Y-81958571D01*
X39660000Y-81887142D01*
X39588571Y-81815714D01*
X39517142Y-81672857D01*
X39517142Y-81530000D01*
X39588571Y-81387142D01*
X39660000Y-81315714D01*
X39802857Y-81244285D01*
X40088571Y-81172857D01*
X40231428Y-81101428D01*
X40302857Y-81030000D01*
X40374285Y-80887142D01*
X40374285Y-80744285D01*
X40302857Y-80601428D01*
X40231428Y-80530000D01*
X40088571Y-80458571D01*
X39731428Y-80458571D01*
X39517142Y-80530000D01*
X39017142Y-80958571D02*
X38731428Y-81958571D01*
X38445714Y-81244285D01*
X38160000Y-81958571D01*
X37874285Y-80958571D01*
X52017142Y-84982857D02*
X51517142Y-84982857D01*
X51302857Y-85768571D02*
X52017142Y-85768571D01*
X52017142Y-84268571D01*
X51302857Y-84268571D01*
X50802857Y-84268571D02*
X49802857Y-85768571D01*
X49802857Y-84268571D02*
X50802857Y-85768571D01*
X48088571Y-85768571D02*
X48088571Y-84268571D01*
X47445714Y-84411428D02*
X47374285Y-84340000D01*
X47231428Y-84268571D01*
X46874285Y-84268571D01*
X46731428Y-84340000D01*
X46660000Y-84411428D01*
X46588571Y-84554285D01*
X46588571Y-84697142D01*
X46660000Y-84911428D01*
X47517142Y-85768571D01*
X46588571Y-85768571D01*
X45088571Y-85625714D02*
X45160000Y-85697142D01*
X45374285Y-85768571D01*
X45517142Y-85768571D01*
X45731428Y-85697142D01*
X45874285Y-85554285D01*
X45945714Y-85411428D01*
X46017142Y-85125714D01*
X46017142Y-84911428D01*
X45945714Y-84625714D01*
X45874285Y-84482857D01*
X45731428Y-84340000D01*
X45517142Y-84268571D01*
X45374285Y-84268571D01*
X45160000Y-84340000D01*
X45088571Y-84411428D01*
X44445714Y-85197142D02*
X43302857Y-85197142D01*
X42660000Y-84411428D02*
X42588571Y-84340000D01*
X42445714Y-84268571D01*
X42088571Y-84268571D01*
X41945714Y-84340000D01*
X41874285Y-84411428D01*
X41802857Y-84554285D01*
X41802857Y-84697142D01*
X41874285Y-84911428D01*
X42731428Y-85768571D01*
X41802857Y-85768571D01*
X39302857Y-84268571D02*
X40017142Y-84268571D01*
X40088571Y-84982857D01*
X40017142Y-84911428D01*
X39874285Y-84840000D01*
X39517142Y-84840000D01*
X39374285Y-84911428D01*
X39302857Y-84982857D01*
X39231428Y-85125714D01*
X39231428Y-85482857D01*
X39302857Y-85625714D01*
X39374285Y-85697142D01*
X39517142Y-85768571D01*
X39874285Y-85768571D01*
X40017142Y-85697142D01*
X40088571Y-85625714D01*
X38802857Y-84268571D02*
X38302857Y-85768571D01*
X37802857Y-84268571D01*
X59088571Y-99738571D02*
X59088571Y-98238571D01*
X58445714Y-98381428D02*
X58374285Y-98310000D01*
X58231428Y-98238571D01*
X57874285Y-98238571D01*
X57731428Y-98310000D01*
X57660000Y-98381428D01*
X57588571Y-98524285D01*
X57588571Y-98667142D01*
X57660000Y-98881428D01*
X58517142Y-99738571D01*
X57588571Y-99738571D01*
X56088571Y-99595714D02*
X56160000Y-99667142D01*
X56374285Y-99738571D01*
X56517142Y-99738571D01*
X56731428Y-99667142D01*
X56874285Y-99524285D01*
X56945714Y-99381428D01*
X57017142Y-99095714D01*
X57017142Y-98881428D01*
X56945714Y-98595714D01*
X56874285Y-98452857D01*
X56731428Y-98310000D01*
X56517142Y-98238571D01*
X56374285Y-98238571D01*
X56160000Y-98310000D01*
X56088571Y-98381428D01*
X55445714Y-99167142D02*
X54302857Y-99167142D01*
X53660000Y-98381428D02*
X53588571Y-98310000D01*
X53445714Y-98238571D01*
X53088571Y-98238571D01*
X52945714Y-98310000D01*
X52874285Y-98381428D01*
X52802857Y-98524285D01*
X52802857Y-98667142D01*
X52874285Y-98881428D01*
X53731428Y-99738571D01*
X52802857Y-99738571D01*
X50302857Y-98238571D02*
X51017142Y-98238571D01*
X51088571Y-98952857D01*
X51017142Y-98881428D01*
X50874285Y-98810000D01*
X50517142Y-98810000D01*
X50374285Y-98881428D01*
X50302857Y-98952857D01*
X50231428Y-99095714D01*
X50231428Y-99452857D01*
X50302857Y-99595714D01*
X50374285Y-99667142D01*
X50517142Y-99738571D01*
X50874285Y-99738571D01*
X51017142Y-99667142D01*
X51088571Y-99595714D01*
X49802857Y-98238571D02*
X49302857Y-99738571D01*
X48802857Y-98238571D01*
X47231428Y-99667142D02*
X47017142Y-99738571D01*
X46660000Y-99738571D01*
X46517142Y-99667142D01*
X46445714Y-99595714D01*
X46374285Y-99452857D01*
X46374285Y-99310000D01*
X46445714Y-99167142D01*
X46517142Y-99095714D01*
X46660000Y-99024285D01*
X46945714Y-98952857D01*
X47088571Y-98881428D01*
X47160000Y-98810000D01*
X47231428Y-98667142D01*
X47231428Y-98524285D01*
X47160000Y-98381428D01*
X47088571Y-98310000D01*
X46945714Y-98238571D01*
X46588571Y-98238571D01*
X46374285Y-98310000D01*
X45874285Y-98738571D02*
X45588571Y-99738571D01*
X45302857Y-99024285D01*
X45017142Y-99738571D01*
X44731428Y-98738571D01*
X44160000Y-99738571D02*
X44160000Y-98738571D01*
X44160000Y-98238571D02*
X44231428Y-98310000D01*
X44160000Y-98381428D01*
X44088571Y-98310000D01*
X44160000Y-98238571D01*
X44160000Y-98381428D01*
X43660000Y-98738571D02*
X43088571Y-98738571D01*
X43445714Y-98238571D02*
X43445714Y-99524285D01*
X43374285Y-99667142D01*
X43231428Y-99738571D01*
X43088571Y-99738571D01*
X41945714Y-99667142D02*
X42088571Y-99738571D01*
X42374285Y-99738571D01*
X42517142Y-99667142D01*
X42588571Y-99595714D01*
X42660000Y-99452857D01*
X42660000Y-99024285D01*
X42588571Y-98881428D01*
X42517142Y-98810000D01*
X42374285Y-98738571D01*
X42088571Y-98738571D01*
X41945714Y-98810000D01*
X41302857Y-99738571D02*
X41302857Y-98238571D01*
X40660000Y-99738571D02*
X40660000Y-98952857D01*
X40731428Y-98810000D01*
X40874285Y-98738571D01*
X41088571Y-98738571D01*
X41231428Y-98810000D01*
X41302857Y-98881428D01*
X39374285Y-99667142D02*
X39517142Y-99738571D01*
X39802857Y-99738571D01*
X39945714Y-99667142D01*
X40017142Y-99524285D01*
X40017142Y-98952857D01*
X39945714Y-98810000D01*
X39802857Y-98738571D01*
X39517142Y-98738571D01*
X39374285Y-98810000D01*
X39302857Y-98952857D01*
X39302857Y-99095714D01*
X40017142Y-99238571D01*
X38017142Y-99738571D02*
X38017142Y-98238571D01*
X38017142Y-99667142D02*
X38160000Y-99738571D01*
X38445714Y-99738571D01*
X38588571Y-99667142D01*
X38660000Y-99595714D01*
X38731428Y-99452857D01*
X38731428Y-99024285D01*
X38660000Y-98881428D01*
X38588571Y-98810000D01*
X38445714Y-98738571D01*
X38160000Y-98738571D01*
X38017142Y-98810000D01*
X48088571Y-103548571D02*
X48088571Y-102048571D01*
X47445714Y-102191428D02*
X47374285Y-102120000D01*
X47231428Y-102048571D01*
X46874285Y-102048571D01*
X46731428Y-102120000D01*
X46660000Y-102191428D01*
X46588571Y-102334285D01*
X46588571Y-102477142D01*
X46660000Y-102691428D01*
X47517142Y-103548571D01*
X46588571Y-103548571D01*
X45088571Y-103405714D02*
X45160000Y-103477142D01*
X45374285Y-103548571D01*
X45517142Y-103548571D01*
X45731428Y-103477142D01*
X45874285Y-103334285D01*
X45945714Y-103191428D01*
X46017142Y-102905714D01*
X46017142Y-102691428D01*
X45945714Y-102405714D01*
X45874285Y-102262857D01*
X45731428Y-102120000D01*
X45517142Y-102048571D01*
X45374285Y-102048571D01*
X45160000Y-102120000D01*
X45088571Y-102191428D01*
X44445714Y-102977142D02*
X43302857Y-102977142D01*
X42660000Y-102191428D02*
X42588571Y-102120000D01*
X42445714Y-102048571D01*
X42088571Y-102048571D01*
X41945714Y-102120000D01*
X41874285Y-102191428D01*
X41802857Y-102334285D01*
X41802857Y-102477142D01*
X41874285Y-102691428D01*
X42731428Y-103548571D01*
X41802857Y-103548571D01*
X39302857Y-102048571D02*
X40017142Y-102048571D01*
X40088571Y-102762857D01*
X40017142Y-102691428D01*
X39874285Y-102620000D01*
X39517142Y-102620000D01*
X39374285Y-102691428D01*
X39302857Y-102762857D01*
X39231428Y-102905714D01*
X39231428Y-103262857D01*
X39302857Y-103405714D01*
X39374285Y-103477142D01*
X39517142Y-103548571D01*
X39874285Y-103548571D01*
X40017142Y-103477142D01*
X40088571Y-103405714D01*
X38802857Y-102048571D02*
X38302857Y-103548571D01*
X37802857Y-102048571D01*
X50231428Y-107358571D02*
X50231428Y-105858571D01*
X49588571Y-106001428D02*
X49517142Y-105930000D01*
X49374285Y-105858571D01*
X49017142Y-105858571D01*
X48874285Y-105930000D01*
X48802857Y-106001428D01*
X48731428Y-106144285D01*
X48731428Y-106287142D01*
X48802857Y-106501428D01*
X49660000Y-107358571D01*
X48731428Y-107358571D01*
X47231428Y-107215714D02*
X47302857Y-107287142D01*
X47517142Y-107358571D01*
X47660000Y-107358571D01*
X47874285Y-107287142D01*
X48017142Y-107144285D01*
X48088571Y-107001428D01*
X48160000Y-106715714D01*
X48160000Y-106501428D01*
X48088571Y-106215714D01*
X48017142Y-106072857D01*
X47874285Y-105930000D01*
X47660000Y-105858571D01*
X47517142Y-105858571D01*
X47302857Y-105930000D01*
X47231428Y-106001428D01*
X46588571Y-106787142D02*
X45445714Y-106787142D01*
X43945714Y-107358571D02*
X44802857Y-107358571D01*
X44374285Y-107358571D02*
X44374285Y-105858571D01*
X44517142Y-106072857D01*
X44660000Y-106215714D01*
X44802857Y-106287142D01*
X42302857Y-105858571D02*
X41374285Y-105858571D01*
X41874285Y-106430000D01*
X41660000Y-106430000D01*
X41517142Y-106501428D01*
X41445714Y-106572857D01*
X41374285Y-106715714D01*
X41374285Y-107072857D01*
X41445714Y-107215714D01*
X41517142Y-107287142D01*
X41660000Y-107358571D01*
X42088571Y-107358571D01*
X42231428Y-107287142D01*
X42302857Y-107215714D01*
X40731428Y-107215714D02*
X40660000Y-107287142D01*
X40731428Y-107358571D01*
X40802857Y-107287142D01*
X40731428Y-107215714D01*
X40731428Y-107358571D01*
X40160000Y-105858571D02*
X39231428Y-105858571D01*
X39731428Y-106430000D01*
X39517142Y-106430000D01*
X39374285Y-106501428D01*
X39302857Y-106572857D01*
X39231428Y-106715714D01*
X39231428Y-107072857D01*
X39302857Y-107215714D01*
X39374285Y-107287142D01*
X39517142Y-107358571D01*
X39945714Y-107358571D01*
X40088571Y-107287142D01*
X40160000Y-107215714D01*
X38802857Y-105858571D02*
X38302857Y-107358571D01*
X37802857Y-105858571D01*
X61231428Y-111168571D02*
X61231428Y-109668571D01*
X60588571Y-109811428D02*
X60517142Y-109740000D01*
X60374285Y-109668571D01*
X60017142Y-109668571D01*
X59874285Y-109740000D01*
X59802857Y-109811428D01*
X59731428Y-109954285D01*
X59731428Y-110097142D01*
X59802857Y-110311428D01*
X60660000Y-111168571D01*
X59731428Y-111168571D01*
X58231428Y-111025714D02*
X58302857Y-111097142D01*
X58517142Y-111168571D01*
X58660000Y-111168571D01*
X58874285Y-111097142D01*
X59017142Y-110954285D01*
X59088571Y-110811428D01*
X59160000Y-110525714D01*
X59160000Y-110311428D01*
X59088571Y-110025714D01*
X59017142Y-109882857D01*
X58874285Y-109740000D01*
X58660000Y-109668571D01*
X58517142Y-109668571D01*
X58302857Y-109740000D01*
X58231428Y-109811428D01*
X57588571Y-110597142D02*
X56445714Y-110597142D01*
X54945714Y-111168571D02*
X55802857Y-111168571D01*
X55374285Y-111168571D02*
X55374285Y-109668571D01*
X55517142Y-109882857D01*
X55660000Y-110025714D01*
X55802857Y-110097142D01*
X53302857Y-109668571D02*
X52374285Y-109668571D01*
X52874285Y-110240000D01*
X52660000Y-110240000D01*
X52517142Y-110311428D01*
X52445714Y-110382857D01*
X52374285Y-110525714D01*
X52374285Y-110882857D01*
X52445714Y-111025714D01*
X52517142Y-111097142D01*
X52660000Y-111168571D01*
X53088571Y-111168571D01*
X53231428Y-111097142D01*
X53302857Y-111025714D01*
X51731428Y-111025714D02*
X51660000Y-111097142D01*
X51731428Y-111168571D01*
X51802857Y-111097142D01*
X51731428Y-111025714D01*
X51731428Y-111168571D01*
X51160000Y-109668571D02*
X50231428Y-109668571D01*
X50731428Y-110240000D01*
X50517142Y-110240000D01*
X50374285Y-110311428D01*
X50302857Y-110382857D01*
X50231428Y-110525714D01*
X50231428Y-110882857D01*
X50302857Y-111025714D01*
X50374285Y-111097142D01*
X50517142Y-111168571D01*
X50945714Y-111168571D01*
X51088571Y-111097142D01*
X51160000Y-111025714D01*
X49802857Y-109668571D02*
X49302857Y-111168571D01*
X48802857Y-109668571D01*
X47231428Y-111097142D02*
X47017142Y-111168571D01*
X46660000Y-111168571D01*
X46517142Y-111097142D01*
X46445714Y-111025714D01*
X46374285Y-110882857D01*
X46374285Y-110740000D01*
X46445714Y-110597142D01*
X46517142Y-110525714D01*
X46660000Y-110454285D01*
X46945714Y-110382857D01*
X47088571Y-110311428D01*
X47160000Y-110240000D01*
X47231428Y-110097142D01*
X47231428Y-109954285D01*
X47160000Y-109811428D01*
X47088571Y-109740000D01*
X46945714Y-109668571D01*
X46588571Y-109668571D01*
X46374285Y-109740000D01*
X45874285Y-110168571D02*
X45588571Y-111168571D01*
X45302857Y-110454285D01*
X45017142Y-111168571D01*
X44731428Y-110168571D01*
X44160000Y-111168571D02*
X44160000Y-110168571D01*
X44160000Y-109668571D02*
X44231428Y-109740000D01*
X44160000Y-109811428D01*
X44088571Y-109740000D01*
X44160000Y-109668571D01*
X44160000Y-109811428D01*
X43660000Y-110168571D02*
X43088571Y-110168571D01*
X43445714Y-109668571D02*
X43445714Y-110954285D01*
X43374285Y-111097142D01*
X43231428Y-111168571D01*
X43088571Y-111168571D01*
X41945714Y-111097142D02*
X42088571Y-111168571D01*
X42374285Y-111168571D01*
X42517142Y-111097142D01*
X42588571Y-111025714D01*
X42660000Y-110882857D01*
X42660000Y-110454285D01*
X42588571Y-110311428D01*
X42517142Y-110240000D01*
X42374285Y-110168571D01*
X42088571Y-110168571D01*
X41945714Y-110240000D01*
X41302857Y-111168571D02*
X41302857Y-109668571D01*
X40660000Y-111168571D02*
X40660000Y-110382857D01*
X40731428Y-110240000D01*
X40874285Y-110168571D01*
X41088571Y-110168571D01*
X41231428Y-110240000D01*
X41302857Y-110311428D01*
X39374285Y-111097142D02*
X39517142Y-111168571D01*
X39802857Y-111168571D01*
X39945714Y-111097142D01*
X40017142Y-110954285D01*
X40017142Y-110382857D01*
X39945714Y-110240000D01*
X39802857Y-110168571D01*
X39517142Y-110168571D01*
X39374285Y-110240000D01*
X39302857Y-110382857D01*
X39302857Y-110525714D01*
X40017142Y-110668571D01*
X38017142Y-111168571D02*
X38017142Y-109668571D01*
X38017142Y-111097142D02*
X38160000Y-111168571D01*
X38445714Y-111168571D01*
X38588571Y-111097142D01*
X38660000Y-111025714D01*
X38731428Y-110882857D01*
X38731428Y-110454285D01*
X38660000Y-110311428D01*
X38588571Y-110240000D01*
X38445714Y-110168571D01*
X38160000Y-110168571D01*
X38017142Y-110240000D01*
X57874285Y-117447142D02*
X57660000Y-117518571D01*
X57302857Y-117518571D01*
X57160000Y-117447142D01*
X57088571Y-117375714D01*
X57017142Y-117232857D01*
X57017142Y-117090000D01*
X57088571Y-116947142D01*
X57160000Y-116875714D01*
X57302857Y-116804285D01*
X57588571Y-116732857D01*
X57731428Y-116661428D01*
X57802857Y-116590000D01*
X57874285Y-116447142D01*
X57874285Y-116304285D01*
X57802857Y-116161428D01*
X57731428Y-116090000D01*
X57588571Y-116018571D01*
X57231428Y-116018571D01*
X57017142Y-116090000D01*
X56517142Y-116018571D02*
X56160000Y-117518571D01*
X55874285Y-116447142D01*
X55588571Y-117518571D01*
X55231428Y-116018571D01*
X54660000Y-116947142D02*
X53517142Y-116947142D01*
X52302857Y-116732857D02*
X52088571Y-116804285D01*
X52017142Y-116875714D01*
X51945714Y-117018571D01*
X51945714Y-117232857D01*
X52017142Y-117375714D01*
X52088571Y-117447142D01*
X52231428Y-117518571D01*
X52802857Y-117518571D01*
X52802857Y-116018571D01*
X52302857Y-116018571D01*
X52160000Y-116090000D01*
X52088571Y-116161428D01*
X52017142Y-116304285D01*
X52017142Y-116447142D01*
X52088571Y-116590000D01*
X52160000Y-116661428D01*
X52302857Y-116732857D01*
X52802857Y-116732857D01*
X51302857Y-116018571D02*
X51302857Y-117232857D01*
X51231428Y-117375714D01*
X51160000Y-117447142D01*
X51017142Y-117518571D01*
X50731428Y-117518571D01*
X50588571Y-117447142D01*
X50517142Y-117375714D01*
X50445714Y-117232857D01*
X50445714Y-116018571D01*
X49802857Y-117447142D02*
X49588571Y-117518571D01*
X49231428Y-117518571D01*
X49088571Y-117447142D01*
X49017142Y-117375714D01*
X48945714Y-117232857D01*
X48945714Y-117090000D01*
X49017142Y-116947142D01*
X49088571Y-116875714D01*
X49231428Y-116804285D01*
X49517142Y-116732857D01*
X49660000Y-116661428D01*
X49731428Y-116590000D01*
X49802857Y-116447142D01*
X49802857Y-116304285D01*
X49731428Y-116161428D01*
X49660000Y-116090000D01*
X49517142Y-116018571D01*
X49160000Y-116018571D01*
X48945714Y-116090000D01*
X47231428Y-117447142D02*
X47017142Y-117518571D01*
X46660000Y-117518571D01*
X46517142Y-117447142D01*
X46445714Y-117375714D01*
X46374285Y-117232857D01*
X46374285Y-117090000D01*
X46445714Y-116947142D01*
X46517142Y-116875714D01*
X46660000Y-116804285D01*
X46945714Y-116732857D01*
X47088571Y-116661428D01*
X47160000Y-116590000D01*
X47231428Y-116447142D01*
X47231428Y-116304285D01*
X47160000Y-116161428D01*
X47088571Y-116090000D01*
X46945714Y-116018571D01*
X46588571Y-116018571D01*
X46374285Y-116090000D01*
X45874285Y-116518571D02*
X45588571Y-117518571D01*
X45302857Y-116804285D01*
X45017142Y-117518571D01*
X44731428Y-116518571D01*
X44160000Y-117518571D02*
X44160000Y-116518571D01*
X44160000Y-116018571D02*
X44231428Y-116090000D01*
X44160000Y-116161428D01*
X44088571Y-116090000D01*
X44160000Y-116018571D01*
X44160000Y-116161428D01*
X43660000Y-116518571D02*
X43088571Y-116518571D01*
X43445714Y-116018571D02*
X43445714Y-117304285D01*
X43374285Y-117447142D01*
X43231428Y-117518571D01*
X43088571Y-117518571D01*
X41945714Y-117447142D02*
X42088571Y-117518571D01*
X42374285Y-117518571D01*
X42517142Y-117447142D01*
X42588571Y-117375714D01*
X42660000Y-117232857D01*
X42660000Y-116804285D01*
X42588571Y-116661428D01*
X42517142Y-116590000D01*
X42374285Y-116518571D01*
X42088571Y-116518571D01*
X41945714Y-116590000D01*
X41302857Y-117518571D02*
X41302857Y-116018571D01*
X40660000Y-117518571D02*
X40660000Y-116732857D01*
X40731428Y-116590000D01*
X40874285Y-116518571D01*
X41088571Y-116518571D01*
X41231428Y-116590000D01*
X41302857Y-116661428D01*
X39374285Y-117447142D02*
X39517142Y-117518571D01*
X39802857Y-117518571D01*
X39945714Y-117447142D01*
X40017142Y-117304285D01*
X40017142Y-116732857D01*
X39945714Y-116590000D01*
X39802857Y-116518571D01*
X39517142Y-116518571D01*
X39374285Y-116590000D01*
X39302857Y-116732857D01*
X39302857Y-116875714D01*
X40017142Y-117018571D01*
X38017142Y-117518571D02*
X38017142Y-116018571D01*
X38017142Y-117447142D02*
X38160000Y-117518571D01*
X38445714Y-117518571D01*
X38588571Y-117447142D01*
X38660000Y-117375714D01*
X38731428Y-117232857D01*
X38731428Y-116804285D01*
X38660000Y-116661428D01*
X38588571Y-116590000D01*
X38445714Y-116518571D01*
X38160000Y-116518571D01*
X38017142Y-116590000D01*
X46585000Y-71640000D02*
X46727857Y-71568571D01*
X46942142Y-71568571D01*
X47156428Y-71640000D01*
X47299285Y-71782857D01*
X47370714Y-71925714D01*
X47442142Y-72211428D01*
X47442142Y-72425714D01*
X47370714Y-72711428D01*
X47299285Y-72854285D01*
X47156428Y-72997142D01*
X46942142Y-73068571D01*
X46799285Y-73068571D01*
X46585000Y-72997142D01*
X46513571Y-72925714D01*
X46513571Y-72425714D01*
X46799285Y-72425714D01*
X45870714Y-73068571D02*
X45870714Y-71568571D01*
X45299285Y-71568571D01*
X45156428Y-71640000D01*
X45085000Y-71711428D01*
X45013571Y-71854285D01*
X45013571Y-72068571D01*
X45085000Y-72211428D01*
X45156428Y-72282857D01*
X45299285Y-72354285D01*
X45870714Y-72354285D01*
X44370714Y-73068571D02*
X44370714Y-71568571D01*
X43370714Y-71568571D02*
X43085000Y-71568571D01*
X42942142Y-71640000D01*
X42799285Y-71782857D01*
X42727857Y-72068571D01*
X42727857Y-72568571D01*
X42799285Y-72854285D01*
X42942142Y-72997142D01*
X43085000Y-73068571D01*
X43370714Y-73068571D01*
X43513571Y-72997142D01*
X43656428Y-72854285D01*
X43727857Y-72568571D01*
X43727857Y-72068571D01*
X43656428Y-71782857D01*
X43513571Y-71640000D01*
X43370714Y-71568571D01*
D12*
X25645416Y-37806666D02*
X25978750Y-37806666D01*
X26012083Y-38140000D01*
X25978750Y-38106666D01*
X25912083Y-38073333D01*
X25745416Y-38073333D01*
X25678750Y-38106666D01*
X25645416Y-38140000D01*
X25612083Y-38206666D01*
X25612083Y-38373333D01*
X25645416Y-38440000D01*
X25678750Y-38473333D01*
X25745416Y-38506666D01*
X25912083Y-38506666D01*
X25978750Y-38473333D01*
X26012083Y-38440000D01*
X25412083Y-37806666D02*
X25178750Y-38506666D01*
X24945416Y-37806666D01*
X25045416Y-39065000D02*
X25112083Y-39031666D01*
X25212083Y-39031666D01*
X25312083Y-39065000D01*
X25378750Y-39131666D01*
X25412083Y-39198333D01*
X25445416Y-39331666D01*
X25445416Y-39431666D01*
X25412083Y-39565000D01*
X25378750Y-39631666D01*
X25312083Y-39698333D01*
X25212083Y-39731666D01*
X25145416Y-39731666D01*
X25045416Y-39698333D01*
X25012083Y-39665000D01*
X25012083Y-39431666D01*
X25145416Y-39431666D01*
X25678750Y-42181666D02*
X25912083Y-41848333D01*
X26078750Y-42181666D02*
X26078750Y-41481666D01*
X25812083Y-41481666D01*
X25745416Y-41515000D01*
X25712083Y-41548333D01*
X25678750Y-41615000D01*
X25678750Y-41715000D01*
X25712083Y-41781666D01*
X25745416Y-41815000D01*
X25812083Y-41848333D01*
X26078750Y-41848333D01*
X25445416Y-41481666D02*
X24978750Y-42181666D01*
X24978750Y-41481666D02*
X25445416Y-42181666D01*
X26012083Y-42706666D02*
X25612083Y-42706666D01*
X25812083Y-43406666D02*
X25812083Y-42706666D01*
X25445416Y-42706666D02*
X24978750Y-43406666D01*
X24978750Y-42706666D02*
X25445416Y-43406666D01*
D10*
X24721428Y-53609285D02*
X26221428Y-53609285D01*
X26221428Y-53037857D01*
X26150000Y-52895000D01*
X26078571Y-52823571D01*
X25935714Y-52752142D01*
X25721428Y-52752142D01*
X25578571Y-52823571D01*
X25507142Y-52895000D01*
X25435714Y-53037857D01*
X25435714Y-53609285D01*
X24721428Y-52109285D02*
X26221428Y-52109285D01*
X25150000Y-51609285D01*
X26221428Y-51109285D01*
X24721428Y-51109285D01*
X24792857Y-50466428D02*
X24721428Y-50252142D01*
X24721428Y-49895000D01*
X24792857Y-49752142D01*
X24864285Y-49680714D01*
X25007142Y-49609285D01*
X25150000Y-49609285D01*
X25292857Y-49680714D01*
X25364285Y-49752142D01*
X25435714Y-49895000D01*
X25507142Y-50180714D01*
X25578571Y-50323571D01*
X25650000Y-50395000D01*
X25792857Y-50466428D01*
X25935714Y-50466428D01*
X26078571Y-50395000D01*
X26150000Y-50323571D01*
X26221428Y-50180714D01*
X26221428Y-49823571D01*
X26150000Y-49609285D01*
X24721428Y-49109285D02*
X25721428Y-48323571D01*
X25721428Y-49109285D02*
X24721428Y-48323571D01*
X26221428Y-47466428D02*
X26221428Y-47323571D01*
X26150000Y-47180714D01*
X26078571Y-47109285D01*
X25935714Y-47037857D01*
X25650000Y-46966428D01*
X25292857Y-46966428D01*
X25007142Y-47037857D01*
X24864285Y-47109285D01*
X24792857Y-47180714D01*
X24721428Y-47323571D01*
X24721428Y-47466428D01*
X24792857Y-47609285D01*
X24864285Y-47680714D01*
X25007142Y-47752142D01*
X25292857Y-47823571D01*
X25650000Y-47823571D01*
X25935714Y-47752142D01*
X26078571Y-47680714D01*
X26150000Y-47609285D01*
X26221428Y-47466428D01*
X26221428Y-46037857D02*
X26221428Y-45895000D01*
X26150000Y-45752142D01*
X26078571Y-45680714D01*
X25935714Y-45609285D01*
X25650000Y-45537857D01*
X25292857Y-45537857D01*
X25007142Y-45609285D01*
X24864285Y-45680714D01*
X24792857Y-45752142D01*
X24721428Y-45895000D01*
X24721428Y-46037857D01*
X24792857Y-46180714D01*
X24864285Y-46252142D01*
X25007142Y-46323571D01*
X25292857Y-46395000D01*
X25650000Y-46395000D01*
X25935714Y-46323571D01*
X26078571Y-46252142D01*
X26150000Y-46180714D01*
X26221428Y-46037857D01*
X26221428Y-45037857D02*
X26221428Y-44109285D01*
X25650000Y-44609285D01*
X25650000Y-44395000D01*
X25578571Y-44252142D01*
X25507142Y-44180714D01*
X25364285Y-44109285D01*
X25007142Y-44109285D01*
X24864285Y-44180714D01*
X24792857Y-44252142D01*
X24721428Y-44395000D01*
X24721428Y-44823571D01*
X24792857Y-44966428D01*
X24864285Y-45037857D01*
D11*
X38735000Y-22860000D02*
X38735000Y-32385000D01*
X36195000Y-30480000D02*
X41275000Y-30480000D01*
X36195000Y-28575000D02*
X41275000Y-28575000D01*
X36195000Y-26670000D02*
X41275000Y-26670000D01*
X36195000Y-24765000D02*
X41275000Y-24765000D01*
X41275000Y-32385000D02*
X36195000Y-32385000D01*
X41275000Y-22860000D02*
X41275000Y-32385000D01*
X36195000Y-22860000D02*
X41275000Y-22860000D01*
X36195000Y-32385000D02*
X36195000Y-22860000D01*
X40218666Y-23338666D02*
X40752000Y-23338666D01*
X40805333Y-23872000D01*
X40752000Y-23818666D01*
X40645333Y-23765333D01*
X40378666Y-23765333D01*
X40272000Y-23818666D01*
X40218666Y-23872000D01*
X40165333Y-23978666D01*
X40165333Y-24245333D01*
X40218666Y-24352000D01*
X40272000Y-24405333D01*
X40378666Y-24458666D01*
X40645333Y-24458666D01*
X40752000Y-24405333D01*
X40805333Y-24352000D01*
X39845333Y-23338666D02*
X39472000Y-24458666D01*
X39098666Y-23338666D01*
X39258666Y-25272000D02*
X39365333Y-25218666D01*
X39525333Y-25218666D01*
X39685333Y-25272000D01*
X39792000Y-25378666D01*
X39845333Y-25485333D01*
X39898666Y-25698666D01*
X39898666Y-25858666D01*
X39845333Y-26072000D01*
X39792000Y-26178666D01*
X39685333Y-26285333D01*
X39525333Y-26338666D01*
X39418666Y-26338666D01*
X39258666Y-26285333D01*
X39205333Y-26232000D01*
X39205333Y-25858666D01*
X39418666Y-25858666D01*
X37805000Y-23312666D02*
X38338333Y-23312666D01*
X38391666Y-23846000D01*
X38338333Y-23792666D01*
X38231666Y-23739333D01*
X37965000Y-23739333D01*
X37858333Y-23792666D01*
X37805000Y-23846000D01*
X37751666Y-23952666D01*
X37751666Y-24219333D01*
X37805000Y-24326000D01*
X37858333Y-24379333D01*
X37965000Y-24432666D01*
X38231666Y-24432666D01*
X38338333Y-24379333D01*
X38391666Y-24326000D01*
X37431666Y-23312666D02*
X37058333Y-24432666D01*
X36685000Y-23312666D01*
X37751666Y-25246000D02*
X37858333Y-25192666D01*
X38018333Y-25192666D01*
X38178333Y-25246000D01*
X38285000Y-25352666D01*
X38338333Y-25459333D01*
X38391666Y-25672666D01*
X38391666Y-25832666D01*
X38338333Y-26046000D01*
X38285000Y-26152666D01*
X38178333Y-26259333D01*
X38018333Y-26312666D01*
X37911666Y-26312666D01*
X37751666Y-26259333D01*
X37698333Y-26206000D01*
X37698333Y-25832666D01*
X37911666Y-25832666D01*
X37698333Y-30072666D02*
X38071666Y-29539333D01*
X38338333Y-30072666D02*
X38338333Y-28952666D01*
X37911666Y-28952666D01*
X37805000Y-29006000D01*
X37751666Y-29059333D01*
X37698333Y-29166000D01*
X37698333Y-29326000D01*
X37751666Y-29432666D01*
X37805000Y-29486000D01*
X37911666Y-29539333D01*
X38338333Y-29539333D01*
X37325000Y-28952666D02*
X36578333Y-30072666D01*
X36578333Y-28952666D02*
X37325000Y-30072666D01*
X38498333Y-30832666D02*
X37858333Y-30832666D01*
X38178333Y-31952666D02*
X38178333Y-30832666D01*
X37591666Y-30832666D02*
X36845000Y-31952666D01*
X36845000Y-30832666D02*
X37591666Y-31952666D01*
D10*
X38325714Y-35532142D02*
X38111428Y-35603571D01*
X37754285Y-35603571D01*
X37611428Y-35532142D01*
X37540000Y-35460714D01*
X37468571Y-35317857D01*
X37468571Y-35175000D01*
X37540000Y-35032142D01*
X37611428Y-34960714D01*
X37754285Y-34889285D01*
X38040000Y-34817857D01*
X38182857Y-34746428D01*
X38254285Y-34675000D01*
X38325714Y-34532142D01*
X38325714Y-34389285D01*
X38254285Y-34246428D01*
X38182857Y-34175000D01*
X38040000Y-34103571D01*
X37682857Y-34103571D01*
X37468571Y-34175000D01*
X36825714Y-35603571D02*
X36825714Y-34103571D01*
X36468571Y-34103571D01*
X36254285Y-34175000D01*
X36111428Y-34317857D01*
X36040000Y-34460714D01*
X35968571Y-34746428D01*
X35968571Y-34960714D01*
X36040000Y-35246428D01*
X36111428Y-35389285D01*
X36254285Y-35532142D01*
X36468571Y-35603571D01*
X36825714Y-35603571D01*
X35397142Y-35532142D02*
X35182857Y-35603571D01*
X34825714Y-35603571D01*
X34682857Y-35532142D01*
X34611428Y-35460714D01*
X34540000Y-35317857D01*
X34540000Y-35175000D01*
X34611428Y-35032142D01*
X34682857Y-34960714D01*
X34825714Y-34889285D01*
X35111428Y-34817857D01*
X35254285Y-34746428D01*
X35325714Y-34675000D01*
X35397142Y-34532142D01*
X35397142Y-34389285D01*
X35325714Y-34246428D01*
X35254285Y-34175000D01*
X35111428Y-34103571D01*
X34754285Y-34103571D01*
X34540000Y-34175000D01*
X33611428Y-34103571D02*
X33468571Y-34103571D01*
X33325714Y-34175000D01*
X33254285Y-34246428D01*
X33182857Y-34389285D01*
X33111428Y-34675000D01*
X33111428Y-35032142D01*
X33182857Y-35317857D01*
X33254285Y-35460714D01*
X33325714Y-35532142D01*
X33468571Y-35603571D01*
X33611428Y-35603571D01*
X33754285Y-35532142D01*
X33825714Y-35460714D01*
X33897142Y-35317857D01*
X33968571Y-35032142D01*
X33968571Y-34675000D01*
X33897142Y-34389285D01*
X33825714Y-34246428D01*
X33754285Y-34175000D01*
X33611428Y-34103571D01*
X31682857Y-35603571D02*
X32540000Y-35603571D01*
X32111428Y-35603571D02*
X32111428Y-34103571D01*
X32254285Y-34317857D01*
X32397142Y-34460714D01*
X32540000Y-34532142D01*
X30254285Y-35603571D02*
X31111428Y-35603571D01*
X30682857Y-35603571D02*
X30682857Y-34103571D01*
X30825714Y-34317857D01*
X30968571Y-34460714D01*
X31111428Y-34532142D01*
X29746000Y-22018571D02*
X28817428Y-22018571D01*
X29317428Y-22590000D01*
X29103142Y-22590000D01*
X28960285Y-22661428D01*
X28888857Y-22732857D01*
X28817428Y-22875714D01*
X28817428Y-23232857D01*
X28888857Y-23375714D01*
X28960285Y-23447142D01*
X29103142Y-23518571D01*
X29531714Y-23518571D01*
X29674571Y-23447142D01*
X29746000Y-23375714D01*
X28388857Y-22018571D02*
X27888857Y-23518571D01*
X27388857Y-22018571D01*
X28888857Y-24568571D02*
X29603142Y-24568571D01*
X29674571Y-25282857D01*
X29603142Y-25211428D01*
X29460285Y-25140000D01*
X29103142Y-25140000D01*
X28960285Y-25211428D01*
X28888857Y-25282857D01*
X28817428Y-25425714D01*
X28817428Y-25782857D01*
X28888857Y-25925714D01*
X28960285Y-25997142D01*
X29103142Y-26068571D01*
X29460285Y-26068571D01*
X29603142Y-25997142D01*
X29674571Y-25925714D01*
X28388857Y-24568571D02*
X27888857Y-26068571D01*
X27388857Y-24568571D01*
X27603142Y-27190000D02*
X27746000Y-27118571D01*
X27960285Y-27118571D01*
X28174571Y-27190000D01*
X28317428Y-27332857D01*
X28388857Y-27475714D01*
X28460285Y-27761428D01*
X28460285Y-27975714D01*
X28388857Y-28261428D01*
X28317428Y-28404285D01*
X28174571Y-28547142D01*
X27960285Y-28618571D01*
X27817428Y-28618571D01*
X27603142Y-28547142D01*
X27531714Y-28475714D01*
X27531714Y-27975714D01*
X27817428Y-27975714D01*
X28960285Y-31168571D02*
X29460285Y-30454285D01*
X29817428Y-31168571D02*
X29817428Y-29668571D01*
X29246000Y-29668571D01*
X29103142Y-29740000D01*
X29031714Y-29811428D01*
X28960285Y-29954285D01*
X28960285Y-30168571D01*
X29031714Y-30311428D01*
X29103142Y-30382857D01*
X29246000Y-30454285D01*
X29817428Y-30454285D01*
X28460285Y-29668571D02*
X27460285Y-31168571D01*
X27460285Y-29668571D02*
X28460285Y-31168571D01*
X29674571Y-32218571D02*
X28817428Y-32218571D01*
X29246000Y-33718571D02*
X29246000Y-32218571D01*
X28460285Y-32218571D02*
X27460285Y-33718571D01*
X27460285Y-32218571D02*
X28460285Y-33718571D01*
X47831428Y-46652142D02*
X47831428Y-45795000D01*
X46331428Y-46223571D02*
X47831428Y-46223571D01*
X47831428Y-45437857D02*
X46331428Y-44437857D01*
X47831428Y-44437857D02*
X46331428Y-45437857D01*
X43781428Y-45580714D02*
X44495714Y-46080714D01*
X43781428Y-46437857D02*
X45281428Y-46437857D01*
X45281428Y-45866428D01*
X45210000Y-45723571D01*
X45138571Y-45652142D01*
X44995714Y-45580714D01*
X44781428Y-45580714D01*
X44638571Y-45652142D01*
X44567142Y-45723571D01*
X44495714Y-45866428D01*
X44495714Y-46437857D01*
X45281428Y-45080714D02*
X43781428Y-44080714D01*
X45281428Y-44080714D02*
X43781428Y-45080714D01*
X42660000Y-45652142D02*
X42731428Y-45795000D01*
X42731428Y-46009285D01*
X42660000Y-46223571D01*
X42517142Y-46366428D01*
X42374285Y-46437857D01*
X42088571Y-46509285D01*
X41874285Y-46509285D01*
X41588571Y-46437857D01*
X41445714Y-46366428D01*
X41302857Y-46223571D01*
X41231428Y-46009285D01*
X41231428Y-45866428D01*
X41302857Y-45652142D01*
X41374285Y-45580714D01*
X41874285Y-45580714D01*
X41874285Y-45866428D01*
X37631428Y-45723571D02*
X37631428Y-46437857D01*
X36917142Y-46509285D01*
X36988571Y-46437857D01*
X37060000Y-46295000D01*
X37060000Y-45937857D01*
X36988571Y-45795000D01*
X36917142Y-45723571D01*
X36774285Y-45652142D01*
X36417142Y-45652142D01*
X36274285Y-45723571D01*
X36202857Y-45795000D01*
X36131428Y-45937857D01*
X36131428Y-46295000D01*
X36202857Y-46437857D01*
X36274285Y-46509285D01*
X37631428Y-45223571D02*
X36131428Y-44723571D01*
X37631428Y-44223571D01*
X58010714Y-51407142D02*
X57796428Y-51478571D01*
X57439285Y-51478571D01*
X57296428Y-51407142D01*
X57225000Y-51335714D01*
X57153571Y-51192857D01*
X57153571Y-51050000D01*
X57225000Y-50907142D01*
X57296428Y-50835714D01*
X57439285Y-50764285D01*
X57725000Y-50692857D01*
X57867857Y-50621428D01*
X57939285Y-50550000D01*
X58010714Y-50407142D01*
X58010714Y-50264285D01*
X57939285Y-50121428D01*
X57867857Y-50050000D01*
X57725000Y-49978571D01*
X57367857Y-49978571D01*
X57153571Y-50050000D01*
X56510714Y-51478571D02*
X56510714Y-49978571D01*
X56153571Y-49978571D01*
X55939285Y-50050000D01*
X55796428Y-50192857D01*
X55725000Y-50335714D01*
X55653571Y-50621428D01*
X55653571Y-50835714D01*
X55725000Y-51121428D01*
X55796428Y-51264285D01*
X55939285Y-51407142D01*
X56153571Y-51478571D01*
X56510714Y-51478571D01*
X55082142Y-51407142D02*
X54867857Y-51478571D01*
X54510714Y-51478571D01*
X54367857Y-51407142D01*
X54296428Y-51335714D01*
X54225000Y-51192857D01*
X54225000Y-51050000D01*
X54296428Y-50907142D01*
X54367857Y-50835714D01*
X54510714Y-50764285D01*
X54796428Y-50692857D01*
X54939285Y-50621428D01*
X55010714Y-50550000D01*
X55082142Y-50407142D01*
X55082142Y-50264285D01*
X55010714Y-50121428D01*
X54939285Y-50050000D01*
X54796428Y-49978571D01*
X54439285Y-49978571D01*
X54225000Y-50050000D01*
X53296428Y-49978571D02*
X53153571Y-49978571D01*
X53010714Y-50050000D01*
X52939285Y-50121428D01*
X52867857Y-50264285D01*
X52796428Y-50550000D01*
X52796428Y-50907142D01*
X52867857Y-51192857D01*
X52939285Y-51335714D01*
X53010714Y-51407142D01*
X53153571Y-51478571D01*
X53296428Y-51478571D01*
X53439285Y-51407142D01*
X53510714Y-51335714D01*
X53582142Y-51192857D01*
X53653571Y-50907142D01*
X53653571Y-50550000D01*
X53582142Y-50264285D01*
X53510714Y-50121428D01*
X53439285Y-50050000D01*
X53296428Y-49978571D01*
X51367857Y-51478571D02*
X52225000Y-51478571D01*
X51796428Y-51478571D02*
X51796428Y-49978571D01*
X51939285Y-50192857D01*
X52082142Y-50335714D01*
X52225000Y-50407142D01*
X49939285Y-51478571D02*
X50796428Y-51478571D01*
X50367857Y-51478571D02*
X50367857Y-49978571D01*
X50510714Y-50192857D01*
X50653571Y-50335714D01*
X50796428Y-50407142D01*
D13*
X61580000Y-98810000D02*
X61580000Y-86610000D01*
X74580000Y-98810000D02*
X70080000Y-98810000D01*
X74580000Y-86610000D02*
X74580000Y-98810000D01*
X70080000Y-86610000D02*
X74580000Y-86610000D01*
X67080000Y-98810000D02*
X61580000Y-98810000D01*
X67080000Y-86610000D02*
X61580000Y-86610000D01*
X29190000Y-53260000D02*
X29190000Y-47290000D01*
X29190000Y-47290000D02*
X49310000Y-47290000D01*
X49310000Y-47290000D02*
X49310000Y-53260000D01*
X49310000Y-53260000D02*
X29190000Y-53260000D01*
X32500000Y-53250000D02*
X32500000Y-52500000D01*
X32500000Y-52500000D02*
X46000000Y-52500000D01*
X46000000Y-52500000D02*
X46000000Y-53250000D01*
X46000000Y-53250000D02*
X32500000Y-53250000D01*
X29200000Y-53250000D02*
X29200000Y-52500000D01*
X29200000Y-52500000D02*
X31000000Y-52500000D01*
X31000000Y-52500000D02*
X31000000Y-53250000D01*
X31000000Y-53250000D02*
X29200000Y-53250000D01*
X47500000Y-53250000D02*
X47500000Y-52500000D01*
X47500000Y-52500000D02*
X49300000Y-52500000D01*
X49300000Y-52500000D02*
X49300000Y-53250000D01*
X49300000Y-53250000D02*
X47500000Y-53250000D01*
X29200000Y-51000000D02*
X29950000Y-51000000D01*
X29950000Y-51000000D02*
X29950000Y-48050000D01*
X29950000Y-48050000D02*
X39250000Y-48050000D01*
X49300000Y-51000000D02*
X48550000Y-51000000D01*
X48550000Y-51000000D02*
X48550000Y-48050000D01*
X48550000Y-48050000D02*
X39250000Y-48050000D01*
X30150000Y-53550000D02*
X28900000Y-53550000D01*
X28900000Y-53550000D02*
X28900000Y-52300000D01*
X66100000Y-85785000D02*
X66100000Y-84455000D01*
X64770000Y-85785000D02*
X66100000Y-85785000D01*
X63500000Y-85785000D02*
X63500000Y-83125000D01*
X63500000Y-83125000D02*
X60900000Y-83125000D01*
X63500000Y-85785000D02*
X60900000Y-85785000D01*
X60900000Y-85785000D02*
X60900000Y-83125000D01*
X74295000Y-55880000D02*
X74295000Y-66040000D01*
X66675000Y-55880000D02*
X74295000Y-55880000D01*
X66675000Y-66040000D02*
X66675000Y-55880000D01*
X74295000Y-66040000D02*
X66675000Y-66040000D01*
X73025000Y-66040000D02*
X73025000Y-55880000D01*
X31203200Y-20755200D02*
G75*
G03X31203200Y-20755200I-200000J0D01*
G01*
X36003200Y-29755200D02*
X30003200Y-29755200D01*
X36003200Y-19755200D02*
X36003200Y-29755200D01*
X30003200Y-19755200D02*
X36003200Y-19755200D01*
X30003200Y-19755200D02*
X30003200Y-29755200D01*
X27153200Y-53605200D02*
X27153200Y-16905200D01*
X74853200Y-53605200D02*
X74853200Y-16905200D01*
X74853200Y-53605200D02*
X27153200Y-53605200D01*
X74853200Y-16905200D02*
X27153200Y-16905200D01*
X34520000Y-67695000D02*
X40020000Y-67695000D01*
X34520000Y-55495000D02*
X40020000Y-55495000D01*
X31520000Y-67695000D02*
X27020000Y-67695000D01*
X27020000Y-67695000D02*
X27020000Y-55495000D01*
X27020000Y-55495000D02*
X31520000Y-55495000D01*
X40020000Y-55495000D02*
X40020000Y-67695000D01*
X32385000Y-21465000D02*
X31435000Y-21465000D01*
X31435000Y-21465000D02*
X31435000Y-22225000D01*
X31625000Y-22860000D02*
X31435000Y-22860000D01*
X31435000Y-22860000D02*
X31435000Y-28000000D01*
X33347470Y-28000000D02*
X32692530Y-28000000D01*
X34605000Y-28000000D02*
X33962530Y-28000000D01*
X32077470Y-28000000D02*
X31435000Y-28000000D01*
X34605000Y-21530000D02*
X34605000Y-28000000D01*
X33347470Y-21530000D02*
X33145000Y-21530000D01*
X34605000Y-21530000D02*
X33962530Y-21530000D01*
X20700000Y-36490000D02*
X24120000Y-36490000D01*
X24120000Y-36490000D02*
X24120000Y-48460000D01*
X24120000Y-48460000D02*
X20700000Y-48460000D01*
X20700000Y-48460000D02*
X20700000Y-36490000D01*
X23610000Y-42475000D02*
X23610000Y-37000000D01*
X23610000Y-37000000D02*
X22860000Y-37000000D01*
X22860000Y-37000000D02*
X22860000Y-36800000D01*
X22860000Y-36800000D02*
X22060000Y-36800000D01*
X22060000Y-36800000D02*
X22060000Y-37000000D01*
X22060000Y-37000000D02*
X21210000Y-37000000D01*
X21210000Y-37000000D02*
X21210000Y-42475000D01*
X23610000Y-42475000D02*
X23610000Y-47950000D01*
X23610000Y-47950000D02*
X22860000Y-47950000D01*
X22860000Y-47950000D02*
X22860000Y-48150000D01*
X22860000Y-48150000D02*
X22060000Y-48150000D01*
X22060000Y-48150000D02*
X22060000Y-47950000D01*
X22060000Y-47950000D02*
X21210000Y-47950000D01*
X21210000Y-47950000D02*
X21210000Y-42475000D01*
X24410000Y-36200000D02*
X23410000Y-36200000D01*
X24410000Y-36200000D02*
X24410000Y-37200000D01*
X26610000Y-116840000D02*
X26610000Y-118170000D01*
X26610000Y-118170000D02*
X27940000Y-118170000D01*
X29210000Y-118170000D02*
X36890000Y-118170000D01*
X36890000Y-115510000D02*
X36890000Y-118170000D01*
X29210000Y-115510000D02*
X36890000Y-115510000D01*
X29210000Y-115510000D02*
X29210000Y-118170000D01*
X26610000Y-106680000D02*
X26610000Y-108010000D01*
X26610000Y-108010000D02*
X27940000Y-108010000D01*
X29210000Y-108010000D02*
X36890000Y-108010000D01*
X36890000Y-105350000D02*
X36890000Y-108010000D01*
X29210000Y-105350000D02*
X36890000Y-105350000D01*
X29210000Y-105350000D02*
X29210000Y-108010000D01*
X26610000Y-110490000D02*
X26610000Y-111820000D01*
X26610000Y-111820000D02*
X27940000Y-111820000D01*
X29210000Y-111820000D02*
X36890000Y-111820000D01*
X36890000Y-109160000D02*
X36890000Y-111820000D01*
X29210000Y-109160000D02*
X36890000Y-109160000D01*
X29210000Y-109160000D02*
X29210000Y-111820000D01*
X26610000Y-102870000D02*
X26610000Y-104200000D01*
X26610000Y-104200000D02*
X27940000Y-104200000D01*
X29210000Y-104200000D02*
X36890000Y-104200000D01*
X36890000Y-101540000D02*
X36890000Y-104200000D01*
X29210000Y-101540000D02*
X36890000Y-101540000D01*
X29210000Y-101540000D02*
X29210000Y-104200000D01*
X26610000Y-99060000D02*
X26610000Y-100390000D01*
X26610000Y-100390000D02*
X27940000Y-100390000D01*
X29210000Y-100390000D02*
X36890000Y-100390000D01*
X36890000Y-97730000D02*
X36890000Y-100390000D01*
X29210000Y-97730000D02*
X36890000Y-97730000D01*
X29210000Y-97730000D02*
X29210000Y-100390000D01*
X26610000Y-85090000D02*
X26610000Y-86420000D01*
X26610000Y-86420000D02*
X27940000Y-86420000D01*
X29210000Y-86420000D02*
X36890000Y-86420000D01*
X36890000Y-83760000D02*
X36890000Y-86420000D01*
X29210000Y-83760000D02*
X36890000Y-83760000D01*
X29210000Y-83760000D02*
X29210000Y-86420000D01*
X26610000Y-81280000D02*
X26610000Y-82610000D01*
X26610000Y-82610000D02*
X27940000Y-82610000D01*
X29210000Y-82610000D02*
X36890000Y-82610000D01*
X36890000Y-79950000D02*
X36890000Y-82610000D01*
X29210000Y-79950000D02*
X36890000Y-79950000D01*
X29210000Y-79950000D02*
X29210000Y-82610000D01*
X74355000Y-116840000D02*
X74355000Y-115510000D01*
X74355000Y-115510000D02*
X73025000Y-115510000D01*
X71755000Y-115510000D02*
X66615000Y-115510000D01*
X66615000Y-118170000D02*
X66615000Y-115510000D01*
X71755000Y-118170000D02*
X66615000Y-118170000D01*
X71755000Y-118170000D02*
X71755000Y-115510000D01*
X74355000Y-109855000D02*
X74355000Y-108525000D01*
X74355000Y-108525000D02*
X73025000Y-108525000D01*
X71755000Y-108525000D02*
X66615000Y-108525000D01*
X66615000Y-111185000D02*
X66615000Y-108525000D01*
X71755000Y-111185000D02*
X66615000Y-111185000D01*
X71755000Y-111185000D02*
X71755000Y-108525000D01*
X40580000Y-57725000D02*
X40580000Y-59055000D01*
X41910000Y-57725000D02*
X40580000Y-57725000D01*
X43180000Y-57725000D02*
X43180000Y-60385000D01*
X43180000Y-60385000D02*
X45780000Y-60385000D01*
X43180000Y-57725000D02*
X45780000Y-57725000D01*
X45780000Y-57725000D02*
X45780000Y-60385000D01*
X40580000Y-61535000D02*
X40580000Y-62865000D01*
X41910000Y-61535000D02*
X40580000Y-61535000D01*
X43180000Y-61535000D02*
X43180000Y-64195000D01*
X43180000Y-64195000D02*
X45780000Y-64195000D01*
X43180000Y-61535000D02*
X45780000Y-61535000D01*
X45780000Y-61535000D02*
X45780000Y-64195000D01*
X78740000Y-32690000D02*
X78740000Y-33640000D01*
X78740000Y-38430000D02*
X78740000Y-37480000D01*
X79660000Y-33640000D02*
X79660000Y-37480000D01*
X77820000Y-33640000D02*
X79660000Y-33640000D01*
X77820000Y-37480000D02*
X77820000Y-33640000D01*
X79660000Y-37480000D02*
X77820000Y-37480000D01*
X76835000Y-25070000D02*
X76835000Y-26020000D01*
X76835000Y-30810000D02*
X76835000Y-29860000D01*
X77755000Y-26020000D02*
X77755000Y-29860000D01*
X75915000Y-26020000D02*
X77755000Y-26020000D01*
X75915000Y-29860000D02*
X75915000Y-26020000D01*
X77755000Y-29860000D02*
X75915000Y-29860000D01*
X26610000Y-69790000D02*
X26610000Y-71120000D01*
X27940000Y-69790000D02*
X26610000Y-69790000D01*
X26610000Y-72390000D02*
X26610000Y-74990000D01*
X29210000Y-72390000D02*
X26610000Y-72390000D01*
X29210000Y-69790000D02*
X29210000Y-72390000D01*
X26610000Y-74990000D02*
X41970000Y-74990000D01*
X29210000Y-69790000D02*
X41970000Y-69790000D01*
X41970000Y-69790000D02*
X41970000Y-74990000D01*
X56455000Y-64830000D02*
X57785000Y-64830000D01*
X56455000Y-63500000D02*
X56455000Y-64830000D01*
X56455000Y-62230000D02*
X59115000Y-62230000D01*
X59115000Y-62230000D02*
X59115000Y-59630000D01*
X56455000Y-62230000D02*
X56455000Y-59630000D01*
X56455000Y-59630000D02*
X59115000Y-59630000D01*
X26245000Y-35790000D02*
X24995000Y-35790000D01*
X26245000Y-34540000D02*
X26245000Y-35790000D01*
X20745000Y-21140000D02*
X20745000Y-27940000D01*
X23695000Y-21140000D02*
X20745000Y-21140000D01*
X23695000Y-20390000D02*
X23695000Y-21140000D01*
X20745000Y-34740000D02*
X20745000Y-27940000D01*
X23695000Y-34740000D02*
X20745000Y-34740000D01*
X23695000Y-35490000D02*
X23695000Y-34740000D01*
X25945000Y-20390000D02*
X25945000Y-22190000D01*
X25195000Y-20390000D02*
X25945000Y-20390000D01*
X25195000Y-22190000D02*
X25195000Y-20390000D01*
X25945000Y-22190000D02*
X25195000Y-22190000D01*
X25945000Y-33690000D02*
X25945000Y-35490000D01*
X25195000Y-33690000D02*
X25945000Y-33690000D01*
X25195000Y-35490000D02*
X25195000Y-33690000D01*
X25945000Y-35490000D02*
X25195000Y-35490000D01*
X25945000Y-23690000D02*
X25945000Y-32190000D01*
X25195000Y-23690000D02*
X25945000Y-23690000D01*
X25195000Y-32190000D02*
X25195000Y-23690000D01*
X25945000Y-32190000D02*
X25195000Y-32190000D01*
X25955000Y-20380000D02*
X25955000Y-35500000D01*
X19985000Y-20380000D02*
X25955000Y-20380000D01*
X19985000Y-35500000D02*
X19985000Y-20380000D01*
X25955000Y-35500000D02*
X19985000Y-35500000D01*
D14*
G36*
X66809036Y-24973576D02*
G01*
X66733487Y-25374322D01*
X66175959Y-25604154D01*
X65841535Y-25376748D01*
X65747878Y-25313431D01*
X65663218Y-25256896D01*
X65591505Y-25209727D01*
X65536689Y-25174502D01*
X65502720Y-25153805D01*
X65493470Y-25149342D01*
X65476805Y-25160820D01*
X65441194Y-25192551D01*
X65390629Y-25240483D01*
X65329100Y-25300562D01*
X65260601Y-25368733D01*
X65189121Y-25440945D01*
X65118653Y-25513142D01*
X65053189Y-25581273D01*
X64996720Y-25641283D01*
X64953237Y-25689119D01*
X64926732Y-25720727D01*
X64920395Y-25731305D01*
X64929514Y-25750806D01*
X64955080Y-25793531D01*
X64994403Y-25855298D01*
X65044797Y-25931931D01*
X65103573Y-26019248D01*
X65137632Y-26069052D01*
X65199711Y-26159993D01*
X65254874Y-26242059D01*
X65300446Y-26311163D01*
X65333750Y-26363222D01*
X65352110Y-26394150D01*
X65354869Y-26400650D01*
X65348615Y-26419121D01*
X65331566Y-26462172D01*
X65306297Y-26523749D01*
X65275378Y-26597799D01*
X65241382Y-26678270D01*
X65206882Y-26759107D01*
X65174449Y-26834258D01*
X65146657Y-26897671D01*
X65126077Y-26943293D01*
X65115281Y-26965069D01*
X65114644Y-26965926D01*
X65097693Y-26970084D01*
X65052549Y-26979361D01*
X64983890Y-26992844D01*
X64896398Y-27009621D01*
X64794750Y-27028781D01*
X64735444Y-27039830D01*
X64626828Y-27060510D01*
X64528723Y-27080189D01*
X64446091Y-27097789D01*
X64383896Y-27112233D01*
X64347101Y-27122446D01*
X64339704Y-27125686D01*
X64332460Y-27147617D01*
X64326615Y-27197147D01*
X64322165Y-27268485D01*
X64319107Y-27355839D01*
X64317435Y-27453417D01*
X64317147Y-27555426D01*
X64318239Y-27656075D01*
X64320706Y-27749572D01*
X64324544Y-27830125D01*
X64329750Y-27891942D01*
X64336319Y-27929230D01*
X64340259Y-27936993D01*
X64363812Y-27946298D01*
X64413718Y-27959600D01*
X64483377Y-27975337D01*
X64566187Y-27991946D01*
X64595095Y-27997319D01*
X64734469Y-28022848D01*
X64844564Y-28043408D01*
X64929018Y-28059815D01*
X64991470Y-28072887D01*
X65035556Y-28083441D01*
X65064915Y-28092294D01*
X65083185Y-28100263D01*
X65094002Y-28108165D01*
X65095515Y-28109727D01*
X65110623Y-28134886D01*
X65133671Y-28183850D01*
X65162356Y-28250621D01*
X65194378Y-28329205D01*
X65227435Y-28413607D01*
X65259227Y-28497830D01*
X65287451Y-28575879D01*
X65309807Y-28641759D01*
X65323993Y-28689473D01*
X65327707Y-28713027D01*
X65327398Y-28713852D01*
X65314811Y-28733104D01*
X65286256Y-28775463D01*
X65244733Y-28836521D01*
X65193244Y-28911868D01*
X65134789Y-28997096D01*
X65118142Y-29021315D01*
X65058785Y-29109123D01*
X65006553Y-29189238D01*
X64964292Y-29257062D01*
X64934847Y-29307993D01*
X64921063Y-29337431D01*
X64920395Y-29341048D01*
X64931976Y-29360057D01*
X64963976Y-29397714D01*
X65012282Y-29449973D01*
X65072780Y-29512786D01*
X65141356Y-29582106D01*
X65213896Y-29653885D01*
X65286288Y-29724077D01*
X65354416Y-29788635D01*
X65414168Y-29843510D01*
X65461429Y-29884656D01*
X65492087Y-29908026D01*
X65500568Y-29911842D01*
X65520309Y-29902855D01*
X65560726Y-29878616D01*
X65615237Y-29843209D01*
X65657177Y-29814711D01*
X65733171Y-29762418D01*
X65823166Y-29700845D01*
X65913436Y-29639370D01*
X65961968Y-29606469D01*
X66126238Y-29495359D01*
X66264131Y-29569916D01*
X66326951Y-29602578D01*
X66380371Y-29627966D01*
X66416516Y-29642446D01*
X66425716Y-29644460D01*
X66436779Y-29629584D01*
X66458606Y-29587547D01*
X66489566Y-29522227D01*
X66528030Y-29437500D01*
X66572368Y-29337245D01*
X66620953Y-29225339D01*
X66672154Y-29105659D01*
X66724341Y-28982084D01*
X66775887Y-28858491D01*
X66825160Y-28738757D01*
X66870533Y-28626759D01*
X66910375Y-28526377D01*
X66943058Y-28441486D01*
X66966951Y-28375965D01*
X66980426Y-28333690D01*
X66982594Y-28319172D01*
X66965417Y-28300653D01*
X66927810Y-28270590D01*
X66877634Y-28235232D01*
X66873422Y-28232434D01*
X66743736Y-28128625D01*
X66639166Y-28007515D01*
X66560619Y-27872976D01*
X66509001Y-27728882D01*
X66485218Y-27579105D01*
X66490177Y-27427517D01*
X66524783Y-27277992D01*
X66589943Y-27134400D01*
X66609114Y-27102984D01*
X66708826Y-26976125D01*
X66826623Y-26874255D01*
X66958429Y-26797904D01*
X67100167Y-26747602D01*
X67247758Y-26723879D01*
X67397127Y-26727265D01*
X67544197Y-26758288D01*
X67684889Y-26817480D01*
X67815127Y-26905369D01*
X67855414Y-26941042D01*
X67957945Y-27052706D01*
X68032659Y-27170257D01*
X68083910Y-27302020D01*
X68112454Y-27432507D01*
X68119500Y-27579216D01*
X68096004Y-27726653D01*
X68044351Y-27869834D01*
X67966929Y-28003777D01*
X67866125Y-28123498D01*
X67744324Y-28224014D01*
X67728316Y-28234609D01*
X67677602Y-28269306D01*
X67639050Y-28299370D01*
X67620619Y-28318565D01*
X67620351Y-28319172D01*
X67624308Y-28339936D01*
X67639993Y-28387062D01*
X67665778Y-28456673D01*
X67700031Y-28544893D01*
X67741123Y-28647844D01*
X67787424Y-28761650D01*
X67837304Y-28882435D01*
X67889133Y-29006321D01*
X67941281Y-29129432D01*
X67992118Y-29247891D01*
X68040013Y-29357823D01*
X68083338Y-29455349D01*
X68120462Y-29536593D01*
X68149756Y-29597679D01*
X68169588Y-29634730D01*
X68177574Y-29644460D01*
X68201979Y-29636883D01*
X68247642Y-29616560D01*
X68306690Y-29587125D01*
X68339160Y-29569916D01*
X68477053Y-29495359D01*
X68641323Y-29606469D01*
X68725179Y-29663390D01*
X68816987Y-29726030D01*
X68903020Y-29785011D01*
X68946113Y-29814711D01*
X69006723Y-29855410D01*
X69058045Y-29887663D01*
X69093385Y-29907384D01*
X69104863Y-29911554D01*
X69121570Y-29900307D01*
X69158546Y-29868911D01*
X69212205Y-29820624D01*
X69278962Y-29758708D01*
X69355234Y-29686421D01*
X69403473Y-29640008D01*
X69487867Y-29557087D01*
X69560803Y-29482920D01*
X69619331Y-29420680D01*
X69660503Y-29373541D01*
X69681372Y-29344673D01*
X69683374Y-29338815D01*
X69674083Y-29316532D01*
X69648409Y-29271477D01*
X69609200Y-29208211D01*
X69559303Y-29131295D01*
X69501567Y-29045292D01*
X69485149Y-29021315D01*
X69425323Y-28934170D01*
X69371650Y-28855710D01*
X69327130Y-28790345D01*
X69294765Y-28742484D01*
X69277555Y-28716535D01*
X69275893Y-28713852D01*
X69278379Y-28693172D01*
X69291577Y-28647704D01*
X69313186Y-28583444D01*
X69340904Y-28506387D01*
X69372430Y-28422529D01*
X69405463Y-28337866D01*
X69437701Y-28258392D01*
X69466843Y-28190104D01*
X69490588Y-28138997D01*
X69506635Y-28111067D01*
X69507775Y-28109727D01*
X69517588Y-28101745D01*
X69534161Y-28093851D01*
X69561132Y-28085229D01*
X69602139Y-28075062D01*
X69660820Y-28062531D01*
X69740813Y-28046821D01*
X69845755Y-28027113D01*
X69979285Y-28002592D01*
X70008196Y-27997319D01*
X70093882Y-27980764D01*
X70168582Y-27964569D01*
X70225694Y-27950296D01*
X70258617Y-27939508D01*
X70263031Y-27936993D01*
X70270306Y-27914696D01*
X70276219Y-27864869D01*
X70280766Y-27793304D01*
X70283945Y-27705793D01*
X70285749Y-27608128D01*
X70286177Y-27506101D01*
X70285223Y-27405503D01*
X70282884Y-27312127D01*
X70279156Y-27231765D01*
X70274034Y-27170209D01*
X70267516Y-27133250D01*
X70263586Y-27125686D01*
X70241708Y-27118056D01*
X70191891Y-27105642D01*
X70119097Y-27089522D01*
X70028289Y-27070773D01*
X69924431Y-27050471D01*
X69867846Y-27039830D01*
X69760486Y-27019760D01*
X69664746Y-27001580D01*
X69585306Y-26986199D01*
X69526846Y-26974531D01*
X69494045Y-26967488D01*
X69488646Y-26965926D01*
X69479522Y-26948322D01*
X69460235Y-26905918D01*
X69433355Y-26844772D01*
X69401454Y-26770943D01*
X69367102Y-26690489D01*
X69332871Y-26609468D01*
X69301331Y-26533937D01*
X69275054Y-26469955D01*
X69256611Y-26423580D01*
X69248571Y-26400869D01*
X69248422Y-26399876D01*
X69257535Y-26381961D01*
X69283086Y-26340733D01*
X69322388Y-26280291D01*
X69372757Y-26204731D01*
X69431506Y-26118152D01*
X69465658Y-26068421D01*
X69527890Y-25977236D01*
X69583164Y-25894449D01*
X69628782Y-25824249D01*
X69662048Y-25770824D01*
X69680264Y-25738361D01*
X69682895Y-25731083D01*
X69671586Y-25714145D01*
X69640319Y-25677978D01*
X69593090Y-25626635D01*
X69533892Y-25564167D01*
X69466719Y-25494626D01*
X69395566Y-25422065D01*
X69324426Y-25350535D01*
X69257293Y-25284087D01*
X69198161Y-25226774D01*
X69151025Y-25182647D01*
X69119877Y-25155759D01*
X69109457Y-25149342D01*
X69092491Y-25158365D01*
X69051911Y-25183715D01*
X68991663Y-25222810D01*
X68915693Y-25273071D01*
X68827946Y-25331917D01*
X68761756Y-25376748D01*
X68427332Y-25604154D01*
X68148567Y-25489238D01*
X67869803Y-25374322D01*
X67794254Y-24973576D01*
X67718706Y-24572829D01*
X66884585Y-24572829D01*
X66809036Y-24973576D01*
G37*
X66809036Y-24973576D02*
X66733487Y-25374322D01*
X66175959Y-25604154D01*
X65841535Y-25376748D01*
X65747878Y-25313431D01*
X65663218Y-25256896D01*
X65591505Y-25209727D01*
X65536689Y-25174502D01*
X65502720Y-25153805D01*
X65493470Y-25149342D01*
X65476805Y-25160820D01*
X65441194Y-25192551D01*
X65390629Y-25240483D01*
X65329100Y-25300562D01*
X65260601Y-25368733D01*
X65189121Y-25440945D01*
X65118653Y-25513142D01*
X65053189Y-25581273D01*
X64996720Y-25641283D01*
X64953237Y-25689119D01*
X64926732Y-25720727D01*
X64920395Y-25731305D01*
X64929514Y-25750806D01*
X64955080Y-25793531D01*
X64994403Y-25855298D01*
X65044797Y-25931931D01*
X65103573Y-26019248D01*
X65137632Y-26069052D01*
X65199711Y-26159993D01*
X65254874Y-26242059D01*
X65300446Y-26311163D01*
X65333750Y-26363222D01*
X65352110Y-26394150D01*
X65354869Y-26400650D01*
X65348615Y-26419121D01*
X65331566Y-26462172D01*
X65306297Y-26523749D01*
X65275378Y-26597799D01*
X65241382Y-26678270D01*
X65206882Y-26759107D01*
X65174449Y-26834258D01*
X65146657Y-26897671D01*
X65126077Y-26943293D01*
X65115281Y-26965069D01*
X65114644Y-26965926D01*
X65097693Y-26970084D01*
X65052549Y-26979361D01*
X64983890Y-26992844D01*
X64896398Y-27009621D01*
X64794750Y-27028781D01*
X64735444Y-27039830D01*
X64626828Y-27060510D01*
X64528723Y-27080189D01*
X64446091Y-27097789D01*
X64383896Y-27112233D01*
X64347101Y-27122446D01*
X64339704Y-27125686D01*
X64332460Y-27147617D01*
X64326615Y-27197147D01*
X64322165Y-27268485D01*
X64319107Y-27355839D01*
X64317435Y-27453417D01*
X64317147Y-27555426D01*
X64318239Y-27656075D01*
X64320706Y-27749572D01*
X64324544Y-27830125D01*
X64329750Y-27891942D01*
X64336319Y-27929230D01*
X64340259Y-27936993D01*
X64363812Y-27946298D01*
X64413718Y-27959600D01*
X64483377Y-27975337D01*
X64566187Y-27991946D01*
X64595095Y-27997319D01*
X64734469Y-28022848D01*
X64844564Y-28043408D01*
X64929018Y-28059815D01*
X64991470Y-28072887D01*
X65035556Y-28083441D01*
X65064915Y-28092294D01*
X65083185Y-28100263D01*
X65094002Y-28108165D01*
X65095515Y-28109727D01*
X65110623Y-28134886D01*
X65133671Y-28183850D01*
X65162356Y-28250621D01*
X65194378Y-28329205D01*
X65227435Y-28413607D01*
X65259227Y-28497830D01*
X65287451Y-28575879D01*
X65309807Y-28641759D01*
X65323993Y-28689473D01*
X65327707Y-28713027D01*
X65327398Y-28713852D01*
X65314811Y-28733104D01*
X65286256Y-28775463D01*
X65244733Y-28836521D01*
X65193244Y-28911868D01*
X65134789Y-28997096D01*
X65118142Y-29021315D01*
X65058785Y-29109123D01*
X65006553Y-29189238D01*
X64964292Y-29257062D01*
X64934847Y-29307993D01*
X64921063Y-29337431D01*
X64920395Y-29341048D01*
X64931976Y-29360057D01*
X64963976Y-29397714D01*
X65012282Y-29449973D01*
X65072780Y-29512786D01*
X65141356Y-29582106D01*
X65213896Y-29653885D01*
X65286288Y-29724077D01*
X65354416Y-29788635D01*
X65414168Y-29843510D01*
X65461429Y-29884656D01*
X65492087Y-29908026D01*
X65500568Y-29911842D01*
X65520309Y-29902855D01*
X65560726Y-29878616D01*
X65615237Y-29843209D01*
X65657177Y-29814711D01*
X65733171Y-29762418D01*
X65823166Y-29700845D01*
X65913436Y-29639370D01*
X65961968Y-29606469D01*
X66126238Y-29495359D01*
X66264131Y-29569916D01*
X66326951Y-29602578D01*
X66380371Y-29627966D01*
X66416516Y-29642446D01*
X66425716Y-29644460D01*
X66436779Y-29629584D01*
X66458606Y-29587547D01*
X66489566Y-29522227D01*
X66528030Y-29437500D01*
X66572368Y-29337245D01*
X66620953Y-29225339D01*
X66672154Y-29105659D01*
X66724341Y-28982084D01*
X66775887Y-28858491D01*
X66825160Y-28738757D01*
X66870533Y-28626759D01*
X66910375Y-28526377D01*
X66943058Y-28441486D01*
X66966951Y-28375965D01*
X66980426Y-28333690D01*
X66982594Y-28319172D01*
X66965417Y-28300653D01*
X66927810Y-28270590D01*
X66877634Y-28235232D01*
X66873422Y-28232434D01*
X66743736Y-28128625D01*
X66639166Y-28007515D01*
X66560619Y-27872976D01*
X66509001Y-27728882D01*
X66485218Y-27579105D01*
X66490177Y-27427517D01*
X66524783Y-27277992D01*
X66589943Y-27134400D01*
X66609114Y-27102984D01*
X66708826Y-26976125D01*
X66826623Y-26874255D01*
X66958429Y-26797904D01*
X67100167Y-26747602D01*
X67247758Y-26723879D01*
X67397127Y-26727265D01*
X67544197Y-26758288D01*
X67684889Y-26817480D01*
X67815127Y-26905369D01*
X67855414Y-26941042D01*
X67957945Y-27052706D01*
X68032659Y-27170257D01*
X68083910Y-27302020D01*
X68112454Y-27432507D01*
X68119500Y-27579216D01*
X68096004Y-27726653D01*
X68044351Y-27869834D01*
X67966929Y-28003777D01*
X67866125Y-28123498D01*
X67744324Y-28224014D01*
X67728316Y-28234609D01*
X67677602Y-28269306D01*
X67639050Y-28299370D01*
X67620619Y-28318565D01*
X67620351Y-28319172D01*
X67624308Y-28339936D01*
X67639993Y-28387062D01*
X67665778Y-28456673D01*
X67700031Y-28544893D01*
X67741123Y-28647844D01*
X67787424Y-28761650D01*
X67837304Y-28882435D01*
X67889133Y-29006321D01*
X67941281Y-29129432D01*
X67992118Y-29247891D01*
X68040013Y-29357823D01*
X68083338Y-29455349D01*
X68120462Y-29536593D01*
X68149756Y-29597679D01*
X68169588Y-29634730D01*
X68177574Y-29644460D01*
X68201979Y-29636883D01*
X68247642Y-29616560D01*
X68306690Y-29587125D01*
X68339160Y-29569916D01*
X68477053Y-29495359D01*
X68641323Y-29606469D01*
X68725179Y-29663390D01*
X68816987Y-29726030D01*
X68903020Y-29785011D01*
X68946113Y-29814711D01*
X69006723Y-29855410D01*
X69058045Y-29887663D01*
X69093385Y-29907384D01*
X69104863Y-29911554D01*
X69121570Y-29900307D01*
X69158546Y-29868911D01*
X69212205Y-29820624D01*
X69278962Y-29758708D01*
X69355234Y-29686421D01*
X69403473Y-29640008D01*
X69487867Y-29557087D01*
X69560803Y-29482920D01*
X69619331Y-29420680D01*
X69660503Y-29373541D01*
X69681372Y-29344673D01*
X69683374Y-29338815D01*
X69674083Y-29316532D01*
X69648409Y-29271477D01*
X69609200Y-29208211D01*
X69559303Y-29131295D01*
X69501567Y-29045292D01*
X69485149Y-29021315D01*
X69425323Y-28934170D01*
X69371650Y-28855710D01*
X69327130Y-28790345D01*
X69294765Y-28742484D01*
X69277555Y-28716535D01*
X69275893Y-28713852D01*
X69278379Y-28693172D01*
X69291577Y-28647704D01*
X69313186Y-28583444D01*
X69340904Y-28506387D01*
X69372430Y-28422529D01*
X69405463Y-28337866D01*
X69437701Y-28258392D01*
X69466843Y-28190104D01*
X69490588Y-28138997D01*
X69506635Y-28111067D01*
X69507775Y-28109727D01*
X69517588Y-28101745D01*
X69534161Y-28093851D01*
X69561132Y-28085229D01*
X69602139Y-28075062D01*
X69660820Y-28062531D01*
X69740813Y-28046821D01*
X69845755Y-28027113D01*
X69979285Y-28002592D01*
X70008196Y-27997319D01*
X70093882Y-27980764D01*
X70168582Y-27964569D01*
X70225694Y-27950296D01*
X70258617Y-27939508D01*
X70263031Y-27936993D01*
X70270306Y-27914696D01*
X70276219Y-27864869D01*
X70280766Y-27793304D01*
X70283945Y-27705793D01*
X70285749Y-27608128D01*
X70286177Y-27506101D01*
X70285223Y-27405503D01*
X70282884Y-27312127D01*
X70279156Y-27231765D01*
X70274034Y-27170209D01*
X70267516Y-27133250D01*
X70263586Y-27125686D01*
X70241708Y-27118056D01*
X70191891Y-27105642D01*
X70119097Y-27089522D01*
X70028289Y-27070773D01*
X69924431Y-27050471D01*
X69867846Y-27039830D01*
X69760486Y-27019760D01*
X69664746Y-27001580D01*
X69585306Y-26986199D01*
X69526846Y-26974531D01*
X69494045Y-26967488D01*
X69488646Y-26965926D01*
X69479522Y-26948322D01*
X69460235Y-26905918D01*
X69433355Y-26844772D01*
X69401454Y-26770943D01*
X69367102Y-26690489D01*
X69332871Y-26609468D01*
X69301331Y-26533937D01*
X69275054Y-26469955D01*
X69256611Y-26423580D01*
X69248571Y-26400869D01*
X69248422Y-26399876D01*
X69257535Y-26381961D01*
X69283086Y-26340733D01*
X69322388Y-26280291D01*
X69372757Y-26204731D01*
X69431506Y-26118152D01*
X69465658Y-26068421D01*
X69527890Y-25977236D01*
X69583164Y-25894449D01*
X69628782Y-25824249D01*
X69662048Y-25770824D01*
X69680264Y-25738361D01*
X69682895Y-25731083D01*
X69671586Y-25714145D01*
X69640319Y-25677978D01*
X69593090Y-25626635D01*
X69533892Y-25564167D01*
X69466719Y-25494626D01*
X69395566Y-25422065D01*
X69324426Y-25350535D01*
X69257293Y-25284087D01*
X69198161Y-25226774D01*
X69151025Y-25182647D01*
X69119877Y-25155759D01*
X69109457Y-25149342D01*
X69092491Y-25158365D01*
X69051911Y-25183715D01*
X68991663Y-25222810D01*
X68915693Y-25273071D01*
X68827946Y-25331917D01*
X68761756Y-25376748D01*
X68427332Y-25604154D01*
X68148567Y-25489238D01*
X67869803Y-25374322D01*
X67794254Y-24973576D01*
X67718706Y-24572829D01*
X66884585Y-24572829D01*
X66809036Y-24973576D01*
G36*
X64918612Y-30512645D02*
G01*
X64861135Y-30530206D01*
X64824128Y-30552395D01*
X64812073Y-30569942D01*
X64815391Y-30590742D01*
X64836921Y-30623419D01*
X64855126Y-30646562D01*
X64892656Y-30688402D01*
X64920852Y-30706005D01*
X64944889Y-30704856D01*
X65016192Y-30686710D01*
X65068558Y-30687534D01*
X65111082Y-30708098D01*
X65125358Y-30720134D01*
X65171053Y-30762483D01*
X65171053Y-31315526D01*
X65354869Y-31315526D01*
X65354869Y-30513421D01*
X65262961Y-30513421D01*
X65207781Y-30515603D01*
X65179312Y-30523351D01*
X65171057Y-30538468D01*
X65171053Y-30538916D01*
X65167155Y-30554749D01*
X65149526Y-30552684D01*
X65125099Y-30541261D01*
X65074650Y-30520005D01*
X65033684Y-30507216D01*
X64980972Y-30503938D01*
X64918612Y-30512645D01*
G37*
X64918612Y-30512645D02*
X64861135Y-30530206D01*
X64824128Y-30552395D01*
X64812073Y-30569942D01*
X64815391Y-30590742D01*
X64836921Y-30623419D01*
X64855126Y-30646562D01*
X64892656Y-30688402D01*
X64920852Y-30706005D01*
X64944889Y-30704856D01*
X65016192Y-30686710D01*
X65068558Y-30687534D01*
X65111082Y-30708098D01*
X65125358Y-30720134D01*
X65171053Y-30762483D01*
X65171053Y-31315526D01*
X65354869Y-31315526D01*
X65354869Y-30513421D01*
X65262961Y-30513421D01*
X65207781Y-30515603D01*
X65179312Y-30523351D01*
X65171057Y-30538468D01*
X65171053Y-30538916D01*
X65167155Y-30554749D01*
X65149526Y-30552684D01*
X65125099Y-30541261D01*
X65074650Y-30520005D01*
X65033684Y-30507216D01*
X64980972Y-30503938D01*
X64918612Y-30512645D01*
G36*
X68312043Y-30527226D02*
G01*
X68270454Y-30547090D01*
X68230175Y-30575784D01*
X68199490Y-30608809D01*
X68177139Y-30650931D01*
X68161864Y-30706915D01*
X68152408Y-30781528D01*
X68147513Y-30879535D01*
X68145919Y-31005702D01*
X68145894Y-31018914D01*
X68145527Y-31315526D01*
X68329343Y-31315526D01*
X68329343Y-31042081D01*
X68329473Y-30940777D01*
X68330379Y-30867353D01*
X68332827Y-30816271D01*
X68337586Y-30781990D01*
X68345426Y-30758971D01*
X68357115Y-30741673D01*
X68373398Y-30724581D01*
X68430366Y-30687857D01*
X68492555Y-30681042D01*
X68551801Y-30704261D01*
X68572405Y-30721543D01*
X68587530Y-30737791D01*
X68598390Y-30755191D01*
X68605690Y-30779212D01*
X68610137Y-30815322D01*
X68612436Y-30868988D01*
X68613296Y-30945680D01*
X68613422Y-31039043D01*
X68613422Y-31315526D01*
X68797237Y-31315526D01*
X68797237Y-30513421D01*
X68705329Y-30513421D01*
X68650149Y-30515603D01*
X68621680Y-30523351D01*
X68613425Y-30538468D01*
X68613422Y-30538916D01*
X68609592Y-30553720D01*
X68592699Y-30552040D01*
X68559112Y-30535773D01*
X68482937Y-30511840D01*
X68395800Y-30509178D01*
X68312043Y-30527226D01*
G37*
X68312043Y-30527226D02*
X68270454Y-30547090D01*
X68230175Y-30575784D01*
X68199490Y-30608809D01*
X68177139Y-30650931D01*
X68161864Y-30706915D01*
X68152408Y-30781528D01*
X68147513Y-30879535D01*
X68145919Y-31005702D01*
X68145894Y-31018914D01*
X68145527Y-31315526D01*
X68329343Y-31315526D01*
X68329343Y-31042081D01*
X68329473Y-30940777D01*
X68330379Y-30867353D01*
X68332827Y-30816271D01*
X68337586Y-30781990D01*
X68345426Y-30758971D01*
X68357115Y-30741673D01*
X68373398Y-30724581D01*
X68430366Y-30687857D01*
X68492555Y-30681042D01*
X68551801Y-30704261D01*
X68572405Y-30721543D01*
X68587530Y-30737791D01*
X68598390Y-30755191D01*
X68605690Y-30779212D01*
X68610137Y-30815322D01*
X68612436Y-30868988D01*
X68613296Y-30945680D01*
X68613422Y-31039043D01*
X68613422Y-31315526D01*
X68797237Y-31315526D01*
X68797237Y-30513421D01*
X68705329Y-30513421D01*
X68650149Y-30515603D01*
X68621680Y-30523351D01*
X68613425Y-30538468D01*
X68613422Y-30538916D01*
X68609592Y-30553720D01*
X68592699Y-30552040D01*
X68559112Y-30535773D01*
X68482937Y-30511840D01*
X68395800Y-30509178D01*
X68312043Y-30527226D01*
G36*
X63751216Y-30510554D02*
G01*
X63708426Y-30520949D01*
X63626391Y-30559013D01*
X63556243Y-30617149D01*
X63507695Y-30686852D01*
X63501025Y-30702502D01*
X63491876Y-30743496D01*
X63485471Y-30804138D01*
X63483290Y-30865430D01*
X63483290Y-30981316D01*
X63725593Y-30981316D01*
X63825529Y-30981693D01*
X63895931Y-30983987D01*
X63940687Y-30989938D01*
X63963685Y-31001285D01*
X63968811Y-31019771D01*
X63959952Y-31047136D01*
X63944083Y-31079155D01*
X63899816Y-31132592D01*
X63838301Y-31159215D01*
X63763115Y-31158347D01*
X63677947Y-31129371D01*
X63604341Y-31093611D01*
X63543266Y-31141904D01*
X63482190Y-31190197D01*
X63539649Y-31243285D01*
X63616359Y-31293445D01*
X63710698Y-31323688D01*
X63812173Y-31332151D01*
X63910289Y-31316974D01*
X63926119Y-31311824D01*
X64012353Y-31266791D01*
X64076499Y-31199652D01*
X64119909Y-31108405D01*
X64143936Y-30991044D01*
X64144216Y-30988529D01*
X64146367Y-30860627D01*
X64137671Y-30814997D01*
X63967895Y-30814997D01*
X63952303Y-30822013D01*
X63909971Y-30827388D01*
X63847566Y-30830457D01*
X63808019Y-30830921D01*
X63734272Y-30830630D01*
X63688160Y-30828783D01*
X63663900Y-30823912D01*
X63655706Y-30814555D01*
X63657794Y-30799245D01*
X63659545Y-30793322D01*
X63689440Y-30737668D01*
X63736458Y-30692815D01*
X63777951Y-30673105D01*
X63833074Y-30674295D01*
X63888932Y-30698875D01*
X63935788Y-30739570D01*
X63963906Y-30789108D01*
X63967895Y-30814997D01*
X64137671Y-30814997D01*
X64124926Y-30748133D01*
X64082389Y-30653727D01*
X64021253Y-30580088D01*
X63944015Y-30529893D01*
X63853170Y-30505822D01*
X63751216Y-30510554D01*
G37*
X63751216Y-30510554D02*
X63708426Y-30520949D01*
X63626391Y-30559013D01*
X63556243Y-30617149D01*
X63507695Y-30686852D01*
X63501025Y-30702502D01*
X63491876Y-30743496D01*
X63485471Y-30804138D01*
X63483290Y-30865430D01*
X63483290Y-30981316D01*
X63725593Y-30981316D01*
X63825529Y-30981693D01*
X63895931Y-30983987D01*
X63940687Y-30989938D01*
X63963685Y-31001285D01*
X63968811Y-31019771D01*
X63959952Y-31047136D01*
X63944083Y-31079155D01*
X63899816Y-31132592D01*
X63838301Y-31159215D01*
X63763115Y-31158347D01*
X63677947Y-31129371D01*
X63604341Y-31093611D01*
X63543266Y-31141904D01*
X63482190Y-31190197D01*
X63539649Y-31243285D01*
X63616359Y-31293445D01*
X63710698Y-31323688D01*
X63812173Y-31332151D01*
X63910289Y-31316974D01*
X63926119Y-31311824D01*
X64012353Y-31266791D01*
X64076499Y-31199652D01*
X64119909Y-31108405D01*
X64143936Y-30991044D01*
X64144216Y-30988529D01*
X64146367Y-30860627D01*
X64137671Y-30814997D01*
X63967895Y-30814997D01*
X63952303Y-30822013D01*
X63909971Y-30827388D01*
X63847566Y-30830457D01*
X63808019Y-30830921D01*
X63734272Y-30830630D01*
X63688160Y-30828783D01*
X63663900Y-30823912D01*
X63655706Y-30814555D01*
X63657794Y-30799245D01*
X63659545Y-30793322D01*
X63689440Y-30737668D01*
X63736458Y-30692815D01*
X63777951Y-30673105D01*
X63833074Y-30674295D01*
X63888932Y-30698875D01*
X63935788Y-30739570D01*
X63963906Y-30789108D01*
X63967895Y-30814997D01*
X64137671Y-30814997D01*
X64124926Y-30748133D01*
X64082389Y-30653727D01*
X64021253Y-30580088D01*
X63944015Y-30529893D01*
X63853170Y-30505822D01*
X63751216Y-30510554D01*
G36*
X64363424Y-30520419D02*
G01*
X64266605Y-30561549D01*
X64236110Y-30581571D01*
X64197135Y-30612340D01*
X64172669Y-30636533D01*
X64168422Y-30644413D01*
X64180416Y-30661899D01*
X64211113Y-30691570D01*
X64235688Y-30712279D01*
X64302954Y-30766336D01*
X64356070Y-30721642D01*
X64397116Y-30692789D01*
X64437137Y-30682829D01*
X64482941Y-30685261D01*
X64555676Y-30703345D01*
X64605744Y-30740881D01*
X64636171Y-30801562D01*
X64649983Y-30889081D01*
X64649987Y-30889136D01*
X64648792Y-30986958D01*
X64630228Y-31058730D01*
X64593196Y-31107595D01*
X64567950Y-31124143D01*
X64500903Y-31144749D01*
X64429291Y-31144762D01*
X64366985Y-31124768D01*
X64352237Y-31115000D01*
X64315250Y-31090047D01*
X64286332Y-31085958D01*
X64255144Y-31104530D01*
X64220664Y-31137887D01*
X64166088Y-31194196D01*
X64226682Y-31244142D01*
X64320302Y-31300513D01*
X64425875Y-31328293D01*
X64536202Y-31326282D01*
X64608657Y-31307862D01*
X64693344Y-31262310D01*
X64761073Y-31190650D01*
X64791843Y-31140066D01*
X64816764Y-31067488D01*
X64829234Y-30975569D01*
X64829330Y-30875948D01*
X64817130Y-30780267D01*
X64792710Y-30700169D01*
X64788864Y-30691956D01*
X64731907Y-30611413D01*
X64654791Y-30552771D01*
X64563610Y-30517247D01*
X64464457Y-30506057D01*
X64363424Y-30520419D01*
G37*
X64363424Y-30520419D02*
X64266605Y-30561549D01*
X64236110Y-30581571D01*
X64197135Y-30612340D01*
X64172669Y-30636533D01*
X64168422Y-30644413D01*
X64180416Y-30661899D01*
X64211113Y-30691570D01*
X64235688Y-30712279D01*
X64302954Y-30766336D01*
X64356070Y-30721642D01*
X64397116Y-30692789D01*
X64437137Y-30682829D01*
X64482941Y-30685261D01*
X64555676Y-30703345D01*
X64605744Y-30740881D01*
X64636171Y-30801562D01*
X64649983Y-30889081D01*
X64649987Y-30889136D01*
X64648792Y-30986958D01*
X64630228Y-31058730D01*
X64593196Y-31107595D01*
X64567950Y-31124143D01*
X64500903Y-31144749D01*
X64429291Y-31144762D01*
X64366985Y-31124768D01*
X64352237Y-31115000D01*
X64315250Y-31090047D01*
X64286332Y-31085958D01*
X64255144Y-31104530D01*
X64220664Y-31137887D01*
X64166088Y-31194196D01*
X64226682Y-31244142D01*
X64320302Y-31300513D01*
X64425875Y-31328293D01*
X64536202Y-31326282D01*
X64608657Y-31307862D01*
X64693344Y-31262310D01*
X64761073Y-31190650D01*
X64791843Y-31140066D01*
X64816764Y-31067488D01*
X64829234Y-30975569D01*
X64829330Y-30875948D01*
X64817130Y-30780267D01*
X64792710Y-30700169D01*
X64788864Y-30691956D01*
X64731907Y-30611413D01*
X64654791Y-30552771D01*
X64563610Y-30517247D01*
X64464457Y-30506057D01*
X64363424Y-30520419D01*
G36*
X65989869Y-30773533D02*
G01*
X65988290Y-30896089D01*
X65982519Y-30989179D01*
X65971009Y-31056651D01*
X65952210Y-31102355D01*
X65924574Y-31130139D01*
X65886552Y-31143854D01*
X65839474Y-31147358D01*
X65790168Y-31143432D01*
X65752717Y-31129089D01*
X65725572Y-31100478D01*
X65707185Y-31053751D01*
X65696007Y-30985058D01*
X65690489Y-30890550D01*
X65689079Y-30773533D01*
X65689079Y-30513421D01*
X65505264Y-30513421D01*
X65505264Y-31315526D01*
X65597172Y-31315526D01*
X65652578Y-31313281D01*
X65681109Y-31305396D01*
X65689079Y-31290428D01*
X65693880Y-31277097D01*
X65712986Y-31279917D01*
X65751496Y-31298783D01*
X65839761Y-31327887D01*
X65933377Y-31325825D01*
X66023079Y-31294221D01*
X66065796Y-31269257D01*
X66098379Y-31242226D01*
X66122183Y-31208405D01*
X66138561Y-31163068D01*
X66148869Y-31101489D01*
X66154459Y-31018943D01*
X66156688Y-30910705D01*
X66156974Y-30827004D01*
X66156974Y-30513421D01*
X65989869Y-30513421D01*
X65989869Y-30773533D01*
G37*
X65989869Y-30773533D02*
X65988290Y-30896089D01*
X65982519Y-30989179D01*
X65971009Y-31056651D01*
X65952210Y-31102355D01*
X65924574Y-31130139D01*
X65886552Y-31143854D01*
X65839474Y-31147358D01*
X65790168Y-31143432D01*
X65752717Y-31129089D01*
X65725572Y-31100478D01*
X65707185Y-31053751D01*
X65696007Y-30985058D01*
X65690489Y-30890550D01*
X65689079Y-30773533D01*
X65689079Y-30513421D01*
X65505264Y-30513421D01*
X65505264Y-31315526D01*
X65597172Y-31315526D01*
X65652578Y-31313281D01*
X65681109Y-31305396D01*
X65689079Y-31290428D01*
X65693880Y-31277097D01*
X65712986Y-31279917D01*
X65751496Y-31298783D01*
X65839761Y-31327887D01*
X65933377Y-31325825D01*
X66023079Y-31294221D01*
X66065796Y-31269257D01*
X66098379Y-31242226D01*
X66122183Y-31208405D01*
X66138561Y-31163068D01*
X66148869Y-31101489D01*
X66154459Y-31018943D01*
X66156688Y-30910705D01*
X66156974Y-30827004D01*
X66156974Y-30513421D01*
X65989869Y-30513421D01*
X65989869Y-30773533D01*
G36*
X66498331Y-30523310D02*
G01*
X66413808Y-30569340D01*
X66347679Y-30642006D01*
X66316522Y-30701106D01*
X66303145Y-30753305D01*
X66294478Y-30827719D01*
X66290763Y-30913442D01*
X66292246Y-30999569D01*
X66299169Y-31075193D01*
X66307255Y-31115584D01*
X66334535Y-31170840D01*
X66381780Y-31229530D01*
X66438718Y-31280852D01*
X66495076Y-31314005D01*
X66496450Y-31314531D01*
X66566384Y-31329018D01*
X66649263Y-31329377D01*
X66728023Y-31316188D01*
X66758434Y-31305617D01*
X66836761Y-31261201D01*
X66892857Y-31203007D01*
X66929714Y-31125965D01*
X66950320Y-31025001D01*
X66954982Y-30972116D01*
X66954387Y-30905663D01*
X66775264Y-30905663D01*
X66769230Y-31002630D01*
X66751862Y-31076523D01*
X66724260Y-31123736D01*
X66704596Y-31137237D01*
X66654213Y-31146651D01*
X66594327Y-31143864D01*
X66542551Y-31130316D01*
X66528973Y-31122862D01*
X66493151Y-31079451D01*
X66469507Y-31013014D01*
X66459442Y-30932161D01*
X66464358Y-30845502D01*
X66475345Y-30793349D01*
X66506891Y-30732951D01*
X66556689Y-30695197D01*
X66616663Y-30682143D01*
X66678736Y-30695849D01*
X66726418Y-30729372D01*
X66751475Y-30757031D01*
X66766100Y-30784294D01*
X66773071Y-30821190D01*
X66775167Y-30877750D01*
X66775264Y-30905663D01*
X66954387Y-30905663D01*
X66953718Y-30830994D01*
X66930735Y-30715271D01*
X66886028Y-30624941D01*
X66819595Y-30560000D01*
X66731435Y-30520445D01*
X66712505Y-30515858D01*
X66598734Y-30505090D01*
X66498331Y-30523310D01*
G37*
X66498331Y-30523310D02*
X66413808Y-30569340D01*
X66347679Y-30642006D01*
X66316522Y-30701106D01*
X66303145Y-30753305D01*
X66294478Y-30827719D01*
X66290763Y-30913442D01*
X66292246Y-30999569D01*
X66299169Y-31075193D01*
X66307255Y-31115584D01*
X66334535Y-31170840D01*
X66381780Y-31229530D01*
X66438718Y-31280852D01*
X66495076Y-31314005D01*
X66496450Y-31314531D01*
X66566384Y-31329018D01*
X66649263Y-31329377D01*
X66728023Y-31316188D01*
X66758434Y-31305617D01*
X66836761Y-31261201D01*
X66892857Y-31203007D01*
X66929714Y-31125965D01*
X66950320Y-31025001D01*
X66954982Y-30972116D01*
X66954387Y-30905663D01*
X66775264Y-30905663D01*
X66769230Y-31002630D01*
X66751862Y-31076523D01*
X66724260Y-31123736D01*
X66704596Y-31137237D01*
X66654213Y-31146651D01*
X66594327Y-31143864D01*
X66542551Y-31130316D01*
X66528973Y-31122862D01*
X66493151Y-31079451D01*
X66469507Y-31013014D01*
X66459442Y-30932161D01*
X66464358Y-30845502D01*
X66475345Y-30793349D01*
X66506891Y-30732951D01*
X66556689Y-30695197D01*
X66616663Y-30682143D01*
X66678736Y-30695849D01*
X66726418Y-30729372D01*
X66751475Y-30757031D01*
X66766100Y-30784294D01*
X66773071Y-30821190D01*
X66775167Y-30877750D01*
X66775264Y-30905663D01*
X66954387Y-30905663D01*
X66953718Y-30830994D01*
X66930735Y-30715271D01*
X66886028Y-30624941D01*
X66819595Y-30560000D01*
X66731435Y-30520445D01*
X66712505Y-30515858D01*
X66598734Y-30505090D01*
X66498331Y-30523310D01*
G36*
X67291372Y-30510547D02*
G01*
X67228092Y-30522548D01*
X67162443Y-30547648D01*
X67155428Y-30550848D01*
X67105644Y-30577026D01*
X67071166Y-30601353D01*
X67060022Y-30616937D01*
X67070634Y-30642353D01*
X67096412Y-30679853D01*
X67107854Y-30693852D01*
X67155008Y-30748954D01*
X67215799Y-30713086D01*
X67273653Y-30689192D01*
X67340500Y-30676420D01*
X67404606Y-30675613D01*
X67454236Y-30687615D01*
X67466146Y-30695105D01*
X67488828Y-30729450D01*
X67491584Y-30769013D01*
X67474612Y-30799920D01*
X67464573Y-30805913D01*
X67434490Y-30813357D01*
X67381611Y-30822106D01*
X67316425Y-30830467D01*
X67304400Y-30831778D01*
X67199703Y-30849888D01*
X67123768Y-30880651D01*
X67073408Y-30926907D01*
X67045436Y-30991497D01*
X67036722Y-31070387D01*
X67048760Y-31160065D01*
X67087849Y-31230486D01*
X67154145Y-31281777D01*
X67247806Y-31314067D01*
X67351777Y-31326807D01*
X67436562Y-31326654D01*
X67505335Y-31315083D01*
X67552303Y-31299109D01*
X67611650Y-31271275D01*
X67666494Y-31238973D01*
X67685987Y-31224755D01*
X67736119Y-31183835D01*
X67615197Y-31061477D01*
X67546457Y-31106967D01*
X67477512Y-31141133D01*
X67403889Y-31159004D01*
X67333117Y-31160889D01*
X67272726Y-31147101D01*
X67230243Y-31117949D01*
X67216526Y-31093352D01*
X67218583Y-31053904D01*
X67252670Y-31023737D01*
X67318692Y-31002906D01*
X67391026Y-30993279D01*
X67502348Y-30974910D01*
X67585048Y-30940254D01*
X67640235Y-30888297D01*
X67669012Y-30818023D01*
X67672999Y-30734707D01*
X67653307Y-30647681D01*
X67608411Y-30581902D01*
X67537909Y-30537068D01*
X67441399Y-30512879D01*
X67369900Y-30508137D01*
X67291372Y-30510547D01*
G37*
X67291372Y-30510547D02*
X67228092Y-30522548D01*
X67162443Y-30547648D01*
X67155428Y-30550848D01*
X67105644Y-30577026D01*
X67071166Y-30601353D01*
X67060022Y-30616937D01*
X67070634Y-30642353D01*
X67096412Y-30679853D01*
X67107854Y-30693852D01*
X67155008Y-30748954D01*
X67215799Y-30713086D01*
X67273653Y-30689192D01*
X67340500Y-30676420D01*
X67404606Y-30675613D01*
X67454236Y-30687615D01*
X67466146Y-30695105D01*
X67488828Y-30729450D01*
X67491584Y-30769013D01*
X67474612Y-30799920D01*
X67464573Y-30805913D01*
X67434490Y-30813357D01*
X67381611Y-30822106D01*
X67316425Y-30830467D01*
X67304400Y-30831778D01*
X67199703Y-30849888D01*
X67123768Y-30880651D01*
X67073408Y-30926907D01*
X67045436Y-30991497D01*
X67036722Y-31070387D01*
X67048760Y-31160065D01*
X67087849Y-31230486D01*
X67154145Y-31281777D01*
X67247806Y-31314067D01*
X67351777Y-31326807D01*
X67436562Y-31326654D01*
X67505335Y-31315083D01*
X67552303Y-31299109D01*
X67611650Y-31271275D01*
X67666494Y-31238973D01*
X67685987Y-31224755D01*
X67736119Y-31183835D01*
X67615197Y-31061477D01*
X67546457Y-31106967D01*
X67477512Y-31141133D01*
X67403889Y-31159004D01*
X67333117Y-31160889D01*
X67272726Y-31147101D01*
X67230243Y-31117949D01*
X67216526Y-31093352D01*
X67218583Y-31053904D01*
X67252670Y-31023737D01*
X67318692Y-31002906D01*
X67391026Y-30993279D01*
X67502348Y-30974910D01*
X67585048Y-30940254D01*
X67640235Y-30888297D01*
X67669012Y-30818023D01*
X67672999Y-30734707D01*
X67653307Y-30647681D01*
X67608411Y-30581902D01*
X67537909Y-30537068D01*
X67441399Y-30512879D01*
X67369900Y-30508137D01*
X67291372Y-30510547D01*
G36*
X69112982Y-30532027D02*
G01*
X69096330Y-30539866D01*
X69038695Y-30582086D01*
X68984195Y-30643700D01*
X68943501Y-30711543D01*
X68931926Y-30742734D01*
X68921366Y-30798449D01*
X68915069Y-30865781D01*
X68914304Y-30893585D01*
X68914211Y-30981316D01*
X69419150Y-30981316D01*
X69408387Y-31027270D01*
X69381967Y-31081620D01*
X69335778Y-31128591D01*
X69280828Y-31158848D01*
X69245811Y-31165131D01*
X69198323Y-31157506D01*
X69141665Y-31138383D01*
X69122418Y-31129584D01*
X69051241Y-31094036D01*
X68990498Y-31140367D01*
X68955448Y-31171703D01*
X68936798Y-31197567D01*
X68935853Y-31205158D01*
X68952515Y-31223556D01*
X68989030Y-31251515D01*
X69022172Y-31273327D01*
X69111607Y-31312537D01*
X69211871Y-31330285D01*
X69311246Y-31325670D01*
X69390461Y-31301551D01*
X69472120Y-31249884D01*
X69530151Y-31181856D01*
X69566454Y-31093843D01*
X69582928Y-30982216D01*
X69584389Y-30931138D01*
X69578543Y-30814091D01*
X69577825Y-30810686D01*
X69410511Y-30810686D01*
X69405903Y-30821662D01*
X69386964Y-30827715D01*
X69347902Y-30830310D01*
X69282923Y-30830910D01*
X69257903Y-30830921D01*
X69181779Y-30830014D01*
X69133504Y-30826720D01*
X69107540Y-30820181D01*
X69098352Y-30809537D01*
X69098027Y-30806119D01*
X69108513Y-30778956D01*
X69134758Y-30740903D01*
X69146041Y-30727579D01*
X69187928Y-30689896D01*
X69231591Y-30675080D01*
X69255115Y-30673842D01*
X69318757Y-30689329D01*
X69372127Y-30730930D01*
X69405981Y-30791353D01*
X69406581Y-30793322D01*
X69410511Y-30810686D01*
X69577825Y-30810686D01*
X69559101Y-30721928D01*
X69524078Y-30648190D01*
X69481244Y-30595848D01*
X69402052Y-30539092D01*
X69308960Y-30508762D01*
X69209945Y-30506021D01*
X69112982Y-30532027D01*
G37*
X69112982Y-30532027D02*
X69096330Y-30539866D01*
X69038695Y-30582086D01*
X68984195Y-30643700D01*
X68943501Y-30711543D01*
X68931926Y-30742734D01*
X68921366Y-30798449D01*
X68915069Y-30865781D01*
X68914304Y-30893585D01*
X68914211Y-30981316D01*
X69419150Y-30981316D01*
X69408387Y-31027270D01*
X69381967Y-31081620D01*
X69335778Y-31128591D01*
X69280828Y-31158848D01*
X69245811Y-31165131D01*
X69198323Y-31157506D01*
X69141665Y-31138383D01*
X69122418Y-31129584D01*
X69051241Y-31094036D01*
X68990498Y-31140367D01*
X68955448Y-31171703D01*
X68936798Y-31197567D01*
X68935853Y-31205158D01*
X68952515Y-31223556D01*
X68989030Y-31251515D01*
X69022172Y-31273327D01*
X69111607Y-31312537D01*
X69211871Y-31330285D01*
X69311246Y-31325670D01*
X69390461Y-31301551D01*
X69472120Y-31249884D01*
X69530151Y-31181856D01*
X69566454Y-31093843D01*
X69582928Y-30982216D01*
X69584389Y-30931138D01*
X69578543Y-30814091D01*
X69577825Y-30810686D01*
X69410511Y-30810686D01*
X69405903Y-30821662D01*
X69386964Y-30827715D01*
X69347902Y-30830310D01*
X69282923Y-30830910D01*
X69257903Y-30830921D01*
X69181779Y-30830014D01*
X69133504Y-30826720D01*
X69107540Y-30820181D01*
X69098352Y-30809537D01*
X69098027Y-30806119D01*
X69108513Y-30778956D01*
X69134758Y-30740903D01*
X69146041Y-30727579D01*
X69187928Y-30689896D01*
X69231591Y-30675080D01*
X69255115Y-30673842D01*
X69318757Y-30689329D01*
X69372127Y-30730930D01*
X69405981Y-30791353D01*
X69406581Y-30793322D01*
X69410511Y-30810686D01*
X69577825Y-30810686D01*
X69559101Y-30721928D01*
X69524078Y-30648190D01*
X69481244Y-30595848D01*
X69402052Y-30539092D01*
X69308960Y-30508762D01*
X69209945Y-30506021D01*
X69112982Y-30532027D01*
G36*
X70683216Y-30522104D02*
G01*
X70595795Y-30560754D01*
X70529430Y-30625290D01*
X70484024Y-30715812D01*
X70459482Y-30832418D01*
X70457723Y-30850624D01*
X70456344Y-30978984D01*
X70474216Y-31091496D01*
X70510250Y-31182688D01*
X70529545Y-31212022D01*
X70596755Y-31274106D01*
X70682350Y-31314316D01*
X70778110Y-31331003D01*
X70875813Y-31322517D01*
X70950083Y-31296380D01*
X71013953Y-31252335D01*
X71066154Y-31194587D01*
X71067057Y-31193236D01*
X71088256Y-31157593D01*
X71102033Y-31121752D01*
X71110376Y-31076519D01*
X71115273Y-31012701D01*
X71117431Y-30960368D01*
X71118329Y-30912910D01*
X70951257Y-30912910D01*
X70949624Y-30960154D01*
X70943696Y-31023046D01*
X70933239Y-31063407D01*
X70914381Y-31092122D01*
X70896719Y-31108896D01*
X70834106Y-31144016D01*
X70768592Y-31148710D01*
X70707579Y-31123440D01*
X70677072Y-31095124D01*
X70655089Y-31066589D01*
X70642231Y-31039284D01*
X70636588Y-31003750D01*
X70636249Y-30950524D01*
X70637988Y-30901506D01*
X70641729Y-30831482D01*
X70647659Y-30786064D01*
X70658347Y-30756440D01*
X70676361Y-30733797D01*
X70690637Y-30720855D01*
X70750349Y-30686860D01*
X70814766Y-30685165D01*
X70868781Y-30705301D01*
X70914860Y-30747352D01*
X70942311Y-30816428D01*
X70951257Y-30912910D01*
X71118329Y-30912910D01*
X71119401Y-30856299D01*
X71116036Y-30778468D01*
X71105955Y-30719930D01*
X71087774Y-30673737D01*
X71060110Y-30632942D01*
X71049854Y-30620828D01*
X70985722Y-30560474D01*
X70916934Y-30525220D01*
X70832811Y-30510450D01*
X70791791Y-30509243D01*
X70683216Y-30522104D01*
G37*
X70683216Y-30522104D02*
X70595795Y-30560754D01*
X70529430Y-30625290D01*
X70484024Y-30715812D01*
X70459482Y-30832418D01*
X70457723Y-30850624D01*
X70456344Y-30978984D01*
X70474216Y-31091496D01*
X70510250Y-31182688D01*
X70529545Y-31212022D01*
X70596755Y-31274106D01*
X70682350Y-31314316D01*
X70778110Y-31331003D01*
X70875813Y-31322517D01*
X70950083Y-31296380D01*
X71013953Y-31252335D01*
X71066154Y-31194587D01*
X71067057Y-31193236D01*
X71088256Y-31157593D01*
X71102033Y-31121752D01*
X71110376Y-31076519D01*
X71115273Y-31012701D01*
X71117431Y-30960368D01*
X71118329Y-30912910D01*
X70951257Y-30912910D01*
X70949624Y-30960154D01*
X70943696Y-31023046D01*
X70933239Y-31063407D01*
X70914381Y-31092122D01*
X70896719Y-31108896D01*
X70834106Y-31144016D01*
X70768592Y-31148710D01*
X70707579Y-31123440D01*
X70677072Y-31095124D01*
X70655089Y-31066589D01*
X70642231Y-31039284D01*
X70636588Y-31003750D01*
X70636249Y-30950524D01*
X70637988Y-30901506D01*
X70641729Y-30831482D01*
X70647659Y-30786064D01*
X70658347Y-30756440D01*
X70676361Y-30733797D01*
X70690637Y-30720855D01*
X70750349Y-30686860D01*
X70814766Y-30685165D01*
X70868781Y-30705301D01*
X70914860Y-30747352D01*
X70942311Y-30816428D01*
X70951257Y-30912910D01*
X71118329Y-30912910D01*
X71119401Y-30856299D01*
X71116036Y-30778468D01*
X71105955Y-30719930D01*
X71087774Y-30673737D01*
X71060110Y-30632942D01*
X71049854Y-30620828D01*
X70985722Y-30560474D01*
X70916934Y-30525220D01*
X70832811Y-30510450D01*
X70791791Y-30509243D01*
X70683216Y-30522104D01*
G36*
X64608807Y-31771078D02*
G01*
X64528932Y-31791845D01*
X64462038Y-31834705D01*
X64429649Y-31866723D01*
X64376555Y-31942413D01*
X64346127Y-32030216D01*
X64335673Y-32138150D01*
X64335620Y-32146875D01*
X64335527Y-32234605D01*
X64840466Y-32234605D01*
X64829702Y-32280559D01*
X64810268Y-32322178D01*
X64776255Y-32365544D01*
X64769140Y-32372467D01*
X64707997Y-32409935D01*
X64638271Y-32416289D01*
X64558013Y-32391638D01*
X64544408Y-32385000D01*
X64502681Y-32364819D01*
X64474732Y-32353321D01*
X64469855Y-32352258D01*
X64452832Y-32362583D01*
X64420367Y-32387845D01*
X64403886Y-32401650D01*
X64369736Y-32433361D01*
X64358522Y-32454299D01*
X64366305Y-32473560D01*
X64370465Y-32478827D01*
X64398643Y-32501878D01*
X64445138Y-32529892D01*
X64477566Y-32546246D01*
X64569615Y-32575059D01*
X64671524Y-32584395D01*
X64768037Y-32573332D01*
X64795066Y-32565412D01*
X64878724Y-32520581D01*
X64940734Y-32451598D01*
X64981455Y-32357794D01*
X65001245Y-32238498D01*
X65003418Y-32176118D01*
X64997074Y-32085298D01*
X64836843Y-32085298D01*
X64821345Y-32092012D01*
X64779688Y-32097280D01*
X64719124Y-32100389D01*
X64678093Y-32100921D01*
X64604289Y-32100408D01*
X64557707Y-32098006D01*
X64532152Y-32092422D01*
X64521431Y-32082361D01*
X64519343Y-32067763D01*
X64533669Y-32022796D01*
X64569738Y-31978353D01*
X64617185Y-31944242D01*
X64664651Y-31930288D01*
X64729121Y-31942666D01*
X64784930Y-31978452D01*
X64823626Y-32030033D01*
X64836843Y-32085298D01*
X64997074Y-32085298D01*
X64994179Y-32043866D01*
X64965664Y-31938498D01*
X64917271Y-31859178D01*
X64848396Y-31805071D01*
X64758435Y-31775343D01*
X64709700Y-31769618D01*
X64608807Y-31771078D01*
G37*
X64608807Y-31771078D02*
X64528932Y-31791845D01*
X64462038Y-31834705D01*
X64429649Y-31866723D01*
X64376555Y-31942413D01*
X64346127Y-32030216D01*
X64335673Y-32138150D01*
X64335620Y-32146875D01*
X64335527Y-32234605D01*
X64840466Y-32234605D01*
X64829702Y-32280559D01*
X64810268Y-32322178D01*
X64776255Y-32365544D01*
X64769140Y-32372467D01*
X64707997Y-32409935D01*
X64638271Y-32416289D01*
X64558013Y-32391638D01*
X64544408Y-32385000D01*
X64502681Y-32364819D01*
X64474732Y-32353321D01*
X64469855Y-32352258D01*
X64452832Y-32362583D01*
X64420367Y-32387845D01*
X64403886Y-32401650D01*
X64369736Y-32433361D01*
X64358522Y-32454299D01*
X64366305Y-32473560D01*
X64370465Y-32478827D01*
X64398643Y-32501878D01*
X64445138Y-32529892D01*
X64477566Y-32546246D01*
X64569615Y-32575059D01*
X64671524Y-32584395D01*
X64768037Y-32573332D01*
X64795066Y-32565412D01*
X64878724Y-32520581D01*
X64940734Y-32451598D01*
X64981455Y-32357794D01*
X65001245Y-32238498D01*
X65003418Y-32176118D01*
X64997074Y-32085298D01*
X64836843Y-32085298D01*
X64821345Y-32092012D01*
X64779688Y-32097280D01*
X64719124Y-32100389D01*
X64678093Y-32100921D01*
X64604289Y-32100408D01*
X64557707Y-32098006D01*
X64532152Y-32092422D01*
X64521431Y-32082361D01*
X64519343Y-32067763D01*
X64533669Y-32022796D01*
X64569738Y-31978353D01*
X64617185Y-31944242D01*
X64664651Y-31930288D01*
X64729121Y-31942666D01*
X64784930Y-31978452D01*
X64823626Y-32030033D01*
X64836843Y-32085298D01*
X64997074Y-32085298D01*
X64994179Y-32043866D01*
X64965664Y-31938498D01*
X64917271Y-31859178D01*
X64848396Y-31805071D01*
X64758435Y-31775343D01*
X64709700Y-31769618D01*
X64608807Y-31771078D01*
G36*
X65136833Y-31766447D02*
G01*
X65072592Y-31779112D01*
X65036020Y-31797864D01*
X64997547Y-31829017D01*
X65052283Y-31898127D01*
X65086031Y-31939979D01*
X65108947Y-31960398D01*
X65131721Y-31963517D01*
X65165044Y-31953472D01*
X65180686Y-31947789D01*
X65244458Y-31939404D01*
X65302860Y-31957378D01*
X65345736Y-31997982D01*
X65352701Y-32010929D01*
X65360287Y-32045224D01*
X65366141Y-32108427D01*
X65369989Y-32196060D01*
X65371557Y-32303640D01*
X65371579Y-32318944D01*
X65371579Y-32585526D01*
X65555395Y-32585526D01*
X65555395Y-31766710D01*
X65463487Y-31766710D01*
X65410493Y-31768094D01*
X65382885Y-31774252D01*
X65372676Y-31788194D01*
X65371579Y-31801344D01*
X65371579Y-31835978D01*
X65327550Y-31801344D01*
X65277063Y-31777716D01*
X65209240Y-31766033D01*
X65136833Y-31766447D01*
G37*
X65136833Y-31766447D02*
X65072592Y-31779112D01*
X65036020Y-31797864D01*
X64997547Y-31829017D01*
X65052283Y-31898127D01*
X65086031Y-31939979D01*
X65108947Y-31960398D01*
X65131721Y-31963517D01*
X65165044Y-31953472D01*
X65180686Y-31947789D01*
X65244458Y-31939404D01*
X65302860Y-31957378D01*
X65345736Y-31997982D01*
X65352701Y-32010929D01*
X65360287Y-32045224D01*
X65366141Y-32108427D01*
X65369989Y-32196060D01*
X65371557Y-32303640D01*
X65371579Y-32318944D01*
X65371579Y-32585526D01*
X65555395Y-32585526D01*
X65555395Y-31766710D01*
X65463487Y-31766710D01*
X65410493Y-31768094D01*
X65382885Y-31774252D01*
X65372676Y-31788194D01*
X65371579Y-31801344D01*
X65371579Y-31835978D01*
X65327550Y-31801344D01*
X65277063Y-31777716D01*
X65209240Y-31766033D01*
X65136833Y-31766447D01*
G36*
X65930008Y-31771673D02*
G01*
X65859573Y-31788780D01*
X65839213Y-31797844D01*
X65799747Y-31821583D01*
X65769459Y-31848321D01*
X65747048Y-31882699D01*
X65731214Y-31929360D01*
X65720657Y-31992946D01*
X65714076Y-32078099D01*
X65710172Y-32189462D01*
X65708690Y-32263849D01*
X65703235Y-32585526D01*
X65796420Y-32585526D01*
X65852953Y-32583156D01*
X65882078Y-32575055D01*
X65889606Y-32561451D01*
X65893580Y-32546741D01*
X65911348Y-32549554D01*
X65935560Y-32561348D01*
X65996172Y-32579427D01*
X66074071Y-32584299D01*
X66156005Y-32576330D01*
X66228719Y-32555889D01*
X66235241Y-32553051D01*
X66301698Y-32506365D01*
X66345509Y-32441464D01*
X66365668Y-32365600D01*
X66364128Y-32338344D01*
X66199655Y-32338344D01*
X66185163Y-32375024D01*
X66142195Y-32401309D01*
X66072871Y-32415417D01*
X66035823Y-32417290D01*
X65974081Y-32412494D01*
X65933040Y-32393858D01*
X65923027Y-32385000D01*
X65895900Y-32336806D01*
X65889606Y-32293092D01*
X65889606Y-32234605D01*
X65971070Y-32234605D01*
X66065766Y-32239432D01*
X66132187Y-32254613D01*
X66174154Y-32281200D01*
X66183551Y-32293052D01*
X66199655Y-32338344D01*
X66364128Y-32338344D01*
X66361171Y-32286026D01*
X66331015Y-32209995D01*
X66289869Y-32158612D01*
X66264948Y-32136397D01*
X66240552Y-32121798D01*
X66208809Y-32112897D01*
X66161848Y-32107775D01*
X66091796Y-32104515D01*
X66064010Y-32103577D01*
X65889606Y-32097879D01*
X65889862Y-32045091D01*
X65896616Y-31989603D01*
X65921036Y-31956052D01*
X65970370Y-31934618D01*
X65971694Y-31934236D01*
X66041640Y-31925808D01*
X66110086Y-31936816D01*
X66160953Y-31963585D01*
X66181363Y-31976803D01*
X66203346Y-31974974D01*
X66237174Y-31955824D01*
X66257039Y-31942308D01*
X66295894Y-31913432D01*
X66319962Y-31891786D01*
X66323824Y-31885589D01*
X66307921Y-31853519D01*
X66260935Y-31815219D01*
X66240527Y-31802297D01*
X66181857Y-31780041D01*
X66102788Y-31767432D01*
X66014959Y-31764600D01*
X65930008Y-31771673D01*
G37*
X65930008Y-31771673D02*
X65859573Y-31788780D01*
X65839213Y-31797844D01*
X65799747Y-31821583D01*
X65769459Y-31848321D01*
X65747048Y-31882699D01*
X65731214Y-31929360D01*
X65720657Y-31992946D01*
X65714076Y-32078099D01*
X65710172Y-32189462D01*
X65708690Y-32263849D01*
X65703235Y-32585526D01*
X65796420Y-32585526D01*
X65852953Y-32583156D01*
X65882078Y-32575055D01*
X65889606Y-32561451D01*
X65893580Y-32546741D01*
X65911348Y-32549554D01*
X65935560Y-32561348D01*
X65996172Y-32579427D01*
X66074071Y-32584299D01*
X66156005Y-32576330D01*
X66228719Y-32555889D01*
X66235241Y-32553051D01*
X66301698Y-32506365D01*
X66345509Y-32441464D01*
X66365668Y-32365600D01*
X66364128Y-32338344D01*
X66199655Y-32338344D01*
X66185163Y-32375024D01*
X66142195Y-32401309D01*
X66072871Y-32415417D01*
X66035823Y-32417290D01*
X65974081Y-32412494D01*
X65933040Y-32393858D01*
X65923027Y-32385000D01*
X65895900Y-32336806D01*
X65889606Y-32293092D01*
X65889606Y-32234605D01*
X65971070Y-32234605D01*
X66065766Y-32239432D01*
X66132187Y-32254613D01*
X66174154Y-32281200D01*
X66183551Y-32293052D01*
X66199655Y-32338344D01*
X66364128Y-32338344D01*
X66361171Y-32286026D01*
X66331015Y-32209995D01*
X66289869Y-32158612D01*
X66264948Y-32136397D01*
X66240552Y-32121798D01*
X66208809Y-32112897D01*
X66161848Y-32107775D01*
X66091796Y-32104515D01*
X66064010Y-32103577D01*
X65889606Y-32097879D01*
X65889862Y-32045091D01*
X65896616Y-31989603D01*
X65921036Y-31956052D01*
X65970370Y-31934618D01*
X65971694Y-31934236D01*
X66041640Y-31925808D01*
X66110086Y-31936816D01*
X66160953Y-31963585D01*
X66181363Y-31976803D01*
X66203346Y-31974974D01*
X66237174Y-31955824D01*
X66257039Y-31942308D01*
X66295894Y-31913432D01*
X66319962Y-31891786D01*
X66323824Y-31885589D01*
X66307921Y-31853519D01*
X66260935Y-31815219D01*
X66240527Y-31802297D01*
X66181857Y-31780041D01*
X66102788Y-31767432D01*
X66014959Y-31764600D01*
X65930008Y-31771673D01*
G36*
X66935870Y-31770104D02*
G01*
X66869780Y-31775066D01*
X66783374Y-32034079D01*
X66696969Y-32293092D01*
X66669876Y-32201184D01*
X66653572Y-32144384D01*
X66632125Y-32067625D01*
X66608965Y-31983251D01*
X66596720Y-31937993D01*
X66550656Y-31766710D01*
X66360613Y-31766710D01*
X66417418Y-31946349D01*
X66445393Y-32034704D01*
X66479187Y-32141281D01*
X66514480Y-32252454D01*
X66545987Y-32351579D01*
X66617750Y-32577171D01*
X66772714Y-32587253D01*
X66814730Y-32448528D01*
X66840641Y-32362351D01*
X66868917Y-32267347D01*
X66893631Y-32183441D01*
X66894606Y-32180102D01*
X66913065Y-32123248D01*
X66929351Y-32084456D01*
X66940758Y-32069787D01*
X66943102Y-32071483D01*
X66951329Y-32094225D01*
X66966962Y-32142940D01*
X66988096Y-32211502D01*
X67012830Y-32293785D01*
X67026213Y-32339046D01*
X67098689Y-32585526D01*
X67252505Y-32585526D01*
X67375469Y-32197006D01*
X67410012Y-32088022D01*
X67441479Y-31989048D01*
X67468384Y-31904736D01*
X67489241Y-31839734D01*
X67502562Y-31798692D01*
X67506612Y-31786701D01*
X67503406Y-31774423D01*
X67478235Y-31769046D01*
X67425854Y-31769584D01*
X67417655Y-31769990D01*
X67320518Y-31775066D01*
X67256900Y-32009013D01*
X67233516Y-32094333D01*
X67212619Y-32169335D01*
X67196049Y-32227507D01*
X67185646Y-32262337D01*
X67183724Y-32268016D01*
X67175759Y-32261486D01*
X67159696Y-32227654D01*
X67137379Y-32171127D01*
X67110655Y-32096510D01*
X67088063Y-32029107D01*
X67001959Y-31765143D01*
X66935870Y-31770104D01*
G37*
X66935870Y-31770104D02*
X66869780Y-31775066D01*
X66783374Y-32034079D01*
X66696969Y-32293092D01*
X66669876Y-32201184D01*
X66653572Y-32144384D01*
X66632125Y-32067625D01*
X66608965Y-31983251D01*
X66596720Y-31937993D01*
X66550656Y-31766710D01*
X66360613Y-31766710D01*
X66417418Y-31946349D01*
X66445393Y-32034704D01*
X66479187Y-32141281D01*
X66514480Y-32252454D01*
X66545987Y-32351579D01*
X66617750Y-32577171D01*
X66772714Y-32587253D01*
X66814730Y-32448528D01*
X66840641Y-32362351D01*
X66868917Y-32267347D01*
X66893631Y-32183441D01*
X66894606Y-32180102D01*
X66913065Y-32123248D01*
X66929351Y-32084456D01*
X66940758Y-32069787D01*
X66943102Y-32071483D01*
X66951329Y-32094225D01*
X66966962Y-32142940D01*
X66988096Y-32211502D01*
X67012830Y-32293785D01*
X67026213Y-32339046D01*
X67098689Y-32585526D01*
X67252505Y-32585526D01*
X67375469Y-32197006D01*
X67410012Y-32088022D01*
X67441479Y-31989048D01*
X67468384Y-31904736D01*
X67489241Y-31839734D01*
X67502562Y-31798692D01*
X67506612Y-31786701D01*
X67503406Y-31774423D01*
X67478235Y-31769046D01*
X67425854Y-31769584D01*
X67417655Y-31769990D01*
X67320518Y-31775066D01*
X67256900Y-32009013D01*
X67233516Y-32094333D01*
X67212619Y-32169335D01*
X67196049Y-32227507D01*
X67185646Y-32262337D01*
X67183724Y-32268016D01*
X67175759Y-32261486D01*
X67159696Y-32227654D01*
X67137379Y-32171127D01*
X67110655Y-32096510D01*
X67088063Y-32029107D01*
X67001959Y-31765143D01*
X66935870Y-31770104D01*
G36*
X67577369Y-32585526D02*
G01*
X67669277Y-32585526D01*
X67722623Y-32583962D01*
X67750407Y-32577485D01*
X67760410Y-32563418D01*
X67761185Y-32553906D01*
X67762872Y-32534832D01*
X67773510Y-32531174D01*
X67801465Y-32542932D01*
X67823205Y-32553906D01*
X67906668Y-32579911D01*
X67997396Y-32581416D01*
X68071158Y-32562021D01*
X68139846Y-32515165D01*
X68192206Y-32446004D01*
X68220878Y-32364427D01*
X68221608Y-32359866D01*
X68225868Y-32310101D01*
X68227986Y-32238659D01*
X68227816Y-32184626D01*
X68045280Y-32184626D01*
X68041051Y-32256441D01*
X68031432Y-32315634D01*
X68018410Y-32349060D01*
X67969144Y-32394740D01*
X67910650Y-32411115D01*
X67850329Y-32397873D01*
X67798783Y-32358373D01*
X67779262Y-32331807D01*
X67767848Y-32300106D01*
X67762502Y-32253832D01*
X67761185Y-32184328D01*
X67763542Y-32115499D01*
X67769767Y-32055026D01*
X67778592Y-32014556D01*
X67780063Y-32010929D01*
X67815653Y-31967802D01*
X67867600Y-31944124D01*
X67925722Y-31940301D01*
X67979840Y-31956738D01*
X68019774Y-31993840D01*
X68023917Y-32001222D01*
X68036884Y-32046239D01*
X68043948Y-32110967D01*
X68045280Y-32184626D01*
X68227816Y-32184626D01*
X68227729Y-32157230D01*
X68226528Y-32113405D01*
X68218355Y-32004988D01*
X68201370Y-31923588D01*
X68173113Y-31863412D01*
X68131128Y-31818666D01*
X68090368Y-31792400D01*
X68033419Y-31773935D01*
X67962589Y-31767602D01*
X67890059Y-31772760D01*
X67828014Y-31788769D01*
X67795232Y-31807920D01*
X67761185Y-31838732D01*
X67761185Y-31449210D01*
X67577369Y-31449210D01*
X67577369Y-32585526D01*
G37*
X67577369Y-32585526D02*
X67669277Y-32585526D01*
X67722623Y-32583962D01*
X67750407Y-32577485D01*
X67760410Y-32563418D01*
X67761185Y-32553906D01*
X67762872Y-32534832D01*
X67773510Y-32531174D01*
X67801465Y-32542932D01*
X67823205Y-32553906D01*
X67906668Y-32579911D01*
X67997396Y-32581416D01*
X68071158Y-32562021D01*
X68139846Y-32515165D01*
X68192206Y-32446004D01*
X68220878Y-32364427D01*
X68221608Y-32359866D01*
X68225868Y-32310101D01*
X68227986Y-32238659D01*
X68227816Y-32184626D01*
X68045280Y-32184626D01*
X68041051Y-32256441D01*
X68031432Y-32315634D01*
X68018410Y-32349060D01*
X67969144Y-32394740D01*
X67910650Y-32411115D01*
X67850329Y-32397873D01*
X67798783Y-32358373D01*
X67779262Y-32331807D01*
X67767848Y-32300106D01*
X67762502Y-32253832D01*
X67761185Y-32184328D01*
X67763542Y-32115499D01*
X67769767Y-32055026D01*
X67778592Y-32014556D01*
X67780063Y-32010929D01*
X67815653Y-31967802D01*
X67867600Y-31944124D01*
X67925722Y-31940301D01*
X67979840Y-31956738D01*
X68019774Y-31993840D01*
X68023917Y-32001222D01*
X68036884Y-32046239D01*
X68043948Y-32110967D01*
X68045280Y-32184626D01*
X68227816Y-32184626D01*
X68227729Y-32157230D01*
X68226528Y-32113405D01*
X68218355Y-32004988D01*
X68201370Y-31923588D01*
X68173113Y-31863412D01*
X68131128Y-31818666D01*
X68090368Y-31792400D01*
X68033419Y-31773935D01*
X67962589Y-31767602D01*
X67890059Y-31772760D01*
X67828014Y-31788769D01*
X67795232Y-31807920D01*
X67761185Y-31838732D01*
X67761185Y-31449210D01*
X67577369Y-31449210D01*
X67577369Y-32585526D01*
G36*
X68630119Y-31768486D02*
G01*
X68605112Y-31775982D01*
X68597050Y-31792451D01*
X68596711Y-31799886D01*
X68595264Y-31820594D01*
X68585302Y-31823845D01*
X68558388Y-31809648D01*
X68542402Y-31799948D01*
X68491967Y-31779175D01*
X68431728Y-31768904D01*
X68368566Y-31768114D01*
X68309363Y-31775786D01*
X68260998Y-31790898D01*
X68230354Y-31812432D01*
X68224311Y-31839366D01*
X68227361Y-31846660D01*
X68249594Y-31876937D01*
X68284070Y-31914175D01*
X68290306Y-31920195D01*
X68323167Y-31947875D01*
X68351520Y-31956818D01*
X68391173Y-31950576D01*
X68407058Y-31946429D01*
X68456491Y-31936467D01*
X68491248Y-31940947D01*
X68520600Y-31956746D01*
X68547487Y-31977949D01*
X68567290Y-32004614D01*
X68581052Y-32041827D01*
X68589816Y-32094673D01*
X68594626Y-32168237D01*
X68596526Y-32267605D01*
X68596711Y-32327601D01*
X68596711Y-32585526D01*
X68763816Y-32585526D01*
X68763816Y-31766710D01*
X68680264Y-31766710D01*
X68630119Y-31768486D01*
G37*
X68630119Y-31768486D02*
X68605112Y-31775982D01*
X68597050Y-31792451D01*
X68596711Y-31799886D01*
X68595264Y-31820594D01*
X68585302Y-31823845D01*
X68558388Y-31809648D01*
X68542402Y-31799948D01*
X68491967Y-31779175D01*
X68431728Y-31768904D01*
X68368566Y-31768114D01*
X68309363Y-31775786D01*
X68260998Y-31790898D01*
X68230354Y-31812432D01*
X68224311Y-31839366D01*
X68227361Y-31846660D01*
X68249594Y-31876937D01*
X68284070Y-31914175D01*
X68290306Y-31920195D01*
X68323167Y-31947875D01*
X68351520Y-31956818D01*
X68391173Y-31950576D01*
X68407058Y-31946429D01*
X68456491Y-31936467D01*
X68491248Y-31940947D01*
X68520600Y-31956746D01*
X68547487Y-31977949D01*
X68567290Y-32004614D01*
X68581052Y-32041827D01*
X68589816Y-32094673D01*
X68594626Y-32168237D01*
X68596526Y-32267605D01*
X68596711Y-32327601D01*
X68596711Y-32585526D01*
X68763816Y-32585526D01*
X68763816Y-31766710D01*
X68680264Y-31766710D01*
X68630119Y-31768486D01*
G36*
X69149543Y-31773184D02*
G01*
X69070930Y-31794160D01*
X69011084Y-31832180D01*
X68968853Y-31881978D01*
X68955725Y-31903230D01*
X68946032Y-31925492D01*
X68939256Y-31953970D01*
X68934877Y-31993871D01*
X68932376Y-32050401D01*
X68931232Y-32128767D01*
X68930928Y-32234176D01*
X68930922Y-32262142D01*
X68930922Y-32585526D01*
X69011132Y-32585526D01*
X69062294Y-32581943D01*
X69100123Y-32572866D01*
X69109601Y-32567268D01*
X69135512Y-32557606D01*
X69161976Y-32567268D01*
X69205548Y-32579330D01*
X69268840Y-32584185D01*
X69338990Y-32582078D01*
X69403140Y-32573256D01*
X69440593Y-32561937D01*
X69513067Y-32515412D01*
X69558360Y-32450846D01*
X69578722Y-32365000D01*
X69578912Y-32362796D01*
X69577125Y-32324713D01*
X69415527Y-32324713D01*
X69401399Y-32368030D01*
X69378388Y-32392408D01*
X69332196Y-32410845D01*
X69271225Y-32418205D01*
X69209051Y-32414583D01*
X69159249Y-32400074D01*
X69145297Y-32390765D01*
X69120915Y-32347753D01*
X69114737Y-32298857D01*
X69114737Y-32234605D01*
X69207182Y-32234605D01*
X69295005Y-32241366D01*
X69361582Y-32260520D01*
X69402998Y-32290376D01*
X69415527Y-32324713D01*
X69577125Y-32324713D01*
X69574510Y-32269004D01*
X69543576Y-32194847D01*
X69485419Y-32138767D01*
X69477380Y-32133665D01*
X69442837Y-32117055D01*
X69400082Y-32106996D01*
X69340314Y-32102107D01*
X69269310Y-32100983D01*
X69114737Y-32100921D01*
X69114737Y-32036125D01*
X69121294Y-31985850D01*
X69138025Y-31952169D01*
X69139984Y-31950376D01*
X69177217Y-31935642D01*
X69233420Y-31929931D01*
X69295533Y-31932737D01*
X69350490Y-31943556D01*
X69383101Y-31959782D01*
X69400772Y-31972780D01*
X69419431Y-31975262D01*
X69445181Y-31964613D01*
X69484127Y-31938218D01*
X69542370Y-31893465D01*
X69547716Y-31889273D01*
X69544977Y-31873760D01*
X69522124Y-31847960D01*
X69487391Y-31819289D01*
X69449010Y-31795166D01*
X69436952Y-31789470D01*
X69392966Y-31778103D01*
X69328513Y-31769995D01*
X69256503Y-31766743D01*
X69253136Y-31766736D01*
X69149543Y-31773184D01*
G37*
X69149543Y-31773184D02*
X69070930Y-31794160D01*
X69011084Y-31832180D01*
X68968853Y-31881978D01*
X68955725Y-31903230D01*
X68946032Y-31925492D01*
X68939256Y-31953970D01*
X68934877Y-31993871D01*
X68932376Y-32050401D01*
X68931232Y-32128767D01*
X68930928Y-32234176D01*
X68930922Y-32262142D01*
X68930922Y-32585526D01*
X69011132Y-32585526D01*
X69062294Y-32581943D01*
X69100123Y-32572866D01*
X69109601Y-32567268D01*
X69135512Y-32557606D01*
X69161976Y-32567268D01*
X69205548Y-32579330D01*
X69268840Y-32584185D01*
X69338990Y-32582078D01*
X69403140Y-32573256D01*
X69440593Y-32561937D01*
X69513067Y-32515412D01*
X69558360Y-32450846D01*
X69578722Y-32365000D01*
X69578912Y-32362796D01*
X69577125Y-32324713D01*
X69415527Y-32324713D01*
X69401399Y-32368030D01*
X69378388Y-32392408D01*
X69332196Y-32410845D01*
X69271225Y-32418205D01*
X69209051Y-32414583D01*
X69159249Y-32400074D01*
X69145297Y-32390765D01*
X69120915Y-32347753D01*
X69114737Y-32298857D01*
X69114737Y-32234605D01*
X69207182Y-32234605D01*
X69295005Y-32241366D01*
X69361582Y-32260520D01*
X69402998Y-32290376D01*
X69415527Y-32324713D01*
X69577125Y-32324713D01*
X69574510Y-32269004D01*
X69543576Y-32194847D01*
X69485419Y-32138767D01*
X69477380Y-32133665D01*
X69442837Y-32117055D01*
X69400082Y-32106996D01*
X69340314Y-32102107D01*
X69269310Y-32100983D01*
X69114737Y-32100921D01*
X69114737Y-32036125D01*
X69121294Y-31985850D01*
X69138025Y-31952169D01*
X69139984Y-31950376D01*
X69177217Y-31935642D01*
X69233420Y-31929931D01*
X69295533Y-31932737D01*
X69350490Y-31943556D01*
X69383101Y-31959782D01*
X69400772Y-31972780D01*
X69419431Y-31975262D01*
X69445181Y-31964613D01*
X69484127Y-31938218D01*
X69542370Y-31893465D01*
X69547716Y-31889273D01*
X69544977Y-31873760D01*
X69522124Y-31847960D01*
X69487391Y-31819289D01*
X69449010Y-31795166D01*
X69436952Y-31789470D01*
X69392966Y-31778103D01*
X69328513Y-31769995D01*
X69256503Y-31766743D01*
X69253136Y-31766736D01*
X69149543Y-31773184D01*
G36*
X69846640Y-30527468D02*
G01*
X69811408Y-30544874D01*
X69767960Y-30575206D01*
X69736294Y-30608283D01*
X69714606Y-30649817D01*
X69701097Y-30705522D01*
X69693962Y-30781111D01*
X69691400Y-30882296D01*
X69691250Y-30925797D01*
X69691688Y-31021135D01*
X69693504Y-31089271D01*
X69697455Y-31136418D01*
X69704298Y-31168790D01*
X69714789Y-31192600D01*
X69725704Y-31208843D01*
X69795381Y-31277952D01*
X69877434Y-31319521D01*
X69965950Y-31332023D01*
X70055019Y-31313934D01*
X70083237Y-31301142D01*
X70150790Y-31265931D01*
X70150790Y-31817700D01*
X70101488Y-31792205D01*
X70036527Y-31772480D01*
X69956680Y-31767427D01*
X69876948Y-31776756D01*
X69816735Y-31797714D01*
X69766792Y-31837627D01*
X69724119Y-31894741D01*
X69720910Y-31900605D01*
X69707378Y-31928227D01*
X69697495Y-31956068D01*
X69690691Y-31989794D01*
X69686399Y-32035071D01*
X69684049Y-32097562D01*
X69683072Y-32182935D01*
X69682895Y-32279010D01*
X69682895Y-32585526D01*
X69866711Y-32585526D01*
X69866711Y-32020339D01*
X69918125Y-31977077D01*
X69971534Y-31942472D01*
X70022112Y-31936180D01*
X70072970Y-31952372D01*
X70100075Y-31968227D01*
X70120249Y-31990810D01*
X70134597Y-32024940D01*
X70144224Y-32075434D01*
X70150237Y-32147111D01*
X70153740Y-32244788D01*
X70154974Y-32309802D01*
X70159145Y-32577171D01*
X70246875Y-32582222D01*
X70334606Y-32587273D01*
X70334606Y-30928101D01*
X70150790Y-30928101D01*
X70146104Y-31020600D01*
X70130312Y-31084809D01*
X70100817Y-31124759D01*
X70055020Y-31144480D01*
X70008750Y-31148421D01*
X69956372Y-31143892D01*
X69921610Y-31126069D01*
X69899872Y-31102519D01*
X69882760Y-31077189D01*
X69872573Y-31048969D01*
X69868040Y-31009431D01*
X69867891Y-30950142D01*
X69869416Y-30900498D01*
X69872919Y-30825710D01*
X69878133Y-30776611D01*
X69886913Y-30745467D01*
X69901114Y-30724545D01*
X69914516Y-30712452D01*
X69970513Y-30686081D01*
X70036789Y-30681822D01*
X70074844Y-30690906D01*
X70112523Y-30723196D01*
X70137481Y-30786006D01*
X70149578Y-30878894D01*
X70150790Y-30928101D01*
X70334606Y-30928101D01*
X70334606Y-30513421D01*
X70242698Y-30513421D01*
X70187517Y-30515603D01*
X70159048Y-30523351D01*
X70150794Y-30538468D01*
X70150790Y-30538916D01*
X70146960Y-30553720D01*
X70130067Y-30552039D01*
X70096481Y-30535772D01*
X70018222Y-30510887D01*
X69930173Y-30508271D01*
X69846640Y-30527468D01*
G37*
X69846640Y-30527468D02*
X69811408Y-30544874D01*
X69767960Y-30575206D01*
X69736294Y-30608283D01*
X69714606Y-30649817D01*
X69701097Y-30705522D01*
X69693962Y-30781111D01*
X69691400Y-30882296D01*
X69691250Y-30925797D01*
X69691688Y-31021135D01*
X69693504Y-31089271D01*
X69697455Y-31136418D01*
X69704298Y-31168790D01*
X69714789Y-31192600D01*
X69725704Y-31208843D01*
X69795381Y-31277952D01*
X69877434Y-31319521D01*
X69965950Y-31332023D01*
X70055019Y-31313934D01*
X70083237Y-31301142D01*
X70150790Y-31265931D01*
X70150790Y-31817700D01*
X70101488Y-31792205D01*
X70036527Y-31772480D01*
X69956680Y-31767427D01*
X69876948Y-31776756D01*
X69816735Y-31797714D01*
X69766792Y-31837627D01*
X69724119Y-31894741D01*
X69720910Y-31900605D01*
X69707378Y-31928227D01*
X69697495Y-31956068D01*
X69690691Y-31989794D01*
X69686399Y-32035071D01*
X69684049Y-32097562D01*
X69683072Y-32182935D01*
X69682895Y-32279010D01*
X69682895Y-32585526D01*
X69866711Y-32585526D01*
X69866711Y-32020339D01*
X69918125Y-31977077D01*
X69971534Y-31942472D01*
X70022112Y-31936180D01*
X70072970Y-31952372D01*
X70100075Y-31968227D01*
X70120249Y-31990810D01*
X70134597Y-32024940D01*
X70144224Y-32075434D01*
X70150237Y-32147111D01*
X70153740Y-32244788D01*
X70154974Y-32309802D01*
X70159145Y-32577171D01*
X70246875Y-32582222D01*
X70334606Y-32587273D01*
X70334606Y-30928101D01*
X70150790Y-30928101D01*
X70146104Y-31020600D01*
X70130312Y-31084809D01*
X70100817Y-31124759D01*
X70055020Y-31144480D01*
X70008750Y-31148421D01*
X69956372Y-31143892D01*
X69921610Y-31126069D01*
X69899872Y-31102519D01*
X69882760Y-31077189D01*
X69872573Y-31048969D01*
X69868040Y-31009431D01*
X69867891Y-30950142D01*
X69869416Y-30900498D01*
X69872919Y-30825710D01*
X69878133Y-30776611D01*
X69886913Y-30745467D01*
X69901114Y-30724545D01*
X69914516Y-30712452D01*
X69970513Y-30686081D01*
X70036789Y-30681822D01*
X70074844Y-30690906D01*
X70112523Y-30723196D01*
X70137481Y-30786006D01*
X70149578Y-30878894D01*
X70150790Y-30928101D01*
X70334606Y-30928101D01*
X70334606Y-30513421D01*
X70242698Y-30513421D01*
X70187517Y-30515603D01*
X70159048Y-30523351D01*
X70150794Y-30538468D01*
X70150790Y-30538916D01*
X70146960Y-30553720D01*
X70130067Y-30552039D01*
X70096481Y-30535772D01*
X70018222Y-30510887D01*
X69930173Y-30508271D01*
X69846640Y-30527468D01*
D13*
X77520500Y-47095000D02*
X77520500Y-46795000D01*
X77220500Y-47095000D02*
X77520500Y-47095000D01*
X77220500Y-46795000D02*
X77220500Y-47095000D01*
X77520500Y-46795000D02*
X77220500Y-46795000D01*
X78120500Y-52795000D02*
X78120500Y-52345000D01*
X79970500Y-52795000D02*
X78120500Y-52795000D01*
X82520500Y-44995000D02*
X82270500Y-44995000D01*
X82520500Y-52795000D02*
X82270500Y-52795000D01*
X79970500Y-44995000D02*
X78120500Y-44995000D01*
X78120500Y-44995000D02*
X78120500Y-45445000D01*
D15*
X81922857Y-32202380D02*
X82256190Y-31726190D01*
X82494285Y-32202380D02*
X82494285Y-31202380D01*
X82113333Y-31202380D01*
X82018095Y-31250000D01*
X81970476Y-31297619D01*
X81922857Y-31392857D01*
X81922857Y-31535714D01*
X81970476Y-31630952D01*
X82018095Y-31678571D01*
X82113333Y-31726190D01*
X82494285Y-31726190D01*
X81541904Y-31297619D02*
X81494285Y-31250000D01*
X81399047Y-31202380D01*
X81160952Y-31202380D01*
X81065714Y-31250000D01*
X81018095Y-31297619D01*
X80970476Y-31392857D01*
X80970476Y-31488095D01*
X81018095Y-31630952D01*
X81589523Y-32202380D01*
X80970476Y-32202380D01*
X80637142Y-31202380D02*
X79970476Y-31202380D01*
X80399047Y-32202380D01*
X81922857Y-24582380D02*
X82256190Y-24106190D01*
X82494285Y-24582380D02*
X82494285Y-23582380D01*
X82113333Y-23582380D01*
X82018095Y-23630000D01*
X81970476Y-23677619D01*
X81922857Y-23772857D01*
X81922857Y-23915714D01*
X81970476Y-24010952D01*
X82018095Y-24058571D01*
X82113333Y-24106190D01*
X82494285Y-24106190D01*
X81541904Y-23677619D02*
X81494285Y-23630000D01*
X81399047Y-23582380D01*
X81160952Y-23582380D01*
X81065714Y-23630000D01*
X81018095Y-23677619D01*
X80970476Y-23772857D01*
X80970476Y-23868095D01*
X81018095Y-24010952D01*
X81589523Y-24582380D01*
X80970476Y-24582380D01*
X80399047Y-24010952D02*
X80494285Y-23963333D01*
X80541904Y-23915714D01*
X80589523Y-23820476D01*
X80589523Y-23772857D01*
X80541904Y-23677619D01*
X80494285Y-23630000D01*
X80399047Y-23582380D01*
X80208571Y-23582380D01*
X80113333Y-23630000D01*
X80065714Y-23677619D01*
X80018095Y-23772857D01*
X80018095Y-23820476D01*
X80065714Y-23915714D01*
X80113333Y-23963333D01*
X80208571Y-24010952D01*
X80399047Y-24010952D01*
X80494285Y-24058571D01*
X80541904Y-24106190D01*
X80589523Y-24201428D01*
X80589523Y-24391904D01*
X80541904Y-24487142D01*
X80494285Y-24534761D01*
X80399047Y-24582380D01*
X80208571Y-24582380D01*
X80113333Y-24534761D01*
X80065714Y-24487142D01*
X80018095Y-24391904D01*
X80018095Y-24201428D01*
X80065714Y-24106190D01*
X80113333Y-24058571D01*
X80208571Y-24010952D01*
%LPC*%
D16*
X66280000Y-90160000D03*
X63740000Y-91180000D03*
X66280000Y-92200000D03*
X63740000Y-93220000D03*
X66280000Y-94240000D03*
D17*
X68580000Y-86710000D03*
X68580000Y-98710000D03*
D16*
X63740000Y-95260000D03*
D18*
G36*
X32374504Y-49826204D02*
G01*
X32398773Y-49829804D01*
X32422571Y-49835765D01*
X32445671Y-49844030D01*
X32467849Y-49854520D01*
X32488893Y-49867133D01*
X32508598Y-49881747D01*
X32526777Y-49898223D01*
X32543253Y-49916402D01*
X32557867Y-49936107D01*
X32570480Y-49957151D01*
X32580970Y-49979329D01*
X32589235Y-50002429D01*
X32595196Y-50026227D01*
X32598796Y-50050496D01*
X32600000Y-50075000D01*
X32600000Y-51525000D01*
X32598796Y-51549504D01*
X32595196Y-51573773D01*
X32589235Y-51597571D01*
X32580970Y-51620671D01*
X32570480Y-51642849D01*
X32557867Y-51663893D01*
X32543253Y-51683598D01*
X32526777Y-51701777D01*
X32508598Y-51718253D01*
X32488893Y-51732867D01*
X32467849Y-51745480D01*
X32445671Y-51755970D01*
X32422571Y-51764235D01*
X32398773Y-51770196D01*
X32374504Y-51773796D01*
X32350000Y-51775000D01*
X31150000Y-51775000D01*
X31125496Y-51773796D01*
X31101227Y-51770196D01*
X31077429Y-51764235D01*
X31054329Y-51755970D01*
X31032151Y-51745480D01*
X31011107Y-51732867D01*
X30991402Y-51718253D01*
X30973223Y-51701777D01*
X30956747Y-51683598D01*
X30942133Y-51663893D01*
X30929520Y-51642849D01*
X30919030Y-51620671D01*
X30910765Y-51597571D01*
X30904804Y-51573773D01*
X30901204Y-51549504D01*
X30900000Y-51525000D01*
X30900000Y-50075000D01*
X30901204Y-50050496D01*
X30904804Y-50026227D01*
X30910765Y-50002429D01*
X30919030Y-49979329D01*
X30929520Y-49957151D01*
X30942133Y-49936107D01*
X30956747Y-49916402D01*
X30973223Y-49898223D01*
X30991402Y-49881747D01*
X31011107Y-49867133D01*
X31032151Y-49854520D01*
X31054329Y-49844030D01*
X31077429Y-49835765D01*
X31101227Y-49829804D01*
X31125496Y-49826204D01*
X31150000Y-49825000D01*
X32350000Y-49825000D01*
X32374504Y-49826204D01*
G37*
D19*
X34250000Y-50800000D03*
X36750000Y-50800000D03*
X39250000Y-50800000D03*
X41750000Y-50800000D03*
X44250000Y-50800000D03*
X46750000Y-50800000D03*
D20*
X62230000Y-84455000D03*
D21*
X64770000Y-84455000D03*
D22*
X70485000Y-63500000D03*
D23*
X70485000Y-58420000D03*
D16*
X37860000Y-59045000D03*
D17*
X33020000Y-55595000D03*
X33020000Y-67595000D03*
D16*
X35320000Y-60065000D03*
X37860000Y-61085000D03*
X35320000Y-62105000D03*
X37860000Y-63125000D03*
X35320000Y-64145000D03*
D24*
X33655000Y-27305000D03*
X32385000Y-27305000D03*
X33655000Y-26035000D03*
X32385000Y-26035000D03*
X33655000Y-24765000D03*
X32385000Y-24765000D03*
X33655000Y-23495000D03*
X32385000Y-23495000D03*
X33655000Y-22225000D03*
D25*
X32385000Y-22225000D03*
D18*
G36*
X23329603Y-37700963D02*
G01*
X23349018Y-37703843D01*
X23368057Y-37708612D01*
X23386537Y-37715224D01*
X23404279Y-37723616D01*
X23421114Y-37733706D01*
X23436879Y-37745398D01*
X23451421Y-37758579D01*
X23464602Y-37773121D01*
X23476294Y-37788886D01*
X23486384Y-37805721D01*
X23494776Y-37823463D01*
X23501388Y-37841943D01*
X23506157Y-37860982D01*
X23509037Y-37880397D01*
X23510000Y-37900000D01*
X23510000Y-38300000D01*
X23509037Y-38319603D01*
X23506157Y-38339018D01*
X23501388Y-38358057D01*
X23494776Y-38376537D01*
X23486384Y-38394279D01*
X23476294Y-38411114D01*
X23464602Y-38426879D01*
X23451421Y-38441421D01*
X23436879Y-38454602D01*
X23421114Y-38466294D01*
X23404279Y-38476384D01*
X23386537Y-38484776D01*
X23368057Y-38491388D01*
X23349018Y-38496157D01*
X23329603Y-38499037D01*
X23310000Y-38500000D01*
X22410000Y-38500000D01*
X22390397Y-38499037D01*
X22370982Y-38496157D01*
X22351943Y-38491388D01*
X22333463Y-38484776D01*
X22315721Y-38476384D01*
X22298886Y-38466294D01*
X22283121Y-38454602D01*
X22268579Y-38441421D01*
X22255398Y-38426879D01*
X22243706Y-38411114D01*
X22233616Y-38394279D01*
X22225224Y-38376537D01*
X22218612Y-38358057D01*
X22213843Y-38339018D01*
X22210963Y-38319603D01*
X22210000Y-38300000D01*
X22210000Y-37900000D01*
X22210963Y-37880397D01*
X22213843Y-37860982D01*
X22218612Y-37841943D01*
X22225224Y-37823463D01*
X22233616Y-37805721D01*
X22243706Y-37788886D01*
X22255398Y-37773121D01*
X22268579Y-37758579D01*
X22283121Y-37745398D01*
X22298886Y-37733706D01*
X22315721Y-37723616D01*
X22333463Y-37715224D01*
X22351943Y-37708612D01*
X22370982Y-37703843D01*
X22390397Y-37700963D01*
X22410000Y-37700000D01*
X23310000Y-37700000D01*
X23329603Y-37700963D01*
G37*
D26*
X22860000Y-39350000D03*
X22860000Y-40600000D03*
X22860000Y-41850000D03*
X22860000Y-43100000D03*
X22860000Y-44350000D03*
X22860000Y-45600000D03*
X22860000Y-46850000D03*
D20*
X35560000Y-116840000D03*
X33020000Y-116840000D03*
X30480000Y-116840000D03*
D21*
X27940000Y-116840000D03*
D20*
X35560000Y-106680000D03*
X33020000Y-106680000D03*
X30480000Y-106680000D03*
D21*
X27940000Y-106680000D03*
D20*
X35560000Y-110490000D03*
X33020000Y-110490000D03*
X30480000Y-110490000D03*
D21*
X27940000Y-110490000D03*
D20*
X35560000Y-102870000D03*
X33020000Y-102870000D03*
X30480000Y-102870000D03*
D21*
X27940000Y-102870000D03*
D20*
X35560000Y-99060000D03*
X33020000Y-99060000D03*
X30480000Y-99060000D03*
D21*
X27940000Y-99060000D03*
D20*
X35560000Y-85090000D03*
X33020000Y-85090000D03*
X30480000Y-85090000D03*
D21*
X27940000Y-85090000D03*
D20*
X35560000Y-81280000D03*
X33020000Y-81280000D03*
X30480000Y-81280000D03*
D21*
X27940000Y-81280000D03*
D20*
X67945000Y-116840000D03*
X70485000Y-116840000D03*
D21*
X73025000Y-116840000D03*
D20*
X67945000Y-109855000D03*
X70485000Y-109855000D03*
D21*
X73025000Y-109855000D03*
D20*
X44450000Y-59055000D03*
D21*
X41910000Y-59055000D03*
D20*
X44450000Y-62865000D03*
D21*
X41910000Y-62865000D03*
D27*
X78740000Y-31750000D03*
D28*
X78740000Y-39370000D03*
D27*
X76835000Y-24130000D03*
D28*
X76835000Y-31750000D03*
D20*
X40640000Y-73660000D03*
X40640000Y-71120000D03*
X38100000Y-73660000D03*
X38100000Y-71120000D03*
X35560000Y-73660000D03*
X35560000Y-71120000D03*
X33020000Y-73660000D03*
X33020000Y-71120000D03*
X30480000Y-73660000D03*
X30480000Y-71120000D03*
X27940000Y-73660000D03*
D21*
X27940000Y-71120000D03*
D20*
X57785000Y-60960000D03*
D21*
X57785000Y-63500000D03*
D29*
X23495000Y-22940000D03*
X23495000Y-25440000D03*
X23495000Y-27940000D03*
X23495000Y-30440000D03*
D18*
G36*
X24244504Y-32091204D02*
G01*
X24268773Y-32094804D01*
X24292571Y-32100765D01*
X24315671Y-32109030D01*
X24337849Y-32119520D01*
X24358893Y-32132133D01*
X24378598Y-32146747D01*
X24396777Y-32163223D01*
X24413253Y-32181402D01*
X24427867Y-32201107D01*
X24440480Y-32222151D01*
X24450970Y-32244329D01*
X24459235Y-32267429D01*
X24465196Y-32291227D01*
X24468796Y-32315496D01*
X24470000Y-32340000D01*
X24470000Y-33540000D01*
X24468796Y-33564504D01*
X24465196Y-33588773D01*
X24459235Y-33612571D01*
X24450970Y-33635671D01*
X24440480Y-33657849D01*
X24427867Y-33678893D01*
X24413253Y-33698598D01*
X24396777Y-33716777D01*
X24378598Y-33733253D01*
X24358893Y-33747867D01*
X24337849Y-33760480D01*
X24315671Y-33770970D01*
X24292571Y-33779235D01*
X24268773Y-33785196D01*
X24244504Y-33788796D01*
X24220000Y-33790000D01*
X22770000Y-33790000D01*
X22745496Y-33788796D01*
X22721227Y-33785196D01*
X22697429Y-33779235D01*
X22674329Y-33770970D01*
X22652151Y-33760480D01*
X22631107Y-33747867D01*
X22611402Y-33733253D01*
X22593223Y-33716777D01*
X22576747Y-33698598D01*
X22562133Y-33678893D01*
X22549520Y-33657849D01*
X22539030Y-33635671D01*
X22530765Y-33612571D01*
X22524804Y-33588773D01*
X22521204Y-33564504D01*
X22520000Y-33540000D01*
X22520000Y-32340000D01*
X22521204Y-32315496D01*
X22524804Y-32291227D01*
X22530765Y-32267429D01*
X22539030Y-32244329D01*
X22549520Y-32222151D01*
X22562133Y-32201107D01*
X22576747Y-32181402D01*
X22593223Y-32163223D01*
X22611402Y-32146747D01*
X22631107Y-32132133D01*
X22652151Y-32119520D01*
X22674329Y-32109030D01*
X22697429Y-32100765D01*
X22721227Y-32094804D01*
X22745496Y-32091204D01*
X22770000Y-32090000D01*
X24220000Y-32090000D01*
X24244504Y-32091204D01*
G37*
D30*
X81120500Y-45995000D03*
X81120500Y-51795000D03*
D31*
X81120500Y-52395000D03*
X81120500Y-45395000D03*
D32*
X81120500Y-47895000D03*
D33*
X78420500Y-51395000D03*
D34*
X78420500Y-48895000D03*
X78420500Y-49545000D03*
X78420500Y-50195000D03*
X78420500Y-47595000D03*
X78420500Y-48245000D03*
D33*
X78420500Y-46395000D03*
D32*
X81120500Y-49895000D03*
D25*
X78740000Y-89535000D03*
D24*
X77470000Y-89535000D03*
M02*
