G04 #@! TF.GenerationSoftware,KiCad,Pcbnew,(5.0.2)-1*
G04 #@! TF.CreationDate,2020-01-15T00:45:38+01:00*
G04 #@! TF.ProjectId,airMon,6169724d-6f6e-42e6-9b69-6361645f7063,0.1*
G04 #@! TF.SameCoordinates,Original*
G04 #@! TF.FileFunction,Legend,Bot*
G04 #@! TF.FilePolarity,Positive*
%FSLAX46Y46*%
G04 Gerber Fmt 4.6, Leading zero omitted, Abs format (unit mm)*
G04 Created by KiCad (PCBNEW (5.0.2)-1) date 15.01.2020 0:45:38*
%MOMM*%
%LPD*%
G01*
G04 APERTURE LIST*
%ADD10C,0.300000*%
%ADD11C,0.200000*%
%ADD12C,0.175000*%
%ADD13C,0.120000*%
%ADD14C,0.010000*%
%ADD15C,0.150000*%
%ADD16C,3.000000*%
%ADD17R,3.000000X3.000000*%
%ADD18C,1.500000*%
%ADD19C,2.800000*%
%ADD20R,1.700000X1.700000*%
%ADD21O,1.700000X1.700000*%
%ADD22R,1.000000X1.000000*%
%ADD23O,1.000000X1.000000*%
%ADD24C,0.100000*%
%ADD25C,0.800000*%
%ADD26O,0.800000X1.300000*%
%ADD27C,1.700000*%
%ADD28O,1.700000X1.950000*%
%ADD29O,1.400000X1.400000*%
%ADD30C,1.400000*%
%ADD31O,1.950000X1.700000*%
%ADD32R,1.900000X1.500000*%
%ADD33C,1.450000*%
%ADD34R,1.350000X0.381000*%
%ADD35O,1.900000X1.200000*%
%ADD36R,1.900000X1.200000*%
G04 APERTURE END LIST*
D10*
X33698571Y-30103571D02*
X32198571Y-30103571D01*
X32198571Y-30675000D01*
X32270000Y-30817857D01*
X32341428Y-30889285D01*
X32484285Y-30960714D01*
X32698571Y-30960714D01*
X32841428Y-30889285D01*
X32912857Y-30817857D01*
X32984285Y-30675000D01*
X32984285Y-30103571D01*
X33698571Y-31603571D02*
X32198571Y-31603571D01*
X33270000Y-32103571D01*
X32198571Y-32603571D01*
X33698571Y-32603571D01*
X33627142Y-33246428D02*
X33698571Y-33460714D01*
X33698571Y-33817857D01*
X33627142Y-33960714D01*
X33555714Y-34032142D01*
X33412857Y-34103571D01*
X33270000Y-34103571D01*
X33127142Y-34032142D01*
X33055714Y-33960714D01*
X32984285Y-33817857D01*
X32912857Y-33532142D01*
X32841428Y-33389285D01*
X32770000Y-33317857D01*
X32627142Y-33246428D01*
X32484285Y-33246428D01*
X32341428Y-33317857D01*
X32270000Y-33389285D01*
X32198571Y-33532142D01*
X32198571Y-33889285D01*
X32270000Y-34103571D01*
X32198571Y-34603571D02*
X32198571Y-35603571D01*
X33698571Y-34960714D01*
X32198571Y-36460714D02*
X32198571Y-36603571D01*
X32270000Y-36746428D01*
X32341428Y-36817857D01*
X32484285Y-36889285D01*
X32770000Y-36960714D01*
X33127142Y-36960714D01*
X33412857Y-36889285D01*
X33555714Y-36817857D01*
X33627142Y-36746428D01*
X33698571Y-36603571D01*
X33698571Y-36460714D01*
X33627142Y-36317857D01*
X33555714Y-36246428D01*
X33412857Y-36175000D01*
X33127142Y-36103571D01*
X32770000Y-36103571D01*
X32484285Y-36175000D01*
X32341428Y-36246428D01*
X32270000Y-36317857D01*
X32198571Y-36460714D01*
X32198571Y-37889285D02*
X32198571Y-38032142D01*
X32270000Y-38175000D01*
X32341428Y-38246428D01*
X32484285Y-38317857D01*
X32770000Y-38389285D01*
X33127142Y-38389285D01*
X33412857Y-38317857D01*
X33555714Y-38246428D01*
X33627142Y-38175000D01*
X33698571Y-38032142D01*
X33698571Y-37889285D01*
X33627142Y-37746428D01*
X33555714Y-37675000D01*
X33412857Y-37603571D01*
X33127142Y-37532142D01*
X32770000Y-37532142D01*
X32484285Y-37603571D01*
X32341428Y-37675000D01*
X32270000Y-37746428D01*
X32198571Y-37889285D01*
X32198571Y-38889285D02*
X32198571Y-39817857D01*
X32770000Y-39317857D01*
X32770000Y-39532142D01*
X32841428Y-39675000D01*
X32912857Y-39746428D01*
X33055714Y-39817857D01*
X33412857Y-39817857D01*
X33555714Y-39746428D01*
X33627142Y-39675000D01*
X33698571Y-39532142D01*
X33698571Y-39103571D01*
X33627142Y-38960714D01*
X33555714Y-38889285D01*
X73467857Y-22268571D02*
X73467857Y-20768571D01*
X73110714Y-20768571D01*
X72896428Y-20840000D01*
X72753571Y-20982857D01*
X72682142Y-21125714D01*
X72610714Y-21411428D01*
X72610714Y-21625714D01*
X72682142Y-21911428D01*
X72753571Y-22054285D01*
X72896428Y-22197142D01*
X73110714Y-22268571D01*
X73467857Y-22268571D01*
X71396428Y-22197142D02*
X71539285Y-22268571D01*
X71825000Y-22268571D01*
X71967857Y-22197142D01*
X72039285Y-22054285D01*
X72039285Y-21482857D01*
X71967857Y-21340000D01*
X71825000Y-21268571D01*
X71539285Y-21268571D01*
X71396428Y-21340000D01*
X71325000Y-21482857D01*
X71325000Y-21625714D01*
X72039285Y-21768571D01*
X70753571Y-22197142D02*
X70610714Y-22268571D01*
X70325000Y-22268571D01*
X70182142Y-22197142D01*
X70110714Y-22054285D01*
X70110714Y-21982857D01*
X70182142Y-21840000D01*
X70325000Y-21768571D01*
X70539285Y-21768571D01*
X70682142Y-21697142D01*
X70753571Y-21554285D01*
X70753571Y-21482857D01*
X70682142Y-21340000D01*
X70539285Y-21268571D01*
X70325000Y-21268571D01*
X70182142Y-21340000D01*
X69467857Y-22268571D02*
X69467857Y-21268571D01*
X69467857Y-20768571D02*
X69539285Y-20840000D01*
X69467857Y-20911428D01*
X69396428Y-20840000D01*
X69467857Y-20768571D01*
X69467857Y-20911428D01*
X68110714Y-21268571D02*
X68110714Y-22482857D01*
X68182142Y-22625714D01*
X68253571Y-22697142D01*
X68396428Y-22768571D01*
X68610714Y-22768571D01*
X68753571Y-22697142D01*
X68110714Y-22197142D02*
X68253571Y-22268571D01*
X68539285Y-22268571D01*
X68682142Y-22197142D01*
X68753571Y-22125714D01*
X68825000Y-21982857D01*
X68825000Y-21554285D01*
X68753571Y-21411428D01*
X68682142Y-21340000D01*
X68539285Y-21268571D01*
X68253571Y-21268571D01*
X68110714Y-21340000D01*
X67396428Y-21268571D02*
X67396428Y-22268571D01*
X67396428Y-21411428D02*
X67325000Y-21340000D01*
X67182142Y-21268571D01*
X66967857Y-21268571D01*
X66825000Y-21340000D01*
X66753571Y-21482857D01*
X66753571Y-22268571D01*
X65467857Y-22197142D02*
X65610714Y-22268571D01*
X65896428Y-22268571D01*
X66039285Y-22197142D01*
X66110714Y-22054285D01*
X66110714Y-21482857D01*
X66039285Y-21340000D01*
X65896428Y-21268571D01*
X65610714Y-21268571D01*
X65467857Y-21340000D01*
X65396428Y-21482857D01*
X65396428Y-21625714D01*
X66110714Y-21768571D01*
X64110714Y-22268571D02*
X64110714Y-20768571D01*
X64110714Y-22197142D02*
X64253571Y-22268571D01*
X64539285Y-22268571D01*
X64682142Y-22197142D01*
X64753571Y-22125714D01*
X64825000Y-21982857D01*
X64825000Y-21554285D01*
X64753571Y-21411428D01*
X64682142Y-21340000D01*
X64539285Y-21268571D01*
X64253571Y-21268571D01*
X64110714Y-21340000D01*
X62253571Y-22268571D02*
X62253571Y-20768571D01*
X62253571Y-21340000D02*
X62110714Y-21268571D01*
X61825000Y-21268571D01*
X61682142Y-21340000D01*
X61610714Y-21411428D01*
X61539285Y-21554285D01*
X61539285Y-21982857D01*
X61610714Y-22125714D01*
X61682142Y-22197142D01*
X61825000Y-22268571D01*
X62110714Y-22268571D01*
X62253571Y-22197142D01*
X61039285Y-21268571D02*
X60682142Y-22268571D01*
X60325000Y-21268571D02*
X60682142Y-22268571D01*
X60825000Y-22625714D01*
X60896428Y-22697142D01*
X61039285Y-22768571D01*
X58182142Y-20768571D02*
X58182142Y-21840000D01*
X58253571Y-22054285D01*
X58396428Y-22197142D01*
X58610714Y-22268571D01*
X58753571Y-22268571D01*
X57253571Y-22268571D02*
X57396428Y-22197142D01*
X57467857Y-22125714D01*
X57539285Y-21982857D01*
X57539285Y-21554285D01*
X57467857Y-21411428D01*
X57396428Y-21340000D01*
X57253571Y-21268571D01*
X57039285Y-21268571D01*
X56896428Y-21340000D01*
X56825000Y-21411428D01*
X56753571Y-21554285D01*
X56753571Y-21982857D01*
X56825000Y-22125714D01*
X56896428Y-22197142D01*
X57039285Y-22268571D01*
X57253571Y-22268571D01*
X57396428Y-20768571D02*
X57325000Y-20840000D01*
X57396428Y-20911428D01*
X57467857Y-20840000D01*
X57396428Y-20768571D01*
X57396428Y-20911428D01*
X56825000Y-20768571D02*
X56753571Y-20840000D01*
X56825000Y-20911428D01*
X56896428Y-20840000D01*
X56825000Y-20768571D01*
X56825000Y-20911428D01*
X56110714Y-22268571D02*
X56110714Y-21268571D01*
X56110714Y-21554285D02*
X56039285Y-21411428D01*
X55967857Y-21340000D01*
X55825000Y-21268571D01*
X55682142Y-21268571D01*
X54539285Y-21268571D02*
X54539285Y-22482857D01*
X54610714Y-22625714D01*
X54682142Y-22697142D01*
X54825000Y-22768571D01*
X55039285Y-22768571D01*
X55182142Y-22697142D01*
X54539285Y-22197142D02*
X54682142Y-22268571D01*
X54967857Y-22268571D01*
X55110714Y-22197142D01*
X55182142Y-22125714D01*
X55253571Y-21982857D01*
X55253571Y-21554285D01*
X55182142Y-21411428D01*
X55110714Y-21340000D01*
X54967857Y-21268571D01*
X54682142Y-21268571D01*
X54539285Y-21340000D01*
X52182142Y-21482857D02*
X51967857Y-21554285D01*
X51896428Y-21625714D01*
X51825000Y-21768571D01*
X51825000Y-21982857D01*
X51896428Y-22125714D01*
X51967857Y-22197142D01*
X52110714Y-22268571D01*
X52682142Y-22268571D01*
X52682142Y-20768571D01*
X52182142Y-20768571D01*
X52039285Y-20840000D01*
X51967857Y-20911428D01*
X51896428Y-21054285D01*
X51896428Y-21197142D01*
X51967857Y-21340000D01*
X52039285Y-21411428D01*
X52182142Y-21482857D01*
X52682142Y-21482857D01*
X50539285Y-22268571D02*
X50539285Y-21482857D01*
X50610714Y-21340000D01*
X50753571Y-21268571D01*
X51039285Y-21268571D01*
X51182142Y-21340000D01*
X50539285Y-22197142D02*
X50682142Y-22268571D01*
X51039285Y-22268571D01*
X51182142Y-22197142D01*
X51253571Y-22054285D01*
X51253571Y-21911428D01*
X51182142Y-21768571D01*
X51039285Y-21697142D01*
X50682142Y-21697142D01*
X50539285Y-21625714D01*
X49967857Y-21268571D02*
X49610714Y-22268571D01*
X49253571Y-21268571D02*
X49610714Y-22268571D01*
X49753571Y-22625714D01*
X49825000Y-22697142D01*
X49967857Y-22768571D01*
X48110714Y-22197142D02*
X48253571Y-22268571D01*
X48539285Y-22268571D01*
X48682142Y-22197142D01*
X48753571Y-22054285D01*
X48753571Y-21482857D01*
X48682142Y-21340000D01*
X48539285Y-21268571D01*
X48253571Y-21268571D01*
X48110714Y-21340000D01*
X48039285Y-21482857D01*
X48039285Y-21625714D01*
X48753571Y-21768571D01*
X47396428Y-22268571D02*
X47396428Y-21268571D01*
X47396428Y-21554285D02*
X47325000Y-21411428D01*
X47253571Y-21340000D01*
X47110714Y-21268571D01*
X46967857Y-21268571D01*
X56515000Y-59098571D02*
X56515000Y-57598571D01*
D11*
X59690000Y-65405000D02*
X57150000Y-65405000D01*
X59690000Y-67945000D02*
X59690000Y-65405000D01*
D10*
X58920000Y-65853571D02*
X58420000Y-67353571D01*
X57920000Y-65853571D01*
X60682142Y-70735000D02*
X59967857Y-70735000D01*
X60825000Y-71163571D02*
X60325000Y-69663571D01*
X59825000Y-71163571D01*
X59860714Y-58463571D02*
X60360714Y-57749285D01*
X60717857Y-58463571D02*
X60717857Y-56963571D01*
X60146428Y-56963571D01*
X60003571Y-57035000D01*
X59932142Y-57106428D01*
X59860714Y-57249285D01*
X59860714Y-57463571D01*
X59932142Y-57606428D01*
X60003571Y-57677857D01*
X60146428Y-57749285D01*
X60717857Y-57749285D01*
D11*
X37465000Y-112395000D02*
X37465000Y-118110000D01*
X26035000Y-112395000D02*
X26035000Y-118110000D01*
D10*
X72838571Y-47002142D02*
X74052857Y-47002142D01*
X74195714Y-47073571D01*
X74267142Y-47145000D01*
X74338571Y-47287857D01*
X74338571Y-47573571D01*
X74267142Y-47716428D01*
X74195714Y-47787857D01*
X74052857Y-47859285D01*
X72838571Y-47859285D01*
X74267142Y-48502142D02*
X74338571Y-48716428D01*
X74338571Y-49073571D01*
X74267142Y-49216428D01*
X74195714Y-49287857D01*
X74052857Y-49359285D01*
X73910000Y-49359285D01*
X73767142Y-49287857D01*
X73695714Y-49216428D01*
X73624285Y-49073571D01*
X73552857Y-48787857D01*
X73481428Y-48645000D01*
X73410000Y-48573571D01*
X73267142Y-48502142D01*
X73124285Y-48502142D01*
X72981428Y-48573571D01*
X72910000Y-48645000D01*
X72838571Y-48787857D01*
X72838571Y-49145000D01*
X72910000Y-49359285D01*
X73552857Y-50502142D02*
X73624285Y-50716428D01*
X73695714Y-50787857D01*
X73838571Y-50859285D01*
X74052857Y-50859285D01*
X74195714Y-50787857D01*
X74267142Y-50716428D01*
X74338571Y-50573571D01*
X74338571Y-50002142D01*
X72838571Y-50002142D01*
X72838571Y-50502142D01*
X72910000Y-50645000D01*
X72981428Y-50716428D01*
X73124285Y-50787857D01*
X73267142Y-50787857D01*
X73410000Y-50716428D01*
X73481428Y-50645000D01*
X73552857Y-50502142D01*
X73552857Y-50002142D01*
X78207142Y-58380714D02*
X78207142Y-59523571D01*
X78778571Y-58952142D02*
X77635714Y-58952142D01*
X78207142Y-63666428D02*
X78207142Y-64809285D01*
X79828571Y-57737857D02*
X79828571Y-57452142D01*
X79900000Y-57309285D01*
X79971428Y-57237857D01*
X80185714Y-57095000D01*
X80471428Y-57023571D01*
X81042857Y-57023571D01*
X81185714Y-57095000D01*
X81257142Y-57166428D01*
X81328571Y-57309285D01*
X81328571Y-57595000D01*
X81257142Y-57737857D01*
X81185714Y-57809285D01*
X81042857Y-57880714D01*
X80685714Y-57880714D01*
X80542857Y-57809285D01*
X80471428Y-57737857D01*
X80400000Y-57595000D01*
X80400000Y-57309285D01*
X80471428Y-57166428D01*
X80542857Y-57095000D01*
X80685714Y-57023571D01*
X80757142Y-59666428D02*
X80757142Y-60809285D01*
X79828571Y-62523571D02*
X79828571Y-63452142D01*
X80400000Y-62952142D01*
X80400000Y-63166428D01*
X80471428Y-63309285D01*
X80542857Y-63380714D01*
X80685714Y-63452142D01*
X81042857Y-63452142D01*
X81185714Y-63380714D01*
X81257142Y-63309285D01*
X81328571Y-63166428D01*
X81328571Y-62737857D01*
X81257142Y-62595000D01*
X81185714Y-62523571D01*
X79828571Y-64809285D02*
X79828571Y-64095000D01*
X80542857Y-64023571D01*
X80471428Y-64095000D01*
X80400000Y-64237857D01*
X80400000Y-64594999D01*
X80471428Y-64737857D01*
X80542857Y-64809285D01*
X80685714Y-64880714D01*
X81042857Y-64880714D01*
X81185714Y-64809285D01*
X81257142Y-64737857D01*
X81328571Y-64594999D01*
X81328571Y-64237857D01*
X81257142Y-64095000D01*
X81185714Y-64023571D01*
X79828571Y-65309285D02*
X81328571Y-65809285D01*
X79828571Y-66309285D01*
X77715000Y-69664285D02*
X77715000Y-70378571D01*
X78143571Y-69521428D02*
X76643571Y-70021428D01*
X78143571Y-70521428D01*
X77143571Y-71021428D02*
X78143571Y-71021428D01*
X77286428Y-71021428D02*
X77215000Y-71092857D01*
X77143571Y-71235714D01*
X77143571Y-71450000D01*
X77215000Y-71592857D01*
X77357857Y-71664285D01*
X78143571Y-71664285D01*
X78072142Y-72950000D02*
X78143571Y-72807142D01*
X78143571Y-72521428D01*
X78072142Y-72378571D01*
X77929285Y-72307142D01*
X77357857Y-72307142D01*
X77215000Y-72378571D01*
X77143571Y-72521428D01*
X77143571Y-72807142D01*
X77215000Y-72950000D01*
X77357857Y-73021428D01*
X77500714Y-73021428D01*
X77643571Y-72307142D01*
X78143571Y-73664285D02*
X77143571Y-73664285D01*
X77286428Y-73664285D02*
X77215000Y-73735714D01*
X77143571Y-73878571D01*
X77143571Y-74092857D01*
X77215000Y-74235714D01*
X77357857Y-74307142D01*
X78143571Y-74307142D01*
X77357857Y-74307142D02*
X77215000Y-74378571D01*
X77143571Y-74521428D01*
X77143571Y-74735714D01*
X77215000Y-74878571D01*
X77357857Y-74950000D01*
X78143571Y-74950000D01*
X78143571Y-75878571D02*
X78072142Y-75735714D01*
X78000714Y-75664285D01*
X77857857Y-75592857D01*
X77429285Y-75592857D01*
X77286428Y-75664285D01*
X77215000Y-75735714D01*
X77143571Y-75878571D01*
X77143571Y-76092857D01*
X77215000Y-76235714D01*
X77286428Y-76307142D01*
X77429285Y-76378571D01*
X77857857Y-76378571D01*
X78000714Y-76307142D01*
X78072142Y-76235714D01*
X78143571Y-76092857D01*
X78143571Y-75878571D01*
X78143571Y-77021428D02*
X77143571Y-77021428D01*
X77286428Y-77021428D02*
X77215000Y-77092857D01*
X77143571Y-77235714D01*
X77143571Y-77450000D01*
X77215000Y-77592857D01*
X77357857Y-77664285D01*
X78143571Y-77664285D01*
X77357857Y-77664285D02*
X77215000Y-77735714D01*
X77143571Y-77878571D01*
X77143571Y-78092857D01*
X77215000Y-78235714D01*
X77357857Y-78307142D01*
X78143571Y-78307142D01*
X78072142Y-79592857D02*
X78143571Y-79450000D01*
X78143571Y-79164285D01*
X78072142Y-79021428D01*
X77929285Y-78950000D01*
X77357857Y-78950000D01*
X77215000Y-79021428D01*
X77143571Y-79164285D01*
X77143571Y-79450000D01*
X77215000Y-79592857D01*
X77357857Y-79664285D01*
X77500714Y-79664285D01*
X77643571Y-78950000D01*
X77143571Y-80092857D02*
X77143571Y-80664285D01*
X76643571Y-80307142D02*
X77929285Y-80307142D01*
X78072142Y-80378571D01*
X78143571Y-80521428D01*
X78143571Y-80664285D01*
X78072142Y-81735714D02*
X78143571Y-81592857D01*
X78143571Y-81307142D01*
X78072142Y-81164285D01*
X77929285Y-81092857D01*
X77357857Y-81092857D01*
X77215000Y-81164285D01*
X77143571Y-81307142D01*
X77143571Y-81592857D01*
X77215000Y-81735714D01*
X77357857Y-81807142D01*
X77500714Y-81807142D01*
X77643571Y-81092857D01*
X78143571Y-82450000D02*
X77143571Y-82450000D01*
X77429285Y-82450000D02*
X77286428Y-82521428D01*
X77215000Y-82592857D01*
X77143571Y-82735714D01*
X77143571Y-82878571D01*
X79193571Y-73700000D02*
X80693571Y-74200000D01*
X79193571Y-74700000D01*
X80693571Y-75842857D02*
X79907857Y-75842857D01*
X79765000Y-75771428D01*
X79693571Y-75628571D01*
X79693571Y-75342857D01*
X79765000Y-75200000D01*
X80622142Y-75842857D02*
X80693571Y-75700000D01*
X80693571Y-75342857D01*
X80622142Y-75200000D01*
X80479285Y-75128571D01*
X80336428Y-75128571D01*
X80193571Y-75200000D01*
X80122142Y-75342857D01*
X80122142Y-75700000D01*
X80050714Y-75842857D01*
X79693571Y-76557142D02*
X80693571Y-76557142D01*
X79836428Y-76557142D02*
X79765000Y-76628571D01*
X79693571Y-76771428D01*
X79693571Y-76985714D01*
X79765000Y-77128571D01*
X79907857Y-77200000D01*
X80693571Y-77200000D01*
X80622142Y-78485714D02*
X80693571Y-78342857D01*
X80693571Y-78057142D01*
X80622142Y-77914285D01*
X80479285Y-77842857D01*
X79907857Y-77842857D01*
X79765000Y-77914285D01*
X79693571Y-78057142D01*
X79693571Y-78342857D01*
X79765000Y-78485714D01*
X79907857Y-78557142D01*
X80050714Y-78557142D01*
X80193571Y-77842857D01*
X78143571Y-90190000D02*
X77429285Y-89690000D01*
X78143571Y-89332857D02*
X76643571Y-89332857D01*
X76643571Y-89904285D01*
X76715000Y-90047142D01*
X76786428Y-90118571D01*
X76929285Y-90190000D01*
X77143571Y-90190000D01*
X77286428Y-90118571D01*
X77357857Y-90047142D01*
X77429285Y-89904285D01*
X77429285Y-89332857D01*
X78143571Y-91475714D02*
X77357857Y-91475714D01*
X77215000Y-91404285D01*
X77143571Y-91261428D01*
X77143571Y-90975714D01*
X77215000Y-90832857D01*
X78072142Y-91475714D02*
X78143571Y-91332857D01*
X78143571Y-90975714D01*
X78072142Y-90832857D01*
X77929285Y-90761428D01*
X77786428Y-90761428D01*
X77643571Y-90832857D01*
X77572142Y-90975714D01*
X77572142Y-91332857D01*
X77500714Y-91475714D01*
X78143571Y-92190000D02*
X77143571Y-92190000D01*
X76643571Y-92190000D02*
X76715000Y-92118571D01*
X76786428Y-92190000D01*
X76715000Y-92261428D01*
X76643571Y-92190000D01*
X76786428Y-92190000D01*
X77143571Y-92904285D02*
X78143571Y-92904285D01*
X77286428Y-92904285D02*
X77215000Y-92975714D01*
X77143571Y-93118571D01*
X77143571Y-93332857D01*
X77215000Y-93475714D01*
X77357857Y-93547142D01*
X78143571Y-93547142D01*
X79265000Y-89154285D02*
X79193571Y-89011428D01*
X79193571Y-88797142D01*
X79265000Y-88582857D01*
X79407857Y-88440000D01*
X79550714Y-88368571D01*
X79836428Y-88297142D01*
X80050714Y-88297142D01*
X80336428Y-88368571D01*
X80479285Y-88440000D01*
X80622142Y-88582857D01*
X80693571Y-88797142D01*
X80693571Y-88940000D01*
X80622142Y-89154285D01*
X80550714Y-89225714D01*
X80050714Y-89225714D01*
X80050714Y-88940000D01*
X80693571Y-90511428D02*
X79907857Y-90511428D01*
X79765000Y-90440000D01*
X79693571Y-90297142D01*
X79693571Y-90011428D01*
X79765000Y-89868571D01*
X80622142Y-90511428D02*
X80693571Y-90368571D01*
X80693571Y-90011428D01*
X80622142Y-89868571D01*
X80479285Y-89797142D01*
X80336428Y-89797142D01*
X80193571Y-89868571D01*
X80122142Y-90011428D01*
X80122142Y-90368571D01*
X80050714Y-90511428D01*
X79693571Y-91868571D02*
X80693571Y-91868571D01*
X79693571Y-91225714D02*
X80479285Y-91225714D01*
X80622142Y-91297142D01*
X80693571Y-91440000D01*
X80693571Y-91654285D01*
X80622142Y-91797142D01*
X80550714Y-91868571D01*
X79693571Y-93225714D02*
X80907857Y-93225714D01*
X81050714Y-93154285D01*
X81122142Y-93082857D01*
X81193571Y-92940000D01*
X81193571Y-92725714D01*
X81122142Y-92582857D01*
X80622142Y-93225714D02*
X80693571Y-93082857D01*
X80693571Y-92797142D01*
X80622142Y-92654285D01*
X80550714Y-92582857D01*
X80407857Y-92511428D01*
X79979285Y-92511428D01*
X79836428Y-92582857D01*
X79765000Y-92654285D01*
X79693571Y-92797142D01*
X79693571Y-93082857D01*
X79765000Y-93225714D01*
X80622142Y-94511428D02*
X80693571Y-94368571D01*
X80693571Y-94082857D01*
X80622142Y-93940000D01*
X80479285Y-93868571D01*
X79907857Y-93868571D01*
X79765000Y-93940000D01*
X79693571Y-94082857D01*
X79693571Y-94368571D01*
X79765000Y-94511428D01*
X79907857Y-94582857D01*
X80050714Y-94582857D01*
X80193571Y-93868571D01*
D11*
X66040000Y-107950000D02*
X66040000Y-118110000D01*
X74930000Y-107950000D02*
X66040000Y-107950000D01*
X74930000Y-118110000D02*
X74930000Y-107950000D01*
D10*
X67185000Y-114057857D02*
X67113571Y-113915000D01*
X67113571Y-113700714D01*
X67185000Y-113486428D01*
X67327857Y-113343571D01*
X67470714Y-113272142D01*
X67756428Y-113200714D01*
X67970714Y-113200714D01*
X68256428Y-113272142D01*
X68399285Y-113343571D01*
X68542142Y-113486428D01*
X68613571Y-113700714D01*
X68613571Y-113843571D01*
X68542142Y-114057857D01*
X68470714Y-114129285D01*
X67970714Y-114129285D01*
X67970714Y-113843571D01*
X71092142Y-113236428D02*
X71163571Y-113450714D01*
X71163571Y-113807857D01*
X71092142Y-113950714D01*
X71020714Y-114022142D01*
X70877857Y-114093571D01*
X70735000Y-114093571D01*
X70592142Y-114022142D01*
X70520714Y-113950714D01*
X70449285Y-113807857D01*
X70377857Y-113522142D01*
X70306428Y-113379285D01*
X70235000Y-113307857D01*
X70092142Y-113236428D01*
X69949285Y-113236428D01*
X69806428Y-113307857D01*
X69735000Y-113379285D01*
X69663571Y-113522142D01*
X69663571Y-113879285D01*
X69735000Y-114093571D01*
X72213571Y-113379285D02*
X72213571Y-112665000D01*
X72927857Y-112593571D01*
X72856428Y-112665000D01*
X72785000Y-112807857D01*
X72785000Y-113165000D01*
X72856428Y-113307857D01*
X72927857Y-113379285D01*
X73070714Y-113450714D01*
X73427857Y-113450714D01*
X73570714Y-113379285D01*
X73642142Y-113307857D01*
X73713571Y-113165000D01*
X73713571Y-112807857D01*
X73642142Y-112665000D01*
X73570714Y-112593571D01*
X72213571Y-113879285D02*
X73713571Y-114379285D01*
X72213571Y-114879285D01*
X77553571Y-110105000D02*
X76839285Y-110105000D01*
X77696428Y-110533571D02*
X77196428Y-109033571D01*
X76696428Y-110533571D01*
X75553571Y-109533571D02*
X75553571Y-110533571D01*
X75910714Y-108962142D02*
X76267857Y-110033571D01*
X75339285Y-110033571D01*
X77553571Y-117090000D02*
X76839285Y-117090000D01*
X77696428Y-117518571D02*
X77196428Y-116018571D01*
X76696428Y-117518571D01*
X76339285Y-116018571D02*
X75410714Y-116018571D01*
X75910714Y-116590000D01*
X75696428Y-116590000D01*
X75553571Y-116661428D01*
X75482142Y-116732857D01*
X75410714Y-116875714D01*
X75410714Y-117232857D01*
X75482142Y-117375714D01*
X75553571Y-117447142D01*
X75696428Y-117518571D01*
X76125000Y-117518571D01*
X76267857Y-117447142D01*
X76339285Y-117375714D01*
X28032142Y-113875000D02*
X28032142Y-115017857D01*
X28603571Y-114446428D02*
X27460714Y-114446428D01*
X31082142Y-112517857D02*
X31153571Y-112732142D01*
X31153571Y-113089285D01*
X31082142Y-113232142D01*
X31010714Y-113303571D01*
X30867857Y-113375000D01*
X30725000Y-113375000D01*
X30582142Y-113303571D01*
X30510714Y-113232142D01*
X30439285Y-113089285D01*
X30367857Y-112803571D01*
X30296428Y-112660714D01*
X30225000Y-112589285D01*
X30082142Y-112517857D01*
X29939285Y-112517857D01*
X29796428Y-112589285D01*
X29725000Y-112660714D01*
X29653571Y-112803571D01*
X29653571Y-113160714D01*
X29725000Y-113375000D01*
X29653571Y-113875000D02*
X31153571Y-114232142D01*
X30082142Y-114517857D01*
X31153571Y-114803571D01*
X29653571Y-115160714D01*
X32275000Y-115017857D02*
X32203571Y-114875000D01*
X32203571Y-114660714D01*
X32275000Y-114446428D01*
X32417857Y-114303571D01*
X32560714Y-114232142D01*
X32846428Y-114160714D01*
X33060714Y-114160714D01*
X33346428Y-114232142D01*
X33489285Y-114303571D01*
X33632142Y-114446428D01*
X33703571Y-114660714D01*
X33703571Y-114803571D01*
X33632142Y-115017857D01*
X33560714Y-115089285D01*
X33060714Y-115089285D01*
X33060714Y-114803571D01*
X34825000Y-115017857D02*
X34753571Y-114875000D01*
X34753571Y-114660714D01*
X34825000Y-114446428D01*
X34967857Y-114303571D01*
X35110714Y-114232142D01*
X35396428Y-114160714D01*
X35610714Y-114160714D01*
X35896428Y-114232142D01*
X36039285Y-114303571D01*
X36182142Y-114446428D01*
X36253571Y-114660714D01*
X36253571Y-114803571D01*
X36182142Y-115017857D01*
X36110714Y-115089285D01*
X35610714Y-115089285D01*
X35610714Y-114803571D01*
X28032142Y-96095000D02*
X28032142Y-97237857D01*
X28603571Y-96666428D02*
X27460714Y-96666428D01*
X29725000Y-97237857D02*
X29653571Y-97095000D01*
X29653571Y-96880714D01*
X29725000Y-96666428D01*
X29867857Y-96523571D01*
X30010714Y-96452142D01*
X30296428Y-96380714D01*
X30510714Y-96380714D01*
X30796428Y-96452142D01*
X30939285Y-96523571D01*
X31082142Y-96666428D01*
X31153571Y-96880714D01*
X31153571Y-97023571D01*
X31082142Y-97237857D01*
X31010714Y-97309285D01*
X30510714Y-97309285D01*
X30510714Y-97023571D01*
X33632142Y-93737857D02*
X33703571Y-93952142D01*
X33703571Y-94309285D01*
X33632142Y-94452142D01*
X33560714Y-94523571D01*
X33417857Y-94595000D01*
X33275000Y-94595000D01*
X33132142Y-94523571D01*
X33060714Y-94452142D01*
X32989285Y-94309285D01*
X32917857Y-94023571D01*
X32846428Y-93880714D01*
X32775000Y-93809285D01*
X32632142Y-93737857D01*
X32489285Y-93737857D01*
X32346428Y-93809285D01*
X32275000Y-93880714D01*
X32203571Y-94023571D01*
X32203571Y-94380714D01*
X32275000Y-94595000D01*
X33560714Y-96095000D02*
X33632142Y-96023571D01*
X33703571Y-95809285D01*
X33703571Y-95666428D01*
X33632142Y-95452142D01*
X33489285Y-95309285D01*
X33346428Y-95237857D01*
X33060714Y-95166428D01*
X32846428Y-95166428D01*
X32560714Y-95237857D01*
X32417857Y-95309285D01*
X32275000Y-95452142D01*
X32203571Y-95666428D01*
X32203571Y-95809285D01*
X32275000Y-96023571D01*
X32346428Y-96095000D01*
X33703571Y-97452142D02*
X33703571Y-96737857D01*
X32203571Y-96737857D01*
X36182142Y-93666428D02*
X36253571Y-93880714D01*
X36253571Y-94237857D01*
X36182142Y-94380714D01*
X36110714Y-94452142D01*
X35967857Y-94523571D01*
X35825000Y-94523571D01*
X35682142Y-94452142D01*
X35610714Y-94380714D01*
X35539285Y-94237857D01*
X35467857Y-93952142D01*
X35396428Y-93809285D01*
X35325000Y-93737857D01*
X35182142Y-93666428D01*
X35039285Y-93666428D01*
X34896428Y-93737857D01*
X34825000Y-93809285D01*
X34753571Y-93952142D01*
X34753571Y-94309285D01*
X34825000Y-94523571D01*
X36253571Y-95166428D02*
X34753571Y-95166428D01*
X34753571Y-95523571D01*
X34825000Y-95737857D01*
X34967857Y-95880714D01*
X35110714Y-95952142D01*
X35396428Y-96023571D01*
X35610714Y-96023571D01*
X35896428Y-95952142D01*
X36039285Y-95880714D01*
X36182142Y-95737857D01*
X36253571Y-95523571D01*
X36253571Y-95166428D01*
X35825000Y-96595000D02*
X35825000Y-97309285D01*
X36253571Y-96452142D02*
X34753571Y-96952142D01*
X36253571Y-97452142D01*
X28032142Y-86912142D02*
X28032142Y-88055000D01*
X28603571Y-87483571D02*
X27460714Y-87483571D01*
X29725000Y-87697857D02*
X29653571Y-87555000D01*
X29653571Y-87340714D01*
X29725000Y-87126428D01*
X29867857Y-86983571D01*
X30010714Y-86912142D01*
X30296428Y-86840714D01*
X30510714Y-86840714D01*
X30796428Y-86912142D01*
X30939285Y-86983571D01*
X31082142Y-87126428D01*
X31153571Y-87340714D01*
X31153571Y-87483571D01*
X31082142Y-87697857D01*
X31010714Y-87769285D01*
X30510714Y-87769285D01*
X30510714Y-87483571D01*
X33632142Y-86840714D02*
X33703571Y-87055000D01*
X33703571Y-87412142D01*
X33632142Y-87555000D01*
X33560714Y-87626428D01*
X33417857Y-87697857D01*
X33275000Y-87697857D01*
X33132142Y-87626428D01*
X33060714Y-87555000D01*
X32989285Y-87412142D01*
X32917857Y-87126428D01*
X32846428Y-86983571D01*
X32775000Y-86912142D01*
X32632142Y-86840714D01*
X32489285Y-86840714D01*
X32346428Y-86912142D01*
X32275000Y-86983571D01*
X32203571Y-87126428D01*
X32203571Y-87483571D01*
X32275000Y-87697857D01*
X33560714Y-89197857D02*
X33632142Y-89126428D01*
X33703571Y-88912142D01*
X33703571Y-88769285D01*
X33632142Y-88555000D01*
X33489285Y-88412142D01*
X33346428Y-88340714D01*
X33060714Y-88269285D01*
X32846428Y-88269285D01*
X32560714Y-88340714D01*
X32417857Y-88412142D01*
X32275000Y-88555000D01*
X32203571Y-88769285D01*
X32203571Y-88912142D01*
X32275000Y-89126428D01*
X32346428Y-89197857D01*
X33703571Y-90555000D02*
X33703571Y-89840714D01*
X32203571Y-89840714D01*
X36182142Y-86840714D02*
X36253571Y-87055000D01*
X36253571Y-87412142D01*
X36182142Y-87555000D01*
X36110714Y-87626428D01*
X35967857Y-87697857D01*
X35825000Y-87697857D01*
X35682142Y-87626428D01*
X35610714Y-87555000D01*
X35539285Y-87412142D01*
X35467857Y-87126428D01*
X35396428Y-86983571D01*
X35325000Y-86912142D01*
X35182142Y-86840714D01*
X35039285Y-86840714D01*
X34896428Y-86912142D01*
X34825000Y-86983571D01*
X34753571Y-87126428D01*
X34753571Y-87483571D01*
X34825000Y-87697857D01*
X36253571Y-88340714D02*
X34753571Y-88340714D01*
X34753571Y-88697857D01*
X34825000Y-88912142D01*
X34967857Y-89055000D01*
X35110714Y-89126428D01*
X35396428Y-89197857D01*
X35610714Y-89197857D01*
X35896428Y-89126428D01*
X36039285Y-89055000D01*
X36182142Y-88912142D01*
X36253571Y-88697857D01*
X36253571Y-88340714D01*
X35825000Y-89769285D02*
X35825000Y-90483571D01*
X36253571Y-89626428D02*
X34753571Y-90126428D01*
X36253571Y-90626428D01*
D11*
X26035000Y-79375000D02*
X26035000Y-112395000D01*
X37465000Y-79375000D02*
X26035000Y-79375000D01*
X37465000Y-112395000D02*
X37465000Y-79375000D01*
X26035000Y-112395000D02*
X37465000Y-112395000D01*
D10*
X56160000Y-81172857D02*
X55660000Y-81172857D01*
X55445714Y-81958571D02*
X56160000Y-81958571D01*
X56160000Y-80458571D01*
X55445714Y-80458571D01*
X54945714Y-80458571D02*
X53945714Y-81958571D01*
X53945714Y-80458571D02*
X54945714Y-81958571D01*
X52231428Y-81958571D02*
X52231428Y-80458571D01*
X51588571Y-80601428D02*
X51517142Y-80530000D01*
X51374285Y-80458571D01*
X51017142Y-80458571D01*
X50874285Y-80530000D01*
X50802857Y-80601428D01*
X50731428Y-80744285D01*
X50731428Y-80887142D01*
X50802857Y-81101428D01*
X51660000Y-81958571D01*
X50731428Y-81958571D01*
X49231428Y-81815714D02*
X49302857Y-81887142D01*
X49517142Y-81958571D01*
X49660000Y-81958571D01*
X49874285Y-81887142D01*
X50017142Y-81744285D01*
X50088571Y-81601428D01*
X50160000Y-81315714D01*
X50160000Y-81101428D01*
X50088571Y-80815714D01*
X50017142Y-80672857D01*
X49874285Y-80530000D01*
X49660000Y-80458571D01*
X49517142Y-80458571D01*
X49302857Y-80530000D01*
X49231428Y-80601428D01*
X48588571Y-81387142D02*
X47445714Y-81387142D01*
X46802857Y-80601428D02*
X46731428Y-80530000D01*
X46588571Y-80458571D01*
X46231428Y-80458571D01*
X46088571Y-80530000D01*
X46017142Y-80601428D01*
X45945714Y-80744285D01*
X45945714Y-80887142D01*
X46017142Y-81101428D01*
X46874285Y-81958571D01*
X45945714Y-81958571D01*
X43445714Y-80458571D02*
X44160000Y-80458571D01*
X44231428Y-81172857D01*
X44160000Y-81101428D01*
X44017142Y-81030000D01*
X43660000Y-81030000D01*
X43517142Y-81101428D01*
X43445714Y-81172857D01*
X43374285Y-81315714D01*
X43374285Y-81672857D01*
X43445714Y-81815714D01*
X43517142Y-81887142D01*
X43660000Y-81958571D01*
X44017142Y-81958571D01*
X44160000Y-81887142D01*
X44231428Y-81815714D01*
X42945714Y-80458571D02*
X42445714Y-81958571D01*
X41945714Y-80458571D01*
X40374285Y-81887142D02*
X40160000Y-81958571D01*
X39802857Y-81958571D01*
X39660000Y-81887142D01*
X39588571Y-81815714D01*
X39517142Y-81672857D01*
X39517142Y-81530000D01*
X39588571Y-81387142D01*
X39660000Y-81315714D01*
X39802857Y-81244285D01*
X40088571Y-81172857D01*
X40231428Y-81101428D01*
X40302857Y-81030000D01*
X40374285Y-80887142D01*
X40374285Y-80744285D01*
X40302857Y-80601428D01*
X40231428Y-80530000D01*
X40088571Y-80458571D01*
X39731428Y-80458571D01*
X39517142Y-80530000D01*
X39017142Y-80958571D02*
X38731428Y-81958571D01*
X38445714Y-81244285D01*
X38160000Y-81958571D01*
X37874285Y-80958571D01*
X52017142Y-84982857D02*
X51517142Y-84982857D01*
X51302857Y-85768571D02*
X52017142Y-85768571D01*
X52017142Y-84268571D01*
X51302857Y-84268571D01*
X50802857Y-84268571D02*
X49802857Y-85768571D01*
X49802857Y-84268571D02*
X50802857Y-85768571D01*
X48088571Y-85768571D02*
X48088571Y-84268571D01*
X47445714Y-84411428D02*
X47374285Y-84340000D01*
X47231428Y-84268571D01*
X46874285Y-84268571D01*
X46731428Y-84340000D01*
X46660000Y-84411428D01*
X46588571Y-84554285D01*
X46588571Y-84697142D01*
X46660000Y-84911428D01*
X47517142Y-85768571D01*
X46588571Y-85768571D01*
X45088571Y-85625714D02*
X45160000Y-85697142D01*
X45374285Y-85768571D01*
X45517142Y-85768571D01*
X45731428Y-85697142D01*
X45874285Y-85554285D01*
X45945714Y-85411428D01*
X46017142Y-85125714D01*
X46017142Y-84911428D01*
X45945714Y-84625714D01*
X45874285Y-84482857D01*
X45731428Y-84340000D01*
X45517142Y-84268571D01*
X45374285Y-84268571D01*
X45160000Y-84340000D01*
X45088571Y-84411428D01*
X44445714Y-85197142D02*
X43302857Y-85197142D01*
X42660000Y-84411428D02*
X42588571Y-84340000D01*
X42445714Y-84268571D01*
X42088571Y-84268571D01*
X41945714Y-84340000D01*
X41874285Y-84411428D01*
X41802857Y-84554285D01*
X41802857Y-84697142D01*
X41874285Y-84911428D01*
X42731428Y-85768571D01*
X41802857Y-85768571D01*
X39302857Y-84268571D02*
X40017142Y-84268571D01*
X40088571Y-84982857D01*
X40017142Y-84911428D01*
X39874285Y-84840000D01*
X39517142Y-84840000D01*
X39374285Y-84911428D01*
X39302857Y-84982857D01*
X39231428Y-85125714D01*
X39231428Y-85482857D01*
X39302857Y-85625714D01*
X39374285Y-85697142D01*
X39517142Y-85768571D01*
X39874285Y-85768571D01*
X40017142Y-85697142D01*
X40088571Y-85625714D01*
X38802857Y-84268571D02*
X38302857Y-85768571D01*
X37802857Y-84268571D01*
X59088571Y-99738571D02*
X59088571Y-98238571D01*
X58445714Y-98381428D02*
X58374285Y-98310000D01*
X58231428Y-98238571D01*
X57874285Y-98238571D01*
X57731428Y-98310000D01*
X57660000Y-98381428D01*
X57588571Y-98524285D01*
X57588571Y-98667142D01*
X57660000Y-98881428D01*
X58517142Y-99738571D01*
X57588571Y-99738571D01*
X56088571Y-99595714D02*
X56160000Y-99667142D01*
X56374285Y-99738571D01*
X56517142Y-99738571D01*
X56731428Y-99667142D01*
X56874285Y-99524285D01*
X56945714Y-99381428D01*
X57017142Y-99095714D01*
X57017142Y-98881428D01*
X56945714Y-98595714D01*
X56874285Y-98452857D01*
X56731428Y-98310000D01*
X56517142Y-98238571D01*
X56374285Y-98238571D01*
X56160000Y-98310000D01*
X56088571Y-98381428D01*
X55445714Y-99167142D02*
X54302857Y-99167142D01*
X53660000Y-98381428D02*
X53588571Y-98310000D01*
X53445714Y-98238571D01*
X53088571Y-98238571D01*
X52945714Y-98310000D01*
X52874285Y-98381428D01*
X52802857Y-98524285D01*
X52802857Y-98667142D01*
X52874285Y-98881428D01*
X53731428Y-99738571D01*
X52802857Y-99738571D01*
X50302857Y-98238571D02*
X51017142Y-98238571D01*
X51088571Y-98952857D01*
X51017142Y-98881428D01*
X50874285Y-98810000D01*
X50517142Y-98810000D01*
X50374285Y-98881428D01*
X50302857Y-98952857D01*
X50231428Y-99095714D01*
X50231428Y-99452857D01*
X50302857Y-99595714D01*
X50374285Y-99667142D01*
X50517142Y-99738571D01*
X50874285Y-99738571D01*
X51017142Y-99667142D01*
X51088571Y-99595714D01*
X49802857Y-98238571D02*
X49302857Y-99738571D01*
X48802857Y-98238571D01*
X47231428Y-99667142D02*
X47017142Y-99738571D01*
X46660000Y-99738571D01*
X46517142Y-99667142D01*
X46445714Y-99595714D01*
X46374285Y-99452857D01*
X46374285Y-99310000D01*
X46445714Y-99167142D01*
X46517142Y-99095714D01*
X46660000Y-99024285D01*
X46945714Y-98952857D01*
X47088571Y-98881428D01*
X47160000Y-98810000D01*
X47231428Y-98667142D01*
X47231428Y-98524285D01*
X47160000Y-98381428D01*
X47088571Y-98310000D01*
X46945714Y-98238571D01*
X46588571Y-98238571D01*
X46374285Y-98310000D01*
X45874285Y-98738571D02*
X45588571Y-99738571D01*
X45302857Y-99024285D01*
X45017142Y-99738571D01*
X44731428Y-98738571D01*
X44160000Y-99738571D02*
X44160000Y-98738571D01*
X44160000Y-98238571D02*
X44231428Y-98310000D01*
X44160000Y-98381428D01*
X44088571Y-98310000D01*
X44160000Y-98238571D01*
X44160000Y-98381428D01*
X43660000Y-98738571D02*
X43088571Y-98738571D01*
X43445714Y-98238571D02*
X43445714Y-99524285D01*
X43374285Y-99667142D01*
X43231428Y-99738571D01*
X43088571Y-99738571D01*
X41945714Y-99667142D02*
X42088571Y-99738571D01*
X42374285Y-99738571D01*
X42517142Y-99667142D01*
X42588571Y-99595714D01*
X42660000Y-99452857D01*
X42660000Y-99024285D01*
X42588571Y-98881428D01*
X42517142Y-98810000D01*
X42374285Y-98738571D01*
X42088571Y-98738571D01*
X41945714Y-98810000D01*
X41302857Y-99738571D02*
X41302857Y-98238571D01*
X40660000Y-99738571D02*
X40660000Y-98952857D01*
X40731428Y-98810000D01*
X40874285Y-98738571D01*
X41088571Y-98738571D01*
X41231428Y-98810000D01*
X41302857Y-98881428D01*
X39374285Y-99667142D02*
X39517142Y-99738571D01*
X39802857Y-99738571D01*
X39945714Y-99667142D01*
X40017142Y-99524285D01*
X40017142Y-98952857D01*
X39945714Y-98810000D01*
X39802857Y-98738571D01*
X39517142Y-98738571D01*
X39374285Y-98810000D01*
X39302857Y-98952857D01*
X39302857Y-99095714D01*
X40017142Y-99238571D01*
X38017142Y-99738571D02*
X38017142Y-98238571D01*
X38017142Y-99667142D02*
X38160000Y-99738571D01*
X38445714Y-99738571D01*
X38588571Y-99667142D01*
X38660000Y-99595714D01*
X38731428Y-99452857D01*
X38731428Y-99024285D01*
X38660000Y-98881428D01*
X38588571Y-98810000D01*
X38445714Y-98738571D01*
X38160000Y-98738571D01*
X38017142Y-98810000D01*
X48088571Y-103548571D02*
X48088571Y-102048571D01*
X47445714Y-102191428D02*
X47374285Y-102120000D01*
X47231428Y-102048571D01*
X46874285Y-102048571D01*
X46731428Y-102120000D01*
X46660000Y-102191428D01*
X46588571Y-102334285D01*
X46588571Y-102477142D01*
X46660000Y-102691428D01*
X47517142Y-103548571D01*
X46588571Y-103548571D01*
X45088571Y-103405714D02*
X45160000Y-103477142D01*
X45374285Y-103548571D01*
X45517142Y-103548571D01*
X45731428Y-103477142D01*
X45874285Y-103334285D01*
X45945714Y-103191428D01*
X46017142Y-102905714D01*
X46017142Y-102691428D01*
X45945714Y-102405714D01*
X45874285Y-102262857D01*
X45731428Y-102120000D01*
X45517142Y-102048571D01*
X45374285Y-102048571D01*
X45160000Y-102120000D01*
X45088571Y-102191428D01*
X44445714Y-102977142D02*
X43302857Y-102977142D01*
X42660000Y-102191428D02*
X42588571Y-102120000D01*
X42445714Y-102048571D01*
X42088571Y-102048571D01*
X41945714Y-102120000D01*
X41874285Y-102191428D01*
X41802857Y-102334285D01*
X41802857Y-102477142D01*
X41874285Y-102691428D01*
X42731428Y-103548571D01*
X41802857Y-103548571D01*
X39302857Y-102048571D02*
X40017142Y-102048571D01*
X40088571Y-102762857D01*
X40017142Y-102691428D01*
X39874285Y-102620000D01*
X39517142Y-102620000D01*
X39374285Y-102691428D01*
X39302857Y-102762857D01*
X39231428Y-102905714D01*
X39231428Y-103262857D01*
X39302857Y-103405714D01*
X39374285Y-103477142D01*
X39517142Y-103548571D01*
X39874285Y-103548571D01*
X40017142Y-103477142D01*
X40088571Y-103405714D01*
X38802857Y-102048571D02*
X38302857Y-103548571D01*
X37802857Y-102048571D01*
X50231428Y-107358571D02*
X50231428Y-105858571D01*
X49588571Y-106001428D02*
X49517142Y-105930000D01*
X49374285Y-105858571D01*
X49017142Y-105858571D01*
X48874285Y-105930000D01*
X48802857Y-106001428D01*
X48731428Y-106144285D01*
X48731428Y-106287142D01*
X48802857Y-106501428D01*
X49660000Y-107358571D01*
X48731428Y-107358571D01*
X47231428Y-107215714D02*
X47302857Y-107287142D01*
X47517142Y-107358571D01*
X47660000Y-107358571D01*
X47874285Y-107287142D01*
X48017142Y-107144285D01*
X48088571Y-107001428D01*
X48160000Y-106715714D01*
X48160000Y-106501428D01*
X48088571Y-106215714D01*
X48017142Y-106072857D01*
X47874285Y-105930000D01*
X47660000Y-105858571D01*
X47517142Y-105858571D01*
X47302857Y-105930000D01*
X47231428Y-106001428D01*
X46588571Y-106787142D02*
X45445714Y-106787142D01*
X43945714Y-107358571D02*
X44802857Y-107358571D01*
X44374285Y-107358571D02*
X44374285Y-105858571D01*
X44517142Y-106072857D01*
X44660000Y-106215714D01*
X44802857Y-106287142D01*
X42302857Y-105858571D02*
X41374285Y-105858571D01*
X41874285Y-106430000D01*
X41660000Y-106430000D01*
X41517142Y-106501428D01*
X41445714Y-106572857D01*
X41374285Y-106715714D01*
X41374285Y-107072857D01*
X41445714Y-107215714D01*
X41517142Y-107287142D01*
X41660000Y-107358571D01*
X42088571Y-107358571D01*
X42231428Y-107287142D01*
X42302857Y-107215714D01*
X40731428Y-107215714D02*
X40660000Y-107287142D01*
X40731428Y-107358571D01*
X40802857Y-107287142D01*
X40731428Y-107215714D01*
X40731428Y-107358571D01*
X40160000Y-105858571D02*
X39231428Y-105858571D01*
X39731428Y-106430000D01*
X39517142Y-106430000D01*
X39374285Y-106501428D01*
X39302857Y-106572857D01*
X39231428Y-106715714D01*
X39231428Y-107072857D01*
X39302857Y-107215714D01*
X39374285Y-107287142D01*
X39517142Y-107358571D01*
X39945714Y-107358571D01*
X40088571Y-107287142D01*
X40160000Y-107215714D01*
X38802857Y-105858571D02*
X38302857Y-107358571D01*
X37802857Y-105858571D01*
X61231428Y-111168571D02*
X61231428Y-109668571D01*
X60588571Y-109811428D02*
X60517142Y-109740000D01*
X60374285Y-109668571D01*
X60017142Y-109668571D01*
X59874285Y-109740000D01*
X59802857Y-109811428D01*
X59731428Y-109954285D01*
X59731428Y-110097142D01*
X59802857Y-110311428D01*
X60660000Y-111168571D01*
X59731428Y-111168571D01*
X58231428Y-111025714D02*
X58302857Y-111097142D01*
X58517142Y-111168571D01*
X58660000Y-111168571D01*
X58874285Y-111097142D01*
X59017142Y-110954285D01*
X59088571Y-110811428D01*
X59160000Y-110525714D01*
X59160000Y-110311428D01*
X59088571Y-110025714D01*
X59017142Y-109882857D01*
X58874285Y-109740000D01*
X58660000Y-109668571D01*
X58517142Y-109668571D01*
X58302857Y-109740000D01*
X58231428Y-109811428D01*
X57588571Y-110597142D02*
X56445714Y-110597142D01*
X54945714Y-111168571D02*
X55802857Y-111168571D01*
X55374285Y-111168571D02*
X55374285Y-109668571D01*
X55517142Y-109882857D01*
X55660000Y-110025714D01*
X55802857Y-110097142D01*
X53302857Y-109668571D02*
X52374285Y-109668571D01*
X52874285Y-110240000D01*
X52660000Y-110240000D01*
X52517142Y-110311428D01*
X52445714Y-110382857D01*
X52374285Y-110525714D01*
X52374285Y-110882857D01*
X52445714Y-111025714D01*
X52517142Y-111097142D01*
X52660000Y-111168571D01*
X53088571Y-111168571D01*
X53231428Y-111097142D01*
X53302857Y-111025714D01*
X51731428Y-111025714D02*
X51660000Y-111097142D01*
X51731428Y-111168571D01*
X51802857Y-111097142D01*
X51731428Y-111025714D01*
X51731428Y-111168571D01*
X51160000Y-109668571D02*
X50231428Y-109668571D01*
X50731428Y-110240000D01*
X50517142Y-110240000D01*
X50374285Y-110311428D01*
X50302857Y-110382857D01*
X50231428Y-110525714D01*
X50231428Y-110882857D01*
X50302857Y-111025714D01*
X50374285Y-111097142D01*
X50517142Y-111168571D01*
X50945714Y-111168571D01*
X51088571Y-111097142D01*
X51160000Y-111025714D01*
X49802857Y-109668571D02*
X49302857Y-111168571D01*
X48802857Y-109668571D01*
X47231428Y-111097142D02*
X47017142Y-111168571D01*
X46660000Y-111168571D01*
X46517142Y-111097142D01*
X46445714Y-111025714D01*
X46374285Y-110882857D01*
X46374285Y-110740000D01*
X46445714Y-110597142D01*
X46517142Y-110525714D01*
X46660000Y-110454285D01*
X46945714Y-110382857D01*
X47088571Y-110311428D01*
X47160000Y-110240000D01*
X47231428Y-110097142D01*
X47231428Y-109954285D01*
X47160000Y-109811428D01*
X47088571Y-109740000D01*
X46945714Y-109668571D01*
X46588571Y-109668571D01*
X46374285Y-109740000D01*
X45874285Y-110168571D02*
X45588571Y-111168571D01*
X45302857Y-110454285D01*
X45017142Y-111168571D01*
X44731428Y-110168571D01*
X44160000Y-111168571D02*
X44160000Y-110168571D01*
X44160000Y-109668571D02*
X44231428Y-109740000D01*
X44160000Y-109811428D01*
X44088571Y-109740000D01*
X44160000Y-109668571D01*
X44160000Y-109811428D01*
X43660000Y-110168571D02*
X43088571Y-110168571D01*
X43445714Y-109668571D02*
X43445714Y-110954285D01*
X43374285Y-111097142D01*
X43231428Y-111168571D01*
X43088571Y-111168571D01*
X41945714Y-111097142D02*
X42088571Y-111168571D01*
X42374285Y-111168571D01*
X42517142Y-111097142D01*
X42588571Y-111025714D01*
X42660000Y-110882857D01*
X42660000Y-110454285D01*
X42588571Y-110311428D01*
X42517142Y-110240000D01*
X42374285Y-110168571D01*
X42088571Y-110168571D01*
X41945714Y-110240000D01*
X41302857Y-111168571D02*
X41302857Y-109668571D01*
X40660000Y-111168571D02*
X40660000Y-110382857D01*
X40731428Y-110240000D01*
X40874285Y-110168571D01*
X41088571Y-110168571D01*
X41231428Y-110240000D01*
X41302857Y-110311428D01*
X39374285Y-111097142D02*
X39517142Y-111168571D01*
X39802857Y-111168571D01*
X39945714Y-111097142D01*
X40017142Y-110954285D01*
X40017142Y-110382857D01*
X39945714Y-110240000D01*
X39802857Y-110168571D01*
X39517142Y-110168571D01*
X39374285Y-110240000D01*
X39302857Y-110382857D01*
X39302857Y-110525714D01*
X40017142Y-110668571D01*
X38017142Y-111168571D02*
X38017142Y-109668571D01*
X38017142Y-111097142D02*
X38160000Y-111168571D01*
X38445714Y-111168571D01*
X38588571Y-111097142D01*
X38660000Y-111025714D01*
X38731428Y-110882857D01*
X38731428Y-110454285D01*
X38660000Y-110311428D01*
X38588571Y-110240000D01*
X38445714Y-110168571D01*
X38160000Y-110168571D01*
X38017142Y-110240000D01*
X57874285Y-117447142D02*
X57660000Y-117518571D01*
X57302857Y-117518571D01*
X57160000Y-117447142D01*
X57088571Y-117375714D01*
X57017142Y-117232857D01*
X57017142Y-117090000D01*
X57088571Y-116947142D01*
X57160000Y-116875714D01*
X57302857Y-116804285D01*
X57588571Y-116732857D01*
X57731428Y-116661428D01*
X57802857Y-116590000D01*
X57874285Y-116447142D01*
X57874285Y-116304285D01*
X57802857Y-116161428D01*
X57731428Y-116090000D01*
X57588571Y-116018571D01*
X57231428Y-116018571D01*
X57017142Y-116090000D01*
X56517142Y-116018571D02*
X56160000Y-117518571D01*
X55874285Y-116447142D01*
X55588571Y-117518571D01*
X55231428Y-116018571D01*
X54660000Y-116947142D02*
X53517142Y-116947142D01*
X52302857Y-116732857D02*
X52088571Y-116804285D01*
X52017142Y-116875714D01*
X51945714Y-117018571D01*
X51945714Y-117232857D01*
X52017142Y-117375714D01*
X52088571Y-117447142D01*
X52231428Y-117518571D01*
X52802857Y-117518571D01*
X52802857Y-116018571D01*
X52302857Y-116018571D01*
X52160000Y-116090000D01*
X52088571Y-116161428D01*
X52017142Y-116304285D01*
X52017142Y-116447142D01*
X52088571Y-116590000D01*
X52160000Y-116661428D01*
X52302857Y-116732857D01*
X52802857Y-116732857D01*
X51302857Y-116018571D02*
X51302857Y-117232857D01*
X51231428Y-117375714D01*
X51160000Y-117447142D01*
X51017142Y-117518571D01*
X50731428Y-117518571D01*
X50588571Y-117447142D01*
X50517142Y-117375714D01*
X50445714Y-117232857D01*
X50445714Y-116018571D01*
X49802857Y-117447142D02*
X49588571Y-117518571D01*
X49231428Y-117518571D01*
X49088571Y-117447142D01*
X49017142Y-117375714D01*
X48945714Y-117232857D01*
X48945714Y-117090000D01*
X49017142Y-116947142D01*
X49088571Y-116875714D01*
X49231428Y-116804285D01*
X49517142Y-116732857D01*
X49660000Y-116661428D01*
X49731428Y-116590000D01*
X49802857Y-116447142D01*
X49802857Y-116304285D01*
X49731428Y-116161428D01*
X49660000Y-116090000D01*
X49517142Y-116018571D01*
X49160000Y-116018571D01*
X48945714Y-116090000D01*
X47231428Y-117447142D02*
X47017142Y-117518571D01*
X46660000Y-117518571D01*
X46517142Y-117447142D01*
X46445714Y-117375714D01*
X46374285Y-117232857D01*
X46374285Y-117090000D01*
X46445714Y-116947142D01*
X46517142Y-116875714D01*
X46660000Y-116804285D01*
X46945714Y-116732857D01*
X47088571Y-116661428D01*
X47160000Y-116590000D01*
X47231428Y-116447142D01*
X47231428Y-116304285D01*
X47160000Y-116161428D01*
X47088571Y-116090000D01*
X46945714Y-116018571D01*
X46588571Y-116018571D01*
X46374285Y-116090000D01*
X45874285Y-116518571D02*
X45588571Y-117518571D01*
X45302857Y-116804285D01*
X45017142Y-117518571D01*
X44731428Y-116518571D01*
X44160000Y-117518571D02*
X44160000Y-116518571D01*
X44160000Y-116018571D02*
X44231428Y-116090000D01*
X44160000Y-116161428D01*
X44088571Y-116090000D01*
X44160000Y-116018571D01*
X44160000Y-116161428D01*
X43660000Y-116518571D02*
X43088571Y-116518571D01*
X43445714Y-116018571D02*
X43445714Y-117304285D01*
X43374285Y-117447142D01*
X43231428Y-117518571D01*
X43088571Y-117518571D01*
X41945714Y-117447142D02*
X42088571Y-117518571D01*
X42374285Y-117518571D01*
X42517142Y-117447142D01*
X42588571Y-117375714D01*
X42660000Y-117232857D01*
X42660000Y-116804285D01*
X42588571Y-116661428D01*
X42517142Y-116590000D01*
X42374285Y-116518571D01*
X42088571Y-116518571D01*
X41945714Y-116590000D01*
X41302857Y-117518571D02*
X41302857Y-116018571D01*
X40660000Y-117518571D02*
X40660000Y-116732857D01*
X40731428Y-116590000D01*
X40874285Y-116518571D01*
X41088571Y-116518571D01*
X41231428Y-116590000D01*
X41302857Y-116661428D01*
X39374285Y-117447142D02*
X39517142Y-117518571D01*
X39802857Y-117518571D01*
X39945714Y-117447142D01*
X40017142Y-117304285D01*
X40017142Y-116732857D01*
X39945714Y-116590000D01*
X39802857Y-116518571D01*
X39517142Y-116518571D01*
X39374285Y-116590000D01*
X39302857Y-116732857D01*
X39302857Y-116875714D01*
X40017142Y-117018571D01*
X38017142Y-117518571D02*
X38017142Y-116018571D01*
X38017142Y-117447142D02*
X38160000Y-117518571D01*
X38445714Y-117518571D01*
X38588571Y-117447142D01*
X38660000Y-117375714D01*
X38731428Y-117232857D01*
X38731428Y-116804285D01*
X38660000Y-116661428D01*
X38588571Y-116590000D01*
X38445714Y-116518571D01*
X38160000Y-116518571D01*
X38017142Y-116590000D01*
X46585000Y-71640000D02*
X46727857Y-71568571D01*
X46942142Y-71568571D01*
X47156428Y-71640000D01*
X47299285Y-71782857D01*
X47370714Y-71925714D01*
X47442142Y-72211428D01*
X47442142Y-72425714D01*
X47370714Y-72711428D01*
X47299285Y-72854285D01*
X47156428Y-72997142D01*
X46942142Y-73068571D01*
X46799285Y-73068571D01*
X46585000Y-72997142D01*
X46513571Y-72925714D01*
X46513571Y-72425714D01*
X46799285Y-72425714D01*
X45870714Y-73068571D02*
X45870714Y-71568571D01*
X45299285Y-71568571D01*
X45156428Y-71640000D01*
X45085000Y-71711428D01*
X45013571Y-71854285D01*
X45013571Y-72068571D01*
X45085000Y-72211428D01*
X45156428Y-72282857D01*
X45299285Y-72354285D01*
X45870714Y-72354285D01*
X44370714Y-73068571D02*
X44370714Y-71568571D01*
X43370714Y-71568571D02*
X43085000Y-71568571D01*
X42942142Y-71640000D01*
X42799285Y-71782857D01*
X42727857Y-72068571D01*
X42727857Y-72568571D01*
X42799285Y-72854285D01*
X42942142Y-72997142D01*
X43085000Y-73068571D01*
X43370714Y-73068571D01*
X43513571Y-72997142D01*
X43656428Y-72854285D01*
X43727857Y-72568571D01*
X43727857Y-72068571D01*
X43656428Y-71782857D01*
X43513571Y-71640000D01*
X43370714Y-71568571D01*
D12*
X28281666Y-54364583D02*
X28281666Y-54031250D01*
X28615000Y-53997916D01*
X28581666Y-54031250D01*
X28548333Y-54097916D01*
X28548333Y-54264583D01*
X28581666Y-54331250D01*
X28615000Y-54364583D01*
X28681666Y-54397916D01*
X28848333Y-54397916D01*
X28915000Y-54364583D01*
X28948333Y-54331250D01*
X28981666Y-54264583D01*
X28981666Y-54097916D01*
X28948333Y-54031250D01*
X28915000Y-53997916D01*
X28281666Y-54597916D02*
X28981666Y-54831250D01*
X28281666Y-55064583D01*
X29540000Y-54964583D02*
X29506666Y-54897916D01*
X29506666Y-54797916D01*
X29540000Y-54697916D01*
X29606666Y-54631250D01*
X29673333Y-54597916D01*
X29806666Y-54564583D01*
X29906666Y-54564583D01*
X30040000Y-54597916D01*
X30106666Y-54631250D01*
X30173333Y-54697916D01*
X30206666Y-54797916D01*
X30206666Y-54864583D01*
X30173333Y-54964583D01*
X30140000Y-54997916D01*
X29906666Y-54997916D01*
X29906666Y-54864583D01*
X32656666Y-54331250D02*
X32323333Y-54097916D01*
X32656666Y-53931250D02*
X31956666Y-53931250D01*
X31956666Y-54197916D01*
X31990000Y-54264583D01*
X32023333Y-54297916D01*
X32090000Y-54331250D01*
X32190000Y-54331250D01*
X32256666Y-54297916D01*
X32290000Y-54264583D01*
X32323333Y-54197916D01*
X32323333Y-53931250D01*
X31956666Y-54564583D02*
X32656666Y-55031250D01*
X31956666Y-55031250D02*
X32656666Y-54564583D01*
X33181666Y-53997916D02*
X33181666Y-54397916D01*
X33881666Y-54197916D02*
X33181666Y-54197916D01*
X33181666Y-54564583D02*
X33881666Y-55031250D01*
X33181666Y-55031250D02*
X33881666Y-54564583D01*
D10*
X49164285Y-57193571D02*
X49164285Y-55693571D01*
X48592857Y-55693571D01*
X48450000Y-55765000D01*
X48378571Y-55836428D01*
X48307142Y-55979285D01*
X48307142Y-56193571D01*
X48378571Y-56336428D01*
X48450000Y-56407857D01*
X48592857Y-56479285D01*
X49164285Y-56479285D01*
X47664285Y-57193571D02*
X47664285Y-55693571D01*
X47164285Y-56765000D01*
X46664285Y-55693571D01*
X46664285Y-57193571D01*
X46021428Y-57122142D02*
X45807142Y-57193571D01*
X45450000Y-57193571D01*
X45307142Y-57122142D01*
X45235714Y-57050714D01*
X45164285Y-56907857D01*
X45164285Y-56765000D01*
X45235714Y-56622142D01*
X45307142Y-56550714D01*
X45450000Y-56479285D01*
X45735714Y-56407857D01*
X45878571Y-56336428D01*
X45950000Y-56265000D01*
X46021428Y-56122142D01*
X46021428Y-55979285D01*
X45950000Y-55836428D01*
X45878571Y-55765000D01*
X45735714Y-55693571D01*
X45378571Y-55693571D01*
X45164285Y-55765000D01*
X44664285Y-57193571D02*
X43878571Y-56193571D01*
X44664285Y-56193571D02*
X43878571Y-57193571D01*
X43021428Y-55693571D02*
X42878571Y-55693571D01*
X42735714Y-55765000D01*
X42664285Y-55836428D01*
X42592857Y-55979285D01*
X42521428Y-56265000D01*
X42521428Y-56622142D01*
X42592857Y-56907857D01*
X42664285Y-57050714D01*
X42735714Y-57122142D01*
X42878571Y-57193571D01*
X43021428Y-57193571D01*
X43164285Y-57122142D01*
X43235714Y-57050714D01*
X43307142Y-56907857D01*
X43378571Y-56622142D01*
X43378571Y-56265000D01*
X43307142Y-55979285D01*
X43235714Y-55836428D01*
X43164285Y-55765000D01*
X43021428Y-55693571D01*
X41592857Y-55693571D02*
X41450000Y-55693571D01*
X41307142Y-55765000D01*
X41235714Y-55836428D01*
X41164285Y-55979285D01*
X41092857Y-56265000D01*
X41092857Y-56622142D01*
X41164285Y-56907857D01*
X41235714Y-57050714D01*
X41307142Y-57122142D01*
X41450000Y-57193571D01*
X41592857Y-57193571D01*
X41735714Y-57122142D01*
X41807142Y-57050714D01*
X41878571Y-56907857D01*
X41950000Y-56622142D01*
X41950000Y-56265000D01*
X41878571Y-55979285D01*
X41807142Y-55836428D01*
X41735714Y-55765000D01*
X41592857Y-55693571D01*
X40592857Y-55693571D02*
X39664285Y-55693571D01*
X40164285Y-56265000D01*
X39950000Y-56265000D01*
X39807142Y-56336428D01*
X39735714Y-56407857D01*
X39664285Y-56550714D01*
X39664285Y-56907857D01*
X39735714Y-57050714D01*
X39807142Y-57122142D01*
X39950000Y-57193571D01*
X40378571Y-57193571D01*
X40521428Y-57122142D01*
X40592857Y-57050714D01*
D11*
X38735000Y-22860000D02*
X38735000Y-32385000D01*
X36195000Y-30480000D02*
X41275000Y-30480000D01*
X36195000Y-28575000D02*
X41275000Y-28575000D01*
X36195000Y-26670000D02*
X41275000Y-26670000D01*
X36195000Y-24765000D02*
X41275000Y-24765000D01*
X41275000Y-32385000D02*
X36195000Y-32385000D01*
X41275000Y-22860000D02*
X41275000Y-32385000D01*
X36195000Y-22860000D02*
X41275000Y-22860000D01*
X36195000Y-32385000D02*
X36195000Y-22860000D01*
X40218666Y-23338666D02*
X40752000Y-23338666D01*
X40805333Y-23872000D01*
X40752000Y-23818666D01*
X40645333Y-23765333D01*
X40378666Y-23765333D01*
X40272000Y-23818666D01*
X40218666Y-23872000D01*
X40165333Y-23978666D01*
X40165333Y-24245333D01*
X40218666Y-24352000D01*
X40272000Y-24405333D01*
X40378666Y-24458666D01*
X40645333Y-24458666D01*
X40752000Y-24405333D01*
X40805333Y-24352000D01*
X39845333Y-23338666D02*
X39472000Y-24458666D01*
X39098666Y-23338666D01*
X39258666Y-25272000D02*
X39365333Y-25218666D01*
X39525333Y-25218666D01*
X39685333Y-25272000D01*
X39792000Y-25378666D01*
X39845333Y-25485333D01*
X39898666Y-25698666D01*
X39898666Y-25858666D01*
X39845333Y-26072000D01*
X39792000Y-26178666D01*
X39685333Y-26285333D01*
X39525333Y-26338666D01*
X39418666Y-26338666D01*
X39258666Y-26285333D01*
X39205333Y-26232000D01*
X39205333Y-25858666D01*
X39418666Y-25858666D01*
X37805000Y-23312666D02*
X38338333Y-23312666D01*
X38391666Y-23846000D01*
X38338333Y-23792666D01*
X38231666Y-23739333D01*
X37965000Y-23739333D01*
X37858333Y-23792666D01*
X37805000Y-23846000D01*
X37751666Y-23952666D01*
X37751666Y-24219333D01*
X37805000Y-24326000D01*
X37858333Y-24379333D01*
X37965000Y-24432666D01*
X38231666Y-24432666D01*
X38338333Y-24379333D01*
X38391666Y-24326000D01*
X37431666Y-23312666D02*
X37058333Y-24432666D01*
X36685000Y-23312666D01*
X37751666Y-25246000D02*
X37858333Y-25192666D01*
X38018333Y-25192666D01*
X38178333Y-25246000D01*
X38285000Y-25352666D01*
X38338333Y-25459333D01*
X38391666Y-25672666D01*
X38391666Y-25832666D01*
X38338333Y-26046000D01*
X38285000Y-26152666D01*
X38178333Y-26259333D01*
X38018333Y-26312666D01*
X37911666Y-26312666D01*
X37751666Y-26259333D01*
X37698333Y-26206000D01*
X37698333Y-25832666D01*
X37911666Y-25832666D01*
X37698333Y-30072666D02*
X38071666Y-29539333D01*
X38338333Y-30072666D02*
X38338333Y-28952666D01*
X37911666Y-28952666D01*
X37805000Y-29006000D01*
X37751666Y-29059333D01*
X37698333Y-29166000D01*
X37698333Y-29326000D01*
X37751666Y-29432666D01*
X37805000Y-29486000D01*
X37911666Y-29539333D01*
X38338333Y-29539333D01*
X37325000Y-28952666D02*
X36578333Y-30072666D01*
X36578333Y-28952666D02*
X37325000Y-30072666D01*
X38498333Y-30832666D02*
X37858333Y-30832666D01*
X38178333Y-31952666D02*
X38178333Y-30832666D01*
X37591666Y-30832666D02*
X36845000Y-31952666D01*
X36845000Y-30832666D02*
X37591666Y-31952666D01*
D10*
X22197142Y-35969285D02*
X22268571Y-36183571D01*
X22268571Y-36540714D01*
X22197142Y-36683571D01*
X22125714Y-36755000D01*
X21982857Y-36826428D01*
X21840000Y-36826428D01*
X21697142Y-36755000D01*
X21625714Y-36683571D01*
X21554285Y-36540714D01*
X21482857Y-36255000D01*
X21411428Y-36112142D01*
X21340000Y-36040714D01*
X21197142Y-35969285D01*
X21054285Y-35969285D01*
X20911428Y-36040714D01*
X20840000Y-36112142D01*
X20768571Y-36255000D01*
X20768571Y-36612142D01*
X20840000Y-36826428D01*
X22268571Y-37469285D02*
X20768571Y-37469285D01*
X20768571Y-37826428D01*
X20840000Y-38040714D01*
X20982857Y-38183571D01*
X21125714Y-38255000D01*
X21411428Y-38326428D01*
X21625714Y-38326428D01*
X21911428Y-38255000D01*
X22054285Y-38183571D01*
X22197142Y-38040714D01*
X22268571Y-37826428D01*
X22268571Y-37469285D01*
X22197142Y-38897857D02*
X22268571Y-39112142D01*
X22268571Y-39469285D01*
X22197142Y-39612142D01*
X22125714Y-39683571D01*
X21982857Y-39755000D01*
X21840000Y-39755000D01*
X21697142Y-39683571D01*
X21625714Y-39612142D01*
X21554285Y-39469285D01*
X21482857Y-39183571D01*
X21411428Y-39040714D01*
X21340000Y-38969285D01*
X21197142Y-38897857D01*
X21054285Y-38897857D01*
X20911428Y-38969285D01*
X20840000Y-39040714D01*
X20768571Y-39183571D01*
X20768571Y-39540714D01*
X20840000Y-39755000D01*
X20768571Y-40683571D02*
X20768571Y-40826428D01*
X20840000Y-40969285D01*
X20911428Y-41040714D01*
X21054285Y-41112142D01*
X21340000Y-41183571D01*
X21697142Y-41183571D01*
X21982857Y-41112142D01*
X22125714Y-41040714D01*
X22197142Y-40969285D01*
X22268571Y-40826428D01*
X22268571Y-40683571D01*
X22197142Y-40540714D01*
X22125714Y-40469285D01*
X21982857Y-40397857D01*
X21697142Y-40326428D01*
X21340000Y-40326428D01*
X21054285Y-40397857D01*
X20911428Y-40469285D01*
X20840000Y-40540714D01*
X20768571Y-40683571D01*
X22268571Y-42612142D02*
X22268571Y-41755000D01*
X22268571Y-42183571D02*
X20768571Y-42183571D01*
X20982857Y-42040714D01*
X21125714Y-41897857D01*
X21197142Y-41755000D01*
X22268571Y-44040714D02*
X22268571Y-43183571D01*
X22268571Y-43612142D02*
X20768571Y-43612142D01*
X20982857Y-43469285D01*
X21125714Y-43326428D01*
X21197142Y-43183571D01*
X29746000Y-22018571D02*
X28817428Y-22018571D01*
X29317428Y-22590000D01*
X29103142Y-22590000D01*
X28960285Y-22661428D01*
X28888857Y-22732857D01*
X28817428Y-22875714D01*
X28817428Y-23232857D01*
X28888857Y-23375714D01*
X28960285Y-23447142D01*
X29103142Y-23518571D01*
X29531714Y-23518571D01*
X29674571Y-23447142D01*
X29746000Y-23375714D01*
X28388857Y-22018571D02*
X27888857Y-23518571D01*
X27388857Y-22018571D01*
X28888857Y-24568571D02*
X29603142Y-24568571D01*
X29674571Y-25282857D01*
X29603142Y-25211428D01*
X29460285Y-25140000D01*
X29103142Y-25140000D01*
X28960285Y-25211428D01*
X28888857Y-25282857D01*
X28817428Y-25425714D01*
X28817428Y-25782857D01*
X28888857Y-25925714D01*
X28960285Y-25997142D01*
X29103142Y-26068571D01*
X29460285Y-26068571D01*
X29603142Y-25997142D01*
X29674571Y-25925714D01*
X28388857Y-24568571D02*
X27888857Y-26068571D01*
X27388857Y-24568571D01*
X27603142Y-27190000D02*
X27746000Y-27118571D01*
X27960285Y-27118571D01*
X28174571Y-27190000D01*
X28317428Y-27332857D01*
X28388857Y-27475714D01*
X28460285Y-27761428D01*
X28460285Y-27975714D01*
X28388857Y-28261428D01*
X28317428Y-28404285D01*
X28174571Y-28547142D01*
X27960285Y-28618571D01*
X27817428Y-28618571D01*
X27603142Y-28547142D01*
X27531714Y-28475714D01*
X27531714Y-27975714D01*
X27817428Y-27975714D01*
X28960285Y-31168571D02*
X29460285Y-30454285D01*
X29817428Y-31168571D02*
X29817428Y-29668571D01*
X29246000Y-29668571D01*
X29103142Y-29740000D01*
X29031714Y-29811428D01*
X28960285Y-29954285D01*
X28960285Y-30168571D01*
X29031714Y-30311428D01*
X29103142Y-30382857D01*
X29246000Y-30454285D01*
X29817428Y-30454285D01*
X28460285Y-29668571D02*
X27460285Y-31168571D01*
X27460285Y-29668571D02*
X28460285Y-31168571D01*
X29674571Y-32218571D02*
X28817428Y-32218571D01*
X29246000Y-33718571D02*
X29246000Y-32218571D01*
X28460285Y-32218571D02*
X27460285Y-33718571D01*
X27460285Y-32218571D02*
X28460285Y-33718571D01*
X33448571Y-67306428D02*
X33448571Y-66592142D01*
X34162857Y-66520714D01*
X34091428Y-66592142D01*
X34020000Y-66735000D01*
X34020000Y-67092142D01*
X34091428Y-67235000D01*
X34162857Y-67306428D01*
X34305714Y-67377857D01*
X34662857Y-67377857D01*
X34805714Y-67306428D01*
X34877142Y-67235000D01*
X34948571Y-67092142D01*
X34948571Y-66735000D01*
X34877142Y-66592142D01*
X34805714Y-66520714D01*
X33448571Y-67806428D02*
X34948571Y-68306428D01*
X33448571Y-68806428D01*
X38620000Y-67377857D02*
X38548571Y-67235000D01*
X38548571Y-67020714D01*
X38620000Y-66806428D01*
X38762857Y-66663571D01*
X38905714Y-66592142D01*
X39191428Y-66520714D01*
X39405714Y-66520714D01*
X39691428Y-66592142D01*
X39834285Y-66663571D01*
X39977142Y-66806428D01*
X40048571Y-67020714D01*
X40048571Y-67163571D01*
X39977142Y-67377857D01*
X39905714Y-67449285D01*
X39405714Y-67449285D01*
X39405714Y-67163571D01*
X42598571Y-67449285D02*
X41884285Y-66949285D01*
X42598571Y-66592142D02*
X41098571Y-66592142D01*
X41098571Y-67163571D01*
X41170000Y-67306428D01*
X41241428Y-67377857D01*
X41384285Y-67449285D01*
X41598571Y-67449285D01*
X41741428Y-67377857D01*
X41812857Y-67306428D01*
X41884285Y-67163571D01*
X41884285Y-66592142D01*
X41098571Y-67949285D02*
X42598571Y-68949285D01*
X41098571Y-68949285D02*
X42598571Y-67949285D01*
X43648571Y-66377857D02*
X43648571Y-67235000D01*
X45148571Y-66806428D02*
X43648571Y-66806428D01*
X43648571Y-67592142D02*
X45148571Y-68592142D01*
X43648571Y-68592142D02*
X45148571Y-67592142D01*
X48867142Y-58829285D02*
X48938571Y-59043571D01*
X48938571Y-59400714D01*
X48867142Y-59543571D01*
X48795714Y-59615000D01*
X48652857Y-59686428D01*
X48510000Y-59686428D01*
X48367142Y-59615000D01*
X48295714Y-59543571D01*
X48224285Y-59400714D01*
X48152857Y-59115000D01*
X48081428Y-58972142D01*
X48010000Y-58900714D01*
X47867142Y-58829285D01*
X47724285Y-58829285D01*
X47581428Y-58900714D01*
X47510000Y-58972142D01*
X47438571Y-59115000D01*
X47438571Y-59472142D01*
X47510000Y-59686428D01*
X48938571Y-60329285D02*
X47438571Y-60329285D01*
X47438571Y-60686428D01*
X47510000Y-60900714D01*
X47652857Y-61043571D01*
X47795714Y-61115000D01*
X48081428Y-61186428D01*
X48295714Y-61186428D01*
X48581428Y-61115000D01*
X48724285Y-61043571D01*
X48867142Y-60900714D01*
X48938571Y-60686428D01*
X48938571Y-60329285D01*
X48867142Y-61757857D02*
X48938571Y-61972142D01*
X48938571Y-62329285D01*
X48867142Y-62472142D01*
X48795714Y-62543571D01*
X48652857Y-62615000D01*
X48510000Y-62615000D01*
X48367142Y-62543571D01*
X48295714Y-62472142D01*
X48224285Y-62329285D01*
X48152857Y-62043571D01*
X48081428Y-61900714D01*
X48010000Y-61829285D01*
X47867142Y-61757857D01*
X47724285Y-61757857D01*
X47581428Y-61829285D01*
X47510000Y-61900714D01*
X47438571Y-62043571D01*
X47438571Y-62400714D01*
X47510000Y-62615000D01*
X47438571Y-63543571D02*
X47438571Y-63686428D01*
X47510000Y-63829285D01*
X47581428Y-63900714D01*
X47724285Y-63972142D01*
X48010000Y-64043571D01*
X48367142Y-64043571D01*
X48652857Y-63972142D01*
X48795714Y-63900714D01*
X48867142Y-63829285D01*
X48938571Y-63686428D01*
X48938571Y-63543571D01*
X48867142Y-63400714D01*
X48795714Y-63329285D01*
X48652857Y-63257857D01*
X48367142Y-63186428D01*
X48010000Y-63186428D01*
X47724285Y-63257857D01*
X47581428Y-63329285D01*
X47510000Y-63400714D01*
X47438571Y-63543571D01*
X48938571Y-65472142D02*
X48938571Y-64615000D01*
X48938571Y-65043571D02*
X47438571Y-65043571D01*
X47652857Y-64900714D01*
X47795714Y-64757857D01*
X47867142Y-64615000D01*
X48938571Y-66900714D02*
X48938571Y-66043571D01*
X48938571Y-66472142D02*
X47438571Y-66472142D01*
X47652857Y-66329285D01*
X47795714Y-66186428D01*
X47867142Y-66043571D01*
D13*
G04 #@! TO.C,J20*
X74295000Y-56515000D02*
X74295000Y-66675000D01*
X66675000Y-56515000D02*
X74295000Y-56515000D01*
X66675000Y-66675000D02*
X66675000Y-56515000D01*
X74295000Y-66675000D02*
X66675000Y-66675000D01*
X73025000Y-66675000D02*
X73025000Y-56515000D01*
G04 #@! TO.C,J18*
X61580000Y-82300000D02*
X61580000Y-70100000D01*
X74580000Y-82300000D02*
X70080000Y-82300000D01*
X74580000Y-70100000D02*
X74580000Y-82300000D01*
X70080000Y-70100000D02*
X74580000Y-70100000D01*
X67080000Y-82300000D02*
X61580000Y-82300000D01*
X67080000Y-70100000D02*
X61580000Y-70100000D01*
G04 #@! TO.C,JP1*
X60265000Y-61655000D02*
X60265000Y-58995000D01*
X62865000Y-61655000D02*
X60265000Y-61655000D01*
X62865000Y-58995000D02*
X60265000Y-58995000D01*
X62865000Y-61655000D02*
X62865000Y-58995000D01*
X64135000Y-61655000D02*
X65465000Y-61655000D01*
X65465000Y-61655000D02*
X65465000Y-60325000D01*
G04 #@! TO.C,J2*
X34605000Y-21530000D02*
X33962530Y-21530000D01*
X33347470Y-21530000D02*
X33145000Y-21530000D01*
X34605000Y-21530000D02*
X34605000Y-28000000D01*
X32077470Y-28000000D02*
X31435000Y-28000000D01*
X34605000Y-28000000D02*
X33962530Y-28000000D01*
X33347470Y-28000000D02*
X32692530Y-28000000D01*
X31435000Y-22860000D02*
X31435000Y-28000000D01*
X31625000Y-22860000D02*
X31435000Y-22860000D01*
X31435000Y-21465000D02*
X31435000Y-22225000D01*
X32385000Y-21465000D02*
X31435000Y-21465000D01*
G04 #@! TO.C,J3*
X26965000Y-58675000D02*
X26965000Y-55255000D01*
X26965000Y-55255000D02*
X38935000Y-55255000D01*
X38935000Y-55255000D02*
X38935000Y-58675000D01*
X38935000Y-58675000D02*
X26965000Y-58675000D01*
X32950000Y-55765000D02*
X27475000Y-55765000D01*
X27475000Y-55765000D02*
X27475000Y-56515000D01*
X27475000Y-56515000D02*
X27275000Y-56515000D01*
X27275000Y-56515000D02*
X27275000Y-57315000D01*
X27275000Y-57315000D02*
X27475000Y-57315000D01*
X27475000Y-57315000D02*
X27475000Y-58165000D01*
X27475000Y-58165000D02*
X32950000Y-58165000D01*
X32950000Y-55765000D02*
X38425000Y-55765000D01*
X38425000Y-55765000D02*
X38425000Y-56515000D01*
X38425000Y-56515000D02*
X38625000Y-56515000D01*
X38625000Y-56515000D02*
X38625000Y-57315000D01*
X38625000Y-57315000D02*
X38425000Y-57315000D01*
X38425000Y-57315000D02*
X38425000Y-58165000D01*
X38425000Y-58165000D02*
X32950000Y-58165000D01*
X26675000Y-54965000D02*
X26675000Y-55965000D01*
X26675000Y-54965000D02*
X27675000Y-54965000D01*
G04 #@! TO.C,J4*
X26650000Y-65960000D02*
X26650000Y-59990000D01*
X26650000Y-59990000D02*
X46770000Y-59990000D01*
X46770000Y-59990000D02*
X46770000Y-65960000D01*
X46770000Y-65960000D02*
X26650000Y-65960000D01*
X29960000Y-65950000D02*
X29960000Y-65200000D01*
X29960000Y-65200000D02*
X43460000Y-65200000D01*
X43460000Y-65200000D02*
X43460000Y-65950000D01*
X43460000Y-65950000D02*
X29960000Y-65950000D01*
X26660000Y-65950000D02*
X26660000Y-65200000D01*
X26660000Y-65200000D02*
X28460000Y-65200000D01*
X28460000Y-65200000D02*
X28460000Y-65950000D01*
X28460000Y-65950000D02*
X26660000Y-65950000D01*
X44960000Y-65950000D02*
X44960000Y-65200000D01*
X44960000Y-65200000D02*
X46760000Y-65200000D01*
X46760000Y-65200000D02*
X46760000Y-65950000D01*
X46760000Y-65950000D02*
X44960000Y-65950000D01*
X26660000Y-63700000D02*
X27410000Y-63700000D01*
X27410000Y-63700000D02*
X27410000Y-60750000D01*
X27410000Y-60750000D02*
X36710000Y-60750000D01*
X46760000Y-63700000D02*
X46010000Y-63700000D01*
X46010000Y-63700000D02*
X46010000Y-60750000D01*
X46010000Y-60750000D02*
X36710000Y-60750000D01*
X27610000Y-66250000D02*
X26360000Y-66250000D01*
X26360000Y-66250000D02*
X26360000Y-65000000D01*
G04 #@! TO.C,J6*
X29210000Y-115510000D02*
X29210000Y-118170000D01*
X29210000Y-115510000D02*
X36890000Y-115510000D01*
X36890000Y-115510000D02*
X36890000Y-118170000D01*
X29210000Y-118170000D02*
X36890000Y-118170000D01*
X26610000Y-118170000D02*
X27940000Y-118170000D01*
X26610000Y-116840000D02*
X26610000Y-118170000D01*
G04 #@! TO.C,J7*
X26610000Y-106680000D02*
X26610000Y-108010000D01*
X26610000Y-108010000D02*
X27940000Y-108010000D01*
X29210000Y-108010000D02*
X36890000Y-108010000D01*
X36890000Y-105350000D02*
X36890000Y-108010000D01*
X29210000Y-105350000D02*
X36890000Y-105350000D01*
X29210000Y-105350000D02*
X29210000Y-108010000D01*
G04 #@! TO.C,J8*
X29210000Y-109160000D02*
X29210000Y-111820000D01*
X29210000Y-109160000D02*
X36890000Y-109160000D01*
X36890000Y-109160000D02*
X36890000Y-111820000D01*
X29210000Y-111820000D02*
X36890000Y-111820000D01*
X26610000Y-111820000D02*
X27940000Y-111820000D01*
X26610000Y-110490000D02*
X26610000Y-111820000D01*
G04 #@! TO.C,J9*
X26610000Y-102870000D02*
X26610000Y-104200000D01*
X26610000Y-104200000D02*
X27940000Y-104200000D01*
X29210000Y-104200000D02*
X36890000Y-104200000D01*
X36890000Y-101540000D02*
X36890000Y-104200000D01*
X29210000Y-101540000D02*
X36890000Y-101540000D01*
X29210000Y-101540000D02*
X29210000Y-104200000D01*
G04 #@! TO.C,J10*
X29210000Y-97730000D02*
X29210000Y-100390000D01*
X29210000Y-97730000D02*
X36890000Y-97730000D01*
X36890000Y-97730000D02*
X36890000Y-100390000D01*
X29210000Y-100390000D02*
X36890000Y-100390000D01*
X26610000Y-100390000D02*
X27940000Y-100390000D01*
X26610000Y-99060000D02*
X26610000Y-100390000D01*
G04 #@! TO.C,J11*
X26610000Y-85090000D02*
X26610000Y-86420000D01*
X26610000Y-86420000D02*
X27940000Y-86420000D01*
X29210000Y-86420000D02*
X36890000Y-86420000D01*
X36890000Y-83760000D02*
X36890000Y-86420000D01*
X29210000Y-83760000D02*
X36890000Y-83760000D01*
X29210000Y-83760000D02*
X29210000Y-86420000D01*
G04 #@! TO.C,J12*
X29210000Y-79950000D02*
X29210000Y-82610000D01*
X29210000Y-79950000D02*
X36890000Y-79950000D01*
X36890000Y-79950000D02*
X36890000Y-82610000D01*
X29210000Y-82610000D02*
X36890000Y-82610000D01*
X26610000Y-82610000D02*
X27940000Y-82610000D01*
X26610000Y-81280000D02*
X26610000Y-82610000D01*
G04 #@! TO.C,J14*
X71755000Y-118170000D02*
X71755000Y-115510000D01*
X71755000Y-118170000D02*
X66615000Y-118170000D01*
X66615000Y-118170000D02*
X66615000Y-115510000D01*
X71755000Y-115510000D02*
X66615000Y-115510000D01*
X74355000Y-115510000D02*
X73025000Y-115510000D01*
X74355000Y-116840000D02*
X74355000Y-115510000D01*
G04 #@! TO.C,J15*
X74355000Y-109855000D02*
X74355000Y-108525000D01*
X74355000Y-108525000D02*
X73025000Y-108525000D01*
X71755000Y-108525000D02*
X66615000Y-108525000D01*
X66615000Y-111185000D02*
X66615000Y-108525000D01*
X71755000Y-111185000D02*
X66615000Y-111185000D01*
X71755000Y-111185000D02*
X71755000Y-108525000D01*
G04 #@! TO.C,J16*
X67080000Y-85340000D02*
X61580000Y-85340000D01*
X67080000Y-97540000D02*
X61580000Y-97540000D01*
X70080000Y-85340000D02*
X74580000Y-85340000D01*
X74580000Y-85340000D02*
X74580000Y-97540000D01*
X74580000Y-97540000D02*
X70080000Y-97540000D01*
X61580000Y-97540000D02*
X61580000Y-85340000D01*
G04 #@! TO.C,JP2*
X60265000Y-65465000D02*
X60265000Y-62805000D01*
X62865000Y-65465000D02*
X60265000Y-65465000D01*
X62865000Y-62805000D02*
X60265000Y-62805000D01*
X62865000Y-65465000D02*
X62865000Y-62805000D01*
X64135000Y-65465000D02*
X65465000Y-65465000D01*
X65465000Y-65465000D02*
X65465000Y-64135000D01*
G04 #@! TO.C,JP3*
X65465000Y-69275000D02*
X65465000Y-67945000D01*
X64135000Y-69275000D02*
X65465000Y-69275000D01*
X62865000Y-69275000D02*
X62865000Y-66615000D01*
X62865000Y-66615000D02*
X60265000Y-66615000D01*
X62865000Y-69275000D02*
X60265000Y-69275000D01*
X60265000Y-69275000D02*
X60265000Y-66615000D01*
G04 #@! TO.C,R27*
X78740000Y-32690000D02*
X78740000Y-33640000D01*
X78740000Y-38430000D02*
X78740000Y-37480000D01*
X79660000Y-33640000D02*
X79660000Y-37480000D01*
X77820000Y-33640000D02*
X79660000Y-33640000D01*
X77820000Y-37480000D02*
X77820000Y-33640000D01*
X79660000Y-37480000D02*
X77820000Y-37480000D01*
G04 #@! TO.C,R28*
X77755000Y-29860000D02*
X75915000Y-29860000D01*
X75915000Y-29860000D02*
X75915000Y-26020000D01*
X75915000Y-26020000D02*
X77755000Y-26020000D01*
X77755000Y-26020000D02*
X77755000Y-29860000D01*
X76835000Y-30810000D02*
X76835000Y-29860000D01*
X76835000Y-25070000D02*
X76835000Y-26020000D01*
G04 #@! TO.C,J17*
X41970000Y-69790000D02*
X41970000Y-74990000D01*
X29210000Y-69790000D02*
X41970000Y-69790000D01*
X26610000Y-74990000D02*
X41970000Y-74990000D01*
X29210000Y-69790000D02*
X29210000Y-72390000D01*
X29210000Y-72390000D02*
X26610000Y-72390000D01*
X26610000Y-72390000D02*
X26610000Y-74990000D01*
X27940000Y-69790000D02*
X26610000Y-69790000D01*
X26610000Y-69790000D02*
X26610000Y-71120000D01*
G04 #@! TO.C,JP4*
X56455000Y-59630000D02*
X59115000Y-59630000D01*
X56455000Y-62230000D02*
X56455000Y-59630000D01*
X59115000Y-62230000D02*
X59115000Y-59630000D01*
X56455000Y-62230000D02*
X59115000Y-62230000D01*
X56455000Y-63500000D02*
X56455000Y-64830000D01*
X56455000Y-64830000D02*
X57785000Y-64830000D01*
G04 #@! TO.C,J5*
X25955000Y-35500000D02*
X19985000Y-35500000D01*
X19985000Y-35500000D02*
X19985000Y-20380000D01*
X19985000Y-20380000D02*
X25955000Y-20380000D01*
X25955000Y-20380000D02*
X25955000Y-35500000D01*
X25945000Y-32190000D02*
X25195000Y-32190000D01*
X25195000Y-32190000D02*
X25195000Y-23690000D01*
X25195000Y-23690000D02*
X25945000Y-23690000D01*
X25945000Y-23690000D02*
X25945000Y-32190000D01*
X25945000Y-35490000D02*
X25195000Y-35490000D01*
X25195000Y-35490000D02*
X25195000Y-33690000D01*
X25195000Y-33690000D02*
X25945000Y-33690000D01*
X25945000Y-33690000D02*
X25945000Y-35490000D01*
X25945000Y-22190000D02*
X25195000Y-22190000D01*
X25195000Y-22190000D02*
X25195000Y-20390000D01*
X25195000Y-20390000D02*
X25945000Y-20390000D01*
X25945000Y-20390000D02*
X25945000Y-22190000D01*
X23695000Y-35490000D02*
X23695000Y-34740000D01*
X23695000Y-34740000D02*
X20745000Y-34740000D01*
X20745000Y-34740000D02*
X20745000Y-27940000D01*
X23695000Y-20390000D02*
X23695000Y-21140000D01*
X23695000Y-21140000D02*
X20745000Y-21140000D01*
X20745000Y-21140000D02*
X20745000Y-27940000D01*
X26245000Y-34540000D02*
X26245000Y-35790000D01*
X26245000Y-35790000D02*
X24995000Y-35790000D01*
D14*
G04 #@! TO.C,REF\002A\002A*
G36*
X66809036Y-24973576D02*
X66733487Y-25374322D01*
X66175959Y-25604154D01*
X65841535Y-25376748D01*
X65747878Y-25313431D01*
X65663218Y-25256896D01*
X65591505Y-25209727D01*
X65536689Y-25174502D01*
X65502720Y-25153805D01*
X65493470Y-25149342D01*
X65476805Y-25160820D01*
X65441194Y-25192551D01*
X65390629Y-25240483D01*
X65329100Y-25300562D01*
X65260601Y-25368733D01*
X65189121Y-25440945D01*
X65118653Y-25513142D01*
X65053189Y-25581273D01*
X64996720Y-25641283D01*
X64953237Y-25689119D01*
X64926732Y-25720727D01*
X64920395Y-25731305D01*
X64929514Y-25750806D01*
X64955080Y-25793531D01*
X64994403Y-25855298D01*
X65044797Y-25931931D01*
X65103573Y-26019248D01*
X65137632Y-26069052D01*
X65199711Y-26159993D01*
X65254874Y-26242059D01*
X65300446Y-26311163D01*
X65333750Y-26363222D01*
X65352110Y-26394150D01*
X65354869Y-26400650D01*
X65348615Y-26419121D01*
X65331566Y-26462172D01*
X65306297Y-26523749D01*
X65275378Y-26597799D01*
X65241382Y-26678270D01*
X65206882Y-26759107D01*
X65174449Y-26834258D01*
X65146657Y-26897671D01*
X65126077Y-26943293D01*
X65115281Y-26965069D01*
X65114644Y-26965926D01*
X65097693Y-26970084D01*
X65052549Y-26979361D01*
X64983890Y-26992844D01*
X64896398Y-27009621D01*
X64794750Y-27028781D01*
X64735444Y-27039830D01*
X64626828Y-27060510D01*
X64528723Y-27080189D01*
X64446091Y-27097789D01*
X64383896Y-27112233D01*
X64347101Y-27122446D01*
X64339704Y-27125686D01*
X64332460Y-27147617D01*
X64326615Y-27197147D01*
X64322165Y-27268485D01*
X64319107Y-27355839D01*
X64317435Y-27453417D01*
X64317147Y-27555426D01*
X64318239Y-27656075D01*
X64320706Y-27749572D01*
X64324544Y-27830125D01*
X64329750Y-27891942D01*
X64336319Y-27929230D01*
X64340259Y-27936993D01*
X64363812Y-27946298D01*
X64413718Y-27959600D01*
X64483377Y-27975337D01*
X64566187Y-27991946D01*
X64595095Y-27997319D01*
X64734469Y-28022848D01*
X64844564Y-28043408D01*
X64929018Y-28059815D01*
X64991470Y-28072887D01*
X65035556Y-28083441D01*
X65064915Y-28092294D01*
X65083185Y-28100263D01*
X65094002Y-28108165D01*
X65095515Y-28109727D01*
X65110623Y-28134886D01*
X65133671Y-28183850D01*
X65162356Y-28250621D01*
X65194378Y-28329205D01*
X65227435Y-28413607D01*
X65259227Y-28497830D01*
X65287451Y-28575879D01*
X65309807Y-28641759D01*
X65323993Y-28689473D01*
X65327707Y-28713027D01*
X65327398Y-28713852D01*
X65314811Y-28733104D01*
X65286256Y-28775463D01*
X65244733Y-28836521D01*
X65193244Y-28911868D01*
X65134789Y-28997096D01*
X65118142Y-29021315D01*
X65058785Y-29109123D01*
X65006553Y-29189238D01*
X64964292Y-29257062D01*
X64934847Y-29307993D01*
X64921063Y-29337431D01*
X64920395Y-29341048D01*
X64931976Y-29360057D01*
X64963976Y-29397714D01*
X65012282Y-29449973D01*
X65072780Y-29512786D01*
X65141356Y-29582106D01*
X65213896Y-29653885D01*
X65286288Y-29724077D01*
X65354416Y-29788635D01*
X65414168Y-29843510D01*
X65461429Y-29884656D01*
X65492087Y-29908026D01*
X65500568Y-29911842D01*
X65520309Y-29902855D01*
X65560726Y-29878616D01*
X65615237Y-29843209D01*
X65657177Y-29814711D01*
X65733171Y-29762418D01*
X65823166Y-29700845D01*
X65913436Y-29639370D01*
X65961968Y-29606469D01*
X66126238Y-29495359D01*
X66264131Y-29569916D01*
X66326951Y-29602578D01*
X66380371Y-29627966D01*
X66416516Y-29642446D01*
X66425716Y-29644460D01*
X66436779Y-29629584D01*
X66458606Y-29587547D01*
X66489566Y-29522227D01*
X66528030Y-29437500D01*
X66572368Y-29337245D01*
X66620953Y-29225339D01*
X66672154Y-29105659D01*
X66724341Y-28982084D01*
X66775887Y-28858491D01*
X66825160Y-28738757D01*
X66870533Y-28626759D01*
X66910375Y-28526377D01*
X66943058Y-28441486D01*
X66966951Y-28375965D01*
X66980426Y-28333690D01*
X66982594Y-28319172D01*
X66965417Y-28300653D01*
X66927810Y-28270590D01*
X66877634Y-28235232D01*
X66873422Y-28232434D01*
X66743736Y-28128625D01*
X66639166Y-28007515D01*
X66560619Y-27872976D01*
X66509001Y-27728882D01*
X66485218Y-27579105D01*
X66490177Y-27427517D01*
X66524783Y-27277992D01*
X66589943Y-27134400D01*
X66609114Y-27102984D01*
X66708826Y-26976125D01*
X66826623Y-26874255D01*
X66958429Y-26797904D01*
X67100167Y-26747602D01*
X67247758Y-26723879D01*
X67397127Y-26727265D01*
X67544197Y-26758288D01*
X67684889Y-26817480D01*
X67815127Y-26905369D01*
X67855414Y-26941042D01*
X67957945Y-27052706D01*
X68032659Y-27170257D01*
X68083910Y-27302020D01*
X68112454Y-27432507D01*
X68119500Y-27579216D01*
X68096004Y-27726653D01*
X68044351Y-27869834D01*
X67966929Y-28003777D01*
X67866125Y-28123498D01*
X67744324Y-28224014D01*
X67728316Y-28234609D01*
X67677602Y-28269306D01*
X67639050Y-28299370D01*
X67620619Y-28318565D01*
X67620351Y-28319172D01*
X67624308Y-28339936D01*
X67639993Y-28387062D01*
X67665778Y-28456673D01*
X67700031Y-28544893D01*
X67741123Y-28647844D01*
X67787424Y-28761650D01*
X67837304Y-28882435D01*
X67889133Y-29006321D01*
X67941281Y-29129432D01*
X67992118Y-29247891D01*
X68040013Y-29357823D01*
X68083338Y-29455349D01*
X68120462Y-29536593D01*
X68149756Y-29597679D01*
X68169588Y-29634730D01*
X68177574Y-29644460D01*
X68201979Y-29636883D01*
X68247642Y-29616560D01*
X68306690Y-29587125D01*
X68339160Y-29569916D01*
X68477053Y-29495359D01*
X68641323Y-29606469D01*
X68725179Y-29663390D01*
X68816987Y-29726030D01*
X68903020Y-29785011D01*
X68946113Y-29814711D01*
X69006723Y-29855410D01*
X69058045Y-29887663D01*
X69093385Y-29907384D01*
X69104863Y-29911554D01*
X69121570Y-29900307D01*
X69158546Y-29868911D01*
X69212205Y-29820624D01*
X69278962Y-29758708D01*
X69355234Y-29686421D01*
X69403473Y-29640008D01*
X69487867Y-29557087D01*
X69560803Y-29482920D01*
X69619331Y-29420680D01*
X69660503Y-29373541D01*
X69681372Y-29344673D01*
X69683374Y-29338815D01*
X69674083Y-29316532D01*
X69648409Y-29271477D01*
X69609200Y-29208211D01*
X69559303Y-29131295D01*
X69501567Y-29045292D01*
X69485149Y-29021315D01*
X69425323Y-28934170D01*
X69371650Y-28855710D01*
X69327130Y-28790345D01*
X69294765Y-28742484D01*
X69277555Y-28716535D01*
X69275893Y-28713852D01*
X69278379Y-28693172D01*
X69291577Y-28647704D01*
X69313186Y-28583444D01*
X69340904Y-28506387D01*
X69372430Y-28422529D01*
X69405463Y-28337866D01*
X69437701Y-28258392D01*
X69466843Y-28190104D01*
X69490588Y-28138997D01*
X69506635Y-28111067D01*
X69507775Y-28109727D01*
X69517588Y-28101745D01*
X69534161Y-28093851D01*
X69561132Y-28085229D01*
X69602139Y-28075062D01*
X69660820Y-28062531D01*
X69740813Y-28046821D01*
X69845755Y-28027113D01*
X69979285Y-28002592D01*
X70008196Y-27997319D01*
X70093882Y-27980764D01*
X70168582Y-27964569D01*
X70225694Y-27950296D01*
X70258617Y-27939508D01*
X70263031Y-27936993D01*
X70270306Y-27914696D01*
X70276219Y-27864869D01*
X70280766Y-27793304D01*
X70283945Y-27705793D01*
X70285749Y-27608128D01*
X70286177Y-27506101D01*
X70285223Y-27405503D01*
X70282884Y-27312127D01*
X70279156Y-27231765D01*
X70274034Y-27170209D01*
X70267516Y-27133250D01*
X70263586Y-27125686D01*
X70241708Y-27118056D01*
X70191891Y-27105642D01*
X70119097Y-27089522D01*
X70028289Y-27070773D01*
X69924431Y-27050471D01*
X69867846Y-27039830D01*
X69760486Y-27019760D01*
X69664746Y-27001580D01*
X69585306Y-26986199D01*
X69526846Y-26974531D01*
X69494045Y-26967488D01*
X69488646Y-26965926D01*
X69479522Y-26948322D01*
X69460235Y-26905918D01*
X69433355Y-26844772D01*
X69401454Y-26770943D01*
X69367102Y-26690489D01*
X69332871Y-26609468D01*
X69301331Y-26533937D01*
X69275054Y-26469955D01*
X69256611Y-26423580D01*
X69248571Y-26400869D01*
X69248422Y-26399876D01*
X69257535Y-26381961D01*
X69283086Y-26340733D01*
X69322388Y-26280291D01*
X69372757Y-26204731D01*
X69431506Y-26118152D01*
X69465658Y-26068421D01*
X69527890Y-25977236D01*
X69583164Y-25894449D01*
X69628782Y-25824249D01*
X69662048Y-25770824D01*
X69680264Y-25738361D01*
X69682895Y-25731083D01*
X69671586Y-25714145D01*
X69640319Y-25677978D01*
X69593090Y-25626635D01*
X69533892Y-25564167D01*
X69466719Y-25494626D01*
X69395566Y-25422065D01*
X69324426Y-25350535D01*
X69257293Y-25284087D01*
X69198161Y-25226774D01*
X69151025Y-25182647D01*
X69119877Y-25155759D01*
X69109457Y-25149342D01*
X69092491Y-25158365D01*
X69051911Y-25183715D01*
X68991663Y-25222810D01*
X68915693Y-25273071D01*
X68827946Y-25331917D01*
X68761756Y-25376748D01*
X68427332Y-25604154D01*
X68148567Y-25489238D01*
X67869803Y-25374322D01*
X67794254Y-24973576D01*
X67718706Y-24572829D01*
X66884585Y-24572829D01*
X66809036Y-24973576D01*
X66809036Y-24973576D01*
G37*
X66809036Y-24973576D02*
X66733487Y-25374322D01*
X66175959Y-25604154D01*
X65841535Y-25376748D01*
X65747878Y-25313431D01*
X65663218Y-25256896D01*
X65591505Y-25209727D01*
X65536689Y-25174502D01*
X65502720Y-25153805D01*
X65493470Y-25149342D01*
X65476805Y-25160820D01*
X65441194Y-25192551D01*
X65390629Y-25240483D01*
X65329100Y-25300562D01*
X65260601Y-25368733D01*
X65189121Y-25440945D01*
X65118653Y-25513142D01*
X65053189Y-25581273D01*
X64996720Y-25641283D01*
X64953237Y-25689119D01*
X64926732Y-25720727D01*
X64920395Y-25731305D01*
X64929514Y-25750806D01*
X64955080Y-25793531D01*
X64994403Y-25855298D01*
X65044797Y-25931931D01*
X65103573Y-26019248D01*
X65137632Y-26069052D01*
X65199711Y-26159993D01*
X65254874Y-26242059D01*
X65300446Y-26311163D01*
X65333750Y-26363222D01*
X65352110Y-26394150D01*
X65354869Y-26400650D01*
X65348615Y-26419121D01*
X65331566Y-26462172D01*
X65306297Y-26523749D01*
X65275378Y-26597799D01*
X65241382Y-26678270D01*
X65206882Y-26759107D01*
X65174449Y-26834258D01*
X65146657Y-26897671D01*
X65126077Y-26943293D01*
X65115281Y-26965069D01*
X65114644Y-26965926D01*
X65097693Y-26970084D01*
X65052549Y-26979361D01*
X64983890Y-26992844D01*
X64896398Y-27009621D01*
X64794750Y-27028781D01*
X64735444Y-27039830D01*
X64626828Y-27060510D01*
X64528723Y-27080189D01*
X64446091Y-27097789D01*
X64383896Y-27112233D01*
X64347101Y-27122446D01*
X64339704Y-27125686D01*
X64332460Y-27147617D01*
X64326615Y-27197147D01*
X64322165Y-27268485D01*
X64319107Y-27355839D01*
X64317435Y-27453417D01*
X64317147Y-27555426D01*
X64318239Y-27656075D01*
X64320706Y-27749572D01*
X64324544Y-27830125D01*
X64329750Y-27891942D01*
X64336319Y-27929230D01*
X64340259Y-27936993D01*
X64363812Y-27946298D01*
X64413718Y-27959600D01*
X64483377Y-27975337D01*
X64566187Y-27991946D01*
X64595095Y-27997319D01*
X64734469Y-28022848D01*
X64844564Y-28043408D01*
X64929018Y-28059815D01*
X64991470Y-28072887D01*
X65035556Y-28083441D01*
X65064915Y-28092294D01*
X65083185Y-28100263D01*
X65094002Y-28108165D01*
X65095515Y-28109727D01*
X65110623Y-28134886D01*
X65133671Y-28183850D01*
X65162356Y-28250621D01*
X65194378Y-28329205D01*
X65227435Y-28413607D01*
X65259227Y-28497830D01*
X65287451Y-28575879D01*
X65309807Y-28641759D01*
X65323993Y-28689473D01*
X65327707Y-28713027D01*
X65327398Y-28713852D01*
X65314811Y-28733104D01*
X65286256Y-28775463D01*
X65244733Y-28836521D01*
X65193244Y-28911868D01*
X65134789Y-28997096D01*
X65118142Y-29021315D01*
X65058785Y-29109123D01*
X65006553Y-29189238D01*
X64964292Y-29257062D01*
X64934847Y-29307993D01*
X64921063Y-29337431D01*
X64920395Y-29341048D01*
X64931976Y-29360057D01*
X64963976Y-29397714D01*
X65012282Y-29449973D01*
X65072780Y-29512786D01*
X65141356Y-29582106D01*
X65213896Y-29653885D01*
X65286288Y-29724077D01*
X65354416Y-29788635D01*
X65414168Y-29843510D01*
X65461429Y-29884656D01*
X65492087Y-29908026D01*
X65500568Y-29911842D01*
X65520309Y-29902855D01*
X65560726Y-29878616D01*
X65615237Y-29843209D01*
X65657177Y-29814711D01*
X65733171Y-29762418D01*
X65823166Y-29700845D01*
X65913436Y-29639370D01*
X65961968Y-29606469D01*
X66126238Y-29495359D01*
X66264131Y-29569916D01*
X66326951Y-29602578D01*
X66380371Y-29627966D01*
X66416516Y-29642446D01*
X66425716Y-29644460D01*
X66436779Y-29629584D01*
X66458606Y-29587547D01*
X66489566Y-29522227D01*
X66528030Y-29437500D01*
X66572368Y-29337245D01*
X66620953Y-29225339D01*
X66672154Y-29105659D01*
X66724341Y-28982084D01*
X66775887Y-28858491D01*
X66825160Y-28738757D01*
X66870533Y-28626759D01*
X66910375Y-28526377D01*
X66943058Y-28441486D01*
X66966951Y-28375965D01*
X66980426Y-28333690D01*
X66982594Y-28319172D01*
X66965417Y-28300653D01*
X66927810Y-28270590D01*
X66877634Y-28235232D01*
X66873422Y-28232434D01*
X66743736Y-28128625D01*
X66639166Y-28007515D01*
X66560619Y-27872976D01*
X66509001Y-27728882D01*
X66485218Y-27579105D01*
X66490177Y-27427517D01*
X66524783Y-27277992D01*
X66589943Y-27134400D01*
X66609114Y-27102984D01*
X66708826Y-26976125D01*
X66826623Y-26874255D01*
X66958429Y-26797904D01*
X67100167Y-26747602D01*
X67247758Y-26723879D01*
X67397127Y-26727265D01*
X67544197Y-26758288D01*
X67684889Y-26817480D01*
X67815127Y-26905369D01*
X67855414Y-26941042D01*
X67957945Y-27052706D01*
X68032659Y-27170257D01*
X68083910Y-27302020D01*
X68112454Y-27432507D01*
X68119500Y-27579216D01*
X68096004Y-27726653D01*
X68044351Y-27869834D01*
X67966929Y-28003777D01*
X67866125Y-28123498D01*
X67744324Y-28224014D01*
X67728316Y-28234609D01*
X67677602Y-28269306D01*
X67639050Y-28299370D01*
X67620619Y-28318565D01*
X67620351Y-28319172D01*
X67624308Y-28339936D01*
X67639993Y-28387062D01*
X67665778Y-28456673D01*
X67700031Y-28544893D01*
X67741123Y-28647844D01*
X67787424Y-28761650D01*
X67837304Y-28882435D01*
X67889133Y-29006321D01*
X67941281Y-29129432D01*
X67992118Y-29247891D01*
X68040013Y-29357823D01*
X68083338Y-29455349D01*
X68120462Y-29536593D01*
X68149756Y-29597679D01*
X68169588Y-29634730D01*
X68177574Y-29644460D01*
X68201979Y-29636883D01*
X68247642Y-29616560D01*
X68306690Y-29587125D01*
X68339160Y-29569916D01*
X68477053Y-29495359D01*
X68641323Y-29606469D01*
X68725179Y-29663390D01*
X68816987Y-29726030D01*
X68903020Y-29785011D01*
X68946113Y-29814711D01*
X69006723Y-29855410D01*
X69058045Y-29887663D01*
X69093385Y-29907384D01*
X69104863Y-29911554D01*
X69121570Y-29900307D01*
X69158546Y-29868911D01*
X69212205Y-29820624D01*
X69278962Y-29758708D01*
X69355234Y-29686421D01*
X69403473Y-29640008D01*
X69487867Y-29557087D01*
X69560803Y-29482920D01*
X69619331Y-29420680D01*
X69660503Y-29373541D01*
X69681372Y-29344673D01*
X69683374Y-29338815D01*
X69674083Y-29316532D01*
X69648409Y-29271477D01*
X69609200Y-29208211D01*
X69559303Y-29131295D01*
X69501567Y-29045292D01*
X69485149Y-29021315D01*
X69425323Y-28934170D01*
X69371650Y-28855710D01*
X69327130Y-28790345D01*
X69294765Y-28742484D01*
X69277555Y-28716535D01*
X69275893Y-28713852D01*
X69278379Y-28693172D01*
X69291577Y-28647704D01*
X69313186Y-28583444D01*
X69340904Y-28506387D01*
X69372430Y-28422529D01*
X69405463Y-28337866D01*
X69437701Y-28258392D01*
X69466843Y-28190104D01*
X69490588Y-28138997D01*
X69506635Y-28111067D01*
X69507775Y-28109727D01*
X69517588Y-28101745D01*
X69534161Y-28093851D01*
X69561132Y-28085229D01*
X69602139Y-28075062D01*
X69660820Y-28062531D01*
X69740813Y-28046821D01*
X69845755Y-28027113D01*
X69979285Y-28002592D01*
X70008196Y-27997319D01*
X70093882Y-27980764D01*
X70168582Y-27964569D01*
X70225694Y-27950296D01*
X70258617Y-27939508D01*
X70263031Y-27936993D01*
X70270306Y-27914696D01*
X70276219Y-27864869D01*
X70280766Y-27793304D01*
X70283945Y-27705793D01*
X70285749Y-27608128D01*
X70286177Y-27506101D01*
X70285223Y-27405503D01*
X70282884Y-27312127D01*
X70279156Y-27231765D01*
X70274034Y-27170209D01*
X70267516Y-27133250D01*
X70263586Y-27125686D01*
X70241708Y-27118056D01*
X70191891Y-27105642D01*
X70119097Y-27089522D01*
X70028289Y-27070773D01*
X69924431Y-27050471D01*
X69867846Y-27039830D01*
X69760486Y-27019760D01*
X69664746Y-27001580D01*
X69585306Y-26986199D01*
X69526846Y-26974531D01*
X69494045Y-26967488D01*
X69488646Y-26965926D01*
X69479522Y-26948322D01*
X69460235Y-26905918D01*
X69433355Y-26844772D01*
X69401454Y-26770943D01*
X69367102Y-26690489D01*
X69332871Y-26609468D01*
X69301331Y-26533937D01*
X69275054Y-26469955D01*
X69256611Y-26423580D01*
X69248571Y-26400869D01*
X69248422Y-26399876D01*
X69257535Y-26381961D01*
X69283086Y-26340733D01*
X69322388Y-26280291D01*
X69372757Y-26204731D01*
X69431506Y-26118152D01*
X69465658Y-26068421D01*
X69527890Y-25977236D01*
X69583164Y-25894449D01*
X69628782Y-25824249D01*
X69662048Y-25770824D01*
X69680264Y-25738361D01*
X69682895Y-25731083D01*
X69671586Y-25714145D01*
X69640319Y-25677978D01*
X69593090Y-25626635D01*
X69533892Y-25564167D01*
X69466719Y-25494626D01*
X69395566Y-25422065D01*
X69324426Y-25350535D01*
X69257293Y-25284087D01*
X69198161Y-25226774D01*
X69151025Y-25182647D01*
X69119877Y-25155759D01*
X69109457Y-25149342D01*
X69092491Y-25158365D01*
X69051911Y-25183715D01*
X68991663Y-25222810D01*
X68915693Y-25273071D01*
X68827946Y-25331917D01*
X68761756Y-25376748D01*
X68427332Y-25604154D01*
X68148567Y-25489238D01*
X67869803Y-25374322D01*
X67794254Y-24973576D01*
X67718706Y-24572829D01*
X66884585Y-24572829D01*
X66809036Y-24973576D01*
G36*
X64918612Y-30512645D02*
X64861135Y-30530206D01*
X64824128Y-30552395D01*
X64812073Y-30569942D01*
X64815391Y-30590742D01*
X64836921Y-30623419D01*
X64855126Y-30646562D01*
X64892656Y-30688402D01*
X64920852Y-30706005D01*
X64944889Y-30704856D01*
X65016192Y-30686710D01*
X65068558Y-30687534D01*
X65111082Y-30708098D01*
X65125358Y-30720134D01*
X65171053Y-30762483D01*
X65171053Y-31315526D01*
X65354869Y-31315526D01*
X65354869Y-30513421D01*
X65262961Y-30513421D01*
X65207781Y-30515603D01*
X65179312Y-30523351D01*
X65171057Y-30538468D01*
X65171053Y-30538916D01*
X65167155Y-30554749D01*
X65149526Y-30552684D01*
X65125099Y-30541261D01*
X65074650Y-30520005D01*
X65033684Y-30507216D01*
X64980972Y-30503938D01*
X64918612Y-30512645D01*
X64918612Y-30512645D01*
G37*
X64918612Y-30512645D02*
X64861135Y-30530206D01*
X64824128Y-30552395D01*
X64812073Y-30569942D01*
X64815391Y-30590742D01*
X64836921Y-30623419D01*
X64855126Y-30646562D01*
X64892656Y-30688402D01*
X64920852Y-30706005D01*
X64944889Y-30704856D01*
X65016192Y-30686710D01*
X65068558Y-30687534D01*
X65111082Y-30708098D01*
X65125358Y-30720134D01*
X65171053Y-30762483D01*
X65171053Y-31315526D01*
X65354869Y-31315526D01*
X65354869Y-30513421D01*
X65262961Y-30513421D01*
X65207781Y-30515603D01*
X65179312Y-30523351D01*
X65171057Y-30538468D01*
X65171053Y-30538916D01*
X65167155Y-30554749D01*
X65149526Y-30552684D01*
X65125099Y-30541261D01*
X65074650Y-30520005D01*
X65033684Y-30507216D01*
X64980972Y-30503938D01*
X64918612Y-30512645D01*
G36*
X68312043Y-30527226D02*
X68270454Y-30547090D01*
X68230175Y-30575784D01*
X68199490Y-30608809D01*
X68177139Y-30650931D01*
X68161864Y-30706915D01*
X68152408Y-30781528D01*
X68147513Y-30879535D01*
X68145919Y-31005702D01*
X68145894Y-31018914D01*
X68145527Y-31315526D01*
X68329343Y-31315526D01*
X68329343Y-31042081D01*
X68329473Y-30940777D01*
X68330379Y-30867353D01*
X68332827Y-30816271D01*
X68337586Y-30781990D01*
X68345426Y-30758971D01*
X68357115Y-30741673D01*
X68373398Y-30724581D01*
X68430366Y-30687857D01*
X68492555Y-30681042D01*
X68551801Y-30704261D01*
X68572405Y-30721543D01*
X68587530Y-30737791D01*
X68598390Y-30755191D01*
X68605690Y-30779212D01*
X68610137Y-30815322D01*
X68612436Y-30868988D01*
X68613296Y-30945680D01*
X68613422Y-31039043D01*
X68613422Y-31315526D01*
X68797237Y-31315526D01*
X68797237Y-30513421D01*
X68705329Y-30513421D01*
X68650149Y-30515603D01*
X68621680Y-30523351D01*
X68613425Y-30538468D01*
X68613422Y-30538916D01*
X68609592Y-30553720D01*
X68592699Y-30552040D01*
X68559112Y-30535773D01*
X68482937Y-30511840D01*
X68395800Y-30509178D01*
X68312043Y-30527226D01*
X68312043Y-30527226D01*
G37*
X68312043Y-30527226D02*
X68270454Y-30547090D01*
X68230175Y-30575784D01*
X68199490Y-30608809D01*
X68177139Y-30650931D01*
X68161864Y-30706915D01*
X68152408Y-30781528D01*
X68147513Y-30879535D01*
X68145919Y-31005702D01*
X68145894Y-31018914D01*
X68145527Y-31315526D01*
X68329343Y-31315526D01*
X68329343Y-31042081D01*
X68329473Y-30940777D01*
X68330379Y-30867353D01*
X68332827Y-30816271D01*
X68337586Y-30781990D01*
X68345426Y-30758971D01*
X68357115Y-30741673D01*
X68373398Y-30724581D01*
X68430366Y-30687857D01*
X68492555Y-30681042D01*
X68551801Y-30704261D01*
X68572405Y-30721543D01*
X68587530Y-30737791D01*
X68598390Y-30755191D01*
X68605690Y-30779212D01*
X68610137Y-30815322D01*
X68612436Y-30868988D01*
X68613296Y-30945680D01*
X68613422Y-31039043D01*
X68613422Y-31315526D01*
X68797237Y-31315526D01*
X68797237Y-30513421D01*
X68705329Y-30513421D01*
X68650149Y-30515603D01*
X68621680Y-30523351D01*
X68613425Y-30538468D01*
X68613422Y-30538916D01*
X68609592Y-30553720D01*
X68592699Y-30552040D01*
X68559112Y-30535773D01*
X68482937Y-30511840D01*
X68395800Y-30509178D01*
X68312043Y-30527226D01*
G36*
X63751216Y-30510554D02*
X63708426Y-30520949D01*
X63626391Y-30559013D01*
X63556243Y-30617149D01*
X63507695Y-30686852D01*
X63501025Y-30702502D01*
X63491876Y-30743496D01*
X63485471Y-30804138D01*
X63483290Y-30865430D01*
X63483290Y-30981316D01*
X63725593Y-30981316D01*
X63825529Y-30981693D01*
X63895931Y-30983987D01*
X63940687Y-30989938D01*
X63963685Y-31001285D01*
X63968811Y-31019771D01*
X63959952Y-31047136D01*
X63944083Y-31079155D01*
X63899816Y-31132592D01*
X63838301Y-31159215D01*
X63763115Y-31158347D01*
X63677947Y-31129371D01*
X63604341Y-31093611D01*
X63543266Y-31141904D01*
X63482190Y-31190197D01*
X63539649Y-31243285D01*
X63616359Y-31293445D01*
X63710698Y-31323688D01*
X63812173Y-31332151D01*
X63910289Y-31316974D01*
X63926119Y-31311824D01*
X64012353Y-31266791D01*
X64076499Y-31199652D01*
X64119909Y-31108405D01*
X64143936Y-30991044D01*
X64144216Y-30988529D01*
X64146367Y-30860627D01*
X64137671Y-30814997D01*
X63967895Y-30814997D01*
X63952303Y-30822013D01*
X63909971Y-30827388D01*
X63847566Y-30830457D01*
X63808019Y-30830921D01*
X63734272Y-30830630D01*
X63688160Y-30828783D01*
X63663900Y-30823912D01*
X63655706Y-30814555D01*
X63657794Y-30799245D01*
X63659545Y-30793322D01*
X63689440Y-30737668D01*
X63736458Y-30692815D01*
X63777951Y-30673105D01*
X63833074Y-30674295D01*
X63888932Y-30698875D01*
X63935788Y-30739570D01*
X63963906Y-30789108D01*
X63967895Y-30814997D01*
X64137671Y-30814997D01*
X64124926Y-30748133D01*
X64082389Y-30653727D01*
X64021253Y-30580088D01*
X63944015Y-30529893D01*
X63853170Y-30505822D01*
X63751216Y-30510554D01*
X63751216Y-30510554D01*
G37*
X63751216Y-30510554D02*
X63708426Y-30520949D01*
X63626391Y-30559013D01*
X63556243Y-30617149D01*
X63507695Y-30686852D01*
X63501025Y-30702502D01*
X63491876Y-30743496D01*
X63485471Y-30804138D01*
X63483290Y-30865430D01*
X63483290Y-30981316D01*
X63725593Y-30981316D01*
X63825529Y-30981693D01*
X63895931Y-30983987D01*
X63940687Y-30989938D01*
X63963685Y-31001285D01*
X63968811Y-31019771D01*
X63959952Y-31047136D01*
X63944083Y-31079155D01*
X63899816Y-31132592D01*
X63838301Y-31159215D01*
X63763115Y-31158347D01*
X63677947Y-31129371D01*
X63604341Y-31093611D01*
X63543266Y-31141904D01*
X63482190Y-31190197D01*
X63539649Y-31243285D01*
X63616359Y-31293445D01*
X63710698Y-31323688D01*
X63812173Y-31332151D01*
X63910289Y-31316974D01*
X63926119Y-31311824D01*
X64012353Y-31266791D01*
X64076499Y-31199652D01*
X64119909Y-31108405D01*
X64143936Y-30991044D01*
X64144216Y-30988529D01*
X64146367Y-30860627D01*
X64137671Y-30814997D01*
X63967895Y-30814997D01*
X63952303Y-30822013D01*
X63909971Y-30827388D01*
X63847566Y-30830457D01*
X63808019Y-30830921D01*
X63734272Y-30830630D01*
X63688160Y-30828783D01*
X63663900Y-30823912D01*
X63655706Y-30814555D01*
X63657794Y-30799245D01*
X63659545Y-30793322D01*
X63689440Y-30737668D01*
X63736458Y-30692815D01*
X63777951Y-30673105D01*
X63833074Y-30674295D01*
X63888932Y-30698875D01*
X63935788Y-30739570D01*
X63963906Y-30789108D01*
X63967895Y-30814997D01*
X64137671Y-30814997D01*
X64124926Y-30748133D01*
X64082389Y-30653727D01*
X64021253Y-30580088D01*
X63944015Y-30529893D01*
X63853170Y-30505822D01*
X63751216Y-30510554D01*
G36*
X64363424Y-30520419D02*
X64266605Y-30561549D01*
X64236110Y-30581571D01*
X64197135Y-30612340D01*
X64172669Y-30636533D01*
X64168422Y-30644413D01*
X64180416Y-30661899D01*
X64211113Y-30691570D01*
X64235688Y-30712279D01*
X64302954Y-30766336D01*
X64356070Y-30721642D01*
X64397116Y-30692789D01*
X64437137Y-30682829D01*
X64482941Y-30685261D01*
X64555676Y-30703345D01*
X64605744Y-30740881D01*
X64636171Y-30801562D01*
X64649983Y-30889081D01*
X64649987Y-30889136D01*
X64648792Y-30986958D01*
X64630228Y-31058730D01*
X64593196Y-31107595D01*
X64567950Y-31124143D01*
X64500903Y-31144749D01*
X64429291Y-31144762D01*
X64366985Y-31124768D01*
X64352237Y-31115000D01*
X64315250Y-31090047D01*
X64286332Y-31085958D01*
X64255144Y-31104530D01*
X64220664Y-31137887D01*
X64166088Y-31194196D01*
X64226682Y-31244142D01*
X64320302Y-31300513D01*
X64425875Y-31328293D01*
X64536202Y-31326282D01*
X64608657Y-31307862D01*
X64693344Y-31262310D01*
X64761073Y-31190650D01*
X64791843Y-31140066D01*
X64816764Y-31067488D01*
X64829234Y-30975569D01*
X64829330Y-30875948D01*
X64817130Y-30780267D01*
X64792710Y-30700169D01*
X64788864Y-30691956D01*
X64731907Y-30611413D01*
X64654791Y-30552771D01*
X64563610Y-30517247D01*
X64464457Y-30506057D01*
X64363424Y-30520419D01*
X64363424Y-30520419D01*
G37*
X64363424Y-30520419D02*
X64266605Y-30561549D01*
X64236110Y-30581571D01*
X64197135Y-30612340D01*
X64172669Y-30636533D01*
X64168422Y-30644413D01*
X64180416Y-30661899D01*
X64211113Y-30691570D01*
X64235688Y-30712279D01*
X64302954Y-30766336D01*
X64356070Y-30721642D01*
X64397116Y-30692789D01*
X64437137Y-30682829D01*
X64482941Y-30685261D01*
X64555676Y-30703345D01*
X64605744Y-30740881D01*
X64636171Y-30801562D01*
X64649983Y-30889081D01*
X64649987Y-30889136D01*
X64648792Y-30986958D01*
X64630228Y-31058730D01*
X64593196Y-31107595D01*
X64567950Y-31124143D01*
X64500903Y-31144749D01*
X64429291Y-31144762D01*
X64366985Y-31124768D01*
X64352237Y-31115000D01*
X64315250Y-31090047D01*
X64286332Y-31085958D01*
X64255144Y-31104530D01*
X64220664Y-31137887D01*
X64166088Y-31194196D01*
X64226682Y-31244142D01*
X64320302Y-31300513D01*
X64425875Y-31328293D01*
X64536202Y-31326282D01*
X64608657Y-31307862D01*
X64693344Y-31262310D01*
X64761073Y-31190650D01*
X64791843Y-31140066D01*
X64816764Y-31067488D01*
X64829234Y-30975569D01*
X64829330Y-30875948D01*
X64817130Y-30780267D01*
X64792710Y-30700169D01*
X64788864Y-30691956D01*
X64731907Y-30611413D01*
X64654791Y-30552771D01*
X64563610Y-30517247D01*
X64464457Y-30506057D01*
X64363424Y-30520419D01*
G36*
X65989869Y-30773533D02*
X65988290Y-30896089D01*
X65982519Y-30989179D01*
X65971009Y-31056651D01*
X65952210Y-31102355D01*
X65924574Y-31130139D01*
X65886552Y-31143854D01*
X65839474Y-31147358D01*
X65790168Y-31143432D01*
X65752717Y-31129089D01*
X65725572Y-31100478D01*
X65707185Y-31053751D01*
X65696007Y-30985058D01*
X65690489Y-30890550D01*
X65689079Y-30773533D01*
X65689079Y-30513421D01*
X65505264Y-30513421D01*
X65505264Y-31315526D01*
X65597172Y-31315526D01*
X65652578Y-31313281D01*
X65681109Y-31305396D01*
X65689079Y-31290428D01*
X65693880Y-31277097D01*
X65712986Y-31279917D01*
X65751496Y-31298783D01*
X65839761Y-31327887D01*
X65933377Y-31325825D01*
X66023079Y-31294221D01*
X66065796Y-31269257D01*
X66098379Y-31242226D01*
X66122183Y-31208405D01*
X66138561Y-31163068D01*
X66148869Y-31101489D01*
X66154459Y-31018943D01*
X66156688Y-30910705D01*
X66156974Y-30827004D01*
X66156974Y-30513421D01*
X65989869Y-30513421D01*
X65989869Y-30773533D01*
X65989869Y-30773533D01*
G37*
X65989869Y-30773533D02*
X65988290Y-30896089D01*
X65982519Y-30989179D01*
X65971009Y-31056651D01*
X65952210Y-31102355D01*
X65924574Y-31130139D01*
X65886552Y-31143854D01*
X65839474Y-31147358D01*
X65790168Y-31143432D01*
X65752717Y-31129089D01*
X65725572Y-31100478D01*
X65707185Y-31053751D01*
X65696007Y-30985058D01*
X65690489Y-30890550D01*
X65689079Y-30773533D01*
X65689079Y-30513421D01*
X65505264Y-30513421D01*
X65505264Y-31315526D01*
X65597172Y-31315526D01*
X65652578Y-31313281D01*
X65681109Y-31305396D01*
X65689079Y-31290428D01*
X65693880Y-31277097D01*
X65712986Y-31279917D01*
X65751496Y-31298783D01*
X65839761Y-31327887D01*
X65933377Y-31325825D01*
X66023079Y-31294221D01*
X66065796Y-31269257D01*
X66098379Y-31242226D01*
X66122183Y-31208405D01*
X66138561Y-31163068D01*
X66148869Y-31101489D01*
X66154459Y-31018943D01*
X66156688Y-30910705D01*
X66156974Y-30827004D01*
X66156974Y-30513421D01*
X65989869Y-30513421D01*
X65989869Y-30773533D01*
G36*
X66498331Y-30523310D02*
X66413808Y-30569340D01*
X66347679Y-30642006D01*
X66316522Y-30701106D01*
X66303145Y-30753305D01*
X66294478Y-30827719D01*
X66290763Y-30913442D01*
X66292246Y-30999569D01*
X66299169Y-31075193D01*
X66307255Y-31115584D01*
X66334535Y-31170840D01*
X66381780Y-31229530D01*
X66438718Y-31280852D01*
X66495076Y-31314005D01*
X66496450Y-31314531D01*
X66566384Y-31329018D01*
X66649263Y-31329377D01*
X66728023Y-31316188D01*
X66758434Y-31305617D01*
X66836761Y-31261201D01*
X66892857Y-31203007D01*
X66929714Y-31125965D01*
X66950320Y-31025001D01*
X66954982Y-30972116D01*
X66954387Y-30905663D01*
X66775264Y-30905663D01*
X66769230Y-31002630D01*
X66751862Y-31076523D01*
X66724260Y-31123736D01*
X66704596Y-31137237D01*
X66654213Y-31146651D01*
X66594327Y-31143864D01*
X66542551Y-31130316D01*
X66528973Y-31122862D01*
X66493151Y-31079451D01*
X66469507Y-31013014D01*
X66459442Y-30932161D01*
X66464358Y-30845502D01*
X66475345Y-30793349D01*
X66506891Y-30732951D01*
X66556689Y-30695197D01*
X66616663Y-30682143D01*
X66678736Y-30695849D01*
X66726418Y-30729372D01*
X66751475Y-30757031D01*
X66766100Y-30784294D01*
X66773071Y-30821190D01*
X66775167Y-30877750D01*
X66775264Y-30905663D01*
X66954387Y-30905663D01*
X66953718Y-30830994D01*
X66930735Y-30715271D01*
X66886028Y-30624941D01*
X66819595Y-30560000D01*
X66731435Y-30520445D01*
X66712505Y-30515858D01*
X66598734Y-30505090D01*
X66498331Y-30523310D01*
X66498331Y-30523310D01*
G37*
X66498331Y-30523310D02*
X66413808Y-30569340D01*
X66347679Y-30642006D01*
X66316522Y-30701106D01*
X66303145Y-30753305D01*
X66294478Y-30827719D01*
X66290763Y-30913442D01*
X66292246Y-30999569D01*
X66299169Y-31075193D01*
X66307255Y-31115584D01*
X66334535Y-31170840D01*
X66381780Y-31229530D01*
X66438718Y-31280852D01*
X66495076Y-31314005D01*
X66496450Y-31314531D01*
X66566384Y-31329018D01*
X66649263Y-31329377D01*
X66728023Y-31316188D01*
X66758434Y-31305617D01*
X66836761Y-31261201D01*
X66892857Y-31203007D01*
X66929714Y-31125965D01*
X66950320Y-31025001D01*
X66954982Y-30972116D01*
X66954387Y-30905663D01*
X66775264Y-30905663D01*
X66769230Y-31002630D01*
X66751862Y-31076523D01*
X66724260Y-31123736D01*
X66704596Y-31137237D01*
X66654213Y-31146651D01*
X66594327Y-31143864D01*
X66542551Y-31130316D01*
X66528973Y-31122862D01*
X66493151Y-31079451D01*
X66469507Y-31013014D01*
X66459442Y-30932161D01*
X66464358Y-30845502D01*
X66475345Y-30793349D01*
X66506891Y-30732951D01*
X66556689Y-30695197D01*
X66616663Y-30682143D01*
X66678736Y-30695849D01*
X66726418Y-30729372D01*
X66751475Y-30757031D01*
X66766100Y-30784294D01*
X66773071Y-30821190D01*
X66775167Y-30877750D01*
X66775264Y-30905663D01*
X66954387Y-30905663D01*
X66953718Y-30830994D01*
X66930735Y-30715271D01*
X66886028Y-30624941D01*
X66819595Y-30560000D01*
X66731435Y-30520445D01*
X66712505Y-30515858D01*
X66598734Y-30505090D01*
X66498331Y-30523310D01*
G36*
X67291372Y-30510547D02*
X67228092Y-30522548D01*
X67162443Y-30547648D01*
X67155428Y-30550848D01*
X67105644Y-30577026D01*
X67071166Y-30601353D01*
X67060022Y-30616937D01*
X67070634Y-30642353D01*
X67096412Y-30679853D01*
X67107854Y-30693852D01*
X67155008Y-30748954D01*
X67215799Y-30713086D01*
X67273653Y-30689192D01*
X67340500Y-30676420D01*
X67404606Y-30675613D01*
X67454236Y-30687615D01*
X67466146Y-30695105D01*
X67488828Y-30729450D01*
X67491584Y-30769013D01*
X67474612Y-30799920D01*
X67464573Y-30805913D01*
X67434490Y-30813357D01*
X67381611Y-30822106D01*
X67316425Y-30830467D01*
X67304400Y-30831778D01*
X67199703Y-30849888D01*
X67123768Y-30880651D01*
X67073408Y-30926907D01*
X67045436Y-30991497D01*
X67036722Y-31070387D01*
X67048760Y-31160065D01*
X67087849Y-31230486D01*
X67154145Y-31281777D01*
X67247806Y-31314067D01*
X67351777Y-31326807D01*
X67436562Y-31326654D01*
X67505335Y-31315083D01*
X67552303Y-31299109D01*
X67611650Y-31271275D01*
X67666494Y-31238973D01*
X67685987Y-31224755D01*
X67736119Y-31183835D01*
X67615197Y-31061477D01*
X67546457Y-31106967D01*
X67477512Y-31141133D01*
X67403889Y-31159004D01*
X67333117Y-31160889D01*
X67272726Y-31147101D01*
X67230243Y-31117949D01*
X67216526Y-31093352D01*
X67218583Y-31053904D01*
X67252670Y-31023737D01*
X67318692Y-31002906D01*
X67391026Y-30993279D01*
X67502348Y-30974910D01*
X67585048Y-30940254D01*
X67640235Y-30888297D01*
X67669012Y-30818023D01*
X67672999Y-30734707D01*
X67653307Y-30647681D01*
X67608411Y-30581902D01*
X67537909Y-30537068D01*
X67441399Y-30512879D01*
X67369900Y-30508137D01*
X67291372Y-30510547D01*
X67291372Y-30510547D01*
G37*
X67291372Y-30510547D02*
X67228092Y-30522548D01*
X67162443Y-30547648D01*
X67155428Y-30550848D01*
X67105644Y-30577026D01*
X67071166Y-30601353D01*
X67060022Y-30616937D01*
X67070634Y-30642353D01*
X67096412Y-30679853D01*
X67107854Y-30693852D01*
X67155008Y-30748954D01*
X67215799Y-30713086D01*
X67273653Y-30689192D01*
X67340500Y-30676420D01*
X67404606Y-30675613D01*
X67454236Y-30687615D01*
X67466146Y-30695105D01*
X67488828Y-30729450D01*
X67491584Y-30769013D01*
X67474612Y-30799920D01*
X67464573Y-30805913D01*
X67434490Y-30813357D01*
X67381611Y-30822106D01*
X67316425Y-30830467D01*
X67304400Y-30831778D01*
X67199703Y-30849888D01*
X67123768Y-30880651D01*
X67073408Y-30926907D01*
X67045436Y-30991497D01*
X67036722Y-31070387D01*
X67048760Y-31160065D01*
X67087849Y-31230486D01*
X67154145Y-31281777D01*
X67247806Y-31314067D01*
X67351777Y-31326807D01*
X67436562Y-31326654D01*
X67505335Y-31315083D01*
X67552303Y-31299109D01*
X67611650Y-31271275D01*
X67666494Y-31238973D01*
X67685987Y-31224755D01*
X67736119Y-31183835D01*
X67615197Y-31061477D01*
X67546457Y-31106967D01*
X67477512Y-31141133D01*
X67403889Y-31159004D01*
X67333117Y-31160889D01*
X67272726Y-31147101D01*
X67230243Y-31117949D01*
X67216526Y-31093352D01*
X67218583Y-31053904D01*
X67252670Y-31023737D01*
X67318692Y-31002906D01*
X67391026Y-30993279D01*
X67502348Y-30974910D01*
X67585048Y-30940254D01*
X67640235Y-30888297D01*
X67669012Y-30818023D01*
X67672999Y-30734707D01*
X67653307Y-30647681D01*
X67608411Y-30581902D01*
X67537909Y-30537068D01*
X67441399Y-30512879D01*
X67369900Y-30508137D01*
X67291372Y-30510547D01*
G36*
X69112982Y-30532027D02*
X69096330Y-30539866D01*
X69038695Y-30582086D01*
X68984195Y-30643700D01*
X68943501Y-30711543D01*
X68931926Y-30742734D01*
X68921366Y-30798449D01*
X68915069Y-30865781D01*
X68914304Y-30893585D01*
X68914211Y-30981316D01*
X69419150Y-30981316D01*
X69408387Y-31027270D01*
X69381967Y-31081620D01*
X69335778Y-31128591D01*
X69280828Y-31158848D01*
X69245811Y-31165131D01*
X69198323Y-31157506D01*
X69141665Y-31138383D01*
X69122418Y-31129584D01*
X69051241Y-31094036D01*
X68990498Y-31140367D01*
X68955448Y-31171703D01*
X68936798Y-31197567D01*
X68935853Y-31205158D01*
X68952515Y-31223556D01*
X68989030Y-31251515D01*
X69022172Y-31273327D01*
X69111607Y-31312537D01*
X69211871Y-31330285D01*
X69311246Y-31325670D01*
X69390461Y-31301551D01*
X69472120Y-31249884D01*
X69530151Y-31181856D01*
X69566454Y-31093843D01*
X69582928Y-30982216D01*
X69584389Y-30931138D01*
X69578543Y-30814091D01*
X69577825Y-30810686D01*
X69410511Y-30810686D01*
X69405903Y-30821662D01*
X69386964Y-30827715D01*
X69347902Y-30830310D01*
X69282923Y-30830910D01*
X69257903Y-30830921D01*
X69181779Y-30830014D01*
X69133504Y-30826720D01*
X69107540Y-30820181D01*
X69098352Y-30809537D01*
X69098027Y-30806119D01*
X69108513Y-30778956D01*
X69134758Y-30740903D01*
X69146041Y-30727579D01*
X69187928Y-30689896D01*
X69231591Y-30675080D01*
X69255115Y-30673842D01*
X69318757Y-30689329D01*
X69372127Y-30730930D01*
X69405981Y-30791353D01*
X69406581Y-30793322D01*
X69410511Y-30810686D01*
X69577825Y-30810686D01*
X69559101Y-30721928D01*
X69524078Y-30648190D01*
X69481244Y-30595848D01*
X69402052Y-30539092D01*
X69308960Y-30508762D01*
X69209945Y-30506021D01*
X69112982Y-30532027D01*
X69112982Y-30532027D01*
G37*
X69112982Y-30532027D02*
X69096330Y-30539866D01*
X69038695Y-30582086D01*
X68984195Y-30643700D01*
X68943501Y-30711543D01*
X68931926Y-30742734D01*
X68921366Y-30798449D01*
X68915069Y-30865781D01*
X68914304Y-30893585D01*
X68914211Y-30981316D01*
X69419150Y-30981316D01*
X69408387Y-31027270D01*
X69381967Y-31081620D01*
X69335778Y-31128591D01*
X69280828Y-31158848D01*
X69245811Y-31165131D01*
X69198323Y-31157506D01*
X69141665Y-31138383D01*
X69122418Y-31129584D01*
X69051241Y-31094036D01*
X68990498Y-31140367D01*
X68955448Y-31171703D01*
X68936798Y-31197567D01*
X68935853Y-31205158D01*
X68952515Y-31223556D01*
X68989030Y-31251515D01*
X69022172Y-31273327D01*
X69111607Y-31312537D01*
X69211871Y-31330285D01*
X69311246Y-31325670D01*
X69390461Y-31301551D01*
X69472120Y-31249884D01*
X69530151Y-31181856D01*
X69566454Y-31093843D01*
X69582928Y-30982216D01*
X69584389Y-30931138D01*
X69578543Y-30814091D01*
X69577825Y-30810686D01*
X69410511Y-30810686D01*
X69405903Y-30821662D01*
X69386964Y-30827715D01*
X69347902Y-30830310D01*
X69282923Y-30830910D01*
X69257903Y-30830921D01*
X69181779Y-30830014D01*
X69133504Y-30826720D01*
X69107540Y-30820181D01*
X69098352Y-30809537D01*
X69098027Y-30806119D01*
X69108513Y-30778956D01*
X69134758Y-30740903D01*
X69146041Y-30727579D01*
X69187928Y-30689896D01*
X69231591Y-30675080D01*
X69255115Y-30673842D01*
X69318757Y-30689329D01*
X69372127Y-30730930D01*
X69405981Y-30791353D01*
X69406581Y-30793322D01*
X69410511Y-30810686D01*
X69577825Y-30810686D01*
X69559101Y-30721928D01*
X69524078Y-30648190D01*
X69481244Y-30595848D01*
X69402052Y-30539092D01*
X69308960Y-30508762D01*
X69209945Y-30506021D01*
X69112982Y-30532027D01*
G36*
X70683216Y-30522104D02*
X70595795Y-30560754D01*
X70529430Y-30625290D01*
X70484024Y-30715812D01*
X70459482Y-30832418D01*
X70457723Y-30850624D01*
X70456344Y-30978984D01*
X70474216Y-31091496D01*
X70510250Y-31182688D01*
X70529545Y-31212022D01*
X70596755Y-31274106D01*
X70682350Y-31314316D01*
X70778110Y-31331003D01*
X70875813Y-31322517D01*
X70950083Y-31296380D01*
X71013953Y-31252335D01*
X71066154Y-31194587D01*
X71067057Y-31193236D01*
X71088256Y-31157593D01*
X71102033Y-31121752D01*
X71110376Y-31076519D01*
X71115273Y-31012701D01*
X71117431Y-30960368D01*
X71118329Y-30912910D01*
X70951257Y-30912910D01*
X70949624Y-30960154D01*
X70943696Y-31023046D01*
X70933239Y-31063407D01*
X70914381Y-31092122D01*
X70896719Y-31108896D01*
X70834106Y-31144016D01*
X70768592Y-31148710D01*
X70707579Y-31123440D01*
X70677072Y-31095124D01*
X70655089Y-31066589D01*
X70642231Y-31039284D01*
X70636588Y-31003750D01*
X70636249Y-30950524D01*
X70637988Y-30901506D01*
X70641729Y-30831482D01*
X70647659Y-30786064D01*
X70658347Y-30756440D01*
X70676361Y-30733797D01*
X70690637Y-30720855D01*
X70750349Y-30686860D01*
X70814766Y-30685165D01*
X70868781Y-30705301D01*
X70914860Y-30747352D01*
X70942311Y-30816428D01*
X70951257Y-30912910D01*
X71118329Y-30912910D01*
X71119401Y-30856299D01*
X71116036Y-30778468D01*
X71105955Y-30719930D01*
X71087774Y-30673737D01*
X71060110Y-30632942D01*
X71049854Y-30620828D01*
X70985722Y-30560474D01*
X70916934Y-30525220D01*
X70832811Y-30510450D01*
X70791791Y-30509243D01*
X70683216Y-30522104D01*
X70683216Y-30522104D01*
G37*
X70683216Y-30522104D02*
X70595795Y-30560754D01*
X70529430Y-30625290D01*
X70484024Y-30715812D01*
X70459482Y-30832418D01*
X70457723Y-30850624D01*
X70456344Y-30978984D01*
X70474216Y-31091496D01*
X70510250Y-31182688D01*
X70529545Y-31212022D01*
X70596755Y-31274106D01*
X70682350Y-31314316D01*
X70778110Y-31331003D01*
X70875813Y-31322517D01*
X70950083Y-31296380D01*
X71013953Y-31252335D01*
X71066154Y-31194587D01*
X71067057Y-31193236D01*
X71088256Y-31157593D01*
X71102033Y-31121752D01*
X71110376Y-31076519D01*
X71115273Y-31012701D01*
X71117431Y-30960368D01*
X71118329Y-30912910D01*
X70951257Y-30912910D01*
X70949624Y-30960154D01*
X70943696Y-31023046D01*
X70933239Y-31063407D01*
X70914381Y-31092122D01*
X70896719Y-31108896D01*
X70834106Y-31144016D01*
X70768592Y-31148710D01*
X70707579Y-31123440D01*
X70677072Y-31095124D01*
X70655089Y-31066589D01*
X70642231Y-31039284D01*
X70636588Y-31003750D01*
X70636249Y-30950524D01*
X70637988Y-30901506D01*
X70641729Y-30831482D01*
X70647659Y-30786064D01*
X70658347Y-30756440D01*
X70676361Y-30733797D01*
X70690637Y-30720855D01*
X70750349Y-30686860D01*
X70814766Y-30685165D01*
X70868781Y-30705301D01*
X70914860Y-30747352D01*
X70942311Y-30816428D01*
X70951257Y-30912910D01*
X71118329Y-30912910D01*
X71119401Y-30856299D01*
X71116036Y-30778468D01*
X71105955Y-30719930D01*
X71087774Y-30673737D01*
X71060110Y-30632942D01*
X71049854Y-30620828D01*
X70985722Y-30560474D01*
X70916934Y-30525220D01*
X70832811Y-30510450D01*
X70791791Y-30509243D01*
X70683216Y-30522104D01*
G36*
X64608807Y-31771078D02*
X64528932Y-31791845D01*
X64462038Y-31834705D01*
X64429649Y-31866723D01*
X64376555Y-31942413D01*
X64346127Y-32030216D01*
X64335673Y-32138150D01*
X64335620Y-32146875D01*
X64335527Y-32234605D01*
X64840466Y-32234605D01*
X64829702Y-32280559D01*
X64810268Y-32322178D01*
X64776255Y-32365544D01*
X64769140Y-32372467D01*
X64707997Y-32409935D01*
X64638271Y-32416289D01*
X64558013Y-32391638D01*
X64544408Y-32385000D01*
X64502681Y-32364819D01*
X64474732Y-32353321D01*
X64469855Y-32352258D01*
X64452832Y-32362583D01*
X64420367Y-32387845D01*
X64403886Y-32401650D01*
X64369736Y-32433361D01*
X64358522Y-32454299D01*
X64366305Y-32473560D01*
X64370465Y-32478827D01*
X64398643Y-32501878D01*
X64445138Y-32529892D01*
X64477566Y-32546246D01*
X64569615Y-32575059D01*
X64671524Y-32584395D01*
X64768037Y-32573332D01*
X64795066Y-32565412D01*
X64878724Y-32520581D01*
X64940734Y-32451598D01*
X64981455Y-32357794D01*
X65001245Y-32238498D01*
X65003418Y-32176118D01*
X64997074Y-32085298D01*
X64836843Y-32085298D01*
X64821345Y-32092012D01*
X64779688Y-32097280D01*
X64719124Y-32100389D01*
X64678093Y-32100921D01*
X64604289Y-32100408D01*
X64557707Y-32098006D01*
X64532152Y-32092422D01*
X64521431Y-32082361D01*
X64519343Y-32067763D01*
X64533669Y-32022796D01*
X64569738Y-31978353D01*
X64617185Y-31944242D01*
X64664651Y-31930288D01*
X64729121Y-31942666D01*
X64784930Y-31978452D01*
X64823626Y-32030033D01*
X64836843Y-32085298D01*
X64997074Y-32085298D01*
X64994179Y-32043866D01*
X64965664Y-31938498D01*
X64917271Y-31859178D01*
X64848396Y-31805071D01*
X64758435Y-31775343D01*
X64709700Y-31769618D01*
X64608807Y-31771078D01*
X64608807Y-31771078D01*
G37*
X64608807Y-31771078D02*
X64528932Y-31791845D01*
X64462038Y-31834705D01*
X64429649Y-31866723D01*
X64376555Y-31942413D01*
X64346127Y-32030216D01*
X64335673Y-32138150D01*
X64335620Y-32146875D01*
X64335527Y-32234605D01*
X64840466Y-32234605D01*
X64829702Y-32280559D01*
X64810268Y-32322178D01*
X64776255Y-32365544D01*
X64769140Y-32372467D01*
X64707997Y-32409935D01*
X64638271Y-32416289D01*
X64558013Y-32391638D01*
X64544408Y-32385000D01*
X64502681Y-32364819D01*
X64474732Y-32353321D01*
X64469855Y-32352258D01*
X64452832Y-32362583D01*
X64420367Y-32387845D01*
X64403886Y-32401650D01*
X64369736Y-32433361D01*
X64358522Y-32454299D01*
X64366305Y-32473560D01*
X64370465Y-32478827D01*
X64398643Y-32501878D01*
X64445138Y-32529892D01*
X64477566Y-32546246D01*
X64569615Y-32575059D01*
X64671524Y-32584395D01*
X64768037Y-32573332D01*
X64795066Y-32565412D01*
X64878724Y-32520581D01*
X64940734Y-32451598D01*
X64981455Y-32357794D01*
X65001245Y-32238498D01*
X65003418Y-32176118D01*
X64997074Y-32085298D01*
X64836843Y-32085298D01*
X64821345Y-32092012D01*
X64779688Y-32097280D01*
X64719124Y-32100389D01*
X64678093Y-32100921D01*
X64604289Y-32100408D01*
X64557707Y-32098006D01*
X64532152Y-32092422D01*
X64521431Y-32082361D01*
X64519343Y-32067763D01*
X64533669Y-32022796D01*
X64569738Y-31978353D01*
X64617185Y-31944242D01*
X64664651Y-31930288D01*
X64729121Y-31942666D01*
X64784930Y-31978452D01*
X64823626Y-32030033D01*
X64836843Y-32085298D01*
X64997074Y-32085298D01*
X64994179Y-32043866D01*
X64965664Y-31938498D01*
X64917271Y-31859178D01*
X64848396Y-31805071D01*
X64758435Y-31775343D01*
X64709700Y-31769618D01*
X64608807Y-31771078D01*
G36*
X65136833Y-31766447D02*
X65072592Y-31779112D01*
X65036020Y-31797864D01*
X64997547Y-31829017D01*
X65052283Y-31898127D01*
X65086031Y-31939979D01*
X65108947Y-31960398D01*
X65131721Y-31963517D01*
X65165044Y-31953472D01*
X65180686Y-31947789D01*
X65244458Y-31939404D01*
X65302860Y-31957378D01*
X65345736Y-31997982D01*
X65352701Y-32010929D01*
X65360287Y-32045224D01*
X65366141Y-32108427D01*
X65369989Y-32196060D01*
X65371557Y-32303640D01*
X65371579Y-32318944D01*
X65371579Y-32585526D01*
X65555395Y-32585526D01*
X65555395Y-31766710D01*
X65463487Y-31766710D01*
X65410493Y-31768094D01*
X65382885Y-31774252D01*
X65372676Y-31788194D01*
X65371579Y-31801344D01*
X65371579Y-31835978D01*
X65327550Y-31801344D01*
X65277063Y-31777716D01*
X65209240Y-31766033D01*
X65136833Y-31766447D01*
X65136833Y-31766447D01*
G37*
X65136833Y-31766447D02*
X65072592Y-31779112D01*
X65036020Y-31797864D01*
X64997547Y-31829017D01*
X65052283Y-31898127D01*
X65086031Y-31939979D01*
X65108947Y-31960398D01*
X65131721Y-31963517D01*
X65165044Y-31953472D01*
X65180686Y-31947789D01*
X65244458Y-31939404D01*
X65302860Y-31957378D01*
X65345736Y-31997982D01*
X65352701Y-32010929D01*
X65360287Y-32045224D01*
X65366141Y-32108427D01*
X65369989Y-32196060D01*
X65371557Y-32303640D01*
X65371579Y-32318944D01*
X65371579Y-32585526D01*
X65555395Y-32585526D01*
X65555395Y-31766710D01*
X65463487Y-31766710D01*
X65410493Y-31768094D01*
X65382885Y-31774252D01*
X65372676Y-31788194D01*
X65371579Y-31801344D01*
X65371579Y-31835978D01*
X65327550Y-31801344D01*
X65277063Y-31777716D01*
X65209240Y-31766033D01*
X65136833Y-31766447D01*
G36*
X65930008Y-31771673D02*
X65859573Y-31788780D01*
X65839213Y-31797844D01*
X65799747Y-31821583D01*
X65769459Y-31848321D01*
X65747048Y-31882699D01*
X65731214Y-31929360D01*
X65720657Y-31992946D01*
X65714076Y-32078099D01*
X65710172Y-32189462D01*
X65708690Y-32263849D01*
X65703235Y-32585526D01*
X65796420Y-32585526D01*
X65852953Y-32583156D01*
X65882078Y-32575055D01*
X65889606Y-32561451D01*
X65893580Y-32546741D01*
X65911348Y-32549554D01*
X65935560Y-32561348D01*
X65996172Y-32579427D01*
X66074071Y-32584299D01*
X66156005Y-32576330D01*
X66228719Y-32555889D01*
X66235241Y-32553051D01*
X66301698Y-32506365D01*
X66345509Y-32441464D01*
X66365668Y-32365600D01*
X66364128Y-32338344D01*
X66199655Y-32338344D01*
X66185163Y-32375024D01*
X66142195Y-32401309D01*
X66072871Y-32415417D01*
X66035823Y-32417290D01*
X65974081Y-32412494D01*
X65933040Y-32393858D01*
X65923027Y-32385000D01*
X65895900Y-32336806D01*
X65889606Y-32293092D01*
X65889606Y-32234605D01*
X65971070Y-32234605D01*
X66065766Y-32239432D01*
X66132187Y-32254613D01*
X66174154Y-32281200D01*
X66183551Y-32293052D01*
X66199655Y-32338344D01*
X66364128Y-32338344D01*
X66361171Y-32286026D01*
X66331015Y-32209995D01*
X66289869Y-32158612D01*
X66264948Y-32136397D01*
X66240552Y-32121798D01*
X66208809Y-32112897D01*
X66161848Y-32107775D01*
X66091796Y-32104515D01*
X66064010Y-32103577D01*
X65889606Y-32097879D01*
X65889862Y-32045091D01*
X65896616Y-31989603D01*
X65921036Y-31956052D01*
X65970370Y-31934618D01*
X65971694Y-31934236D01*
X66041640Y-31925808D01*
X66110086Y-31936816D01*
X66160953Y-31963585D01*
X66181363Y-31976803D01*
X66203346Y-31974974D01*
X66237174Y-31955824D01*
X66257039Y-31942308D01*
X66295894Y-31913432D01*
X66319962Y-31891786D01*
X66323824Y-31885589D01*
X66307921Y-31853519D01*
X66260935Y-31815219D01*
X66240527Y-31802297D01*
X66181857Y-31780041D01*
X66102788Y-31767432D01*
X66014959Y-31764600D01*
X65930008Y-31771673D01*
X65930008Y-31771673D01*
G37*
X65930008Y-31771673D02*
X65859573Y-31788780D01*
X65839213Y-31797844D01*
X65799747Y-31821583D01*
X65769459Y-31848321D01*
X65747048Y-31882699D01*
X65731214Y-31929360D01*
X65720657Y-31992946D01*
X65714076Y-32078099D01*
X65710172Y-32189462D01*
X65708690Y-32263849D01*
X65703235Y-32585526D01*
X65796420Y-32585526D01*
X65852953Y-32583156D01*
X65882078Y-32575055D01*
X65889606Y-32561451D01*
X65893580Y-32546741D01*
X65911348Y-32549554D01*
X65935560Y-32561348D01*
X65996172Y-32579427D01*
X66074071Y-32584299D01*
X66156005Y-32576330D01*
X66228719Y-32555889D01*
X66235241Y-32553051D01*
X66301698Y-32506365D01*
X66345509Y-32441464D01*
X66365668Y-32365600D01*
X66364128Y-32338344D01*
X66199655Y-32338344D01*
X66185163Y-32375024D01*
X66142195Y-32401309D01*
X66072871Y-32415417D01*
X66035823Y-32417290D01*
X65974081Y-32412494D01*
X65933040Y-32393858D01*
X65923027Y-32385000D01*
X65895900Y-32336806D01*
X65889606Y-32293092D01*
X65889606Y-32234605D01*
X65971070Y-32234605D01*
X66065766Y-32239432D01*
X66132187Y-32254613D01*
X66174154Y-32281200D01*
X66183551Y-32293052D01*
X66199655Y-32338344D01*
X66364128Y-32338344D01*
X66361171Y-32286026D01*
X66331015Y-32209995D01*
X66289869Y-32158612D01*
X66264948Y-32136397D01*
X66240552Y-32121798D01*
X66208809Y-32112897D01*
X66161848Y-32107775D01*
X66091796Y-32104515D01*
X66064010Y-32103577D01*
X65889606Y-32097879D01*
X65889862Y-32045091D01*
X65896616Y-31989603D01*
X65921036Y-31956052D01*
X65970370Y-31934618D01*
X65971694Y-31934236D01*
X66041640Y-31925808D01*
X66110086Y-31936816D01*
X66160953Y-31963585D01*
X66181363Y-31976803D01*
X66203346Y-31974974D01*
X66237174Y-31955824D01*
X66257039Y-31942308D01*
X66295894Y-31913432D01*
X66319962Y-31891786D01*
X66323824Y-31885589D01*
X66307921Y-31853519D01*
X66260935Y-31815219D01*
X66240527Y-31802297D01*
X66181857Y-31780041D01*
X66102788Y-31767432D01*
X66014959Y-31764600D01*
X65930008Y-31771673D01*
G36*
X66935870Y-31770104D02*
X66869780Y-31775066D01*
X66783374Y-32034079D01*
X66696969Y-32293092D01*
X66669876Y-32201184D01*
X66653572Y-32144384D01*
X66632125Y-32067625D01*
X66608965Y-31983251D01*
X66596720Y-31937993D01*
X66550656Y-31766710D01*
X66360613Y-31766710D01*
X66417418Y-31946349D01*
X66445393Y-32034704D01*
X66479187Y-32141281D01*
X66514480Y-32252454D01*
X66545987Y-32351579D01*
X66617750Y-32577171D01*
X66772714Y-32587253D01*
X66814730Y-32448528D01*
X66840641Y-32362351D01*
X66868917Y-32267347D01*
X66893631Y-32183441D01*
X66894606Y-32180102D01*
X66913065Y-32123248D01*
X66929351Y-32084456D01*
X66940758Y-32069787D01*
X66943102Y-32071483D01*
X66951329Y-32094225D01*
X66966962Y-32142940D01*
X66988096Y-32211502D01*
X67012830Y-32293785D01*
X67026213Y-32339046D01*
X67098689Y-32585526D01*
X67252505Y-32585526D01*
X67375469Y-32197006D01*
X67410012Y-32088022D01*
X67441479Y-31989048D01*
X67468384Y-31904736D01*
X67489241Y-31839734D01*
X67502562Y-31798692D01*
X67506612Y-31786701D01*
X67503406Y-31774423D01*
X67478235Y-31769046D01*
X67425854Y-31769584D01*
X67417655Y-31769990D01*
X67320518Y-31775066D01*
X67256900Y-32009013D01*
X67233516Y-32094333D01*
X67212619Y-32169335D01*
X67196049Y-32227507D01*
X67185646Y-32262337D01*
X67183724Y-32268016D01*
X67175759Y-32261486D01*
X67159696Y-32227654D01*
X67137379Y-32171127D01*
X67110655Y-32096510D01*
X67088063Y-32029107D01*
X67001959Y-31765143D01*
X66935870Y-31770104D01*
X66935870Y-31770104D01*
G37*
X66935870Y-31770104D02*
X66869780Y-31775066D01*
X66783374Y-32034079D01*
X66696969Y-32293092D01*
X66669876Y-32201184D01*
X66653572Y-32144384D01*
X66632125Y-32067625D01*
X66608965Y-31983251D01*
X66596720Y-31937993D01*
X66550656Y-31766710D01*
X66360613Y-31766710D01*
X66417418Y-31946349D01*
X66445393Y-32034704D01*
X66479187Y-32141281D01*
X66514480Y-32252454D01*
X66545987Y-32351579D01*
X66617750Y-32577171D01*
X66772714Y-32587253D01*
X66814730Y-32448528D01*
X66840641Y-32362351D01*
X66868917Y-32267347D01*
X66893631Y-32183441D01*
X66894606Y-32180102D01*
X66913065Y-32123248D01*
X66929351Y-32084456D01*
X66940758Y-32069787D01*
X66943102Y-32071483D01*
X66951329Y-32094225D01*
X66966962Y-32142940D01*
X66988096Y-32211502D01*
X67012830Y-32293785D01*
X67026213Y-32339046D01*
X67098689Y-32585526D01*
X67252505Y-32585526D01*
X67375469Y-32197006D01*
X67410012Y-32088022D01*
X67441479Y-31989048D01*
X67468384Y-31904736D01*
X67489241Y-31839734D01*
X67502562Y-31798692D01*
X67506612Y-31786701D01*
X67503406Y-31774423D01*
X67478235Y-31769046D01*
X67425854Y-31769584D01*
X67417655Y-31769990D01*
X67320518Y-31775066D01*
X67256900Y-32009013D01*
X67233516Y-32094333D01*
X67212619Y-32169335D01*
X67196049Y-32227507D01*
X67185646Y-32262337D01*
X67183724Y-32268016D01*
X67175759Y-32261486D01*
X67159696Y-32227654D01*
X67137379Y-32171127D01*
X67110655Y-32096510D01*
X67088063Y-32029107D01*
X67001959Y-31765143D01*
X66935870Y-31770104D01*
G36*
X67577369Y-32585526D02*
X67669277Y-32585526D01*
X67722623Y-32583962D01*
X67750407Y-32577485D01*
X67760410Y-32563418D01*
X67761185Y-32553906D01*
X67762872Y-32534832D01*
X67773510Y-32531174D01*
X67801465Y-32542932D01*
X67823205Y-32553906D01*
X67906668Y-32579911D01*
X67997396Y-32581416D01*
X68071158Y-32562021D01*
X68139846Y-32515165D01*
X68192206Y-32446004D01*
X68220878Y-32364427D01*
X68221608Y-32359866D01*
X68225868Y-32310101D01*
X68227986Y-32238659D01*
X68227816Y-32184626D01*
X68045280Y-32184626D01*
X68041051Y-32256441D01*
X68031432Y-32315634D01*
X68018410Y-32349060D01*
X67969144Y-32394740D01*
X67910650Y-32411115D01*
X67850329Y-32397873D01*
X67798783Y-32358373D01*
X67779262Y-32331807D01*
X67767848Y-32300106D01*
X67762502Y-32253832D01*
X67761185Y-32184328D01*
X67763542Y-32115499D01*
X67769767Y-32055026D01*
X67778592Y-32014556D01*
X67780063Y-32010929D01*
X67815653Y-31967802D01*
X67867600Y-31944124D01*
X67925722Y-31940301D01*
X67979840Y-31956738D01*
X68019774Y-31993840D01*
X68023917Y-32001222D01*
X68036884Y-32046239D01*
X68043948Y-32110967D01*
X68045280Y-32184626D01*
X68227816Y-32184626D01*
X68227729Y-32157230D01*
X68226528Y-32113405D01*
X68218355Y-32004988D01*
X68201370Y-31923588D01*
X68173113Y-31863412D01*
X68131128Y-31818666D01*
X68090368Y-31792400D01*
X68033419Y-31773935D01*
X67962589Y-31767602D01*
X67890059Y-31772760D01*
X67828014Y-31788769D01*
X67795232Y-31807920D01*
X67761185Y-31838732D01*
X67761185Y-31449210D01*
X67577369Y-31449210D01*
X67577369Y-32585526D01*
X67577369Y-32585526D01*
G37*
X67577369Y-32585526D02*
X67669277Y-32585526D01*
X67722623Y-32583962D01*
X67750407Y-32577485D01*
X67760410Y-32563418D01*
X67761185Y-32553906D01*
X67762872Y-32534832D01*
X67773510Y-32531174D01*
X67801465Y-32542932D01*
X67823205Y-32553906D01*
X67906668Y-32579911D01*
X67997396Y-32581416D01*
X68071158Y-32562021D01*
X68139846Y-32515165D01*
X68192206Y-32446004D01*
X68220878Y-32364427D01*
X68221608Y-32359866D01*
X68225868Y-32310101D01*
X68227986Y-32238659D01*
X68227816Y-32184626D01*
X68045280Y-32184626D01*
X68041051Y-32256441D01*
X68031432Y-32315634D01*
X68018410Y-32349060D01*
X67969144Y-32394740D01*
X67910650Y-32411115D01*
X67850329Y-32397873D01*
X67798783Y-32358373D01*
X67779262Y-32331807D01*
X67767848Y-32300106D01*
X67762502Y-32253832D01*
X67761185Y-32184328D01*
X67763542Y-32115499D01*
X67769767Y-32055026D01*
X67778592Y-32014556D01*
X67780063Y-32010929D01*
X67815653Y-31967802D01*
X67867600Y-31944124D01*
X67925722Y-31940301D01*
X67979840Y-31956738D01*
X68019774Y-31993840D01*
X68023917Y-32001222D01*
X68036884Y-32046239D01*
X68043948Y-32110967D01*
X68045280Y-32184626D01*
X68227816Y-32184626D01*
X68227729Y-32157230D01*
X68226528Y-32113405D01*
X68218355Y-32004988D01*
X68201370Y-31923588D01*
X68173113Y-31863412D01*
X68131128Y-31818666D01*
X68090368Y-31792400D01*
X68033419Y-31773935D01*
X67962589Y-31767602D01*
X67890059Y-31772760D01*
X67828014Y-31788769D01*
X67795232Y-31807920D01*
X67761185Y-31838732D01*
X67761185Y-31449210D01*
X67577369Y-31449210D01*
X67577369Y-32585526D01*
G36*
X68630119Y-31768486D02*
X68605112Y-31775982D01*
X68597050Y-31792451D01*
X68596711Y-31799886D01*
X68595264Y-31820594D01*
X68585302Y-31823845D01*
X68558388Y-31809648D01*
X68542402Y-31799948D01*
X68491967Y-31779175D01*
X68431728Y-31768904D01*
X68368566Y-31768114D01*
X68309363Y-31775786D01*
X68260998Y-31790898D01*
X68230354Y-31812432D01*
X68224311Y-31839366D01*
X68227361Y-31846660D01*
X68249594Y-31876937D01*
X68284070Y-31914175D01*
X68290306Y-31920195D01*
X68323167Y-31947875D01*
X68351520Y-31956818D01*
X68391173Y-31950576D01*
X68407058Y-31946429D01*
X68456491Y-31936467D01*
X68491248Y-31940947D01*
X68520600Y-31956746D01*
X68547487Y-31977949D01*
X68567290Y-32004614D01*
X68581052Y-32041827D01*
X68589816Y-32094673D01*
X68594626Y-32168237D01*
X68596526Y-32267605D01*
X68596711Y-32327601D01*
X68596711Y-32585526D01*
X68763816Y-32585526D01*
X68763816Y-31766710D01*
X68680264Y-31766710D01*
X68630119Y-31768486D01*
X68630119Y-31768486D01*
G37*
X68630119Y-31768486D02*
X68605112Y-31775982D01*
X68597050Y-31792451D01*
X68596711Y-31799886D01*
X68595264Y-31820594D01*
X68585302Y-31823845D01*
X68558388Y-31809648D01*
X68542402Y-31799948D01*
X68491967Y-31779175D01*
X68431728Y-31768904D01*
X68368566Y-31768114D01*
X68309363Y-31775786D01*
X68260998Y-31790898D01*
X68230354Y-31812432D01*
X68224311Y-31839366D01*
X68227361Y-31846660D01*
X68249594Y-31876937D01*
X68284070Y-31914175D01*
X68290306Y-31920195D01*
X68323167Y-31947875D01*
X68351520Y-31956818D01*
X68391173Y-31950576D01*
X68407058Y-31946429D01*
X68456491Y-31936467D01*
X68491248Y-31940947D01*
X68520600Y-31956746D01*
X68547487Y-31977949D01*
X68567290Y-32004614D01*
X68581052Y-32041827D01*
X68589816Y-32094673D01*
X68594626Y-32168237D01*
X68596526Y-32267605D01*
X68596711Y-32327601D01*
X68596711Y-32585526D01*
X68763816Y-32585526D01*
X68763816Y-31766710D01*
X68680264Y-31766710D01*
X68630119Y-31768486D01*
G36*
X69149543Y-31773184D02*
X69070930Y-31794160D01*
X69011084Y-31832180D01*
X68968853Y-31881978D01*
X68955725Y-31903230D01*
X68946032Y-31925492D01*
X68939256Y-31953970D01*
X68934877Y-31993871D01*
X68932376Y-32050401D01*
X68931232Y-32128767D01*
X68930928Y-32234176D01*
X68930922Y-32262142D01*
X68930922Y-32585526D01*
X69011132Y-32585526D01*
X69062294Y-32581943D01*
X69100123Y-32572866D01*
X69109601Y-32567268D01*
X69135512Y-32557606D01*
X69161976Y-32567268D01*
X69205548Y-32579330D01*
X69268840Y-32584185D01*
X69338990Y-32582078D01*
X69403140Y-32573256D01*
X69440593Y-32561937D01*
X69513067Y-32515412D01*
X69558360Y-32450846D01*
X69578722Y-32365000D01*
X69578912Y-32362796D01*
X69577125Y-32324713D01*
X69415527Y-32324713D01*
X69401399Y-32368030D01*
X69378388Y-32392408D01*
X69332196Y-32410845D01*
X69271225Y-32418205D01*
X69209051Y-32414583D01*
X69159249Y-32400074D01*
X69145297Y-32390765D01*
X69120915Y-32347753D01*
X69114737Y-32298857D01*
X69114737Y-32234605D01*
X69207182Y-32234605D01*
X69295005Y-32241366D01*
X69361582Y-32260520D01*
X69402998Y-32290376D01*
X69415527Y-32324713D01*
X69577125Y-32324713D01*
X69574510Y-32269004D01*
X69543576Y-32194847D01*
X69485419Y-32138767D01*
X69477380Y-32133665D01*
X69442837Y-32117055D01*
X69400082Y-32106996D01*
X69340314Y-32102107D01*
X69269310Y-32100983D01*
X69114737Y-32100921D01*
X69114737Y-32036125D01*
X69121294Y-31985850D01*
X69138025Y-31952169D01*
X69139984Y-31950376D01*
X69177217Y-31935642D01*
X69233420Y-31929931D01*
X69295533Y-31932737D01*
X69350490Y-31943556D01*
X69383101Y-31959782D01*
X69400772Y-31972780D01*
X69419431Y-31975262D01*
X69445181Y-31964613D01*
X69484127Y-31938218D01*
X69542370Y-31893465D01*
X69547716Y-31889273D01*
X69544977Y-31873760D01*
X69522124Y-31847960D01*
X69487391Y-31819289D01*
X69449010Y-31795166D01*
X69436952Y-31789470D01*
X69392966Y-31778103D01*
X69328513Y-31769995D01*
X69256503Y-31766743D01*
X69253136Y-31766736D01*
X69149543Y-31773184D01*
X69149543Y-31773184D01*
G37*
X69149543Y-31773184D02*
X69070930Y-31794160D01*
X69011084Y-31832180D01*
X68968853Y-31881978D01*
X68955725Y-31903230D01*
X68946032Y-31925492D01*
X68939256Y-31953970D01*
X68934877Y-31993871D01*
X68932376Y-32050401D01*
X68931232Y-32128767D01*
X68930928Y-32234176D01*
X68930922Y-32262142D01*
X68930922Y-32585526D01*
X69011132Y-32585526D01*
X69062294Y-32581943D01*
X69100123Y-32572866D01*
X69109601Y-32567268D01*
X69135512Y-32557606D01*
X69161976Y-32567268D01*
X69205548Y-32579330D01*
X69268840Y-32584185D01*
X69338990Y-32582078D01*
X69403140Y-32573256D01*
X69440593Y-32561937D01*
X69513067Y-32515412D01*
X69558360Y-32450846D01*
X69578722Y-32365000D01*
X69578912Y-32362796D01*
X69577125Y-32324713D01*
X69415527Y-32324713D01*
X69401399Y-32368030D01*
X69378388Y-32392408D01*
X69332196Y-32410845D01*
X69271225Y-32418205D01*
X69209051Y-32414583D01*
X69159249Y-32400074D01*
X69145297Y-32390765D01*
X69120915Y-32347753D01*
X69114737Y-32298857D01*
X69114737Y-32234605D01*
X69207182Y-32234605D01*
X69295005Y-32241366D01*
X69361582Y-32260520D01*
X69402998Y-32290376D01*
X69415527Y-32324713D01*
X69577125Y-32324713D01*
X69574510Y-32269004D01*
X69543576Y-32194847D01*
X69485419Y-32138767D01*
X69477380Y-32133665D01*
X69442837Y-32117055D01*
X69400082Y-32106996D01*
X69340314Y-32102107D01*
X69269310Y-32100983D01*
X69114737Y-32100921D01*
X69114737Y-32036125D01*
X69121294Y-31985850D01*
X69138025Y-31952169D01*
X69139984Y-31950376D01*
X69177217Y-31935642D01*
X69233420Y-31929931D01*
X69295533Y-31932737D01*
X69350490Y-31943556D01*
X69383101Y-31959782D01*
X69400772Y-31972780D01*
X69419431Y-31975262D01*
X69445181Y-31964613D01*
X69484127Y-31938218D01*
X69542370Y-31893465D01*
X69547716Y-31889273D01*
X69544977Y-31873760D01*
X69522124Y-31847960D01*
X69487391Y-31819289D01*
X69449010Y-31795166D01*
X69436952Y-31789470D01*
X69392966Y-31778103D01*
X69328513Y-31769995D01*
X69256503Y-31766743D01*
X69253136Y-31766736D01*
X69149543Y-31773184D01*
G36*
X69846640Y-30527468D02*
X69811408Y-30544874D01*
X69767960Y-30575206D01*
X69736294Y-30608283D01*
X69714606Y-30649817D01*
X69701097Y-30705522D01*
X69693962Y-30781111D01*
X69691400Y-30882296D01*
X69691250Y-30925797D01*
X69691688Y-31021135D01*
X69693504Y-31089271D01*
X69697455Y-31136418D01*
X69704298Y-31168790D01*
X69714789Y-31192600D01*
X69725704Y-31208843D01*
X69795381Y-31277952D01*
X69877434Y-31319521D01*
X69965950Y-31332023D01*
X70055019Y-31313934D01*
X70083237Y-31301142D01*
X70150790Y-31265931D01*
X70150790Y-31817700D01*
X70101488Y-31792205D01*
X70036527Y-31772480D01*
X69956680Y-31767427D01*
X69876948Y-31776756D01*
X69816735Y-31797714D01*
X69766792Y-31837627D01*
X69724119Y-31894741D01*
X69720910Y-31900605D01*
X69707378Y-31928227D01*
X69697495Y-31956068D01*
X69690691Y-31989794D01*
X69686399Y-32035071D01*
X69684049Y-32097562D01*
X69683072Y-32182935D01*
X69682895Y-32279010D01*
X69682895Y-32585526D01*
X69866711Y-32585526D01*
X69866711Y-32020339D01*
X69918125Y-31977077D01*
X69971534Y-31942472D01*
X70022112Y-31936180D01*
X70072970Y-31952372D01*
X70100075Y-31968227D01*
X70120249Y-31990810D01*
X70134597Y-32024940D01*
X70144224Y-32075434D01*
X70150237Y-32147111D01*
X70153740Y-32244788D01*
X70154974Y-32309802D01*
X70159145Y-32577171D01*
X70246875Y-32582222D01*
X70334606Y-32587273D01*
X70334606Y-30928101D01*
X70150790Y-30928101D01*
X70146104Y-31020600D01*
X70130312Y-31084809D01*
X70100817Y-31124759D01*
X70055020Y-31144480D01*
X70008750Y-31148421D01*
X69956372Y-31143892D01*
X69921610Y-31126069D01*
X69899872Y-31102519D01*
X69882760Y-31077189D01*
X69872573Y-31048969D01*
X69868040Y-31009431D01*
X69867891Y-30950142D01*
X69869416Y-30900498D01*
X69872919Y-30825710D01*
X69878133Y-30776611D01*
X69886913Y-30745467D01*
X69901114Y-30724545D01*
X69914516Y-30712452D01*
X69970513Y-30686081D01*
X70036789Y-30681822D01*
X70074844Y-30690906D01*
X70112523Y-30723196D01*
X70137481Y-30786006D01*
X70149578Y-30878894D01*
X70150790Y-30928101D01*
X70334606Y-30928101D01*
X70334606Y-30513421D01*
X70242698Y-30513421D01*
X70187517Y-30515603D01*
X70159048Y-30523351D01*
X70150794Y-30538468D01*
X70150790Y-30538916D01*
X70146960Y-30553720D01*
X70130067Y-30552039D01*
X70096481Y-30535772D01*
X70018222Y-30510887D01*
X69930173Y-30508271D01*
X69846640Y-30527468D01*
X69846640Y-30527468D01*
G37*
X69846640Y-30527468D02*
X69811408Y-30544874D01*
X69767960Y-30575206D01*
X69736294Y-30608283D01*
X69714606Y-30649817D01*
X69701097Y-30705522D01*
X69693962Y-30781111D01*
X69691400Y-30882296D01*
X69691250Y-30925797D01*
X69691688Y-31021135D01*
X69693504Y-31089271D01*
X69697455Y-31136418D01*
X69704298Y-31168790D01*
X69714789Y-31192600D01*
X69725704Y-31208843D01*
X69795381Y-31277952D01*
X69877434Y-31319521D01*
X69965950Y-31332023D01*
X70055019Y-31313934D01*
X70083237Y-31301142D01*
X70150790Y-31265931D01*
X70150790Y-31817700D01*
X70101488Y-31792205D01*
X70036527Y-31772480D01*
X69956680Y-31767427D01*
X69876948Y-31776756D01*
X69816735Y-31797714D01*
X69766792Y-31837627D01*
X69724119Y-31894741D01*
X69720910Y-31900605D01*
X69707378Y-31928227D01*
X69697495Y-31956068D01*
X69690691Y-31989794D01*
X69686399Y-32035071D01*
X69684049Y-32097562D01*
X69683072Y-32182935D01*
X69682895Y-32279010D01*
X69682895Y-32585526D01*
X69866711Y-32585526D01*
X69866711Y-32020339D01*
X69918125Y-31977077D01*
X69971534Y-31942472D01*
X70022112Y-31936180D01*
X70072970Y-31952372D01*
X70100075Y-31968227D01*
X70120249Y-31990810D01*
X70134597Y-32024940D01*
X70144224Y-32075434D01*
X70150237Y-32147111D01*
X70153740Y-32244788D01*
X70154974Y-32309802D01*
X70159145Y-32577171D01*
X70246875Y-32582222D01*
X70334606Y-32587273D01*
X70334606Y-30928101D01*
X70150790Y-30928101D01*
X70146104Y-31020600D01*
X70130312Y-31084809D01*
X70100817Y-31124759D01*
X70055020Y-31144480D01*
X70008750Y-31148421D01*
X69956372Y-31143892D01*
X69921610Y-31126069D01*
X69899872Y-31102519D01*
X69882760Y-31077189D01*
X69872573Y-31048969D01*
X69868040Y-31009431D01*
X69867891Y-30950142D01*
X69869416Y-30900498D01*
X69872919Y-30825710D01*
X69878133Y-30776611D01*
X69886913Y-30745467D01*
X69901114Y-30724545D01*
X69914516Y-30712452D01*
X69970513Y-30686081D01*
X70036789Y-30681822D01*
X70074844Y-30690906D01*
X70112523Y-30723196D01*
X70137481Y-30786006D01*
X70149578Y-30878894D01*
X70150790Y-30928101D01*
X70334606Y-30928101D01*
X70334606Y-30513421D01*
X70242698Y-30513421D01*
X70187517Y-30515603D01*
X70159048Y-30523351D01*
X70150794Y-30538468D01*
X70150790Y-30538916D01*
X70146960Y-30553720D01*
X70130067Y-30552039D01*
X70096481Y-30535772D01*
X70018222Y-30510887D01*
X69930173Y-30508271D01*
X69846640Y-30527468D01*
D13*
G04 #@! TO.C,J19*
X78120500Y-44995000D02*
X78120500Y-45445000D01*
X79970500Y-44995000D02*
X78120500Y-44995000D01*
X82520500Y-52795000D02*
X82270500Y-52795000D01*
X82520500Y-44995000D02*
X82270500Y-44995000D01*
X79970500Y-52795000D02*
X78120500Y-52795000D01*
X78120500Y-52795000D02*
X78120500Y-52345000D01*
X77520500Y-46795000D02*
X77220500Y-46795000D01*
X77220500Y-46795000D02*
X77220500Y-47095000D01*
X77220500Y-47095000D02*
X77520500Y-47095000D01*
X77520500Y-47095000D02*
X77520500Y-46795000D01*
G04 #@! TO.C,REF\002A\002A*
X31203200Y-20755200D02*
G75*
G03X31203200Y-20755200I-200000J0D01*
G01*
X36003200Y-29755200D02*
X30003200Y-29755200D01*
X36003200Y-19755200D02*
X36003200Y-29755200D01*
X30003200Y-19755200D02*
X36003200Y-19755200D01*
X30003200Y-19755200D02*
X30003200Y-29755200D01*
X27153200Y-53605200D02*
X27153200Y-16905200D01*
X74853200Y-53605200D02*
X74853200Y-16905200D01*
X74853200Y-53605200D02*
X27153200Y-53605200D01*
X74853200Y-16905200D02*
X27153200Y-16905200D01*
G04 #@! TO.C,R27*
D15*
X81922857Y-32202380D02*
X82256190Y-31726190D01*
X82494285Y-32202380D02*
X82494285Y-31202380D01*
X82113333Y-31202380D01*
X82018095Y-31250000D01*
X81970476Y-31297619D01*
X81922857Y-31392857D01*
X81922857Y-31535714D01*
X81970476Y-31630952D01*
X82018095Y-31678571D01*
X82113333Y-31726190D01*
X82494285Y-31726190D01*
X81541904Y-31297619D02*
X81494285Y-31250000D01*
X81399047Y-31202380D01*
X81160952Y-31202380D01*
X81065714Y-31250000D01*
X81018095Y-31297619D01*
X80970476Y-31392857D01*
X80970476Y-31488095D01*
X81018095Y-31630952D01*
X81589523Y-32202380D01*
X80970476Y-32202380D01*
X80637142Y-31202380D02*
X79970476Y-31202380D01*
X80399047Y-32202380D01*
G04 #@! TO.C,R28*
X81922857Y-24582380D02*
X82256190Y-24106190D01*
X82494285Y-24582380D02*
X82494285Y-23582380D01*
X82113333Y-23582380D01*
X82018095Y-23630000D01*
X81970476Y-23677619D01*
X81922857Y-23772857D01*
X81922857Y-23915714D01*
X81970476Y-24010952D01*
X82018095Y-24058571D01*
X82113333Y-24106190D01*
X82494285Y-24106190D01*
X81541904Y-23677619D02*
X81494285Y-23630000D01*
X81399047Y-23582380D01*
X81160952Y-23582380D01*
X81065714Y-23630000D01*
X81018095Y-23677619D01*
X80970476Y-23772857D01*
X80970476Y-23868095D01*
X81018095Y-24010952D01*
X81589523Y-24582380D01*
X80970476Y-24582380D01*
X80399047Y-24010952D02*
X80494285Y-23963333D01*
X80541904Y-23915714D01*
X80589523Y-23820476D01*
X80589523Y-23772857D01*
X80541904Y-23677619D01*
X80494285Y-23630000D01*
X80399047Y-23582380D01*
X80208571Y-23582380D01*
X80113333Y-23630000D01*
X80065714Y-23677619D01*
X80018095Y-23772857D01*
X80018095Y-23820476D01*
X80065714Y-23915714D01*
X80113333Y-23963333D01*
X80208571Y-24010952D01*
X80399047Y-24010952D01*
X80494285Y-24058571D01*
X80541904Y-24106190D01*
X80589523Y-24201428D01*
X80589523Y-24391904D01*
X80541904Y-24487142D01*
X80494285Y-24534761D01*
X80399047Y-24582380D01*
X80208571Y-24582380D01*
X80113333Y-24534761D01*
X80065714Y-24487142D01*
X80018095Y-24391904D01*
X80018095Y-24201428D01*
X80065714Y-24106190D01*
X80113333Y-24058571D01*
X80208571Y-24010952D01*
G04 #@! TD*
%LPC*%
D16*
G04 #@! TO.C,J20*
X70485000Y-64135000D03*
D17*
X70485000Y-59055000D03*
G04 #@! TD*
D18*
G04 #@! TO.C,J18*
X66280000Y-73650000D03*
X63740000Y-74670000D03*
X66280000Y-75690000D03*
X63740000Y-76710000D03*
X66280000Y-77730000D03*
D19*
X68580000Y-70200000D03*
X68580000Y-82200000D03*
D18*
X63740000Y-78750000D03*
G04 #@! TD*
D20*
G04 #@! TO.C,JP1*
X64135000Y-60325000D03*
D21*
X61595000Y-60325000D03*
G04 #@! TD*
D22*
G04 #@! TO.C,J2*
X32385000Y-22225000D03*
D23*
X33655000Y-22225000D03*
X32385000Y-23495000D03*
X33655000Y-23495000D03*
X32385000Y-24765000D03*
X33655000Y-24765000D03*
X32385000Y-26035000D03*
X33655000Y-26035000D03*
X32385000Y-27305000D03*
X33655000Y-27305000D03*
G04 #@! TD*
D24*
G04 #@! TO.C,J3*
G36*
X28794603Y-55865963D02*
X28814018Y-55868843D01*
X28833057Y-55873612D01*
X28851537Y-55880224D01*
X28869279Y-55888616D01*
X28886114Y-55898706D01*
X28901879Y-55910398D01*
X28916421Y-55923579D01*
X28929602Y-55938121D01*
X28941294Y-55953886D01*
X28951384Y-55970721D01*
X28959776Y-55988463D01*
X28966388Y-56006943D01*
X28971157Y-56025982D01*
X28974037Y-56045397D01*
X28975000Y-56065000D01*
X28975000Y-56965000D01*
X28974037Y-56984603D01*
X28971157Y-57004018D01*
X28966388Y-57023057D01*
X28959776Y-57041537D01*
X28951384Y-57059279D01*
X28941294Y-57076114D01*
X28929602Y-57091879D01*
X28916421Y-57106421D01*
X28901879Y-57119602D01*
X28886114Y-57131294D01*
X28869279Y-57141384D01*
X28851537Y-57149776D01*
X28833057Y-57156388D01*
X28814018Y-57161157D01*
X28794603Y-57164037D01*
X28775000Y-57165000D01*
X28375000Y-57165000D01*
X28355397Y-57164037D01*
X28335982Y-57161157D01*
X28316943Y-57156388D01*
X28298463Y-57149776D01*
X28280721Y-57141384D01*
X28263886Y-57131294D01*
X28248121Y-57119602D01*
X28233579Y-57106421D01*
X28220398Y-57091879D01*
X28208706Y-57076114D01*
X28198616Y-57059279D01*
X28190224Y-57041537D01*
X28183612Y-57023057D01*
X28178843Y-57004018D01*
X28175963Y-56984603D01*
X28175000Y-56965000D01*
X28175000Y-56065000D01*
X28175963Y-56045397D01*
X28178843Y-56025982D01*
X28183612Y-56006943D01*
X28190224Y-55988463D01*
X28198616Y-55970721D01*
X28208706Y-55953886D01*
X28220398Y-55938121D01*
X28233579Y-55923579D01*
X28248121Y-55910398D01*
X28263886Y-55898706D01*
X28280721Y-55888616D01*
X28298463Y-55880224D01*
X28316943Y-55873612D01*
X28335982Y-55868843D01*
X28355397Y-55865963D01*
X28375000Y-55865000D01*
X28775000Y-55865000D01*
X28794603Y-55865963D01*
X28794603Y-55865963D01*
G37*
D25*
X28575000Y-56515000D03*
D26*
X29825000Y-56515000D03*
X31075000Y-56515000D03*
X32325000Y-56515000D03*
X33575000Y-56515000D03*
X34825000Y-56515000D03*
X36075000Y-56515000D03*
X37325000Y-56515000D03*
G04 #@! TD*
D24*
G04 #@! TO.C,J4*
G36*
X29834504Y-62526204D02*
X29858773Y-62529804D01*
X29882571Y-62535765D01*
X29905671Y-62544030D01*
X29927849Y-62554520D01*
X29948893Y-62567133D01*
X29968598Y-62581747D01*
X29986777Y-62598223D01*
X30003253Y-62616402D01*
X30017867Y-62636107D01*
X30030480Y-62657151D01*
X30040970Y-62679329D01*
X30049235Y-62702429D01*
X30055196Y-62726227D01*
X30058796Y-62750496D01*
X30060000Y-62775000D01*
X30060000Y-64225000D01*
X30058796Y-64249504D01*
X30055196Y-64273773D01*
X30049235Y-64297571D01*
X30040970Y-64320671D01*
X30030480Y-64342849D01*
X30017867Y-64363893D01*
X30003253Y-64383598D01*
X29986777Y-64401777D01*
X29968598Y-64418253D01*
X29948893Y-64432867D01*
X29927849Y-64445480D01*
X29905671Y-64455970D01*
X29882571Y-64464235D01*
X29858773Y-64470196D01*
X29834504Y-64473796D01*
X29810000Y-64475000D01*
X28610000Y-64475000D01*
X28585496Y-64473796D01*
X28561227Y-64470196D01*
X28537429Y-64464235D01*
X28514329Y-64455970D01*
X28492151Y-64445480D01*
X28471107Y-64432867D01*
X28451402Y-64418253D01*
X28433223Y-64401777D01*
X28416747Y-64383598D01*
X28402133Y-64363893D01*
X28389520Y-64342849D01*
X28379030Y-64320671D01*
X28370765Y-64297571D01*
X28364804Y-64273773D01*
X28361204Y-64249504D01*
X28360000Y-64225000D01*
X28360000Y-62775000D01*
X28361204Y-62750496D01*
X28364804Y-62726227D01*
X28370765Y-62702429D01*
X28379030Y-62679329D01*
X28389520Y-62657151D01*
X28402133Y-62636107D01*
X28416747Y-62616402D01*
X28433223Y-62598223D01*
X28451402Y-62581747D01*
X28471107Y-62567133D01*
X28492151Y-62554520D01*
X28514329Y-62544030D01*
X28537429Y-62535765D01*
X28561227Y-62529804D01*
X28585496Y-62526204D01*
X28610000Y-62525000D01*
X29810000Y-62525000D01*
X29834504Y-62526204D01*
X29834504Y-62526204D01*
G37*
D27*
X29210000Y-63500000D03*
D28*
X31710000Y-63500000D03*
X34210000Y-63500000D03*
X36710000Y-63500000D03*
X39210000Y-63500000D03*
X41710000Y-63500000D03*
X44210000Y-63500000D03*
G04 #@! TD*
D20*
G04 #@! TO.C,J6*
X27940000Y-116840000D03*
D21*
X30480000Y-116840000D03*
X33020000Y-116840000D03*
X35560000Y-116840000D03*
G04 #@! TD*
G04 #@! TO.C,J7*
X35560000Y-106680000D03*
X33020000Y-106680000D03*
X30480000Y-106680000D03*
D20*
X27940000Y-106680000D03*
G04 #@! TD*
G04 #@! TO.C,J8*
X27940000Y-110490000D03*
D21*
X30480000Y-110490000D03*
X33020000Y-110490000D03*
X35560000Y-110490000D03*
G04 #@! TD*
G04 #@! TO.C,J9*
X35560000Y-102870000D03*
X33020000Y-102870000D03*
X30480000Y-102870000D03*
D20*
X27940000Y-102870000D03*
G04 #@! TD*
G04 #@! TO.C,J10*
X27940000Y-99060000D03*
D21*
X30480000Y-99060000D03*
X33020000Y-99060000D03*
X35560000Y-99060000D03*
G04 #@! TD*
G04 #@! TO.C,J11*
X35560000Y-85090000D03*
X33020000Y-85090000D03*
X30480000Y-85090000D03*
D20*
X27940000Y-85090000D03*
G04 #@! TD*
G04 #@! TO.C,J12*
X27940000Y-81280000D03*
D21*
X30480000Y-81280000D03*
X33020000Y-81280000D03*
X35560000Y-81280000D03*
G04 #@! TD*
D20*
G04 #@! TO.C,J14*
X73025000Y-116840000D03*
D21*
X70485000Y-116840000D03*
X67945000Y-116840000D03*
G04 #@! TD*
G04 #@! TO.C,J15*
X67945000Y-109855000D03*
X70485000Y-109855000D03*
D20*
X73025000Y-109855000D03*
G04 #@! TD*
D18*
G04 #@! TO.C,J16*
X63740000Y-93990000D03*
D19*
X68580000Y-97440000D03*
X68580000Y-85440000D03*
D18*
X66280000Y-92970000D03*
X63740000Y-91950000D03*
X66280000Y-90930000D03*
X63740000Y-89910000D03*
X66280000Y-88890000D03*
G04 #@! TD*
D20*
G04 #@! TO.C,JP2*
X64135000Y-64135000D03*
D21*
X61595000Y-64135000D03*
G04 #@! TD*
G04 #@! TO.C,JP3*
X61595000Y-67945000D03*
D20*
X64135000Y-67945000D03*
G04 #@! TD*
D29*
G04 #@! TO.C,R27*
X78740000Y-31750000D03*
D30*
X78740000Y-39370000D03*
G04 #@! TD*
G04 #@! TO.C,R28*
X76835000Y-31750000D03*
D29*
X76835000Y-24130000D03*
G04 #@! TD*
D20*
G04 #@! TO.C,J17*
X27940000Y-71120000D03*
D21*
X27940000Y-73660000D03*
X30480000Y-71120000D03*
X30480000Y-73660000D03*
X33020000Y-71120000D03*
X33020000Y-73660000D03*
X35560000Y-71120000D03*
X35560000Y-73660000D03*
X38100000Y-71120000D03*
X38100000Y-73660000D03*
X40640000Y-71120000D03*
X40640000Y-73660000D03*
G04 #@! TD*
D20*
G04 #@! TO.C,JP4*
X57785000Y-63500000D03*
D21*
X57785000Y-60960000D03*
G04 #@! TD*
D24*
G04 #@! TO.C,J5*
G36*
X24244504Y-32091204D02*
X24268773Y-32094804D01*
X24292571Y-32100765D01*
X24315671Y-32109030D01*
X24337849Y-32119520D01*
X24358893Y-32132133D01*
X24378598Y-32146747D01*
X24396777Y-32163223D01*
X24413253Y-32181402D01*
X24427867Y-32201107D01*
X24440480Y-32222151D01*
X24450970Y-32244329D01*
X24459235Y-32267429D01*
X24465196Y-32291227D01*
X24468796Y-32315496D01*
X24470000Y-32340000D01*
X24470000Y-33540000D01*
X24468796Y-33564504D01*
X24465196Y-33588773D01*
X24459235Y-33612571D01*
X24450970Y-33635671D01*
X24440480Y-33657849D01*
X24427867Y-33678893D01*
X24413253Y-33698598D01*
X24396777Y-33716777D01*
X24378598Y-33733253D01*
X24358893Y-33747867D01*
X24337849Y-33760480D01*
X24315671Y-33770970D01*
X24292571Y-33779235D01*
X24268773Y-33785196D01*
X24244504Y-33788796D01*
X24220000Y-33790000D01*
X22770000Y-33790000D01*
X22745496Y-33788796D01*
X22721227Y-33785196D01*
X22697429Y-33779235D01*
X22674329Y-33770970D01*
X22652151Y-33760480D01*
X22631107Y-33747867D01*
X22611402Y-33733253D01*
X22593223Y-33716777D01*
X22576747Y-33698598D01*
X22562133Y-33678893D01*
X22549520Y-33657849D01*
X22539030Y-33635671D01*
X22530765Y-33612571D01*
X22524804Y-33588773D01*
X22521204Y-33564504D01*
X22520000Y-33540000D01*
X22520000Y-32340000D01*
X22521204Y-32315496D01*
X22524804Y-32291227D01*
X22530765Y-32267429D01*
X22539030Y-32244329D01*
X22549520Y-32222151D01*
X22562133Y-32201107D01*
X22576747Y-32181402D01*
X22593223Y-32163223D01*
X22611402Y-32146747D01*
X22631107Y-32132133D01*
X22652151Y-32119520D01*
X22674329Y-32109030D01*
X22697429Y-32100765D01*
X22721227Y-32094804D01*
X22745496Y-32091204D01*
X22770000Y-32090000D01*
X24220000Y-32090000D01*
X24244504Y-32091204D01*
X24244504Y-32091204D01*
G37*
D27*
X23495000Y-32940000D03*
D31*
X23495000Y-30440000D03*
X23495000Y-27940000D03*
X23495000Y-25440000D03*
X23495000Y-22940000D03*
G04 #@! TD*
D32*
G04 #@! TO.C,J19*
X81120500Y-49895000D03*
D33*
X78420500Y-46395000D03*
D34*
X78420500Y-48245000D03*
X78420500Y-47595000D03*
X78420500Y-50195000D03*
X78420500Y-49545000D03*
X78420500Y-48895000D03*
D33*
X78420500Y-51395000D03*
D32*
X81120500Y-47895000D03*
D35*
X81120500Y-45395000D03*
X81120500Y-52395000D03*
D36*
X81120500Y-51795000D03*
X81120500Y-45995000D03*
G04 #@! TD*
M02*
