M48
;DRILL file {KiCad (5.0.2)-1} date 14.01.2020 1:16:30
;FORMAT={-:-/ absolute / metric / decimal}
FMAT,2
METRIC,TZ
T1C0.300
T2C0.400
T3C0.500
T4C0.600
T5C0.700
T6C0.800
T7C0.850
T8C0.900
T9C0.950
T10C1.000
T11C1.520
T12C2.300
%
G90
G05
T1
X21.59Y-24.765
X21.59Y-26.035
X21.59Y-27.305
X21.59Y-28.575
X21.59Y-29.845
X21.59Y-31.115
X23.495Y-34.925
X23.495Y-45.085
X23.495Y-47.625
X23.495Y-50.165
X23.495Y-51.435
X23.495Y-52.705
X23.495Y-53.975
X23.495Y-55.245
X23.495Y-56.515
X23.495Y-57.785
X23.495Y-59.055
X23.495Y-60.325
X23.495Y-61.595
X23.495Y-67.31
X26.035Y-21.59
X26.035Y-22.86
X26.67Y-26.035
X26.67Y-27.305
X26.67Y-28.575
X26.67Y-31.115
X26.67Y-33.655
X26.67Y-34.925
X26.67Y-36.83
X26.67Y-41.91
X26.67Y-43.815
X26.67Y-45.085
X26.67Y-51.435
X26.67Y-52.705
X26.67Y-53.975
X26.67Y-56.515
X26.67Y-57.785
X26.67Y-79.405
X26.67Y-83.215
X27.305Y-21.59
X27.305Y-87.63
X27.305Y-88.9
X27.305Y-90.17
X27.305Y-91.44
X27.305Y-92.71
X27.305Y-95.885
X27.94Y-24.765
X27.94Y-26.035
X27.94Y-27.305
X27.94Y-32.385
X27.94Y-33.655
X27.94Y-36.83
X27.94Y-41.91
X27.94Y-43.815
X27.94Y-45.085
X27.94Y-46.355
X27.94Y-52.705
X27.94Y-53.975
X27.94Y-61.595
X27.94Y-79.405
X27.94Y-83.215
X29.21Y-26.035
X29.21Y-28.575
X29.21Y-31.115
X29.21Y-32.385
X29.21Y-33.655
X29.21Y-34.925
X29.21Y-36.83
X29.21Y-38.1
X29.21Y-40.64
X29.21Y-41.91
X29.845Y-27.94
X29.845Y-90.17
X29.845Y-91.44
X29.845Y-92.71
X29.845Y-93.98
X30.48Y-27.305
X30.48Y-33.655
X30.48Y-36.83
X30.48Y-38.1
X30.48Y-48.895
X30.48Y-52.07
X30.48Y-69.215
X30.48Y-75.565
X31.115Y-52.705
X31.75Y-28.575
X31.75Y-33.655
X31.75Y-36.83
X31.75Y-38.1
X31.75Y-48.895
X31.75Y-50.165
X31.75Y-53.34
X33.02Y-28.575
X33.02Y-33.655
X33.02Y-36.83
X33.02Y-40.64
X33.02Y-41.91
X33.02Y-48.895
X33.02Y-50.165
X33.02Y-51.435
X34.29Y-28.575
X34.29Y-33.655
X34.29Y-36.83
X34.29Y-38.1
X34.29Y-40.64
X34.29Y-48.895
X34.29Y-50.165
X34.29Y-51.435
X34.29Y-52.705
X34.29Y-61.595
X34.29Y-90.17
X34.29Y-91.44
X34.29Y-92.71
X34.29Y-93.98
X35.56Y-22.225
X35.56Y-23.495
X35.56Y-24.765
X35.56Y-26.035
X35.56Y-27.305
X35.56Y-28.575
X35.56Y-33.655
X35.56Y-36.83
X35.56Y-38.1
X35.56Y-40.64
X35.56Y-41.91
X35.56Y-48.895
X35.56Y-50.165
X35.56Y-51.435
X35.56Y-52.705
X35.56Y-61.595
X35.56Y-66.675
X35.56Y-77.47
X36.195Y-53.975
X36.83Y-22.225
X36.83Y-33.655
X36.83Y-36.83
X36.83Y-38.1
X36.83Y-40.64
X36.83Y-41.91
X36.83Y-48.895
X36.83Y-50.165
X36.83Y-52.705
X36.83Y-67.945
X36.83Y-77.47
X36.83Y-78.74
X37.465Y-53.975
X37.465Y-81.915
X37.465Y-83.185
X37.465Y-84.455
X37.465Y-85.725
X37.465Y-112.395
X37.465Y-113.665
X37.465Y-116.205
X37.465Y-117.475
X38.1Y-22.225
X38.1Y-33.655
X38.1Y-36.83
X38.1Y-40.64
X38.1Y-45.085
X38.1Y-46.355
X38.1Y-47.625
X38.1Y-48.895
X38.1Y-50.165
X38.1Y-52.705
X38.1Y-69.215
X38.1Y-97.79
X38.1Y-102.87
X38.735Y-53.975
X38.735Y-77.47
X38.735Y-81.915
X38.735Y-83.185
X38.735Y-84.455
X38.735Y-85.725
X38.735Y-86.995
X38.735Y-109.855
X38.735Y-112.395
X38.735Y-113.665
X38.735Y-116.205
X38.735Y-117.475
X39.37Y-22.225
X39.37Y-33.655
X39.37Y-34.925
X39.37Y-50.165
X39.37Y-52.705
X40.005Y-53.975
X40.005Y-55.245
X40.005Y-56.515
X40.005Y-57.785
X40.005Y-77.47
X40.005Y-81.915
X40.005Y-83.185
X40.005Y-84.455
X40.005Y-85.725
X40.005Y-86.995
X40.005Y-97.79
X40.005Y-109.855
X40.005Y-112.395
X40.005Y-113.665
X40.005Y-117.475
X40.64Y-22.225
X40.64Y-33.655
X40.64Y-50.165
X40.64Y-52.705
X41.275Y-53.975
X41.275Y-55.245
X41.275Y-57.785
X41.275Y-66.675
X41.275Y-77.47
X41.275Y-84.455
X41.275Y-85.725
X41.275Y-86.995
X41.275Y-96.52
X41.275Y-97.79
X41.275Y-109.855
X41.275Y-112.395
X41.275Y-113.665
X41.275Y-117.475
X41.91Y-23.495
X41.91Y-24.765
X41.91Y-26.035
X41.91Y-27.305
X41.91Y-28.575
X41.91Y-29.845
X41.91Y-31.115
X41.91Y-32.385
X41.91Y-33.655
X41.91Y-34.925
X41.91Y-36.195
X41.91Y-37.465
X41.91Y-38.735
X41.91Y-40.005
X41.91Y-41.275
X41.91Y-42.545
X41.91Y-43.815
X41.91Y-45.085
X41.91Y-46.355
X41.91Y-48.895
X41.91Y-50.165
X41.91Y-51.435
X41.91Y-52.705
X42.545Y-53.975
X42.545Y-55.245
X42.545Y-56.515
X42.545Y-57.785
X42.545Y-59.055
X42.545Y-67.945
X42.545Y-69.215
X42.545Y-73.025
X42.545Y-74.93
X42.545Y-77.47
X42.545Y-84.455
X42.545Y-86.995
X42.545Y-88.265
X42.545Y-89.535
X42.545Y-95.25
X42.545Y-96.52
X42.545Y-97.79
X43.18Y-37.465
X43.18Y-38.735
X43.18Y-40.005
X43.18Y-41.275
X43.18Y-42.545
X43.18Y-43.815
X43.18Y-45.085
X43.18Y-46.355
X43.18Y-47.625
X43.18Y-50.165
X43.18Y-51.435
X43.18Y-52.705
X43.815Y-53.975
X43.815Y-55.245
X43.815Y-57.785
X43.815Y-59.055
X43.815Y-60.325
X43.815Y-67.945
X43.815Y-69.215
X43.815Y-71.12
X43.815Y-73.025
X43.815Y-74.93
X43.815Y-80.01
X43.815Y-83.185
X43.815Y-86.995
X43.815Y-88.265
X43.815Y-89.535
X43.815Y-93.98
X43.815Y-97.79
X44.45Y-36.195
X44.45Y-38.735
X44.45Y-40.005
X44.45Y-41.275
X44.45Y-42.545
X44.45Y-43.815
X44.45Y-45.085
X44.45Y-46.355
X44.45Y-47.625
X44.45Y-48.895
X44.45Y-50.165
X44.45Y-51.435
X44.45Y-52.705
X44.45Y-117.475
X45.085Y-53.975
X45.085Y-55.245
X45.085Y-56.515
X45.085Y-57.785
X45.085Y-59.055
X45.085Y-60.325
X45.085Y-61.595
X45.085Y-67.945
X45.085Y-69.215
X45.085Y-71.12
X45.085Y-73.025
X45.085Y-74.93
X45.085Y-83.185
X45.085Y-92.71
X45.085Y-93.98
X45.085Y-97.79
X45.085Y-102.87
X45.085Y-104.14
X45.085Y-105.41
X45.085Y-106.68
X45.085Y-109.22
X45.085Y-111.76
X45.72Y-36.195
X45.72Y-37.465
X45.72Y-40.005
X45.72Y-41.275
X45.72Y-42.545
X45.72Y-43.815
X45.72Y-45.085
X45.72Y-46.355
X45.72Y-47.625
X45.72Y-48.895
X45.72Y-50.165
X45.72Y-51.435
X45.72Y-52.705
X45.72Y-116.205
X45.72Y-117.475
X46.355Y-53.975
X46.355Y-57.785
X46.355Y-59.055
X46.355Y-60.325
X46.355Y-61.595
X46.355Y-63.5
X46.355Y-67.945
X46.355Y-69.215
X46.355Y-71.12
X46.355Y-73.025
X46.355Y-74.93
X46.355Y-92.71
X46.355Y-97.79
X46.355Y-102.87
X46.355Y-104.14
X46.355Y-105.41
X46.355Y-110.49
X46.99Y-36.195
X46.99Y-37.465
X46.99Y-38.735
X46.99Y-42.545
X46.99Y-43.815
X46.99Y-45.085
X46.99Y-46.355
X46.99Y-47.625
X46.99Y-48.895
X46.99Y-50.165
X46.99Y-51.435
X46.99Y-52.705
X46.99Y-116.205
X46.99Y-117.475
X47.625Y-53.975
X47.625Y-59.055
X47.625Y-64.135
X47.625Y-69.215
X47.625Y-71.12
X47.625Y-73.025
X47.625Y-74.93
X47.625Y-92.71
X47.625Y-97.79
X47.625Y-102.87
X47.625Y-104.14
X47.625Y-109.22
X48.26Y-23.495
X48.26Y-24.765
X48.26Y-36.195
X48.26Y-37.465
X48.26Y-38.735
X48.26Y-43.815
X48.26Y-45.085
X48.26Y-46.355
X48.26Y-47.625
X48.26Y-48.895
X48.26Y-50.165
X48.26Y-51.435
X48.26Y-52.705
X48.26Y-116.205
X48.26Y-117.475
X48.895Y-53.975
X48.895Y-55.245
X48.895Y-59.055
X48.895Y-64.77
X48.895Y-69.215
X48.895Y-71.12
X48.895Y-73.025
X48.895Y-74.93
X48.895Y-92.71
X48.895Y-97.79
X48.895Y-102.87
X48.895Y-107.95
X49.53Y-23.495
X49.53Y-116.205
X49.53Y-117.475
X50.165Y-55.245
X50.165Y-56.515
X50.165Y-59.055
X50.165Y-65.405
X50.165Y-71.12
X50.165Y-73.025
X50.165Y-74.93
X50.165Y-92.71
X50.165Y-97.79
X50.165Y-106.68
X50.8Y-23.495
X50.8Y-24.765
X50.8Y-116.205
X50.8Y-117.475
X51.435Y-55.245
X51.435Y-56.515
X51.435Y-59.055
X51.435Y-65.405
X51.435Y-73.025
X51.435Y-74.93
X51.435Y-92.71
X51.435Y-97.79
X51.435Y-105.41
X52.07Y-24.765
X52.07Y-30.48
X52.07Y-43.815
X52.07Y-69.85
X52.07Y-116.205
X52.07Y-117.475
X52.705Y-55.245
X52.705Y-56.515
X52.705Y-59.055
X52.705Y-65.405
X52.705Y-73.025
X52.705Y-74.93
X52.705Y-92.71
X52.705Y-97.79
X52.705Y-105.41
X53.34Y-24.765
X53.34Y-30.48
X53.34Y-43.815
X53.34Y-68.58
X53.34Y-116.205
X53.34Y-117.475
X53.975Y-56.515
X53.975Y-59.055
X53.975Y-65.405
X53.975Y-71.12
X53.975Y-73.025
X53.975Y-74.93
X53.975Y-92.71
X53.975Y-93.98
X53.975Y-97.79
X53.975Y-102.235
X53.975Y-106.68
X54.61Y-23.495
X54.61Y-24.765
X54.61Y-30.48
X54.61Y-67.31
X54.61Y-116.205
X54.61Y-117.475
X55.245Y-56.515
X55.245Y-60.325
X55.245Y-65.405
X55.245Y-69.85
X55.245Y-73.025
X55.245Y-74.93
X55.245Y-92.71
X55.245Y-93.98
X55.245Y-102.235
X55.88Y-24.765
X55.88Y-29.21
X55.88Y-30.48
X55.88Y-37.465
X55.88Y-38.735
X55.88Y-42.545
X55.88Y-43.815
X55.88Y-97.155
X55.88Y-116.205
X55.88Y-117.475
X56.515Y-54.61
X56.515Y-56.515
X56.515Y-67.31
X56.515Y-71.12
X56.515Y-73.025
X56.515Y-74.93
X56.515Y-93.98
X56.515Y-102.235
X56.515Y-104.14
X56.515Y-109.22
X57.15Y-23.495
X57.15Y-24.765
X57.15Y-29.21
X57.15Y-30.48
X57.15Y-37.465
X57.15Y-38.735
X57.15Y-42.545
X57.15Y-43.815
X57.15Y-116.205
X57.15Y-117.475
X57.785Y-54.61
X57.785Y-56.515
X57.785Y-67.31
X57.785Y-71.12
X57.785Y-74.93
X57.785Y-93.98
X57.785Y-96.52
X57.785Y-102.235
X57.785Y-105.41
X57.785Y-110.49
X58.42Y-23.495
X58.42Y-40.005
X58.42Y-48.26
X58.42Y-116.205
X58.42Y-117.475
X59.055Y-56.515
X59.055Y-57.785
X59.055Y-71.12
X59.055Y-74.93
X59.055Y-96.52
X60.325Y-54.61
X60.325Y-73.66
X60.325Y-74.93
X60.325Y-76.2
X60.325Y-93.98
X60.325Y-97.155
X61.595Y-56.515
X61.595Y-76.2
X61.595Y-92.71
X61.595Y-93.98
X61.595Y-98.425
X61.595Y-100.33
X61.595Y-101.6
X61.595Y-102.87
X62.23Y-29.21
X62.23Y-30.48
X62.865Y-56.515
X62.865Y-97.155
X62.865Y-98.425
X64.135Y-43.815
X64.135Y-45.085
X64.135Y-46.355
X64.135Y-47.625
X64.135Y-48.895
X64.135Y-50.165
X64.135Y-51.435
X64.135Y-52.705
X64.135Y-56.515
X64.135Y-95.885
X64.135Y-97.155
X64.135Y-98.425
X64.135Y-100.33
X64.135Y-101.6
X64.135Y-102.87
X65.405Y-33.02
X65.405Y-34.29
X65.405Y-35.56
X65.405Y-36.83
X65.405Y-54.61
X65.405Y-117.475
X66.04Y-116.84
X66.675Y-54.61
X68.58Y-91.44
X69.215Y-54.61
X69.85Y-40.005
X69.85Y-90.17
X69.85Y-91.44
X69.85Y-93.98
X69.85Y-100.33
X69.85Y-101.6
X71.12Y-33.02
X71.12Y-34.29
X71.12Y-35.56
X71.12Y-41.275
X71.12Y-42.545
X71.12Y-48.895
X71.12Y-50.165
X71.12Y-51.435
X71.12Y-77.47
X71.12Y-78.74
X71.12Y-80.01
X71.12Y-81.28
X71.12Y-82.55
X71.12Y-83.82
X71.12Y-85.09
X71.12Y-86.36
X71.12Y-87.63
X71.12Y-88.9
X71.12Y-90.17
X71.12Y-91.44
X71.12Y-93.98
X71.12Y-100.965
X71.755Y-50.8
X72.39Y-31.75
X72.39Y-35.56
X72.39Y-38.1
X72.39Y-42.545
X72.39Y-43.815
X72.39Y-45.085
X72.39Y-50.165
X72.39Y-66.04
X72.39Y-68.58
X72.39Y-69.85
X72.39Y-71.12
X72.39Y-72.39
X72.39Y-73.66
X72.39Y-74.93
X72.39Y-76.2
X72.39Y-77.47
X72.39Y-83.82
X72.39Y-90.17
X72.39Y-91.44
X72.39Y-112.395
X72.39Y-113.665
X73.66Y-29.21
X73.66Y-31.75
X73.66Y-35.56
X73.66Y-38.1
X73.66Y-58.42
X73.66Y-59.69
X73.66Y-60.96
X73.66Y-62.23
X73.66Y-63.5
X73.66Y-64.77
X73.66Y-66.04
X73.66Y-68.58
X73.66Y-69.85
X73.66Y-77.47
X73.66Y-83.82
X73.66Y-90.17
X73.66Y-91.44
X73.66Y-101.6
X73.66Y-105.41
X73.66Y-106.68
X73.66Y-112.395
X73.66Y-113.665
X74.93Y-25.4
X74.93Y-26.67
X74.93Y-27.94
X74.93Y-29.21
X74.93Y-30.48
X74.93Y-31.75
X74.93Y-33.02
X74.93Y-34.29
X74.93Y-59.69
X74.93Y-60.96
X74.93Y-62.23
X74.93Y-63.5
X74.93Y-64.77
X74.93Y-66.04
X74.93Y-68.58
X74.93Y-69.85
X74.93Y-77.47
X74.93Y-83.82
X74.93Y-90.17
X74.93Y-91.44
X74.93Y-99.06
X74.93Y-100.33
X74.93Y-101.6
X74.93Y-105.41
X74.93Y-106.68
X74.93Y-107.95
X74.93Y-112.395
X74.93Y-113.665
X76.2Y-25.4
X76.2Y-60.96
X76.2Y-62.23
X76.2Y-63.5
X76.2Y-64.77
X76.2Y-66.04
X76.2Y-68.58
X76.2Y-69.85
X76.2Y-77.47
X76.2Y-83.82
X76.2Y-90.17
X76.2Y-91.44
X76.2Y-99.06
X76.2Y-100.33
X76.2Y-101.6
X76.2Y-105.41
X76.2Y-106.68
X76.2Y-107.95
X76.2Y-111.125
X76.2Y-112.395
X76.2Y-113.665
X76.2Y-114.935
X77.47Y-25.4
X77.47Y-62.23
X77.47Y-63.5
X77.47Y-64.77
X77.47Y-66.04
X77.47Y-68.58
X77.47Y-69.85
X77.47Y-77.47
X77.47Y-83.82
X77.47Y-90.17
X77.47Y-91.44
X77.47Y-99.06
X77.47Y-100.33
X77.47Y-101.6
X77.47Y-105.41
X77.47Y-106.68
X77.47Y-111.125
X77.47Y-112.395
X77.47Y-113.665
X78.74Y-25.4
X78.74Y-26.67
X78.74Y-27.94
X78.74Y-29.21
X78.74Y-30.48
X78.74Y-31.75
X78.74Y-33.02
X78.74Y-38.1
X78.74Y-39.37
X78.74Y-54.61
X78.74Y-63.5
X78.74Y-64.77
X78.74Y-66.04
X78.74Y-68.58
X78.74Y-69.85
X78.74Y-71.12
X78.74Y-72.39
X78.74Y-73.66
X78.74Y-74.93
X78.74Y-76.2
X78.74Y-77.47
X78.74Y-78.74
X78.74Y-80.01
X78.74Y-81.28
X78.74Y-82.55
X78.74Y-83.82
X78.74Y-85.09
X78.74Y-86.36
X78.74Y-87.63
X78.74Y-88.9
X78.74Y-90.17
X78.74Y-91.44
X78.74Y-99.06
X78.74Y-100.33
X78.74Y-101.6
X78.74Y-105.41
X78.74Y-106.68
X78.74Y-107.95
X78.74Y-111.125
X78.74Y-112.395
X78.74Y-113.665
X78.74Y-114.935
X80.01Y-36.83
X80.01Y-38.1
X80.01Y-43.18
X80.01Y-54.61
X80.01Y-55.88
X81.28Y-36.83
X81.28Y-41.91
X81.28Y-43.18
X81.28Y-54.61
X81.28Y-55.88
X81.28Y-57.15
X82.55Y-58.42
X82.55Y-104.775
X82.55Y-106.045
X82.55Y-107.315
X82.55Y-108.585
X82.55Y-109.855
X82.55Y-111.125
X82.55Y-112.395
X82.55Y-113.665
X82.55Y-114.935
X82.55Y-116.205
X82.55Y-117.475
T2
X20.32Y-78.105
X20.32Y-94.615
X20.32Y-106.68
X22.225Y-76.2
X22.225Y-85.09
X22.225Y-102.87
X24.13Y-76.835
X24.13Y-92.71
X24.13Y-110.49
X24.13Y-116.84
X25.4Y-25.4
X25.4Y-59.69
X25.4Y-67.945
X25.4Y-74.295
X25.4Y-81.28
X25.4Y-99.06
X29.21Y-95.25
X31.75Y-76.835
X31.75Y-79.375
X31.75Y-86.995
X33.655Y-113.665
X34.925Y-54.61
X36.83Y-76.2
X36.83Y-86.995
X37.465Y-108.585
X38.1Y-95.25
X39.37Y-107.95
X40.64Y-106.68
X40.64Y-76.2
X43.18Y-66.04
X44.45Y-116.205
X45.72Y-113.665
X46.99Y-55.88
X46.99Y-112.395
X47.625Y-40.64
X48.26Y-42.545
X48.26Y-57.15
X48.26Y-106.045
X49.53Y-104.775
X50.8Y-103.505
X51.435Y-45.085
X52.07Y-46.355
X52.07Y-71.12
X52.07Y-102.235
X53.34Y-45.085
X53.34Y-69.85
X53.34Y-103.505
X53.975Y-33.02
X53.975Y-34.29
X53.975Y-40.64
X54.61Y-54.61
X54.61Y-68.58
X54.61Y-104.775
X55.88Y-58.42
X55.88Y-106.045
X57.15Y-107.315
X58.42Y-53.34
X58.42Y-73.66
X58.42Y-114.935
X58.42Y-108.585
X59.69Y-66.04
X59.69Y-72.39
X61.595Y-34.925
X61.595Y-109.855
X62.23Y-95.25
X62.865Y-34.925
X62.865Y-71.12
X62.865Y-111.125
X65.405Y-115.57
X66.04Y-104.775
X66.675Y-36.83
X67.945Y-42.545
X72.39Y-46.355
X72.39Y-48.895
X73.66Y-36.83
X74.295Y-67.31
X80.645Y-109.855
X80.645Y-116.205
X82.55Y-67.31
X82.55Y-97.79
X82.55Y-103.505
T3
X28.575Y-56.515
X29.825Y-56.515
X31.075Y-56.515
X32.325Y-56.515
X33.575Y-56.515
X34.825Y-56.515
X36.075Y-56.515
X37.325Y-56.515
T4
X69.85Y-44.45
X70.485Y-56.515
T5
X32.385Y-22.225
X32.385Y-23.495
X32.385Y-24.765
X32.385Y-26.035
X32.385Y-27.305
X33.655Y-22.225
X33.655Y-23.495
X33.655Y-24.765
X33.655Y-26.035
X33.655Y-27.305
X76.835Y-24.13
X76.835Y-31.75
X76.835Y-33.655
X76.835Y-41.275
T6
X22.225Y-48.895
X42.545Y-22.225
X43.815Y-20.32
X59.69Y-22.225
X67.945Y-38.735
X67.945Y-59.055
T7
X78.42Y-46.395
X78.42Y-51.395
T8
X63.74Y-74.67
X63.74Y-76.71
X63.74Y-78.75
X66.28Y-73.65
X66.28Y-75.69
X66.28Y-77.73
X63.74Y-89.91
X63.74Y-91.95
X63.74Y-93.99
X66.28Y-88.89
X66.28Y-90.93
X66.28Y-92.97
T9
X23.495Y-22.94
X23.495Y-25.44
X23.495Y-27.94
X23.495Y-30.44
X23.495Y-32.94
X29.21Y-63.5
X31.71Y-63.5
X34.21Y-63.5
X36.71Y-63.5
X39.21Y-63.5
X41.71Y-63.5
X44.21Y-63.5
T10
X67.945Y-109.855
X70.485Y-109.855
X73.025Y-109.855
X57.785Y-60.96
X57.785Y-63.5
X61.595Y-60.325
X64.135Y-60.325
X67.945Y-116.84
X70.485Y-116.84
X73.025Y-116.84
X27.94Y-106.68
X30.48Y-106.68
X33.02Y-106.68
X35.56Y-106.68
X27.94Y-71.12
X27.94Y-73.66
X30.48Y-71.12
X30.48Y-73.66
X33.02Y-71.12
X33.02Y-73.66
X35.56Y-71.12
X35.56Y-73.66
X38.1Y-71.12
X38.1Y-73.66
X40.64Y-71.12
X40.64Y-73.66
X27.94Y-99.06
X30.48Y-99.06
X33.02Y-99.06
X35.56Y-99.06
X61.595Y-64.135
X64.135Y-64.135
X27.94Y-81.28
X30.48Y-81.28
X33.02Y-81.28
X35.56Y-81.28
X27.94Y-110.49
X30.48Y-110.49
X33.02Y-110.49
X35.56Y-110.49
X27.94Y-85.09
X30.48Y-85.09
X33.02Y-85.09
X35.56Y-85.09
X27.94Y-102.87
X30.48Y-102.87
X33.02Y-102.87
X35.56Y-102.87
X61.595Y-67.945
X64.135Y-67.945
X27.94Y-116.84
X30.48Y-116.84
X33.02Y-116.84
X35.56Y-116.84
T11
X70.485Y-59.055
X70.485Y-64.135
T12
X68.58Y-70.2
X68.58Y-82.2
X68.58Y-85.44
X68.58Y-97.44
T4
X80.77Y-45.395G85X81.471Y-45.395
G05
X81.471Y-52.395G85X80.77Y-52.395
G05
T0
M30
