G04 #@! TF.GenerationSoftware,KiCad,Pcbnew,(5.0.2)-1*
G04 #@! TF.CreationDate,2020-01-14T01:16:21+01:00*
G04 #@! TF.ProjectId,airMon,6169724d-6f6e-42e6-9b69-6361645f7063,0.1*
G04 #@! TF.SameCoordinates,Original*
G04 #@! TF.FileFunction,Soldermask,Bot*
G04 #@! TF.FilePolarity,Negative*
%FSLAX46Y46*%
G04 Gerber Fmt 4.6, Leading zero omitted, Abs format (unit mm)*
G04 Created by KiCad (PCBNEW (5.0.2)-1) date 14.01.2020 1:16:21*
%MOMM*%
%LPD*%
G01*
G04 APERTURE LIST*
%ADD10C,0.100000*%
G04 APERTURE END LIST*
D10*
G36*
X28790000Y-117690000D02*
X27090000Y-117690000D01*
X27090000Y-115990000D01*
X28790000Y-115990000D01*
X28790000Y-117690000D01*
X28790000Y-117690000D01*
G37*
G36*
X70651630Y-116002299D02*
X70811855Y-116050903D01*
X70959520Y-116129831D01*
X71088949Y-116236051D01*
X71195169Y-116365480D01*
X71274097Y-116513145D01*
X71322701Y-116673370D01*
X71339112Y-116840000D01*
X71322701Y-117006630D01*
X71274097Y-117166855D01*
X71195169Y-117314520D01*
X71088949Y-117443949D01*
X70959520Y-117550169D01*
X70811855Y-117629097D01*
X70651630Y-117677701D01*
X70526752Y-117690000D01*
X70443248Y-117690000D01*
X70318370Y-117677701D01*
X70158145Y-117629097D01*
X70010480Y-117550169D01*
X69881051Y-117443949D01*
X69774831Y-117314520D01*
X69695903Y-117166855D01*
X69647299Y-117006630D01*
X69630888Y-116840000D01*
X69647299Y-116673370D01*
X69695903Y-116513145D01*
X69774831Y-116365480D01*
X69881051Y-116236051D01*
X70010480Y-116129831D01*
X70158145Y-116050903D01*
X70318370Y-116002299D01*
X70443248Y-115990000D01*
X70526752Y-115990000D01*
X70651630Y-116002299D01*
X70651630Y-116002299D01*
G37*
G36*
X68111630Y-116002299D02*
X68271855Y-116050903D01*
X68419520Y-116129831D01*
X68548949Y-116236051D01*
X68655169Y-116365480D01*
X68734097Y-116513145D01*
X68782701Y-116673370D01*
X68799112Y-116840000D01*
X68782701Y-117006630D01*
X68734097Y-117166855D01*
X68655169Y-117314520D01*
X68548949Y-117443949D01*
X68419520Y-117550169D01*
X68271855Y-117629097D01*
X68111630Y-117677701D01*
X67986752Y-117690000D01*
X67903248Y-117690000D01*
X67778370Y-117677701D01*
X67618145Y-117629097D01*
X67470480Y-117550169D01*
X67341051Y-117443949D01*
X67234831Y-117314520D01*
X67155903Y-117166855D01*
X67107299Y-117006630D01*
X67090888Y-116840000D01*
X67107299Y-116673370D01*
X67155903Y-116513145D01*
X67234831Y-116365480D01*
X67341051Y-116236051D01*
X67470480Y-116129831D01*
X67618145Y-116050903D01*
X67778370Y-116002299D01*
X67903248Y-115990000D01*
X67986752Y-115990000D01*
X68111630Y-116002299D01*
X68111630Y-116002299D01*
G37*
G36*
X73875000Y-117690000D02*
X72175000Y-117690000D01*
X72175000Y-115990000D01*
X73875000Y-115990000D01*
X73875000Y-117690000D01*
X73875000Y-117690000D01*
G37*
G36*
X33186630Y-116002299D02*
X33346855Y-116050903D01*
X33494520Y-116129831D01*
X33623949Y-116236051D01*
X33730169Y-116365480D01*
X33809097Y-116513145D01*
X33857701Y-116673370D01*
X33874112Y-116840000D01*
X33857701Y-117006630D01*
X33809097Y-117166855D01*
X33730169Y-117314520D01*
X33623949Y-117443949D01*
X33494520Y-117550169D01*
X33346855Y-117629097D01*
X33186630Y-117677701D01*
X33061752Y-117690000D01*
X32978248Y-117690000D01*
X32853370Y-117677701D01*
X32693145Y-117629097D01*
X32545480Y-117550169D01*
X32416051Y-117443949D01*
X32309831Y-117314520D01*
X32230903Y-117166855D01*
X32182299Y-117006630D01*
X32165888Y-116840000D01*
X32182299Y-116673370D01*
X32230903Y-116513145D01*
X32309831Y-116365480D01*
X32416051Y-116236051D01*
X32545480Y-116129831D01*
X32693145Y-116050903D01*
X32853370Y-116002299D01*
X32978248Y-115990000D01*
X33061752Y-115990000D01*
X33186630Y-116002299D01*
X33186630Y-116002299D01*
G37*
G36*
X30646630Y-116002299D02*
X30806855Y-116050903D01*
X30954520Y-116129831D01*
X31083949Y-116236051D01*
X31190169Y-116365480D01*
X31269097Y-116513145D01*
X31317701Y-116673370D01*
X31334112Y-116840000D01*
X31317701Y-117006630D01*
X31269097Y-117166855D01*
X31190169Y-117314520D01*
X31083949Y-117443949D01*
X30954520Y-117550169D01*
X30806855Y-117629097D01*
X30646630Y-117677701D01*
X30521752Y-117690000D01*
X30438248Y-117690000D01*
X30313370Y-117677701D01*
X30153145Y-117629097D01*
X30005480Y-117550169D01*
X29876051Y-117443949D01*
X29769831Y-117314520D01*
X29690903Y-117166855D01*
X29642299Y-117006630D01*
X29625888Y-116840000D01*
X29642299Y-116673370D01*
X29690903Y-116513145D01*
X29769831Y-116365480D01*
X29876051Y-116236051D01*
X30005480Y-116129831D01*
X30153145Y-116050903D01*
X30313370Y-116002299D01*
X30438248Y-115990000D01*
X30521752Y-115990000D01*
X30646630Y-116002299D01*
X30646630Y-116002299D01*
G37*
G36*
X35726630Y-116002299D02*
X35886855Y-116050903D01*
X36034520Y-116129831D01*
X36163949Y-116236051D01*
X36270169Y-116365480D01*
X36349097Y-116513145D01*
X36397701Y-116673370D01*
X36414112Y-116840000D01*
X36397701Y-117006630D01*
X36349097Y-117166855D01*
X36270169Y-117314520D01*
X36163949Y-117443949D01*
X36034520Y-117550169D01*
X35886855Y-117629097D01*
X35726630Y-117677701D01*
X35601752Y-117690000D01*
X35518248Y-117690000D01*
X35393370Y-117677701D01*
X35233145Y-117629097D01*
X35085480Y-117550169D01*
X34956051Y-117443949D01*
X34849831Y-117314520D01*
X34770903Y-117166855D01*
X34722299Y-117006630D01*
X34705888Y-116840000D01*
X34722299Y-116673370D01*
X34770903Y-116513145D01*
X34849831Y-116365480D01*
X34956051Y-116236051D01*
X35085480Y-116129831D01*
X35233145Y-116050903D01*
X35393370Y-116002299D01*
X35518248Y-115990000D01*
X35601752Y-115990000D01*
X35726630Y-116002299D01*
X35726630Y-116002299D01*
G37*
G36*
X28790000Y-111340000D02*
X27090000Y-111340000D01*
X27090000Y-109640000D01*
X28790000Y-109640000D01*
X28790000Y-111340000D01*
X28790000Y-111340000D01*
G37*
G36*
X33186630Y-109652299D02*
X33346855Y-109700903D01*
X33494520Y-109779831D01*
X33623949Y-109886051D01*
X33730169Y-110015480D01*
X33809097Y-110163145D01*
X33857701Y-110323370D01*
X33874112Y-110490000D01*
X33857701Y-110656630D01*
X33809097Y-110816855D01*
X33730169Y-110964520D01*
X33623949Y-111093949D01*
X33494520Y-111200169D01*
X33346855Y-111279097D01*
X33186630Y-111327701D01*
X33061752Y-111340000D01*
X32978248Y-111340000D01*
X32853370Y-111327701D01*
X32693145Y-111279097D01*
X32545480Y-111200169D01*
X32416051Y-111093949D01*
X32309831Y-110964520D01*
X32230903Y-110816855D01*
X32182299Y-110656630D01*
X32165888Y-110490000D01*
X32182299Y-110323370D01*
X32230903Y-110163145D01*
X32309831Y-110015480D01*
X32416051Y-109886051D01*
X32545480Y-109779831D01*
X32693145Y-109700903D01*
X32853370Y-109652299D01*
X32978248Y-109640000D01*
X33061752Y-109640000D01*
X33186630Y-109652299D01*
X33186630Y-109652299D01*
G37*
G36*
X35726630Y-109652299D02*
X35886855Y-109700903D01*
X36034520Y-109779831D01*
X36163949Y-109886051D01*
X36270169Y-110015480D01*
X36349097Y-110163145D01*
X36397701Y-110323370D01*
X36414112Y-110490000D01*
X36397701Y-110656630D01*
X36349097Y-110816855D01*
X36270169Y-110964520D01*
X36163949Y-111093949D01*
X36034520Y-111200169D01*
X35886855Y-111279097D01*
X35726630Y-111327701D01*
X35601752Y-111340000D01*
X35518248Y-111340000D01*
X35393370Y-111327701D01*
X35233145Y-111279097D01*
X35085480Y-111200169D01*
X34956051Y-111093949D01*
X34849831Y-110964520D01*
X34770903Y-110816855D01*
X34722299Y-110656630D01*
X34705888Y-110490000D01*
X34722299Y-110323370D01*
X34770903Y-110163145D01*
X34849831Y-110015480D01*
X34956051Y-109886051D01*
X35085480Y-109779831D01*
X35233145Y-109700903D01*
X35393370Y-109652299D01*
X35518248Y-109640000D01*
X35601752Y-109640000D01*
X35726630Y-109652299D01*
X35726630Y-109652299D01*
G37*
G36*
X30646630Y-109652299D02*
X30806855Y-109700903D01*
X30954520Y-109779831D01*
X31083949Y-109886051D01*
X31190169Y-110015480D01*
X31269097Y-110163145D01*
X31317701Y-110323370D01*
X31334112Y-110490000D01*
X31317701Y-110656630D01*
X31269097Y-110816855D01*
X31190169Y-110964520D01*
X31083949Y-111093949D01*
X30954520Y-111200169D01*
X30806855Y-111279097D01*
X30646630Y-111327701D01*
X30521752Y-111340000D01*
X30438248Y-111340000D01*
X30313370Y-111327701D01*
X30153145Y-111279097D01*
X30005480Y-111200169D01*
X29876051Y-111093949D01*
X29769831Y-110964520D01*
X29690903Y-110816855D01*
X29642299Y-110656630D01*
X29625888Y-110490000D01*
X29642299Y-110323370D01*
X29690903Y-110163145D01*
X29769831Y-110015480D01*
X29876051Y-109886051D01*
X30005480Y-109779831D01*
X30153145Y-109700903D01*
X30313370Y-109652299D01*
X30438248Y-109640000D01*
X30521752Y-109640000D01*
X30646630Y-109652299D01*
X30646630Y-109652299D01*
G37*
G36*
X68111630Y-109017299D02*
X68271855Y-109065903D01*
X68419520Y-109144831D01*
X68548949Y-109251051D01*
X68655169Y-109380480D01*
X68734097Y-109528145D01*
X68782701Y-109688370D01*
X68799112Y-109855000D01*
X68782701Y-110021630D01*
X68734097Y-110181855D01*
X68655169Y-110329520D01*
X68548949Y-110458949D01*
X68419520Y-110565169D01*
X68271855Y-110644097D01*
X68111630Y-110692701D01*
X67986752Y-110705000D01*
X67903248Y-110705000D01*
X67778370Y-110692701D01*
X67618145Y-110644097D01*
X67470480Y-110565169D01*
X67341051Y-110458949D01*
X67234831Y-110329520D01*
X67155903Y-110181855D01*
X67107299Y-110021630D01*
X67090888Y-109855000D01*
X67107299Y-109688370D01*
X67155903Y-109528145D01*
X67234831Y-109380480D01*
X67341051Y-109251051D01*
X67470480Y-109144831D01*
X67618145Y-109065903D01*
X67778370Y-109017299D01*
X67903248Y-109005000D01*
X67986752Y-109005000D01*
X68111630Y-109017299D01*
X68111630Y-109017299D01*
G37*
G36*
X70651630Y-109017299D02*
X70811855Y-109065903D01*
X70959520Y-109144831D01*
X71088949Y-109251051D01*
X71195169Y-109380480D01*
X71274097Y-109528145D01*
X71322701Y-109688370D01*
X71339112Y-109855000D01*
X71322701Y-110021630D01*
X71274097Y-110181855D01*
X71195169Y-110329520D01*
X71088949Y-110458949D01*
X70959520Y-110565169D01*
X70811855Y-110644097D01*
X70651630Y-110692701D01*
X70526752Y-110705000D01*
X70443248Y-110705000D01*
X70318370Y-110692701D01*
X70158145Y-110644097D01*
X70010480Y-110565169D01*
X69881051Y-110458949D01*
X69774831Y-110329520D01*
X69695903Y-110181855D01*
X69647299Y-110021630D01*
X69630888Y-109855000D01*
X69647299Y-109688370D01*
X69695903Y-109528145D01*
X69774831Y-109380480D01*
X69881051Y-109251051D01*
X70010480Y-109144831D01*
X70158145Y-109065903D01*
X70318370Y-109017299D01*
X70443248Y-109005000D01*
X70526752Y-109005000D01*
X70651630Y-109017299D01*
X70651630Y-109017299D01*
G37*
G36*
X73875000Y-110705000D02*
X72175000Y-110705000D01*
X72175000Y-109005000D01*
X73875000Y-109005000D01*
X73875000Y-110705000D01*
X73875000Y-110705000D01*
G37*
G36*
X28790000Y-107530000D02*
X27090000Y-107530000D01*
X27090000Y-105830000D01*
X28790000Y-105830000D01*
X28790000Y-107530000D01*
X28790000Y-107530000D01*
G37*
G36*
X30646630Y-105842299D02*
X30806855Y-105890903D01*
X30954520Y-105969831D01*
X31083949Y-106076051D01*
X31190169Y-106205480D01*
X31269097Y-106353145D01*
X31317701Y-106513370D01*
X31334112Y-106680000D01*
X31317701Y-106846630D01*
X31269097Y-107006855D01*
X31190169Y-107154520D01*
X31083949Y-107283949D01*
X30954520Y-107390169D01*
X30806855Y-107469097D01*
X30646630Y-107517701D01*
X30521752Y-107530000D01*
X30438248Y-107530000D01*
X30313370Y-107517701D01*
X30153145Y-107469097D01*
X30005480Y-107390169D01*
X29876051Y-107283949D01*
X29769831Y-107154520D01*
X29690903Y-107006855D01*
X29642299Y-106846630D01*
X29625888Y-106680000D01*
X29642299Y-106513370D01*
X29690903Y-106353145D01*
X29769831Y-106205480D01*
X29876051Y-106076051D01*
X30005480Y-105969831D01*
X30153145Y-105890903D01*
X30313370Y-105842299D01*
X30438248Y-105830000D01*
X30521752Y-105830000D01*
X30646630Y-105842299D01*
X30646630Y-105842299D01*
G37*
G36*
X35726630Y-105842299D02*
X35886855Y-105890903D01*
X36034520Y-105969831D01*
X36163949Y-106076051D01*
X36270169Y-106205480D01*
X36349097Y-106353145D01*
X36397701Y-106513370D01*
X36414112Y-106680000D01*
X36397701Y-106846630D01*
X36349097Y-107006855D01*
X36270169Y-107154520D01*
X36163949Y-107283949D01*
X36034520Y-107390169D01*
X35886855Y-107469097D01*
X35726630Y-107517701D01*
X35601752Y-107530000D01*
X35518248Y-107530000D01*
X35393370Y-107517701D01*
X35233145Y-107469097D01*
X35085480Y-107390169D01*
X34956051Y-107283949D01*
X34849831Y-107154520D01*
X34770903Y-107006855D01*
X34722299Y-106846630D01*
X34705888Y-106680000D01*
X34722299Y-106513370D01*
X34770903Y-106353145D01*
X34849831Y-106205480D01*
X34956051Y-106076051D01*
X35085480Y-105969831D01*
X35233145Y-105890903D01*
X35393370Y-105842299D01*
X35518248Y-105830000D01*
X35601752Y-105830000D01*
X35726630Y-105842299D01*
X35726630Y-105842299D01*
G37*
G36*
X33186630Y-105842299D02*
X33346855Y-105890903D01*
X33494520Y-105969831D01*
X33623949Y-106076051D01*
X33730169Y-106205480D01*
X33809097Y-106353145D01*
X33857701Y-106513370D01*
X33874112Y-106680000D01*
X33857701Y-106846630D01*
X33809097Y-107006855D01*
X33730169Y-107154520D01*
X33623949Y-107283949D01*
X33494520Y-107390169D01*
X33346855Y-107469097D01*
X33186630Y-107517701D01*
X33061752Y-107530000D01*
X32978248Y-107530000D01*
X32853370Y-107517701D01*
X32693145Y-107469097D01*
X32545480Y-107390169D01*
X32416051Y-107283949D01*
X32309831Y-107154520D01*
X32230903Y-107006855D01*
X32182299Y-106846630D01*
X32165888Y-106680000D01*
X32182299Y-106513370D01*
X32230903Y-106353145D01*
X32309831Y-106205480D01*
X32416051Y-106076051D01*
X32545480Y-105969831D01*
X32693145Y-105890903D01*
X32853370Y-105842299D01*
X32978248Y-105830000D01*
X33061752Y-105830000D01*
X33186630Y-105842299D01*
X33186630Y-105842299D01*
G37*
G36*
X35726630Y-102032299D02*
X35886855Y-102080903D01*
X36034520Y-102159831D01*
X36163949Y-102266051D01*
X36270169Y-102395480D01*
X36349097Y-102543145D01*
X36397701Y-102703370D01*
X36414112Y-102870000D01*
X36397701Y-103036630D01*
X36349097Y-103196855D01*
X36270169Y-103344520D01*
X36163949Y-103473949D01*
X36034520Y-103580169D01*
X35886855Y-103659097D01*
X35726630Y-103707701D01*
X35601752Y-103720000D01*
X35518248Y-103720000D01*
X35393370Y-103707701D01*
X35233145Y-103659097D01*
X35085480Y-103580169D01*
X34956051Y-103473949D01*
X34849831Y-103344520D01*
X34770903Y-103196855D01*
X34722299Y-103036630D01*
X34705888Y-102870000D01*
X34722299Y-102703370D01*
X34770903Y-102543145D01*
X34849831Y-102395480D01*
X34956051Y-102266051D01*
X35085480Y-102159831D01*
X35233145Y-102080903D01*
X35393370Y-102032299D01*
X35518248Y-102020000D01*
X35601752Y-102020000D01*
X35726630Y-102032299D01*
X35726630Y-102032299D01*
G37*
G36*
X33186630Y-102032299D02*
X33346855Y-102080903D01*
X33494520Y-102159831D01*
X33623949Y-102266051D01*
X33730169Y-102395480D01*
X33809097Y-102543145D01*
X33857701Y-102703370D01*
X33874112Y-102870000D01*
X33857701Y-103036630D01*
X33809097Y-103196855D01*
X33730169Y-103344520D01*
X33623949Y-103473949D01*
X33494520Y-103580169D01*
X33346855Y-103659097D01*
X33186630Y-103707701D01*
X33061752Y-103720000D01*
X32978248Y-103720000D01*
X32853370Y-103707701D01*
X32693145Y-103659097D01*
X32545480Y-103580169D01*
X32416051Y-103473949D01*
X32309831Y-103344520D01*
X32230903Y-103196855D01*
X32182299Y-103036630D01*
X32165888Y-102870000D01*
X32182299Y-102703370D01*
X32230903Y-102543145D01*
X32309831Y-102395480D01*
X32416051Y-102266051D01*
X32545480Y-102159831D01*
X32693145Y-102080903D01*
X32853370Y-102032299D01*
X32978248Y-102020000D01*
X33061752Y-102020000D01*
X33186630Y-102032299D01*
X33186630Y-102032299D01*
G37*
G36*
X30646630Y-102032299D02*
X30806855Y-102080903D01*
X30954520Y-102159831D01*
X31083949Y-102266051D01*
X31190169Y-102395480D01*
X31269097Y-102543145D01*
X31317701Y-102703370D01*
X31334112Y-102870000D01*
X31317701Y-103036630D01*
X31269097Y-103196855D01*
X31190169Y-103344520D01*
X31083949Y-103473949D01*
X30954520Y-103580169D01*
X30806855Y-103659097D01*
X30646630Y-103707701D01*
X30521752Y-103720000D01*
X30438248Y-103720000D01*
X30313370Y-103707701D01*
X30153145Y-103659097D01*
X30005480Y-103580169D01*
X29876051Y-103473949D01*
X29769831Y-103344520D01*
X29690903Y-103196855D01*
X29642299Y-103036630D01*
X29625888Y-102870000D01*
X29642299Y-102703370D01*
X29690903Y-102543145D01*
X29769831Y-102395480D01*
X29876051Y-102266051D01*
X30005480Y-102159831D01*
X30153145Y-102080903D01*
X30313370Y-102032299D01*
X30438248Y-102020000D01*
X30521752Y-102020000D01*
X30646630Y-102032299D01*
X30646630Y-102032299D01*
G37*
G36*
X28790000Y-103720000D02*
X27090000Y-103720000D01*
X27090000Y-102020000D01*
X28790000Y-102020000D01*
X28790000Y-103720000D01*
X28790000Y-103720000D01*
G37*
G36*
X30646630Y-98222299D02*
X30806855Y-98270903D01*
X30954520Y-98349831D01*
X31083949Y-98456051D01*
X31190169Y-98585480D01*
X31269097Y-98733145D01*
X31317701Y-98893370D01*
X31334112Y-99060000D01*
X31317701Y-99226630D01*
X31269097Y-99386855D01*
X31190169Y-99534520D01*
X31083949Y-99663949D01*
X30954520Y-99770169D01*
X30806855Y-99849097D01*
X30646630Y-99897701D01*
X30521752Y-99910000D01*
X30438248Y-99910000D01*
X30313370Y-99897701D01*
X30153145Y-99849097D01*
X30005480Y-99770169D01*
X29876051Y-99663949D01*
X29769831Y-99534520D01*
X29690903Y-99386855D01*
X29642299Y-99226630D01*
X29625888Y-99060000D01*
X29642299Y-98893370D01*
X29690903Y-98733145D01*
X29769831Y-98585480D01*
X29876051Y-98456051D01*
X30005480Y-98349831D01*
X30153145Y-98270903D01*
X30313370Y-98222299D01*
X30438248Y-98210000D01*
X30521752Y-98210000D01*
X30646630Y-98222299D01*
X30646630Y-98222299D01*
G37*
G36*
X35726630Y-98222299D02*
X35886855Y-98270903D01*
X36034520Y-98349831D01*
X36163949Y-98456051D01*
X36270169Y-98585480D01*
X36349097Y-98733145D01*
X36397701Y-98893370D01*
X36414112Y-99060000D01*
X36397701Y-99226630D01*
X36349097Y-99386855D01*
X36270169Y-99534520D01*
X36163949Y-99663949D01*
X36034520Y-99770169D01*
X35886855Y-99849097D01*
X35726630Y-99897701D01*
X35601752Y-99910000D01*
X35518248Y-99910000D01*
X35393370Y-99897701D01*
X35233145Y-99849097D01*
X35085480Y-99770169D01*
X34956051Y-99663949D01*
X34849831Y-99534520D01*
X34770903Y-99386855D01*
X34722299Y-99226630D01*
X34705888Y-99060000D01*
X34722299Y-98893370D01*
X34770903Y-98733145D01*
X34849831Y-98585480D01*
X34956051Y-98456051D01*
X35085480Y-98349831D01*
X35233145Y-98270903D01*
X35393370Y-98222299D01*
X35518248Y-98210000D01*
X35601752Y-98210000D01*
X35726630Y-98222299D01*
X35726630Y-98222299D01*
G37*
G36*
X33186630Y-98222299D02*
X33346855Y-98270903D01*
X33494520Y-98349831D01*
X33623949Y-98456051D01*
X33730169Y-98585480D01*
X33809097Y-98733145D01*
X33857701Y-98893370D01*
X33874112Y-99060000D01*
X33857701Y-99226630D01*
X33809097Y-99386855D01*
X33730169Y-99534520D01*
X33623949Y-99663949D01*
X33494520Y-99770169D01*
X33346855Y-99849097D01*
X33186630Y-99897701D01*
X33061752Y-99910000D01*
X32978248Y-99910000D01*
X32853370Y-99897701D01*
X32693145Y-99849097D01*
X32545480Y-99770169D01*
X32416051Y-99663949D01*
X32309831Y-99534520D01*
X32230903Y-99386855D01*
X32182299Y-99226630D01*
X32165888Y-99060000D01*
X32182299Y-98893370D01*
X32230903Y-98733145D01*
X32309831Y-98585480D01*
X32416051Y-98456051D01*
X32545480Y-98349831D01*
X32693145Y-98270903D01*
X32853370Y-98222299D01*
X32978248Y-98210000D01*
X33061752Y-98210000D01*
X33186630Y-98222299D01*
X33186630Y-98222299D01*
G37*
G36*
X28790000Y-99910000D02*
X27090000Y-99910000D01*
X27090000Y-98210000D01*
X28790000Y-98210000D01*
X28790000Y-99910000D01*
X28790000Y-99910000D01*
G37*
G36*
X68853126Y-96066900D02*
X68988365Y-96093801D01*
X69243149Y-96199336D01*
X69469397Y-96350511D01*
X69472451Y-96352551D01*
X69667449Y-96547549D01*
X69820665Y-96776853D01*
X69926199Y-97031636D01*
X69980000Y-97302111D01*
X69980000Y-97577889D01*
X69926199Y-97848364D01*
X69820665Y-98103147D01*
X69667449Y-98332451D01*
X69472451Y-98527449D01*
X69472448Y-98527451D01*
X69243149Y-98680664D01*
X68988365Y-98786199D01*
X68853127Y-98813099D01*
X68717889Y-98840000D01*
X68442111Y-98840000D01*
X68306873Y-98813099D01*
X68171635Y-98786199D01*
X67916851Y-98680664D01*
X67687552Y-98527451D01*
X67687549Y-98527449D01*
X67492551Y-98332451D01*
X67339335Y-98103147D01*
X67233801Y-97848364D01*
X67180000Y-97577889D01*
X67180000Y-97302111D01*
X67233801Y-97031636D01*
X67339335Y-96776853D01*
X67492551Y-96547549D01*
X67687549Y-96352551D01*
X67690603Y-96350511D01*
X67916851Y-96199336D01*
X68171635Y-96093801D01*
X68306874Y-96066900D01*
X68442111Y-96040000D01*
X68717889Y-96040000D01*
X68853126Y-96066900D01*
X68853126Y-96066900D01*
G37*
G36*
X63886318Y-93254411D02*
X63958767Y-93268822D01*
X64015303Y-93292240D01*
X64095257Y-93325358D01*
X64218100Y-93407439D01*
X64322561Y-93511900D01*
X64404642Y-93634743D01*
X64461178Y-93771234D01*
X64490000Y-93916130D01*
X64490000Y-94063870D01*
X64461178Y-94208766D01*
X64404642Y-94345257D01*
X64322561Y-94468100D01*
X64218100Y-94572561D01*
X64095257Y-94654642D01*
X64015303Y-94687760D01*
X63958767Y-94711178D01*
X63886318Y-94725589D01*
X63813870Y-94740000D01*
X63666130Y-94740000D01*
X63593682Y-94725589D01*
X63521233Y-94711178D01*
X63464697Y-94687760D01*
X63384743Y-94654642D01*
X63261900Y-94572561D01*
X63157439Y-94468100D01*
X63075358Y-94345257D01*
X63018822Y-94208766D01*
X62990000Y-94063870D01*
X62990000Y-93916130D01*
X63018822Y-93771234D01*
X63075358Y-93634743D01*
X63157439Y-93511900D01*
X63261900Y-93407439D01*
X63384743Y-93325358D01*
X63464697Y-93292240D01*
X63521233Y-93268822D01*
X63593682Y-93254411D01*
X63666130Y-93240000D01*
X63813870Y-93240000D01*
X63886318Y-93254411D01*
X63886318Y-93254411D01*
G37*
G36*
X66426318Y-92234411D02*
X66498767Y-92248822D01*
X66555303Y-92272240D01*
X66635257Y-92305358D01*
X66758100Y-92387439D01*
X66862561Y-92491900D01*
X66944642Y-92614743D01*
X67001178Y-92751234D01*
X67030000Y-92896130D01*
X67030000Y-93043870D01*
X67001178Y-93188766D01*
X66944642Y-93325257D01*
X66862561Y-93448100D01*
X66758100Y-93552561D01*
X66635257Y-93634642D01*
X66555303Y-93667760D01*
X66498767Y-93691178D01*
X66426318Y-93705589D01*
X66353870Y-93720000D01*
X66206130Y-93720000D01*
X66133682Y-93705589D01*
X66061233Y-93691178D01*
X66004697Y-93667760D01*
X65924743Y-93634642D01*
X65801900Y-93552561D01*
X65697439Y-93448100D01*
X65615358Y-93325257D01*
X65558822Y-93188766D01*
X65530000Y-93043870D01*
X65530000Y-92896130D01*
X65558822Y-92751234D01*
X65615358Y-92614743D01*
X65697439Y-92491900D01*
X65801900Y-92387439D01*
X65924743Y-92305358D01*
X66004697Y-92272240D01*
X66061233Y-92248822D01*
X66133682Y-92234411D01*
X66206130Y-92220000D01*
X66353870Y-92220000D01*
X66426318Y-92234411D01*
X66426318Y-92234411D01*
G37*
G36*
X63886318Y-91214411D02*
X63958767Y-91228822D01*
X64015303Y-91252240D01*
X64095257Y-91285358D01*
X64218100Y-91367439D01*
X64322561Y-91471900D01*
X64404642Y-91594743D01*
X64461178Y-91731234D01*
X64490000Y-91876130D01*
X64490000Y-92023870D01*
X64461178Y-92168766D01*
X64404642Y-92305257D01*
X64322561Y-92428100D01*
X64218100Y-92532561D01*
X64095257Y-92614642D01*
X64015303Y-92647760D01*
X63958767Y-92671178D01*
X63886318Y-92685589D01*
X63813870Y-92700000D01*
X63666130Y-92700000D01*
X63593682Y-92685589D01*
X63521233Y-92671178D01*
X63464697Y-92647760D01*
X63384743Y-92614642D01*
X63261900Y-92532561D01*
X63157439Y-92428100D01*
X63075358Y-92305257D01*
X63018822Y-92168766D01*
X62990000Y-92023870D01*
X62990000Y-91876130D01*
X63018822Y-91731234D01*
X63075358Y-91594743D01*
X63157439Y-91471900D01*
X63261900Y-91367439D01*
X63384743Y-91285358D01*
X63464697Y-91252240D01*
X63521233Y-91228822D01*
X63593682Y-91214411D01*
X63666130Y-91200000D01*
X63813870Y-91200000D01*
X63886318Y-91214411D01*
X63886318Y-91214411D01*
G37*
G36*
X66426318Y-90194411D02*
X66498767Y-90208822D01*
X66555303Y-90232240D01*
X66635257Y-90265358D01*
X66758100Y-90347439D01*
X66862561Y-90451900D01*
X66944642Y-90574743D01*
X67001178Y-90711234D01*
X67030000Y-90856130D01*
X67030000Y-91003870D01*
X67001178Y-91148766D01*
X66944642Y-91285257D01*
X66862561Y-91408100D01*
X66758100Y-91512561D01*
X66635257Y-91594642D01*
X66555303Y-91627760D01*
X66498767Y-91651178D01*
X66426318Y-91665589D01*
X66353870Y-91680000D01*
X66206130Y-91680000D01*
X66133682Y-91665589D01*
X66061233Y-91651178D01*
X66004697Y-91627760D01*
X65924743Y-91594642D01*
X65801900Y-91512561D01*
X65697439Y-91408100D01*
X65615358Y-91285257D01*
X65558822Y-91148766D01*
X65530000Y-91003870D01*
X65530000Y-90856130D01*
X65558822Y-90711234D01*
X65615358Y-90574743D01*
X65697439Y-90451900D01*
X65801900Y-90347439D01*
X65924743Y-90265358D01*
X66004697Y-90232240D01*
X66061233Y-90208822D01*
X66133682Y-90194411D01*
X66206130Y-90180000D01*
X66353870Y-90180000D01*
X66426318Y-90194411D01*
X66426318Y-90194411D01*
G37*
G36*
X63886318Y-89174411D02*
X63958767Y-89188822D01*
X64015303Y-89212240D01*
X64095257Y-89245358D01*
X64218100Y-89327439D01*
X64322561Y-89431900D01*
X64404642Y-89554743D01*
X64461178Y-89691234D01*
X64490000Y-89836130D01*
X64490000Y-89983870D01*
X64461178Y-90128766D01*
X64404642Y-90265257D01*
X64322561Y-90388100D01*
X64218100Y-90492561D01*
X64095257Y-90574642D01*
X64015303Y-90607760D01*
X63958767Y-90631178D01*
X63886318Y-90645589D01*
X63813870Y-90660000D01*
X63666130Y-90660000D01*
X63593682Y-90645589D01*
X63521233Y-90631178D01*
X63464697Y-90607760D01*
X63384743Y-90574642D01*
X63261900Y-90492561D01*
X63157439Y-90388100D01*
X63075358Y-90265257D01*
X63018822Y-90128766D01*
X62990000Y-89983870D01*
X62990000Y-89836130D01*
X63018822Y-89691234D01*
X63075358Y-89554743D01*
X63157439Y-89431900D01*
X63261900Y-89327439D01*
X63384743Y-89245358D01*
X63464697Y-89212240D01*
X63521233Y-89188822D01*
X63593682Y-89174411D01*
X63666130Y-89160000D01*
X63813870Y-89160000D01*
X63886318Y-89174411D01*
X63886318Y-89174411D01*
G37*
G36*
X66426318Y-88154411D02*
X66498767Y-88168822D01*
X66555303Y-88192240D01*
X66635257Y-88225358D01*
X66758100Y-88307439D01*
X66862561Y-88411900D01*
X66944642Y-88534743D01*
X67001178Y-88671234D01*
X67030000Y-88816130D01*
X67030000Y-88963870D01*
X67001178Y-89108766D01*
X66944642Y-89245257D01*
X66862561Y-89368100D01*
X66758100Y-89472561D01*
X66635257Y-89554642D01*
X66555303Y-89587760D01*
X66498767Y-89611178D01*
X66426318Y-89625589D01*
X66353870Y-89640000D01*
X66206130Y-89640000D01*
X66133682Y-89625589D01*
X66061233Y-89611178D01*
X66004697Y-89587760D01*
X65924743Y-89554642D01*
X65801900Y-89472561D01*
X65697439Y-89368100D01*
X65615358Y-89245257D01*
X65558822Y-89108766D01*
X65530000Y-88963870D01*
X65530000Y-88816130D01*
X65558822Y-88671234D01*
X65615358Y-88534743D01*
X65697439Y-88411900D01*
X65801900Y-88307439D01*
X65924743Y-88225358D01*
X66004697Y-88192240D01*
X66061233Y-88168822D01*
X66133682Y-88154411D01*
X66206130Y-88140000D01*
X66353870Y-88140000D01*
X66426318Y-88154411D01*
X66426318Y-88154411D01*
G37*
G36*
X68853127Y-84066901D02*
X68988365Y-84093801D01*
X69243149Y-84199336D01*
X69322415Y-84252300D01*
X69472451Y-84352551D01*
X69667449Y-84547549D01*
X69667451Y-84547552D01*
X69820664Y-84776851D01*
X69926199Y-85031635D01*
X69980000Y-85302112D01*
X69980000Y-85577888D01*
X69926199Y-85848365D01*
X69851575Y-86028523D01*
X69820665Y-86103147D01*
X69667449Y-86332451D01*
X69472451Y-86527449D01*
X69472448Y-86527451D01*
X69243149Y-86680664D01*
X68988365Y-86786199D01*
X68853126Y-86813100D01*
X68717889Y-86840000D01*
X68442111Y-86840000D01*
X68306874Y-86813100D01*
X68171635Y-86786199D01*
X67916851Y-86680664D01*
X67687552Y-86527451D01*
X67687549Y-86527449D01*
X67492551Y-86332451D01*
X67339335Y-86103147D01*
X67308425Y-86028523D01*
X67233801Y-85848365D01*
X67180000Y-85577888D01*
X67180000Y-85302112D01*
X67233801Y-85031635D01*
X67339336Y-84776851D01*
X67492549Y-84547552D01*
X67492551Y-84547549D01*
X67687549Y-84352551D01*
X67837585Y-84252300D01*
X67916851Y-84199336D01*
X68171635Y-84093801D01*
X68306873Y-84066901D01*
X68442111Y-84040000D01*
X68717889Y-84040000D01*
X68853127Y-84066901D01*
X68853127Y-84066901D01*
G37*
G36*
X33186630Y-84252299D02*
X33346855Y-84300903D01*
X33494520Y-84379831D01*
X33623949Y-84486051D01*
X33730169Y-84615480D01*
X33809097Y-84763145D01*
X33857701Y-84923370D01*
X33874112Y-85090000D01*
X33857701Y-85256630D01*
X33809097Y-85416855D01*
X33730169Y-85564520D01*
X33623949Y-85693949D01*
X33494520Y-85800169D01*
X33346855Y-85879097D01*
X33186630Y-85927701D01*
X33061752Y-85940000D01*
X32978248Y-85940000D01*
X32853370Y-85927701D01*
X32693145Y-85879097D01*
X32545480Y-85800169D01*
X32416051Y-85693949D01*
X32309831Y-85564520D01*
X32230903Y-85416855D01*
X32182299Y-85256630D01*
X32165888Y-85090000D01*
X32182299Y-84923370D01*
X32230903Y-84763145D01*
X32309831Y-84615480D01*
X32416051Y-84486051D01*
X32545480Y-84379831D01*
X32693145Y-84300903D01*
X32853370Y-84252299D01*
X32978248Y-84240000D01*
X33061752Y-84240000D01*
X33186630Y-84252299D01*
X33186630Y-84252299D01*
G37*
G36*
X28790000Y-85940000D02*
X27090000Y-85940000D01*
X27090000Y-84240000D01*
X28790000Y-84240000D01*
X28790000Y-85940000D01*
X28790000Y-85940000D01*
G37*
G36*
X30646630Y-84252299D02*
X30806855Y-84300903D01*
X30954520Y-84379831D01*
X31083949Y-84486051D01*
X31190169Y-84615480D01*
X31269097Y-84763145D01*
X31317701Y-84923370D01*
X31334112Y-85090000D01*
X31317701Y-85256630D01*
X31269097Y-85416855D01*
X31190169Y-85564520D01*
X31083949Y-85693949D01*
X30954520Y-85800169D01*
X30806855Y-85879097D01*
X30646630Y-85927701D01*
X30521752Y-85940000D01*
X30438248Y-85940000D01*
X30313370Y-85927701D01*
X30153145Y-85879097D01*
X30005480Y-85800169D01*
X29876051Y-85693949D01*
X29769831Y-85564520D01*
X29690903Y-85416855D01*
X29642299Y-85256630D01*
X29625888Y-85090000D01*
X29642299Y-84923370D01*
X29690903Y-84763145D01*
X29769831Y-84615480D01*
X29876051Y-84486051D01*
X30005480Y-84379831D01*
X30153145Y-84300903D01*
X30313370Y-84252299D01*
X30438248Y-84240000D01*
X30521752Y-84240000D01*
X30646630Y-84252299D01*
X30646630Y-84252299D01*
G37*
G36*
X35726630Y-84252299D02*
X35886855Y-84300903D01*
X36034520Y-84379831D01*
X36163949Y-84486051D01*
X36270169Y-84615480D01*
X36349097Y-84763145D01*
X36397701Y-84923370D01*
X36414112Y-85090000D01*
X36397701Y-85256630D01*
X36349097Y-85416855D01*
X36270169Y-85564520D01*
X36163949Y-85693949D01*
X36034520Y-85800169D01*
X35886855Y-85879097D01*
X35726630Y-85927701D01*
X35601752Y-85940000D01*
X35518248Y-85940000D01*
X35393370Y-85927701D01*
X35233145Y-85879097D01*
X35085480Y-85800169D01*
X34956051Y-85693949D01*
X34849831Y-85564520D01*
X34770903Y-85416855D01*
X34722299Y-85256630D01*
X34705888Y-85090000D01*
X34722299Y-84923370D01*
X34770903Y-84763145D01*
X34849831Y-84615480D01*
X34956051Y-84486051D01*
X35085480Y-84379831D01*
X35233145Y-84300903D01*
X35393370Y-84252299D01*
X35518248Y-84240000D01*
X35601752Y-84240000D01*
X35726630Y-84252299D01*
X35726630Y-84252299D01*
G37*
G36*
X68853126Y-80826900D02*
X68988365Y-80853801D01*
X69243149Y-80959336D01*
X69469397Y-81110511D01*
X69472451Y-81112551D01*
X69667449Y-81307549D01*
X69820665Y-81536853D01*
X69926199Y-81791636D01*
X69980000Y-82062111D01*
X69980000Y-82337889D01*
X69926199Y-82608364D01*
X69820665Y-82863147D01*
X69667449Y-83092451D01*
X69472451Y-83287449D01*
X69472448Y-83287451D01*
X69243149Y-83440664D01*
X68988365Y-83546199D01*
X68853126Y-83573100D01*
X68717889Y-83600000D01*
X68442111Y-83600000D01*
X68306874Y-83573100D01*
X68171635Y-83546199D01*
X67916851Y-83440664D01*
X67687552Y-83287451D01*
X67687549Y-83287449D01*
X67492551Y-83092451D01*
X67339335Y-82863147D01*
X67233801Y-82608364D01*
X67180000Y-82337889D01*
X67180000Y-82062111D01*
X67233801Y-81791636D01*
X67339335Y-81536853D01*
X67492551Y-81307549D01*
X67687549Y-81112551D01*
X67690603Y-81110511D01*
X67916851Y-80959336D01*
X68171635Y-80853801D01*
X68306874Y-80826900D01*
X68442111Y-80800000D01*
X68717889Y-80800000D01*
X68853126Y-80826900D01*
X68853126Y-80826900D01*
G37*
G36*
X33186630Y-80442299D02*
X33346855Y-80490903D01*
X33494520Y-80569831D01*
X33623949Y-80676051D01*
X33730169Y-80805480D01*
X33809097Y-80953145D01*
X33857701Y-81113370D01*
X33874112Y-81280000D01*
X33857701Y-81446630D01*
X33809097Y-81606855D01*
X33730169Y-81754520D01*
X33623949Y-81883949D01*
X33494520Y-81990169D01*
X33346855Y-82069097D01*
X33186630Y-82117701D01*
X33061752Y-82130000D01*
X32978248Y-82130000D01*
X32853370Y-82117701D01*
X32693145Y-82069097D01*
X32545480Y-81990169D01*
X32416051Y-81883949D01*
X32309831Y-81754520D01*
X32230903Y-81606855D01*
X32182299Y-81446630D01*
X32165888Y-81280000D01*
X32182299Y-81113370D01*
X32230903Y-80953145D01*
X32309831Y-80805480D01*
X32416051Y-80676051D01*
X32545480Y-80569831D01*
X32693145Y-80490903D01*
X32853370Y-80442299D01*
X32978248Y-80430000D01*
X33061752Y-80430000D01*
X33186630Y-80442299D01*
X33186630Y-80442299D01*
G37*
G36*
X35726630Y-80442299D02*
X35886855Y-80490903D01*
X36034520Y-80569831D01*
X36163949Y-80676051D01*
X36270169Y-80805480D01*
X36349097Y-80953145D01*
X36397701Y-81113370D01*
X36414112Y-81280000D01*
X36397701Y-81446630D01*
X36349097Y-81606855D01*
X36270169Y-81754520D01*
X36163949Y-81883949D01*
X36034520Y-81990169D01*
X35886855Y-82069097D01*
X35726630Y-82117701D01*
X35601752Y-82130000D01*
X35518248Y-82130000D01*
X35393370Y-82117701D01*
X35233145Y-82069097D01*
X35085480Y-81990169D01*
X34956051Y-81883949D01*
X34849831Y-81754520D01*
X34770903Y-81606855D01*
X34722299Y-81446630D01*
X34705888Y-81280000D01*
X34722299Y-81113370D01*
X34770903Y-80953145D01*
X34849831Y-80805480D01*
X34956051Y-80676051D01*
X35085480Y-80569831D01*
X35233145Y-80490903D01*
X35393370Y-80442299D01*
X35518248Y-80430000D01*
X35601752Y-80430000D01*
X35726630Y-80442299D01*
X35726630Y-80442299D01*
G37*
G36*
X30646630Y-80442299D02*
X30806855Y-80490903D01*
X30954520Y-80569831D01*
X31083949Y-80676051D01*
X31190169Y-80805480D01*
X31269097Y-80953145D01*
X31317701Y-81113370D01*
X31334112Y-81280000D01*
X31317701Y-81446630D01*
X31269097Y-81606855D01*
X31190169Y-81754520D01*
X31083949Y-81883949D01*
X30954520Y-81990169D01*
X30806855Y-82069097D01*
X30646630Y-82117701D01*
X30521752Y-82130000D01*
X30438248Y-82130000D01*
X30313370Y-82117701D01*
X30153145Y-82069097D01*
X30005480Y-81990169D01*
X29876051Y-81883949D01*
X29769831Y-81754520D01*
X29690903Y-81606855D01*
X29642299Y-81446630D01*
X29625888Y-81280000D01*
X29642299Y-81113370D01*
X29690903Y-80953145D01*
X29769831Y-80805480D01*
X29876051Y-80676051D01*
X30005480Y-80569831D01*
X30153145Y-80490903D01*
X30313370Y-80442299D01*
X30438248Y-80430000D01*
X30521752Y-80430000D01*
X30646630Y-80442299D01*
X30646630Y-80442299D01*
G37*
G36*
X28790000Y-82130000D02*
X27090000Y-82130000D01*
X27090000Y-80430000D01*
X28790000Y-80430000D01*
X28790000Y-82130000D01*
X28790000Y-82130000D01*
G37*
G36*
X63886318Y-78014411D02*
X63958767Y-78028822D01*
X64015303Y-78052240D01*
X64095257Y-78085358D01*
X64218100Y-78167439D01*
X64322561Y-78271900D01*
X64404642Y-78394743D01*
X64461178Y-78531234D01*
X64490000Y-78676130D01*
X64490000Y-78823870D01*
X64461178Y-78968766D01*
X64404642Y-79105257D01*
X64322561Y-79228100D01*
X64218100Y-79332561D01*
X64095257Y-79414642D01*
X64015303Y-79447760D01*
X63958767Y-79471178D01*
X63886318Y-79485589D01*
X63813870Y-79500000D01*
X63666130Y-79500000D01*
X63593682Y-79485589D01*
X63521233Y-79471178D01*
X63464697Y-79447760D01*
X63384743Y-79414642D01*
X63261900Y-79332561D01*
X63157439Y-79228100D01*
X63075358Y-79105257D01*
X63018822Y-78968766D01*
X62990000Y-78823870D01*
X62990000Y-78676130D01*
X63018822Y-78531234D01*
X63075358Y-78394743D01*
X63157439Y-78271900D01*
X63261900Y-78167439D01*
X63384743Y-78085358D01*
X63464697Y-78052240D01*
X63521233Y-78028822D01*
X63593682Y-78014411D01*
X63666130Y-78000000D01*
X63813870Y-78000000D01*
X63886318Y-78014411D01*
X63886318Y-78014411D01*
G37*
G36*
X66426318Y-76994411D02*
X66498767Y-77008822D01*
X66555303Y-77032240D01*
X66635257Y-77065358D01*
X66758100Y-77147439D01*
X66862561Y-77251900D01*
X66944642Y-77374743D01*
X67001178Y-77511234D01*
X67030000Y-77656130D01*
X67030000Y-77803870D01*
X67001178Y-77948766D01*
X66944642Y-78085257D01*
X66862561Y-78208100D01*
X66758100Y-78312561D01*
X66635257Y-78394642D01*
X66555303Y-78427760D01*
X66498767Y-78451178D01*
X66426318Y-78465589D01*
X66353870Y-78480000D01*
X66206130Y-78480000D01*
X66133682Y-78465589D01*
X66061233Y-78451178D01*
X66004697Y-78427760D01*
X65924743Y-78394642D01*
X65801900Y-78312561D01*
X65697439Y-78208100D01*
X65615358Y-78085257D01*
X65558822Y-77948766D01*
X65530000Y-77803870D01*
X65530000Y-77656130D01*
X65558822Y-77511234D01*
X65615358Y-77374743D01*
X65697439Y-77251900D01*
X65801900Y-77147439D01*
X65924743Y-77065358D01*
X66004697Y-77032240D01*
X66061233Y-77008822D01*
X66133682Y-76994411D01*
X66206130Y-76980000D01*
X66353870Y-76980000D01*
X66426318Y-76994411D01*
X66426318Y-76994411D01*
G37*
G36*
X63886318Y-75974411D02*
X63958767Y-75988822D01*
X64015303Y-76012240D01*
X64095257Y-76045358D01*
X64218100Y-76127439D01*
X64322561Y-76231900D01*
X64404642Y-76354743D01*
X64461178Y-76491234D01*
X64490000Y-76636130D01*
X64490000Y-76783870D01*
X64461178Y-76928766D01*
X64404642Y-77065257D01*
X64322561Y-77188100D01*
X64218100Y-77292561D01*
X64095257Y-77374642D01*
X64015303Y-77407760D01*
X63958767Y-77431178D01*
X63886318Y-77445589D01*
X63813870Y-77460000D01*
X63666130Y-77460000D01*
X63593682Y-77445589D01*
X63521233Y-77431178D01*
X63464697Y-77407760D01*
X63384743Y-77374642D01*
X63261900Y-77292561D01*
X63157439Y-77188100D01*
X63075358Y-77065257D01*
X63018822Y-76928766D01*
X62990000Y-76783870D01*
X62990000Y-76636130D01*
X63018822Y-76491234D01*
X63075358Y-76354743D01*
X63157439Y-76231900D01*
X63261900Y-76127439D01*
X63384743Y-76045358D01*
X63464697Y-76012240D01*
X63521233Y-75988822D01*
X63593682Y-75974411D01*
X63666130Y-75960000D01*
X63813870Y-75960000D01*
X63886318Y-75974411D01*
X63886318Y-75974411D01*
G37*
G36*
X66426318Y-74954411D02*
X66498767Y-74968822D01*
X66555303Y-74992240D01*
X66635257Y-75025358D01*
X66758100Y-75107439D01*
X66862561Y-75211900D01*
X66944642Y-75334743D01*
X67001178Y-75471234D01*
X67030000Y-75616130D01*
X67030000Y-75763870D01*
X67001178Y-75908766D01*
X66944642Y-76045257D01*
X66862561Y-76168100D01*
X66758100Y-76272561D01*
X66635257Y-76354642D01*
X66555303Y-76387760D01*
X66498767Y-76411178D01*
X66426318Y-76425589D01*
X66353870Y-76440000D01*
X66206130Y-76440000D01*
X66133682Y-76425589D01*
X66061233Y-76411178D01*
X66004697Y-76387760D01*
X65924743Y-76354642D01*
X65801900Y-76272561D01*
X65697439Y-76168100D01*
X65615358Y-76045257D01*
X65558822Y-75908766D01*
X65530000Y-75763870D01*
X65530000Y-75616130D01*
X65558822Y-75471234D01*
X65615358Y-75334743D01*
X65697439Y-75211900D01*
X65801900Y-75107439D01*
X65924743Y-75025358D01*
X66004697Y-74992240D01*
X66061233Y-74968822D01*
X66133682Y-74954411D01*
X66206130Y-74940000D01*
X66353870Y-74940000D01*
X66426318Y-74954411D01*
X66426318Y-74954411D01*
G37*
G36*
X63886318Y-73934411D02*
X63958767Y-73948822D01*
X64015303Y-73972240D01*
X64095257Y-74005358D01*
X64218100Y-74087439D01*
X64322561Y-74191900D01*
X64404642Y-74314743D01*
X64461178Y-74451234D01*
X64490000Y-74596130D01*
X64490000Y-74743870D01*
X64461178Y-74888766D01*
X64404642Y-75025257D01*
X64322561Y-75148100D01*
X64218100Y-75252561D01*
X64095257Y-75334642D01*
X64015303Y-75367760D01*
X63958767Y-75391178D01*
X63886318Y-75405589D01*
X63813870Y-75420000D01*
X63666130Y-75420000D01*
X63593682Y-75405589D01*
X63521233Y-75391178D01*
X63464697Y-75367760D01*
X63384743Y-75334642D01*
X63261900Y-75252561D01*
X63157439Y-75148100D01*
X63075358Y-75025257D01*
X63018822Y-74888766D01*
X62990000Y-74743870D01*
X62990000Y-74596130D01*
X63018822Y-74451234D01*
X63075358Y-74314743D01*
X63157439Y-74191900D01*
X63261900Y-74087439D01*
X63384743Y-74005358D01*
X63464697Y-73972240D01*
X63521233Y-73948822D01*
X63593682Y-73934411D01*
X63666130Y-73920000D01*
X63813870Y-73920000D01*
X63886318Y-73934411D01*
X63886318Y-73934411D01*
G37*
G36*
X38266630Y-72822299D02*
X38426855Y-72870903D01*
X38574520Y-72949831D01*
X38703949Y-73056051D01*
X38810169Y-73185480D01*
X38889097Y-73333145D01*
X38937701Y-73493370D01*
X38954112Y-73660000D01*
X38937701Y-73826630D01*
X38889097Y-73986855D01*
X38810169Y-74134520D01*
X38703949Y-74263949D01*
X38574520Y-74370169D01*
X38426855Y-74449097D01*
X38266630Y-74497701D01*
X38141752Y-74510000D01*
X38058248Y-74510000D01*
X37933370Y-74497701D01*
X37773145Y-74449097D01*
X37625480Y-74370169D01*
X37496051Y-74263949D01*
X37389831Y-74134520D01*
X37310903Y-73986855D01*
X37262299Y-73826630D01*
X37245888Y-73660000D01*
X37262299Y-73493370D01*
X37310903Y-73333145D01*
X37389831Y-73185480D01*
X37496051Y-73056051D01*
X37625480Y-72949831D01*
X37773145Y-72870903D01*
X37933370Y-72822299D01*
X38058248Y-72810000D01*
X38141752Y-72810000D01*
X38266630Y-72822299D01*
X38266630Y-72822299D01*
G37*
G36*
X28106630Y-72822299D02*
X28266855Y-72870903D01*
X28414520Y-72949831D01*
X28543949Y-73056051D01*
X28650169Y-73185480D01*
X28729097Y-73333145D01*
X28777701Y-73493370D01*
X28794112Y-73660000D01*
X28777701Y-73826630D01*
X28729097Y-73986855D01*
X28650169Y-74134520D01*
X28543949Y-74263949D01*
X28414520Y-74370169D01*
X28266855Y-74449097D01*
X28106630Y-74497701D01*
X27981752Y-74510000D01*
X27898248Y-74510000D01*
X27773370Y-74497701D01*
X27613145Y-74449097D01*
X27465480Y-74370169D01*
X27336051Y-74263949D01*
X27229831Y-74134520D01*
X27150903Y-73986855D01*
X27102299Y-73826630D01*
X27085888Y-73660000D01*
X27102299Y-73493370D01*
X27150903Y-73333145D01*
X27229831Y-73185480D01*
X27336051Y-73056051D01*
X27465480Y-72949831D01*
X27613145Y-72870903D01*
X27773370Y-72822299D01*
X27898248Y-72810000D01*
X27981752Y-72810000D01*
X28106630Y-72822299D01*
X28106630Y-72822299D01*
G37*
G36*
X30646630Y-72822299D02*
X30806855Y-72870903D01*
X30954520Y-72949831D01*
X31083949Y-73056051D01*
X31190169Y-73185480D01*
X31269097Y-73333145D01*
X31317701Y-73493370D01*
X31334112Y-73660000D01*
X31317701Y-73826630D01*
X31269097Y-73986855D01*
X31190169Y-74134520D01*
X31083949Y-74263949D01*
X30954520Y-74370169D01*
X30806855Y-74449097D01*
X30646630Y-74497701D01*
X30521752Y-74510000D01*
X30438248Y-74510000D01*
X30313370Y-74497701D01*
X30153145Y-74449097D01*
X30005480Y-74370169D01*
X29876051Y-74263949D01*
X29769831Y-74134520D01*
X29690903Y-73986855D01*
X29642299Y-73826630D01*
X29625888Y-73660000D01*
X29642299Y-73493370D01*
X29690903Y-73333145D01*
X29769831Y-73185480D01*
X29876051Y-73056051D01*
X30005480Y-72949831D01*
X30153145Y-72870903D01*
X30313370Y-72822299D01*
X30438248Y-72810000D01*
X30521752Y-72810000D01*
X30646630Y-72822299D01*
X30646630Y-72822299D01*
G37*
G36*
X33186630Y-72822299D02*
X33346855Y-72870903D01*
X33494520Y-72949831D01*
X33623949Y-73056051D01*
X33730169Y-73185480D01*
X33809097Y-73333145D01*
X33857701Y-73493370D01*
X33874112Y-73660000D01*
X33857701Y-73826630D01*
X33809097Y-73986855D01*
X33730169Y-74134520D01*
X33623949Y-74263949D01*
X33494520Y-74370169D01*
X33346855Y-74449097D01*
X33186630Y-74497701D01*
X33061752Y-74510000D01*
X32978248Y-74510000D01*
X32853370Y-74497701D01*
X32693145Y-74449097D01*
X32545480Y-74370169D01*
X32416051Y-74263949D01*
X32309831Y-74134520D01*
X32230903Y-73986855D01*
X32182299Y-73826630D01*
X32165888Y-73660000D01*
X32182299Y-73493370D01*
X32230903Y-73333145D01*
X32309831Y-73185480D01*
X32416051Y-73056051D01*
X32545480Y-72949831D01*
X32693145Y-72870903D01*
X32853370Y-72822299D01*
X32978248Y-72810000D01*
X33061752Y-72810000D01*
X33186630Y-72822299D01*
X33186630Y-72822299D01*
G37*
G36*
X35726630Y-72822299D02*
X35886855Y-72870903D01*
X36034520Y-72949831D01*
X36163949Y-73056051D01*
X36270169Y-73185480D01*
X36349097Y-73333145D01*
X36397701Y-73493370D01*
X36414112Y-73660000D01*
X36397701Y-73826630D01*
X36349097Y-73986855D01*
X36270169Y-74134520D01*
X36163949Y-74263949D01*
X36034520Y-74370169D01*
X35886855Y-74449097D01*
X35726630Y-74497701D01*
X35601752Y-74510000D01*
X35518248Y-74510000D01*
X35393370Y-74497701D01*
X35233145Y-74449097D01*
X35085480Y-74370169D01*
X34956051Y-74263949D01*
X34849831Y-74134520D01*
X34770903Y-73986855D01*
X34722299Y-73826630D01*
X34705888Y-73660000D01*
X34722299Y-73493370D01*
X34770903Y-73333145D01*
X34849831Y-73185480D01*
X34956051Y-73056051D01*
X35085480Y-72949831D01*
X35233145Y-72870903D01*
X35393370Y-72822299D01*
X35518248Y-72810000D01*
X35601752Y-72810000D01*
X35726630Y-72822299D01*
X35726630Y-72822299D01*
G37*
G36*
X40806630Y-72822299D02*
X40966855Y-72870903D01*
X41114520Y-72949831D01*
X41243949Y-73056051D01*
X41350169Y-73185480D01*
X41429097Y-73333145D01*
X41477701Y-73493370D01*
X41494112Y-73660000D01*
X41477701Y-73826630D01*
X41429097Y-73986855D01*
X41350169Y-74134520D01*
X41243949Y-74263949D01*
X41114520Y-74370169D01*
X40966855Y-74449097D01*
X40806630Y-74497701D01*
X40681752Y-74510000D01*
X40598248Y-74510000D01*
X40473370Y-74497701D01*
X40313145Y-74449097D01*
X40165480Y-74370169D01*
X40036051Y-74263949D01*
X39929831Y-74134520D01*
X39850903Y-73986855D01*
X39802299Y-73826630D01*
X39785888Y-73660000D01*
X39802299Y-73493370D01*
X39850903Y-73333145D01*
X39929831Y-73185480D01*
X40036051Y-73056051D01*
X40165480Y-72949831D01*
X40313145Y-72870903D01*
X40473370Y-72822299D01*
X40598248Y-72810000D01*
X40681752Y-72810000D01*
X40806630Y-72822299D01*
X40806630Y-72822299D01*
G37*
G36*
X66426318Y-72914411D02*
X66498767Y-72928822D01*
X66549487Y-72949831D01*
X66635257Y-72985358D01*
X66758100Y-73067439D01*
X66862561Y-73171900D01*
X66944642Y-73294743D01*
X66977760Y-73374697D01*
X67001178Y-73431233D01*
X67030000Y-73576131D01*
X67030000Y-73723869D01*
X67009560Y-73826630D01*
X67001178Y-73868766D01*
X66944642Y-74005257D01*
X66862561Y-74128100D01*
X66758100Y-74232561D01*
X66635257Y-74314642D01*
X66555303Y-74347760D01*
X66498767Y-74371178D01*
X66426318Y-74385589D01*
X66353870Y-74400000D01*
X66206130Y-74400000D01*
X66133682Y-74385589D01*
X66061233Y-74371178D01*
X66004697Y-74347760D01*
X65924743Y-74314642D01*
X65801900Y-74232561D01*
X65697439Y-74128100D01*
X65615358Y-74005257D01*
X65558822Y-73868766D01*
X65550441Y-73826630D01*
X65530000Y-73723869D01*
X65530000Y-73576131D01*
X65558822Y-73431233D01*
X65582240Y-73374697D01*
X65615358Y-73294743D01*
X65697439Y-73171900D01*
X65801900Y-73067439D01*
X65924743Y-72985358D01*
X66010513Y-72949831D01*
X66061233Y-72928822D01*
X66133682Y-72914411D01*
X66206130Y-72900000D01*
X66353870Y-72900000D01*
X66426318Y-72914411D01*
X66426318Y-72914411D01*
G37*
G36*
X35726630Y-70282299D02*
X35886855Y-70330903D01*
X36034520Y-70409831D01*
X36163949Y-70516051D01*
X36270169Y-70645480D01*
X36349097Y-70793145D01*
X36397701Y-70953370D01*
X36414112Y-71120000D01*
X36397701Y-71286630D01*
X36349097Y-71446855D01*
X36270169Y-71594520D01*
X36163949Y-71723949D01*
X36034520Y-71830169D01*
X35886855Y-71909097D01*
X35726630Y-71957701D01*
X35601752Y-71970000D01*
X35518248Y-71970000D01*
X35393370Y-71957701D01*
X35233145Y-71909097D01*
X35085480Y-71830169D01*
X34956051Y-71723949D01*
X34849831Y-71594520D01*
X34770903Y-71446855D01*
X34722299Y-71286630D01*
X34705888Y-71120000D01*
X34722299Y-70953370D01*
X34770903Y-70793145D01*
X34849831Y-70645480D01*
X34956051Y-70516051D01*
X35085480Y-70409831D01*
X35233145Y-70330903D01*
X35393370Y-70282299D01*
X35518248Y-70270000D01*
X35601752Y-70270000D01*
X35726630Y-70282299D01*
X35726630Y-70282299D01*
G37*
G36*
X38266630Y-70282299D02*
X38426855Y-70330903D01*
X38574520Y-70409831D01*
X38703949Y-70516051D01*
X38810169Y-70645480D01*
X38889097Y-70793145D01*
X38937701Y-70953370D01*
X38954112Y-71120000D01*
X38937701Y-71286630D01*
X38889097Y-71446855D01*
X38810169Y-71594520D01*
X38703949Y-71723949D01*
X38574520Y-71830169D01*
X38426855Y-71909097D01*
X38266630Y-71957701D01*
X38141752Y-71970000D01*
X38058248Y-71970000D01*
X37933370Y-71957701D01*
X37773145Y-71909097D01*
X37625480Y-71830169D01*
X37496051Y-71723949D01*
X37389831Y-71594520D01*
X37310903Y-71446855D01*
X37262299Y-71286630D01*
X37245888Y-71120000D01*
X37262299Y-70953370D01*
X37310903Y-70793145D01*
X37389831Y-70645480D01*
X37496051Y-70516051D01*
X37625480Y-70409831D01*
X37773145Y-70330903D01*
X37933370Y-70282299D01*
X38058248Y-70270000D01*
X38141752Y-70270000D01*
X38266630Y-70282299D01*
X38266630Y-70282299D01*
G37*
G36*
X33186630Y-70282299D02*
X33346855Y-70330903D01*
X33494520Y-70409831D01*
X33623949Y-70516051D01*
X33730169Y-70645480D01*
X33809097Y-70793145D01*
X33857701Y-70953370D01*
X33874112Y-71120000D01*
X33857701Y-71286630D01*
X33809097Y-71446855D01*
X33730169Y-71594520D01*
X33623949Y-71723949D01*
X33494520Y-71830169D01*
X33346855Y-71909097D01*
X33186630Y-71957701D01*
X33061752Y-71970000D01*
X32978248Y-71970000D01*
X32853370Y-71957701D01*
X32693145Y-71909097D01*
X32545480Y-71830169D01*
X32416051Y-71723949D01*
X32309831Y-71594520D01*
X32230903Y-71446855D01*
X32182299Y-71286630D01*
X32165888Y-71120000D01*
X32182299Y-70953370D01*
X32230903Y-70793145D01*
X32309831Y-70645480D01*
X32416051Y-70516051D01*
X32545480Y-70409831D01*
X32693145Y-70330903D01*
X32853370Y-70282299D01*
X32978248Y-70270000D01*
X33061752Y-70270000D01*
X33186630Y-70282299D01*
X33186630Y-70282299D01*
G37*
G36*
X28790000Y-71970000D02*
X27090000Y-71970000D01*
X27090000Y-70270000D01*
X28790000Y-70270000D01*
X28790000Y-71970000D01*
X28790000Y-71970000D01*
G37*
G36*
X40806630Y-70282299D02*
X40966855Y-70330903D01*
X41114520Y-70409831D01*
X41243949Y-70516051D01*
X41350169Y-70645480D01*
X41429097Y-70793145D01*
X41477701Y-70953370D01*
X41494112Y-71120000D01*
X41477701Y-71286630D01*
X41429097Y-71446855D01*
X41350169Y-71594520D01*
X41243949Y-71723949D01*
X41114520Y-71830169D01*
X40966855Y-71909097D01*
X40806630Y-71957701D01*
X40681752Y-71970000D01*
X40598248Y-71970000D01*
X40473370Y-71957701D01*
X40313145Y-71909097D01*
X40165480Y-71830169D01*
X40036051Y-71723949D01*
X39929831Y-71594520D01*
X39850903Y-71446855D01*
X39802299Y-71286630D01*
X39785888Y-71120000D01*
X39802299Y-70953370D01*
X39850903Y-70793145D01*
X39929831Y-70645480D01*
X40036051Y-70516051D01*
X40165480Y-70409831D01*
X40313145Y-70330903D01*
X40473370Y-70282299D01*
X40598248Y-70270000D01*
X40681752Y-70270000D01*
X40806630Y-70282299D01*
X40806630Y-70282299D01*
G37*
G36*
X30646630Y-70282299D02*
X30806855Y-70330903D01*
X30954520Y-70409831D01*
X31083949Y-70516051D01*
X31190169Y-70645480D01*
X31269097Y-70793145D01*
X31317701Y-70953370D01*
X31334112Y-71120000D01*
X31317701Y-71286630D01*
X31269097Y-71446855D01*
X31190169Y-71594520D01*
X31083949Y-71723949D01*
X30954520Y-71830169D01*
X30806855Y-71909097D01*
X30646630Y-71957701D01*
X30521752Y-71970000D01*
X30438248Y-71970000D01*
X30313370Y-71957701D01*
X30153145Y-71909097D01*
X30005480Y-71830169D01*
X29876051Y-71723949D01*
X29769831Y-71594520D01*
X29690903Y-71446855D01*
X29642299Y-71286630D01*
X29625888Y-71120000D01*
X29642299Y-70953370D01*
X29690903Y-70793145D01*
X29769831Y-70645480D01*
X29876051Y-70516051D01*
X30005480Y-70409831D01*
X30153145Y-70330903D01*
X30313370Y-70282299D01*
X30438248Y-70270000D01*
X30521752Y-70270000D01*
X30646630Y-70282299D01*
X30646630Y-70282299D01*
G37*
G36*
X68853126Y-68826900D02*
X68988365Y-68853801D01*
X69243149Y-68959336D01*
X69469397Y-69110511D01*
X69472451Y-69112551D01*
X69667449Y-69307549D01*
X69820665Y-69536853D01*
X69926199Y-69791636D01*
X69980000Y-70062111D01*
X69980000Y-70337889D01*
X69926199Y-70608364D01*
X69820665Y-70863147D01*
X69667449Y-71092451D01*
X69472451Y-71287449D01*
X69472448Y-71287451D01*
X69243149Y-71440664D01*
X68988365Y-71546199D01*
X68853127Y-71573099D01*
X68717889Y-71600000D01*
X68442111Y-71600000D01*
X68306873Y-71573099D01*
X68171635Y-71546199D01*
X67916851Y-71440664D01*
X67687552Y-71287451D01*
X67687549Y-71287449D01*
X67492551Y-71092451D01*
X67339335Y-70863147D01*
X67233801Y-70608364D01*
X67180000Y-70337889D01*
X67180000Y-70062111D01*
X67233801Y-69791636D01*
X67339335Y-69536853D01*
X67492551Y-69307549D01*
X67687549Y-69112551D01*
X67690603Y-69110511D01*
X67916851Y-68959336D01*
X68171635Y-68853801D01*
X68306874Y-68826900D01*
X68442111Y-68800000D01*
X68717889Y-68800000D01*
X68853126Y-68826900D01*
X68853126Y-68826900D01*
G37*
G36*
X64985000Y-68795000D02*
X63285000Y-68795000D01*
X63285000Y-67095000D01*
X64985000Y-67095000D01*
X64985000Y-68795000D01*
X64985000Y-68795000D01*
G37*
G36*
X61761630Y-67107299D02*
X61921855Y-67155903D01*
X62069520Y-67234831D01*
X62198949Y-67341051D01*
X62305169Y-67470480D01*
X62384097Y-67618145D01*
X62432701Y-67778370D01*
X62449112Y-67945000D01*
X62432701Y-68111630D01*
X62384097Y-68271855D01*
X62305169Y-68419520D01*
X62198949Y-68548949D01*
X62069520Y-68655169D01*
X61921855Y-68734097D01*
X61761630Y-68782701D01*
X61636752Y-68795000D01*
X61553248Y-68795000D01*
X61428370Y-68782701D01*
X61268145Y-68734097D01*
X61120480Y-68655169D01*
X60991051Y-68548949D01*
X60884831Y-68419520D01*
X60805903Y-68271855D01*
X60757299Y-68111630D01*
X60740888Y-67945000D01*
X60757299Y-67778370D01*
X60805903Y-67618145D01*
X60884831Y-67470480D01*
X60991051Y-67341051D01*
X61120480Y-67234831D01*
X61268145Y-67155903D01*
X61428370Y-67107299D01*
X61553248Y-67095000D01*
X61636752Y-67095000D01*
X61761630Y-67107299D01*
X61761630Y-67107299D01*
G37*
G36*
X70825935Y-62673429D02*
X70922534Y-62692644D01*
X71195517Y-62805717D01*
X71337342Y-62900482D01*
X71441197Y-62969876D01*
X71650124Y-63178803D01*
X71650126Y-63178806D01*
X71814283Y-63424483D01*
X71914633Y-63666749D01*
X71927356Y-63697467D01*
X71985000Y-63987261D01*
X71985000Y-64282739D01*
X71961322Y-64401777D01*
X71927356Y-64572534D01*
X71814283Y-64845517D01*
X71729301Y-64972701D01*
X71650124Y-65091197D01*
X71441197Y-65300124D01*
X71441194Y-65300126D01*
X71195517Y-65464283D01*
X70922534Y-65577356D01*
X70825935Y-65596571D01*
X70632739Y-65635000D01*
X70337261Y-65635000D01*
X70144065Y-65596571D01*
X70047466Y-65577356D01*
X69774483Y-65464283D01*
X69528806Y-65300126D01*
X69528803Y-65300124D01*
X69319876Y-65091197D01*
X69240699Y-64972701D01*
X69155717Y-64845517D01*
X69042644Y-64572534D01*
X69008678Y-64401777D01*
X68985000Y-64282739D01*
X68985000Y-63987261D01*
X69042644Y-63697467D01*
X69055368Y-63666749D01*
X69155717Y-63424483D01*
X69319874Y-63178806D01*
X69319876Y-63178803D01*
X69528803Y-62969876D01*
X69632658Y-62900482D01*
X69774483Y-62805717D01*
X70047466Y-62692644D01*
X70144065Y-62673429D01*
X70337261Y-62635000D01*
X70632739Y-62635000D01*
X70825935Y-62673429D01*
X70825935Y-62673429D01*
G37*
G36*
X61761630Y-63297299D02*
X61921855Y-63345903D01*
X62069520Y-63424831D01*
X62198949Y-63531051D01*
X62305169Y-63660480D01*
X62384097Y-63808145D01*
X62432701Y-63968370D01*
X62449112Y-64135000D01*
X62432701Y-64301630D01*
X62384097Y-64461855D01*
X62305169Y-64609520D01*
X62198949Y-64738949D01*
X62069520Y-64845169D01*
X61921855Y-64924097D01*
X61761630Y-64972701D01*
X61636752Y-64985000D01*
X61553248Y-64985000D01*
X61428370Y-64972701D01*
X61268145Y-64924097D01*
X61120480Y-64845169D01*
X60991051Y-64738949D01*
X60884831Y-64609520D01*
X60805903Y-64461855D01*
X60757299Y-64301630D01*
X60740888Y-64135000D01*
X60757299Y-63968370D01*
X60805903Y-63808145D01*
X60884831Y-63660480D01*
X60991051Y-63531051D01*
X61120480Y-63424831D01*
X61268145Y-63345903D01*
X61428370Y-63297299D01*
X61553248Y-63285000D01*
X61636752Y-63285000D01*
X61761630Y-63297299D01*
X61761630Y-63297299D01*
G37*
G36*
X64985000Y-64985000D02*
X63285000Y-64985000D01*
X63285000Y-63285000D01*
X64985000Y-63285000D01*
X64985000Y-64985000D01*
X64985000Y-64985000D01*
G37*
G36*
X39376629Y-62537299D02*
X39491363Y-62572104D01*
X39536854Y-62585903D01*
X39610172Y-62625093D01*
X39684524Y-62664834D01*
X39813949Y-62771051D01*
X39920169Y-62900480D01*
X39999097Y-63048145D01*
X40047701Y-63208370D01*
X40060000Y-63333248D01*
X40060000Y-63666751D01*
X40047701Y-63791624D01*
X40047700Y-63791627D01*
X40047700Y-63791628D01*
X39999097Y-63951855D01*
X39980172Y-63987261D01*
X39920169Y-64099520D01*
X39813949Y-64228949D01*
X39684520Y-64335169D01*
X39536855Y-64414097D01*
X39376630Y-64462701D01*
X39210000Y-64479112D01*
X39043371Y-64462701D01*
X38883146Y-64414097D01*
X38735484Y-64335170D01*
X38606048Y-64228946D01*
X38499831Y-64099520D01*
X38420903Y-63951855D01*
X38372299Y-63791630D01*
X38360000Y-63666752D01*
X38360000Y-63333249D01*
X38372299Y-63208371D01*
X38407104Y-63093637D01*
X38420903Y-63048146D01*
X38466747Y-62962378D01*
X38499834Y-62900476D01*
X38606051Y-62771051D01*
X38735480Y-62664831D01*
X38883145Y-62585903D01*
X39043370Y-62537299D01*
X39210000Y-62520888D01*
X39376629Y-62537299D01*
X39376629Y-62537299D01*
G37*
G36*
X34376629Y-62537299D02*
X34491363Y-62572104D01*
X34536854Y-62585903D01*
X34610172Y-62625093D01*
X34684524Y-62664834D01*
X34813949Y-62771051D01*
X34920169Y-62900480D01*
X34999097Y-63048145D01*
X35047701Y-63208370D01*
X35060000Y-63333248D01*
X35060000Y-63666751D01*
X35047701Y-63791624D01*
X35047700Y-63791627D01*
X35047700Y-63791628D01*
X34999097Y-63951855D01*
X34980172Y-63987261D01*
X34920169Y-64099520D01*
X34813949Y-64228949D01*
X34684520Y-64335169D01*
X34536855Y-64414097D01*
X34376630Y-64462701D01*
X34210000Y-64479112D01*
X34043371Y-64462701D01*
X33883146Y-64414097D01*
X33735484Y-64335170D01*
X33606048Y-64228946D01*
X33499831Y-64099520D01*
X33420903Y-63951855D01*
X33372299Y-63791630D01*
X33360000Y-63666752D01*
X33360000Y-63333249D01*
X33372299Y-63208371D01*
X33407104Y-63093637D01*
X33420903Y-63048146D01*
X33466747Y-62962378D01*
X33499834Y-62900476D01*
X33606051Y-62771051D01*
X33735480Y-62664831D01*
X33883145Y-62585903D01*
X34043370Y-62537299D01*
X34210000Y-62520888D01*
X34376629Y-62537299D01*
X34376629Y-62537299D01*
G37*
G36*
X36876629Y-62537299D02*
X36991363Y-62572104D01*
X37036854Y-62585903D01*
X37110172Y-62625093D01*
X37184524Y-62664834D01*
X37313949Y-62771051D01*
X37420169Y-62900480D01*
X37499097Y-63048145D01*
X37547701Y-63208370D01*
X37560000Y-63333248D01*
X37560000Y-63666751D01*
X37547701Y-63791624D01*
X37547700Y-63791627D01*
X37547700Y-63791628D01*
X37499097Y-63951855D01*
X37480172Y-63987261D01*
X37420169Y-64099520D01*
X37313949Y-64228949D01*
X37184520Y-64335169D01*
X37036855Y-64414097D01*
X36876630Y-64462701D01*
X36710000Y-64479112D01*
X36543371Y-64462701D01*
X36383146Y-64414097D01*
X36235484Y-64335170D01*
X36106048Y-64228946D01*
X35999831Y-64099520D01*
X35920903Y-63951855D01*
X35872299Y-63791630D01*
X35860000Y-63666752D01*
X35860000Y-63333249D01*
X35872299Y-63208371D01*
X35907104Y-63093637D01*
X35920903Y-63048146D01*
X35966747Y-62962378D01*
X35999834Y-62900476D01*
X36106051Y-62771051D01*
X36235480Y-62664831D01*
X36383145Y-62585903D01*
X36543370Y-62537299D01*
X36710000Y-62520888D01*
X36876629Y-62537299D01*
X36876629Y-62537299D01*
G37*
G36*
X41876629Y-62537299D02*
X41991363Y-62572104D01*
X42036854Y-62585903D01*
X42110172Y-62625093D01*
X42184524Y-62664834D01*
X42313949Y-62771051D01*
X42420169Y-62900480D01*
X42499097Y-63048145D01*
X42547701Y-63208370D01*
X42560000Y-63333248D01*
X42560000Y-63666751D01*
X42547701Y-63791624D01*
X42547700Y-63791627D01*
X42547700Y-63791628D01*
X42499097Y-63951855D01*
X42480172Y-63987261D01*
X42420169Y-64099520D01*
X42313949Y-64228949D01*
X42184520Y-64335169D01*
X42036855Y-64414097D01*
X41876630Y-64462701D01*
X41710000Y-64479112D01*
X41543371Y-64462701D01*
X41383146Y-64414097D01*
X41235484Y-64335170D01*
X41106048Y-64228946D01*
X40999831Y-64099520D01*
X40920903Y-63951855D01*
X40872299Y-63791630D01*
X40860000Y-63666752D01*
X40860000Y-63333249D01*
X40872299Y-63208371D01*
X40907104Y-63093637D01*
X40920903Y-63048146D01*
X40966747Y-62962378D01*
X40999834Y-62900476D01*
X41106051Y-62771051D01*
X41235480Y-62664831D01*
X41383145Y-62585903D01*
X41543370Y-62537299D01*
X41710000Y-62520888D01*
X41876629Y-62537299D01*
X41876629Y-62537299D01*
G37*
G36*
X44376629Y-62537299D02*
X44491363Y-62572104D01*
X44536854Y-62585903D01*
X44610172Y-62625093D01*
X44684524Y-62664834D01*
X44813949Y-62771051D01*
X44920169Y-62900480D01*
X44999097Y-63048145D01*
X45047701Y-63208370D01*
X45060000Y-63333248D01*
X45060000Y-63666751D01*
X45047701Y-63791624D01*
X45047700Y-63791627D01*
X45047700Y-63791628D01*
X44999097Y-63951855D01*
X44980172Y-63987261D01*
X44920169Y-64099520D01*
X44813949Y-64228949D01*
X44684520Y-64335169D01*
X44536855Y-64414097D01*
X44376630Y-64462701D01*
X44210000Y-64479112D01*
X44043371Y-64462701D01*
X43883146Y-64414097D01*
X43735484Y-64335170D01*
X43606048Y-64228946D01*
X43499831Y-64099520D01*
X43420903Y-63951855D01*
X43372299Y-63791630D01*
X43360000Y-63666752D01*
X43360000Y-63333249D01*
X43372299Y-63208371D01*
X43407104Y-63093637D01*
X43420903Y-63048146D01*
X43466747Y-62962378D01*
X43499834Y-62900476D01*
X43606051Y-62771051D01*
X43735480Y-62664831D01*
X43883145Y-62585903D01*
X44043370Y-62537299D01*
X44210000Y-62520888D01*
X44376629Y-62537299D01*
X44376629Y-62537299D01*
G37*
G36*
X31876629Y-62537299D02*
X31991363Y-62572104D01*
X32036854Y-62585903D01*
X32110172Y-62625093D01*
X32184524Y-62664834D01*
X32313949Y-62771051D01*
X32420169Y-62900480D01*
X32499097Y-63048145D01*
X32547701Y-63208370D01*
X32560000Y-63333248D01*
X32560000Y-63666751D01*
X32547701Y-63791624D01*
X32547700Y-63791627D01*
X32547700Y-63791628D01*
X32499097Y-63951855D01*
X32480172Y-63987261D01*
X32420169Y-64099520D01*
X32313949Y-64228949D01*
X32184520Y-64335169D01*
X32036855Y-64414097D01*
X31876630Y-64462701D01*
X31710000Y-64479112D01*
X31543371Y-64462701D01*
X31383146Y-64414097D01*
X31235484Y-64335170D01*
X31106048Y-64228946D01*
X30999831Y-64099520D01*
X30920903Y-63951855D01*
X30872299Y-63791630D01*
X30860000Y-63666752D01*
X30860000Y-63333249D01*
X30872299Y-63208371D01*
X30907104Y-63093637D01*
X30920903Y-63048146D01*
X30966747Y-62962378D01*
X30999834Y-62900476D01*
X31106051Y-62771051D01*
X31235480Y-62664831D01*
X31383145Y-62585903D01*
X31543370Y-62537299D01*
X31710000Y-62520888D01*
X31876629Y-62537299D01*
X31876629Y-62537299D01*
G37*
G36*
X29929675Y-62528701D02*
X29959907Y-62537872D01*
X29987769Y-62552765D01*
X30012192Y-62572808D01*
X30032235Y-62597231D01*
X30047128Y-62625093D01*
X30056299Y-62655325D01*
X30060000Y-62692905D01*
X30060000Y-64307095D01*
X30056299Y-64344675D01*
X30047128Y-64374907D01*
X30032235Y-64402769D01*
X30012192Y-64427192D01*
X29987769Y-64447235D01*
X29959907Y-64462128D01*
X29929675Y-64471299D01*
X29892095Y-64475000D01*
X28527905Y-64475000D01*
X28490325Y-64471299D01*
X28460093Y-64462128D01*
X28432231Y-64447235D01*
X28407808Y-64427192D01*
X28387765Y-64402769D01*
X28372872Y-64374907D01*
X28363701Y-64344675D01*
X28360000Y-64307095D01*
X28360000Y-62692905D01*
X28363701Y-62655325D01*
X28372872Y-62625093D01*
X28387765Y-62597231D01*
X28407808Y-62572808D01*
X28432231Y-62552765D01*
X28460093Y-62537872D01*
X28490325Y-62528701D01*
X28527905Y-62525000D01*
X29892095Y-62525000D01*
X29929675Y-62528701D01*
X29929675Y-62528701D01*
G37*
G36*
X58635000Y-64350000D02*
X56935000Y-64350000D01*
X56935000Y-62650000D01*
X58635000Y-62650000D01*
X58635000Y-64350000D01*
X58635000Y-64350000D01*
G37*
G36*
X57951630Y-60122299D02*
X58111855Y-60170903D01*
X58259520Y-60249831D01*
X58388949Y-60356051D01*
X58495169Y-60485480D01*
X58574097Y-60633145D01*
X58622701Y-60793370D01*
X58639112Y-60960000D01*
X58622701Y-61126630D01*
X58574097Y-61286855D01*
X58495169Y-61434520D01*
X58388949Y-61563949D01*
X58259520Y-61670169D01*
X58111855Y-61749097D01*
X57951630Y-61797701D01*
X57826752Y-61810000D01*
X57743248Y-61810000D01*
X57618370Y-61797701D01*
X57458145Y-61749097D01*
X57310480Y-61670169D01*
X57181051Y-61563949D01*
X57074831Y-61434520D01*
X56995903Y-61286855D01*
X56947299Y-61126630D01*
X56930888Y-60960000D01*
X56947299Y-60793370D01*
X56995903Y-60633145D01*
X57074831Y-60485480D01*
X57181051Y-60356051D01*
X57310480Y-60249831D01*
X57458145Y-60170903D01*
X57618370Y-60122299D01*
X57743248Y-60110000D01*
X57826752Y-60110000D01*
X57951630Y-60122299D01*
X57951630Y-60122299D01*
G37*
G36*
X64985000Y-61175000D02*
X63285000Y-61175000D01*
X63285000Y-59475000D01*
X64985000Y-59475000D01*
X64985000Y-61175000D01*
X64985000Y-61175000D01*
G37*
G36*
X61761630Y-59487299D02*
X61921855Y-59535903D01*
X62069520Y-59614831D01*
X62198949Y-59721051D01*
X62305169Y-59850480D01*
X62384097Y-59998145D01*
X62432701Y-60158370D01*
X62449112Y-60325000D01*
X62432701Y-60491630D01*
X62384097Y-60651855D01*
X62305169Y-60799520D01*
X62198949Y-60928949D01*
X62069520Y-61035169D01*
X61921855Y-61114097D01*
X61761630Y-61162701D01*
X61636752Y-61175000D01*
X61553248Y-61175000D01*
X61428370Y-61162701D01*
X61268145Y-61114097D01*
X61120480Y-61035169D01*
X60991051Y-60928949D01*
X60884831Y-60799520D01*
X60805903Y-60651855D01*
X60757299Y-60491630D01*
X60740888Y-60325000D01*
X60757299Y-60158370D01*
X60805903Y-59998145D01*
X60884831Y-59850480D01*
X60991051Y-59721051D01*
X61120480Y-59614831D01*
X61268145Y-59535903D01*
X61428370Y-59487299D01*
X61553248Y-59475000D01*
X61636752Y-59475000D01*
X61761630Y-59487299D01*
X61761630Y-59487299D01*
G37*
G36*
X71985000Y-60555000D02*
X68985000Y-60555000D01*
X68985000Y-57555000D01*
X71985000Y-57555000D01*
X71985000Y-60555000D01*
X71985000Y-60555000D01*
G37*
G36*
X34903413Y-55870788D02*
X34978813Y-55893660D01*
X34978816Y-55893662D01*
X34978817Y-55893662D01*
X35048304Y-55930803D01*
X35103122Y-55975792D01*
X35109211Y-55980789D01*
X35159197Y-56041697D01*
X35196340Y-56111186D01*
X35219212Y-56186586D01*
X35225000Y-56245353D01*
X35225000Y-56784647D01*
X35219212Y-56843414D01*
X35196340Y-56918814D01*
X35159197Y-56988303D01*
X35109211Y-57049211D01*
X35048303Y-57099197D01*
X34978814Y-57136340D01*
X34903414Y-57159212D01*
X34825000Y-57166935D01*
X34746587Y-57159212D01*
X34671187Y-57136340D01*
X34601698Y-57099197D01*
X34540790Y-57049211D01*
X34490804Y-56988303D01*
X34453661Y-56918814D01*
X34430789Y-56843414D01*
X34429649Y-56831836D01*
X34425000Y-56784645D01*
X34425000Y-56245354D01*
X34430788Y-56186589D01*
X34430788Y-56186587D01*
X34453660Y-56111187D01*
X34453662Y-56111183D01*
X34490803Y-56041696D01*
X34540789Y-55980789D01*
X34546878Y-55975792D01*
X34601697Y-55930803D01*
X34671186Y-55893660D01*
X34746586Y-55870788D01*
X34825000Y-55863065D01*
X34903413Y-55870788D01*
X34903413Y-55870788D01*
G37*
G36*
X33653413Y-55870788D02*
X33728813Y-55893660D01*
X33728816Y-55893662D01*
X33728817Y-55893662D01*
X33798304Y-55930803D01*
X33853122Y-55975792D01*
X33859211Y-55980789D01*
X33909197Y-56041697D01*
X33946340Y-56111186D01*
X33969212Y-56186586D01*
X33975000Y-56245353D01*
X33975000Y-56784647D01*
X33969212Y-56843414D01*
X33946340Y-56918814D01*
X33909197Y-56988303D01*
X33859211Y-57049211D01*
X33798303Y-57099197D01*
X33728814Y-57136340D01*
X33653414Y-57159212D01*
X33575000Y-57166935D01*
X33496587Y-57159212D01*
X33421187Y-57136340D01*
X33351698Y-57099197D01*
X33290790Y-57049211D01*
X33240804Y-56988303D01*
X33203661Y-56918814D01*
X33180789Y-56843414D01*
X33179649Y-56831836D01*
X33175000Y-56784645D01*
X33175000Y-56245354D01*
X33180788Y-56186589D01*
X33180788Y-56186587D01*
X33203660Y-56111187D01*
X33203662Y-56111183D01*
X33240803Y-56041696D01*
X33290789Y-55980789D01*
X33296878Y-55975792D01*
X33351697Y-55930803D01*
X33421186Y-55893660D01*
X33496586Y-55870788D01*
X33575000Y-55863065D01*
X33653413Y-55870788D01*
X33653413Y-55870788D01*
G37*
G36*
X36153413Y-55870788D02*
X36228813Y-55893660D01*
X36228816Y-55893662D01*
X36228817Y-55893662D01*
X36298304Y-55930803D01*
X36353122Y-55975792D01*
X36359211Y-55980789D01*
X36409197Y-56041697D01*
X36446340Y-56111186D01*
X36469212Y-56186586D01*
X36475000Y-56245353D01*
X36475000Y-56784647D01*
X36469212Y-56843414D01*
X36446340Y-56918814D01*
X36409197Y-56988303D01*
X36359211Y-57049211D01*
X36298303Y-57099197D01*
X36228814Y-57136340D01*
X36153414Y-57159212D01*
X36075000Y-57166935D01*
X35996587Y-57159212D01*
X35921187Y-57136340D01*
X35851698Y-57099197D01*
X35790790Y-57049211D01*
X35740804Y-56988303D01*
X35703661Y-56918814D01*
X35680789Y-56843414D01*
X35679649Y-56831836D01*
X35675000Y-56784645D01*
X35675000Y-56245354D01*
X35680788Y-56186589D01*
X35680788Y-56186587D01*
X35703660Y-56111187D01*
X35703662Y-56111183D01*
X35740803Y-56041696D01*
X35790789Y-55980789D01*
X35796878Y-55975792D01*
X35851697Y-55930803D01*
X35921186Y-55893660D01*
X35996586Y-55870788D01*
X36075000Y-55863065D01*
X36153413Y-55870788D01*
X36153413Y-55870788D01*
G37*
G36*
X31153413Y-55870788D02*
X31228813Y-55893660D01*
X31228816Y-55893662D01*
X31228817Y-55893662D01*
X31298304Y-55930803D01*
X31353122Y-55975792D01*
X31359211Y-55980789D01*
X31409197Y-56041697D01*
X31446340Y-56111186D01*
X31469212Y-56186586D01*
X31475000Y-56245353D01*
X31475000Y-56784647D01*
X31469212Y-56843414D01*
X31446340Y-56918814D01*
X31409197Y-56988303D01*
X31359211Y-57049211D01*
X31298303Y-57099197D01*
X31228814Y-57136340D01*
X31153414Y-57159212D01*
X31075000Y-57166935D01*
X30996587Y-57159212D01*
X30921187Y-57136340D01*
X30851698Y-57099197D01*
X30790790Y-57049211D01*
X30740804Y-56988303D01*
X30703661Y-56918814D01*
X30680789Y-56843414D01*
X30679649Y-56831836D01*
X30675000Y-56784645D01*
X30675000Y-56245354D01*
X30680788Y-56186589D01*
X30680788Y-56186587D01*
X30703660Y-56111187D01*
X30703662Y-56111183D01*
X30740803Y-56041696D01*
X30790789Y-55980789D01*
X30796878Y-55975792D01*
X30851697Y-55930803D01*
X30921186Y-55893660D01*
X30996586Y-55870788D01*
X31075000Y-55863065D01*
X31153413Y-55870788D01*
X31153413Y-55870788D01*
G37*
G36*
X29903413Y-55870788D02*
X29978813Y-55893660D01*
X29978816Y-55893662D01*
X29978817Y-55893662D01*
X30048304Y-55930803D01*
X30103122Y-55975792D01*
X30109211Y-55980789D01*
X30159197Y-56041697D01*
X30196340Y-56111186D01*
X30219212Y-56186586D01*
X30225000Y-56245353D01*
X30225000Y-56784647D01*
X30219212Y-56843414D01*
X30196340Y-56918814D01*
X30159197Y-56988303D01*
X30109211Y-57049211D01*
X30048303Y-57099197D01*
X29978814Y-57136340D01*
X29903414Y-57159212D01*
X29825000Y-57166935D01*
X29746587Y-57159212D01*
X29671187Y-57136340D01*
X29601698Y-57099197D01*
X29540790Y-57049211D01*
X29490804Y-56988303D01*
X29453661Y-56918814D01*
X29430789Y-56843414D01*
X29429649Y-56831836D01*
X29425000Y-56784645D01*
X29425000Y-56245354D01*
X29430788Y-56186589D01*
X29430788Y-56186587D01*
X29453660Y-56111187D01*
X29453662Y-56111183D01*
X29490803Y-56041696D01*
X29540789Y-55980789D01*
X29546878Y-55975792D01*
X29601697Y-55930803D01*
X29671186Y-55893660D01*
X29746586Y-55870788D01*
X29825000Y-55863065D01*
X29903413Y-55870788D01*
X29903413Y-55870788D01*
G37*
G36*
X32403413Y-55870788D02*
X32478813Y-55893660D01*
X32478816Y-55893662D01*
X32478817Y-55893662D01*
X32548304Y-55930803D01*
X32603122Y-55975792D01*
X32609211Y-55980789D01*
X32659197Y-56041697D01*
X32696340Y-56111186D01*
X32719212Y-56186586D01*
X32725000Y-56245353D01*
X32725000Y-56784647D01*
X32719212Y-56843414D01*
X32696340Y-56918814D01*
X32659197Y-56988303D01*
X32609211Y-57049211D01*
X32548303Y-57099197D01*
X32478814Y-57136340D01*
X32403414Y-57159212D01*
X32325000Y-57166935D01*
X32246587Y-57159212D01*
X32171187Y-57136340D01*
X32101698Y-57099197D01*
X32040790Y-57049211D01*
X31990804Y-56988303D01*
X31953661Y-56918814D01*
X31930789Y-56843414D01*
X31929649Y-56831836D01*
X31925000Y-56784645D01*
X31925000Y-56245354D01*
X31930788Y-56186589D01*
X31930788Y-56186587D01*
X31953660Y-56111187D01*
X31953662Y-56111183D01*
X31990803Y-56041696D01*
X32040789Y-55980789D01*
X32046878Y-55975792D01*
X32101697Y-55930803D01*
X32171186Y-55893660D01*
X32246586Y-55870788D01*
X32325000Y-55863065D01*
X32403413Y-55870788D01*
X32403413Y-55870788D01*
G37*
G36*
X37403413Y-55870788D02*
X37478813Y-55893660D01*
X37478816Y-55893662D01*
X37478817Y-55893662D01*
X37548304Y-55930803D01*
X37603122Y-55975792D01*
X37609211Y-55980789D01*
X37659197Y-56041697D01*
X37696340Y-56111186D01*
X37719212Y-56186586D01*
X37725000Y-56245353D01*
X37725000Y-56784647D01*
X37719212Y-56843414D01*
X37696340Y-56918814D01*
X37659197Y-56988303D01*
X37609211Y-57049211D01*
X37548303Y-57099197D01*
X37478814Y-57136340D01*
X37403414Y-57159212D01*
X37325000Y-57166935D01*
X37246587Y-57159212D01*
X37171187Y-57136340D01*
X37101698Y-57099197D01*
X37040790Y-57049211D01*
X36990804Y-56988303D01*
X36953661Y-56918814D01*
X36930789Y-56843414D01*
X36929649Y-56831836D01*
X36925000Y-56784645D01*
X36925000Y-56245354D01*
X36930788Y-56186589D01*
X36930788Y-56186587D01*
X36953660Y-56111187D01*
X36953662Y-56111183D01*
X36990803Y-56041696D01*
X37040789Y-55980789D01*
X37046878Y-55975792D01*
X37101697Y-55930803D01*
X37171186Y-55893660D01*
X37246586Y-55870788D01*
X37325000Y-55863065D01*
X37403413Y-55870788D01*
X37403413Y-55870788D01*
G37*
G36*
X28864208Y-55868235D02*
X28889886Y-55876025D01*
X28913557Y-55888677D01*
X28934300Y-55905700D01*
X28951323Y-55926443D01*
X28963975Y-55950114D01*
X28971765Y-55975792D01*
X28975000Y-56008641D01*
X28975000Y-57021359D01*
X28971765Y-57054208D01*
X28963975Y-57079886D01*
X28951323Y-57103557D01*
X28934300Y-57124300D01*
X28913557Y-57141323D01*
X28889886Y-57153975D01*
X28864208Y-57161765D01*
X28831359Y-57165000D01*
X28318641Y-57165000D01*
X28285792Y-57161765D01*
X28260114Y-57153975D01*
X28236443Y-57141323D01*
X28215700Y-57124300D01*
X28198677Y-57103557D01*
X28186025Y-57079886D01*
X28178235Y-57054208D01*
X28175000Y-57021359D01*
X28175000Y-56008641D01*
X28178235Y-55975792D01*
X28186025Y-55950114D01*
X28198677Y-55926443D01*
X28215700Y-55905700D01*
X28236443Y-55888677D01*
X28260114Y-55876025D01*
X28285792Y-55868235D01*
X28318641Y-55865000D01*
X28831359Y-55865000D01*
X28864208Y-55868235D01*
X28864208Y-55868235D01*
G37*
G36*
X81588121Y-51803682D02*
X81701221Y-51837990D01*
X81805455Y-51893704D01*
X81896817Y-51968683D01*
X81971796Y-52060045D01*
X82027510Y-52164279D01*
X82061818Y-52277379D01*
X82073403Y-52395000D01*
X82061818Y-52512621D01*
X82027510Y-52625721D01*
X81971796Y-52729955D01*
X81896817Y-52821317D01*
X81805455Y-52896296D01*
X81701221Y-52952010D01*
X81588121Y-52986318D01*
X81499974Y-52995000D01*
X80741026Y-52995000D01*
X80652879Y-52986318D01*
X80539779Y-52952010D01*
X80435545Y-52896296D01*
X80344183Y-52821317D01*
X80269204Y-52729955D01*
X80213490Y-52625721D01*
X80179182Y-52512621D01*
X80167597Y-52395000D01*
X80179182Y-52277379D01*
X80213490Y-52164279D01*
X80269204Y-52060045D01*
X80344183Y-51968683D01*
X80435545Y-51893704D01*
X80539779Y-51837990D01*
X80652879Y-51803682D01*
X80741026Y-51795000D01*
X81499974Y-51795000D01*
X81588121Y-51803682D01*
X81588121Y-51803682D01*
G37*
G36*
X78547934Y-50681144D02*
X78631975Y-50697861D01*
X78763916Y-50752513D01*
X78763917Y-50752514D01*
X78882664Y-50831858D01*
X78983642Y-50932836D01*
X78983644Y-50932839D01*
X79062987Y-51051584D01*
X79117639Y-51183525D01*
X79145500Y-51323594D01*
X79145500Y-51466406D01*
X79117639Y-51606475D01*
X79062987Y-51738416D01*
X78996454Y-51837990D01*
X78983642Y-51857164D01*
X78882664Y-51958142D01*
X78882661Y-51958144D01*
X78763916Y-52037487D01*
X78631975Y-52092139D01*
X78547934Y-52108856D01*
X78491908Y-52120000D01*
X78349092Y-52120000D01*
X78293066Y-52108856D01*
X78209025Y-52092139D01*
X78077084Y-52037487D01*
X77958339Y-51958144D01*
X77958336Y-51958142D01*
X77857358Y-51857164D01*
X77844546Y-51837990D01*
X77778013Y-51738416D01*
X77723361Y-51606475D01*
X77695500Y-51466406D01*
X77695500Y-51323594D01*
X77723361Y-51183525D01*
X77778013Y-51051584D01*
X77857356Y-50932839D01*
X77857358Y-50932836D01*
X77958336Y-50831858D01*
X78077083Y-50752514D01*
X78077084Y-50752513D01*
X78209025Y-50697861D01*
X78293066Y-50681144D01*
X78349092Y-50670000D01*
X78491908Y-50670000D01*
X78547934Y-50681144D01*
X78547934Y-50681144D01*
G37*
G36*
X78547934Y-45681144D02*
X78631975Y-45697861D01*
X78763916Y-45752513D01*
X78763917Y-45752514D01*
X78882664Y-45831858D01*
X78983642Y-45932836D01*
X78983644Y-45932839D01*
X79062987Y-46051584D01*
X79117639Y-46183525D01*
X79145500Y-46323594D01*
X79145500Y-46466406D01*
X79117639Y-46606475D01*
X79062987Y-46738416D01*
X79062986Y-46738417D01*
X78983642Y-46857164D01*
X78882664Y-46958142D01*
X78882661Y-46958144D01*
X78763916Y-47037487D01*
X78631975Y-47092139D01*
X78547934Y-47108856D01*
X78491908Y-47120000D01*
X78349092Y-47120000D01*
X78293066Y-47108856D01*
X78209025Y-47092139D01*
X78077084Y-47037487D01*
X77958339Y-46958144D01*
X77958336Y-46958142D01*
X77857358Y-46857164D01*
X77778014Y-46738417D01*
X77778013Y-46738416D01*
X77723361Y-46606475D01*
X77695500Y-46466406D01*
X77695500Y-46323594D01*
X77723361Y-46183525D01*
X77778013Y-46051584D01*
X77857356Y-45932839D01*
X77857358Y-45932836D01*
X77958336Y-45831858D01*
X78077083Y-45752514D01*
X78077084Y-45752513D01*
X78209025Y-45697861D01*
X78293066Y-45681144D01*
X78349092Y-45670000D01*
X78491908Y-45670000D01*
X78547934Y-45681144D01*
X78547934Y-45681144D01*
G37*
G36*
X81588121Y-44803682D02*
X81701221Y-44837990D01*
X81805455Y-44893704D01*
X81896817Y-44968683D01*
X81971796Y-45060045D01*
X82027510Y-45164279D01*
X82061818Y-45277379D01*
X82073403Y-45395000D01*
X82061818Y-45512621D01*
X82027510Y-45625721D01*
X81971796Y-45729955D01*
X81896817Y-45821317D01*
X81805455Y-45896296D01*
X81701221Y-45952010D01*
X81588121Y-45986318D01*
X81499974Y-45995000D01*
X80741026Y-45995000D01*
X80652879Y-45986318D01*
X80539779Y-45952010D01*
X80435545Y-45896296D01*
X80344183Y-45821317D01*
X80269204Y-45729955D01*
X80213490Y-45625721D01*
X80179182Y-45512621D01*
X80167597Y-45395000D01*
X80179182Y-45277379D01*
X80213490Y-45164279D01*
X80269204Y-45060045D01*
X80344183Y-44968683D01*
X80435545Y-44893704D01*
X80539779Y-44837990D01*
X80652879Y-44803682D01*
X80741026Y-44795000D01*
X81499974Y-44795000D01*
X81588121Y-44803682D01*
X81588121Y-44803682D01*
G37*
G36*
X77039183Y-40601900D02*
X77166574Y-40654668D01*
X77281225Y-40731275D01*
X77378725Y-40828775D01*
X77455332Y-40943426D01*
X77508100Y-41070817D01*
X77535000Y-41206055D01*
X77535000Y-41343945D01*
X77508100Y-41479183D01*
X77455332Y-41606574D01*
X77378725Y-41721225D01*
X77281225Y-41818725D01*
X77166574Y-41895332D01*
X77039183Y-41948100D01*
X76903945Y-41975000D01*
X76766055Y-41975000D01*
X76630817Y-41948100D01*
X76503426Y-41895332D01*
X76388775Y-41818725D01*
X76291275Y-41721225D01*
X76214668Y-41606574D01*
X76161900Y-41479183D01*
X76135000Y-41343945D01*
X76135000Y-41206055D01*
X76161900Y-41070817D01*
X76214668Y-40943426D01*
X76291275Y-40828775D01*
X76388775Y-40731275D01*
X76503426Y-40654668D01*
X76630817Y-40601900D01*
X76766055Y-40575000D01*
X76903945Y-40575000D01*
X77039183Y-40601900D01*
X77039183Y-40601900D01*
G37*
G36*
X76972224Y-32965128D02*
X77104175Y-33005155D01*
X77225781Y-33070155D01*
X77332370Y-33157630D01*
X77419845Y-33264219D01*
X77484845Y-33385825D01*
X77524872Y-33517776D01*
X77538387Y-33655000D01*
X77524872Y-33792224D01*
X77484845Y-33924175D01*
X77419845Y-34045781D01*
X77332370Y-34152370D01*
X77225781Y-34239845D01*
X77104175Y-34304845D01*
X76972224Y-34344872D01*
X76869390Y-34355000D01*
X76800610Y-34355000D01*
X76697776Y-34344872D01*
X76565825Y-34304845D01*
X76444219Y-34239845D01*
X76337630Y-34152370D01*
X76250155Y-34045781D01*
X76185155Y-33924175D01*
X76145128Y-33792224D01*
X76131613Y-33655000D01*
X76145128Y-33517776D01*
X76185155Y-33385825D01*
X76250155Y-33264219D01*
X76337630Y-33157630D01*
X76444219Y-33070155D01*
X76565825Y-33005155D01*
X76697776Y-32965128D01*
X76800610Y-32955000D01*
X76869390Y-32955000D01*
X76972224Y-32965128D01*
X76972224Y-32965128D01*
G37*
G36*
X24339675Y-32093701D02*
X24369907Y-32102872D01*
X24397769Y-32117765D01*
X24422192Y-32137808D01*
X24442235Y-32162231D01*
X24457128Y-32190093D01*
X24466299Y-32220325D01*
X24470000Y-32257905D01*
X24470000Y-33622095D01*
X24466299Y-33659675D01*
X24457128Y-33689907D01*
X24442235Y-33717769D01*
X24422192Y-33742192D01*
X24397769Y-33762235D01*
X24369907Y-33777128D01*
X24339675Y-33786299D01*
X24302095Y-33790000D01*
X22687905Y-33790000D01*
X22650325Y-33786299D01*
X22620093Y-33777128D01*
X22592231Y-33762235D01*
X22567808Y-33742192D01*
X22547765Y-33717769D01*
X22532872Y-33689907D01*
X22523701Y-33659675D01*
X22520000Y-33622095D01*
X22520000Y-32257905D01*
X22523701Y-32220325D01*
X22532872Y-32190093D01*
X22547765Y-32162231D01*
X22567808Y-32137808D01*
X22592231Y-32117765D01*
X22620093Y-32102872D01*
X22650325Y-32093701D01*
X22687905Y-32090000D01*
X24302095Y-32090000D01*
X24339675Y-32093701D01*
X24339675Y-32093701D01*
G37*
G36*
X77039183Y-31076900D02*
X77166574Y-31129668D01*
X77281225Y-31206275D01*
X77378725Y-31303775D01*
X77455332Y-31418426D01*
X77508100Y-31545817D01*
X77535000Y-31681055D01*
X77535000Y-31818945D01*
X77508100Y-31954183D01*
X77455332Y-32081574D01*
X77382823Y-32190093D01*
X77378725Y-32196225D01*
X77281225Y-32293725D01*
X77166574Y-32370332D01*
X77039183Y-32423100D01*
X76903945Y-32450000D01*
X76766055Y-32450000D01*
X76630817Y-32423100D01*
X76503426Y-32370332D01*
X76388775Y-32293725D01*
X76291275Y-32196225D01*
X76287178Y-32190093D01*
X76214668Y-32081574D01*
X76161900Y-31954183D01*
X76135000Y-31818945D01*
X76135000Y-31681055D01*
X76161900Y-31545817D01*
X76214668Y-31418426D01*
X76291275Y-31303775D01*
X76388775Y-31206275D01*
X76503426Y-31129668D01*
X76630817Y-31076900D01*
X76766055Y-31050000D01*
X76903945Y-31050000D01*
X77039183Y-31076900D01*
X77039183Y-31076900D01*
G37*
G36*
X23786630Y-29602299D02*
X23946855Y-29650903D01*
X24094520Y-29729831D01*
X24223949Y-29836051D01*
X24330169Y-29965480D01*
X24409097Y-30113145D01*
X24457701Y-30273370D01*
X24474112Y-30440000D01*
X24457701Y-30606630D01*
X24409097Y-30766855D01*
X24330169Y-30914520D01*
X24223949Y-31043949D01*
X24094520Y-31150169D01*
X23946855Y-31229097D01*
X23786630Y-31277701D01*
X23661752Y-31290000D01*
X23328248Y-31290000D01*
X23203370Y-31277701D01*
X23043145Y-31229097D01*
X22895480Y-31150169D01*
X22766051Y-31043949D01*
X22659831Y-30914520D01*
X22580903Y-30766855D01*
X22532299Y-30606630D01*
X22515888Y-30440000D01*
X22532299Y-30273370D01*
X22580903Y-30113145D01*
X22659831Y-29965480D01*
X22766051Y-29836051D01*
X22895480Y-29729831D01*
X23043145Y-29650903D01*
X23203370Y-29602299D01*
X23328248Y-29590000D01*
X23661752Y-29590000D01*
X23786630Y-29602299D01*
X23786630Y-29602299D01*
G37*
G36*
X23786630Y-27102299D02*
X23946855Y-27150903D01*
X24094520Y-27229831D01*
X24223949Y-27336051D01*
X24330169Y-27465480D01*
X24409097Y-27613145D01*
X24457701Y-27773370D01*
X24474112Y-27940000D01*
X24457701Y-28106630D01*
X24409097Y-28266855D01*
X24330169Y-28414520D01*
X24223949Y-28543949D01*
X24094520Y-28650169D01*
X23946855Y-28729097D01*
X23786630Y-28777701D01*
X23661752Y-28790000D01*
X23328248Y-28790000D01*
X23203370Y-28777701D01*
X23043145Y-28729097D01*
X22895480Y-28650169D01*
X22766051Y-28543949D01*
X22659831Y-28414520D01*
X22580903Y-28266855D01*
X22532299Y-28106630D01*
X22515888Y-27940000D01*
X22532299Y-27773370D01*
X22580903Y-27613145D01*
X22659831Y-27465480D01*
X22766051Y-27336051D01*
X22895480Y-27229831D01*
X23043145Y-27150903D01*
X23203370Y-27102299D01*
X23328248Y-27090000D01*
X23661752Y-27090000D01*
X23786630Y-27102299D01*
X23786630Y-27102299D01*
G37*
G36*
X32483015Y-26812234D02*
X32577268Y-26840825D01*
X32623697Y-26865643D01*
X32664129Y-26887254D01*
X32664131Y-26887255D01*
X32664130Y-26887255D01*
X32740264Y-26949736D01*
X32802745Y-27025870D01*
X32849175Y-27112732D01*
X32877766Y-27206985D01*
X32887419Y-27305000D01*
X32877766Y-27403015D01*
X32849175Y-27497268D01*
X32824357Y-27543697D01*
X32802746Y-27584129D01*
X32740264Y-27660264D01*
X32664129Y-27722746D01*
X32623697Y-27744357D01*
X32577268Y-27769175D01*
X32483015Y-27797766D01*
X32409564Y-27805000D01*
X32360436Y-27805000D01*
X32286985Y-27797766D01*
X32192732Y-27769175D01*
X32146303Y-27744357D01*
X32105871Y-27722746D01*
X32029736Y-27660264D01*
X31967254Y-27584129D01*
X31945643Y-27543697D01*
X31920825Y-27497268D01*
X31892234Y-27403015D01*
X31882581Y-27305000D01*
X31892234Y-27206985D01*
X31920825Y-27112732D01*
X31967255Y-27025870D01*
X32029736Y-26949736D01*
X32105870Y-26887255D01*
X32105869Y-26887255D01*
X32105871Y-26887254D01*
X32146303Y-26865643D01*
X32192732Y-26840825D01*
X32286985Y-26812234D01*
X32360436Y-26805000D01*
X32409564Y-26805000D01*
X32483015Y-26812234D01*
X32483015Y-26812234D01*
G37*
G36*
X33753015Y-26812234D02*
X33847268Y-26840825D01*
X33893697Y-26865643D01*
X33934129Y-26887254D01*
X33934131Y-26887255D01*
X33934130Y-26887255D01*
X34010264Y-26949736D01*
X34072745Y-27025870D01*
X34119175Y-27112732D01*
X34147766Y-27206985D01*
X34157419Y-27305000D01*
X34147766Y-27403015D01*
X34119175Y-27497268D01*
X34094357Y-27543697D01*
X34072746Y-27584129D01*
X34010264Y-27660264D01*
X33934129Y-27722746D01*
X33893697Y-27744357D01*
X33847268Y-27769175D01*
X33753015Y-27797766D01*
X33679564Y-27805000D01*
X33630436Y-27805000D01*
X33556985Y-27797766D01*
X33462732Y-27769175D01*
X33416303Y-27744357D01*
X33375871Y-27722746D01*
X33299736Y-27660264D01*
X33237254Y-27584129D01*
X33215643Y-27543697D01*
X33190825Y-27497268D01*
X33162234Y-27403015D01*
X33152581Y-27305000D01*
X33162234Y-27206985D01*
X33190825Y-27112732D01*
X33237255Y-27025870D01*
X33299736Y-26949736D01*
X33375870Y-26887255D01*
X33375869Y-26887255D01*
X33375871Y-26887254D01*
X33416303Y-26865643D01*
X33462732Y-26840825D01*
X33556985Y-26812234D01*
X33630436Y-26805000D01*
X33679564Y-26805000D01*
X33753015Y-26812234D01*
X33753015Y-26812234D01*
G37*
G36*
X33753015Y-25542234D02*
X33847268Y-25570825D01*
X33893697Y-25595643D01*
X33934129Y-25617254D01*
X33934131Y-25617255D01*
X33934130Y-25617255D01*
X34010264Y-25679736D01*
X34072745Y-25755870D01*
X34119175Y-25842732D01*
X34147766Y-25936985D01*
X34157419Y-26035000D01*
X34147766Y-26133015D01*
X34119175Y-26227268D01*
X34118197Y-26229097D01*
X34072746Y-26314129D01*
X34010264Y-26390264D01*
X33934129Y-26452746D01*
X33893697Y-26474357D01*
X33847268Y-26499175D01*
X33753015Y-26527766D01*
X33679564Y-26535000D01*
X33630436Y-26535000D01*
X33556985Y-26527766D01*
X33462732Y-26499175D01*
X33416303Y-26474357D01*
X33375871Y-26452746D01*
X33299736Y-26390264D01*
X33237254Y-26314129D01*
X33191803Y-26229097D01*
X33190825Y-26227268D01*
X33162234Y-26133015D01*
X33152581Y-26035000D01*
X33162234Y-25936985D01*
X33190825Y-25842732D01*
X33237255Y-25755870D01*
X33299736Y-25679736D01*
X33375870Y-25617255D01*
X33375869Y-25617255D01*
X33375871Y-25617254D01*
X33416303Y-25595643D01*
X33462732Y-25570825D01*
X33556985Y-25542234D01*
X33630436Y-25535000D01*
X33679564Y-25535000D01*
X33753015Y-25542234D01*
X33753015Y-25542234D01*
G37*
G36*
X32483015Y-25542234D02*
X32577268Y-25570825D01*
X32623697Y-25595643D01*
X32664129Y-25617254D01*
X32664131Y-25617255D01*
X32664130Y-25617255D01*
X32740264Y-25679736D01*
X32802745Y-25755870D01*
X32849175Y-25842732D01*
X32877766Y-25936985D01*
X32887419Y-26035000D01*
X32877766Y-26133015D01*
X32849175Y-26227268D01*
X32848197Y-26229097D01*
X32802746Y-26314129D01*
X32740264Y-26390264D01*
X32664129Y-26452746D01*
X32623697Y-26474357D01*
X32577268Y-26499175D01*
X32483015Y-26527766D01*
X32409564Y-26535000D01*
X32360436Y-26535000D01*
X32286985Y-26527766D01*
X32192732Y-26499175D01*
X32146303Y-26474357D01*
X32105871Y-26452746D01*
X32029736Y-26390264D01*
X31967254Y-26314129D01*
X31921803Y-26229097D01*
X31920825Y-26227268D01*
X31892234Y-26133015D01*
X31882581Y-26035000D01*
X31892234Y-25936985D01*
X31920825Y-25842732D01*
X31967255Y-25755870D01*
X32029736Y-25679736D01*
X32105870Y-25617255D01*
X32105869Y-25617255D01*
X32105871Y-25617254D01*
X32146303Y-25595643D01*
X32192732Y-25570825D01*
X32286985Y-25542234D01*
X32360436Y-25535000D01*
X32409564Y-25535000D01*
X32483015Y-25542234D01*
X32483015Y-25542234D01*
G37*
G36*
X23786630Y-24602299D02*
X23946855Y-24650903D01*
X24094520Y-24729831D01*
X24223949Y-24836051D01*
X24330169Y-24965480D01*
X24409097Y-25113145D01*
X24457701Y-25273370D01*
X24474112Y-25440000D01*
X24457701Y-25606630D01*
X24409097Y-25766855D01*
X24330169Y-25914520D01*
X24223949Y-26043949D01*
X24094520Y-26150169D01*
X23946855Y-26229097D01*
X23786630Y-26277701D01*
X23661752Y-26290000D01*
X23328248Y-26290000D01*
X23203370Y-26277701D01*
X23043145Y-26229097D01*
X22895480Y-26150169D01*
X22766051Y-26043949D01*
X22659831Y-25914520D01*
X22580903Y-25766855D01*
X22532299Y-25606630D01*
X22515888Y-25440000D01*
X22532299Y-25273370D01*
X22580903Y-25113145D01*
X22659831Y-24965480D01*
X22766051Y-24836051D01*
X22895480Y-24729831D01*
X23043145Y-24650903D01*
X23203370Y-24602299D01*
X23328248Y-24590000D01*
X23661752Y-24590000D01*
X23786630Y-24602299D01*
X23786630Y-24602299D01*
G37*
G36*
X32483015Y-24272234D02*
X32577268Y-24300825D01*
X32623697Y-24325643D01*
X32664129Y-24347254D01*
X32664131Y-24347255D01*
X32664130Y-24347255D01*
X32740264Y-24409736D01*
X32802745Y-24485870D01*
X32849175Y-24572732D01*
X32877766Y-24666985D01*
X32887419Y-24765000D01*
X32877766Y-24863015D01*
X32849175Y-24957268D01*
X32824357Y-25003697D01*
X32802746Y-25044129D01*
X32740264Y-25120264D01*
X32664129Y-25182746D01*
X32623697Y-25204357D01*
X32577268Y-25229175D01*
X32483015Y-25257766D01*
X32409564Y-25265000D01*
X32360436Y-25265000D01*
X32286985Y-25257766D01*
X32192732Y-25229175D01*
X32146303Y-25204357D01*
X32105871Y-25182746D01*
X32029736Y-25120264D01*
X31967254Y-25044129D01*
X31945643Y-25003697D01*
X31920825Y-24957268D01*
X31892234Y-24863015D01*
X31882581Y-24765000D01*
X31892234Y-24666985D01*
X31920825Y-24572732D01*
X31967255Y-24485870D01*
X32029736Y-24409736D01*
X32105870Y-24347255D01*
X32105869Y-24347255D01*
X32105871Y-24347254D01*
X32146303Y-24325643D01*
X32192732Y-24300825D01*
X32286985Y-24272234D01*
X32360436Y-24265000D01*
X32409564Y-24265000D01*
X32483015Y-24272234D01*
X32483015Y-24272234D01*
G37*
G36*
X33753015Y-24272234D02*
X33847268Y-24300825D01*
X33893697Y-24325643D01*
X33934129Y-24347254D01*
X33934131Y-24347255D01*
X33934130Y-24347255D01*
X34010264Y-24409736D01*
X34072745Y-24485870D01*
X34119175Y-24572732D01*
X34147766Y-24666985D01*
X34157419Y-24765000D01*
X34147766Y-24863015D01*
X34119175Y-24957268D01*
X34094357Y-25003697D01*
X34072746Y-25044129D01*
X34010264Y-25120264D01*
X33934129Y-25182746D01*
X33893697Y-25204357D01*
X33847268Y-25229175D01*
X33753015Y-25257766D01*
X33679564Y-25265000D01*
X33630436Y-25265000D01*
X33556985Y-25257766D01*
X33462732Y-25229175D01*
X33416303Y-25204357D01*
X33375871Y-25182746D01*
X33299736Y-25120264D01*
X33237254Y-25044129D01*
X33215643Y-25003697D01*
X33190825Y-24957268D01*
X33162234Y-24863015D01*
X33152581Y-24765000D01*
X33162234Y-24666985D01*
X33190825Y-24572732D01*
X33237255Y-24485870D01*
X33299736Y-24409736D01*
X33375870Y-24347255D01*
X33375869Y-24347255D01*
X33375871Y-24347254D01*
X33416303Y-24325643D01*
X33462732Y-24300825D01*
X33556985Y-24272234D01*
X33630436Y-24265000D01*
X33679564Y-24265000D01*
X33753015Y-24272234D01*
X33753015Y-24272234D01*
G37*
G36*
X76972224Y-23440128D02*
X77104175Y-23480155D01*
X77225781Y-23545155D01*
X77332370Y-23632630D01*
X77419845Y-23739219D01*
X77484845Y-23860825D01*
X77524872Y-23992776D01*
X77538387Y-24130000D01*
X77524872Y-24267224D01*
X77484845Y-24399175D01*
X77419845Y-24520781D01*
X77332370Y-24627370D01*
X77225781Y-24714845D01*
X77104175Y-24779845D01*
X76972224Y-24819872D01*
X76869390Y-24830000D01*
X76800610Y-24830000D01*
X76697776Y-24819872D01*
X76565825Y-24779845D01*
X76444219Y-24714845D01*
X76337630Y-24627370D01*
X76250155Y-24520781D01*
X76185155Y-24399175D01*
X76145128Y-24267224D01*
X76131613Y-24130000D01*
X76145128Y-23992776D01*
X76185155Y-23860825D01*
X76250155Y-23739219D01*
X76337630Y-23632630D01*
X76444219Y-23545155D01*
X76565825Y-23480155D01*
X76697776Y-23440128D01*
X76800610Y-23430000D01*
X76869390Y-23430000D01*
X76972224Y-23440128D01*
X76972224Y-23440128D01*
G37*
G36*
X32483015Y-23002234D02*
X32577268Y-23030825D01*
X32623697Y-23055643D01*
X32664129Y-23077254D01*
X32664131Y-23077255D01*
X32664130Y-23077255D01*
X32740264Y-23139736D01*
X32802745Y-23215870D01*
X32849175Y-23302732D01*
X32877766Y-23396985D01*
X32887419Y-23495000D01*
X32877766Y-23593015D01*
X32849175Y-23687268D01*
X32826816Y-23729097D01*
X32802746Y-23774129D01*
X32740264Y-23850264D01*
X32664129Y-23912746D01*
X32623697Y-23934357D01*
X32577268Y-23959175D01*
X32483015Y-23987766D01*
X32409564Y-23995000D01*
X32360436Y-23995000D01*
X32286985Y-23987766D01*
X32192732Y-23959175D01*
X32146303Y-23934357D01*
X32105871Y-23912746D01*
X32029736Y-23850264D01*
X31967254Y-23774129D01*
X31943184Y-23729097D01*
X31920825Y-23687268D01*
X31892234Y-23593015D01*
X31882581Y-23495000D01*
X31892234Y-23396985D01*
X31920825Y-23302732D01*
X31967255Y-23215870D01*
X32029736Y-23139736D01*
X32105870Y-23077255D01*
X32105869Y-23077255D01*
X32105871Y-23077254D01*
X32146303Y-23055643D01*
X32192732Y-23030825D01*
X32286985Y-23002234D01*
X32360436Y-22995000D01*
X32409564Y-22995000D01*
X32483015Y-23002234D01*
X32483015Y-23002234D01*
G37*
G36*
X33753015Y-23002234D02*
X33847268Y-23030825D01*
X33893697Y-23055643D01*
X33934129Y-23077254D01*
X33934131Y-23077255D01*
X33934130Y-23077255D01*
X34010264Y-23139736D01*
X34072745Y-23215870D01*
X34119175Y-23302732D01*
X34147766Y-23396985D01*
X34157419Y-23495000D01*
X34147766Y-23593015D01*
X34119175Y-23687268D01*
X34096816Y-23729097D01*
X34072746Y-23774129D01*
X34010264Y-23850264D01*
X33934129Y-23912746D01*
X33893697Y-23934357D01*
X33847268Y-23959175D01*
X33753015Y-23987766D01*
X33679564Y-23995000D01*
X33630436Y-23995000D01*
X33556985Y-23987766D01*
X33462732Y-23959175D01*
X33416303Y-23934357D01*
X33375871Y-23912746D01*
X33299736Y-23850264D01*
X33237254Y-23774129D01*
X33213184Y-23729097D01*
X33190825Y-23687268D01*
X33162234Y-23593015D01*
X33152581Y-23495000D01*
X33162234Y-23396985D01*
X33190825Y-23302732D01*
X33237255Y-23215870D01*
X33299736Y-23139736D01*
X33375870Y-23077255D01*
X33375869Y-23077255D01*
X33375871Y-23077254D01*
X33416303Y-23055643D01*
X33462732Y-23030825D01*
X33556985Y-23002234D01*
X33630436Y-22995000D01*
X33679564Y-22995000D01*
X33753015Y-23002234D01*
X33753015Y-23002234D01*
G37*
G36*
X23786630Y-22102299D02*
X23946855Y-22150903D01*
X24094520Y-22229831D01*
X24223949Y-22336051D01*
X24330169Y-22465480D01*
X24409097Y-22613145D01*
X24457701Y-22773370D01*
X24474112Y-22940000D01*
X24457701Y-23106630D01*
X24409097Y-23266855D01*
X24330169Y-23414520D01*
X24223949Y-23543949D01*
X24094520Y-23650169D01*
X23946855Y-23729097D01*
X23786630Y-23777701D01*
X23661752Y-23790000D01*
X23328248Y-23790000D01*
X23203370Y-23777701D01*
X23043145Y-23729097D01*
X22895480Y-23650169D01*
X22766051Y-23543949D01*
X22659831Y-23414520D01*
X22580903Y-23266855D01*
X22532299Y-23106630D01*
X22515888Y-22940000D01*
X22532299Y-22773370D01*
X22580903Y-22613145D01*
X22659831Y-22465480D01*
X22766051Y-22336051D01*
X22895480Y-22229831D01*
X23043145Y-22150903D01*
X23203370Y-22102299D01*
X23328248Y-22090000D01*
X23661752Y-22090000D01*
X23786630Y-22102299D01*
X23786630Y-22102299D01*
G37*
G36*
X33753015Y-21732234D02*
X33847268Y-21760825D01*
X33893697Y-21785643D01*
X33934129Y-21807254D01*
X33934131Y-21807255D01*
X33934130Y-21807255D01*
X34010264Y-21869736D01*
X34072745Y-21945870D01*
X34119175Y-22032732D01*
X34147766Y-22126985D01*
X34157419Y-22225000D01*
X34147766Y-22323015D01*
X34119175Y-22417268D01*
X34094357Y-22463697D01*
X34072746Y-22504129D01*
X34010264Y-22580264D01*
X33934129Y-22642746D01*
X33893697Y-22664357D01*
X33847268Y-22689175D01*
X33753015Y-22717766D01*
X33679564Y-22725000D01*
X33630436Y-22725000D01*
X33556985Y-22717766D01*
X33462732Y-22689175D01*
X33416303Y-22664357D01*
X33375871Y-22642746D01*
X33299736Y-22580264D01*
X33237254Y-22504129D01*
X33215643Y-22463697D01*
X33190825Y-22417268D01*
X33162234Y-22323015D01*
X33152581Y-22225000D01*
X33162234Y-22126985D01*
X33190825Y-22032732D01*
X33237255Y-21945870D01*
X33299736Y-21869736D01*
X33375870Y-21807255D01*
X33375869Y-21807255D01*
X33375871Y-21807254D01*
X33416303Y-21785643D01*
X33462732Y-21760825D01*
X33556985Y-21732234D01*
X33630436Y-21725000D01*
X33679564Y-21725000D01*
X33753015Y-21732234D01*
X33753015Y-21732234D01*
G37*
G36*
X32885000Y-22725000D02*
X31885000Y-22725000D01*
X31885000Y-21725000D01*
X32885000Y-21725000D01*
X32885000Y-22725000D01*
X32885000Y-22725000D01*
G37*
M02*
