G04 #@! TF.GenerationSoftware,KiCad,Pcbnew,(5.1.5)-3*
G04 #@! TF.CreationDate,2020-01-16T22:10:17+01:00*
G04 #@! TF.ProjectId,airMon,6169724d-6f6e-42e6-9b69-6361645f7063,0.1*
G04 #@! TF.SameCoordinates,Original*
G04 #@! TF.FileFunction,Soldermask,Bot*
G04 #@! TF.FilePolarity,Negative*
%FSLAX46Y46*%
G04 Gerber Fmt 4.6, Leading zero omitted, Abs format (unit mm)*
G04 Created by KiCad (PCBNEW (5.1.5)-3) date 2020-01-16 22:10:17*
%MOMM*%
%LPD*%
G04 APERTURE LIST*
%ADD10C,0.100000*%
G04 APERTURE END LIST*
D10*
G36*
X33267935Y-116022664D02*
G01*
X33422624Y-116086739D01*
X33422626Y-116086740D01*
X33561844Y-116179762D01*
X33680238Y-116298156D01*
X33773260Y-116437374D01*
X33773261Y-116437376D01*
X33837336Y-116592065D01*
X33870000Y-116756281D01*
X33870000Y-116923719D01*
X33837336Y-117087935D01*
X33773261Y-117242624D01*
X33773260Y-117242626D01*
X33680238Y-117381844D01*
X33561844Y-117500238D01*
X33422626Y-117593260D01*
X33422625Y-117593261D01*
X33422624Y-117593261D01*
X33267935Y-117657336D01*
X33103719Y-117690000D01*
X32936281Y-117690000D01*
X32772065Y-117657336D01*
X32617376Y-117593261D01*
X32617375Y-117593261D01*
X32617374Y-117593260D01*
X32478156Y-117500238D01*
X32359762Y-117381844D01*
X32266740Y-117242626D01*
X32266739Y-117242624D01*
X32202664Y-117087935D01*
X32170000Y-116923719D01*
X32170000Y-116756281D01*
X32202664Y-116592065D01*
X32266739Y-116437376D01*
X32266740Y-116437374D01*
X32359762Y-116298156D01*
X32478156Y-116179762D01*
X32617374Y-116086740D01*
X32617376Y-116086739D01*
X32772065Y-116022664D01*
X32936281Y-115990000D01*
X33103719Y-115990000D01*
X33267935Y-116022664D01*
G37*
G36*
X70732935Y-116022664D02*
G01*
X70887624Y-116086739D01*
X70887626Y-116086740D01*
X71026844Y-116179762D01*
X71145238Y-116298156D01*
X71238260Y-116437374D01*
X71238261Y-116437376D01*
X71302336Y-116592065D01*
X71335000Y-116756281D01*
X71335000Y-116923719D01*
X71302336Y-117087935D01*
X71238261Y-117242624D01*
X71238260Y-117242626D01*
X71145238Y-117381844D01*
X71026844Y-117500238D01*
X70887626Y-117593260D01*
X70887625Y-117593261D01*
X70887624Y-117593261D01*
X70732935Y-117657336D01*
X70568719Y-117690000D01*
X70401281Y-117690000D01*
X70237065Y-117657336D01*
X70082376Y-117593261D01*
X70082375Y-117593261D01*
X70082374Y-117593260D01*
X69943156Y-117500238D01*
X69824762Y-117381844D01*
X69731740Y-117242626D01*
X69731739Y-117242624D01*
X69667664Y-117087935D01*
X69635000Y-116923719D01*
X69635000Y-116756281D01*
X69667664Y-116592065D01*
X69731739Y-116437376D01*
X69731740Y-116437374D01*
X69824762Y-116298156D01*
X69943156Y-116179762D01*
X70082374Y-116086740D01*
X70082376Y-116086739D01*
X70237065Y-116022664D01*
X70401281Y-115990000D01*
X70568719Y-115990000D01*
X70732935Y-116022664D01*
G37*
G36*
X68192935Y-116022664D02*
G01*
X68347624Y-116086739D01*
X68347626Y-116086740D01*
X68486844Y-116179762D01*
X68605238Y-116298156D01*
X68698260Y-116437374D01*
X68698261Y-116437376D01*
X68762336Y-116592065D01*
X68795000Y-116756281D01*
X68795000Y-116923719D01*
X68762336Y-117087935D01*
X68698261Y-117242624D01*
X68698260Y-117242626D01*
X68605238Y-117381844D01*
X68486844Y-117500238D01*
X68347626Y-117593260D01*
X68347625Y-117593261D01*
X68347624Y-117593261D01*
X68192935Y-117657336D01*
X68028719Y-117690000D01*
X67861281Y-117690000D01*
X67697065Y-117657336D01*
X67542376Y-117593261D01*
X67542375Y-117593261D01*
X67542374Y-117593260D01*
X67403156Y-117500238D01*
X67284762Y-117381844D01*
X67191740Y-117242626D01*
X67191739Y-117242624D01*
X67127664Y-117087935D01*
X67095000Y-116923719D01*
X67095000Y-116756281D01*
X67127664Y-116592065D01*
X67191739Y-116437376D01*
X67191740Y-116437374D01*
X67284762Y-116298156D01*
X67403156Y-116179762D01*
X67542374Y-116086740D01*
X67542376Y-116086739D01*
X67697065Y-116022664D01*
X67861281Y-115990000D01*
X68028719Y-115990000D01*
X68192935Y-116022664D01*
G37*
G36*
X73875000Y-117690000D02*
G01*
X72175000Y-117690000D01*
X72175000Y-115990000D01*
X73875000Y-115990000D01*
X73875000Y-117690000D01*
G37*
G36*
X28790000Y-117690000D02*
G01*
X27090000Y-117690000D01*
X27090000Y-115990000D01*
X28790000Y-115990000D01*
X28790000Y-117690000D01*
G37*
G36*
X35807935Y-116022664D02*
G01*
X35962624Y-116086739D01*
X35962626Y-116086740D01*
X36101844Y-116179762D01*
X36220238Y-116298156D01*
X36313260Y-116437374D01*
X36313261Y-116437376D01*
X36377336Y-116592065D01*
X36410000Y-116756281D01*
X36410000Y-116923719D01*
X36377336Y-117087935D01*
X36313261Y-117242624D01*
X36313260Y-117242626D01*
X36220238Y-117381844D01*
X36101844Y-117500238D01*
X35962626Y-117593260D01*
X35962625Y-117593261D01*
X35962624Y-117593261D01*
X35807935Y-117657336D01*
X35643719Y-117690000D01*
X35476281Y-117690000D01*
X35312065Y-117657336D01*
X35157376Y-117593261D01*
X35157375Y-117593261D01*
X35157374Y-117593260D01*
X35018156Y-117500238D01*
X34899762Y-117381844D01*
X34806740Y-117242626D01*
X34806739Y-117242624D01*
X34742664Y-117087935D01*
X34710000Y-116923719D01*
X34710000Y-116756281D01*
X34742664Y-116592065D01*
X34806739Y-116437376D01*
X34806740Y-116437374D01*
X34899762Y-116298156D01*
X35018156Y-116179762D01*
X35157374Y-116086740D01*
X35157376Y-116086739D01*
X35312065Y-116022664D01*
X35476281Y-115990000D01*
X35643719Y-115990000D01*
X35807935Y-116022664D01*
G37*
G36*
X30727935Y-116022664D02*
G01*
X30882624Y-116086739D01*
X30882626Y-116086740D01*
X31021844Y-116179762D01*
X31140238Y-116298156D01*
X31233260Y-116437374D01*
X31233261Y-116437376D01*
X31297336Y-116592065D01*
X31330000Y-116756281D01*
X31330000Y-116923719D01*
X31297336Y-117087935D01*
X31233261Y-117242624D01*
X31233260Y-117242626D01*
X31140238Y-117381844D01*
X31021844Y-117500238D01*
X30882626Y-117593260D01*
X30882625Y-117593261D01*
X30882624Y-117593261D01*
X30727935Y-117657336D01*
X30563719Y-117690000D01*
X30396281Y-117690000D01*
X30232065Y-117657336D01*
X30077376Y-117593261D01*
X30077375Y-117593261D01*
X30077374Y-117593260D01*
X29938156Y-117500238D01*
X29819762Y-117381844D01*
X29726740Y-117242626D01*
X29726739Y-117242624D01*
X29662664Y-117087935D01*
X29630000Y-116923719D01*
X29630000Y-116756281D01*
X29662664Y-116592065D01*
X29726739Y-116437376D01*
X29726740Y-116437374D01*
X29819762Y-116298156D01*
X29938156Y-116179762D01*
X30077374Y-116086740D01*
X30077376Y-116086739D01*
X30232065Y-116022664D01*
X30396281Y-115990000D01*
X30563719Y-115990000D01*
X30727935Y-116022664D01*
G37*
G36*
X33267935Y-109672664D02*
G01*
X33422624Y-109736739D01*
X33422626Y-109736740D01*
X33561844Y-109829762D01*
X33680238Y-109948156D01*
X33773260Y-110087374D01*
X33773261Y-110087376D01*
X33837336Y-110242065D01*
X33870000Y-110406281D01*
X33870000Y-110573719D01*
X33837336Y-110737935D01*
X33773261Y-110892624D01*
X33773260Y-110892626D01*
X33680238Y-111031844D01*
X33561844Y-111150238D01*
X33422626Y-111243260D01*
X33422625Y-111243261D01*
X33422624Y-111243261D01*
X33267935Y-111307336D01*
X33103719Y-111340000D01*
X32936281Y-111340000D01*
X32772065Y-111307336D01*
X32617376Y-111243261D01*
X32617375Y-111243261D01*
X32617374Y-111243260D01*
X32478156Y-111150238D01*
X32359762Y-111031844D01*
X32266740Y-110892626D01*
X32266739Y-110892624D01*
X32202664Y-110737935D01*
X32170000Y-110573719D01*
X32170000Y-110406281D01*
X32202664Y-110242065D01*
X32266739Y-110087376D01*
X32266740Y-110087374D01*
X32359762Y-109948156D01*
X32478156Y-109829762D01*
X32617374Y-109736740D01*
X32617376Y-109736739D01*
X32772065Y-109672664D01*
X32936281Y-109640000D01*
X33103719Y-109640000D01*
X33267935Y-109672664D01*
G37*
G36*
X28790000Y-111340000D02*
G01*
X27090000Y-111340000D01*
X27090000Y-109640000D01*
X28790000Y-109640000D01*
X28790000Y-111340000D01*
G37*
G36*
X30727935Y-109672664D02*
G01*
X30882624Y-109736739D01*
X30882626Y-109736740D01*
X31021844Y-109829762D01*
X31140238Y-109948156D01*
X31233260Y-110087374D01*
X31233261Y-110087376D01*
X31297336Y-110242065D01*
X31330000Y-110406281D01*
X31330000Y-110573719D01*
X31297336Y-110737935D01*
X31233261Y-110892624D01*
X31233260Y-110892626D01*
X31140238Y-111031844D01*
X31021844Y-111150238D01*
X30882626Y-111243260D01*
X30882625Y-111243261D01*
X30882624Y-111243261D01*
X30727935Y-111307336D01*
X30563719Y-111340000D01*
X30396281Y-111340000D01*
X30232065Y-111307336D01*
X30077376Y-111243261D01*
X30077375Y-111243261D01*
X30077374Y-111243260D01*
X29938156Y-111150238D01*
X29819762Y-111031844D01*
X29726740Y-110892626D01*
X29726739Y-110892624D01*
X29662664Y-110737935D01*
X29630000Y-110573719D01*
X29630000Y-110406281D01*
X29662664Y-110242065D01*
X29726739Y-110087376D01*
X29726740Y-110087374D01*
X29819762Y-109948156D01*
X29938156Y-109829762D01*
X30077374Y-109736740D01*
X30077376Y-109736739D01*
X30232065Y-109672664D01*
X30396281Y-109640000D01*
X30563719Y-109640000D01*
X30727935Y-109672664D01*
G37*
G36*
X35807935Y-109672664D02*
G01*
X35962624Y-109736739D01*
X35962626Y-109736740D01*
X36101844Y-109829762D01*
X36220238Y-109948156D01*
X36313260Y-110087374D01*
X36313261Y-110087376D01*
X36377336Y-110242065D01*
X36410000Y-110406281D01*
X36410000Y-110573719D01*
X36377336Y-110737935D01*
X36313261Y-110892624D01*
X36313260Y-110892626D01*
X36220238Y-111031844D01*
X36101844Y-111150238D01*
X35962626Y-111243260D01*
X35962625Y-111243261D01*
X35962624Y-111243261D01*
X35807935Y-111307336D01*
X35643719Y-111340000D01*
X35476281Y-111340000D01*
X35312065Y-111307336D01*
X35157376Y-111243261D01*
X35157375Y-111243261D01*
X35157374Y-111243260D01*
X35018156Y-111150238D01*
X34899762Y-111031844D01*
X34806740Y-110892626D01*
X34806739Y-110892624D01*
X34742664Y-110737935D01*
X34710000Y-110573719D01*
X34710000Y-110406281D01*
X34742664Y-110242065D01*
X34806739Y-110087376D01*
X34806740Y-110087374D01*
X34899762Y-109948156D01*
X35018156Y-109829762D01*
X35157374Y-109736740D01*
X35157376Y-109736739D01*
X35312065Y-109672664D01*
X35476281Y-109640000D01*
X35643719Y-109640000D01*
X35807935Y-109672664D01*
G37*
G36*
X73875000Y-110705000D02*
G01*
X72175000Y-110705000D01*
X72175000Y-109005000D01*
X73875000Y-109005000D01*
X73875000Y-110705000D01*
G37*
G36*
X70732935Y-109037664D02*
G01*
X70887624Y-109101739D01*
X70887626Y-109101740D01*
X71026844Y-109194762D01*
X71145238Y-109313156D01*
X71238260Y-109452374D01*
X71238261Y-109452376D01*
X71302336Y-109607065D01*
X71335000Y-109771281D01*
X71335000Y-109938719D01*
X71302336Y-110102935D01*
X71244706Y-110242064D01*
X71238260Y-110257626D01*
X71145238Y-110396844D01*
X71026844Y-110515238D01*
X70887626Y-110608260D01*
X70887625Y-110608261D01*
X70887624Y-110608261D01*
X70732935Y-110672336D01*
X70568719Y-110705000D01*
X70401281Y-110705000D01*
X70237065Y-110672336D01*
X70082376Y-110608261D01*
X70082375Y-110608261D01*
X70082374Y-110608260D01*
X69943156Y-110515238D01*
X69824762Y-110396844D01*
X69731740Y-110257626D01*
X69725294Y-110242064D01*
X69667664Y-110102935D01*
X69635000Y-109938719D01*
X69635000Y-109771281D01*
X69667664Y-109607065D01*
X69731739Y-109452376D01*
X69731740Y-109452374D01*
X69824762Y-109313156D01*
X69943156Y-109194762D01*
X70082374Y-109101740D01*
X70082376Y-109101739D01*
X70237065Y-109037664D01*
X70401281Y-109005000D01*
X70568719Y-109005000D01*
X70732935Y-109037664D01*
G37*
G36*
X68192935Y-109037664D02*
G01*
X68347624Y-109101739D01*
X68347626Y-109101740D01*
X68486844Y-109194762D01*
X68605238Y-109313156D01*
X68698260Y-109452374D01*
X68698261Y-109452376D01*
X68762336Y-109607065D01*
X68795000Y-109771281D01*
X68795000Y-109938719D01*
X68762336Y-110102935D01*
X68704706Y-110242064D01*
X68698260Y-110257626D01*
X68605238Y-110396844D01*
X68486844Y-110515238D01*
X68347626Y-110608260D01*
X68347625Y-110608261D01*
X68347624Y-110608261D01*
X68192935Y-110672336D01*
X68028719Y-110705000D01*
X67861281Y-110705000D01*
X67697065Y-110672336D01*
X67542376Y-110608261D01*
X67542375Y-110608261D01*
X67542374Y-110608260D01*
X67403156Y-110515238D01*
X67284762Y-110396844D01*
X67191740Y-110257626D01*
X67185294Y-110242064D01*
X67127664Y-110102935D01*
X67095000Y-109938719D01*
X67095000Y-109771281D01*
X67127664Y-109607065D01*
X67191739Y-109452376D01*
X67191740Y-109452374D01*
X67284762Y-109313156D01*
X67403156Y-109194762D01*
X67542374Y-109101740D01*
X67542376Y-109101739D01*
X67697065Y-109037664D01*
X67861281Y-109005000D01*
X68028719Y-109005000D01*
X68192935Y-109037664D01*
G37*
G36*
X30727935Y-105862664D02*
G01*
X30882624Y-105926739D01*
X30882626Y-105926740D01*
X31021844Y-106019762D01*
X31140238Y-106138156D01*
X31233260Y-106277374D01*
X31233261Y-106277376D01*
X31297336Y-106432065D01*
X31330000Y-106596281D01*
X31330000Y-106763719D01*
X31297336Y-106927935D01*
X31233261Y-107082624D01*
X31233260Y-107082626D01*
X31140238Y-107221844D01*
X31021844Y-107340238D01*
X30882626Y-107433260D01*
X30882625Y-107433261D01*
X30882624Y-107433261D01*
X30727935Y-107497336D01*
X30563719Y-107530000D01*
X30396281Y-107530000D01*
X30232065Y-107497336D01*
X30077376Y-107433261D01*
X30077375Y-107433261D01*
X30077374Y-107433260D01*
X29938156Y-107340238D01*
X29819762Y-107221844D01*
X29726740Y-107082626D01*
X29726739Y-107082624D01*
X29662664Y-106927935D01*
X29630000Y-106763719D01*
X29630000Y-106596281D01*
X29662664Y-106432065D01*
X29726739Y-106277376D01*
X29726740Y-106277374D01*
X29819762Y-106138156D01*
X29938156Y-106019762D01*
X30077374Y-105926740D01*
X30077376Y-105926739D01*
X30232065Y-105862664D01*
X30396281Y-105830000D01*
X30563719Y-105830000D01*
X30727935Y-105862664D01*
G37*
G36*
X28790000Y-107530000D02*
G01*
X27090000Y-107530000D01*
X27090000Y-105830000D01*
X28790000Y-105830000D01*
X28790000Y-107530000D01*
G37*
G36*
X33267935Y-105862664D02*
G01*
X33422624Y-105926739D01*
X33422626Y-105926740D01*
X33561844Y-106019762D01*
X33680238Y-106138156D01*
X33773260Y-106277374D01*
X33773261Y-106277376D01*
X33837336Y-106432065D01*
X33870000Y-106596281D01*
X33870000Y-106763719D01*
X33837336Y-106927935D01*
X33773261Y-107082624D01*
X33773260Y-107082626D01*
X33680238Y-107221844D01*
X33561844Y-107340238D01*
X33422626Y-107433260D01*
X33422625Y-107433261D01*
X33422624Y-107433261D01*
X33267935Y-107497336D01*
X33103719Y-107530000D01*
X32936281Y-107530000D01*
X32772065Y-107497336D01*
X32617376Y-107433261D01*
X32617375Y-107433261D01*
X32617374Y-107433260D01*
X32478156Y-107340238D01*
X32359762Y-107221844D01*
X32266740Y-107082626D01*
X32266739Y-107082624D01*
X32202664Y-106927935D01*
X32170000Y-106763719D01*
X32170000Y-106596281D01*
X32202664Y-106432065D01*
X32266739Y-106277376D01*
X32266740Y-106277374D01*
X32359762Y-106138156D01*
X32478156Y-106019762D01*
X32617374Y-105926740D01*
X32617376Y-105926739D01*
X32772065Y-105862664D01*
X32936281Y-105830000D01*
X33103719Y-105830000D01*
X33267935Y-105862664D01*
G37*
G36*
X35807935Y-105862664D02*
G01*
X35962624Y-105926739D01*
X35962626Y-105926740D01*
X36101844Y-106019762D01*
X36220238Y-106138156D01*
X36313260Y-106277374D01*
X36313261Y-106277376D01*
X36377336Y-106432065D01*
X36410000Y-106596281D01*
X36410000Y-106763719D01*
X36377336Y-106927935D01*
X36313261Y-107082624D01*
X36313260Y-107082626D01*
X36220238Y-107221844D01*
X36101844Y-107340238D01*
X35962626Y-107433260D01*
X35962625Y-107433261D01*
X35962624Y-107433261D01*
X35807935Y-107497336D01*
X35643719Y-107530000D01*
X35476281Y-107530000D01*
X35312065Y-107497336D01*
X35157376Y-107433261D01*
X35157375Y-107433261D01*
X35157374Y-107433260D01*
X35018156Y-107340238D01*
X34899762Y-107221844D01*
X34806740Y-107082626D01*
X34806739Y-107082624D01*
X34742664Y-106927935D01*
X34710000Y-106763719D01*
X34710000Y-106596281D01*
X34742664Y-106432065D01*
X34806739Y-106277376D01*
X34806740Y-106277374D01*
X34899762Y-106138156D01*
X35018156Y-106019762D01*
X35157374Y-105926740D01*
X35157376Y-105926739D01*
X35312065Y-105862664D01*
X35476281Y-105830000D01*
X35643719Y-105830000D01*
X35807935Y-105862664D01*
G37*
G36*
X35807935Y-102052664D02*
G01*
X35962624Y-102116739D01*
X35962626Y-102116740D01*
X36101844Y-102209762D01*
X36220238Y-102328156D01*
X36313260Y-102467374D01*
X36313261Y-102467376D01*
X36377336Y-102622065D01*
X36410000Y-102786281D01*
X36410000Y-102953719D01*
X36377336Y-103117935D01*
X36313261Y-103272624D01*
X36313260Y-103272626D01*
X36220238Y-103411844D01*
X36101844Y-103530238D01*
X35962626Y-103623260D01*
X35962625Y-103623261D01*
X35962624Y-103623261D01*
X35807935Y-103687336D01*
X35643719Y-103720000D01*
X35476281Y-103720000D01*
X35312065Y-103687336D01*
X35157376Y-103623261D01*
X35157375Y-103623261D01*
X35157374Y-103623260D01*
X35018156Y-103530238D01*
X34899762Y-103411844D01*
X34806740Y-103272626D01*
X34806739Y-103272624D01*
X34742664Y-103117935D01*
X34710000Y-102953719D01*
X34710000Y-102786281D01*
X34742664Y-102622065D01*
X34806739Y-102467376D01*
X34806740Y-102467374D01*
X34899762Y-102328156D01*
X35018156Y-102209762D01*
X35157374Y-102116740D01*
X35157376Y-102116739D01*
X35312065Y-102052664D01*
X35476281Y-102020000D01*
X35643719Y-102020000D01*
X35807935Y-102052664D01*
G37*
G36*
X30727935Y-102052664D02*
G01*
X30882624Y-102116739D01*
X30882626Y-102116740D01*
X31021844Y-102209762D01*
X31140238Y-102328156D01*
X31233260Y-102467374D01*
X31233261Y-102467376D01*
X31297336Y-102622065D01*
X31330000Y-102786281D01*
X31330000Y-102953719D01*
X31297336Y-103117935D01*
X31233261Y-103272624D01*
X31233260Y-103272626D01*
X31140238Y-103411844D01*
X31021844Y-103530238D01*
X30882626Y-103623260D01*
X30882625Y-103623261D01*
X30882624Y-103623261D01*
X30727935Y-103687336D01*
X30563719Y-103720000D01*
X30396281Y-103720000D01*
X30232065Y-103687336D01*
X30077376Y-103623261D01*
X30077375Y-103623261D01*
X30077374Y-103623260D01*
X29938156Y-103530238D01*
X29819762Y-103411844D01*
X29726740Y-103272626D01*
X29726739Y-103272624D01*
X29662664Y-103117935D01*
X29630000Y-102953719D01*
X29630000Y-102786281D01*
X29662664Y-102622065D01*
X29726739Y-102467376D01*
X29726740Y-102467374D01*
X29819762Y-102328156D01*
X29938156Y-102209762D01*
X30077374Y-102116740D01*
X30077376Y-102116739D01*
X30232065Y-102052664D01*
X30396281Y-102020000D01*
X30563719Y-102020000D01*
X30727935Y-102052664D01*
G37*
G36*
X28790000Y-103720000D02*
G01*
X27090000Y-103720000D01*
X27090000Y-102020000D01*
X28790000Y-102020000D01*
X28790000Y-103720000D01*
G37*
G36*
X33267935Y-102052664D02*
G01*
X33422624Y-102116739D01*
X33422626Y-102116740D01*
X33561844Y-102209762D01*
X33680238Y-102328156D01*
X33773260Y-102467374D01*
X33773261Y-102467376D01*
X33837336Y-102622065D01*
X33870000Y-102786281D01*
X33870000Y-102953719D01*
X33837336Y-103117935D01*
X33773261Y-103272624D01*
X33773260Y-103272626D01*
X33680238Y-103411844D01*
X33561844Y-103530238D01*
X33422626Y-103623260D01*
X33422625Y-103623261D01*
X33422624Y-103623261D01*
X33267935Y-103687336D01*
X33103719Y-103720000D01*
X32936281Y-103720000D01*
X32772065Y-103687336D01*
X32617376Y-103623261D01*
X32617375Y-103623261D01*
X32617374Y-103623260D01*
X32478156Y-103530238D01*
X32359762Y-103411844D01*
X32266740Y-103272626D01*
X32266739Y-103272624D01*
X32202664Y-103117935D01*
X32170000Y-102953719D01*
X32170000Y-102786281D01*
X32202664Y-102622065D01*
X32266739Y-102467376D01*
X32266740Y-102467374D01*
X32359762Y-102328156D01*
X32478156Y-102209762D01*
X32617374Y-102116740D01*
X32617376Y-102116739D01*
X32772065Y-102052664D01*
X32936281Y-102020000D01*
X33103719Y-102020000D01*
X33267935Y-102052664D01*
G37*
G36*
X30727935Y-98242664D02*
G01*
X30882624Y-98306739D01*
X30882626Y-98306740D01*
X31021844Y-98399762D01*
X31140238Y-98518156D01*
X31146449Y-98527452D01*
X31233261Y-98657376D01*
X31297336Y-98812065D01*
X31330000Y-98976281D01*
X31330000Y-99143719D01*
X31297336Y-99307935D01*
X31233261Y-99462624D01*
X31233260Y-99462626D01*
X31140238Y-99601844D01*
X31021844Y-99720238D01*
X30882626Y-99813260D01*
X30882625Y-99813261D01*
X30882624Y-99813261D01*
X30727935Y-99877336D01*
X30563719Y-99910000D01*
X30396281Y-99910000D01*
X30232065Y-99877336D01*
X30077376Y-99813261D01*
X30077375Y-99813261D01*
X30077374Y-99813260D01*
X29938156Y-99720238D01*
X29819762Y-99601844D01*
X29726740Y-99462626D01*
X29726739Y-99462624D01*
X29662664Y-99307935D01*
X29630000Y-99143719D01*
X29630000Y-98976281D01*
X29662664Y-98812065D01*
X29726739Y-98657376D01*
X29813551Y-98527452D01*
X29819762Y-98518156D01*
X29938156Y-98399762D01*
X30077374Y-98306740D01*
X30077376Y-98306739D01*
X30232065Y-98242664D01*
X30396281Y-98210000D01*
X30563719Y-98210000D01*
X30727935Y-98242664D01*
G37*
G36*
X35807935Y-98242664D02*
G01*
X35962624Y-98306739D01*
X35962626Y-98306740D01*
X36101844Y-98399762D01*
X36220238Y-98518156D01*
X36226449Y-98527452D01*
X36313261Y-98657376D01*
X36377336Y-98812065D01*
X36410000Y-98976281D01*
X36410000Y-99143719D01*
X36377336Y-99307935D01*
X36313261Y-99462624D01*
X36313260Y-99462626D01*
X36220238Y-99601844D01*
X36101844Y-99720238D01*
X35962626Y-99813260D01*
X35962625Y-99813261D01*
X35962624Y-99813261D01*
X35807935Y-99877336D01*
X35643719Y-99910000D01*
X35476281Y-99910000D01*
X35312065Y-99877336D01*
X35157376Y-99813261D01*
X35157375Y-99813261D01*
X35157374Y-99813260D01*
X35018156Y-99720238D01*
X34899762Y-99601844D01*
X34806740Y-99462626D01*
X34806739Y-99462624D01*
X34742664Y-99307935D01*
X34710000Y-99143719D01*
X34710000Y-98976281D01*
X34742664Y-98812065D01*
X34806739Y-98657376D01*
X34893551Y-98527452D01*
X34899762Y-98518156D01*
X35018156Y-98399762D01*
X35157374Y-98306740D01*
X35157376Y-98306739D01*
X35312065Y-98242664D01*
X35476281Y-98210000D01*
X35643719Y-98210000D01*
X35807935Y-98242664D01*
G37*
G36*
X28790000Y-99910000D02*
G01*
X27090000Y-99910000D01*
X27090000Y-98210000D01*
X28790000Y-98210000D01*
X28790000Y-99910000D01*
G37*
G36*
X33267935Y-98242664D02*
G01*
X33422624Y-98306739D01*
X33422626Y-98306740D01*
X33561844Y-98399762D01*
X33680238Y-98518156D01*
X33686449Y-98527452D01*
X33773261Y-98657376D01*
X33837336Y-98812065D01*
X33870000Y-98976281D01*
X33870000Y-99143719D01*
X33837336Y-99307935D01*
X33773261Y-99462624D01*
X33773260Y-99462626D01*
X33680238Y-99601844D01*
X33561844Y-99720238D01*
X33422626Y-99813260D01*
X33422625Y-99813261D01*
X33422624Y-99813261D01*
X33267935Y-99877336D01*
X33103719Y-99910000D01*
X32936281Y-99910000D01*
X32772065Y-99877336D01*
X32617376Y-99813261D01*
X32617375Y-99813261D01*
X32617374Y-99813260D01*
X32478156Y-99720238D01*
X32359762Y-99601844D01*
X32266740Y-99462626D01*
X32266739Y-99462624D01*
X32202664Y-99307935D01*
X32170000Y-99143719D01*
X32170000Y-98976281D01*
X32202664Y-98812065D01*
X32266739Y-98657376D01*
X32353551Y-98527452D01*
X32359762Y-98518156D01*
X32478156Y-98399762D01*
X32617374Y-98306740D01*
X32617376Y-98306739D01*
X32772065Y-98242664D01*
X32936281Y-98210000D01*
X33103719Y-98210000D01*
X33267935Y-98242664D01*
G37*
G36*
X68853126Y-96066900D02*
G01*
X68988365Y-96093801D01*
X69243149Y-96199336D01*
X69472448Y-96352549D01*
X69667451Y-96547552D01*
X69820664Y-96776851D01*
X69926199Y-97031635D01*
X69980000Y-97302112D01*
X69980000Y-97577888D01*
X69926199Y-97848365D01*
X69820664Y-98103149D01*
X69667451Y-98332448D01*
X69472448Y-98527451D01*
X69243149Y-98680664D01*
X68988365Y-98786199D01*
X68858332Y-98812064D01*
X68717889Y-98840000D01*
X68442111Y-98840000D01*
X68301668Y-98812064D01*
X68171635Y-98786199D01*
X67916851Y-98680664D01*
X67687552Y-98527451D01*
X67492549Y-98332448D01*
X67339336Y-98103149D01*
X67233801Y-97848365D01*
X67180000Y-97577888D01*
X67180000Y-97302112D01*
X67233801Y-97031635D01*
X67339336Y-96776851D01*
X67492549Y-96547552D01*
X67687552Y-96352549D01*
X67916851Y-96199336D01*
X68171635Y-96093801D01*
X68306874Y-96066900D01*
X68442111Y-96040000D01*
X68717889Y-96040000D01*
X68853126Y-96066900D01*
G37*
G36*
X63958766Y-93268821D02*
G01*
X64095257Y-93325358D01*
X64218097Y-93407437D01*
X64322563Y-93511903D01*
X64404642Y-93634743D01*
X64461179Y-93771234D01*
X64490000Y-93916130D01*
X64490000Y-94063870D01*
X64461179Y-94208766D01*
X64404642Y-94345257D01*
X64322563Y-94468097D01*
X64218097Y-94572563D01*
X64095257Y-94654642D01*
X63958766Y-94711179D01*
X63813870Y-94740000D01*
X63666130Y-94740000D01*
X63521234Y-94711179D01*
X63384743Y-94654642D01*
X63261903Y-94572563D01*
X63157437Y-94468097D01*
X63075358Y-94345257D01*
X63018821Y-94208766D01*
X62990000Y-94063870D01*
X62990000Y-93916130D01*
X63018821Y-93771234D01*
X63075358Y-93634743D01*
X63157437Y-93511903D01*
X63261903Y-93407437D01*
X63384743Y-93325358D01*
X63521234Y-93268821D01*
X63666130Y-93240000D01*
X63813870Y-93240000D01*
X63958766Y-93268821D01*
G37*
G36*
X66498766Y-92248821D02*
G01*
X66635257Y-92305358D01*
X66758097Y-92387437D01*
X66862563Y-92491903D01*
X66944642Y-92614743D01*
X67001179Y-92751234D01*
X67030000Y-92896130D01*
X67030000Y-93043870D01*
X67001179Y-93188766D01*
X66944642Y-93325257D01*
X66862563Y-93448097D01*
X66758097Y-93552563D01*
X66635257Y-93634642D01*
X66498766Y-93691179D01*
X66353870Y-93720000D01*
X66206130Y-93720000D01*
X66061234Y-93691179D01*
X65924743Y-93634642D01*
X65801903Y-93552563D01*
X65697437Y-93448097D01*
X65615358Y-93325257D01*
X65558821Y-93188766D01*
X65530000Y-93043870D01*
X65530000Y-92896130D01*
X65558821Y-92751234D01*
X65615358Y-92614743D01*
X65697437Y-92491903D01*
X65801903Y-92387437D01*
X65924743Y-92305358D01*
X66061234Y-92248821D01*
X66206130Y-92220000D01*
X66353870Y-92220000D01*
X66498766Y-92248821D01*
G37*
G36*
X63958766Y-91228821D02*
G01*
X64095257Y-91285358D01*
X64218097Y-91367437D01*
X64322563Y-91471903D01*
X64404642Y-91594743D01*
X64461179Y-91731234D01*
X64490000Y-91876130D01*
X64490000Y-92023870D01*
X64461179Y-92168766D01*
X64404642Y-92305257D01*
X64322563Y-92428097D01*
X64218097Y-92532563D01*
X64095257Y-92614642D01*
X63958766Y-92671179D01*
X63813870Y-92700000D01*
X63666130Y-92700000D01*
X63521234Y-92671179D01*
X63384743Y-92614642D01*
X63261903Y-92532563D01*
X63157437Y-92428097D01*
X63075358Y-92305257D01*
X63018821Y-92168766D01*
X62990000Y-92023870D01*
X62990000Y-91876130D01*
X63018821Y-91731234D01*
X63075358Y-91594743D01*
X63157437Y-91471903D01*
X63261903Y-91367437D01*
X63384743Y-91285358D01*
X63521234Y-91228821D01*
X63666130Y-91200000D01*
X63813870Y-91200000D01*
X63958766Y-91228821D01*
G37*
G36*
X66498766Y-90208821D02*
G01*
X66635257Y-90265358D01*
X66758097Y-90347437D01*
X66862563Y-90451903D01*
X66944642Y-90574743D01*
X67001179Y-90711234D01*
X67030000Y-90856130D01*
X67030000Y-91003870D01*
X67001179Y-91148766D01*
X66944642Y-91285257D01*
X66862563Y-91408097D01*
X66758097Y-91512563D01*
X66635257Y-91594642D01*
X66498766Y-91651179D01*
X66353870Y-91680000D01*
X66206130Y-91680000D01*
X66061234Y-91651179D01*
X65924743Y-91594642D01*
X65801903Y-91512563D01*
X65697437Y-91408097D01*
X65615358Y-91285257D01*
X65558821Y-91148766D01*
X65530000Y-91003870D01*
X65530000Y-90856130D01*
X65558821Y-90711234D01*
X65615358Y-90574743D01*
X65697437Y-90451903D01*
X65801903Y-90347437D01*
X65924743Y-90265358D01*
X66061234Y-90208821D01*
X66206130Y-90180000D01*
X66353870Y-90180000D01*
X66498766Y-90208821D01*
G37*
G36*
X63958766Y-89188821D02*
G01*
X64095257Y-89245358D01*
X64218097Y-89327437D01*
X64322563Y-89431903D01*
X64404642Y-89554743D01*
X64461179Y-89691234D01*
X64490000Y-89836130D01*
X64490000Y-89983870D01*
X64461179Y-90128766D01*
X64404642Y-90265257D01*
X64322563Y-90388097D01*
X64218097Y-90492563D01*
X64095257Y-90574642D01*
X63958766Y-90631179D01*
X63813870Y-90660000D01*
X63666130Y-90660000D01*
X63521234Y-90631179D01*
X63384743Y-90574642D01*
X63261903Y-90492563D01*
X63157437Y-90388097D01*
X63075358Y-90265257D01*
X63018821Y-90128766D01*
X62990000Y-89983870D01*
X62990000Y-89836130D01*
X63018821Y-89691234D01*
X63075358Y-89554743D01*
X63157437Y-89431903D01*
X63261903Y-89327437D01*
X63384743Y-89245358D01*
X63521234Y-89188821D01*
X63666130Y-89160000D01*
X63813870Y-89160000D01*
X63958766Y-89188821D01*
G37*
G36*
X66498766Y-88168821D02*
G01*
X66635257Y-88225358D01*
X66758097Y-88307437D01*
X66862563Y-88411903D01*
X66944642Y-88534743D01*
X67001179Y-88671234D01*
X67030000Y-88816130D01*
X67030000Y-88963870D01*
X67001179Y-89108766D01*
X66944642Y-89245257D01*
X66862563Y-89368097D01*
X66758097Y-89472563D01*
X66635257Y-89554642D01*
X66498766Y-89611179D01*
X66353870Y-89640000D01*
X66206130Y-89640000D01*
X66061234Y-89611179D01*
X65924743Y-89554642D01*
X65801903Y-89472563D01*
X65697437Y-89368097D01*
X65615358Y-89245257D01*
X65558821Y-89108766D01*
X65530000Y-88963870D01*
X65530000Y-88816130D01*
X65558821Y-88671234D01*
X65615358Y-88534743D01*
X65697437Y-88411903D01*
X65801903Y-88307437D01*
X65924743Y-88225358D01*
X66061234Y-88168821D01*
X66206130Y-88140000D01*
X66353870Y-88140000D01*
X66498766Y-88168821D01*
G37*
G36*
X68853127Y-84066901D02*
G01*
X68988365Y-84093801D01*
X69243149Y-84199336D01*
X69472448Y-84352549D01*
X69667451Y-84547552D01*
X69820664Y-84776851D01*
X69926199Y-85031635D01*
X69980000Y-85302112D01*
X69980000Y-85577888D01*
X69926199Y-85848365D01*
X69820664Y-86103149D01*
X69667451Y-86332448D01*
X69472448Y-86527451D01*
X69243149Y-86680664D01*
X68988365Y-86786199D01*
X68853126Y-86813100D01*
X68717889Y-86840000D01*
X68442111Y-86840000D01*
X68306874Y-86813100D01*
X68171635Y-86786199D01*
X67916851Y-86680664D01*
X67687552Y-86527451D01*
X67492549Y-86332448D01*
X67339336Y-86103149D01*
X67233801Y-85848365D01*
X67180000Y-85577888D01*
X67180000Y-85302112D01*
X67233801Y-85031635D01*
X67339336Y-84776851D01*
X67492549Y-84547552D01*
X67687552Y-84352549D01*
X67916851Y-84199336D01*
X68171635Y-84093801D01*
X68306873Y-84066901D01*
X68442111Y-84040000D01*
X68717889Y-84040000D01*
X68853127Y-84066901D01*
G37*
G36*
X35807935Y-84272664D02*
G01*
X35962624Y-84336739D01*
X35962626Y-84336740D01*
X36101844Y-84429762D01*
X36220238Y-84548156D01*
X36313260Y-84687374D01*
X36313261Y-84687376D01*
X36377336Y-84842065D01*
X36410000Y-85006281D01*
X36410000Y-85173719D01*
X36377336Y-85337935D01*
X36313261Y-85492624D01*
X36313260Y-85492626D01*
X36220238Y-85631844D01*
X36101844Y-85750238D01*
X35962626Y-85843260D01*
X35962625Y-85843261D01*
X35962624Y-85843261D01*
X35807935Y-85907336D01*
X35643719Y-85940000D01*
X35476281Y-85940000D01*
X35312065Y-85907336D01*
X35157376Y-85843261D01*
X35157375Y-85843261D01*
X35157374Y-85843260D01*
X35018156Y-85750238D01*
X34899762Y-85631844D01*
X34806740Y-85492626D01*
X34806739Y-85492624D01*
X34742664Y-85337935D01*
X34710000Y-85173719D01*
X34710000Y-85006281D01*
X34742664Y-84842065D01*
X34806739Y-84687376D01*
X34806740Y-84687374D01*
X34899762Y-84548156D01*
X35018156Y-84429762D01*
X35157374Y-84336740D01*
X35157376Y-84336739D01*
X35312065Y-84272664D01*
X35476281Y-84240000D01*
X35643719Y-84240000D01*
X35807935Y-84272664D01*
G37*
G36*
X33267935Y-84272664D02*
G01*
X33422624Y-84336739D01*
X33422626Y-84336740D01*
X33561844Y-84429762D01*
X33680238Y-84548156D01*
X33773260Y-84687374D01*
X33773261Y-84687376D01*
X33837336Y-84842065D01*
X33870000Y-85006281D01*
X33870000Y-85173719D01*
X33837336Y-85337935D01*
X33773261Y-85492624D01*
X33773260Y-85492626D01*
X33680238Y-85631844D01*
X33561844Y-85750238D01*
X33422626Y-85843260D01*
X33422625Y-85843261D01*
X33422624Y-85843261D01*
X33267935Y-85907336D01*
X33103719Y-85940000D01*
X32936281Y-85940000D01*
X32772065Y-85907336D01*
X32617376Y-85843261D01*
X32617375Y-85843261D01*
X32617374Y-85843260D01*
X32478156Y-85750238D01*
X32359762Y-85631844D01*
X32266740Y-85492626D01*
X32266739Y-85492624D01*
X32202664Y-85337935D01*
X32170000Y-85173719D01*
X32170000Y-85006281D01*
X32202664Y-84842065D01*
X32266739Y-84687376D01*
X32266740Y-84687374D01*
X32359762Y-84548156D01*
X32478156Y-84429762D01*
X32617374Y-84336740D01*
X32617376Y-84336739D01*
X32772065Y-84272664D01*
X32936281Y-84240000D01*
X33103719Y-84240000D01*
X33267935Y-84272664D01*
G37*
G36*
X30727935Y-84272664D02*
G01*
X30882624Y-84336739D01*
X30882626Y-84336740D01*
X31021844Y-84429762D01*
X31140238Y-84548156D01*
X31233260Y-84687374D01*
X31233261Y-84687376D01*
X31297336Y-84842065D01*
X31330000Y-85006281D01*
X31330000Y-85173719D01*
X31297336Y-85337935D01*
X31233261Y-85492624D01*
X31233260Y-85492626D01*
X31140238Y-85631844D01*
X31021844Y-85750238D01*
X30882626Y-85843260D01*
X30882625Y-85843261D01*
X30882624Y-85843261D01*
X30727935Y-85907336D01*
X30563719Y-85940000D01*
X30396281Y-85940000D01*
X30232065Y-85907336D01*
X30077376Y-85843261D01*
X30077375Y-85843261D01*
X30077374Y-85843260D01*
X29938156Y-85750238D01*
X29819762Y-85631844D01*
X29726740Y-85492626D01*
X29726739Y-85492624D01*
X29662664Y-85337935D01*
X29630000Y-85173719D01*
X29630000Y-85006281D01*
X29662664Y-84842065D01*
X29726739Y-84687376D01*
X29726740Y-84687374D01*
X29819762Y-84548156D01*
X29938156Y-84429762D01*
X30077374Y-84336740D01*
X30077376Y-84336739D01*
X30232065Y-84272664D01*
X30396281Y-84240000D01*
X30563719Y-84240000D01*
X30727935Y-84272664D01*
G37*
G36*
X28790000Y-85940000D02*
G01*
X27090000Y-85940000D01*
X27090000Y-84240000D01*
X28790000Y-84240000D01*
X28790000Y-85940000D01*
G37*
G36*
X68853126Y-80826900D02*
G01*
X68988365Y-80853801D01*
X69243149Y-80959336D01*
X69472448Y-81112549D01*
X69667451Y-81307552D01*
X69820664Y-81536851D01*
X69926199Y-81791635D01*
X69980000Y-82062112D01*
X69980000Y-82337888D01*
X69926199Y-82608365D01*
X69820664Y-82863149D01*
X69667451Y-83092448D01*
X69472448Y-83287451D01*
X69243149Y-83440664D01*
X68988365Y-83546199D01*
X68853126Y-83573100D01*
X68717889Y-83600000D01*
X68442111Y-83600000D01*
X68306874Y-83573100D01*
X68171635Y-83546199D01*
X67916851Y-83440664D01*
X67687552Y-83287451D01*
X67492549Y-83092448D01*
X67339336Y-82863149D01*
X67233801Y-82608365D01*
X67180000Y-82337888D01*
X67180000Y-82062112D01*
X67233801Y-81791635D01*
X67339336Y-81536851D01*
X67492549Y-81307552D01*
X67687552Y-81112549D01*
X67916851Y-80959336D01*
X68171635Y-80853801D01*
X68306874Y-80826900D01*
X68442111Y-80800000D01*
X68717889Y-80800000D01*
X68853126Y-80826900D01*
G37*
G36*
X35807935Y-80462664D02*
G01*
X35962624Y-80526739D01*
X35962626Y-80526740D01*
X36101844Y-80619762D01*
X36220238Y-80738156D01*
X36297509Y-80853801D01*
X36313261Y-80877376D01*
X36377336Y-81032065D01*
X36410000Y-81196281D01*
X36410000Y-81363719D01*
X36377336Y-81527935D01*
X36313261Y-81682624D01*
X36313260Y-81682626D01*
X36220238Y-81821844D01*
X36101844Y-81940238D01*
X35962626Y-82033260D01*
X35962625Y-82033261D01*
X35962624Y-82033261D01*
X35807935Y-82097336D01*
X35643719Y-82130000D01*
X35476281Y-82130000D01*
X35312065Y-82097336D01*
X35157376Y-82033261D01*
X35157375Y-82033261D01*
X35157374Y-82033260D01*
X35018156Y-81940238D01*
X34899762Y-81821844D01*
X34806740Y-81682626D01*
X34806739Y-81682624D01*
X34742664Y-81527935D01*
X34710000Y-81363719D01*
X34710000Y-81196281D01*
X34742664Y-81032065D01*
X34806739Y-80877376D01*
X34822491Y-80853801D01*
X34899762Y-80738156D01*
X35018156Y-80619762D01*
X35157374Y-80526740D01*
X35157376Y-80526739D01*
X35312065Y-80462664D01*
X35476281Y-80430000D01*
X35643719Y-80430000D01*
X35807935Y-80462664D01*
G37*
G36*
X33267935Y-80462664D02*
G01*
X33422624Y-80526739D01*
X33422626Y-80526740D01*
X33561844Y-80619762D01*
X33680238Y-80738156D01*
X33757509Y-80853801D01*
X33773261Y-80877376D01*
X33837336Y-81032065D01*
X33870000Y-81196281D01*
X33870000Y-81363719D01*
X33837336Y-81527935D01*
X33773261Y-81682624D01*
X33773260Y-81682626D01*
X33680238Y-81821844D01*
X33561844Y-81940238D01*
X33422626Y-82033260D01*
X33422625Y-82033261D01*
X33422624Y-82033261D01*
X33267935Y-82097336D01*
X33103719Y-82130000D01*
X32936281Y-82130000D01*
X32772065Y-82097336D01*
X32617376Y-82033261D01*
X32617375Y-82033261D01*
X32617374Y-82033260D01*
X32478156Y-81940238D01*
X32359762Y-81821844D01*
X32266740Y-81682626D01*
X32266739Y-81682624D01*
X32202664Y-81527935D01*
X32170000Y-81363719D01*
X32170000Y-81196281D01*
X32202664Y-81032065D01*
X32266739Y-80877376D01*
X32282491Y-80853801D01*
X32359762Y-80738156D01*
X32478156Y-80619762D01*
X32617374Y-80526740D01*
X32617376Y-80526739D01*
X32772065Y-80462664D01*
X32936281Y-80430000D01*
X33103719Y-80430000D01*
X33267935Y-80462664D01*
G37*
G36*
X30727935Y-80462664D02*
G01*
X30882624Y-80526739D01*
X30882626Y-80526740D01*
X31021844Y-80619762D01*
X31140238Y-80738156D01*
X31217509Y-80853801D01*
X31233261Y-80877376D01*
X31297336Y-81032065D01*
X31330000Y-81196281D01*
X31330000Y-81363719D01*
X31297336Y-81527935D01*
X31233261Y-81682624D01*
X31233260Y-81682626D01*
X31140238Y-81821844D01*
X31021844Y-81940238D01*
X30882626Y-82033260D01*
X30882625Y-82033261D01*
X30882624Y-82033261D01*
X30727935Y-82097336D01*
X30563719Y-82130000D01*
X30396281Y-82130000D01*
X30232065Y-82097336D01*
X30077376Y-82033261D01*
X30077375Y-82033261D01*
X30077374Y-82033260D01*
X29938156Y-81940238D01*
X29819762Y-81821844D01*
X29726740Y-81682626D01*
X29726739Y-81682624D01*
X29662664Y-81527935D01*
X29630000Y-81363719D01*
X29630000Y-81196281D01*
X29662664Y-81032065D01*
X29726739Y-80877376D01*
X29742491Y-80853801D01*
X29819762Y-80738156D01*
X29938156Y-80619762D01*
X30077374Y-80526740D01*
X30077376Y-80526739D01*
X30232065Y-80462664D01*
X30396281Y-80430000D01*
X30563719Y-80430000D01*
X30727935Y-80462664D01*
G37*
G36*
X28790000Y-82130000D02*
G01*
X27090000Y-82130000D01*
X27090000Y-80430000D01*
X28790000Y-80430000D01*
X28790000Y-82130000D01*
G37*
G36*
X63958766Y-78028821D02*
G01*
X64095257Y-78085358D01*
X64218097Y-78167437D01*
X64322563Y-78271903D01*
X64404642Y-78394743D01*
X64461179Y-78531234D01*
X64490000Y-78676130D01*
X64490000Y-78823870D01*
X64461179Y-78968766D01*
X64404642Y-79105257D01*
X64322563Y-79228097D01*
X64218097Y-79332563D01*
X64095257Y-79414642D01*
X63958766Y-79471179D01*
X63813870Y-79500000D01*
X63666130Y-79500000D01*
X63521234Y-79471179D01*
X63384743Y-79414642D01*
X63261903Y-79332563D01*
X63157437Y-79228097D01*
X63075358Y-79105257D01*
X63018821Y-78968766D01*
X62990000Y-78823870D01*
X62990000Y-78676130D01*
X63018821Y-78531234D01*
X63075358Y-78394743D01*
X63157437Y-78271903D01*
X63261903Y-78167437D01*
X63384743Y-78085358D01*
X63521234Y-78028821D01*
X63666130Y-78000000D01*
X63813870Y-78000000D01*
X63958766Y-78028821D01*
G37*
G36*
X66498766Y-77008821D02*
G01*
X66635257Y-77065358D01*
X66758097Y-77147437D01*
X66862563Y-77251903D01*
X66944642Y-77374743D01*
X67001179Y-77511234D01*
X67030000Y-77656130D01*
X67030000Y-77803870D01*
X67001179Y-77948766D01*
X66944642Y-78085257D01*
X66862563Y-78208097D01*
X66758097Y-78312563D01*
X66635257Y-78394642D01*
X66498766Y-78451179D01*
X66353870Y-78480000D01*
X66206130Y-78480000D01*
X66061234Y-78451179D01*
X65924743Y-78394642D01*
X65801903Y-78312563D01*
X65697437Y-78208097D01*
X65615358Y-78085257D01*
X65558821Y-77948766D01*
X65530000Y-77803870D01*
X65530000Y-77656130D01*
X65558821Y-77511234D01*
X65615358Y-77374743D01*
X65697437Y-77251903D01*
X65801903Y-77147437D01*
X65924743Y-77065358D01*
X66061234Y-77008821D01*
X66206130Y-76980000D01*
X66353870Y-76980000D01*
X66498766Y-77008821D01*
G37*
G36*
X63958766Y-75988821D02*
G01*
X64095257Y-76045358D01*
X64218097Y-76127437D01*
X64322563Y-76231903D01*
X64404642Y-76354743D01*
X64461179Y-76491234D01*
X64490000Y-76636130D01*
X64490000Y-76783870D01*
X64461179Y-76928766D01*
X64404642Y-77065257D01*
X64322563Y-77188097D01*
X64218097Y-77292563D01*
X64095257Y-77374642D01*
X63958766Y-77431179D01*
X63813870Y-77460000D01*
X63666130Y-77460000D01*
X63521234Y-77431179D01*
X63384743Y-77374642D01*
X63261903Y-77292563D01*
X63157437Y-77188097D01*
X63075358Y-77065257D01*
X63018821Y-76928766D01*
X62990000Y-76783870D01*
X62990000Y-76636130D01*
X63018821Y-76491234D01*
X63075358Y-76354743D01*
X63157437Y-76231903D01*
X63261903Y-76127437D01*
X63384743Y-76045358D01*
X63521234Y-75988821D01*
X63666130Y-75960000D01*
X63813870Y-75960000D01*
X63958766Y-75988821D01*
G37*
G36*
X66498766Y-74968821D02*
G01*
X66635257Y-75025358D01*
X66758097Y-75107437D01*
X66862563Y-75211903D01*
X66944642Y-75334743D01*
X67001179Y-75471234D01*
X67030000Y-75616130D01*
X67030000Y-75763870D01*
X67001179Y-75908766D01*
X66944642Y-76045257D01*
X66862563Y-76168097D01*
X66758097Y-76272563D01*
X66635257Y-76354642D01*
X66498766Y-76411179D01*
X66353870Y-76440000D01*
X66206130Y-76440000D01*
X66061234Y-76411179D01*
X65924743Y-76354642D01*
X65801903Y-76272563D01*
X65697437Y-76168097D01*
X65615358Y-76045257D01*
X65558821Y-75908766D01*
X65530000Y-75763870D01*
X65530000Y-75616130D01*
X65558821Y-75471234D01*
X65615358Y-75334743D01*
X65697437Y-75211903D01*
X65801903Y-75107437D01*
X65924743Y-75025358D01*
X66061234Y-74968821D01*
X66206130Y-74940000D01*
X66353870Y-74940000D01*
X66498766Y-74968821D01*
G37*
G36*
X63958766Y-73948821D02*
G01*
X64095257Y-74005358D01*
X64218097Y-74087437D01*
X64322563Y-74191903D01*
X64404642Y-74314743D01*
X64461179Y-74451234D01*
X64490000Y-74596130D01*
X64490000Y-74743870D01*
X64461179Y-74888766D01*
X64404642Y-75025257D01*
X64322563Y-75148097D01*
X64218097Y-75252563D01*
X64095257Y-75334642D01*
X63958766Y-75391179D01*
X63813870Y-75420000D01*
X63666130Y-75420000D01*
X63521234Y-75391179D01*
X63384743Y-75334642D01*
X63261903Y-75252563D01*
X63157437Y-75148097D01*
X63075358Y-75025257D01*
X63018821Y-74888766D01*
X62990000Y-74743870D01*
X62990000Y-74596130D01*
X63018821Y-74451234D01*
X63075358Y-74314743D01*
X63157437Y-74191903D01*
X63261903Y-74087437D01*
X63384743Y-74005358D01*
X63521234Y-73948821D01*
X63666130Y-73920000D01*
X63813870Y-73920000D01*
X63958766Y-73948821D01*
G37*
G36*
X40887935Y-72842664D02*
G01*
X41042624Y-72906739D01*
X41042626Y-72906740D01*
X41181844Y-72999762D01*
X41300238Y-73118156D01*
X41336150Y-73171903D01*
X41393261Y-73257376D01*
X41457336Y-73412065D01*
X41490000Y-73576281D01*
X41490000Y-73743719D01*
X41457336Y-73907935D01*
X41416981Y-74005359D01*
X41393260Y-74062626D01*
X41300238Y-74201844D01*
X41181844Y-74320238D01*
X41042626Y-74413260D01*
X41042625Y-74413261D01*
X41042624Y-74413261D01*
X40887935Y-74477336D01*
X40723719Y-74510000D01*
X40556281Y-74510000D01*
X40392065Y-74477336D01*
X40237376Y-74413261D01*
X40237375Y-74413261D01*
X40237374Y-74413260D01*
X40098156Y-74320238D01*
X39979762Y-74201844D01*
X39886740Y-74062626D01*
X39863019Y-74005359D01*
X39822664Y-73907935D01*
X39790000Y-73743719D01*
X39790000Y-73576281D01*
X39822664Y-73412065D01*
X39886739Y-73257376D01*
X39943850Y-73171903D01*
X39979762Y-73118156D01*
X40098156Y-72999762D01*
X40237374Y-72906740D01*
X40237376Y-72906739D01*
X40392065Y-72842664D01*
X40556281Y-72810000D01*
X40723719Y-72810000D01*
X40887935Y-72842664D01*
G37*
G36*
X28187935Y-72842664D02*
G01*
X28342624Y-72906739D01*
X28342626Y-72906740D01*
X28481844Y-72999762D01*
X28600238Y-73118156D01*
X28636150Y-73171903D01*
X28693261Y-73257376D01*
X28757336Y-73412065D01*
X28790000Y-73576281D01*
X28790000Y-73743719D01*
X28757336Y-73907935D01*
X28716981Y-74005359D01*
X28693260Y-74062626D01*
X28600238Y-74201844D01*
X28481844Y-74320238D01*
X28342626Y-74413260D01*
X28342625Y-74413261D01*
X28342624Y-74413261D01*
X28187935Y-74477336D01*
X28023719Y-74510000D01*
X27856281Y-74510000D01*
X27692065Y-74477336D01*
X27537376Y-74413261D01*
X27537375Y-74413261D01*
X27537374Y-74413260D01*
X27398156Y-74320238D01*
X27279762Y-74201844D01*
X27186740Y-74062626D01*
X27163019Y-74005359D01*
X27122664Y-73907935D01*
X27090000Y-73743719D01*
X27090000Y-73576281D01*
X27122664Y-73412065D01*
X27186739Y-73257376D01*
X27243850Y-73171903D01*
X27279762Y-73118156D01*
X27398156Y-72999762D01*
X27537374Y-72906740D01*
X27537376Y-72906739D01*
X27692065Y-72842664D01*
X27856281Y-72810000D01*
X28023719Y-72810000D01*
X28187935Y-72842664D01*
G37*
G36*
X30727935Y-72842664D02*
G01*
X30882624Y-72906739D01*
X30882626Y-72906740D01*
X31021844Y-72999762D01*
X31140238Y-73118156D01*
X31176150Y-73171903D01*
X31233261Y-73257376D01*
X31297336Y-73412065D01*
X31330000Y-73576281D01*
X31330000Y-73743719D01*
X31297336Y-73907935D01*
X31256981Y-74005359D01*
X31233260Y-74062626D01*
X31140238Y-74201844D01*
X31021844Y-74320238D01*
X30882626Y-74413260D01*
X30882625Y-74413261D01*
X30882624Y-74413261D01*
X30727935Y-74477336D01*
X30563719Y-74510000D01*
X30396281Y-74510000D01*
X30232065Y-74477336D01*
X30077376Y-74413261D01*
X30077375Y-74413261D01*
X30077374Y-74413260D01*
X29938156Y-74320238D01*
X29819762Y-74201844D01*
X29726740Y-74062626D01*
X29703019Y-74005359D01*
X29662664Y-73907935D01*
X29630000Y-73743719D01*
X29630000Y-73576281D01*
X29662664Y-73412065D01*
X29726739Y-73257376D01*
X29783850Y-73171903D01*
X29819762Y-73118156D01*
X29938156Y-72999762D01*
X30077374Y-72906740D01*
X30077376Y-72906739D01*
X30232065Y-72842664D01*
X30396281Y-72810000D01*
X30563719Y-72810000D01*
X30727935Y-72842664D01*
G37*
G36*
X33267935Y-72842664D02*
G01*
X33422624Y-72906739D01*
X33422626Y-72906740D01*
X33561844Y-72999762D01*
X33680238Y-73118156D01*
X33716150Y-73171903D01*
X33773261Y-73257376D01*
X33837336Y-73412065D01*
X33870000Y-73576281D01*
X33870000Y-73743719D01*
X33837336Y-73907935D01*
X33796981Y-74005359D01*
X33773260Y-74062626D01*
X33680238Y-74201844D01*
X33561844Y-74320238D01*
X33422626Y-74413260D01*
X33422625Y-74413261D01*
X33422624Y-74413261D01*
X33267935Y-74477336D01*
X33103719Y-74510000D01*
X32936281Y-74510000D01*
X32772065Y-74477336D01*
X32617376Y-74413261D01*
X32617375Y-74413261D01*
X32617374Y-74413260D01*
X32478156Y-74320238D01*
X32359762Y-74201844D01*
X32266740Y-74062626D01*
X32243019Y-74005359D01*
X32202664Y-73907935D01*
X32170000Y-73743719D01*
X32170000Y-73576281D01*
X32202664Y-73412065D01*
X32266739Y-73257376D01*
X32323850Y-73171903D01*
X32359762Y-73118156D01*
X32478156Y-72999762D01*
X32617374Y-72906740D01*
X32617376Y-72906739D01*
X32772065Y-72842664D01*
X32936281Y-72810000D01*
X33103719Y-72810000D01*
X33267935Y-72842664D01*
G37*
G36*
X35807935Y-72842664D02*
G01*
X35962624Y-72906739D01*
X35962626Y-72906740D01*
X36101844Y-72999762D01*
X36220238Y-73118156D01*
X36256150Y-73171903D01*
X36313261Y-73257376D01*
X36377336Y-73412065D01*
X36410000Y-73576281D01*
X36410000Y-73743719D01*
X36377336Y-73907935D01*
X36336981Y-74005359D01*
X36313260Y-74062626D01*
X36220238Y-74201844D01*
X36101844Y-74320238D01*
X35962626Y-74413260D01*
X35962625Y-74413261D01*
X35962624Y-74413261D01*
X35807935Y-74477336D01*
X35643719Y-74510000D01*
X35476281Y-74510000D01*
X35312065Y-74477336D01*
X35157376Y-74413261D01*
X35157375Y-74413261D01*
X35157374Y-74413260D01*
X35018156Y-74320238D01*
X34899762Y-74201844D01*
X34806740Y-74062626D01*
X34783019Y-74005359D01*
X34742664Y-73907935D01*
X34710000Y-73743719D01*
X34710000Y-73576281D01*
X34742664Y-73412065D01*
X34806739Y-73257376D01*
X34863850Y-73171903D01*
X34899762Y-73118156D01*
X35018156Y-72999762D01*
X35157374Y-72906740D01*
X35157376Y-72906739D01*
X35312065Y-72842664D01*
X35476281Y-72810000D01*
X35643719Y-72810000D01*
X35807935Y-72842664D01*
G37*
G36*
X38347935Y-72842664D02*
G01*
X38502624Y-72906739D01*
X38502626Y-72906740D01*
X38641844Y-72999762D01*
X38760238Y-73118156D01*
X38796150Y-73171903D01*
X38853261Y-73257376D01*
X38917336Y-73412065D01*
X38950000Y-73576281D01*
X38950000Y-73743719D01*
X38917336Y-73907935D01*
X38876981Y-74005359D01*
X38853260Y-74062626D01*
X38760238Y-74201844D01*
X38641844Y-74320238D01*
X38502626Y-74413260D01*
X38502625Y-74413261D01*
X38502624Y-74413261D01*
X38347935Y-74477336D01*
X38183719Y-74510000D01*
X38016281Y-74510000D01*
X37852065Y-74477336D01*
X37697376Y-74413261D01*
X37697375Y-74413261D01*
X37697374Y-74413260D01*
X37558156Y-74320238D01*
X37439762Y-74201844D01*
X37346740Y-74062626D01*
X37323019Y-74005359D01*
X37282664Y-73907935D01*
X37250000Y-73743719D01*
X37250000Y-73576281D01*
X37282664Y-73412065D01*
X37346739Y-73257376D01*
X37403850Y-73171903D01*
X37439762Y-73118156D01*
X37558156Y-72999762D01*
X37697374Y-72906740D01*
X37697376Y-72906739D01*
X37852065Y-72842664D01*
X38016281Y-72810000D01*
X38183719Y-72810000D01*
X38347935Y-72842664D01*
G37*
G36*
X66498766Y-72928821D02*
G01*
X66635257Y-72985358D01*
X66758097Y-73067437D01*
X66862563Y-73171903D01*
X66944642Y-73294743D01*
X67001179Y-73431234D01*
X67030000Y-73576130D01*
X67030000Y-73723870D01*
X67001179Y-73868766D01*
X66944642Y-74005257D01*
X66862563Y-74128097D01*
X66758097Y-74232563D01*
X66635257Y-74314642D01*
X66498766Y-74371179D01*
X66353870Y-74400000D01*
X66206130Y-74400000D01*
X66061234Y-74371179D01*
X65924743Y-74314642D01*
X65801903Y-74232563D01*
X65697437Y-74128097D01*
X65615358Y-74005257D01*
X65558821Y-73868766D01*
X65530000Y-73723870D01*
X65530000Y-73576130D01*
X65558821Y-73431234D01*
X65615358Y-73294743D01*
X65697437Y-73171903D01*
X65801903Y-73067437D01*
X65924743Y-72985358D01*
X66061234Y-72928821D01*
X66206130Y-72900000D01*
X66353870Y-72900000D01*
X66498766Y-72928821D01*
G37*
G36*
X40887935Y-70302664D02*
G01*
X41042624Y-70366739D01*
X41042626Y-70366740D01*
X41181844Y-70459762D01*
X41300238Y-70578156D01*
X41393260Y-70717374D01*
X41393261Y-70717376D01*
X41457336Y-70872065D01*
X41490000Y-71036281D01*
X41490000Y-71203719D01*
X41457336Y-71367935D01*
X41427210Y-71440664D01*
X41393260Y-71522626D01*
X41300238Y-71661844D01*
X41181844Y-71780238D01*
X41042626Y-71873260D01*
X41042625Y-71873261D01*
X41042624Y-71873261D01*
X40887935Y-71937336D01*
X40723719Y-71970000D01*
X40556281Y-71970000D01*
X40392065Y-71937336D01*
X40237376Y-71873261D01*
X40237375Y-71873261D01*
X40237374Y-71873260D01*
X40098156Y-71780238D01*
X39979762Y-71661844D01*
X39886740Y-71522626D01*
X39852790Y-71440664D01*
X39822664Y-71367935D01*
X39790000Y-71203719D01*
X39790000Y-71036281D01*
X39822664Y-70872065D01*
X39886739Y-70717376D01*
X39886740Y-70717374D01*
X39979762Y-70578156D01*
X40098156Y-70459762D01*
X40237374Y-70366740D01*
X40237376Y-70366739D01*
X40392065Y-70302664D01*
X40556281Y-70270000D01*
X40723719Y-70270000D01*
X40887935Y-70302664D01*
G37*
G36*
X35807935Y-70302664D02*
G01*
X35962624Y-70366739D01*
X35962626Y-70366740D01*
X36101844Y-70459762D01*
X36220238Y-70578156D01*
X36313260Y-70717374D01*
X36313261Y-70717376D01*
X36377336Y-70872065D01*
X36410000Y-71036281D01*
X36410000Y-71203719D01*
X36377336Y-71367935D01*
X36347210Y-71440664D01*
X36313260Y-71522626D01*
X36220238Y-71661844D01*
X36101844Y-71780238D01*
X35962626Y-71873260D01*
X35962625Y-71873261D01*
X35962624Y-71873261D01*
X35807935Y-71937336D01*
X35643719Y-71970000D01*
X35476281Y-71970000D01*
X35312065Y-71937336D01*
X35157376Y-71873261D01*
X35157375Y-71873261D01*
X35157374Y-71873260D01*
X35018156Y-71780238D01*
X34899762Y-71661844D01*
X34806740Y-71522626D01*
X34772790Y-71440664D01*
X34742664Y-71367935D01*
X34710000Y-71203719D01*
X34710000Y-71036281D01*
X34742664Y-70872065D01*
X34806739Y-70717376D01*
X34806740Y-70717374D01*
X34899762Y-70578156D01*
X35018156Y-70459762D01*
X35157374Y-70366740D01*
X35157376Y-70366739D01*
X35312065Y-70302664D01*
X35476281Y-70270000D01*
X35643719Y-70270000D01*
X35807935Y-70302664D01*
G37*
G36*
X33267935Y-70302664D02*
G01*
X33422624Y-70366739D01*
X33422626Y-70366740D01*
X33561844Y-70459762D01*
X33680238Y-70578156D01*
X33773260Y-70717374D01*
X33773261Y-70717376D01*
X33837336Y-70872065D01*
X33870000Y-71036281D01*
X33870000Y-71203719D01*
X33837336Y-71367935D01*
X33807210Y-71440664D01*
X33773260Y-71522626D01*
X33680238Y-71661844D01*
X33561844Y-71780238D01*
X33422626Y-71873260D01*
X33422625Y-71873261D01*
X33422624Y-71873261D01*
X33267935Y-71937336D01*
X33103719Y-71970000D01*
X32936281Y-71970000D01*
X32772065Y-71937336D01*
X32617376Y-71873261D01*
X32617375Y-71873261D01*
X32617374Y-71873260D01*
X32478156Y-71780238D01*
X32359762Y-71661844D01*
X32266740Y-71522626D01*
X32232790Y-71440664D01*
X32202664Y-71367935D01*
X32170000Y-71203719D01*
X32170000Y-71036281D01*
X32202664Y-70872065D01*
X32266739Y-70717376D01*
X32266740Y-70717374D01*
X32359762Y-70578156D01*
X32478156Y-70459762D01*
X32617374Y-70366740D01*
X32617376Y-70366739D01*
X32772065Y-70302664D01*
X32936281Y-70270000D01*
X33103719Y-70270000D01*
X33267935Y-70302664D01*
G37*
G36*
X28790000Y-71970000D02*
G01*
X27090000Y-71970000D01*
X27090000Y-70270000D01*
X28790000Y-70270000D01*
X28790000Y-71970000D01*
G37*
G36*
X30727935Y-70302664D02*
G01*
X30882624Y-70366739D01*
X30882626Y-70366740D01*
X31021844Y-70459762D01*
X31140238Y-70578156D01*
X31233260Y-70717374D01*
X31233261Y-70717376D01*
X31297336Y-70872065D01*
X31330000Y-71036281D01*
X31330000Y-71203719D01*
X31297336Y-71367935D01*
X31267210Y-71440664D01*
X31233260Y-71522626D01*
X31140238Y-71661844D01*
X31021844Y-71780238D01*
X30882626Y-71873260D01*
X30882625Y-71873261D01*
X30882624Y-71873261D01*
X30727935Y-71937336D01*
X30563719Y-71970000D01*
X30396281Y-71970000D01*
X30232065Y-71937336D01*
X30077376Y-71873261D01*
X30077375Y-71873261D01*
X30077374Y-71873260D01*
X29938156Y-71780238D01*
X29819762Y-71661844D01*
X29726740Y-71522626D01*
X29692790Y-71440664D01*
X29662664Y-71367935D01*
X29630000Y-71203719D01*
X29630000Y-71036281D01*
X29662664Y-70872065D01*
X29726739Y-70717376D01*
X29726740Y-70717374D01*
X29819762Y-70578156D01*
X29938156Y-70459762D01*
X30077374Y-70366740D01*
X30077376Y-70366739D01*
X30232065Y-70302664D01*
X30396281Y-70270000D01*
X30563719Y-70270000D01*
X30727935Y-70302664D01*
G37*
G36*
X38347935Y-70302664D02*
G01*
X38502624Y-70366739D01*
X38502626Y-70366740D01*
X38641844Y-70459762D01*
X38760238Y-70578156D01*
X38853260Y-70717374D01*
X38853261Y-70717376D01*
X38917336Y-70872065D01*
X38950000Y-71036281D01*
X38950000Y-71203719D01*
X38917336Y-71367935D01*
X38887210Y-71440664D01*
X38853260Y-71522626D01*
X38760238Y-71661844D01*
X38641844Y-71780238D01*
X38502626Y-71873260D01*
X38502625Y-71873261D01*
X38502624Y-71873261D01*
X38347935Y-71937336D01*
X38183719Y-71970000D01*
X38016281Y-71970000D01*
X37852065Y-71937336D01*
X37697376Y-71873261D01*
X37697375Y-71873261D01*
X37697374Y-71873260D01*
X37558156Y-71780238D01*
X37439762Y-71661844D01*
X37346740Y-71522626D01*
X37312790Y-71440664D01*
X37282664Y-71367935D01*
X37250000Y-71203719D01*
X37250000Y-71036281D01*
X37282664Y-70872065D01*
X37346739Y-70717376D01*
X37346740Y-70717374D01*
X37439762Y-70578156D01*
X37558156Y-70459762D01*
X37697374Y-70366740D01*
X37697376Y-70366739D01*
X37852065Y-70302664D01*
X38016281Y-70270000D01*
X38183719Y-70270000D01*
X38347935Y-70302664D01*
G37*
G36*
X68853126Y-68826900D02*
G01*
X68988365Y-68853801D01*
X69243149Y-68959336D01*
X69472448Y-69112549D01*
X69667451Y-69307552D01*
X69820664Y-69536851D01*
X69926199Y-69791635D01*
X69980000Y-70062112D01*
X69980000Y-70337888D01*
X69926199Y-70608365D01*
X69820664Y-70863149D01*
X69667451Y-71092448D01*
X69472448Y-71287451D01*
X69243149Y-71440664D01*
X68988365Y-71546199D01*
X68853127Y-71573099D01*
X68717889Y-71600000D01*
X68442111Y-71600000D01*
X68306873Y-71573099D01*
X68171635Y-71546199D01*
X67916851Y-71440664D01*
X67687552Y-71287451D01*
X67492549Y-71092448D01*
X67339336Y-70863149D01*
X67233801Y-70608365D01*
X67180000Y-70337888D01*
X67180000Y-70062112D01*
X67233801Y-69791635D01*
X67339336Y-69536851D01*
X67492549Y-69307552D01*
X67687552Y-69112549D01*
X67916851Y-68959336D01*
X68171635Y-68853801D01*
X68306874Y-68826900D01*
X68442111Y-68800000D01*
X68717889Y-68800000D01*
X68853126Y-68826900D01*
G37*
G36*
X64985000Y-68795000D02*
G01*
X63285000Y-68795000D01*
X63285000Y-67095000D01*
X64985000Y-67095000D01*
X64985000Y-68795000D01*
G37*
G36*
X61842935Y-67127664D02*
G01*
X61997624Y-67191739D01*
X61997626Y-67191740D01*
X62136844Y-67284762D01*
X62255238Y-67403156D01*
X62348260Y-67542374D01*
X62348261Y-67542376D01*
X62412336Y-67697065D01*
X62445000Y-67861281D01*
X62445000Y-68028719D01*
X62412336Y-68192935D01*
X62348261Y-68347624D01*
X62348260Y-68347626D01*
X62255238Y-68486844D01*
X62136844Y-68605238D01*
X61997626Y-68698260D01*
X61997625Y-68698261D01*
X61997624Y-68698261D01*
X61842935Y-68762336D01*
X61678719Y-68795000D01*
X61511281Y-68795000D01*
X61347065Y-68762336D01*
X61192376Y-68698261D01*
X61192375Y-68698261D01*
X61192374Y-68698260D01*
X61053156Y-68605238D01*
X60934762Y-68486844D01*
X60841740Y-68347626D01*
X60841739Y-68347624D01*
X60777664Y-68192935D01*
X60745000Y-68028719D01*
X60745000Y-67861281D01*
X60777664Y-67697065D01*
X60841739Y-67542376D01*
X60841740Y-67542374D01*
X60934762Y-67403156D01*
X61053156Y-67284762D01*
X61192374Y-67191740D01*
X61192376Y-67191739D01*
X61347065Y-67127664D01*
X61511281Y-67095000D01*
X61678719Y-67095000D01*
X61842935Y-67127664D01*
G37*
G36*
X70922534Y-62692643D02*
G01*
X71195515Y-62805716D01*
X71195517Y-62805717D01*
X71319190Y-62888353D01*
X71441193Y-62969873D01*
X71650127Y-63178807D01*
X71814284Y-63424485D01*
X71927357Y-63697466D01*
X71985000Y-63987262D01*
X71985000Y-64282738D01*
X71927357Y-64572534D01*
X71814284Y-64845515D01*
X71814283Y-64845517D01*
X71650126Y-65091194D01*
X71441194Y-65300126D01*
X71195517Y-65464283D01*
X71195516Y-65464284D01*
X71195515Y-65464284D01*
X70922534Y-65577357D01*
X70632738Y-65635000D01*
X70337262Y-65635000D01*
X70047466Y-65577357D01*
X69774485Y-65464284D01*
X69774484Y-65464284D01*
X69774483Y-65464283D01*
X69528806Y-65300126D01*
X69319874Y-65091194D01*
X69155717Y-64845517D01*
X69155716Y-64845515D01*
X69042643Y-64572534D01*
X68985000Y-64282738D01*
X68985000Y-63987262D01*
X69042643Y-63697466D01*
X69155716Y-63424485D01*
X69319873Y-63178807D01*
X69528807Y-62969873D01*
X69650810Y-62888353D01*
X69774483Y-62805717D01*
X69774485Y-62805716D01*
X70047466Y-62692643D01*
X70337262Y-62635000D01*
X70632738Y-62635000D01*
X70922534Y-62692643D01*
G37*
G36*
X61842935Y-63317664D02*
G01*
X61997624Y-63381739D01*
X61997626Y-63381740D01*
X62136844Y-63474762D01*
X62255238Y-63593156D01*
X62304410Y-63666748D01*
X62348261Y-63732376D01*
X62412336Y-63887065D01*
X62445000Y-64051281D01*
X62445000Y-64218719D01*
X62412336Y-64382935D01*
X62348261Y-64537624D01*
X62348260Y-64537626D01*
X62255238Y-64676844D01*
X62136844Y-64795238D01*
X61997626Y-64888260D01*
X61997625Y-64888261D01*
X61997624Y-64888261D01*
X61842935Y-64952336D01*
X61678719Y-64985000D01*
X61511281Y-64985000D01*
X61347065Y-64952336D01*
X61192376Y-64888261D01*
X61192375Y-64888261D01*
X61192374Y-64888260D01*
X61053156Y-64795238D01*
X60934762Y-64676844D01*
X60841740Y-64537626D01*
X60841739Y-64537624D01*
X60777664Y-64382935D01*
X60745000Y-64218719D01*
X60745000Y-64051281D01*
X60777664Y-63887065D01*
X60841739Y-63732376D01*
X60885590Y-63666748D01*
X60934762Y-63593156D01*
X61053156Y-63474762D01*
X61192374Y-63381740D01*
X61192376Y-63381739D01*
X61347065Y-63317664D01*
X61511281Y-63285000D01*
X61678719Y-63285000D01*
X61842935Y-63317664D01*
G37*
G36*
X64985000Y-64985000D02*
G01*
X63285000Y-64985000D01*
X63285000Y-63285000D01*
X64985000Y-63285000D01*
X64985000Y-64985000D01*
G37*
G36*
X31876626Y-62537299D02*
G01*
X32036857Y-62585904D01*
X32184518Y-62664831D01*
X32313949Y-62771051D01*
X32420169Y-62900482D01*
X32499096Y-63048143D01*
X32547701Y-63208373D01*
X32560000Y-63333248D01*
X32560000Y-63666751D01*
X32547701Y-63791626D01*
X32499096Y-63951857D01*
X32420169Y-64099518D01*
X32313949Y-64228949D01*
X32184518Y-64335169D01*
X32059904Y-64401777D01*
X32036855Y-64414097D01*
X31993682Y-64427193D01*
X31876627Y-64462701D01*
X31710000Y-64479112D01*
X31543374Y-64462701D01*
X31426319Y-64427193D01*
X31383146Y-64414097D01*
X31360097Y-64401777D01*
X31235483Y-64335169D01*
X31106051Y-64228948D01*
X30999831Y-64099518D01*
X30920904Y-63951857D01*
X30872299Y-63791627D01*
X30860000Y-63666752D01*
X30860000Y-63333249D01*
X30872299Y-63208374D01*
X30920904Y-63048143D01*
X30999831Y-62900482D01*
X31106051Y-62771051D01*
X31235482Y-62664831D01*
X31383143Y-62585904D01*
X31383145Y-62585903D01*
X31463258Y-62561602D01*
X31543373Y-62537299D01*
X31710000Y-62520888D01*
X31876626Y-62537299D01*
G37*
G36*
X34376626Y-62537299D02*
G01*
X34536857Y-62585904D01*
X34684518Y-62664831D01*
X34813949Y-62771051D01*
X34920169Y-62900482D01*
X34999096Y-63048143D01*
X35047701Y-63208373D01*
X35060000Y-63333248D01*
X35060000Y-63666751D01*
X35047701Y-63791626D01*
X34999096Y-63951857D01*
X34920169Y-64099518D01*
X34813949Y-64228949D01*
X34684518Y-64335169D01*
X34559904Y-64401777D01*
X34536855Y-64414097D01*
X34493682Y-64427193D01*
X34376627Y-64462701D01*
X34210000Y-64479112D01*
X34043374Y-64462701D01*
X33926319Y-64427193D01*
X33883146Y-64414097D01*
X33860097Y-64401777D01*
X33735483Y-64335169D01*
X33606051Y-64228948D01*
X33499831Y-64099518D01*
X33420904Y-63951857D01*
X33372299Y-63791627D01*
X33360000Y-63666752D01*
X33360000Y-63333249D01*
X33372299Y-63208374D01*
X33420904Y-63048143D01*
X33499831Y-62900482D01*
X33606051Y-62771051D01*
X33735482Y-62664831D01*
X33883143Y-62585904D01*
X33883145Y-62585903D01*
X33963258Y-62561602D01*
X34043373Y-62537299D01*
X34210000Y-62520888D01*
X34376626Y-62537299D01*
G37*
G36*
X36876626Y-62537299D02*
G01*
X37036857Y-62585904D01*
X37184518Y-62664831D01*
X37313949Y-62771051D01*
X37420169Y-62900482D01*
X37499096Y-63048143D01*
X37547701Y-63208373D01*
X37560000Y-63333248D01*
X37560000Y-63666751D01*
X37547701Y-63791626D01*
X37499096Y-63951857D01*
X37420169Y-64099518D01*
X37313949Y-64228949D01*
X37184518Y-64335169D01*
X37059904Y-64401777D01*
X37036855Y-64414097D01*
X36993682Y-64427193D01*
X36876627Y-64462701D01*
X36710000Y-64479112D01*
X36543374Y-64462701D01*
X36426319Y-64427193D01*
X36383146Y-64414097D01*
X36360097Y-64401777D01*
X36235483Y-64335169D01*
X36106051Y-64228948D01*
X35999831Y-64099518D01*
X35920904Y-63951857D01*
X35872299Y-63791627D01*
X35860000Y-63666752D01*
X35860000Y-63333249D01*
X35872299Y-63208374D01*
X35920904Y-63048143D01*
X35999831Y-62900482D01*
X36106051Y-62771051D01*
X36235482Y-62664831D01*
X36383143Y-62585904D01*
X36383145Y-62585903D01*
X36463258Y-62561602D01*
X36543373Y-62537299D01*
X36710000Y-62520888D01*
X36876626Y-62537299D01*
G37*
G36*
X39376626Y-62537299D02*
G01*
X39536857Y-62585904D01*
X39684518Y-62664831D01*
X39813949Y-62771051D01*
X39920169Y-62900482D01*
X39999096Y-63048143D01*
X40047701Y-63208373D01*
X40060000Y-63333248D01*
X40060000Y-63666751D01*
X40047701Y-63791626D01*
X39999096Y-63951857D01*
X39920169Y-64099518D01*
X39813949Y-64228949D01*
X39684518Y-64335169D01*
X39559904Y-64401777D01*
X39536855Y-64414097D01*
X39493682Y-64427193D01*
X39376627Y-64462701D01*
X39210000Y-64479112D01*
X39043374Y-64462701D01*
X38926319Y-64427193D01*
X38883146Y-64414097D01*
X38860097Y-64401777D01*
X38735483Y-64335169D01*
X38606051Y-64228948D01*
X38499831Y-64099518D01*
X38420904Y-63951857D01*
X38372299Y-63791627D01*
X38360000Y-63666752D01*
X38360000Y-63333249D01*
X38372299Y-63208374D01*
X38420904Y-63048143D01*
X38499831Y-62900482D01*
X38606051Y-62771051D01*
X38735482Y-62664831D01*
X38883143Y-62585904D01*
X38883145Y-62585903D01*
X38963258Y-62561602D01*
X39043373Y-62537299D01*
X39210000Y-62520888D01*
X39376626Y-62537299D01*
G37*
G36*
X41876626Y-62537299D02*
G01*
X42036857Y-62585904D01*
X42184518Y-62664831D01*
X42313949Y-62771051D01*
X42420169Y-62900482D01*
X42499096Y-63048143D01*
X42547701Y-63208373D01*
X42560000Y-63333248D01*
X42560000Y-63666751D01*
X42547701Y-63791626D01*
X42499096Y-63951857D01*
X42420169Y-64099518D01*
X42313949Y-64228949D01*
X42184518Y-64335169D01*
X42059904Y-64401777D01*
X42036855Y-64414097D01*
X41993682Y-64427193D01*
X41876627Y-64462701D01*
X41710000Y-64479112D01*
X41543374Y-64462701D01*
X41426319Y-64427193D01*
X41383146Y-64414097D01*
X41360097Y-64401777D01*
X41235483Y-64335169D01*
X41106051Y-64228948D01*
X40999831Y-64099518D01*
X40920904Y-63951857D01*
X40872299Y-63791627D01*
X40860000Y-63666752D01*
X40860000Y-63333249D01*
X40872299Y-63208374D01*
X40920904Y-63048143D01*
X40999831Y-62900482D01*
X41106051Y-62771051D01*
X41235482Y-62664831D01*
X41383143Y-62585904D01*
X41383145Y-62585903D01*
X41463258Y-62561602D01*
X41543373Y-62537299D01*
X41710000Y-62520888D01*
X41876626Y-62537299D01*
G37*
G36*
X44376626Y-62537299D02*
G01*
X44536857Y-62585904D01*
X44684518Y-62664831D01*
X44813949Y-62771051D01*
X44920169Y-62900482D01*
X44999096Y-63048143D01*
X45047701Y-63208373D01*
X45060000Y-63333248D01*
X45060000Y-63666751D01*
X45047701Y-63791626D01*
X44999096Y-63951857D01*
X44920169Y-64099518D01*
X44813949Y-64228949D01*
X44684518Y-64335169D01*
X44559904Y-64401777D01*
X44536855Y-64414097D01*
X44493682Y-64427193D01*
X44376627Y-64462701D01*
X44210000Y-64479112D01*
X44043374Y-64462701D01*
X43926319Y-64427193D01*
X43883146Y-64414097D01*
X43860097Y-64401777D01*
X43735483Y-64335169D01*
X43606051Y-64228948D01*
X43499831Y-64099518D01*
X43420904Y-63951857D01*
X43372299Y-63791627D01*
X43360000Y-63666752D01*
X43360000Y-63333249D01*
X43372299Y-63208374D01*
X43420904Y-63048143D01*
X43499831Y-62900482D01*
X43606051Y-62771051D01*
X43735482Y-62664831D01*
X43883143Y-62585904D01*
X43883145Y-62585903D01*
X43963258Y-62561602D01*
X44043373Y-62537299D01*
X44210000Y-62520888D01*
X44376626Y-62537299D01*
G37*
G36*
X29929677Y-62528701D02*
G01*
X29959909Y-62537873D01*
X29987771Y-62552764D01*
X30012193Y-62572807D01*
X30032236Y-62597229D01*
X30047127Y-62625091D01*
X30056299Y-62655323D01*
X30060000Y-62692905D01*
X30060000Y-64307095D01*
X30056299Y-64344677D01*
X30047127Y-64374909D01*
X30032236Y-64402771D01*
X30012193Y-64427193D01*
X29987771Y-64447236D01*
X29959909Y-64462127D01*
X29929677Y-64471299D01*
X29892095Y-64475000D01*
X28527905Y-64475000D01*
X28490323Y-64471299D01*
X28460091Y-64462127D01*
X28432229Y-64447236D01*
X28407807Y-64427193D01*
X28387764Y-64402771D01*
X28372873Y-64374909D01*
X28363701Y-64344677D01*
X28360000Y-64307095D01*
X28360000Y-62692905D01*
X28363701Y-62655323D01*
X28372873Y-62625091D01*
X28387764Y-62597229D01*
X28407807Y-62572807D01*
X28432229Y-62552764D01*
X28460091Y-62537873D01*
X28490323Y-62528701D01*
X28527905Y-62525000D01*
X29892095Y-62525000D01*
X29929677Y-62528701D01*
G37*
G36*
X58635000Y-64350000D02*
G01*
X56935000Y-64350000D01*
X56935000Y-62650000D01*
X58635000Y-62650000D01*
X58635000Y-64350000D01*
G37*
G36*
X58032935Y-60142664D02*
G01*
X58187624Y-60206739D01*
X58187626Y-60206740D01*
X58326844Y-60299762D01*
X58445238Y-60418156D01*
X58538260Y-60557374D01*
X58538261Y-60557376D01*
X58602336Y-60712065D01*
X58635000Y-60876281D01*
X58635000Y-61043719D01*
X58602336Y-61207935D01*
X58538261Y-61362624D01*
X58538260Y-61362626D01*
X58445238Y-61501844D01*
X58326844Y-61620238D01*
X58187626Y-61713260D01*
X58187625Y-61713261D01*
X58187624Y-61713261D01*
X58032935Y-61777336D01*
X57868719Y-61810000D01*
X57701281Y-61810000D01*
X57537065Y-61777336D01*
X57382376Y-61713261D01*
X57382375Y-61713261D01*
X57382374Y-61713260D01*
X57243156Y-61620238D01*
X57124762Y-61501844D01*
X57031740Y-61362626D01*
X57031739Y-61362624D01*
X56967664Y-61207935D01*
X56935000Y-61043719D01*
X56935000Y-60876281D01*
X56967664Y-60712065D01*
X57031739Y-60557376D01*
X57031740Y-60557374D01*
X57124762Y-60418156D01*
X57243156Y-60299762D01*
X57382374Y-60206740D01*
X57382376Y-60206739D01*
X57537065Y-60142664D01*
X57701281Y-60110000D01*
X57868719Y-60110000D01*
X58032935Y-60142664D01*
G37*
G36*
X61842935Y-59507664D02*
G01*
X61997624Y-59571739D01*
X61997626Y-59571740D01*
X62136844Y-59664762D01*
X62255238Y-59783156D01*
X62348260Y-59922374D01*
X62348261Y-59922376D01*
X62412336Y-60077065D01*
X62445000Y-60241281D01*
X62445000Y-60408719D01*
X62412336Y-60572935D01*
X62354706Y-60712064D01*
X62348260Y-60727626D01*
X62255238Y-60866844D01*
X62136844Y-60985238D01*
X61997626Y-61078260D01*
X61997625Y-61078261D01*
X61997624Y-61078261D01*
X61842935Y-61142336D01*
X61678719Y-61175000D01*
X61511281Y-61175000D01*
X61347065Y-61142336D01*
X61192376Y-61078261D01*
X61192375Y-61078261D01*
X61192374Y-61078260D01*
X61053156Y-60985238D01*
X60934762Y-60866844D01*
X60841740Y-60727626D01*
X60835294Y-60712064D01*
X60777664Y-60572935D01*
X60745000Y-60408719D01*
X60745000Y-60241281D01*
X60777664Y-60077065D01*
X60841739Y-59922376D01*
X60841740Y-59922374D01*
X60934762Y-59783156D01*
X61053156Y-59664762D01*
X61192374Y-59571740D01*
X61192376Y-59571739D01*
X61347065Y-59507664D01*
X61511281Y-59475000D01*
X61678719Y-59475000D01*
X61842935Y-59507664D01*
G37*
G36*
X64985000Y-61175000D02*
G01*
X63285000Y-61175000D01*
X63285000Y-59475000D01*
X64985000Y-59475000D01*
X64985000Y-61175000D01*
G37*
G36*
X71985000Y-60555000D02*
G01*
X68985000Y-60555000D01*
X68985000Y-57555000D01*
X71985000Y-57555000D01*
X71985000Y-60555000D01*
G37*
G36*
X37403413Y-55870788D02*
G01*
X37478813Y-55893660D01*
X37534787Y-55923579D01*
X37548304Y-55930804D01*
X37603122Y-55975792D01*
X37609211Y-55980789D01*
X37659197Y-56041697D01*
X37696340Y-56111186D01*
X37719212Y-56186586D01*
X37725000Y-56245353D01*
X37725000Y-56784647D01*
X37719212Y-56843414D01*
X37696340Y-56918814D01*
X37659197Y-56988303D01*
X37609211Y-57049211D01*
X37548303Y-57099197D01*
X37478814Y-57136340D01*
X37403414Y-57159212D01*
X37325000Y-57166935D01*
X37246587Y-57159212D01*
X37171187Y-57136340D01*
X37101698Y-57099197D01*
X37040790Y-57049211D01*
X36990804Y-56988303D01*
X36953661Y-56918814D01*
X36930789Y-56843414D01*
X36928884Y-56824069D01*
X36925000Y-56784645D01*
X36925000Y-56245354D01*
X36930788Y-56186591D01*
X36930788Y-56186587D01*
X36953660Y-56111187D01*
X36990803Y-56041698D01*
X36990804Y-56041696D01*
X37040789Y-55980789D01*
X37101696Y-55930804D01*
X37101695Y-55930804D01*
X37101697Y-55930803D01*
X37171186Y-55893660D01*
X37246586Y-55870788D01*
X37325000Y-55863065D01*
X37403413Y-55870788D01*
G37*
G36*
X36153413Y-55870788D02*
G01*
X36228813Y-55893660D01*
X36284787Y-55923579D01*
X36298304Y-55930804D01*
X36353122Y-55975792D01*
X36359211Y-55980789D01*
X36409197Y-56041697D01*
X36446340Y-56111186D01*
X36469212Y-56186586D01*
X36475000Y-56245353D01*
X36475000Y-56784647D01*
X36469212Y-56843414D01*
X36446340Y-56918814D01*
X36409197Y-56988303D01*
X36359211Y-57049211D01*
X36298303Y-57099197D01*
X36228814Y-57136340D01*
X36153414Y-57159212D01*
X36075000Y-57166935D01*
X35996587Y-57159212D01*
X35921187Y-57136340D01*
X35851698Y-57099197D01*
X35790790Y-57049211D01*
X35740804Y-56988303D01*
X35703661Y-56918814D01*
X35680789Y-56843414D01*
X35678884Y-56824069D01*
X35675000Y-56784645D01*
X35675000Y-56245354D01*
X35680788Y-56186591D01*
X35680788Y-56186587D01*
X35703660Y-56111187D01*
X35740803Y-56041698D01*
X35740804Y-56041696D01*
X35790789Y-55980789D01*
X35851696Y-55930804D01*
X35851695Y-55930804D01*
X35851697Y-55930803D01*
X35921186Y-55893660D01*
X35996586Y-55870788D01*
X36075000Y-55863065D01*
X36153413Y-55870788D01*
G37*
G36*
X34903413Y-55870788D02*
G01*
X34978813Y-55893660D01*
X35034787Y-55923579D01*
X35048304Y-55930804D01*
X35103122Y-55975792D01*
X35109211Y-55980789D01*
X35159197Y-56041697D01*
X35196340Y-56111186D01*
X35219212Y-56186586D01*
X35225000Y-56245353D01*
X35225000Y-56784647D01*
X35219212Y-56843414D01*
X35196340Y-56918814D01*
X35159197Y-56988303D01*
X35109211Y-57049211D01*
X35048303Y-57099197D01*
X34978814Y-57136340D01*
X34903414Y-57159212D01*
X34825000Y-57166935D01*
X34746587Y-57159212D01*
X34671187Y-57136340D01*
X34601698Y-57099197D01*
X34540790Y-57049211D01*
X34490804Y-56988303D01*
X34453661Y-56918814D01*
X34430789Y-56843414D01*
X34428884Y-56824069D01*
X34425000Y-56784645D01*
X34425000Y-56245354D01*
X34430788Y-56186591D01*
X34430788Y-56186587D01*
X34453660Y-56111187D01*
X34490803Y-56041698D01*
X34490804Y-56041696D01*
X34540789Y-55980789D01*
X34601696Y-55930804D01*
X34601695Y-55930804D01*
X34601697Y-55930803D01*
X34671186Y-55893660D01*
X34746586Y-55870788D01*
X34825000Y-55863065D01*
X34903413Y-55870788D01*
G37*
G36*
X33653413Y-55870788D02*
G01*
X33728813Y-55893660D01*
X33784787Y-55923579D01*
X33798304Y-55930804D01*
X33853122Y-55975792D01*
X33859211Y-55980789D01*
X33909197Y-56041697D01*
X33946340Y-56111186D01*
X33969212Y-56186586D01*
X33975000Y-56245353D01*
X33975000Y-56784647D01*
X33969212Y-56843414D01*
X33946340Y-56918814D01*
X33909197Y-56988303D01*
X33859211Y-57049211D01*
X33798303Y-57099197D01*
X33728814Y-57136340D01*
X33653414Y-57159212D01*
X33575000Y-57166935D01*
X33496587Y-57159212D01*
X33421187Y-57136340D01*
X33351698Y-57099197D01*
X33290790Y-57049211D01*
X33240804Y-56988303D01*
X33203661Y-56918814D01*
X33180789Y-56843414D01*
X33178884Y-56824069D01*
X33175000Y-56784645D01*
X33175000Y-56245354D01*
X33180788Y-56186591D01*
X33180788Y-56186587D01*
X33203660Y-56111187D01*
X33240803Y-56041698D01*
X33240804Y-56041696D01*
X33290789Y-55980789D01*
X33351696Y-55930804D01*
X33351695Y-55930804D01*
X33351697Y-55930803D01*
X33421186Y-55893660D01*
X33496586Y-55870788D01*
X33575000Y-55863065D01*
X33653413Y-55870788D01*
G37*
G36*
X32403413Y-55870788D02*
G01*
X32478813Y-55893660D01*
X32534787Y-55923579D01*
X32548304Y-55930804D01*
X32603122Y-55975792D01*
X32609211Y-55980789D01*
X32659197Y-56041697D01*
X32696340Y-56111186D01*
X32719212Y-56186586D01*
X32725000Y-56245353D01*
X32725000Y-56784647D01*
X32719212Y-56843414D01*
X32696340Y-56918814D01*
X32659197Y-56988303D01*
X32609211Y-57049211D01*
X32548303Y-57099197D01*
X32478814Y-57136340D01*
X32403414Y-57159212D01*
X32325000Y-57166935D01*
X32246587Y-57159212D01*
X32171187Y-57136340D01*
X32101698Y-57099197D01*
X32040790Y-57049211D01*
X31990804Y-56988303D01*
X31953661Y-56918814D01*
X31930789Y-56843414D01*
X31928884Y-56824069D01*
X31925000Y-56784645D01*
X31925000Y-56245354D01*
X31930788Y-56186591D01*
X31930788Y-56186587D01*
X31953660Y-56111187D01*
X31990803Y-56041698D01*
X31990804Y-56041696D01*
X32040789Y-55980789D01*
X32101696Y-55930804D01*
X32101695Y-55930804D01*
X32101697Y-55930803D01*
X32171186Y-55893660D01*
X32246586Y-55870788D01*
X32325000Y-55863065D01*
X32403413Y-55870788D01*
G37*
G36*
X31153413Y-55870788D02*
G01*
X31228813Y-55893660D01*
X31284787Y-55923579D01*
X31298304Y-55930804D01*
X31353122Y-55975792D01*
X31359211Y-55980789D01*
X31409197Y-56041697D01*
X31446340Y-56111186D01*
X31469212Y-56186586D01*
X31475000Y-56245353D01*
X31475000Y-56784647D01*
X31469212Y-56843414D01*
X31446340Y-56918814D01*
X31409197Y-56988303D01*
X31359211Y-57049211D01*
X31298303Y-57099197D01*
X31228814Y-57136340D01*
X31153414Y-57159212D01*
X31075000Y-57166935D01*
X30996587Y-57159212D01*
X30921187Y-57136340D01*
X30851698Y-57099197D01*
X30790790Y-57049211D01*
X30740804Y-56988303D01*
X30703661Y-56918814D01*
X30680789Y-56843414D01*
X30678884Y-56824069D01*
X30675000Y-56784645D01*
X30675000Y-56245354D01*
X30680788Y-56186591D01*
X30680788Y-56186587D01*
X30703660Y-56111187D01*
X30740803Y-56041698D01*
X30740804Y-56041696D01*
X30790789Y-55980789D01*
X30851696Y-55930804D01*
X30851695Y-55930804D01*
X30851697Y-55930803D01*
X30921186Y-55893660D01*
X30996586Y-55870788D01*
X31075000Y-55863065D01*
X31153413Y-55870788D01*
G37*
G36*
X29903413Y-55870788D02*
G01*
X29978813Y-55893660D01*
X30034787Y-55923579D01*
X30048304Y-55930804D01*
X30103122Y-55975792D01*
X30109211Y-55980789D01*
X30159197Y-56041697D01*
X30196340Y-56111186D01*
X30219212Y-56186586D01*
X30225000Y-56245353D01*
X30225000Y-56784647D01*
X30219212Y-56843414D01*
X30196340Y-56918814D01*
X30159197Y-56988303D01*
X30109211Y-57049211D01*
X30048303Y-57099197D01*
X29978814Y-57136340D01*
X29903414Y-57159212D01*
X29825000Y-57166935D01*
X29746587Y-57159212D01*
X29671187Y-57136340D01*
X29601698Y-57099197D01*
X29540790Y-57049211D01*
X29490804Y-56988303D01*
X29453661Y-56918814D01*
X29430789Y-56843414D01*
X29428884Y-56824069D01*
X29425000Y-56784645D01*
X29425000Y-56245354D01*
X29430788Y-56186591D01*
X29430788Y-56186587D01*
X29453660Y-56111187D01*
X29490803Y-56041698D01*
X29490804Y-56041696D01*
X29540789Y-55980789D01*
X29601696Y-55930804D01*
X29601695Y-55930804D01*
X29601697Y-55930803D01*
X29671186Y-55893660D01*
X29746586Y-55870788D01*
X29825000Y-55863065D01*
X29903413Y-55870788D01*
G37*
G36*
X28864208Y-55868235D02*
G01*
X28889886Y-55876025D01*
X28913557Y-55888677D01*
X28934300Y-55905700D01*
X28951323Y-55926443D01*
X28963975Y-55950114D01*
X28971765Y-55975792D01*
X28975000Y-56008640D01*
X28975000Y-57021360D01*
X28971765Y-57054208D01*
X28963975Y-57079886D01*
X28951323Y-57103557D01*
X28934300Y-57124300D01*
X28913557Y-57141323D01*
X28889886Y-57153975D01*
X28864208Y-57161765D01*
X28831360Y-57165000D01*
X28318640Y-57165000D01*
X28285792Y-57161765D01*
X28260114Y-57153975D01*
X28236443Y-57141323D01*
X28215700Y-57124300D01*
X28198677Y-57103557D01*
X28186025Y-57079886D01*
X28178235Y-57054208D01*
X28175000Y-57021360D01*
X28175000Y-56008640D01*
X28178235Y-55975792D01*
X28186025Y-55950114D01*
X28198677Y-55926443D01*
X28215700Y-55905700D01*
X28236443Y-55888677D01*
X28260114Y-55876025D01*
X28285792Y-55868235D01*
X28318640Y-55865000D01*
X28831360Y-55865000D01*
X28864208Y-55868235D01*
G37*
G36*
X82070500Y-52359393D02*
G01*
X82071101Y-52371632D01*
X82073403Y-52395000D01*
X82071101Y-52418368D01*
X82070500Y-52430607D01*
X82070500Y-52475002D01*
X82062298Y-52507743D01*
X82061818Y-52512621D01*
X82027510Y-52625721D01*
X81971796Y-52729955D01*
X81896817Y-52821317D01*
X81805455Y-52896296D01*
X81701221Y-52952010D01*
X81588121Y-52986318D01*
X81499974Y-52995000D01*
X80741026Y-52995000D01*
X80652879Y-52986318D01*
X80539779Y-52952010D01*
X80435545Y-52896296D01*
X80344183Y-52821317D01*
X80269204Y-52729955D01*
X80213490Y-52625721D01*
X80179182Y-52512621D01*
X80178701Y-52507742D01*
X80173921Y-52483711D01*
X80170500Y-52475453D01*
X80170500Y-52430607D01*
X80169899Y-52418368D01*
X80167597Y-52395000D01*
X80169899Y-52371632D01*
X80170500Y-52359393D01*
X80170500Y-51195000D01*
X82070500Y-51195000D01*
X82070500Y-52359393D01*
G37*
G36*
X78631975Y-50697861D02*
G01*
X78763916Y-50752512D01*
X78882660Y-50831855D01*
X78983645Y-50932840D01*
X79062988Y-51051584D01*
X79117639Y-51183525D01*
X79145500Y-51323592D01*
X79145500Y-51466408D01*
X79117639Y-51606475D01*
X79062988Y-51738416D01*
X78983645Y-51857160D01*
X78882660Y-51958145D01*
X78763916Y-52037488D01*
X78631975Y-52092139D01*
X78491908Y-52120000D01*
X78349092Y-52120000D01*
X78209025Y-52092139D01*
X78077084Y-52037488D01*
X77958340Y-51958145D01*
X77857355Y-51857160D01*
X77778012Y-51738416D01*
X77723361Y-51606475D01*
X77695500Y-51466408D01*
X77695500Y-51323592D01*
X77723361Y-51183525D01*
X77778012Y-51051584D01*
X77857355Y-50932840D01*
X77958340Y-50831855D01*
X78077084Y-50752512D01*
X78209025Y-50697861D01*
X78349092Y-50670000D01*
X78491908Y-50670000D01*
X78631975Y-50697861D01*
G37*
G36*
X82070500Y-50645000D02*
G01*
X80170500Y-50645000D01*
X80170500Y-49145000D01*
X82070500Y-49145000D01*
X82070500Y-50645000D01*
G37*
G36*
X79095500Y-50385500D02*
G01*
X77745500Y-50385500D01*
X77745500Y-50004500D01*
X79095500Y-50004500D01*
X79095500Y-50385500D01*
G37*
G36*
X79095500Y-49735500D02*
G01*
X77745500Y-49735500D01*
X77745500Y-49354500D01*
X79095500Y-49354500D01*
X79095500Y-49735500D01*
G37*
G36*
X79095500Y-49085500D02*
G01*
X77745500Y-49085500D01*
X77745500Y-48704500D01*
X79095500Y-48704500D01*
X79095500Y-49085500D01*
G37*
G36*
X82070500Y-48645000D02*
G01*
X80170500Y-48645000D01*
X80170500Y-47145000D01*
X82070500Y-47145000D01*
X82070500Y-48645000D01*
G37*
G36*
X79095500Y-48435500D02*
G01*
X77745500Y-48435500D01*
X77745500Y-48054500D01*
X79095500Y-48054500D01*
X79095500Y-48435500D01*
G37*
G36*
X79095500Y-47785500D02*
G01*
X77745500Y-47785500D01*
X77745500Y-47404500D01*
X79095500Y-47404500D01*
X79095500Y-47785500D01*
G37*
G36*
X78631975Y-45697861D02*
G01*
X78763916Y-45752512D01*
X78882660Y-45831855D01*
X78983645Y-45932840D01*
X79062988Y-46051584D01*
X79117639Y-46183525D01*
X79145500Y-46323592D01*
X79145500Y-46466408D01*
X79117639Y-46606475D01*
X79062988Y-46738416D01*
X78983645Y-46857160D01*
X78882660Y-46958145D01*
X78763916Y-47037488D01*
X78631975Y-47092139D01*
X78491908Y-47120000D01*
X78349092Y-47120000D01*
X78209025Y-47092139D01*
X78077084Y-47037488D01*
X77958340Y-46958145D01*
X77857355Y-46857160D01*
X77778012Y-46738416D01*
X77723361Y-46606475D01*
X77695500Y-46466408D01*
X77695500Y-46323592D01*
X77723361Y-46183525D01*
X77778012Y-46051584D01*
X77857355Y-45932840D01*
X77958340Y-45831855D01*
X78077084Y-45752512D01*
X78209025Y-45697861D01*
X78349092Y-45670000D01*
X78491908Y-45670000D01*
X78631975Y-45697861D01*
G37*
G36*
X81588121Y-44803682D02*
G01*
X81701221Y-44837990D01*
X81805455Y-44893704D01*
X81896817Y-44968683D01*
X81971796Y-45060045D01*
X82027510Y-45164279D01*
X82061818Y-45277379D01*
X82061818Y-45277382D01*
X82062298Y-45282255D01*
X82067079Y-45306289D01*
X82070500Y-45314547D01*
X82070500Y-45359393D01*
X82071101Y-45371632D01*
X82073403Y-45395000D01*
X82071101Y-45418368D01*
X82070500Y-45430607D01*
X82070500Y-46595000D01*
X80170500Y-46595000D01*
X80170500Y-45430607D01*
X80169899Y-45418368D01*
X80167597Y-45395000D01*
X80169899Y-45371632D01*
X80170500Y-45359393D01*
X80170500Y-45314998D01*
X80178702Y-45282255D01*
X80179182Y-45277382D01*
X80179182Y-45277379D01*
X80213490Y-45164279D01*
X80269204Y-45060045D01*
X80344183Y-44968683D01*
X80435545Y-44893704D01*
X80539779Y-44837990D01*
X80652879Y-44803682D01*
X80741026Y-44795000D01*
X81499974Y-44795000D01*
X81588121Y-44803682D01*
G37*
G36*
X78944182Y-38696900D02*
G01*
X79071573Y-38749667D01*
X79071574Y-38749668D01*
X79186224Y-38826274D01*
X79283726Y-38923776D01*
X79283727Y-38923778D01*
X79360333Y-39038427D01*
X79413100Y-39165818D01*
X79440000Y-39301055D01*
X79440000Y-39438945D01*
X79413100Y-39574182D01*
X79360333Y-39701573D01*
X79360332Y-39701574D01*
X79283726Y-39816224D01*
X79186224Y-39913726D01*
X79128510Y-39952289D01*
X79071573Y-39990333D01*
X78944182Y-40043100D01*
X78808945Y-40070000D01*
X78671055Y-40070000D01*
X78535818Y-40043100D01*
X78408427Y-39990333D01*
X78351490Y-39952289D01*
X78293776Y-39913726D01*
X78196274Y-39816224D01*
X78119668Y-39701574D01*
X78119667Y-39701573D01*
X78066900Y-39574182D01*
X78040000Y-39438945D01*
X78040000Y-39301055D01*
X78066900Y-39165818D01*
X78119667Y-39038427D01*
X78196273Y-38923778D01*
X78196274Y-38923776D01*
X78293776Y-38826274D01*
X78408426Y-38749668D01*
X78408427Y-38749667D01*
X78535818Y-38696900D01*
X78671055Y-38670000D01*
X78808945Y-38670000D01*
X78944182Y-38696900D01*
G37*
G36*
X24339677Y-32093701D02*
G01*
X24369909Y-32102873D01*
X24397771Y-32117764D01*
X24422193Y-32137807D01*
X24442236Y-32162229D01*
X24457127Y-32190091D01*
X24466299Y-32220323D01*
X24470000Y-32257905D01*
X24470000Y-33622095D01*
X24466299Y-33659677D01*
X24457127Y-33689909D01*
X24442236Y-33717771D01*
X24422193Y-33742193D01*
X24397771Y-33762236D01*
X24369909Y-33777127D01*
X24339677Y-33786299D01*
X24302095Y-33790000D01*
X22687905Y-33790000D01*
X22650323Y-33786299D01*
X22620091Y-33777127D01*
X22592229Y-33762236D01*
X22567807Y-33742193D01*
X22547764Y-33717771D01*
X22532873Y-33689909D01*
X22523701Y-33659677D01*
X22520000Y-33622095D01*
X22520000Y-32257905D01*
X22523701Y-32220323D01*
X22532873Y-32190091D01*
X22547764Y-32162229D01*
X22567807Y-32137807D01*
X22592229Y-32117764D01*
X22620091Y-32102873D01*
X22650323Y-32093701D01*
X22687905Y-32090000D01*
X24302095Y-32090000D01*
X24339677Y-32093701D01*
G37*
G36*
X77039182Y-31076900D02*
G01*
X77166573Y-31129667D01*
X77166574Y-31129668D01*
X77281224Y-31206274D01*
X77378726Y-31303776D01*
X77378727Y-31303778D01*
X77455333Y-31418427D01*
X77508100Y-31545818D01*
X77535000Y-31681055D01*
X77535000Y-31818945D01*
X77508100Y-31954182D01*
X77455333Y-32081573D01*
X77455332Y-32081574D01*
X77378726Y-32196224D01*
X77281224Y-32293726D01*
X77223510Y-32332289D01*
X77166573Y-32370333D01*
X77039182Y-32423100D01*
X76903945Y-32450000D01*
X76766055Y-32450000D01*
X76630818Y-32423100D01*
X76503427Y-32370333D01*
X76446490Y-32332289D01*
X76388776Y-32293726D01*
X76291274Y-32196224D01*
X76214668Y-32081574D01*
X76214667Y-32081573D01*
X76161900Y-31954182D01*
X76135000Y-31818945D01*
X76135000Y-31681055D01*
X76161900Y-31545818D01*
X76214667Y-31418427D01*
X76291273Y-31303778D01*
X76291274Y-31303776D01*
X76388776Y-31206274D01*
X76503426Y-31129668D01*
X76503427Y-31129667D01*
X76630818Y-31076900D01*
X76766055Y-31050000D01*
X76903945Y-31050000D01*
X77039182Y-31076900D01*
G37*
G36*
X78944182Y-31076900D02*
G01*
X79071573Y-31129667D01*
X79071574Y-31129668D01*
X79186224Y-31206274D01*
X79283726Y-31303776D01*
X79283727Y-31303778D01*
X79360333Y-31418427D01*
X79413100Y-31545818D01*
X79440000Y-31681055D01*
X79440000Y-31818945D01*
X79413100Y-31954182D01*
X79360333Y-32081573D01*
X79360332Y-32081574D01*
X79283726Y-32196224D01*
X79186224Y-32293726D01*
X79128510Y-32332289D01*
X79071573Y-32370333D01*
X78944182Y-32423100D01*
X78808945Y-32450000D01*
X78671055Y-32450000D01*
X78535818Y-32423100D01*
X78408427Y-32370333D01*
X78351490Y-32332289D01*
X78293776Y-32293726D01*
X78196274Y-32196224D01*
X78119668Y-32081574D01*
X78119667Y-32081573D01*
X78066900Y-31954182D01*
X78040000Y-31818945D01*
X78040000Y-31681055D01*
X78066900Y-31545818D01*
X78119667Y-31418427D01*
X78196273Y-31303778D01*
X78196274Y-31303776D01*
X78293776Y-31206274D01*
X78408426Y-31129668D01*
X78408427Y-31129667D01*
X78535818Y-31076900D01*
X78671055Y-31050000D01*
X78808945Y-31050000D01*
X78944182Y-31076900D01*
G37*
G36*
X23786627Y-29602299D02*
G01*
X23866742Y-29626602D01*
X23946855Y-29650903D01*
X23946857Y-29650904D01*
X24094518Y-29729831D01*
X24223949Y-29836051D01*
X24330169Y-29965482D01*
X24409096Y-30113143D01*
X24457701Y-30273373D01*
X24474112Y-30440000D01*
X24457701Y-30606627D01*
X24409096Y-30766857D01*
X24330169Y-30914518D01*
X24223949Y-31043949D01*
X24094518Y-31150169D01*
X23946857Y-31229096D01*
X23946855Y-31229097D01*
X23866742Y-31253399D01*
X23786627Y-31277701D01*
X23661752Y-31290000D01*
X23328248Y-31290000D01*
X23203373Y-31277701D01*
X23123258Y-31253399D01*
X23043145Y-31229097D01*
X23043143Y-31229096D01*
X22895482Y-31150169D01*
X22766051Y-31043949D01*
X22659831Y-30914518D01*
X22580904Y-30766857D01*
X22532299Y-30606627D01*
X22515888Y-30440000D01*
X22532299Y-30273373D01*
X22580904Y-30113143D01*
X22659831Y-29965482D01*
X22766051Y-29836051D01*
X22895482Y-29729831D01*
X23043143Y-29650904D01*
X23043145Y-29650903D01*
X23123258Y-29626602D01*
X23203373Y-29602299D01*
X23328248Y-29590000D01*
X23661752Y-29590000D01*
X23786627Y-29602299D01*
G37*
G36*
X23786627Y-27102299D02*
G01*
X23866742Y-27126602D01*
X23946855Y-27150903D01*
X23946857Y-27150904D01*
X24094518Y-27229831D01*
X24223949Y-27336051D01*
X24330169Y-27465482D01*
X24409096Y-27613143D01*
X24457701Y-27773373D01*
X24474112Y-27940000D01*
X24457701Y-28106627D01*
X24409096Y-28266857D01*
X24330169Y-28414518D01*
X24223949Y-28543949D01*
X24094518Y-28650169D01*
X23946857Y-28729096D01*
X23946855Y-28729097D01*
X23866742Y-28753398D01*
X23786627Y-28777701D01*
X23661752Y-28790000D01*
X23328248Y-28790000D01*
X23203373Y-28777701D01*
X23123258Y-28753398D01*
X23043145Y-28729097D01*
X23043143Y-28729096D01*
X22895482Y-28650169D01*
X22766051Y-28543949D01*
X22659831Y-28414518D01*
X22580904Y-28266857D01*
X22532299Y-28106627D01*
X22515888Y-27940000D01*
X22532299Y-27773373D01*
X22580904Y-27613143D01*
X22659831Y-27465482D01*
X22766051Y-27336051D01*
X22895482Y-27229831D01*
X23043143Y-27150904D01*
X23043145Y-27150903D01*
X23123258Y-27126602D01*
X23203373Y-27102299D01*
X23328248Y-27090000D01*
X23661752Y-27090000D01*
X23786627Y-27102299D01*
G37*
G36*
X33800843Y-26824214D02*
G01*
X33800846Y-26824215D01*
X33800845Y-26824215D01*
X33891839Y-26861906D01*
X33933063Y-26889451D01*
X33973730Y-26916624D01*
X34043376Y-26986270D01*
X34098095Y-27068163D01*
X34135786Y-27159157D01*
X34155000Y-27255753D01*
X34155000Y-27354247D01*
X34135786Y-27450843D01*
X34098095Y-27541837D01*
X34050449Y-27613145D01*
X34043375Y-27623731D01*
X33973731Y-27693375D01*
X33891839Y-27748094D01*
X33891838Y-27748095D01*
X33891837Y-27748095D01*
X33800843Y-27785786D01*
X33704247Y-27805000D01*
X33605753Y-27805000D01*
X33509157Y-27785786D01*
X33418163Y-27748095D01*
X33418162Y-27748095D01*
X33418161Y-27748094D01*
X33336269Y-27693375D01*
X33266625Y-27623731D01*
X33259552Y-27613145D01*
X33211905Y-27541837D01*
X33174214Y-27450843D01*
X33155000Y-27354247D01*
X33155000Y-27255753D01*
X33174214Y-27159157D01*
X33211905Y-27068163D01*
X33266624Y-26986270D01*
X33336270Y-26916624D01*
X33376937Y-26889451D01*
X33418161Y-26861906D01*
X33509155Y-26824215D01*
X33509154Y-26824215D01*
X33509157Y-26824214D01*
X33605753Y-26805000D01*
X33704247Y-26805000D01*
X33800843Y-26824214D01*
G37*
G36*
X32530843Y-26824214D02*
G01*
X32530846Y-26824215D01*
X32530845Y-26824215D01*
X32621839Y-26861906D01*
X32663063Y-26889451D01*
X32703730Y-26916624D01*
X32773376Y-26986270D01*
X32828095Y-27068163D01*
X32865786Y-27159157D01*
X32885000Y-27255753D01*
X32885000Y-27354247D01*
X32865786Y-27450843D01*
X32828095Y-27541837D01*
X32780449Y-27613145D01*
X32773375Y-27623731D01*
X32703731Y-27693375D01*
X32621839Y-27748094D01*
X32621838Y-27748095D01*
X32621837Y-27748095D01*
X32530843Y-27785786D01*
X32434247Y-27805000D01*
X32335753Y-27805000D01*
X32239157Y-27785786D01*
X32148163Y-27748095D01*
X32148162Y-27748095D01*
X32148161Y-27748094D01*
X32066269Y-27693375D01*
X31996625Y-27623731D01*
X31989552Y-27613145D01*
X31941905Y-27541837D01*
X31904214Y-27450843D01*
X31885000Y-27354247D01*
X31885000Y-27255753D01*
X31904214Y-27159157D01*
X31941905Y-27068163D01*
X31996624Y-26986270D01*
X32066270Y-26916624D01*
X32106937Y-26889451D01*
X32148161Y-26861906D01*
X32239155Y-26824215D01*
X32239154Y-26824215D01*
X32239157Y-26824214D01*
X32335753Y-26805000D01*
X32434247Y-26805000D01*
X32530843Y-26824214D01*
G37*
G36*
X32530843Y-25554214D02*
G01*
X32530846Y-25554215D01*
X32530845Y-25554215D01*
X32621839Y-25591906D01*
X32643870Y-25606627D01*
X32703730Y-25646624D01*
X32773376Y-25716270D01*
X32828095Y-25798163D01*
X32865786Y-25889157D01*
X32885000Y-25985753D01*
X32885000Y-26084247D01*
X32865786Y-26180843D01*
X32828095Y-26271837D01*
X32828094Y-26271839D01*
X32773375Y-26353731D01*
X32703731Y-26423375D01*
X32621839Y-26478094D01*
X32621838Y-26478095D01*
X32621837Y-26478095D01*
X32530843Y-26515786D01*
X32434247Y-26535000D01*
X32335753Y-26535000D01*
X32239157Y-26515786D01*
X32148163Y-26478095D01*
X32148162Y-26478095D01*
X32148161Y-26478094D01*
X32066269Y-26423375D01*
X31996625Y-26353731D01*
X31941906Y-26271839D01*
X31941905Y-26271837D01*
X31904214Y-26180843D01*
X31885000Y-26084247D01*
X31885000Y-25985753D01*
X31904214Y-25889157D01*
X31941905Y-25798163D01*
X31996624Y-25716270D01*
X32066270Y-25646624D01*
X32126130Y-25606627D01*
X32148161Y-25591906D01*
X32239155Y-25554215D01*
X32239154Y-25554215D01*
X32239157Y-25554214D01*
X32335753Y-25535000D01*
X32434247Y-25535000D01*
X32530843Y-25554214D01*
G37*
G36*
X33800843Y-25554214D02*
G01*
X33800846Y-25554215D01*
X33800845Y-25554215D01*
X33891839Y-25591906D01*
X33913870Y-25606627D01*
X33973730Y-25646624D01*
X34043376Y-25716270D01*
X34098095Y-25798163D01*
X34135786Y-25889157D01*
X34155000Y-25985753D01*
X34155000Y-26084247D01*
X34135786Y-26180843D01*
X34098095Y-26271837D01*
X34098094Y-26271839D01*
X34043375Y-26353731D01*
X33973731Y-26423375D01*
X33891839Y-26478094D01*
X33891838Y-26478095D01*
X33891837Y-26478095D01*
X33800843Y-26515786D01*
X33704247Y-26535000D01*
X33605753Y-26535000D01*
X33509157Y-26515786D01*
X33418163Y-26478095D01*
X33418162Y-26478095D01*
X33418161Y-26478094D01*
X33336269Y-26423375D01*
X33266625Y-26353731D01*
X33211906Y-26271839D01*
X33211905Y-26271837D01*
X33174214Y-26180843D01*
X33155000Y-26084247D01*
X33155000Y-25985753D01*
X33174214Y-25889157D01*
X33211905Y-25798163D01*
X33266624Y-25716270D01*
X33336270Y-25646624D01*
X33396130Y-25606627D01*
X33418161Y-25591906D01*
X33509155Y-25554215D01*
X33509154Y-25554215D01*
X33509157Y-25554214D01*
X33605753Y-25535000D01*
X33704247Y-25535000D01*
X33800843Y-25554214D01*
G37*
G36*
X23786627Y-24602299D02*
G01*
X23866742Y-24626602D01*
X23946855Y-24650903D01*
X23946857Y-24650904D01*
X24094518Y-24729831D01*
X24223949Y-24836051D01*
X24330168Y-24965481D01*
X24409097Y-25113145D01*
X24433398Y-25193258D01*
X24457701Y-25273373D01*
X24474112Y-25440000D01*
X24457701Y-25606627D01*
X24409096Y-25766857D01*
X24330169Y-25914518D01*
X24223949Y-26043949D01*
X24094518Y-26150169D01*
X23946857Y-26229096D01*
X23946855Y-26229097D01*
X23866742Y-26253398D01*
X23786627Y-26277701D01*
X23661752Y-26290000D01*
X23328248Y-26290000D01*
X23203373Y-26277701D01*
X23123258Y-26253398D01*
X23043145Y-26229097D01*
X23043143Y-26229096D01*
X22895482Y-26150169D01*
X22766051Y-26043949D01*
X22659831Y-25914518D01*
X22580904Y-25766857D01*
X22532299Y-25606627D01*
X22515888Y-25440000D01*
X22532299Y-25273373D01*
X22556602Y-25193258D01*
X22580903Y-25113145D01*
X22659832Y-24965481D01*
X22766051Y-24836051D01*
X22895482Y-24729831D01*
X23043143Y-24650904D01*
X23043145Y-24650903D01*
X23123258Y-24626602D01*
X23203373Y-24602299D01*
X23328248Y-24590000D01*
X23661752Y-24590000D01*
X23786627Y-24602299D01*
G37*
G36*
X32530843Y-24284214D02*
G01*
X32530846Y-24284215D01*
X32530845Y-24284215D01*
X32621839Y-24321906D01*
X32640211Y-24334182D01*
X32703730Y-24376624D01*
X32773376Y-24446270D01*
X32828095Y-24528163D01*
X32865786Y-24619157D01*
X32885000Y-24715753D01*
X32885000Y-24814247D01*
X32865786Y-24910843D01*
X32865785Y-24910845D01*
X32828094Y-25001839D01*
X32773375Y-25083731D01*
X32703731Y-25153375D01*
X32621839Y-25208094D01*
X32621838Y-25208095D01*
X32621837Y-25208095D01*
X32530843Y-25245786D01*
X32434247Y-25265000D01*
X32335753Y-25265000D01*
X32239157Y-25245786D01*
X32148163Y-25208095D01*
X32148162Y-25208095D01*
X32148161Y-25208094D01*
X32066269Y-25153375D01*
X31996625Y-25083731D01*
X31941906Y-25001839D01*
X31904215Y-24910845D01*
X31904214Y-24910843D01*
X31885000Y-24814247D01*
X31885000Y-24715753D01*
X31904214Y-24619157D01*
X31941905Y-24528163D01*
X31996624Y-24446270D01*
X32066270Y-24376624D01*
X32129789Y-24334182D01*
X32148161Y-24321906D01*
X32239155Y-24284215D01*
X32239154Y-24284215D01*
X32239157Y-24284214D01*
X32335753Y-24265000D01*
X32434247Y-24265000D01*
X32530843Y-24284214D01*
G37*
G36*
X33800843Y-24284214D02*
G01*
X33800846Y-24284215D01*
X33800845Y-24284215D01*
X33891839Y-24321906D01*
X33910211Y-24334182D01*
X33973730Y-24376624D01*
X34043376Y-24446270D01*
X34098095Y-24528163D01*
X34135786Y-24619157D01*
X34155000Y-24715753D01*
X34155000Y-24814247D01*
X34135786Y-24910843D01*
X34135785Y-24910845D01*
X34098094Y-25001839D01*
X34043375Y-25083731D01*
X33973731Y-25153375D01*
X33891839Y-25208094D01*
X33891838Y-25208095D01*
X33891837Y-25208095D01*
X33800843Y-25245786D01*
X33704247Y-25265000D01*
X33605753Y-25265000D01*
X33509157Y-25245786D01*
X33418163Y-25208095D01*
X33418162Y-25208095D01*
X33418161Y-25208094D01*
X33336269Y-25153375D01*
X33266625Y-25083731D01*
X33211906Y-25001839D01*
X33174215Y-24910845D01*
X33174214Y-24910843D01*
X33155000Y-24814247D01*
X33155000Y-24715753D01*
X33174214Y-24619157D01*
X33211905Y-24528163D01*
X33266624Y-24446270D01*
X33336270Y-24376624D01*
X33399789Y-24334182D01*
X33418161Y-24321906D01*
X33509155Y-24284215D01*
X33509154Y-24284215D01*
X33509157Y-24284214D01*
X33605753Y-24265000D01*
X33704247Y-24265000D01*
X33800843Y-24284214D01*
G37*
G36*
X77039182Y-23456900D02*
G01*
X77166573Y-23509667D01*
X77166574Y-23509668D01*
X77281224Y-23586274D01*
X77378726Y-23683776D01*
X77378727Y-23683778D01*
X77455333Y-23798427D01*
X77508100Y-23925818D01*
X77535000Y-24061055D01*
X77535000Y-24198945D01*
X77508100Y-24334182D01*
X77455333Y-24461573D01*
X77455332Y-24461574D01*
X77378726Y-24576224D01*
X77281224Y-24673726D01*
X77223510Y-24712289D01*
X77166573Y-24750333D01*
X77039182Y-24803100D01*
X76903945Y-24830000D01*
X76766055Y-24830000D01*
X76630818Y-24803100D01*
X76503427Y-24750333D01*
X76446490Y-24712289D01*
X76388776Y-24673726D01*
X76291274Y-24576224D01*
X76214668Y-24461574D01*
X76214667Y-24461573D01*
X76161900Y-24334182D01*
X76135000Y-24198945D01*
X76135000Y-24061055D01*
X76161900Y-23925818D01*
X76214667Y-23798427D01*
X76291273Y-23683778D01*
X76291274Y-23683776D01*
X76388776Y-23586274D01*
X76503426Y-23509668D01*
X76503427Y-23509667D01*
X76630818Y-23456900D01*
X76766055Y-23430000D01*
X76903945Y-23430000D01*
X77039182Y-23456900D01*
G37*
G36*
X32530843Y-23014214D02*
G01*
X32530846Y-23014215D01*
X32530845Y-23014215D01*
X32621839Y-23051906D01*
X32663063Y-23079451D01*
X32703730Y-23106624D01*
X32773376Y-23176270D01*
X32828095Y-23258163D01*
X32865786Y-23349157D01*
X32885000Y-23445753D01*
X32885000Y-23544247D01*
X32865786Y-23640843D01*
X32848002Y-23683778D01*
X32828094Y-23731839D01*
X32773375Y-23813731D01*
X32703731Y-23883375D01*
X32621839Y-23938094D01*
X32621838Y-23938095D01*
X32621837Y-23938095D01*
X32530843Y-23975786D01*
X32434247Y-23995000D01*
X32335753Y-23995000D01*
X32239157Y-23975786D01*
X32148163Y-23938095D01*
X32148162Y-23938095D01*
X32148161Y-23938094D01*
X32066269Y-23883375D01*
X31996625Y-23813731D01*
X31941906Y-23731839D01*
X31921998Y-23683778D01*
X31904214Y-23640843D01*
X31885000Y-23544247D01*
X31885000Y-23445753D01*
X31904214Y-23349157D01*
X31941905Y-23258163D01*
X31996624Y-23176270D01*
X32066270Y-23106624D01*
X32106937Y-23079451D01*
X32148161Y-23051906D01*
X32239155Y-23014215D01*
X32239154Y-23014215D01*
X32239157Y-23014214D01*
X32335753Y-22995000D01*
X32434247Y-22995000D01*
X32530843Y-23014214D01*
G37*
G36*
X33800843Y-23014214D02*
G01*
X33800846Y-23014215D01*
X33800845Y-23014215D01*
X33891839Y-23051906D01*
X33933063Y-23079451D01*
X33973730Y-23106624D01*
X34043376Y-23176270D01*
X34098095Y-23258163D01*
X34135786Y-23349157D01*
X34155000Y-23445753D01*
X34155000Y-23544247D01*
X34135786Y-23640843D01*
X34118002Y-23683778D01*
X34098094Y-23731839D01*
X34043375Y-23813731D01*
X33973731Y-23883375D01*
X33891839Y-23938094D01*
X33891838Y-23938095D01*
X33891837Y-23938095D01*
X33800843Y-23975786D01*
X33704247Y-23995000D01*
X33605753Y-23995000D01*
X33509157Y-23975786D01*
X33418163Y-23938095D01*
X33418162Y-23938095D01*
X33418161Y-23938094D01*
X33336269Y-23883375D01*
X33266625Y-23813731D01*
X33211906Y-23731839D01*
X33191998Y-23683778D01*
X33174214Y-23640843D01*
X33155000Y-23544247D01*
X33155000Y-23445753D01*
X33174214Y-23349157D01*
X33211905Y-23258163D01*
X33266624Y-23176270D01*
X33336270Y-23106624D01*
X33376937Y-23079451D01*
X33418161Y-23051906D01*
X33509155Y-23014215D01*
X33509154Y-23014215D01*
X33509157Y-23014214D01*
X33605753Y-22995000D01*
X33704247Y-22995000D01*
X33800843Y-23014214D01*
G37*
G36*
X23786627Y-22102299D02*
G01*
X23866742Y-22126602D01*
X23946855Y-22150903D01*
X23946857Y-22150904D01*
X24094518Y-22229831D01*
X24223949Y-22336051D01*
X24330169Y-22465482D01*
X24371994Y-22543731D01*
X24409097Y-22613145D01*
X24433398Y-22693258D01*
X24457701Y-22773373D01*
X24474112Y-22940000D01*
X24457701Y-23106627D01*
X24457700Y-23106629D01*
X24411734Y-23258163D01*
X24409096Y-23266857D01*
X24330169Y-23414518D01*
X24223949Y-23543949D01*
X24094518Y-23650169D01*
X24031644Y-23683776D01*
X23946855Y-23729097D01*
X23866742Y-23753398D01*
X23786627Y-23777701D01*
X23661752Y-23790000D01*
X23328248Y-23790000D01*
X23203373Y-23777701D01*
X23123258Y-23753398D01*
X23043145Y-23729097D01*
X22958356Y-23683776D01*
X22895482Y-23650169D01*
X22766051Y-23543949D01*
X22659831Y-23414518D01*
X22580904Y-23266857D01*
X22578267Y-23258163D01*
X22532300Y-23106629D01*
X22532299Y-23106627D01*
X22515888Y-22940000D01*
X22532299Y-22773373D01*
X22556602Y-22693258D01*
X22580903Y-22613145D01*
X22618006Y-22543731D01*
X22659831Y-22465482D01*
X22766051Y-22336051D01*
X22895482Y-22229831D01*
X23043143Y-22150904D01*
X23043145Y-22150903D01*
X23123258Y-22126602D01*
X23203373Y-22102299D01*
X23328248Y-22090000D01*
X23661752Y-22090000D01*
X23786627Y-22102299D01*
G37*
G36*
X32885000Y-22725000D02*
G01*
X31885000Y-22725000D01*
X31885000Y-21725000D01*
X32885000Y-21725000D01*
X32885000Y-22725000D01*
G37*
G36*
X33800843Y-21744214D02*
G01*
X33800846Y-21744215D01*
X33800845Y-21744215D01*
X33891839Y-21781906D01*
X33933063Y-21809451D01*
X33973730Y-21836624D01*
X34043376Y-21906270D01*
X34098095Y-21988163D01*
X34135786Y-22079157D01*
X34155000Y-22175753D01*
X34155000Y-22274247D01*
X34135786Y-22370843D01*
X34135785Y-22370845D01*
X34098094Y-22461839D01*
X34043375Y-22543731D01*
X33973731Y-22613375D01*
X33891839Y-22668094D01*
X33891838Y-22668095D01*
X33891837Y-22668095D01*
X33800843Y-22705786D01*
X33704247Y-22725000D01*
X33605753Y-22725000D01*
X33509157Y-22705786D01*
X33418163Y-22668095D01*
X33418162Y-22668095D01*
X33418161Y-22668094D01*
X33336269Y-22613375D01*
X33266625Y-22543731D01*
X33211906Y-22461839D01*
X33174215Y-22370845D01*
X33174214Y-22370843D01*
X33155000Y-22274247D01*
X33155000Y-22175753D01*
X33174214Y-22079157D01*
X33211905Y-21988163D01*
X33266624Y-21906270D01*
X33336270Y-21836624D01*
X33376937Y-21809451D01*
X33418161Y-21781906D01*
X33509155Y-21744215D01*
X33509154Y-21744215D01*
X33509157Y-21744214D01*
X33605753Y-21725000D01*
X33704247Y-21725000D01*
X33800843Y-21744214D01*
G37*
M02*
